<svg width="1648" height="969" xmlns="http://www.w3.org/2000/svg" viewBox="0 0 1648 969">
<defs>
  <style>
    @import url('https://fonts.googleapis.com/css2?family=Lexend:wght@300;400;600;700&amp;display=swap');
    circle:hover { opacity: 1 !important; r: 6; }
    rect.bar-segment:hover { opacity: 1 !important; }
  </style>

  <linearGradient id="bg" x1="0%" y1="0%" x2="55%" y2="100%">
    <stop offset="0%"   stop-color="#010c1e"/>
    <stop offset="50%"  stop-color="#010f27"/>
    <stop offset="100%" stop-color="#000a18"/>
  </linearGradient>
  <linearGradient id="areaFill" x1="0%" y1="0%" x2="0%" y2="100%">
    <stop offset="0%"   stop-color="#4a90e2" stop-opacity="0.5"/>
    <stop offset="55%"  stop-color="#1a3f7a" stop-opacity="0.18"/>
    <stop offset="100%" stop-color="#000a18" stop-opacity="0"/>
  </linearGradient>
  <linearGradient id="gCommits" x1="0%" y1="0%" x2="100%" y2="0%">
    <stop offset="0%"   stop-color="#ff8c42"/>
    <stop offset="100%" stop-color="#ffd0a0"/>
  </linearGradient>
  <linearGradient id="gChanges" x1="0%" y1="0%" x2="100%" y2="0%">
    <stop offset="0%"   stop-color="#00d4f5" stop-opacity="0.8"/>
    <stop offset="50%"  stop-color="#00d4f5"/>
    <stop offset="100%" stop-color="#80eeff"/>
  </linearGradient>
  <linearGradient id="gBorder" x1="0%" y1="0%" x2="100%" y2="100%">
    <stop offset="0%"   stop-color="#1840a0" stop-opacity="0.9"/>
    <stop offset="50%"  stop-color="#3b82f6" stop-opacity="0.6"/>
    <stop offset="100%" stop-color="#60a5fa" stop-opacity="0.9"/>
  </linearGradient>
  <linearGradient id="gHeader" x1="0%" y1="0%" x2="100%" y2="0%">
    <stop offset="0%"   stop-color="#010c1e" stop-opacity="0"/>
    <stop offset="20%"  stop-color="#091c3e" stop-opacity="0.92"/>
    <stop offset="80%"  stop-color="#091c3e" stop-opacity="0.92"/>
    <stop offset="100%" stop-color="#010c1e" stop-opacity="0"/>
  </linearGradient>
  <linearGradient id="gAddBar" x1="0%" y1="0%" x2="0%" y2="100%">
    <stop offset="0%"   stop-color="#22c55e" stop-opacity="0.95"/>
    <stop offset="100%" stop-color="#22c55e" stop-opacity="0.65"/>
  </linearGradient>
  <linearGradient id="gDelBar" x1="0%" y1="0%" x2="0%" y2="100%">
    <stop offset="0%"   stop-color="#ef4444" stop-opacity="0.9"/>
    <stop offset="100%" stop-color="#ef4444" stop-opacity="0.6"/>
  </linearGradient>

  <filter id="glowOrange" x="-120%" y="-120%" width="340%" height="340%">
    <feGaussianBlur stdDeviation="4" result="b"/>
    <feMerge><feMergeNode in="b"/><feMergeNode in="SourceGraphic"/></feMerge>
  </filter>
  <filter id="glowCyan" x="-120%" y="-120%" width="340%" height="340%">
    <feGaussianBlur stdDeviation="3.5" result="b"/>
    <feMerge><feMergeNode in="b"/><feMergeNode in="SourceGraphic"/></feMerge>
  </filter>
  <filter id="glowTitle">
    <feGaussianBlur stdDeviation="5" result="b"/>
    <feMerge><feMergeNode in="b"/><feMergeNode in="b"/><feMergeNode in="SourceGraphic"/></feMerge>
  </filter>
  <filter id="glowLine" x="-6%" y="-120%" width="112%" height="340%">
    <feGaussianBlur stdDeviation="4.5" result="b"/>
    <feMerge><feMergeNode in="b"/><feMergeNode in="SourceGraphic"/></feMerge>
  </filter>
  <filter id="glowMA" x="-6%" y="-120%" width="112%" height="340%">
    <feGaussianBlur stdDeviation="3" result="b"/>
    <feMerge><feMergeNode in="b"/><feMergeNode in="SourceGraphic"/></feMerge>
  </filter>

  <pattern id="diamondTile" x="0" y="0" width="30" height="30" patternUnits="userSpaceOnUse">
    <path d="M15 2 L28 15 L15 28 L2 15 Z"
      fill="none" stroke="#0d2464" stroke-width="0.4" stroke-opacity="0.25"/>
  </pattern>

  <clipPath id="chartClip">
    <rect x="86" y="130" width="1484" height="360"/>
  </clipPath>
</defs>

<!-- ════ BACKGROUND ════ -->
<rect width="1648" height="969" fill="url(#bg)" rx="16"/>
<rect width="1648" height="969" fill="url(#diamondTile)" rx="16"/>

<!-- ════ BORDERS ════ -->
<rect width="1648" height="969" fill="none" rx="16" stroke="url(#gBorder)" stroke-width="2.2"/>
<rect x="5" y="5" width="1638" height="959" fill="none" rx="13"
  stroke="#1840a0" stroke-width="0.7" stroke-opacity="0.35"/>

<!-- ════ HEADER ════ -->
<rect x="0" y="0" width="1648" height="122" fill="url(#gHeader)" rx="16"/>
<line x1="24" y1="118.0" x2="1624.0" y2="118.0"
    stroke="url(#gBorder)" stroke-width="0.8" stroke-opacity="0.5"/>

<!-- ════ TITLE ════ -->
<text x="828.0" y="44" font-size="18" font-weight="600" fill="#cce8ff"
  text-anchor="middle" font-family="'Lexend','Segoe UI',sans-serif"
  filter="url(#glowTitle)" letter-spacing="5">⬡  COMMIT  ANALYTICS  ⬡</text>
<text x="828.0" y="62" font-size="9.5" fill="#3d7ed4" text-anchor="middle"
  font-family="'Lexend','Segoe UI',sans-serif" letter-spacing="3.5" font-weight="300">kieran-lucas/oop-course-project-uet</text>

<!-- ════ STATS BADGE ════ -->

    <rect x="1422" y="8" width="142" height="92" rx="10"
      fill="#030e26" fill-opacity="0.94" stroke="#2563eb" stroke-width="1.2"/>
    <text x="1493" y="24" font-size="8" fill="#3d7ed4"
      text-anchor="middle" font-family="'Lexend',sans-serif" letter-spacing="2" font-weight="400">TOTAL  COMMITS</text>
    <text x="1493" y="52" font-size="28" font-weight="700" fill="#cce8ff"
      text-anchor="middle" font-family="'Lexend',sans-serif" filter="url(#glowTitle)">312</text>
    <line x1="1438" y1="60" x2="1548" y2="60"
      stroke="#1a3f7a" stroke-width="0.8" stroke-opacity="0.5"/>
    <text x="1469" y="74" font-size="9" fill="#22c55e"
      text-anchor="middle" font-family="'Lexend',sans-serif" font-weight="400">+164.1k</text>
    <text x="1517" y="74" font-size="9" fill="#ef4444"
      text-anchor="middle" font-family="'Lexend',sans-serif" font-weight="400">-85.0k</text>
    <text x="1493" y="90" font-size="8" fill="#3d7ed4"
      text-anchor="middle" font-family="'Lexend',sans-serif" font-weight="300">43 active days · 1.1k files</text>

<!-- ════ LEGEND ════ -->
<g><rect x="472.0" y="90.0" width="24" height="12" rx="3"
        fill="#4a90e2" fill-opacity="0.45" stroke="#4a90e2" stroke-width="1.2"/><text x="503.0" y="100.0" font-size="11" fill="#93c5fd"
      font-family="'Lexend','Segoe UI',sans-serif" font-weight="400">Total Lines</text><line x1="608.0" y1="97.0" x2="632.0" y2="97.0"
        stroke="#ff8c42" stroke-width="2.5" stroke-linecap="round"/><circle cx="620.0" cy="97.0" r="3.5"
        fill="#ff8c42" stroke="#fff" stroke-width="0.6" stroke-opacity="0.3"/><text x="639.0" y="100.0" font-size="11" fill="#93c5fd"
      font-family="'Lexend','Segoe UI',sans-serif" font-weight="400">Commits</text><line x1="716.0" y1="97.0" x2="740.0" y2="97.0"
        stroke="#00d4f5" stroke-width="2.5" stroke-linecap="round"/><circle cx="728.0" cy="97.0" r="3.5"
        fill="#00d4f5" stroke="#fff" stroke-width="0.6" stroke-opacity="0.3"/><text x="747.0" y="100.0" font-size="11" fill="#93c5fd"
      font-family="'Lexend','Segoe UI',sans-serif" font-weight="400">Chg/Commit</text><rect x="851.0" y="90.0" width="12" height="12" rx="2"
        fill="#22c55e" opacity="0.85"/><text x="876.0" y="100.0" font-size="11" fill="#93c5fd"
      font-family="'Lexend','Segoe UI',sans-serif" font-weight="400">Additions</text><rect x="973.0" y="90.0" width="12" height="12" rx="2"
        fill="#ef4444" opacity="0.85"/><text x="998.0" y="100.0" font-size="11" fill="#93c5fd"
      font-family="'Lexend','Segoe UI',sans-serif" font-weight="400">Deletions</text><line x1="1089.0" y1="97.0" x2="1113.0" y2="97.0"
        stroke="#a78bfa" stroke-width="2" stroke-dasharray="5,3" stroke-linecap="round"/><text x="1120.0" y="100.0" font-size="11" fill="#93c5fd"
      font-family="'Lexend','Segoe UI',sans-serif" font-weight="400">7-day MA</text></g>

<!-- ════ AXIS LABELS ════ -->
<text x="16" y="310.0" font-size="9.5" fill="#4a90e2"
    text-anchor="middle" font-family="'Lexend','Segoe UI',sans-serif" letter-spacing="3" font-weight="300"
    transform="rotate(-90, 16, 310.0)">LINES</text>
<text x="1634.0" y="310.0" font-size="9.5"
    fill="#ff8c42" text-anchor="middle" font-family="'Lexend','Segoe UI',sans-serif"
    letter-spacing="3" font-weight="300" opacity="0.8"
    transform="rotate(90, 1634.0, 310.0)">COMMITS</text>

<!-- ════ GRID + Y-LABELS ════ -->
<line x1="86" y1="490.0" x2="1570" y2="490.0"
      stroke="#1a3f7a" stroke-width="1.4"
      stroke-opacity="0.9" stroke-dasharray="none"/><line x1="86" y1="418.0" x2="1570" y2="418.0"
      stroke="#1a3f7a" stroke-width="0.5"
      stroke-opacity="0.3" stroke-dasharray="6,6"/><line x1="86" y1="346.0" x2="1570" y2="346.0"
      stroke="#1a3f7a" stroke-width="0.5"
      stroke-opacity="0.3" stroke-dasharray="6,6"/><line x1="86" y1="274.0" x2="1570" y2="274.0"
      stroke="#1a3f7a" stroke-width="0.5"
      stroke-opacity="0.3" stroke-dasharray="6,6"/><line x1="86" y1="202.0" x2="1570" y2="202.0"
      stroke="#1a3f7a" stroke-width="0.5"
      stroke-opacity="0.3" stroke-dasharray="6,6"/><line x1="86" y1="130.0" x2="1570" y2="130.0"
      stroke="#1a3f7a" stroke-width="0.5"
      stroke-opacity="0.3" stroke-dasharray="6,6"/>
<text x="74" y="494.0" font-size="11" fill="#5aa8ff"
      text-anchor="end" font-family="'Lexend','Segoe UI',sans-serif" font-weight="300">0</text><text x="74" y="422.0" font-size="11" fill="#5aa8ff"
      text-anchor="end" font-family="'Lexend','Segoe UI',sans-serif" font-weight="300">20.0k</text><text x="74" y="350.0" font-size="11" fill="#5aa8ff"
      text-anchor="end" font-family="'Lexend','Segoe UI',sans-serif" font-weight="300">40.0k</text><text x="74" y="278.0" font-size="11" fill="#5aa8ff"
      text-anchor="end" font-family="'Lexend','Segoe UI',sans-serif" font-weight="300">60.0k</text><text x="74" y="206.0" font-size="11" fill="#5aa8ff"
      text-anchor="end" font-family="'Lexend','Segoe UI',sans-serif" font-weight="300">80.0k</text><text x="74" y="134.0" font-size="11" fill="#5aa8ff"
      text-anchor="end" font-family="'Lexend','Segoe UI',sans-serif" font-weight="300">100.0k</text>
<text x="1582" y="494.0" font-size="11" fill="#ff8c42"
      text-anchor="start" font-family="'Lexend','Segoe UI',sans-serif" font-weight="300" opacity="0.85">0</text><text x="1582" y="404.0" font-size="11" fill="#ff8c42"
      text-anchor="start" font-family="'Lexend','Segoe UI',sans-serif" font-weight="300" opacity="0.85">20</text><text x="1582" y="314.0" font-size="11" fill="#ff8c42"
      text-anchor="start" font-family="'Lexend','Segoe UI',sans-serif" font-weight="300" opacity="0.85">40</text><text x="1582" y="224.0" font-size="11" fill="#ff8c42"
      text-anchor="start" font-family="'Lexend','Segoe UI',sans-serif" font-weight="300" opacity="0.85">60</text><text x="1582" y="134.0" font-size="11" fill="#ff8c42"
      text-anchor="start" font-family="'Lexend','Segoe UI',sans-serif" font-weight="300" opacity="0.85">80</text>

<!-- ════ AXIS LINES ════ -->
<line x1="86" y1="130" x2="86" y2="490"
  stroke="#1a3f7a" stroke-width="1.2" stroke-opacity="0.65"/>
<line x1="86" y1="490" x2="1570" y2="490"
  stroke="#1a3f7a" stroke-width="1.4" stroke-opacity="0.8"/>
<line x1="1570" y1="130" x2="1570" y2="490"
  stroke="#ff8c42" stroke-width="0.9" stroke-opacity="0.28"/>

<!-- ════ X-AXIS ════ -->
<text x="86.0" y="514" font-size="10" fill="#5aa8ff"
      text-anchor="end" font-family="'Lexend','Segoe UI',sans-serif" font-weight="300"
      transform="rotate(-42, 86.0, 514)">10 Mar</text><text x="200.2" y="514" font-size="10" fill="#5aa8ff"
      text-anchor="end" font-family="'Lexend','Segoe UI',sans-serif" font-weight="300"
      transform="rotate(-42, 200.2, 514)">14 Mar</text><text x="314.3" y="514" font-size="10" fill="#5aa8ff"
      text-anchor="end" font-family="'Lexend','Segoe UI',sans-serif" font-weight="300"
      transform="rotate(-42, 314.3, 514)">18 Mar</text><text x="428.5" y="514" font-size="10" fill="#5aa8ff"
      text-anchor="end" font-family="'Lexend','Segoe UI',sans-serif" font-weight="300"
      transform="rotate(-42, 428.5, 514)">22 Mar</text><text x="542.6" y="514" font-size="10" fill="#5aa8ff"
      text-anchor="end" font-family="'Lexend','Segoe UI',sans-serif" font-weight="300"
      transform="rotate(-42, 542.6, 514)">26 Mar</text><text x="656.8" y="514" font-size="10" fill="#5aa8ff"
      text-anchor="end" font-family="'Lexend','Segoe UI',sans-serif" font-weight="300"
      transform="rotate(-42, 656.8, 514)">30 Mar</text><text x="770.9" y="514" font-size="10" fill="#5aa8ff"
      text-anchor="end" font-family="'Lexend','Segoe UI',sans-serif" font-weight="300"
      transform="rotate(-42, 770.9, 514)">3 Apr</text><text x="885.1" y="514" font-size="10" fill="#5aa8ff"
      text-anchor="end" font-family="'Lexend','Segoe UI',sans-serif" font-weight="300"
      transform="rotate(-42, 885.1, 514)">7 Apr</text><text x="999.2" y="514" font-size="10" fill="#5aa8ff"
      text-anchor="end" font-family="'Lexend','Segoe UI',sans-serif" font-weight="300"
      transform="rotate(-42, 999.2, 514)">11 Apr</text><text x="1113.4" y="514" font-size="10" fill="#5aa8ff"
      text-anchor="end" font-family="'Lexend','Segoe UI',sans-serif" font-weight="300"
      transform="rotate(-42, 1113.4, 514)">15 Apr</text><text x="1227.5" y="514" font-size="10" fill="#5aa8ff"
      text-anchor="end" font-family="'Lexend','Segoe UI',sans-serif" font-weight="300"
      transform="rotate(-42, 1227.5, 514)">19 Apr</text><text x="1341.7" y="514" font-size="10" fill="#5aa8ff"
      text-anchor="end" font-family="'Lexend','Segoe UI',sans-serif" font-weight="300"
      transform="rotate(-42, 1341.7, 514)">23 Apr</text><text x="1455.8" y="514" font-size="10" fill="#5aa8ff"
      text-anchor="end" font-family="'Lexend','Segoe UI',sans-serif" font-weight="300"
      transform="rotate(-42, 1455.8, 514)">27 Apr</text><text x="1570.0" y="514" font-size="10" fill="#5aa8ff"
      text-anchor="end" font-family="'Lexend','Segoe UI',sans-serif" font-weight="300"
      transform="rotate(-42, 1570.0, 514)">1 May</text>

<!-- ════ CHART CONTENT ════ -->
<g clip-path="url(#chartClip)">
  <!-- Total lines: area + stroke -->
  <path d="M 86.00 490.00 C 90.76 490.00, 105.03 490.00, 114.54 490.00 C 124.05 490.00, 133.56 490.00, 143.08 490.00 C 152.59 490.00, 162.10 490.00, 171.62 490.00 C 181.13 490.00, 190.64 490.00, 200.15 490.00 C 209.67 490.00, 219.18 490.00, 228.69 490.00 C 238.21 490.00, 247.72 490.00, 257.23 490.00 C 266.74 489.98, 276.26 489.92, 285.77 489.91 C 295.28 489.89, 304.79 489.91, 314.31 489.91 C 323.82 489.91, 333.33 489.94, 342.85 489.91 C 352.36 489.87, 361.87 489.72, 371.38 489.69 C 380.90 489.65, 390.41 489.70, 399.92 489.69 C 409.44 489.67, 418.95 489.62, 428.46 489.61 C 437.97 489.59, 447.49 490.00, 457.00 489.61 C 466.51 488.99, 476.03 486.51, 485.54 485.89 C 495.05 485.28, 504.56 485.91, 514.08 485.91 C 523.59 485.91, 533.10 485.90, 542.62 485.90 C 552.13 485.90, 561.64 490.00, 571.15 485.89 C 580.67 443.28, 590.18 274.96, 599.69 230.27 C 609.21 185.59, 618.72 219.88, 628.23 217.78 C 637.74 215.68, 647.26 218.05, 656.77 217.69 C 666.28 217.33, 675.79 216.22, 685.31 215.61 C 694.82 215.00, 704.33 214.42, 713.85 214.05 C 723.36 213.67, 732.87 213.51, 742.38 213.37 C 751.90 213.23, 761.41 213.54, 770.92 213.21 C 780.44 212.88, 789.95 211.70, 799.46 211.39 C 808.97 211.09, 818.49 211.39, 828.00 211.39 C 837.51 211.39, 847.03 211.45, 856.54 211.38 C 866.05 211.31, 875.56 211.03, 885.08 210.96 C 894.59 210.89, 904.10 210.96, 913.62 210.96 C 923.13 210.95, 932.64 210.95, 942.15 210.94 C 951.67 210.94, 961.18 210.92, 970.69 210.92 C 980.21 210.92, 989.72 211.38, 999.23 210.94 C 1008.74 210.50, 1018.26 208.73, 1027.77 208.29 C 1037.28 207.84, 1046.79 208.30, 1056.31 208.29 C 1065.82 208.27, 1075.33 208.21, 1084.85 208.20 C 1094.36 208.18, 1103.87 208.18, 1113.38 208.17 C 1122.90 208.17, 1132.41 208.16, 1141.92 208.16 C 1151.44 208.15, 1160.95 208.15, 1170.46 208.15 C 1179.97 208.14, 1189.49 208.13, 1199.00 208.12 C 1208.51 208.12, 1218.03 208.20, 1227.54 208.11 C 1237.05 208.01, 1246.56 207.65, 1256.08 207.56 C 1265.59 207.47, 1275.10 207.55, 1284.62 207.55 C 1294.13 207.55, 1303.64 207.54, 1313.15 207.54 C 1322.67 207.53, 1332.18 207.53, 1341.69 207.52 C 1351.21 207.52, 1360.72 207.51, 1370.23 207.50 C 1379.74 207.49, 1389.26 207.49, 1398.77 207.49 C 1408.28 207.49, 1417.79 207.49, 1427.31 207.49 C 1436.82 207.49, 1446.33 207.50, 1455.85 207.48 C 1465.36 207.46, 1474.87 207.41, 1484.38 207.39 C 1493.90 207.37, 1503.41 207.38, 1512.92 207.37 C 1522.44 207.37, 1531.95 207.71, 1541.46 207.35 C 1550.97 207.00, 1565.24 205.59, 1570.00 205.24 L 1570.00 490 L 86.00 490 Z" fill="url(#areaFill)"/>
  <path d="M 86.00 490.00 C 90.76 490.00, 105.03 490.00, 114.54 490.00 C 124.05 490.00, 133.56 490.00, 143.08 490.00 C 152.59 490.00, 162.10 490.00, 171.62 490.00 C 181.13 490.00, 190.64 490.00, 200.15 490.00 C 209.67 490.00, 219.18 490.00, 228.69 490.00 C 238.21 490.00, 247.72 490.00, 257.23 490.00 C 266.74 489.98, 276.26 489.92, 285.77 489.91 C 295.28 489.89, 304.79 489.91, 314.31 489.91 C 323.82 489.91, 333.33 489.94, 342.85 489.91 C 352.36 489.87, 361.87 489.72, 371.38 489.69 C 380.90 489.65, 390.41 489.70, 399.92 489.69 C 409.44 489.67, 418.95 489.62, 428.46 489.61 C 437.97 489.59, 447.49 490.00, 457.00 489.61 C 466.51 488.99, 476.03 486.51, 485.54 485.89 C 495.05 485.28, 504.56 485.91, 514.08 485.91 C 523.59 485.91, 533.10 485.90, 542.62 485.90 C 552.13 485.90, 561.64 490.00, 571.15 485.89 C 580.67 443.28, 590.18 274.96, 599.69 230.27 C 609.21 185.59, 618.72 219.88, 628.23 217.78 C 637.74 215.68, 647.26 218.05, 656.77 217.69 C 666.28 217.33, 675.79 216.22, 685.31 215.61 C 694.82 215.00, 704.33 214.42, 713.85 214.05 C 723.36 213.67, 732.87 213.51, 742.38 213.37 C 751.90 213.23, 761.41 213.54, 770.92 213.21 C 780.44 212.88, 789.95 211.70, 799.46 211.39 C 808.97 211.09, 818.49 211.39, 828.00 211.39 C 837.51 211.39, 847.03 211.45, 856.54 211.38 C 866.05 211.31, 875.56 211.03, 885.08 210.96 C 894.59 210.89, 904.10 210.96, 913.62 210.96 C 923.13 210.95, 932.64 210.95, 942.15 210.94 C 951.67 210.94, 961.18 210.92, 970.69 210.92 C 980.21 210.92, 989.72 211.38, 999.23 210.94 C 1008.74 210.50, 1018.26 208.73, 1027.77 208.29 C 1037.28 207.84, 1046.79 208.30, 1056.31 208.29 C 1065.82 208.27, 1075.33 208.21, 1084.85 208.20 C 1094.36 208.18, 1103.87 208.18, 1113.38 208.17 C 1122.90 208.17, 1132.41 208.16, 1141.92 208.16 C 1151.44 208.15, 1160.95 208.15, 1170.46 208.15 C 1179.97 208.14, 1189.49 208.13, 1199.00 208.12 C 1208.51 208.12, 1218.03 208.20, 1227.54 208.11 C 1237.05 208.01, 1246.56 207.65, 1256.08 207.56 C 1265.59 207.47, 1275.10 207.55, 1284.62 207.55 C 1294.13 207.55, 1303.64 207.54, 1313.15 207.54 C 1322.67 207.53, 1332.18 207.53, 1341.69 207.52 C 1351.21 207.52, 1360.72 207.51, 1370.23 207.50 C 1379.74 207.49, 1389.26 207.49, 1398.77 207.49 C 1408.28 207.49, 1417.79 207.49, 1427.31 207.49 C 1436.82 207.49, 1446.33 207.50, 1455.85 207.48 C 1465.36 207.46, 1474.87 207.41, 1484.38 207.39 C 1493.90 207.37, 1503.41 207.38, 1512.92 207.37 C 1522.44 207.37, 1531.95 207.71, 1541.46 207.35 C 1550.97 207.00, 1565.24 205.59, 1570.00 205.24" fill="none" stroke="#4a90e2" stroke-width="2" stroke-opacity="0.7"/>

  <!-- Bars -->
  <rect x="477.8" y="312.5" width="15.400000000000002" height="88.1"
        fill="url(#gDelBar)" rx="2" opacity="0.78"/><rect x="477.8" y="400.6" width="15.400000000000002" height="89.4"
        fill="url(#gAddBar)" rx="2" opacity="0.82"/><rect x="592.0" y="392.5" width="15.400000000000002" height="2.7"
        fill="url(#gDelBar)" rx="2" opacity="0.78"/><rect x="592.0" y="395.2" width="15.400000000000002" height="94.8"
        fill="url(#gAddBar)" rx="2" opacity="0.82"/><rect x="620.5" y="476.3" width="15.400000000000002" height="4.6"
        fill="url(#gDelBar)" rx="2" opacity="0.78"/><rect x="620.5" y="480.9" width="15.400000000000002" height="9.1"
        fill="url(#gAddBar)" rx="2" opacity="0.82"/><rect x="677.6" y="487.5" width="15.400000000000002" height="0.9"
        fill="url(#gDelBar)" rx="2" opacity="0.78"/><rect x="677.6" y="488.4" width="15.400000000000002" height="1.6"
        fill="url(#gAddBar)" rx="2" opacity="0.82"/><rect x="706.1" y="487.5" width="15.400000000000002" height="1.0"
        fill="url(#gDelBar)" rx="2" opacity="0.78"/><rect x="706.1" y="488.5" width="15.400000000000002" height="1.5"
        fill="url(#gAddBar)" rx="2" opacity="0.82"/><rect x="763.2" y="487.6" width="15.400000000000002" height="1.2"
        fill="url(#gDelBar)" rx="2" opacity="0.78"/><rect x="763.2" y="488.8" width="15.400000000000002" height="1.2"
        fill="url(#gAddBar)" rx="2" opacity="0.82"/><rect x="791.8" y="486.1" width="15.400000000000002" height="1.6"
        fill="url(#gDelBar)" rx="2" opacity="0.78"/><rect x="791.8" y="487.7" width="15.400000000000002" height="2.3"
        fill="url(#gAddBar)" rx="2" opacity="0.82"/><rect x="1020.1" y="488.8" width="15.400000000000002" height="1.2"
        fill="url(#gAddBar)" rx="2" opacity="0.82"/><rect x="1248.4" y="488.7" width="15.400000000000002" height="0.5"
        fill="url(#gDelBar)" rx="2" opacity="0.78"/><rect x="1248.4" y="489.3" width="15.400000000000002" height="0.7"
        fill="url(#gAddBar)" rx="2" opacity="0.82"/><rect x="1562.3" y="479.7" width="15.400000000000002" height="4.8"
        fill="url(#gDelBar)" rx="2" opacity="0.78"/><rect x="1562.3" y="484.5" width="15.400000000000002" height="5.5"
        fill="url(#gAddBar)" rx="2" opacity="0.82"/>

  <!-- Commits line — glow + crisp -->
  <path d="M 86.00 485.50 C 90.76 486.25, 105.03 489.25, 114.54 490.00 C 124.05 490.00, 133.56 490.00, 143.08 490.00 C 152.59 490.00, 162.10 490.00, 171.62 490.00 C 181.13 490.00, 190.64 490.00, 200.15 490.00 C 209.67 490.00, 219.18 490.00, 228.69 490.00 C 238.21 490.00, 247.72 490.00, 257.23 490.00 C 266.74 482.50, 276.26 445.00, 285.77 445.00 C 295.28 445.00, 304.79 482.50, 314.31 490.00 C 323.82 490.00, 333.33 490.00, 342.85 490.00 C 352.36 470.50, 361.87 373.00, 371.38 373.00 C 380.90 373.00, 390.41 471.25, 399.92 490.00 C 409.44 490.00, 418.95 485.50, 428.46 485.50 C 437.97 485.50, 447.49 490.00, 457.00 490.00 C 466.51 466.75, 476.03 351.25, 485.54 346.00 C 495.05 340.75, 504.56 436.75, 514.08 458.50 C 523.59 480.25, 533.10 472.00, 542.62 476.50 C 552.13 481.00, 561.64 490.00, 571.15 485.50 C 580.67 438.25, 590.18 225.25, 599.69 193.00 C 609.21 160.75, 618.72 244.00, 628.23 292.00 C 637.74 340.00, 647.26 460.00, 656.77 481.00 C 666.28 490.00, 675.79 427.00, 685.31 418.00 C 694.82 409.00, 704.33 416.50, 713.85 427.00 C 723.36 437.50, 732.87 488.50, 742.38 481.00 C 751.90 473.50, 761.41 394.00, 770.92 382.00 C 780.44 370.00, 789.95 391.75, 799.46 409.00 C 808.97 426.25, 818.49 472.75, 828.00 485.50 C 837.51 490.00, 847.03 490.00, 856.54 485.50 C 866.05 479.50, 875.56 449.50, 885.08 449.50 C 894.59 449.50, 904.10 479.50, 913.62 485.50 C 923.13 490.00, 932.64 485.50, 942.15 485.50 C 951.67 485.50, 961.18 485.50, 970.69 485.50 C 980.21 485.50, 989.72 487.75, 999.23 485.50 C 1008.74 483.25, 1018.26 472.00, 1027.77 472.00 C 1037.28 472.00, 1046.79 483.25, 1056.31 485.50 C 1065.82 487.75, 1075.33 485.50, 1084.85 485.50 C 1094.36 485.50, 1103.87 485.50, 1113.38 485.50 C 1122.90 485.50, 1132.41 485.50, 1141.92 485.50 C 1151.44 485.50, 1160.95 485.50, 1170.46 485.50 C 1179.97 485.50, 1189.49 485.50, 1199.00 485.50 C 1208.51 485.50, 1218.03 487.00, 1227.54 485.50 C 1237.05 484.00, 1246.56 476.50, 1256.08 476.50 C 1265.59 476.50, 1275.10 484.00, 1284.62 485.50 C 1294.13 487.00, 1303.64 485.50, 1313.15 485.50 C 1322.67 485.50, 1332.18 485.50, 1341.69 485.50 C 1351.21 485.50, 1360.72 485.50, 1370.23 485.50 C 1379.74 485.50, 1389.26 485.50, 1398.77 485.50 C 1408.28 485.50, 1417.79 485.50, 1427.31 485.50 C 1436.82 485.50, 1446.33 485.50, 1455.85 485.50 C 1465.36 485.50, 1474.87 485.50, 1484.38 485.50 C 1493.90 485.50, 1503.41 485.50, 1512.92 485.50 C 1522.44 485.50, 1531.95 489.25, 1541.46 485.50 C 1550.97 481.75, 1565.24 466.75, 1570.00 463.00" fill="none" stroke="#ff8c42" stroke-width="9" stroke-opacity="0.06" filter="url(#glowLine)"/>
  <path d="M 86.00 485.50 C 90.76 486.25, 105.03 489.25, 114.54 490.00 C 124.05 490.00, 133.56 490.00, 143.08 490.00 C 152.59 490.00, 162.10 490.00, 171.62 490.00 C 181.13 490.00, 190.64 490.00, 200.15 490.00 C 209.67 490.00, 219.18 490.00, 228.69 490.00 C 238.21 490.00, 247.72 490.00, 257.23 490.00 C 266.74 482.50, 276.26 445.00, 285.77 445.00 C 295.28 445.00, 304.79 482.50, 314.31 490.00 C 323.82 490.00, 333.33 490.00, 342.85 490.00 C 352.36 470.50, 361.87 373.00, 371.38 373.00 C 380.90 373.00, 390.41 471.25, 399.92 490.00 C 409.44 490.00, 418.95 485.50, 428.46 485.50 C 437.97 485.50, 447.49 490.00, 457.00 490.00 C 466.51 466.75, 476.03 351.25, 485.54 346.00 C 495.05 340.75, 504.56 436.75, 514.08 458.50 C 523.59 480.25, 533.10 472.00, 542.62 476.50 C 552.13 481.00, 561.64 490.00, 571.15 485.50 C 580.67 438.25, 590.18 225.25, 599.69 193.00 C 609.21 160.75, 618.72 244.00, 628.23 292.00 C 637.74 340.00, 647.26 460.00, 656.77 481.00 C 666.28 490.00, 675.79 427.00, 685.31 418.00 C 694.82 409.00, 704.33 416.50, 713.85 427.00 C 723.36 437.50, 732.87 488.50, 742.38 481.00 C 751.90 473.50, 761.41 394.00, 770.92 382.00 C 780.44 370.00, 789.95 391.75, 799.46 409.00 C 808.97 426.25, 818.49 472.75, 828.00 485.50 C 837.51 490.00, 847.03 490.00, 856.54 485.50 C 866.05 479.50, 875.56 449.50, 885.08 449.50 C 894.59 449.50, 904.10 479.50, 913.62 485.50 C 923.13 490.00, 932.64 485.50, 942.15 485.50 C 951.67 485.50, 961.18 485.50, 970.69 485.50 C 980.21 485.50, 989.72 487.75, 999.23 485.50 C 1008.74 483.25, 1018.26 472.00, 1027.77 472.00 C 1037.28 472.00, 1046.79 483.25, 1056.31 485.50 C 1065.82 487.75, 1075.33 485.50, 1084.85 485.50 C 1094.36 485.50, 1103.87 485.50, 1113.38 485.50 C 1122.90 485.50, 1132.41 485.50, 1141.92 485.50 C 1151.44 485.50, 1160.95 485.50, 1170.46 485.50 C 1179.97 485.50, 1189.49 485.50, 1199.00 485.50 C 1208.51 485.50, 1218.03 487.00, 1227.54 485.50 C 1237.05 484.00, 1246.56 476.50, 1256.08 476.50 C 1265.59 476.50, 1275.10 484.00, 1284.62 485.50 C 1294.13 487.00, 1303.64 485.50, 1313.15 485.50 C 1322.67 485.50, 1332.18 485.50, 1341.69 485.50 C 1351.21 485.50, 1360.72 485.50, 1370.23 485.50 C 1379.74 485.50, 1389.26 485.50, 1398.77 485.50 C 1408.28 485.50, 1417.79 485.50, 1427.31 485.50 C 1436.82 485.50, 1446.33 485.50, 1455.85 485.50 C 1465.36 485.50, 1474.87 485.50, 1484.38 485.50 C 1493.90 485.50, 1503.41 485.50, 1512.92 485.50 C 1522.44 485.50, 1531.95 489.25, 1541.46 485.50 C 1550.97 481.75, 1565.24 466.75, 1570.00 463.00" fill="none" stroke="url(#gCommits)" stroke-width="2.8" stroke-linecap="round"/>

  <!-- Changes/commit line -->
  <path d="M 86.00 489.93 C 90.76 489.94, 105.03 489.99, 114.54 490.00 C 124.05 490.00, 133.56 490.00, 143.08 490.00 C 152.59 490.00, 162.10 490.00, 171.62 490.00 C 181.13 490.00, 190.64 490.00, 200.15 490.00 C 209.67 490.00, 219.18 490.00, 228.69 490.00 C 238.21 490.00, 247.72 490.00, 257.23 490.00 C 266.74 489.95, 276.26 489.71, 285.77 489.71 C 295.28 489.71, 304.79 489.95, 314.31 490.00 C 323.82 490.00, 333.33 490.00, 342.85 490.00 C 352.36 489.96, 361.87 489.78, 371.38 489.78 C 380.90 489.78, 390.41 490.00, 399.92 490.00 C 409.44 489.77, 418.95 488.42, 428.46 488.42 C 437.97 488.42, 447.49 490.00, 457.00 490.00 C 466.51 438.92, 476.03 182.09, 485.54 181.91 C 495.05 181.73, 504.56 438.20, 514.08 488.92 C 523.59 490.00, 533.10 486.70, 542.62 486.26 C 552.13 485.81, 561.64 490.00, 571.15 486.26 C 580.67 473.20, 590.18 410.19, 599.69 407.92 C 609.21 405.65, 618.72 461.38, 628.23 472.65 C 637.74 483.92, 647.26 474.09, 656.77 475.53 C 666.28 476.97, 675.79 480.53, 685.31 481.29 C 694.82 482.04, 704.33 480.17, 713.85 480.06 C 723.36 479.96, 732.87 479.92, 742.38 480.64 C 751.90 481.36, 761.41 484.82, 770.92 484.38 C 780.44 483.95, 789.95 478.14, 799.46 478.05 C 808.97 477.95, 818.49 484.36, 828.00 483.81 C 837.51 483.26, 847.03 474.42, 856.54 474.74 C 866.05 475.05, 875.56 484.02, 885.08 485.68 C 894.59 487.34, 904.10 486.62, 913.62 484.67 C 923.13 482.73, 932.64 475.96, 942.15 474.02 C 951.67 472.07, 961.18 473.18, 970.69 473.01 C 980.21 472.84, 989.72 473.43, 999.23 473.01 C 1008.74 472.59, 1018.26 468.62, 1027.77 470.49 C 1037.28 472.36, 1046.79 485.20, 1056.31 484.24 C 1065.82 483.28, 1075.33 466.82, 1084.85 464.73 C 1094.36 462.64, 1103.87 470.57, 1113.38 471.71 C 1122.90 472.85, 1132.41 471.59, 1141.92 471.57 C 1151.44 471.54, 1160.95 471.64, 1170.46 471.57 C 1179.97 471.50, 1189.49 471.30, 1199.00 471.14 C 1208.51 470.97, 1218.03 471.32, 1227.54 470.56 C 1237.05 469.80, 1246.56 464.30, 1256.08 466.60 C 1265.59 468.90, 1275.10 483.87, 1284.62 484.38 C 1294.13 484.90, 1303.64 472.22, 1313.15 469.70 C 1322.67 467.18, 1332.18 469.46, 1341.69 469.26 C 1351.21 469.07, 1360.72 468.74, 1370.23 468.54 C 1379.74 468.35, 1389.26 468.16, 1398.77 468.11 C 1408.28 468.06, 1417.79 468.33, 1427.31 468.26 C 1436.82 468.18, 1446.33 469.40, 1455.85 467.68 C 1465.36 465.96, 1474.87 457.94, 1484.38 457.96 C 1493.90 457.98, 1503.41 469.54, 1512.92 467.82 C 1522.44 466.11, 1531.95 459.93, 1541.46 447.66 C 1550.97 435.40, 1565.24 403.14, 1570.00 394.24" fill="none" stroke="#00d4f5" stroke-width="9" stroke-opacity="0.06" filter="url(#glowLine)"/>
  <path d="M 86.00 489.93 C 90.76 489.94, 105.03 489.99, 114.54 490.00 C 124.05 490.00, 133.56 490.00, 143.08 490.00 C 152.59 490.00, 162.10 490.00, 171.62 490.00 C 181.13 490.00, 190.64 490.00, 200.15 490.00 C 209.67 490.00, 219.18 490.00, 228.69 490.00 C 238.21 490.00, 247.72 490.00, 257.23 490.00 C 266.74 489.95, 276.26 489.71, 285.77 489.71 C 295.28 489.71, 304.79 489.95, 314.31 490.00 C 323.82 490.00, 333.33 490.00, 342.85 490.00 C 352.36 489.96, 361.87 489.78, 371.38 489.78 C 380.90 489.78, 390.41 490.00, 399.92 490.00 C 409.44 489.77, 418.95 488.42, 428.46 488.42 C 437.97 488.42, 447.49 490.00, 457.00 490.00 C 466.51 438.92, 476.03 182.09, 485.54 181.91 C 495.05 181.73, 504.56 438.20, 514.08 488.92 C 523.59 490.00, 533.10 486.70, 542.62 486.26 C 552.13 485.81, 561.64 490.00, 571.15 486.26 C 580.67 473.20, 590.18 410.19, 599.69 407.92 C 609.21 405.65, 618.72 461.38, 628.23 472.65 C 637.74 483.92, 647.26 474.09, 656.77 475.53 C 666.28 476.97, 675.79 480.53, 685.31 481.29 C 694.82 482.04, 704.33 480.17, 713.85 480.06 C 723.36 479.96, 732.87 479.92, 742.38 480.64 C 751.90 481.36, 761.41 484.82, 770.92 484.38 C 780.44 483.95, 789.95 478.14, 799.46 478.05 C 808.97 477.95, 818.49 484.36, 828.00 483.81 C 837.51 483.26, 847.03 474.42, 856.54 474.74 C 866.05 475.05, 875.56 484.02, 885.08 485.68 C 894.59 487.34, 904.10 486.62, 913.62 484.67 C 923.13 482.73, 932.64 475.96, 942.15 474.02 C 951.67 472.07, 961.18 473.18, 970.69 473.01 C 980.21 472.84, 989.72 473.43, 999.23 473.01 C 1008.74 472.59, 1018.26 468.62, 1027.77 470.49 C 1037.28 472.36, 1046.79 485.20, 1056.31 484.24 C 1065.82 483.28, 1075.33 466.82, 1084.85 464.73 C 1094.36 462.64, 1103.87 470.57, 1113.38 471.71 C 1122.90 472.85, 1132.41 471.59, 1141.92 471.57 C 1151.44 471.54, 1160.95 471.64, 1170.46 471.57 C 1179.97 471.50, 1189.49 471.30, 1199.00 471.14 C 1208.51 470.97, 1218.03 471.32, 1227.54 470.56 C 1237.05 469.80, 1246.56 464.30, 1256.08 466.60 C 1265.59 468.90, 1275.10 483.87, 1284.62 484.38 C 1294.13 484.90, 1303.64 472.22, 1313.15 469.70 C 1322.67 467.18, 1332.18 469.46, 1341.69 469.26 C 1351.21 469.07, 1360.72 468.74, 1370.23 468.54 C 1379.74 468.35, 1389.26 468.16, 1398.77 468.11 C 1408.28 468.06, 1417.79 468.33, 1427.31 468.26 C 1436.82 468.18, 1446.33 469.40, 1455.85 467.68 C 1465.36 465.96, 1474.87 457.94, 1484.38 457.96 C 1493.90 457.98, 1503.41 469.54, 1512.92 467.82 C 1522.44 466.11, 1531.95 459.93, 1541.46 447.66 C 1550.97 435.40, 1565.24 403.14, 1570.00 394.24" fill="none" stroke="url(#gChanges)" stroke-width="2.5" stroke-linecap="round"/>

  <!-- Moving averages -->
  <path d="M 86.00 488.88 C 90.76 488.91, 105.03 489.04, 114.54 489.10 C 124.05 489.16, 133.56 489.21, 143.08 489.25 C 152.59 489.29, 162.10 490.00, 171.62 489.36 C 181.13 488.41, 190.64 484.54, 200.15 483.57 C 209.67 482.61, 219.18 483.57, 228.69 483.57 C 238.21 483.57, 247.72 486.36, 257.23 483.57 C 266.74 480.79, 276.26 469.64, 285.77 466.86 C 295.28 464.07, 304.79 466.96, 314.31 466.86 C 323.82 466.75, 333.33 466.32, 342.85 466.21 C 352.36 466.11, 361.87 468.57, 371.38 466.21 C 380.90 463.86, 390.41 455.18, 399.92 452.07 C 409.44 448.96, 418.95 448.64, 428.46 447.57 C 437.97 446.50, 447.49 443.29, 457.00 445.64 C 466.51 448.00, 476.03 466.11, 485.54 461.71 C 495.05 457.32, 504.56 430.96, 514.08 419.29 C 523.59 407.61, 533.10 396.46, 542.62 391.64 C 552.13 386.82, 561.64 388.86, 571.15 390.36 C 580.67 391.86, 590.18 399.68, 599.69 400.64 C 609.21 401.61, 618.72 396.79, 628.23 396.14 C 637.74 395.50, 647.26 399.14, 656.77 396.79 C 666.28 394.43, 675.79 379.32, 685.31 382.00 C 694.82 384.68, 704.33 403.11, 713.85 412.86 C 723.36 422.61, 732.87 435.79, 742.38 440.50 C 751.90 445.21, 761.41 440.29, 770.92 441.14 C 780.44 442.00, 789.95 443.50, 799.46 445.64 C 808.97 447.79, 818.49 452.50, 828.00 454.00 C 837.51 455.50, 847.03 452.07, 856.54 454.64 C 866.05 457.21, 875.56 465.14, 885.08 469.43 C 894.59 473.71, 904.10 478.86, 913.62 480.36 C 923.13 481.86, 932.64 478.75, 942.15 478.43 C 951.67 478.11, 961.18 477.57, 970.69 478.43 C 980.21 479.29, 989.72 482.71, 999.23 483.57 C 1008.74 484.43, 1018.26 483.57, 1027.77 483.57 C 1037.28 483.57, 1046.79 483.57, 1056.31 483.57 C 1065.82 483.57, 1075.33 483.57, 1084.85 483.57 C 1094.36 483.57, 1103.87 483.25, 1113.38 483.57 C 1122.90 483.89, 1132.41 485.39, 1141.92 485.50 C 1151.44 485.61, 1160.95 484.43, 1170.46 484.21 C 1179.97 484.00, 1189.49 484.21, 1199.00 484.21 C 1208.51 484.21, 1218.03 484.21, 1227.54 484.21 C 1237.05 484.21, 1246.56 484.21, 1256.08 484.21 C 1265.59 484.21, 1275.10 484.21, 1284.62 484.21 C 1294.13 484.21, 1303.64 484.21, 1313.15 484.21 C 1322.67 484.21, 1332.18 484.00, 1341.69 484.21 C 1351.21 484.43, 1360.72 485.29, 1370.23 485.50 C 1379.74 485.71, 1389.26 485.50, 1398.77 485.50 C 1408.28 485.50, 1417.79 485.50, 1427.31 485.50 C 1436.82 485.50, 1446.33 486.04, 1455.85 485.50 C 1465.36 484.96, 1474.87 482.91, 1484.38 482.29 C 1493.90 481.66, 1503.41 481.96, 1512.92 481.75 C 1522.44 481.54, 1531.95 481.31, 1541.46 481.00 C 1550.97 480.69, 1565.24 480.06, 1570.00 479.88" fill="none" stroke="#a78bfa" stroke-width="2" stroke-dasharray="6,4" stroke-opacity="0.55" filter="url(#glowMA)"/>
  <path d="M 86.00 489.98 C 90.76 489.98, 105.03 489.98, 114.54 489.99 C 124.05 489.99, 133.56 489.99, 143.08 489.99 C 152.59 489.99, 162.10 489.99, 171.62 489.99 C 181.13 489.98, 190.64 489.96, 200.15 489.96 C 209.67 489.95, 219.18 489.96, 228.69 489.96 C 238.21 489.96, 247.72 489.96, 257.23 489.96 C 266.74 489.95, 276.26 489.93, 285.77 489.93 C 295.28 489.92, 304.79 489.97, 314.31 489.93 C 323.82 489.89, 333.33 489.74, 342.85 489.70 C 352.36 489.66, 361.87 490.00, 371.38 489.70 C 380.90 482.37, 390.41 453.08, 399.92 445.73 C 409.44 438.38, 418.95 445.69, 428.46 445.58 C 437.97 445.46, 447.49 445.21, 457.00 445.04 C 466.51 444.87, 476.03 446.58, 485.54 444.54 C 495.05 442.50, 504.56 435.14, 514.08 432.81 C 523.59 430.48, 533.10 431.28, 542.62 430.56 C 552.13 429.84, 561.64 421.71, 571.15 428.49 C 580.67 435.27, 590.18 464.34, 599.69 471.26 C 609.21 478.18, 618.72 470.34, 628.23 469.99 C 637.74 469.65, 647.26 469.37, 656.77 469.19 C 666.28 469.01, 675.79 467.30, 685.31 468.92 C 694.82 470.55, 704.33 477.01, 713.85 478.94 C 723.36 480.88, 732.87 480.29, 742.38 480.54 C 751.90 480.78, 761.41 480.34, 770.92 480.42 C 780.44 480.51, 789.95 480.84, 799.46 481.05 C 808.97 481.27, 818.49 481.76, 828.00 481.71 C 837.51 481.66, 847.03 481.19, 856.54 480.76 C 866.05 480.33, 875.56 479.53, 885.08 479.14 C 894.59 478.75, 904.10 478.86, 913.62 478.42 C 923.13 477.98, 932.64 476.61, 942.15 476.52 C 951.67 476.42, 961.18 478.15, 970.69 477.87 C 980.21 477.60, 989.72 475.69, 999.23 474.88 C 1008.74 474.07, 1018.26 473.40, 1027.77 473.03 C 1037.28 472.66, 1046.79 472.77, 1056.31 472.68 C 1065.82 472.59, 1075.33 472.55, 1084.85 472.47 C 1094.36 472.39, 1103.87 472.25, 1113.38 472.21 C 1122.90 472.16, 1132.41 472.63, 1141.92 472.22 C 1151.44 471.80, 1160.95 469.65, 1170.46 469.70 C 1179.97 469.74, 1189.49 472.08, 1199.00 472.50 C 1208.51 472.92, 1218.03 472.32, 1227.54 472.22 C 1237.05 472.11, 1246.56 472.01, 1256.08 471.89 C 1265.59 471.76, 1275.10 471.60, 1284.62 471.45 C 1294.13 471.31, 1303.64 471.15, 1313.15 471.02 C 1322.67 470.90, 1332.18 470.72, 1341.69 470.69 C 1351.21 470.66, 1360.72 471.45, 1370.23 470.85 C 1379.74 470.24, 1389.26 467.75, 1398.77 467.07 C 1408.28 466.40, 1417.79 467.36, 1427.31 466.81 C 1436.82 466.25, 1446.33 466.00, 1455.85 463.72 C 1465.36 461.44, 1474.87 455.29, 1484.38 453.11 C 1493.90 450.92, 1503.41 451.61, 1512.92 450.60 C 1522.44 449.60, 1531.95 448.52, 1541.46 447.07 C 1550.97 445.63, 1565.24 442.78, 1570.00 441.92" fill="none" stroke="#c4b5fd" stroke-width="1.5" stroke-dasharray="5,4" stroke-opacity="0.4"/>

  <!-- Statistical overlay -->
  <line x1="86" y1="457.3" x2="1570" y2="457.3"
      stroke="#ff8c42" stroke-width="1" stroke-dasharray="8,4" opacity="0.3"/>
    <text x="1582" y="451.3" font-size="8" fill="#ff8c42"
      text-anchor="start" font-family="'Lexend','Segoe UI',sans-serif" font-weight="300" opacity="0.6">μ=7.3</text>

  <!-- Data point circles (inside clip for safety) -->
  <circle cx="86.0" cy="485.5" r="3.0"
        fill="#ff8c42" stroke="#ffd0a0" stroke-width="1" filter="url(#glowOrange)" opacity="0.9">
        <title>2026-03-10: 1 commits</title></circle><circle cx="285.8" cy="445.0" r="3.3"
        fill="#ff8c42" stroke="#ffd0a0" stroke-width="1" filter="url(#glowOrange)" opacity="0.9">
        <title>2026-03-17: 10 commits</title></circle><circle cx="371.4" cy="373.0" r="3.8"
        fill="#ff8c42" stroke="#ffd0a0" stroke-width="1" filter="url(#glowOrange)" opacity="0.9">
        <title>2026-03-20: 26 commits</title></circle><circle cx="428.5" cy="485.5" r="3.0"
        fill="#ff8c42" stroke="#ffd0a0" stroke-width="1" filter="url(#glowOrange)" opacity="0.9">
        <title>2026-03-22: 1 commits</title></circle><circle cx="485.5" cy="346.0" r="4.0"
        fill="#ff8c42" stroke="#ffd0a0" stroke-width="1" filter="url(#glowOrange)" opacity="0.9">
        <title>2026-03-24: 32 commits</title></circle><circle cx="514.1" cy="458.5" r="3.2"
        fill="#ff8c42" stroke="#ffd0a0" stroke-width="1" filter="url(#glowOrange)" opacity="0.9">
        <title>2026-03-25: 7 commits</title></circle><circle cx="542.6" cy="476.5" r="3.1"
        fill="#ff8c42" stroke="#ffd0a0" stroke-width="1" filter="url(#glowOrange)" opacity="0.9">
        <title>2026-03-26: 3 commits</title></circle><circle cx="571.2" cy="485.5" r="3.0"
        fill="#ff8c42" stroke="#ffd0a0" stroke-width="1" filter="url(#glowOrange)" opacity="0.9">
        <title>2026-03-27: 1 commits</title></circle><circle cx="599.7" cy="193.0" r="5.1"
        fill="#ff8c42" stroke="#ffd0a0" stroke-width="1" filter="url(#glowOrange)" opacity="0.9">
        <title>2026-03-28: 66 commits</title></circle><circle cx="628.2" cy="292.0" r="4.4"
        fill="#ff8c42" stroke="#ffd0a0" stroke-width="1" filter="url(#glowOrange)" opacity="0.9">
        <title>2026-03-29: 44 commits</title></circle><circle cx="656.8" cy="481.0" r="3.1"
        fill="#ff8c42" stroke="#ffd0a0" stroke-width="1" filter="url(#glowOrange)" opacity="0.9">
        <title>2026-03-30: 2 commits</title></circle><circle cx="685.3" cy="418.0" r="3.5"
        fill="#ff8c42" stroke="#ffd0a0" stroke-width="1" filter="url(#glowOrange)" opacity="0.9">
        <title>2026-03-31: 16 commits</title></circle><circle cx="713.8" cy="427.0" r="3.4"
        fill="#ff8c42" stroke="#ffd0a0" stroke-width="1" filter="url(#glowOrange)" opacity="0.9">
        <title>2026-04-01: 14 commits</title></circle><circle cx="742.4" cy="481.0" r="3.1"
        fill="#ff8c42" stroke="#ffd0a0" stroke-width="1" filter="url(#glowOrange)" opacity="0.9">
        <title>2026-04-02: 2 commits</title></circle><circle cx="770.9" cy="382.0" r="3.8"
        fill="#ff8c42" stroke="#ffd0a0" stroke-width="1" filter="url(#glowOrange)" opacity="0.9">
        <title>2026-04-03: 24 commits</title></circle><circle cx="799.5" cy="409.0" r="3.6"
        fill="#ff8c42" stroke="#ffd0a0" stroke-width="1" filter="url(#glowOrange)" opacity="0.9">
        <title>2026-04-04: 18 commits</title></circle><circle cx="828.0" cy="485.5" r="3.0"
        fill="#ff8c42" stroke="#ffd0a0" stroke-width="1" filter="url(#glowOrange)" opacity="0.9">
        <title>2026-04-05: 1 commits</title></circle><circle cx="856.5" cy="485.5" r="3.0"
        fill="#ff8c42" stroke="#ffd0a0" stroke-width="1" filter="url(#glowOrange)" opacity="0.9">
        <title>2026-04-06: 1 commits</title></circle><circle cx="885.1" cy="449.5" r="3.3"
        fill="#ff8c42" stroke="#ffd0a0" stroke-width="1" filter="url(#glowOrange)" opacity="0.9">
        <title>2026-04-07: 9 commits</title></circle><circle cx="913.6" cy="485.5" r="3.0"
        fill="#ff8c42" stroke="#ffd0a0" stroke-width="1" filter="url(#glowOrange)" opacity="0.9">
        <title>2026-04-08: 1 commits</title></circle><circle cx="942.2" cy="485.5" r="3.0"
        fill="#ff8c42" stroke="#ffd0a0" stroke-width="1" filter="url(#glowOrange)" opacity="0.9">
        <title>2026-04-09: 1 commits</title></circle><circle cx="970.7" cy="485.5" r="3.0"
        fill="#ff8c42" stroke="#ffd0a0" stroke-width="1" filter="url(#glowOrange)" opacity="0.9">
        <title>2026-04-10: 1 commits</title></circle><circle cx="999.2" cy="485.5" r="3.0"
        fill="#ff8c42" stroke="#ffd0a0" stroke-width="1" filter="url(#glowOrange)" opacity="0.9">
        <title>2026-04-11: 1 commits</title></circle><circle cx="1027.8" cy="472.0" r="3.1"
        fill="#ff8c42" stroke="#ffd0a0" stroke-width="1" filter="url(#glowOrange)" opacity="0.9">
        <title>2026-04-12: 4 commits</title></circle><circle cx="1056.3" cy="485.5" r="3.0"
        fill="#ff8c42" stroke="#ffd0a0" stroke-width="1" filter="url(#glowOrange)" opacity="0.9">
        <title>2026-04-13: 1 commits</title></circle><circle cx="1084.8" cy="485.5" r="3.0"
        fill="#ff8c42" stroke="#ffd0a0" stroke-width="1" filter="url(#glowOrange)" opacity="0.9">
        <title>2026-04-14: 1 commits</title></circle><circle cx="1113.4" cy="485.5" r="3.0"
        fill="#ff8c42" stroke="#ffd0a0" stroke-width="1" filter="url(#glowOrange)" opacity="0.9">
        <title>2026-04-15: 1 commits</title></circle><circle cx="1141.9" cy="485.5" r="3.0"
        fill="#ff8c42" stroke="#ffd0a0" stroke-width="1" filter="url(#glowOrange)" opacity="0.9">
        <title>2026-04-16: 1 commits</title></circle><circle cx="1170.5" cy="485.5" r="3.0"
        fill="#ff8c42" stroke="#ffd0a0" stroke-width="1" filter="url(#glowOrange)" opacity="0.9">
        <title>2026-04-17: 1 commits</title></circle><circle cx="1199.0" cy="485.5" r="3.0"
        fill="#ff8c42" stroke="#ffd0a0" stroke-width="1" filter="url(#glowOrange)" opacity="0.9">
        <title>2026-04-18: 1 commits</title></circle><circle cx="1227.5" cy="485.5" r="3.0"
        fill="#ff8c42" stroke="#ffd0a0" stroke-width="1" filter="url(#glowOrange)" opacity="0.9">
        <title>2026-04-19: 1 commits</title></circle><circle cx="1256.1" cy="476.5" r="3.1"
        fill="#ff8c42" stroke="#ffd0a0" stroke-width="1" filter="url(#glowOrange)" opacity="0.9">
        <title>2026-04-20: 3 commits</title></circle><circle cx="1284.6" cy="485.5" r="3.0"
        fill="#ff8c42" stroke="#ffd0a0" stroke-width="1" filter="url(#glowOrange)" opacity="0.9">
        <title>2026-04-21: 1 commits</title></circle><circle cx="1313.2" cy="485.5" r="3.0"
        fill="#ff8c42" stroke="#ffd0a0" stroke-width="1" filter="url(#glowOrange)" opacity="0.9">
        <title>2026-04-22: 1 commits</title></circle><circle cx="1341.7" cy="485.5" r="3.0"
        fill="#ff8c42" stroke="#ffd0a0" stroke-width="1" filter="url(#glowOrange)" opacity="0.9">
        <title>2026-04-23: 1 commits</title></circle><circle cx="1370.2" cy="485.5" r="3.0"
        fill="#ff8c42" stroke="#ffd0a0" stroke-width="1" filter="url(#glowOrange)" opacity="0.9">
        <title>2026-04-24: 1 commits</title></circle><circle cx="1398.8" cy="485.5" r="3.0"
        fill="#ff8c42" stroke="#ffd0a0" stroke-width="1" filter="url(#glowOrange)" opacity="0.9">
        <title>2026-04-25: 1 commits</title></circle><circle cx="1427.3" cy="485.5" r="3.0"
        fill="#ff8c42" stroke="#ffd0a0" stroke-width="1" filter="url(#glowOrange)" opacity="0.9">
        <title>2026-04-26: 1 commits</title></circle><circle cx="1455.8" cy="485.5" r="3.0"
        fill="#ff8c42" stroke="#ffd0a0" stroke-width="1" filter="url(#glowOrange)" opacity="0.9">
        <title>2026-04-27: 1 commits</title></circle><circle cx="1484.4" cy="485.5" r="3.0"
        fill="#ff8c42" stroke="#ffd0a0" stroke-width="1" filter="url(#glowOrange)" opacity="0.9">
        <title>2026-04-28: 1 commits</title></circle><circle cx="1512.9" cy="485.5" r="3.0"
        fill="#ff8c42" stroke="#ffd0a0" stroke-width="1" filter="url(#glowOrange)" opacity="0.9">
        <title>2026-04-29: 1 commits</title></circle><circle cx="1541.5" cy="485.5" r="3.0"
        fill="#ff8c42" stroke="#ffd0a0" stroke-width="1" filter="url(#glowOrange)" opacity="0.9">
        <title>2026-04-30: 1 commits</title></circle><circle cx="1570.0" cy="463.0" r="3.2"
        fill="#ff8c42" stroke="#ffd0a0" stroke-width="1" filter="url(#glowOrange)" opacity="0.9">
        <title>2026-05-01: 6 commits</title></circle>
  <circle cx="86.0" cy="489.9" r="3.5"
        fill="#00d4f5" stroke="#80eeff" stroke-width="0.8" filter="url(#glowCyan)" opacity="0.85">
        <title>2026-03-10: 1 changes/commit</title></circle><circle cx="285.8" cy="489.7" r="3.5"
        fill="#00d4f5" stroke="#80eeff" stroke-width="0.8" filter="url(#glowCyan)" opacity="0.85">
        <title>2026-03-17: 4 changes/commit</title></circle><circle cx="371.4" cy="489.8" r="3.5"
        fill="#00d4f5" stroke="#80eeff" stroke-width="0.8" filter="url(#glowCyan)" opacity="0.85">
        <title>2026-03-20: 3 changes/commit</title></circle><circle cx="428.5" cy="488.4" r="3.5"
        fill="#00d4f5" stroke="#80eeff" stroke-width="0.8" filter="url(#glowCyan)" opacity="0.85">
        <title>2026-03-22: 22 changes/commit</title></circle><circle cx="485.5" cy="181.9" r="3.5"
        fill="#00d4f5" stroke="#80eeff" stroke-width="0.8" filter="url(#glowCyan)" opacity="0.85">
        <title>2026-03-24: 4279 changes/commit</title></circle><circle cx="514.1" cy="488.9" r="3.5"
        fill="#00d4f5" stroke="#80eeff" stroke-width="0.8" filter="url(#glowCyan)" opacity="0.85">
        <title>2026-03-25: 15 changes/commit</title></circle><circle cx="542.6" cy="486.3" r="3.5"
        fill="#00d4f5" stroke="#80eeff" stroke-width="0.8" filter="url(#glowCyan)" opacity="0.85">
        <title>2026-03-26: 52 changes/commit</title></circle><circle cx="571.2" cy="486.3" r="3.5"
        fill="#00d4f5" stroke="#80eeff" stroke-width="0.8" filter="url(#glowCyan)" opacity="0.85">
        <title>2026-03-27: 52 changes/commit</title></circle><circle cx="599.7" cy="407.9" r="3.5"
        fill="#00d4f5" stroke="#80eeff" stroke-width="0.8" filter="url(#glowCyan)" opacity="0.85">
        <title>2026-03-28: 1140 changes/commit</title></circle><circle cx="628.2" cy="472.6" r="3.5"
        fill="#00d4f5" stroke="#80eeff" stroke-width="0.8" filter="url(#glowCyan)" opacity="0.85">
        <title>2026-03-29: 241 changes/commit</title></circle><circle cx="656.8" cy="475.5" r="3.5"
        fill="#00d4f5" stroke="#80eeff" stroke-width="0.8" filter="url(#glowCyan)" opacity="0.85">
        <title>2026-03-30: 201 changes/commit</title></circle><circle cx="685.3" cy="481.3" r="3.5"
        fill="#00d4f5" stroke="#80eeff" stroke-width="0.8" filter="url(#glowCyan)" opacity="0.85">
        <title>2026-03-31: 121 changes/commit</title></circle><circle cx="713.8" cy="480.1" r="3.5"
        fill="#00d4f5" stroke="#80eeff" stroke-width="0.8" filter="url(#glowCyan)" opacity="0.85">
        <title>2026-04-01: 138 changes/commit</title></circle><circle cx="742.4" cy="480.6" r="3.5"
        fill="#00d4f5" stroke="#80eeff" stroke-width="0.8" filter="url(#glowCyan)" opacity="0.85">
        <title>2026-04-02: 130 changes/commit</title></circle><circle cx="770.9" cy="484.4" r="3.5"
        fill="#00d4f5" stroke="#80eeff" stroke-width="0.8" filter="url(#glowCyan)" opacity="0.85">
        <title>2026-04-03: 78 changes/commit</title></circle><circle cx="799.5" cy="478.0" r="3.5"
        fill="#00d4f5" stroke="#80eeff" stroke-width="0.8" filter="url(#glowCyan)" opacity="0.85">
        <title>2026-04-04: 166 changes/commit</title></circle><circle cx="828.0" cy="483.8" r="3.5"
        fill="#00d4f5" stroke="#80eeff" stroke-width="0.8" filter="url(#glowCyan)" opacity="0.85">
        <title>2026-04-05: 86 changes/commit</title></circle><circle cx="856.5" cy="474.7" r="3.5"
        fill="#00d4f5" stroke="#80eeff" stroke-width="0.8" filter="url(#glowCyan)" opacity="0.85">
        <title>2026-04-06: 212 changes/commit</title></circle><circle cx="885.1" cy="485.7" r="3.5"
        fill="#00d4f5" stroke="#80eeff" stroke-width="0.8" filter="url(#glowCyan)" opacity="0.85">
        <title>2026-04-07: 60 changes/commit</title></circle><circle cx="913.6" cy="484.7" r="3.5"
        fill="#00d4f5" stroke="#80eeff" stroke-width="0.8" filter="url(#glowCyan)" opacity="0.85">
        <title>2026-04-08: 74 changes/commit</title></circle><circle cx="942.2" cy="474.0" r="3.5"
        fill="#00d4f5" stroke="#80eeff" stroke-width="0.8" filter="url(#glowCyan)" opacity="0.85">
        <title>2026-04-09: 222 changes/commit</title></circle><circle cx="970.7" cy="473.0" r="3.5"
        fill="#00d4f5" stroke="#80eeff" stroke-width="0.8" filter="url(#glowCyan)" opacity="0.85">
        <title>2026-04-10: 236 changes/commit</title></circle><circle cx="999.2" cy="473.0" r="3.5"
        fill="#00d4f5" stroke="#80eeff" stroke-width="0.8" filter="url(#glowCyan)" opacity="0.85">
        <title>2026-04-11: 236 changes/commit</title></circle><circle cx="1027.8" cy="470.5" r="3.5"
        fill="#00d4f5" stroke="#80eeff" stroke-width="0.8" filter="url(#glowCyan)" opacity="0.85">
        <title>2026-04-12: 271 changes/commit</title></circle><circle cx="1056.3" cy="484.2" r="3.5"
        fill="#00d4f5" stroke="#80eeff" stroke-width="0.8" filter="url(#glowCyan)" opacity="0.85">
        <title>2026-04-13: 80 changes/commit</title></circle><circle cx="1084.8" cy="464.7" r="3.5"
        fill="#00d4f5" stroke="#80eeff" stroke-width="0.8" filter="url(#glowCyan)" opacity="0.85">
        <title>2026-04-14: 351 changes/commit</title></circle><circle cx="1113.4" cy="471.7" r="3.5"
        fill="#00d4f5" stroke="#80eeff" stroke-width="0.8" filter="url(#glowCyan)" opacity="0.85">
        <title>2026-04-15: 254 changes/commit</title></circle><circle cx="1141.9" cy="471.6" r="3.5"
        fill="#00d4f5" stroke="#80eeff" stroke-width="0.8" filter="url(#glowCyan)" opacity="0.85">
        <title>2026-04-16: 256 changes/commit</title></circle><circle cx="1170.5" cy="471.6" r="3.5"
        fill="#00d4f5" stroke="#80eeff" stroke-width="0.8" filter="url(#glowCyan)" opacity="0.85">
        <title>2026-04-17: 256 changes/commit</title></circle><circle cx="1199.0" cy="471.1" r="3.5"
        fill="#00d4f5" stroke="#80eeff" stroke-width="0.8" filter="url(#glowCyan)" opacity="0.85">
        <title>2026-04-18: 262 changes/commit</title></circle><circle cx="1227.5" cy="470.6" r="3.5"
        fill="#00d4f5" stroke="#80eeff" stroke-width="0.8" filter="url(#glowCyan)" opacity="0.85">
        <title>2026-04-19: 270 changes/commit</title></circle><circle cx="1256.1" cy="466.6" r="3.5"
        fill="#00d4f5" stroke="#80eeff" stroke-width="0.8" filter="url(#glowCyan)" opacity="0.85">
        <title>2026-04-20: 325 changes/commit</title></circle><circle cx="1284.6" cy="484.4" r="3.5"
        fill="#00d4f5" stroke="#80eeff" stroke-width="0.8" filter="url(#glowCyan)" opacity="0.85">
        <title>2026-04-21: 78 changes/commit</title></circle><circle cx="1313.2" cy="469.7" r="3.5"
        fill="#00d4f5" stroke="#80eeff" stroke-width="0.8" filter="url(#glowCyan)" opacity="0.85">
        <title>2026-04-22: 282 changes/commit</title></circle><circle cx="1341.7" cy="469.3" r="3.5"
        fill="#00d4f5" stroke="#80eeff" stroke-width="0.8" filter="url(#glowCyan)" opacity="0.85">
        <title>2026-04-23: 288 changes/commit</title></circle><circle cx="1370.2" cy="468.5" r="3.5"
        fill="#00d4f5" stroke="#80eeff" stroke-width="0.8" filter="url(#glowCyan)" opacity="0.85">
        <title>2026-04-24: 298 changes/commit</title></circle><circle cx="1398.8" cy="468.1" r="3.5"
        fill="#00d4f5" stroke="#80eeff" stroke-width="0.8" filter="url(#glowCyan)" opacity="0.85">
        <title>2026-04-25: 304 changes/commit</title></circle><circle cx="1427.3" cy="468.3" r="3.5"
        fill="#00d4f5" stroke="#80eeff" stroke-width="0.8" filter="url(#glowCyan)" opacity="0.85">
        <title>2026-04-26: 302 changes/commit</title></circle><circle cx="1455.8" cy="467.7" r="3.5"
        fill="#00d4f5" stroke="#80eeff" stroke-width="0.8" filter="url(#glowCyan)" opacity="0.85">
        <title>2026-04-27: 310 changes/commit</title></circle><circle cx="1484.4" cy="458.0" r="3.5"
        fill="#00d4f5" stroke="#80eeff" stroke-width="0.8" filter="url(#glowCyan)" opacity="0.85">
        <title>2026-04-28: 445 changes/commit</title></circle><circle cx="1512.9" cy="467.8" r="3.5"
        fill="#00d4f5" stroke="#80eeff" stroke-width="0.8" filter="url(#glowCyan)" opacity="0.85">
        <title>2026-04-29: 308 changes/commit</title></circle><circle cx="1541.5" cy="447.7" r="3.5"
        fill="#00d4f5" stroke="#80eeff" stroke-width="0.8" filter="url(#glowCyan)" opacity="0.85">
        <title>2026-04-30: 588 changes/commit</title></circle><circle cx="1570.0" cy="394.2" r="3.5"
        fill="#00d4f5" stroke="#80eeff" stroke-width="0.8" filter="url(#glowCyan)" opacity="0.85">
        <title>2026-05-01: 1330 changes/commit</title></circle>
</g>

<!-- ════ ANNOTATIONS ════ -->

        <line x1="599.7" y1="181.0"
          x2="599.7" y2="172.0"
          stroke="#2563eb" stroke-width="1.2" stroke-dasharray="4,4" opacity="0.65"/>
        <rect x="534.7" y="148.0"
          width="130" height="24" rx="6"
          fill="#030e26" stroke="#2563eb" stroke-width="1" opacity="0.96"/>
        <text x="599.7" y="164.0"
          font-size="10" fill="#93c5fd" text-anchor="middle"
          font-family="'Lexend','Segoe UI',sans-serif" font-weight="400"
          letter-spacing="0.5">⬡  Peak · 66 commits</text>
        <line x1="485.5" y1="494" x2="1570.0" y2="494"
          stroke="#f472b6" stroke-width="2.5" stroke-linecap="round" opacity="0.7"/>
        <circle cx="485.5" cy="494" r="3" fill="#f472b6" opacity="0.9"/>
        <circle cx="1570.0" cy="494" r="3" fill="#f472b6" opacity="0.9"/>
        <text x="1027.8" y="508" font-size="8.5" fill="#f472b6"
          text-anchor="middle" font-family="'Lexend','Segoe UI',sans-serif"
          font-weight="400" opacity="0.85">🔥 39-day streak</text>
        <line x1="485.5" y1="130" x2="485.5" y2="490"
          stroke="#f472b6" stroke-width="0.8" stroke-dasharray="3,6" opacity="0.35"/>

<!-- ════ CORNER BRACKETS ════ -->
<path d="M 86 152.0 L 86 130 L 108.0 130"
      fill="none" stroke="#4a90e2" stroke-width="2" stroke-opacity="0.85" stroke-linecap="round"/><path d="M 1570 152.0 L 1570 130 L 1548.0 130"
      fill="none" stroke="#4a90e2" stroke-width="2" stroke-opacity="0.85" stroke-linecap="round"/><path d="M 86 468.0 L 86 490 L 108.0 490"
      fill="none" stroke="#4a90e2" stroke-width="2" stroke-opacity="0.85" stroke-linecap="round"/><path d="M 1570 468.0 L 1570 490 L 1548.0 490"
      fill="none" stroke="#4a90e2" stroke-width="2" stroke-opacity="0.85" stroke-linecap="round"/>

<!-- ════ HEATMAP ════ -->
<text x="824" y="646" font-size="11" fill="#3d7ed4"
    text-anchor="middle" font-family="'Lexend','Segoe UI',sans-serif"
    letter-spacing="3" font-weight="400">CONTRIBUTION  CALENDAR</text><text x="766.5" y="686"
        font-size="9" fill="#3d7ed4" text-anchor="end"
        font-family="'Lexend','Segoe UI',sans-serif" font-weight="300">M</text><text x="766.5" y="716"
        font-size="9" fill="#3d7ed4" text-anchor="end"
        font-family="'Lexend','Segoe UI',sans-serif" font-weight="300">W</text><text x="766.5" y="746"
        font-size="9" fill="#3d7ed4" text-anchor="end"
        font-family="'Lexend','Segoe UI',sans-serif" font-weight="300">F</text><rect x="772.5" y="660.0"
        width="12" height="12" rx="2.5" fill="#0a1630"
        stroke="#0d2464" stroke-width="0.5" stroke-opacity="0.4">
        <title>2026-03-08: 0 commits</title></rect><rect x="772.5" y="675.0"
        width="12" height="12" rx="2.5" fill="#0a1630"
        stroke="#0d2464" stroke-width="0.5" stroke-opacity="0.4">
        <title>2026-03-09: 0 commits</title></rect><rect x="772.5" y="690.0"
        width="12" height="12" rx="2.5" fill="#0d3068"
        stroke="#0d2464" stroke-width="0.5" stroke-opacity="0.4">
        <title>2026-03-10: 1 commits</title></rect><rect x="772.5" y="705.0"
        width="12" height="12" rx="2.5" fill="#0a1630"
        stroke="#0d2464" stroke-width="0.5" stroke-opacity="0.4">
        <title>2026-03-11: 0 commits</title></rect><rect x="772.5" y="720.0"
        width="12" height="12" rx="2.5" fill="#0a1630"
        stroke="#0d2464" stroke-width="0.5" stroke-opacity="0.4">
        <title>2026-03-12: 0 commits</title></rect><rect x="772.5" y="735.0"
        width="12" height="12" rx="2.5" fill="#0a1630"
        stroke="#0d2464" stroke-width="0.5" stroke-opacity="0.4">
        <title>2026-03-13: 0 commits</title></rect><rect x="772.5" y="750.0"
        width="12" height="12" rx="2.5" fill="#0a1630"
        stroke="#0d2464" stroke-width="0.5" stroke-opacity="0.4">
        <title>2026-03-14: 0 commits</title></rect><rect x="787.5" y="660.0"
        width="12" height="12" rx="2.5" fill="#0a1630"
        stroke="#0d2464" stroke-width="0.5" stroke-opacity="0.4">
        <title>2026-03-15: 0 commits</title></rect><rect x="787.5" y="675.0"
        width="12" height="12" rx="2.5" fill="#0a1630"
        stroke="#0d2464" stroke-width="0.5" stroke-opacity="0.4">
        <title>2026-03-16: 0 commits</title></rect><rect x="787.5" y="690.0"
        width="12" height="12" rx="2.5" fill="#0d3068"
        stroke="#0d2464" stroke-width="0.5" stroke-opacity="0.4">
        <title>2026-03-17: 10 commits</title></rect><rect x="787.5" y="705.0"
        width="12" height="12" rx="2.5" fill="#0a1630"
        stroke="#0d2464" stroke-width="0.5" stroke-opacity="0.4">
        <title>2026-03-18: 0 commits</title></rect><rect x="787.5" y="720.0"
        width="12" height="12" rx="2.5" fill="#0a1630"
        stroke="#0d2464" stroke-width="0.5" stroke-opacity="0.4">
        <title>2026-03-19: 0 commits</title></rect><rect x="787.5" y="735.0"
        width="12" height="12" rx="2.5" fill="#1e56a8"
        stroke="#0d2464" stroke-width="0.5" stroke-opacity="0.4">
        <title>2026-03-20: 26 commits</title></rect><rect x="787.5" y="750.0"
        width="12" height="12" rx="2.5" fill="#0a1630"
        stroke="#0d2464" stroke-width="0.5" stroke-opacity="0.4">
        <title>2026-03-21: 0 commits</title></rect><rect x="802.5" y="660.0"
        width="12" height="12" rx="2.5" fill="#0d3068"
        stroke="#0d2464" stroke-width="0.5" stroke-opacity="0.4">
        <title>2026-03-22: 1 commits</title></rect><rect x="802.5" y="675.0"
        width="12" height="12" rx="2.5" fill="#0a1630"
        stroke="#0d2464" stroke-width="0.5" stroke-opacity="0.4">
        <title>2026-03-23: 0 commits</title></rect><rect x="802.5" y="690.0"
        width="12" height="12" rx="2.5" fill="#1e56a8"
        stroke="#0d2464" stroke-width="0.5" stroke-opacity="0.4">
        <title>2026-03-24: 32 commits</title></rect><rect x="802.5" y="705.0"
        width="12" height="12" rx="2.5" fill="#0d3068"
        stroke="#0d2464" stroke-width="0.5" stroke-opacity="0.4">
        <title>2026-03-25: 7 commits</title></rect><rect x="802.5" y="720.0"
        width="12" height="12" rx="2.5" fill="#0d3068"
        stroke="#0d2464" stroke-width="0.5" stroke-opacity="0.4">
        <title>2026-03-26: 3 commits</title></rect><rect x="802.5" y="735.0"
        width="12" height="12" rx="2.5" fill="#0d3068"
        stroke="#0d2464" stroke-width="0.5" stroke-opacity="0.4">
        <title>2026-03-27: 1 commits</title></rect><rect x="802.5" y="750.0"
        width="12" height="12" rx="2.5" fill="#93c5fd"
        stroke="#0d2464" stroke-width="0.5" stroke-opacity="0.4">
        <title>2026-03-28: 66 commits</title></rect><rect x="817.5" y="660.0"
        width="12" height="12" rx="2.5" fill="#3b82f6"
        stroke="#0d2464" stroke-width="0.5" stroke-opacity="0.4">
        <title>2026-03-29: 44 commits</title></rect><rect x="817.5" y="675.0"
        width="12" height="12" rx="2.5" fill="#0d3068"
        stroke="#0d2464" stroke-width="0.5" stroke-opacity="0.4">
        <title>2026-03-30: 2 commits</title></rect><rect x="817.5" y="690.0"
        width="12" height="12" rx="2.5" fill="#0d3068"
        stroke="#0d2464" stroke-width="0.5" stroke-opacity="0.4">
        <title>2026-03-31: 16 commits</title></rect><rect x="817.5" y="705.0"
        width="12" height="12" rx="2.5" fill="#0d3068"
        stroke="#0d2464" stroke-width="0.5" stroke-opacity="0.4">
        <title>2026-04-01: 14 commits</title></rect><rect x="817.5" y="720.0"
        width="12" height="12" rx="2.5" fill="#0d3068"
        stroke="#0d2464" stroke-width="0.5" stroke-opacity="0.4">
        <title>2026-04-02: 2 commits</title></rect><rect x="817.5" y="735.0"
        width="12" height="12" rx="2.5" fill="#1e56a8"
        stroke="#0d2464" stroke-width="0.5" stroke-opacity="0.4">
        <title>2026-04-03: 24 commits</title></rect><rect x="817.5" y="750.0"
        width="12" height="12" rx="2.5" fill="#1e56a8"
        stroke="#0d2464" stroke-width="0.5" stroke-opacity="0.4">
        <title>2026-04-04: 18 commits</title></rect><text x="817.5" y="656" font-size="8.5" fill="#3d7ed4"
        font-family="'Lexend','Segoe UI',sans-serif" font-weight="300">Apr</text><rect x="832.5" y="660.0"
        width="12" height="12" rx="2.5" fill="#0d3068"
        stroke="#0d2464" stroke-width="0.5" stroke-opacity="0.4">
        <title>2026-04-05: 1 commits</title></rect><rect x="832.5" y="675.0"
        width="12" height="12" rx="2.5" fill="#0d3068"
        stroke="#0d2464" stroke-width="0.5" stroke-opacity="0.4">
        <title>2026-04-06: 1 commits</title></rect><rect x="832.5" y="690.0"
        width="12" height="12" rx="2.5" fill="#0d3068"
        stroke="#0d2464" stroke-width="0.5" stroke-opacity="0.4">
        <title>2026-04-07: 9 commits</title></rect><rect x="832.5" y="705.0"
        width="12" height="12" rx="2.5" fill="#0d3068"
        stroke="#0d2464" stroke-width="0.5" stroke-opacity="0.4">
        <title>2026-04-08: 1 commits</title></rect><rect x="832.5" y="720.0"
        width="12" height="12" rx="2.5" fill="#0d3068"
        stroke="#0d2464" stroke-width="0.5" stroke-opacity="0.4">
        <title>2026-04-09: 1 commits</title></rect><rect x="832.5" y="735.0"
        width="12" height="12" rx="2.5" fill="#0d3068"
        stroke="#0d2464" stroke-width="0.5" stroke-opacity="0.4">
        <title>2026-04-10: 1 commits</title></rect><rect x="832.5" y="750.0"
        width="12" height="12" rx="2.5" fill="#0d3068"
        stroke="#0d2464" stroke-width="0.5" stroke-opacity="0.4">
        <title>2026-04-11: 1 commits</title></rect><rect x="847.5" y="660.0"
        width="12" height="12" rx="2.5" fill="#0d3068"
        stroke="#0d2464" stroke-width="0.5" stroke-opacity="0.4">
        <title>2026-04-12: 4 commits</title></rect><rect x="847.5" y="675.0"
        width="12" height="12" rx="2.5" fill="#0d3068"
        stroke="#0d2464" stroke-width="0.5" stroke-opacity="0.4">
        <title>2026-04-13: 1 commits</title></rect><rect x="847.5" y="690.0"
        width="12" height="12" rx="2.5" fill="#0d3068"
        stroke="#0d2464" stroke-width="0.5" stroke-opacity="0.4">
        <title>2026-04-14: 1 commits</title></rect><rect x="847.5" y="705.0"
        width="12" height="12" rx="2.5" fill="#0d3068"
        stroke="#0d2464" stroke-width="0.5" stroke-opacity="0.4">
        <title>2026-04-15: 1 commits</title></rect><rect x="847.5" y="720.0"
        width="12" height="12" rx="2.5" fill="#0d3068"
        stroke="#0d2464" stroke-width="0.5" stroke-opacity="0.4">
        <title>2026-04-16: 1 commits</title></rect><rect x="847.5" y="735.0"
        width="12" height="12" rx="2.5" fill="#0d3068"
        stroke="#0d2464" stroke-width="0.5" stroke-opacity="0.4">
        <title>2026-04-17: 1 commits</title></rect><rect x="847.5" y="750.0"
        width="12" height="12" rx="2.5" fill="#0d3068"
        stroke="#0d2464" stroke-width="0.5" stroke-opacity="0.4">
        <title>2026-04-18: 1 commits</title></rect><rect x="862.5" y="660.0"
        width="12" height="12" rx="2.5" fill="#0d3068"
        stroke="#0d2464" stroke-width="0.5" stroke-opacity="0.4">
        <title>2026-04-19: 1 commits</title></rect><rect x="862.5" y="675.0"
        width="12" height="12" rx="2.5" fill="#0d3068"
        stroke="#0d2464" stroke-width="0.5" stroke-opacity="0.4">
        <title>2026-04-20: 3 commits</title></rect><rect x="862.5" y="690.0"
        width="12" height="12" rx="2.5" fill="#0d3068"
        stroke="#0d2464" stroke-width="0.5" stroke-opacity="0.4">
        <title>2026-04-21: 1 commits</title></rect><rect x="862.5" y="705.0"
        width="12" height="12" rx="2.5" fill="#0d3068"
        stroke="#0d2464" stroke-width="0.5" stroke-opacity="0.4">
        <title>2026-04-22: 1 commits</title></rect><rect x="862.5" y="720.0"
        width="12" height="12" rx="2.5" fill="#0d3068"
        stroke="#0d2464" stroke-width="0.5" stroke-opacity="0.4">
        <title>2026-04-23: 1 commits</title></rect><rect x="862.5" y="735.0"
        width="12" height="12" rx="2.5" fill="#0d3068"
        stroke="#0d2464" stroke-width="0.5" stroke-opacity="0.4">
        <title>2026-04-24: 1 commits</title></rect><rect x="862.5" y="750.0"
        width="12" height="12" rx="2.5" fill="#0d3068"
        stroke="#0d2464" stroke-width="0.5" stroke-opacity="0.4">
        <title>2026-04-25: 1 commits</title></rect><rect x="877.5" y="660.0"
        width="12" height="12" rx="2.5" fill="#0d3068"
        stroke="#0d2464" stroke-width="0.5" stroke-opacity="0.4">
        <title>2026-04-26: 1 commits</title></rect><rect x="877.5" y="675.0"
        width="12" height="12" rx="2.5" fill="#0d3068"
        stroke="#0d2464" stroke-width="0.5" stroke-opacity="0.4">
        <title>2026-04-27: 1 commits</title></rect><rect x="877.5" y="690.0"
        width="12" height="12" rx="2.5" fill="#0d3068"
        stroke="#0d2464" stroke-width="0.5" stroke-opacity="0.4">
        <title>2026-04-28: 1 commits</title></rect><rect x="877.5" y="705.0"
        width="12" height="12" rx="2.5" fill="#0d3068"
        stroke="#0d2464" stroke-width="0.5" stroke-opacity="0.4">
        <title>2026-04-29: 1 commits</title></rect><rect x="877.5" y="720.0"
        width="12" height="12" rx="2.5" fill="#0d3068"
        stroke="#0d2464" stroke-width="0.5" stroke-opacity="0.4">
        <title>2026-04-30: 1 commits</title></rect><rect x="877.5" y="735.0"
        width="12" height="12" rx="2.5" fill="#0d3068"
        stroke="#0d2464" stroke-width="0.5" stroke-opacity="0.4">
        <title>2026-05-01: 6 commits</title></rect><rect x="877.5" y="750.0"
        width="12" height="12" rx="2.5" fill="#0a1630"
        stroke="#0d2464" stroke-width="0.5" stroke-opacity="0.4">
        <title>2026-05-02: 0 commits</title></rect><text x="877.5" y="656" font-size="8.5" fill="#3d7ed4"
        font-family="'Lexend','Segoe UI',sans-serif" font-weight="300">May</text><rect x="892.5" y="660.0"
        width="12" height="12" rx="2.5" fill="#0a1630"
        stroke="#0d2464" stroke-width="0.5" stroke-opacity="0.4">
        <title>2026-05-03: 0 commits</title></rect><rect x="892.5" y="675.0"
        width="12" height="12" rx="2.5" fill="#0a1630"
        stroke="#0d2464" stroke-width="0.5" stroke-opacity="0.4">
        <title>2026-05-04: 0 commits</title></rect><rect x="892.5" y="690.0"
        width="12" height="12" rx="2.5" fill="#0a1630"
        stroke="#0d2464" stroke-width="0.5" stroke-opacity="0.4">
        <title>2026-05-05: 0 commits</title></rect><rect x="892.5" y="705.0"
        width="12" height="12" rx="2.5" fill="#0a1630"
        stroke="#0d2464" stroke-width="0.5" stroke-opacity="0.4">
        <title>2026-05-06: 0 commits</title></rect><rect x="892.5" y="720.0"
        width="12" height="12" rx="2.5" fill="#0a1630"
        stroke="#0d2464" stroke-width="0.5" stroke-opacity="0.4">
        <title>2026-05-07: 0 commits</title></rect><rect x="892.5" y="735.0"
        width="12" height="12" rx="2.5" fill="#0a1630"
        stroke="#0d2464" stroke-width="0.5" stroke-opacity="0.4">
        <title>2026-05-08: 0 commits</title></rect><rect x="892.5" y="750.0"
        width="12" height="12" rx="2.5" fill="#0a1630"
        stroke="#0d2464" stroke-width="0.5" stroke-opacity="0.4">
        <title>2026-05-09: 0 commits</title></rect>

<!-- ════ BOTTOM PANELS ════ -->

    <rect x="86" y="823" width="320" height="110"
      rx="4" fill="#030e26" fill-opacity="0.6" stroke="#1a3f7a" stroke-width="0.8"/>
    <text x="246" y="819" font-size="8" fill="#3d7ed4"
      text-anchor="middle" font-family="'Lexend','Segoe UI',sans-serif"
      letter-spacing="2" font-weight="300">OVERVIEW</text>
    <g clip-path="url(#minimapClip)">
      <path d="M 86.00 931.58 C 87.03 931.82, 90.10 932.76, 92.15 933.00 C 94.21 933.24, 96.26 933.00, 98.31 933.00 C 100.36 933.00, 102.41 933.00, 104.46 933.00 C 106.51 933.00, 108.56 933.00, 110.62 933.00 C 112.67 933.00, 114.72 933.00, 116.77 933.00 C 118.82 933.00, 120.87 935.36, 122.92 933.00 C 124.97 930.64, 127.03 918.83, 129.08 918.83 C 131.13 918.83, 133.18 930.64, 135.23 933.00 C 137.28 935.36, 139.33 939.14, 141.38 933.00 C 143.44 926.86, 145.49 896.17, 147.54 896.17 C 149.59 896.17, 151.64 927.10, 153.69 933.00 C 155.74 938.90, 157.79 931.58, 159.85 931.58 C 161.90 931.58, 163.95 940.32, 166.00 933.00 C 168.05 925.68, 170.10 889.32, 172.15 887.67 C 174.21 886.01, 176.26 916.24, 178.31 923.08 C 180.36 929.93, 182.41 927.33, 184.46 928.75 C 186.51 930.17, 188.56 946.46, 190.62 931.58 C 192.67 916.71, 194.72 849.65, 196.77 839.50 C 198.82 829.35, 200.87 855.56, 202.92 870.67 C 204.97 885.78, 207.03 923.56, 209.08 930.17 C 211.13 936.78, 213.18 913.17, 215.23 910.33 C 217.28 907.50, 219.33 909.86, 221.38 913.17 C 223.44 916.47, 225.49 932.53, 227.54 930.17 C 229.59 927.81, 231.64 902.78, 233.69 899.00 C 235.74 895.22, 237.79 902.07, 239.85 907.50 C 241.90 912.93, 243.95 927.57, 246.00 931.58 C 248.05 935.60, 250.10 933.47, 252.15 931.58 C 254.21 929.69, 256.26 920.25, 258.31 920.25 C 260.36 920.25, 262.41 929.69, 264.46 931.58 C 266.51 933.47, 268.56 931.58, 270.62 931.58 C 272.67 931.58, 274.72 931.58, 276.77 931.58 C 278.82 931.58, 280.87 932.29, 282.92 931.58 C 284.97 930.88, 287.03 927.33, 289.08 927.33 C 291.13 927.33, 293.18 930.88, 295.23 931.58 C 297.28 932.29, 299.33 931.58, 301.38 931.58 C 303.44 931.58, 305.49 931.58, 307.54 931.58 C 309.59 931.58, 311.64 931.58, 313.69 931.58 C 315.74 931.58, 317.79 931.58, 319.85 931.58 C 321.90 931.58, 323.95 931.58, 326.00 931.58 C 328.05 931.58, 330.10 932.06, 332.15 931.58 C 334.21 931.11, 336.26 928.75, 338.31 928.75 C 340.36 928.75, 342.41 931.11, 344.46 931.58 C 346.51 932.06, 348.56 931.58, 350.62 931.58 C 352.67 931.58, 354.72 931.58, 356.77 931.58 C 358.82 931.58, 360.87 931.58, 362.92 931.58 C 364.97 931.58, 367.03 931.58, 369.08 931.58 C 371.13 931.58, 373.18 931.58, 375.23 931.58 C 377.28 931.58, 379.33 931.58, 381.38 931.58 C 383.44 931.58, 385.49 931.58, 387.54 931.58 C 389.59 931.58, 391.64 931.58, 393.69 931.58 C 395.74 931.58, 397.79 932.76, 399.85 931.58 C 401.90 930.40, 404.97 925.68, 406.00 924.50 L 406.00 933 L 86.00 933 Z" fill="#4a90e2" fill-opacity="0.15"/>
      <path d="M 86.00 931.58 C 87.03 931.82, 90.10 932.76, 92.15 933.00 C 94.21 933.24, 96.26 933.00, 98.31 933.00 C 100.36 933.00, 102.41 933.00, 104.46 933.00 C 106.51 933.00, 108.56 933.00, 110.62 933.00 C 112.67 933.00, 114.72 933.00, 116.77 933.00 C 118.82 933.00, 120.87 935.36, 122.92 933.00 C 124.97 930.64, 127.03 918.83, 129.08 918.83 C 131.13 918.83, 133.18 930.64, 135.23 933.00 C 137.28 935.36, 139.33 939.14, 141.38 933.00 C 143.44 926.86, 145.49 896.17, 147.54 896.17 C 149.59 896.17, 151.64 927.10, 153.69 933.00 C 155.74 938.90, 157.79 931.58, 159.85 931.58 C 161.90 931.58, 163.95 940.32, 166.00 933.00 C 168.05 925.68, 170.10 889.32, 172.15 887.67 C 174.21 886.01, 176.26 916.24, 178.31 923.08 C 180.36 929.93, 182.41 927.33, 184.46 928.75 C 186.51 930.17, 188.56 946.46, 190.62 931.58 C 192.67 916.71, 194.72 849.65, 196.77 839.50 C 198.82 829.35, 200.87 855.56, 202.92 870.67 C 204.97 885.78, 207.03 923.56, 209.08 930.17 C 211.13 936.78, 213.18 913.17, 215.23 910.33 C 217.28 907.50, 219.33 909.86, 221.38 913.17 C 223.44 916.47, 225.49 932.53, 227.54 930.17 C 229.59 927.81, 231.64 902.78, 233.69 899.00 C 235.74 895.22, 237.79 902.07, 239.85 907.50 C 241.90 912.93, 243.95 927.57, 246.00 931.58 C 248.05 935.60, 250.10 933.47, 252.15 931.58 C 254.21 929.69, 256.26 920.25, 258.31 920.25 C 260.36 920.25, 262.41 929.69, 264.46 931.58 C 266.51 933.47, 268.56 931.58, 270.62 931.58 C 272.67 931.58, 274.72 931.58, 276.77 931.58 C 278.82 931.58, 280.87 932.29, 282.92 931.58 C 284.97 930.88, 287.03 927.33, 289.08 927.33 C 291.13 927.33, 293.18 930.88, 295.23 931.58 C 297.28 932.29, 299.33 931.58, 301.38 931.58 C 303.44 931.58, 305.49 931.58, 307.54 931.58 C 309.59 931.58, 311.64 931.58, 313.69 931.58 C 315.74 931.58, 317.79 931.58, 319.85 931.58 C 321.90 931.58, 323.95 931.58, 326.00 931.58 C 328.05 931.58, 330.10 932.06, 332.15 931.58 C 334.21 931.11, 336.26 928.75, 338.31 928.75 C 340.36 928.75, 342.41 931.11, 344.46 931.58 C 346.51 932.06, 348.56 931.58, 350.62 931.58 C 352.67 931.58, 354.72 931.58, 356.77 931.58 C 358.82 931.58, 360.87 931.58, 362.92 931.58 C 364.97 931.58, 367.03 931.58, 369.08 931.58 C 371.13 931.58, 373.18 931.58, 375.23 931.58 C 377.28 931.58, 379.33 931.58, 381.38 931.58 C 383.44 931.58, 385.49 931.58, 387.54 931.58 C 389.59 931.58, 391.64 931.58, 393.69 931.58 C 395.74 931.58, 397.79 932.76, 399.85 931.58 C 401.90 930.40, 404.97 925.68, 406.00 924.50" fill="none" stroke="#4a90e2" stroke-width="1.5" stroke-opacity="0.7"/>
    </g>
    <clipPath id="minimapClip">
      <rect x="86" y="823" width="320" height="110" rx="4"/>
    </clipPath><path d="M 1430.00 854.90
      L 1430.00 836.00
      A 42 42 0 1 1 1389.03 887.23
      L 1407.46 883.08
      A 23.1 23.1 0 1 0 1430.00 854.90 Z"
      fill="#4a90e2" fill-opacity="0.8" stroke="#030e26" stroke-width="1.5">
      <title>Kieran Lucas: 223 commits (71%)</title></path><path d="M 1407.46 883.08
      L 1389.03 887.23
      A 42 42 0 0 1 1400.91 847.71
      L 1414.00 861.34
      A 23.1 23.1 0 0 0 1407.46 883.08 Z"
      fill="#ff8c42" fill-opacity="0.8" stroke="#030e26" stroke-width="1.5">
      <title>github-actions: 51 commits (16%)</title></path><path d="M 1414.00 861.34
      L 1400.91 847.71
      A 42 42 0 0 1 1416.70 838.16
      L 1422.68 856.09
      A 23.1 23.1 0 0 0 1414.00 861.34 Z"
      fill="#00d4f5" fill-opacity="0.8" stroke="#030e26" stroke-width="1.5">
      <title>HumaNormal: 22 commits (7%)</title></path><path d="M 1422.68 856.09
      L 1416.70 838.16
      A 42 42 0 0 1 1429.15 836.01
      L 1429.53 854.90
      A 23.1 23.1 0 0 0 1422.68 856.09 Z"
      fill="#22c55e" fill-opacity="0.8" stroke="#030e26" stroke-width="1.5">
      <title>stillqhuy: 15 commits (5%)</title></path><path d="M 1429.53 854.90
      L 1429.15 836.01
      A 42 42 0 0 1 1430.00 836.00
      L 1430.00 854.90
      A 23.1 23.1 0 0 0 1429.53 854.90 Z"
      fill="#ef4444" fill-opacity="0.8" stroke="#030e26" stroke-width="1.5">
      <title>Nguyễn Đinh Việt Đức: 1 commits (0%)</title></path><text x="1430" y="874" font-size="9" fill="#3d7ed4" text-anchor="middle"
    font-family="'Lexend','Segoe UI',sans-serif" letter-spacing="1.5" font-weight="300">AUTHORS</text><text x="1430" y="892" font-size="16" fill="#cce8ff" text-anchor="middle"
    font-family="'Lexend','Segoe UI',sans-serif" font-weight="600">5</text><rect x="1488" y="830" width="8" height="8" rx="2" fill="#4a90e2" opacity="0.85"/><text x="1502" y="838" font-size="9.5" fill="#3d7ed4"
      font-family="'Lexend','Segoe UI',sans-serif" font-weight="300">Kieran Lucas (223)</text><rect x="1488" y="848" width="8" height="8" rx="2" fill="#ff8c42" opacity="0.85"/><text x="1502" y="856" font-size="9.5" fill="#3d7ed4"
      font-family="'Lexend','Segoe UI',sans-serif" font-weight="300">github-actions (51)</text><rect x="1488" y="866" width="8" height="8" rx="2" fill="#00d4f5" opacity="0.85"/><text x="1502" y="874" font-size="9.5" fill="#3d7ed4"
      font-family="'Lexend','Segoe UI',sans-serif" font-weight="300">HumaNormal (22)</text><rect x="1488" y="884" width="8" height="8" rx="2" fill="#22c55e" opacity="0.85"/><text x="1502" y="892" font-size="9.5" fill="#3d7ed4"
      font-family="'Lexend','Segoe UI',sans-serif" font-weight="300">stillqhuy (15)</text><rect x="1488" y="902" width="8" height="8" rx="2" fill="#ef4444" opacity="0.85"/><text x="1502" y="910" font-size="9.5" fill="#3d7ed4"
      font-family="'Lexend','Segoe UI',sans-serif" font-weight="300">Nguyễn Đinh … (1)</text>

<!-- ════ WAVES ════ -->
<path d="M 0 963 Q 103.0 956.0 206.0 963 Q 309.0 956.0 412.0 963 Q 515.0 956.0 618.0 963 Q 721.0 956.0 824.0 963 Q 927.0 956.0 1030.0 963 Q 1133.0 956.0 1236.0 963 Q 1339.0 956.0 1442.0 963 Q 1545.0 956.0 1648.0 963" fill="none" stroke="#1948a0" stroke-width="1.2" stroke-opacity="0.35"/>
<path d="M 0 958 Q 103.0 952.5 206.0 958 Q 309.0 952.5 412.0 958 Q 515.0 952.5 618.0 958 Q 721.0 952.5 824.0 958 Q 927.0 952.5 1030.0 958 Q 1133.0 952.5 1236.0 958 Q 1339.0 952.5 1442.0 958 Q 1545.0 952.5 1648.0 958" fill="none" stroke="#1948a0" stroke-width="1" stroke-opacity="0.29"/>
<path d="M 0 953 Q 103.0 949.0 206.0 953 Q 309.0 949.0 412.0 953 Q 515.0 949.0 618.0 953 Q 721.0 949.0 824.0 953 Q 927.0 949.0 1030.0 953 Q 1133.0 949.0 1236.0 953 Q 1339.0 949.0 1442.0 953 Q 1545.0 949.0 1648.0 953" fill="none" stroke="#1948a0" stroke-width="0.7999999999999999" stroke-opacity="0.22999999999999998"/>
<path d="M 0 948 Q 103.0 945.5 206.0 948 Q 309.0 945.5 412.0 948 Q 515.0 945.5 618.0 948 Q 721.0 945.5 824.0 948 Q 927.0 945.5 1030.0 948 Q 1133.0 945.5 1236.0 948 Q 1339.0 945.5 1442.0 948 Q 1545.0 945.5 1648.0 948" fill="none" stroke="#1948a0" stroke-width="0.5999999999999999" stroke-opacity="0.16999999999999998"/>

</svg>