<svg width="1704" height="969" xmlns="http://www.w3.org/2000/svg" viewBox="0 0 1704 969">
<defs>
  <style>
    @import url('https://fonts.googleapis.com/css2?family=Lexend:wght@300;400;600;700&amp;display=swap');
    circle:hover { opacity: 1 !important; r: 6; }
    rect.bar-segment:hover { opacity: 1 !important; }
  </style>

  <linearGradient id="bg" x1="0%" y1="0%" x2="55%" y2="100%">
    <stop offset="0%"   stop-color="#010c1e"/>
    <stop offset="50%"  stop-color="#010f27"/>
    <stop offset="100%" stop-color="#000a18"/>
  </linearGradient>
  <linearGradient id="areaFill" x1="0%" y1="0%" x2="0%" y2="100%">
    <stop offset="0%"   stop-color="#4a90e2" stop-opacity="0.5"/>
    <stop offset="55%"  stop-color="#1a3f7a" stop-opacity="0.18"/>
    <stop offset="100%" stop-color="#000a18" stop-opacity="0"/>
  </linearGradient>
  <linearGradient id="gCommits" x1="0%" y1="0%" x2="100%" y2="0%">
    <stop offset="0%"   stop-color="#ff8c42"/>
    <stop offset="100%" stop-color="#ffd0a0"/>
  </linearGradient>
  <linearGradient id="gChanges" x1="0%" y1="0%" x2="100%" y2="0%">
    <stop offset="0%"   stop-color="#00d4f5" stop-opacity="0.8"/>
    <stop offset="50%"  stop-color="#00d4f5"/>
    <stop offset="100%" stop-color="#80eeff"/>
  </linearGradient>
  <linearGradient id="gBorder" x1="0%" y1="0%" x2="100%" y2="100%">
    <stop offset="0%"   stop-color="#1840a0" stop-opacity="0.9"/>
    <stop offset="50%"  stop-color="#3b82f6" stop-opacity="0.6"/>
    <stop offset="100%" stop-color="#60a5fa" stop-opacity="0.9"/>
  </linearGradient>
  <linearGradient id="gHeader" x1="0%" y1="0%" x2="100%" y2="0%">
    <stop offset="0%"   stop-color="#010c1e" stop-opacity="0"/>
    <stop offset="20%"  stop-color="#091c3e" stop-opacity="0.92"/>
    <stop offset="80%"  stop-color="#091c3e" stop-opacity="0.92"/>
    <stop offset="100%" stop-color="#010c1e" stop-opacity="0"/>
  </linearGradient>
  <linearGradient id="gAddBar" x1="0%" y1="0%" x2="0%" y2="100%">
    <stop offset="0%"   stop-color="#22c55e" stop-opacity="0.95"/>
    <stop offset="100%" stop-color="#22c55e" stop-opacity="0.65"/>
  </linearGradient>
  <linearGradient id="gDelBar" x1="0%" y1="0%" x2="0%" y2="100%">
    <stop offset="0%"   stop-color="#ef4444" stop-opacity="0.9"/>
    <stop offset="100%" stop-color="#ef4444" stop-opacity="0.6"/>
  </linearGradient>

  <filter id="glowOrange" x="-120%" y="-120%" width="340%" height="340%">
    <feGaussianBlur stdDeviation="4" result="b"/>
    <feMerge><feMergeNode in="b"/><feMergeNode in="SourceGraphic"/></feMerge>
  </filter>
  <filter id="glowCyan" x="-120%" y="-120%" width="340%" height="340%">
    <feGaussianBlur stdDeviation="3.5" result="b"/>
    <feMerge><feMergeNode in="b"/><feMergeNode in="SourceGraphic"/></feMerge>
  </filter>
  <filter id="glowTitle">
    <feGaussianBlur stdDeviation="5" result="b"/>
    <feMerge><feMergeNode in="b"/><feMergeNode in="b"/><feMergeNode in="SourceGraphic"/></feMerge>
  </filter>
  <filter id="glowLine" x="-6%" y="-120%" width="112%" height="340%">
    <feGaussianBlur stdDeviation="4.5" result="b"/>
    <feMerge><feMergeNode in="b"/><feMergeNode in="SourceGraphic"/></feMerge>
  </filter>
  <filter id="glowMA" x="-6%" y="-120%" width="112%" height="340%">
    <feGaussianBlur stdDeviation="3" result="b"/>
    <feMerge><feMergeNode in="b"/><feMergeNode in="SourceGraphic"/></feMerge>
  </filter>

  <pattern id="diamondTile" x="0" y="0" width="30" height="30" patternUnits="userSpaceOnUse">
    <path d="M15 2 L28 15 L15 28 L2 15 Z"
      fill="none" stroke="#0d2464" stroke-width="0.4" stroke-opacity="0.25"/>
  </pattern>

  <clipPath id="chartClip">
    <rect x="86" y="130" width="1540" height="360"/>
  </clipPath>
</defs>

<!-- ════ BACKGROUND ════ -->
<rect width="1704" height="969" fill="url(#bg)" rx="16"/>
<rect width="1704" height="969" fill="url(#diamondTile)" rx="16"/>

<!-- ════ BORDERS ════ -->
<rect width="1704" height="969" fill="none" rx="16" stroke="url(#gBorder)" stroke-width="2.2"/>
<rect x="5" y="5" width="1694" height="959" fill="none" rx="13"
  stroke="#1840a0" stroke-width="0.7" stroke-opacity="0.35"/>

<!-- ════ HEADER ════ -->
<rect x="0" y="0" width="1704" height="122" fill="url(#gHeader)" rx="16"/>
<line x1="24" y1="118.0" x2="1680.0" y2="118.0"
    stroke="url(#gBorder)" stroke-width="0.8" stroke-opacity="0.5"/>

<!-- ════ TITLE ════ -->
<text x="856.0" y="44" font-size="18" font-weight="600" fill="#cce8ff"
  text-anchor="middle" font-family="'Lexend','Segoe UI',sans-serif"
  filter="url(#glowTitle)" letter-spacing="5">⬡  COMMIT  ANALYTICS  ⬡</text>
<text x="856.0" y="62" font-size="9.5" fill="#3d7ed4" text-anchor="middle"
  font-family="'Lexend','Segoe UI',sans-serif" letter-spacing="3.5" font-weight="300">kieran-lucas/oop-course-project-uet</text>

<!-- ════ STATS BADGE ════ -->

    <rect x="1478" y="8" width="142" height="92" rx="10"
      fill="#030e26" fill-opacity="0.94" stroke="#2563eb" stroke-width="1.2"/>
    <text x="1549" y="24" font-size="8" fill="#3d7ed4"
      text-anchor="middle" font-family="'Lexend',sans-serif" letter-spacing="2" font-weight="400">TOTAL  COMMITS</text>
    <text x="1549" y="52" font-size="28" font-weight="700" fill="#cce8ff"
      text-anchor="middle" font-family="'Lexend',sans-serif" filter="url(#glowTitle)">349</text>
    <line x1="1494" y1="60" x2="1604" y2="60"
      stroke="#1a3f7a" stroke-width="0.8" stroke-opacity="0.5"/>
    <text x="1525" y="74" font-size="9" fill="#22c55e"
      text-anchor="middle" font-family="'Lexend',sans-serif" font-weight="400">+174.4k</text>
    <text x="1573" y="74" font-size="9" fill="#ef4444"
      text-anchor="middle" font-family="'Lexend',sans-serif" font-weight="400">-86.3k</text>
    <text x="1549" y="90" font-size="8" fill="#3d7ed4"
      text-anchor="middle" font-family="'Lexend',sans-serif" font-weight="300">45 active days · 1.1k files</text>

<!-- ════ LEGEND ════ -->
<g><rect x="500.0" y="90.0" width="24" height="12" rx="3"
        fill="#4a90e2" fill-opacity="0.45" stroke="#4a90e2" stroke-width="1.2"/><text x="531.0" y="100.0" font-size="11" fill="#93c5fd"
      font-family="'Lexend','Segoe UI',sans-serif" font-weight="400">Total Lines</text><line x1="636.0" y1="97.0" x2="660.0" y2="97.0"
        stroke="#ff8c42" stroke-width="2.5" stroke-linecap="round"/><circle cx="648.0" cy="97.0" r="3.5"
        fill="#ff8c42" stroke="#fff" stroke-width="0.6" stroke-opacity="0.3"/><text x="667.0" y="100.0" font-size="11" fill="#93c5fd"
      font-family="'Lexend','Segoe UI',sans-serif" font-weight="400">Commits</text><line x1="744.0" y1="97.0" x2="768.0" y2="97.0"
        stroke="#00d4f5" stroke-width="2.5" stroke-linecap="round"/><circle cx="756.0" cy="97.0" r="3.5"
        fill="#00d4f5" stroke="#fff" stroke-width="0.6" stroke-opacity="0.3"/><text x="775.0" y="100.0" font-size="11" fill="#93c5fd"
      font-family="'Lexend','Segoe UI',sans-serif" font-weight="400">Chg/Commit</text><rect x="879.0" y="90.0" width="12" height="12" rx="2"
        fill="#22c55e" opacity="0.85"/><text x="904.0" y="100.0" font-size="11" fill="#93c5fd"
      font-family="'Lexend','Segoe UI',sans-serif" font-weight="400">Additions</text><rect x="1001.0" y="90.0" width="12" height="12" rx="2"
        fill="#ef4444" opacity="0.85"/><text x="1026.0" y="100.0" font-size="11" fill="#93c5fd"
      font-family="'Lexend','Segoe UI',sans-serif" font-weight="400">Deletions</text><line x1="1117.0" y1="97.0" x2="1141.0" y2="97.0"
        stroke="#a78bfa" stroke-width="2" stroke-dasharray="5,3" stroke-linecap="round"/><text x="1148.0" y="100.0" font-size="11" fill="#93c5fd"
      font-family="'Lexend','Segoe UI',sans-serif" font-weight="400">7-day MA</text></g>

<!-- ════ AXIS LABELS ════ -->
<text x="16" y="310.0" font-size="9.5" fill="#4a90e2"
    text-anchor="middle" font-family="'Lexend','Segoe UI',sans-serif" letter-spacing="3" font-weight="300"
    transform="rotate(-90, 16, 310.0)">LINES</text>
<text x="1690.0" y="310.0" font-size="9.5"
    fill="#ff8c42" text-anchor="middle" font-family="'Lexend','Segoe UI',sans-serif"
    letter-spacing="3" font-weight="300" opacity="0.8"
    transform="rotate(90, 1690.0, 310.0)">COMMITS</text>

<!-- ════ GRID + Y-LABELS ════ -->
<line x1="86" y1="490.0" x2="1626" y2="490.0"
      stroke="#1a3f7a" stroke-width="1.4"
      stroke-opacity="0.9" stroke-dasharray="none"/><line x1="86" y1="418.0" x2="1626" y2="418.0"
      stroke="#1a3f7a" stroke-width="0.5"
      stroke-opacity="0.3" stroke-dasharray="6,6"/><line x1="86" y1="346.0" x2="1626" y2="346.0"
      stroke="#1a3f7a" stroke-width="0.5"
      stroke-opacity="0.3" stroke-dasharray="6,6"/><line x1="86" y1="274.0" x2="1626" y2="274.0"
      stroke="#1a3f7a" stroke-width="0.5"
      stroke-opacity="0.3" stroke-dasharray="6,6"/><line x1="86" y1="202.0" x2="1626" y2="202.0"
      stroke="#1a3f7a" stroke-width="0.5"
      stroke-opacity="0.3" stroke-dasharray="6,6"/><line x1="86" y1="130.0" x2="1626" y2="130.0"
      stroke="#1a3f7a" stroke-width="0.5"
      stroke-opacity="0.3" stroke-dasharray="6,6"/>
<text x="74" y="494.0" font-size="11" fill="#5aa8ff"
      text-anchor="end" font-family="'Lexend','Segoe UI',sans-serif" font-weight="300">0</text><text x="74" y="422.0" font-size="11" fill="#5aa8ff"
      text-anchor="end" font-family="'Lexend','Segoe UI',sans-serif" font-weight="300">20.0k</text><text x="74" y="350.0" font-size="11" fill="#5aa8ff"
      text-anchor="end" font-family="'Lexend','Segoe UI',sans-serif" font-weight="300">40.0k</text><text x="74" y="278.0" font-size="11" fill="#5aa8ff"
      text-anchor="end" font-family="'Lexend','Segoe UI',sans-serif" font-weight="300">60.0k</text><text x="74" y="206.0" font-size="11" fill="#5aa8ff"
      text-anchor="end" font-family="'Lexend','Segoe UI',sans-serif" font-weight="300">80.0k</text><text x="74" y="134.0" font-size="11" fill="#5aa8ff"
      text-anchor="end" font-family="'Lexend','Segoe UI',sans-serif" font-weight="300">100.0k</text>
<text x="1638" y="494.0" font-size="11" fill="#ff8c42"
      text-anchor="start" font-family="'Lexend','Segoe UI',sans-serif" font-weight="300" opacity="0.85">0</text><text x="1638" y="404.0" font-size="11" fill="#ff8c42"
      text-anchor="start" font-family="'Lexend','Segoe UI',sans-serif" font-weight="300" opacity="0.85">20</text><text x="1638" y="314.0" font-size="11" fill="#ff8c42"
      text-anchor="start" font-family="'Lexend','Segoe UI',sans-serif" font-weight="300" opacity="0.85">40</text><text x="1638" y="224.0" font-size="11" fill="#ff8c42"
      text-anchor="start" font-family="'Lexend','Segoe UI',sans-serif" font-weight="300" opacity="0.85">60</text><text x="1638" y="134.0" font-size="11" fill="#ff8c42"
      text-anchor="start" font-family="'Lexend','Segoe UI',sans-serif" font-weight="300" opacity="0.85">80</text>

<!-- ════ AXIS LINES ════ -->
<line x1="86" y1="130" x2="86" y2="490"
  stroke="#1a3f7a" stroke-width="1.2" stroke-opacity="0.65"/>
<line x1="86" y1="490" x2="1626" y2="490"
  stroke="#1a3f7a" stroke-width="1.4" stroke-opacity="0.8"/>
<line x1="1626" y1="130" x2="1626" y2="490"
  stroke="#ff8c42" stroke-width="0.9" stroke-opacity="0.28"/>

<!-- ════ X-AXIS ════ -->
<text x="86.0" y="514" font-size="10" fill="#5aa8ff"
      text-anchor="end" font-family="'Lexend','Segoe UI',sans-serif" font-weight="300"
      transform="rotate(-42, 86.0, 514)">10 Mar</text><text x="200.1" y="514" font-size="10" fill="#5aa8ff"
      text-anchor="end" font-family="'Lexend','Segoe UI',sans-serif" font-weight="300"
      transform="rotate(-42, 200.1, 514)">14 Mar</text><text x="314.1" y="514" font-size="10" fill="#5aa8ff"
      text-anchor="end" font-family="'Lexend','Segoe UI',sans-serif" font-weight="300"
      transform="rotate(-42, 314.1, 514)">18 Mar</text><text x="428.2" y="514" font-size="10" fill="#5aa8ff"
      text-anchor="end" font-family="'Lexend','Segoe UI',sans-serif" font-weight="300"
      transform="rotate(-42, 428.2, 514)">22 Mar</text><text x="542.3" y="514" font-size="10" fill="#5aa8ff"
      text-anchor="end" font-family="'Lexend','Segoe UI',sans-serif" font-weight="300"
      transform="rotate(-42, 542.3, 514)">26 Mar</text><text x="656.4" y="514" font-size="10" fill="#5aa8ff"
      text-anchor="end" font-family="'Lexend','Segoe UI',sans-serif" font-weight="300"
      transform="rotate(-42, 656.4, 514)">30 Mar</text><text x="770.4" y="514" font-size="10" fill="#5aa8ff"
      text-anchor="end" font-family="'Lexend','Segoe UI',sans-serif" font-weight="300"
      transform="rotate(-42, 770.4, 514)">3 Apr</text><text x="884.5" y="514" font-size="10" fill="#5aa8ff"
      text-anchor="end" font-family="'Lexend','Segoe UI',sans-serif" font-weight="300"
      transform="rotate(-42, 884.5, 514)">7 Apr</text><text x="998.6" y="514" font-size="10" fill="#5aa8ff"
      text-anchor="end" font-family="'Lexend','Segoe UI',sans-serif" font-weight="300"
      transform="rotate(-42, 998.6, 514)">11 Apr</text><text x="1112.7" y="514" font-size="10" fill="#5aa8ff"
      text-anchor="end" font-family="'Lexend','Segoe UI',sans-serif" font-weight="300"
      transform="rotate(-42, 1112.7, 514)">15 Apr</text><text x="1226.7" y="514" font-size="10" fill="#5aa8ff"
      text-anchor="end" font-family="'Lexend','Segoe UI',sans-serif" font-weight="300"
      transform="rotate(-42, 1226.7, 514)">19 Apr</text><text x="1340.8" y="514" font-size="10" fill="#5aa8ff"
      text-anchor="end" font-family="'Lexend','Segoe UI',sans-serif" font-weight="300"
      transform="rotate(-42, 1340.8, 514)">23 Apr</text><text x="1454.9" y="514" font-size="10" fill="#5aa8ff"
      text-anchor="end" font-family="'Lexend','Segoe UI',sans-serif" font-weight="300"
      transform="rotate(-42, 1454.9, 514)">27 Apr</text><text x="1569.0" y="514" font-size="10" fill="#5aa8ff"
      text-anchor="end" font-family="'Lexend','Segoe UI',sans-serif" font-weight="300"
      transform="rotate(-42, 1569.0, 514)">1 May</text><text x="1626.0" y="514" font-size="10" fill="#5aa8ff"
      text-anchor="end" font-family="'Lexend','Segoe UI',sans-serif" font-weight="300"
      transform="rotate(-42, 1626.0, 514)">3 May</text>

<!-- ════ CHART CONTENT ════ -->
<g clip-path="url(#chartClip)">
  <!-- Total lines: area + stroke -->
  <path d="M 86.00 490.00 C 90.75 490.00, 105.01 490.00, 114.52 490.00 C 124.02 490.00, 133.53 490.00, 143.04 490.00 C 152.54 490.00, 162.05 490.00, 171.56 490.00 C 181.06 490.00, 190.57 490.00, 200.07 490.00 C 209.58 490.00, 219.09 490.00, 228.59 490.00 C 238.10 490.00, 247.60 490.00, 257.11 490.00 C 266.62 489.98, 276.12 489.92, 285.63 489.91 C 295.14 489.89, 304.64 489.91, 314.15 489.91 C 323.65 489.91, 333.16 489.94, 342.67 489.91 C 352.17 489.87, 361.68 489.72, 371.19 489.69 C 380.69 489.65, 390.20 489.70, 399.70 489.69 C 409.21 489.67, 418.72 489.62, 428.22 489.61 C 437.73 489.59, 447.23 490.00, 456.74 489.61 C 466.25 488.99, 475.75 486.51, 485.26 485.89 C 494.77 485.28, 504.27 485.91, 513.78 485.91 C 523.28 485.91, 532.79 485.90, 542.30 485.90 C 551.80 485.90, 561.31 490.00, 570.81 485.89 C 580.32 443.28, 589.83 274.96, 599.33 230.27 C 608.84 185.59, 618.35 219.88, 627.85 217.78 C 637.36 215.68, 646.86 218.05, 656.37 217.69 C 665.88 217.33, 675.38 216.22, 684.89 215.61 C 694.40 215.00, 703.90 214.42, 713.41 214.05 C 722.91 213.67, 732.42 213.51, 741.93 213.37 C 751.43 213.23, 760.94 213.54, 770.44 213.21 C 779.95 212.88, 789.46 211.70, 798.96 211.39 C 808.47 211.09, 817.98 211.39, 827.48 211.39 C 836.99 211.39, 846.49 211.45, 856.00 211.38 C 865.51 211.31, 875.01 211.03, 884.52 210.96 C 894.02 210.89, 903.53 210.96, 913.04 210.96 C 922.54 210.95, 932.05 210.95, 941.56 210.94 C 951.06 210.94, 960.57 210.92, 970.07 210.92 C 979.58 210.92, 989.09 211.38, 998.59 210.94 C 1008.10 210.50, 1017.60 208.73, 1027.11 208.29 C 1036.62 207.84, 1046.12 208.30, 1055.63 208.29 C 1065.14 208.27, 1074.64 208.21, 1084.15 208.20 C 1093.65 208.18, 1103.16 208.18, 1112.67 208.17 C 1122.17 208.17, 1131.68 208.16, 1141.19 208.16 C 1150.69 208.15, 1160.20 208.15, 1169.70 208.15 C 1179.21 208.14, 1188.72 208.13, 1198.22 208.12 C 1207.73 208.12, 1217.23 208.20, 1226.74 208.11 C 1236.25 208.01, 1245.75 207.65, 1255.26 207.56 C 1264.77 207.47, 1274.27 207.55, 1283.78 207.55 C 1293.28 207.55, 1302.79 207.54, 1312.30 207.54 C 1321.80 207.53, 1331.31 207.53, 1340.81 207.52 C 1350.32 207.52, 1359.83 207.51, 1369.33 207.50 C 1378.84 207.49, 1388.35 207.49, 1397.85 207.49 C 1407.36 207.49, 1416.86 207.49, 1426.37 207.49 C 1435.88 207.49, 1445.38 207.50, 1454.89 207.48 C 1464.40 207.46, 1473.90 207.41, 1483.41 207.39 C 1492.91 207.37, 1502.42 207.38, 1511.93 207.37 C 1521.43 207.37, 1530.94 207.71, 1540.44 207.35 C 1549.95 207.00, 1559.46 205.59, 1568.96 205.24 C 1578.47 204.89, 1587.98 210.67, 1597.48 205.24 C 1606.99 199.81, 1621.25 178.10, 1626.00 172.68 L 1626.00 490 L 86.00 490 Z" fill="url(#areaFill)"/>
  <path d="M 86.00 490.00 C 90.75 490.00, 105.01 490.00, 114.52 490.00 C 124.02 490.00, 133.53 490.00, 143.04 490.00 C 152.54 490.00, 162.05 490.00, 171.56 490.00 C 181.06 490.00, 190.57 490.00, 200.07 490.00 C 209.58 490.00, 219.09 490.00, 228.59 490.00 C 238.10 490.00, 247.60 490.00, 257.11 490.00 C 266.62 489.98, 276.12 489.92, 285.63 489.91 C 295.14 489.89, 304.64 489.91, 314.15 489.91 C 323.65 489.91, 333.16 489.94, 342.67 489.91 C 352.17 489.87, 361.68 489.72, 371.19 489.69 C 380.69 489.65, 390.20 489.70, 399.70 489.69 C 409.21 489.67, 418.72 489.62, 428.22 489.61 C 437.73 489.59, 447.23 490.00, 456.74 489.61 C 466.25 488.99, 475.75 486.51, 485.26 485.89 C 494.77 485.28, 504.27 485.91, 513.78 485.91 C 523.28 485.91, 532.79 485.90, 542.30 485.90 C 551.80 485.90, 561.31 490.00, 570.81 485.89 C 580.32 443.28, 589.83 274.96, 599.33 230.27 C 608.84 185.59, 618.35 219.88, 627.85 217.78 C 637.36 215.68, 646.86 218.05, 656.37 217.69 C 665.88 217.33, 675.38 216.22, 684.89 215.61 C 694.40 215.00, 703.90 214.42, 713.41 214.05 C 722.91 213.67, 732.42 213.51, 741.93 213.37 C 751.43 213.23, 760.94 213.54, 770.44 213.21 C 779.95 212.88, 789.46 211.70, 798.96 211.39 C 808.47 211.09, 817.98 211.39, 827.48 211.39 C 836.99 211.39, 846.49 211.45, 856.00 211.38 C 865.51 211.31, 875.01 211.03, 884.52 210.96 C 894.02 210.89, 903.53 210.96, 913.04 210.96 C 922.54 210.95, 932.05 210.95, 941.56 210.94 C 951.06 210.94, 960.57 210.92, 970.07 210.92 C 979.58 210.92, 989.09 211.38, 998.59 210.94 C 1008.10 210.50, 1017.60 208.73, 1027.11 208.29 C 1036.62 207.84, 1046.12 208.30, 1055.63 208.29 C 1065.14 208.27, 1074.64 208.21, 1084.15 208.20 C 1093.65 208.18, 1103.16 208.18, 1112.67 208.17 C 1122.17 208.17, 1131.68 208.16, 1141.19 208.16 C 1150.69 208.15, 1160.20 208.15, 1169.70 208.15 C 1179.21 208.14, 1188.72 208.13, 1198.22 208.12 C 1207.73 208.12, 1217.23 208.20, 1226.74 208.11 C 1236.25 208.01, 1245.75 207.65, 1255.26 207.56 C 1264.77 207.47, 1274.27 207.55, 1283.78 207.55 C 1293.28 207.55, 1302.79 207.54, 1312.30 207.54 C 1321.80 207.53, 1331.31 207.53, 1340.81 207.52 C 1350.32 207.52, 1359.83 207.51, 1369.33 207.50 C 1378.84 207.49, 1388.35 207.49, 1397.85 207.49 C 1407.36 207.49, 1416.86 207.49, 1426.37 207.49 C 1435.88 207.49, 1445.38 207.50, 1454.89 207.48 C 1464.40 207.46, 1473.90 207.41, 1483.41 207.39 C 1492.91 207.37, 1502.42 207.38, 1511.93 207.37 C 1521.43 207.37, 1530.94 207.71, 1540.44 207.35 C 1549.95 207.00, 1559.46 205.59, 1568.96 205.24 C 1578.47 204.89, 1587.98 210.67, 1597.48 205.24 C 1606.99 199.81, 1621.25 178.10, 1626.00 172.68" fill="none" stroke="#4a90e2" stroke-width="2" stroke-opacity="0.7"/>

  <!-- Bars -->
  <rect x="477.6" y="312.5" width="15.400000000000002" height="88.1"
        fill="url(#gDelBar)" rx="2" opacity="0.78"/><rect x="477.6" y="400.6" width="15.400000000000002" height="89.4"
        fill="url(#gAddBar)" rx="2" opacity="0.82"/><rect x="591.6" y="392.5" width="15.400000000000002" height="2.7"
        fill="url(#gDelBar)" rx="2" opacity="0.78"/><rect x="591.6" y="395.2" width="15.400000000000002" height="94.8"
        fill="url(#gAddBar)" rx="2" opacity="0.82"/><rect x="620.2" y="476.3" width="15.400000000000002" height="4.6"
        fill="url(#gDelBar)" rx="2" opacity="0.78"/><rect x="620.2" y="480.9" width="15.400000000000002" height="9.1"
        fill="url(#gAddBar)" rx="2" opacity="0.82"/><rect x="677.2" y="487.5" width="15.400000000000002" height="0.9"
        fill="url(#gDelBar)" rx="2" opacity="0.78"/><rect x="677.2" y="488.4" width="15.400000000000002" height="1.6"
        fill="url(#gAddBar)" rx="2" opacity="0.82"/><rect x="705.7" y="487.5" width="15.400000000000002" height="1.0"
        fill="url(#gDelBar)" rx="2" opacity="0.78"/><rect x="705.7" y="488.5" width="15.400000000000002" height="1.5"
        fill="url(#gAddBar)" rx="2" opacity="0.82"/><rect x="762.7" y="487.6" width="15.400000000000002" height="1.2"
        fill="url(#gDelBar)" rx="2" opacity="0.78"/><rect x="762.7" y="488.8" width="15.400000000000002" height="1.2"
        fill="url(#gAddBar)" rx="2" opacity="0.82"/><rect x="791.3" y="486.1" width="15.400000000000002" height="1.6"
        fill="url(#gDelBar)" rx="2" opacity="0.78"/><rect x="791.3" y="487.7" width="15.400000000000002" height="2.3"
        fill="url(#gAddBar)" rx="2" opacity="0.82"/><rect x="1019.4" y="488.8" width="15.400000000000002" height="1.2"
        fill="url(#gAddBar)" rx="2" opacity="0.82"/><rect x="1247.6" y="488.7" width="15.400000000000002" height="0.5"
        fill="url(#gDelBar)" rx="2" opacity="0.78"/><rect x="1247.6" y="489.3" width="15.400000000000002" height="0.7"
        fill="url(#gAddBar)" rx="2" opacity="0.82"/><rect x="1561.3" y="479.7" width="15.400000000000002" height="4.8"
        fill="url(#gDelBar)" rx="2" opacity="0.78"/><rect x="1561.3" y="484.5" width="15.400000000000002" height="5.5"
        fill="url(#gAddBar)" rx="2" opacity="0.82"/><rect x="1618.3" y="475.2" width="15.400000000000002" height="1.5"
        fill="url(#gDelBar)" rx="2" opacity="0.78"/><rect x="1618.3" y="476.7" width="15.400000000000002" height="13.3"
        fill="url(#gAddBar)" rx="2" opacity="0.82"/>

  <!-- Commits line — glow + crisp -->
  <path d="M 86.00 485.50 C 90.75 486.25, 105.01 489.25, 114.52 490.00 C 124.02 490.00, 133.53 490.00, 143.04 490.00 C 152.54 490.00, 162.05 490.00, 171.56 490.00 C 181.06 490.00, 190.57 490.00, 200.07 490.00 C 209.58 490.00, 219.09 490.00, 228.59 490.00 C 238.10 490.00, 247.60 490.00, 257.11 490.00 C 266.62 482.50, 276.12 445.00, 285.63 445.00 C 295.14 445.00, 304.64 482.50, 314.15 490.00 C 323.65 490.00, 333.16 490.00, 342.67 490.00 C 352.17 470.50, 361.68 373.00, 371.19 373.00 C 380.69 373.00, 390.20 471.25, 399.70 490.00 C 409.21 490.00, 418.72 485.50, 428.22 485.50 C 437.73 485.50, 447.23 490.00, 456.74 490.00 C 466.25 466.75, 475.75 351.25, 485.26 346.00 C 494.77 340.75, 504.27 436.75, 513.78 458.50 C 523.28 480.25, 532.79 472.00, 542.30 476.50 C 551.80 481.00, 561.31 490.00, 570.81 485.50 C 580.32 438.25, 589.83 225.25, 599.33 193.00 C 608.84 160.75, 618.35 244.00, 627.85 292.00 C 637.36 340.00, 646.86 460.00, 656.37 481.00 C 665.88 490.00, 675.38 427.00, 684.89 418.00 C 694.40 409.00, 703.90 416.50, 713.41 427.00 C 722.91 437.50, 732.42 488.50, 741.93 481.00 C 751.43 473.50, 760.94 394.00, 770.44 382.00 C 779.95 370.00, 789.46 391.75, 798.96 409.00 C 808.47 426.25, 817.98 472.75, 827.48 485.50 C 836.99 490.00, 846.49 490.00, 856.00 485.50 C 865.51 479.50, 875.01 449.50, 884.52 449.50 C 894.02 449.50, 903.53 479.50, 913.04 485.50 C 922.54 490.00, 932.05 485.50, 941.56 485.50 C 951.06 485.50, 960.57 485.50, 970.07 485.50 C 979.58 485.50, 989.09 487.75, 998.59 485.50 C 1008.10 483.25, 1017.60 472.00, 1027.11 472.00 C 1036.62 472.00, 1046.12 483.25, 1055.63 485.50 C 1065.14 487.75, 1074.64 485.50, 1084.15 485.50 C 1093.65 485.50, 1103.16 485.50, 1112.67 485.50 C 1122.17 485.50, 1131.68 485.50, 1141.19 485.50 C 1150.69 485.50, 1160.20 485.50, 1169.70 485.50 C 1179.21 485.50, 1188.72 485.50, 1198.22 485.50 C 1207.73 485.50, 1217.23 487.00, 1226.74 485.50 C 1236.25 484.00, 1245.75 476.50, 1255.26 476.50 C 1264.77 476.50, 1274.27 484.00, 1283.78 485.50 C 1293.28 487.00, 1302.79 485.50, 1312.30 485.50 C 1321.80 485.50, 1331.31 485.50, 1340.81 485.50 C 1350.32 485.50, 1359.83 485.50, 1369.33 485.50 C 1378.84 485.50, 1388.35 485.50, 1397.85 485.50 C 1407.36 485.50, 1416.86 485.50, 1426.37 485.50 C 1435.88 485.50, 1445.38 485.50, 1454.89 485.50 C 1464.40 485.50, 1473.90 485.50, 1483.41 485.50 C 1492.91 485.50, 1502.42 485.50, 1511.93 485.50 C 1521.43 485.50, 1530.94 489.25, 1540.44 485.50 C 1549.95 481.75, 1559.46 463.00, 1568.96 463.00 C 1578.47 463.00, 1587.98 490.00, 1597.48 485.50 C 1606.99 463.00, 1621.25 354.25, 1626.00 328.00" fill="none" stroke="#ff8c42" stroke-width="9" stroke-opacity="0.06" filter="url(#glowLine)"/>
  <path d="M 86.00 485.50 C 90.75 486.25, 105.01 489.25, 114.52 490.00 C 124.02 490.00, 133.53 490.00, 143.04 490.00 C 152.54 490.00, 162.05 490.00, 171.56 490.00 C 181.06 490.00, 190.57 490.00, 200.07 490.00 C 209.58 490.00, 219.09 490.00, 228.59 490.00 C 238.10 490.00, 247.60 490.00, 257.11 490.00 C 266.62 482.50, 276.12 445.00, 285.63 445.00 C 295.14 445.00, 304.64 482.50, 314.15 490.00 C 323.65 490.00, 333.16 490.00, 342.67 490.00 C 352.17 470.50, 361.68 373.00, 371.19 373.00 C 380.69 373.00, 390.20 471.25, 399.70 490.00 C 409.21 490.00, 418.72 485.50, 428.22 485.50 C 437.73 485.50, 447.23 490.00, 456.74 490.00 C 466.25 466.75, 475.75 351.25, 485.26 346.00 C 494.77 340.75, 504.27 436.75, 513.78 458.50 C 523.28 480.25, 532.79 472.00, 542.30 476.50 C 551.80 481.00, 561.31 490.00, 570.81 485.50 C 580.32 438.25, 589.83 225.25, 599.33 193.00 C 608.84 160.75, 618.35 244.00, 627.85 292.00 C 637.36 340.00, 646.86 460.00, 656.37 481.00 C 665.88 490.00, 675.38 427.00, 684.89 418.00 C 694.40 409.00, 703.90 416.50, 713.41 427.00 C 722.91 437.50, 732.42 488.50, 741.93 481.00 C 751.43 473.50, 760.94 394.00, 770.44 382.00 C 779.95 370.00, 789.46 391.75, 798.96 409.00 C 808.47 426.25, 817.98 472.75, 827.48 485.50 C 836.99 490.00, 846.49 490.00, 856.00 485.50 C 865.51 479.50, 875.01 449.50, 884.52 449.50 C 894.02 449.50, 903.53 479.50, 913.04 485.50 C 922.54 490.00, 932.05 485.50, 941.56 485.50 C 951.06 485.50, 960.57 485.50, 970.07 485.50 C 979.58 485.50, 989.09 487.75, 998.59 485.50 C 1008.10 483.25, 1017.60 472.00, 1027.11 472.00 C 1036.62 472.00, 1046.12 483.25, 1055.63 485.50 C 1065.14 487.75, 1074.64 485.50, 1084.15 485.50 C 1093.65 485.50, 1103.16 485.50, 1112.67 485.50 C 1122.17 485.50, 1131.68 485.50, 1141.19 485.50 C 1150.69 485.50, 1160.20 485.50, 1169.70 485.50 C 1179.21 485.50, 1188.72 485.50, 1198.22 485.50 C 1207.73 485.50, 1217.23 487.00, 1226.74 485.50 C 1236.25 484.00, 1245.75 476.50, 1255.26 476.50 C 1264.77 476.50, 1274.27 484.00, 1283.78 485.50 C 1293.28 487.00, 1302.79 485.50, 1312.30 485.50 C 1321.80 485.50, 1331.31 485.50, 1340.81 485.50 C 1350.32 485.50, 1359.83 485.50, 1369.33 485.50 C 1378.84 485.50, 1388.35 485.50, 1397.85 485.50 C 1407.36 485.50, 1416.86 485.50, 1426.37 485.50 C 1435.88 485.50, 1445.38 485.50, 1454.89 485.50 C 1464.40 485.50, 1473.90 485.50, 1483.41 485.50 C 1492.91 485.50, 1502.42 485.50, 1511.93 485.50 C 1521.43 485.50, 1530.94 489.25, 1540.44 485.50 C 1549.95 481.75, 1559.46 463.00, 1568.96 463.00 C 1578.47 463.00, 1587.98 490.00, 1597.48 485.50 C 1606.99 463.00, 1621.25 354.25, 1626.00 328.00" fill="none" stroke="url(#gCommits)" stroke-width="2.8" stroke-linecap="round"/>

  <!-- Changes/commit line -->
  <path d="M 86.00 489.93 C 90.75 489.94, 105.01 489.99, 114.52 490.00 C 124.02 490.00, 133.53 490.00, 143.04 490.00 C 152.54 490.00, 162.05 490.00, 171.56 490.00 C 181.06 490.00, 190.57 490.00, 200.07 490.00 C 209.58 490.00, 219.09 490.00, 228.59 490.00 C 238.10 490.00, 247.60 490.00, 257.11 490.00 C 266.62 489.95, 276.12 489.71, 285.63 489.71 C 295.14 489.71, 304.64 489.95, 314.15 490.00 C 323.65 490.00, 333.16 490.00, 342.67 490.00 C 352.17 489.96, 361.68 489.78, 371.19 489.78 C 380.69 489.78, 390.20 490.00, 399.70 490.00 C 409.21 489.77, 418.72 488.42, 428.22 488.42 C 437.73 488.42, 447.23 490.00, 456.74 490.00 C 466.25 438.92, 475.75 182.09, 485.26 181.91 C 494.77 181.73, 504.27 438.20, 513.78 488.92 C 523.28 490.00, 532.79 486.70, 542.30 486.26 C 551.80 485.81, 561.31 490.00, 570.81 486.26 C 580.32 473.20, 589.83 410.19, 599.33 407.92 C 608.84 405.65, 618.35 461.38, 627.85 472.65 C 637.36 483.92, 646.86 474.09, 656.37 475.53 C 665.88 476.97, 675.38 480.53, 684.89 481.29 C 694.40 482.04, 703.90 480.17, 713.41 480.06 C 722.91 479.96, 732.42 479.92, 741.93 480.64 C 751.43 481.36, 760.94 484.82, 770.44 484.38 C 779.95 483.95, 789.46 478.14, 798.96 478.05 C 808.47 477.95, 817.98 484.36, 827.48 483.81 C 836.99 483.26, 846.49 474.42, 856.00 474.74 C 865.51 475.05, 875.01 484.02, 884.52 485.68 C 894.02 487.34, 903.53 486.62, 913.04 484.67 C 922.54 482.73, 932.05 475.96, 941.56 474.02 C 951.06 472.07, 960.57 473.18, 970.07 473.01 C 979.58 472.84, 989.09 473.43, 998.59 473.01 C 1008.10 472.59, 1017.60 468.62, 1027.11 470.49 C 1036.62 472.36, 1046.12 485.20, 1055.63 484.24 C 1065.14 483.28, 1074.64 466.82, 1084.15 464.73 C 1093.65 462.64, 1103.16 470.57, 1112.67 471.71 C 1122.17 472.85, 1131.68 471.59, 1141.19 471.57 C 1150.69 471.54, 1160.20 471.64, 1169.70 471.57 C 1179.21 471.50, 1188.72 471.30, 1198.22 471.14 C 1207.73 470.97, 1217.23 471.32, 1226.74 470.56 C 1236.25 469.80, 1245.75 464.30, 1255.26 466.60 C 1264.77 468.90, 1274.27 483.87, 1283.78 484.38 C 1293.28 484.90, 1302.79 472.22, 1312.30 469.70 C 1321.80 467.18, 1331.31 469.46, 1340.81 469.26 C 1350.32 469.07, 1359.83 468.74, 1369.33 468.54 C 1378.84 468.35, 1388.35 468.16, 1397.85 468.11 C 1407.36 468.06, 1416.86 468.33, 1426.37 468.26 C 1435.88 468.18, 1445.38 469.40, 1454.89 467.68 C 1464.40 465.96, 1473.90 457.94, 1483.41 457.96 C 1492.91 457.98, 1502.42 469.54, 1511.93 467.82 C 1521.43 466.11, 1530.94 459.93, 1540.44 447.66 C 1549.95 435.40, 1559.46 388.14, 1568.96 394.24 C 1578.47 400.34, 1587.98 472.08, 1597.48 484.24 C 1606.99 490.00, 1621.25 470.02, 1626.00 467.18" fill="none" stroke="#00d4f5" stroke-width="9" stroke-opacity="0.06" filter="url(#glowLine)"/>
  <path d="M 86.00 489.93 C 90.75 489.94, 105.01 489.99, 114.52 490.00 C 124.02 490.00, 133.53 490.00, 143.04 490.00 C 152.54 490.00, 162.05 490.00, 171.56 490.00 C 181.06 490.00, 190.57 490.00, 200.07 490.00 C 209.58 490.00, 219.09 490.00, 228.59 490.00 C 238.10 490.00, 247.60 490.00, 257.11 490.00 C 266.62 489.95, 276.12 489.71, 285.63 489.71 C 295.14 489.71, 304.64 489.95, 314.15 490.00 C 323.65 490.00, 333.16 490.00, 342.67 490.00 C 352.17 489.96, 361.68 489.78, 371.19 489.78 C 380.69 489.78, 390.20 490.00, 399.70 490.00 C 409.21 489.77, 418.72 488.42, 428.22 488.42 C 437.73 488.42, 447.23 490.00, 456.74 490.00 C 466.25 438.92, 475.75 182.09, 485.26 181.91 C 494.77 181.73, 504.27 438.20, 513.78 488.92 C 523.28 490.00, 532.79 486.70, 542.30 486.26 C 551.80 485.81, 561.31 490.00, 570.81 486.26 C 580.32 473.20, 589.83 410.19, 599.33 407.92 C 608.84 405.65, 618.35 461.38, 627.85 472.65 C 637.36 483.92, 646.86 474.09, 656.37 475.53 C 665.88 476.97, 675.38 480.53, 684.89 481.29 C 694.40 482.04, 703.90 480.17, 713.41 480.06 C 722.91 479.96, 732.42 479.92, 741.93 480.64 C 751.43 481.36, 760.94 484.82, 770.44 484.38 C 779.95 483.95, 789.46 478.14, 798.96 478.05 C 808.47 477.95, 817.98 484.36, 827.48 483.81 C 836.99 483.26, 846.49 474.42, 856.00 474.74 C 865.51 475.05, 875.01 484.02, 884.52 485.68 C 894.02 487.34, 903.53 486.62, 913.04 484.67 C 922.54 482.73, 932.05 475.96, 941.56 474.02 C 951.06 472.07, 960.57 473.18, 970.07 473.01 C 979.58 472.84, 989.09 473.43, 998.59 473.01 C 1008.10 472.59, 1017.60 468.62, 1027.11 470.49 C 1036.62 472.36, 1046.12 485.20, 1055.63 484.24 C 1065.14 483.28, 1074.64 466.82, 1084.15 464.73 C 1093.65 462.64, 1103.16 470.57, 1112.67 471.71 C 1122.17 472.85, 1131.68 471.59, 1141.19 471.57 C 1150.69 471.54, 1160.20 471.64, 1169.70 471.57 C 1179.21 471.50, 1188.72 471.30, 1198.22 471.14 C 1207.73 470.97, 1217.23 471.32, 1226.74 470.56 C 1236.25 469.80, 1245.75 464.30, 1255.26 466.60 C 1264.77 468.90, 1274.27 483.87, 1283.78 484.38 C 1293.28 484.90, 1302.79 472.22, 1312.30 469.70 C 1321.80 467.18, 1331.31 469.46, 1340.81 469.26 C 1350.32 469.07, 1359.83 468.74, 1369.33 468.54 C 1378.84 468.35, 1388.35 468.16, 1397.85 468.11 C 1407.36 468.06, 1416.86 468.33, 1426.37 468.26 C 1435.88 468.18, 1445.38 469.40, 1454.89 467.68 C 1464.40 465.96, 1473.90 457.94, 1483.41 457.96 C 1492.91 457.98, 1502.42 469.54, 1511.93 467.82 C 1521.43 466.11, 1530.94 459.93, 1540.44 447.66 C 1549.95 435.40, 1559.46 388.14, 1568.96 394.24 C 1578.47 400.34, 1587.98 472.08, 1597.48 484.24 C 1606.99 490.00, 1621.25 470.02, 1626.00 467.18" fill="none" stroke="url(#gChanges)" stroke-width="2.5" stroke-linecap="round"/>

  <!-- Moving averages -->
  <path d="M 86.00 488.88 C 90.75 488.91, 105.01 489.04, 114.52 489.10 C 124.02 489.16, 133.53 489.21, 143.04 489.25 C 152.54 489.29, 162.05 490.00, 171.56 489.36 C 181.06 488.41, 190.57 484.54, 200.07 483.57 C 209.58 482.61, 219.09 483.57, 228.59 483.57 C 238.10 483.57, 247.60 486.36, 257.11 483.57 C 266.62 480.79, 276.12 469.64, 285.63 466.86 C 295.14 464.07, 304.64 466.96, 314.15 466.86 C 323.65 466.75, 333.16 466.32, 342.67 466.21 C 352.17 466.11, 361.68 468.57, 371.19 466.21 C 380.69 463.86, 390.20 455.18, 399.70 452.07 C 409.21 448.96, 418.72 448.64, 428.22 447.57 C 437.73 446.50, 447.23 443.29, 456.74 445.64 C 466.25 448.00, 475.75 466.11, 485.26 461.71 C 494.77 457.32, 504.27 430.96, 513.78 419.29 C 523.28 407.61, 532.79 396.46, 542.30 391.64 C 551.80 386.82, 561.31 388.86, 570.81 390.36 C 580.32 391.86, 589.83 399.68, 599.33 400.64 C 608.84 401.61, 618.35 396.79, 627.85 396.14 C 637.36 395.50, 646.86 399.14, 656.37 396.79 C 665.88 394.43, 675.38 379.32, 684.89 382.00 C 694.40 384.68, 703.90 403.11, 713.41 412.86 C 722.91 422.61, 732.42 435.79, 741.93 440.50 C 751.43 445.21, 760.94 440.29, 770.44 441.14 C 779.95 442.00, 789.46 443.50, 798.96 445.64 C 808.47 447.79, 817.98 452.50, 827.48 454.00 C 836.99 455.50, 846.49 452.07, 856.00 454.64 C 865.51 457.21, 875.01 465.14, 884.52 469.43 C 894.02 473.71, 903.53 478.86, 913.04 480.36 C 922.54 481.86, 932.05 478.75, 941.56 478.43 C 951.06 478.11, 960.57 477.57, 970.07 478.43 C 979.58 479.29, 989.09 482.71, 998.59 483.57 C 1008.10 484.43, 1017.60 483.57, 1027.11 483.57 C 1036.62 483.57, 1046.12 483.57, 1055.63 483.57 C 1065.14 483.57, 1074.64 483.57, 1084.15 483.57 C 1093.65 483.57, 1103.16 483.25, 1112.67 483.57 C 1122.17 483.89, 1131.68 485.39, 1141.19 485.50 C 1150.69 485.61, 1160.20 484.43, 1169.70 484.21 C 1179.21 484.00, 1188.72 484.21, 1198.22 484.21 C 1207.73 484.21, 1217.23 484.21, 1226.74 484.21 C 1236.25 484.21, 1245.75 484.21, 1255.26 484.21 C 1264.77 484.21, 1274.27 484.21, 1283.78 484.21 C 1293.28 484.21, 1302.79 484.21, 1312.30 484.21 C 1321.80 484.21, 1331.31 484.00, 1340.81 484.21 C 1350.32 484.43, 1359.83 485.29, 1369.33 485.50 C 1378.84 485.71, 1388.35 485.50, 1397.85 485.50 C 1407.36 485.50, 1416.86 485.50, 1426.37 485.50 C 1435.88 485.50, 1445.38 486.04, 1454.89 485.50 C 1464.40 484.96, 1473.90 482.82, 1483.41 482.29 C 1492.91 481.75, 1502.42 486.04, 1511.93 482.29 C 1521.43 478.54, 1530.94 464.25, 1540.44 459.79 C 1549.95 455.32, 1559.46 457.21, 1568.96 455.50 C 1578.47 453.79, 1587.98 452.00, 1597.48 449.50 C 1606.99 447.00, 1621.25 442.00, 1626.00 440.50" fill="none" stroke="#a78bfa" stroke-width="2" stroke-dasharray="6,4" stroke-opacity="0.55" filter="url(#glowMA)"/>
  <path d="M 86.00 489.98 C 90.75 489.98, 105.01 489.98, 114.52 489.99 C 124.02 489.99, 133.53 489.99, 143.04 489.99 C 152.54 489.99, 162.05 489.99, 171.56 489.99 C 181.06 489.98, 190.57 489.96, 200.07 489.96 C 209.58 489.95, 219.09 489.96, 228.59 489.96 C 238.10 489.96, 247.60 489.96, 257.11 489.96 C 266.62 489.95, 276.12 489.93, 285.63 489.93 C 295.14 489.92, 304.64 489.97, 314.15 489.93 C 323.65 489.89, 333.16 489.74, 342.67 489.70 C 352.17 489.66, 361.68 490.00, 371.19 489.70 C 380.69 482.37, 390.20 453.08, 399.70 445.73 C 409.21 438.38, 418.72 445.69, 428.22 445.58 C 437.73 445.46, 447.23 445.21, 456.74 445.04 C 466.25 444.87, 475.75 446.58, 485.26 444.54 C 494.77 442.50, 504.27 435.14, 513.78 432.81 C 523.28 430.48, 532.79 431.28, 542.30 430.56 C 551.80 429.84, 561.31 421.71, 570.81 428.49 C 580.32 435.27, 589.83 464.34, 599.33 471.26 C 608.84 478.18, 618.35 470.34, 627.85 469.99 C 637.36 469.65, 646.86 469.37, 656.37 469.19 C 665.88 469.01, 675.38 467.30, 684.89 468.92 C 694.40 470.55, 703.90 477.01, 713.41 478.94 C 722.91 480.88, 732.42 480.29, 741.93 480.54 C 751.43 480.78, 760.94 480.34, 770.44 480.42 C 779.95 480.51, 789.46 480.84, 798.96 481.05 C 808.47 481.27, 817.98 481.76, 827.48 481.71 C 836.99 481.66, 846.49 481.19, 856.00 480.76 C 865.51 480.33, 875.01 479.53, 884.52 479.14 C 894.02 478.75, 903.53 478.86, 913.04 478.42 C 922.54 477.98, 932.05 476.61, 941.56 476.52 C 951.06 476.42, 960.57 478.15, 970.07 477.87 C 979.58 477.60, 989.09 475.69, 998.59 474.88 C 1008.10 474.07, 1017.60 473.40, 1027.11 473.03 C 1036.62 472.66, 1046.12 472.77, 1055.63 472.68 C 1065.14 472.59, 1074.64 472.55, 1084.15 472.47 C 1093.65 472.39, 1103.16 472.25, 1112.67 472.21 C 1122.17 472.16, 1131.68 472.63, 1141.19 472.22 C 1150.69 471.80, 1160.20 469.65, 1169.70 469.70 C 1179.21 469.74, 1188.72 472.08, 1198.22 472.50 C 1207.73 472.92, 1217.23 472.32, 1226.74 472.22 C 1236.25 472.11, 1245.75 472.01, 1255.26 471.89 C 1264.77 471.76, 1274.27 471.60, 1283.78 471.45 C 1293.28 471.31, 1302.79 471.15, 1312.30 471.02 C 1321.80 470.90, 1331.31 470.72, 1340.81 470.69 C 1350.32 470.66, 1359.83 471.45, 1369.33 470.85 C 1378.84 470.24, 1388.35 467.75, 1397.85 467.07 C 1407.36 466.40, 1416.86 467.36, 1426.37 466.81 C 1435.88 466.25, 1445.38 466.00, 1454.89 463.72 C 1464.40 461.44, 1473.90 454.49, 1483.41 453.11 C 1492.91 451.72, 1502.42 455.05, 1511.93 455.41 C 1521.43 455.77, 1530.94 455.63, 1540.44 455.25 C 1549.95 454.88, 1559.46 453.69, 1568.96 453.18 C 1578.47 452.68, 1587.98 453.04, 1597.48 452.23 C 1606.99 451.42, 1621.25 448.98, 1626.00 448.33" fill="none" stroke="#c4b5fd" stroke-width="1.5" stroke-dasharray="5,4" stroke-opacity="0.4"/>

  <!-- Statistical overlay -->
  <line x1="86" y1="455.1" x2="1626" y2="455.1"
      stroke="#ff8c42" stroke-width="1" stroke-dasharray="8,4" opacity="0.3"/>
    <text x="1638" y="449.1" font-size="8" fill="#ff8c42"
      text-anchor="start" font-family="'Lexend','Segoe UI',sans-serif" font-weight="300" opacity="0.6">μ=7.8</text>

  <!-- Data point circles (inside clip for safety) -->
  <circle cx="86.0" cy="485.5" r="3.0"
        fill="#ff8c42" stroke="#ffd0a0" stroke-width="1" filter="url(#glowOrange)" opacity="0.9">
        <title>2026-03-10: 1 commits</title></circle><circle cx="285.6" cy="445.0" r="3.3"
        fill="#ff8c42" stroke="#ffd0a0" stroke-width="1" filter="url(#glowOrange)" opacity="0.9">
        <title>2026-03-17: 10 commits</title></circle><circle cx="371.2" cy="373.0" r="3.8"
        fill="#ff8c42" stroke="#ffd0a0" stroke-width="1" filter="url(#glowOrange)" opacity="0.9">
        <title>2026-03-20: 26 commits</title></circle><circle cx="428.2" cy="485.5" r="3.0"
        fill="#ff8c42" stroke="#ffd0a0" stroke-width="1" filter="url(#glowOrange)" opacity="0.9">
        <title>2026-03-22: 1 commits</title></circle><circle cx="485.3" cy="346.0" r="4.0"
        fill="#ff8c42" stroke="#ffd0a0" stroke-width="1" filter="url(#glowOrange)" opacity="0.9">
        <title>2026-03-24: 32 commits</title></circle><circle cx="513.8" cy="458.5" r="3.2"
        fill="#ff8c42" stroke="#ffd0a0" stroke-width="1" filter="url(#glowOrange)" opacity="0.9">
        <title>2026-03-25: 7 commits</title></circle><circle cx="542.3" cy="476.5" r="3.1"
        fill="#ff8c42" stroke="#ffd0a0" stroke-width="1" filter="url(#glowOrange)" opacity="0.9">
        <title>2026-03-26: 3 commits</title></circle><circle cx="570.8" cy="485.5" r="3.0"
        fill="#ff8c42" stroke="#ffd0a0" stroke-width="1" filter="url(#glowOrange)" opacity="0.9">
        <title>2026-03-27: 1 commits</title></circle><circle cx="599.3" cy="193.0" r="5.1"
        fill="#ff8c42" stroke="#ffd0a0" stroke-width="1" filter="url(#glowOrange)" opacity="0.9">
        <title>2026-03-28: 66 commits</title></circle><circle cx="627.9" cy="292.0" r="4.4"
        fill="#ff8c42" stroke="#ffd0a0" stroke-width="1" filter="url(#glowOrange)" opacity="0.9">
        <title>2026-03-29: 44 commits</title></circle><circle cx="656.4" cy="481.0" r="3.1"
        fill="#ff8c42" stroke="#ffd0a0" stroke-width="1" filter="url(#glowOrange)" opacity="0.9">
        <title>2026-03-30: 2 commits</title></circle><circle cx="684.9" cy="418.0" r="3.5"
        fill="#ff8c42" stroke="#ffd0a0" stroke-width="1" filter="url(#glowOrange)" opacity="0.9">
        <title>2026-03-31: 16 commits</title></circle><circle cx="713.4" cy="427.0" r="3.4"
        fill="#ff8c42" stroke="#ffd0a0" stroke-width="1" filter="url(#glowOrange)" opacity="0.9">
        <title>2026-04-01: 14 commits</title></circle><circle cx="741.9" cy="481.0" r="3.1"
        fill="#ff8c42" stroke="#ffd0a0" stroke-width="1" filter="url(#glowOrange)" opacity="0.9">
        <title>2026-04-02: 2 commits</title></circle><circle cx="770.4" cy="382.0" r="3.8"
        fill="#ff8c42" stroke="#ffd0a0" stroke-width="1" filter="url(#glowOrange)" opacity="0.9">
        <title>2026-04-03: 24 commits</title></circle><circle cx="799.0" cy="409.0" r="3.6"
        fill="#ff8c42" stroke="#ffd0a0" stroke-width="1" filter="url(#glowOrange)" opacity="0.9">
        <title>2026-04-04: 18 commits</title></circle><circle cx="827.5" cy="485.5" r="3.0"
        fill="#ff8c42" stroke="#ffd0a0" stroke-width="1" filter="url(#glowOrange)" opacity="0.9">
        <title>2026-04-05: 1 commits</title></circle><circle cx="856.0" cy="485.5" r="3.0"
        fill="#ff8c42" stroke="#ffd0a0" stroke-width="1" filter="url(#glowOrange)" opacity="0.9">
        <title>2026-04-06: 1 commits</title></circle><circle cx="884.5" cy="449.5" r="3.3"
        fill="#ff8c42" stroke="#ffd0a0" stroke-width="1" filter="url(#glowOrange)" opacity="0.9">
        <title>2026-04-07: 9 commits</title></circle><circle cx="913.0" cy="485.5" r="3.0"
        fill="#ff8c42" stroke="#ffd0a0" stroke-width="1" filter="url(#glowOrange)" opacity="0.9">
        <title>2026-04-08: 1 commits</title></circle><circle cx="941.6" cy="485.5" r="3.0"
        fill="#ff8c42" stroke="#ffd0a0" stroke-width="1" filter="url(#glowOrange)" opacity="0.9">
        <title>2026-04-09: 1 commits</title></circle><circle cx="970.1" cy="485.5" r="3.0"
        fill="#ff8c42" stroke="#ffd0a0" stroke-width="1" filter="url(#glowOrange)" opacity="0.9">
        <title>2026-04-10: 1 commits</title></circle><circle cx="998.6" cy="485.5" r="3.0"
        fill="#ff8c42" stroke="#ffd0a0" stroke-width="1" filter="url(#glowOrange)" opacity="0.9">
        <title>2026-04-11: 1 commits</title></circle><circle cx="1027.1" cy="472.0" r="3.1"
        fill="#ff8c42" stroke="#ffd0a0" stroke-width="1" filter="url(#glowOrange)" opacity="0.9">
        <title>2026-04-12: 4 commits</title></circle><circle cx="1055.6" cy="485.5" r="3.0"
        fill="#ff8c42" stroke="#ffd0a0" stroke-width="1" filter="url(#glowOrange)" opacity="0.9">
        <title>2026-04-13: 1 commits</title></circle><circle cx="1084.1" cy="485.5" r="3.0"
        fill="#ff8c42" stroke="#ffd0a0" stroke-width="1" filter="url(#glowOrange)" opacity="0.9">
        <title>2026-04-14: 1 commits</title></circle><circle cx="1112.7" cy="485.5" r="3.0"
        fill="#ff8c42" stroke="#ffd0a0" stroke-width="1" filter="url(#glowOrange)" opacity="0.9">
        <title>2026-04-15: 1 commits</title></circle><circle cx="1141.2" cy="485.5" r="3.0"
        fill="#ff8c42" stroke="#ffd0a0" stroke-width="1" filter="url(#glowOrange)" opacity="0.9">
        <title>2026-04-16: 1 commits</title></circle><circle cx="1169.7" cy="485.5" r="3.0"
        fill="#ff8c42" stroke="#ffd0a0" stroke-width="1" filter="url(#glowOrange)" opacity="0.9">
        <title>2026-04-17: 1 commits</title></circle><circle cx="1198.2" cy="485.5" r="3.0"
        fill="#ff8c42" stroke="#ffd0a0" stroke-width="1" filter="url(#glowOrange)" opacity="0.9">
        <title>2026-04-18: 1 commits</title></circle><circle cx="1226.7" cy="485.5" r="3.0"
        fill="#ff8c42" stroke="#ffd0a0" stroke-width="1" filter="url(#glowOrange)" opacity="0.9">
        <title>2026-04-19: 1 commits</title></circle><circle cx="1255.3" cy="476.5" r="3.1"
        fill="#ff8c42" stroke="#ffd0a0" stroke-width="1" filter="url(#glowOrange)" opacity="0.9">
        <title>2026-04-20: 3 commits</title></circle><circle cx="1283.8" cy="485.5" r="3.0"
        fill="#ff8c42" stroke="#ffd0a0" stroke-width="1" filter="url(#glowOrange)" opacity="0.9">
        <title>2026-04-21: 1 commits</title></circle><circle cx="1312.3" cy="485.5" r="3.0"
        fill="#ff8c42" stroke="#ffd0a0" stroke-width="1" filter="url(#glowOrange)" opacity="0.9">
        <title>2026-04-22: 1 commits</title></circle><circle cx="1340.8" cy="485.5" r="3.0"
        fill="#ff8c42" stroke="#ffd0a0" stroke-width="1" filter="url(#glowOrange)" opacity="0.9">
        <title>2026-04-23: 1 commits</title></circle><circle cx="1369.3" cy="485.5" r="3.0"
        fill="#ff8c42" stroke="#ffd0a0" stroke-width="1" filter="url(#glowOrange)" opacity="0.9">
        <title>2026-04-24: 1 commits</title></circle><circle cx="1397.9" cy="485.5" r="3.0"
        fill="#ff8c42" stroke="#ffd0a0" stroke-width="1" filter="url(#glowOrange)" opacity="0.9">
        <title>2026-04-25: 1 commits</title></circle><circle cx="1426.4" cy="485.5" r="3.0"
        fill="#ff8c42" stroke="#ffd0a0" stroke-width="1" filter="url(#glowOrange)" opacity="0.9">
        <title>2026-04-26: 1 commits</title></circle><circle cx="1454.9" cy="485.5" r="3.0"
        fill="#ff8c42" stroke="#ffd0a0" stroke-width="1" filter="url(#glowOrange)" opacity="0.9">
        <title>2026-04-27: 1 commits</title></circle><circle cx="1483.4" cy="485.5" r="3.0"
        fill="#ff8c42" stroke="#ffd0a0" stroke-width="1" filter="url(#glowOrange)" opacity="0.9">
        <title>2026-04-28: 1 commits</title></circle><circle cx="1511.9" cy="485.5" r="3.0"
        fill="#ff8c42" stroke="#ffd0a0" stroke-width="1" filter="url(#glowOrange)" opacity="0.9">
        <title>2026-04-29: 1 commits</title></circle><circle cx="1540.4" cy="485.5" r="3.0"
        fill="#ff8c42" stroke="#ffd0a0" stroke-width="1" filter="url(#glowOrange)" opacity="0.9">
        <title>2026-04-30: 1 commits</title></circle><circle cx="1569.0" cy="463.0" r="3.2"
        fill="#ff8c42" stroke="#ffd0a0" stroke-width="1" filter="url(#glowOrange)" opacity="0.9">
        <title>2026-05-01: 6 commits</title></circle><circle cx="1597.5" cy="485.5" r="3.0"
        fill="#ff8c42" stroke="#ffd0a0" stroke-width="1" filter="url(#glowOrange)" opacity="0.9">
        <title>2026-05-02: 1 commits</title></circle><circle cx="1626.0" cy="328.0" r="4.1"
        fill="#ff8c42" stroke="#ffd0a0" stroke-width="1" filter="url(#glowOrange)" opacity="0.9">
        <title>2026-05-03: 36 commits</title></circle>
  <circle cx="86.0" cy="489.9" r="3.5"
        fill="#00d4f5" stroke="#80eeff" stroke-width="0.8" filter="url(#glowCyan)" opacity="0.85">
        <title>2026-03-10: 1 changes/commit</title></circle><circle cx="285.6" cy="489.7" r="3.5"
        fill="#00d4f5" stroke="#80eeff" stroke-width="0.8" filter="url(#glowCyan)" opacity="0.85">
        <title>2026-03-17: 4 changes/commit</title></circle><circle cx="371.2" cy="489.8" r="3.5"
        fill="#00d4f5" stroke="#80eeff" stroke-width="0.8" filter="url(#glowCyan)" opacity="0.85">
        <title>2026-03-20: 3 changes/commit</title></circle><circle cx="428.2" cy="488.4" r="3.5"
        fill="#00d4f5" stroke="#80eeff" stroke-width="0.8" filter="url(#glowCyan)" opacity="0.85">
        <title>2026-03-22: 22 changes/commit</title></circle><circle cx="485.3" cy="181.9" r="3.5"
        fill="#00d4f5" stroke="#80eeff" stroke-width="0.8" filter="url(#glowCyan)" opacity="0.85">
        <title>2026-03-24: 4279 changes/commit</title></circle><circle cx="513.8" cy="488.9" r="3.5"
        fill="#00d4f5" stroke="#80eeff" stroke-width="0.8" filter="url(#glowCyan)" opacity="0.85">
        <title>2026-03-25: 15 changes/commit</title></circle><circle cx="542.3" cy="486.3" r="3.5"
        fill="#00d4f5" stroke="#80eeff" stroke-width="0.8" filter="url(#glowCyan)" opacity="0.85">
        <title>2026-03-26: 52 changes/commit</title></circle><circle cx="570.8" cy="486.3" r="3.5"
        fill="#00d4f5" stroke="#80eeff" stroke-width="0.8" filter="url(#glowCyan)" opacity="0.85">
        <title>2026-03-27: 52 changes/commit</title></circle><circle cx="599.3" cy="407.9" r="3.5"
        fill="#00d4f5" stroke="#80eeff" stroke-width="0.8" filter="url(#glowCyan)" opacity="0.85">
        <title>2026-03-28: 1140 changes/commit</title></circle><circle cx="627.9" cy="472.6" r="3.5"
        fill="#00d4f5" stroke="#80eeff" stroke-width="0.8" filter="url(#glowCyan)" opacity="0.85">
        <title>2026-03-29: 241 changes/commit</title></circle><circle cx="656.4" cy="475.5" r="3.5"
        fill="#00d4f5" stroke="#80eeff" stroke-width="0.8" filter="url(#glowCyan)" opacity="0.85">
        <title>2026-03-30: 201 changes/commit</title></circle><circle cx="684.9" cy="481.3" r="3.5"
        fill="#00d4f5" stroke="#80eeff" stroke-width="0.8" filter="url(#glowCyan)" opacity="0.85">
        <title>2026-03-31: 121 changes/commit</title></circle><circle cx="713.4" cy="480.1" r="3.5"
        fill="#00d4f5" stroke="#80eeff" stroke-width="0.8" filter="url(#glowCyan)" opacity="0.85">
        <title>2026-04-01: 138 changes/commit</title></circle><circle cx="741.9" cy="480.6" r="3.5"
        fill="#00d4f5" stroke="#80eeff" stroke-width="0.8" filter="url(#glowCyan)" opacity="0.85">
        <title>2026-04-02: 130 changes/commit</title></circle><circle cx="770.4" cy="484.4" r="3.5"
        fill="#00d4f5" stroke="#80eeff" stroke-width="0.8" filter="url(#glowCyan)" opacity="0.85">
        <title>2026-04-03: 78 changes/commit</title></circle><circle cx="799.0" cy="478.0" r="3.5"
        fill="#00d4f5" stroke="#80eeff" stroke-width="0.8" filter="url(#glowCyan)" opacity="0.85">
        <title>2026-04-04: 166 changes/commit</title></circle><circle cx="827.5" cy="483.8" r="3.5"
        fill="#00d4f5" stroke="#80eeff" stroke-width="0.8" filter="url(#glowCyan)" opacity="0.85">
        <title>2026-04-05: 86 changes/commit</title></circle><circle cx="856.0" cy="474.7" r="3.5"
        fill="#00d4f5" stroke="#80eeff" stroke-width="0.8" filter="url(#glowCyan)" opacity="0.85">
        <title>2026-04-06: 212 changes/commit</title></circle><circle cx="884.5" cy="485.7" r="3.5"
        fill="#00d4f5" stroke="#80eeff" stroke-width="0.8" filter="url(#glowCyan)" opacity="0.85">
        <title>2026-04-07: 60 changes/commit</title></circle><circle cx="913.0" cy="484.7" r="3.5"
        fill="#00d4f5" stroke="#80eeff" stroke-width="0.8" filter="url(#glowCyan)" opacity="0.85">
        <title>2026-04-08: 74 changes/commit</title></circle><circle cx="941.6" cy="474.0" r="3.5"
        fill="#00d4f5" stroke="#80eeff" stroke-width="0.8" filter="url(#glowCyan)" opacity="0.85">
        <title>2026-04-09: 222 changes/commit</title></circle><circle cx="970.1" cy="473.0" r="3.5"
        fill="#00d4f5" stroke="#80eeff" stroke-width="0.8" filter="url(#glowCyan)" opacity="0.85">
        <title>2026-04-10: 236 changes/commit</title></circle><circle cx="998.6" cy="473.0" r="3.5"
        fill="#00d4f5" stroke="#80eeff" stroke-width="0.8" filter="url(#glowCyan)" opacity="0.85">
        <title>2026-04-11: 236 changes/commit</title></circle><circle cx="1027.1" cy="470.5" r="3.5"
        fill="#00d4f5" stroke="#80eeff" stroke-width="0.8" filter="url(#glowCyan)" opacity="0.85">
        <title>2026-04-12: 271 changes/commit</title></circle><circle cx="1055.6" cy="484.2" r="3.5"
        fill="#00d4f5" stroke="#80eeff" stroke-width="0.8" filter="url(#glowCyan)" opacity="0.85">
        <title>2026-04-13: 80 changes/commit</title></circle><circle cx="1084.1" cy="464.7" r="3.5"
        fill="#00d4f5" stroke="#80eeff" stroke-width="0.8" filter="url(#glowCyan)" opacity="0.85">
        <title>2026-04-14: 351 changes/commit</title></circle><circle cx="1112.7" cy="471.7" r="3.5"
        fill="#00d4f5" stroke="#80eeff" stroke-width="0.8" filter="url(#glowCyan)" opacity="0.85">
        <title>2026-04-15: 254 changes/commit</title></circle><circle cx="1141.2" cy="471.6" r="3.5"
        fill="#00d4f5" stroke="#80eeff" stroke-width="0.8" filter="url(#glowCyan)" opacity="0.85">
        <title>2026-04-16: 256 changes/commit</title></circle><circle cx="1169.7" cy="471.6" r="3.5"
        fill="#00d4f5" stroke="#80eeff" stroke-width="0.8" filter="url(#glowCyan)" opacity="0.85">
        <title>2026-04-17: 256 changes/commit</title></circle><circle cx="1198.2" cy="471.1" r="3.5"
        fill="#00d4f5" stroke="#80eeff" stroke-width="0.8" filter="url(#glowCyan)" opacity="0.85">
        <title>2026-04-18: 262 changes/commit</title></circle><circle cx="1226.7" cy="470.6" r="3.5"
        fill="#00d4f5" stroke="#80eeff" stroke-width="0.8" filter="url(#glowCyan)" opacity="0.85">
        <title>2026-04-19: 270 changes/commit</title></circle><circle cx="1255.3" cy="466.6" r="3.5"
        fill="#00d4f5" stroke="#80eeff" stroke-width="0.8" filter="url(#glowCyan)" opacity="0.85">
        <title>2026-04-20: 325 changes/commit</title></circle><circle cx="1283.8" cy="484.4" r="3.5"
        fill="#00d4f5" stroke="#80eeff" stroke-width="0.8" filter="url(#glowCyan)" opacity="0.85">
        <title>2026-04-21: 78 changes/commit</title></circle><circle cx="1312.3" cy="469.7" r="3.5"
        fill="#00d4f5" stroke="#80eeff" stroke-width="0.8" filter="url(#glowCyan)" opacity="0.85">
        <title>2026-04-22: 282 changes/commit</title></circle><circle cx="1340.8" cy="469.3" r="3.5"
        fill="#00d4f5" stroke="#80eeff" stroke-width="0.8" filter="url(#glowCyan)" opacity="0.85">
        <title>2026-04-23: 288 changes/commit</title></circle><circle cx="1369.3" cy="468.5" r="3.5"
        fill="#00d4f5" stroke="#80eeff" stroke-width="0.8" filter="url(#glowCyan)" opacity="0.85">
        <title>2026-04-24: 298 changes/commit</title></circle><circle cx="1397.9" cy="468.1" r="3.5"
        fill="#00d4f5" stroke="#80eeff" stroke-width="0.8" filter="url(#glowCyan)" opacity="0.85">
        <title>2026-04-25: 304 changes/commit</title></circle><circle cx="1426.4" cy="468.3" r="3.5"
        fill="#00d4f5" stroke="#80eeff" stroke-width="0.8" filter="url(#glowCyan)" opacity="0.85">
        <title>2026-04-26: 302 changes/commit</title></circle><circle cx="1454.9" cy="467.7" r="3.5"
        fill="#00d4f5" stroke="#80eeff" stroke-width="0.8" filter="url(#glowCyan)" opacity="0.85">
        <title>2026-04-27: 310 changes/commit</title></circle><circle cx="1483.4" cy="458.0" r="3.5"
        fill="#00d4f5" stroke="#80eeff" stroke-width="0.8" filter="url(#glowCyan)" opacity="0.85">
        <title>2026-04-28: 445 changes/commit</title></circle><circle cx="1511.9" cy="467.8" r="3.5"
        fill="#00d4f5" stroke="#80eeff" stroke-width="0.8" filter="url(#glowCyan)" opacity="0.85">
        <title>2026-04-29: 308 changes/commit</title></circle><circle cx="1540.4" cy="447.7" r="3.5"
        fill="#00d4f5" stroke="#80eeff" stroke-width="0.8" filter="url(#glowCyan)" opacity="0.85">
        <title>2026-04-30: 588 changes/commit</title></circle><circle cx="1569.0" cy="394.2" r="3.5"
        fill="#00d4f5" stroke="#80eeff" stroke-width="0.8" filter="url(#glowCyan)" opacity="0.85">
        <title>2026-05-01: 1330 changes/commit</title></circle><circle cx="1597.5" cy="484.2" r="3.5"
        fill="#00d4f5" stroke="#80eeff" stroke-width="0.8" filter="url(#glowCyan)" opacity="0.85">
        <title>2026-05-02: 80 changes/commit</title></circle><circle cx="1626.0" cy="467.2" r="3.5"
        fill="#00d4f5" stroke="#80eeff" stroke-width="0.8" filter="url(#glowCyan)" opacity="0.85">
        <title>2026-05-03: 317 changes/commit</title></circle>
</g>

<!-- ════ ANNOTATIONS ════ -->

        <line x1="599.3" y1="181.0"
          x2="599.3" y2="172.0"
          stroke="#2563eb" stroke-width="1.2" stroke-dasharray="4,4" opacity="0.65"/>
        <rect x="534.3" y="148.0"
          width="130" height="24" rx="6"
          fill="#030e26" stroke="#2563eb" stroke-width="1" opacity="0.96"/>
        <text x="599.3" y="164.0"
          font-size="10" fill="#93c5fd" text-anchor="middle"
          font-family="'Lexend','Segoe UI',sans-serif" font-weight="400"
          letter-spacing="0.5">⬡  Peak · 66 commits</text>
        <line x1="485.3" y1="494" x2="1626.0" y2="494"
          stroke="#f472b6" stroke-width="2.5" stroke-linecap="round" opacity="0.7"/>
        <circle cx="485.3" cy="494" r="3" fill="#f472b6" opacity="0.9"/>
        <circle cx="1626.0" cy="494" r="3" fill="#f472b6" opacity="0.9"/>
        <text x="1055.6" y="508" font-size="8.5" fill="#f472b6"
          text-anchor="middle" font-family="'Lexend','Segoe UI',sans-serif"
          font-weight="400" opacity="0.85">🔥 41-day streak</text>
        <line x1="485.3" y1="130" x2="485.3" y2="490"
          stroke="#f472b6" stroke-width="0.8" stroke-dasharray="3,6" opacity="0.35"/>

<!-- ════ CORNER BRACKETS ════ -->
<path d="M 86 152.0 L 86 130 L 108.0 130"
      fill="none" stroke="#4a90e2" stroke-width="2" stroke-opacity="0.85" stroke-linecap="round"/><path d="M 1626 152.0 L 1626 130 L 1604.0 130"
      fill="none" stroke="#4a90e2" stroke-width="2" stroke-opacity="0.85" stroke-linecap="round"/><path d="M 86 468.0 L 86 490 L 108.0 490"
      fill="none" stroke="#4a90e2" stroke-width="2" stroke-opacity="0.85" stroke-linecap="round"/><path d="M 1626 468.0 L 1626 490 L 1604.0 490"
      fill="none" stroke="#4a90e2" stroke-width="2" stroke-opacity="0.85" stroke-linecap="round"/>

<!-- ════ HEATMAP ════ -->
<text x="852" y="646" font-size="11" fill="#3d7ed4"
    text-anchor="middle" font-family="'Lexend','Segoe UI',sans-serif"
    letter-spacing="3" font-weight="400">CONTRIBUTION  CALENDAR</text><text x="794.5" y="686"
        font-size="9" fill="#3d7ed4" text-anchor="end"
        font-family="'Lexend','Segoe UI',sans-serif" font-weight="300">M</text><text x="794.5" y="716"
        font-size="9" fill="#3d7ed4" text-anchor="end"
        font-family="'Lexend','Segoe UI',sans-serif" font-weight="300">W</text><text x="794.5" y="746"
        font-size="9" fill="#3d7ed4" text-anchor="end"
        font-family="'Lexend','Segoe UI',sans-serif" font-weight="300">F</text><rect x="800.5" y="660.0"
        width="12" height="12" rx="2.5" fill="#0a1630"
        stroke="#0d2464" stroke-width="0.5" stroke-opacity="0.4">
        <title>2026-03-08: 0 commits</title></rect><rect x="800.5" y="675.0"
        width="12" height="12" rx="2.5" fill="#0a1630"
        stroke="#0d2464" stroke-width="0.5" stroke-opacity="0.4">
        <title>2026-03-09: 0 commits</title></rect><rect x="800.5" y="690.0"
        width="12" height="12" rx="2.5" fill="#0d3068"
        stroke="#0d2464" stroke-width="0.5" stroke-opacity="0.4">
        <title>2026-03-10: 1 commits</title></rect><rect x="800.5" y="705.0"
        width="12" height="12" rx="2.5" fill="#0a1630"
        stroke="#0d2464" stroke-width="0.5" stroke-opacity="0.4">
        <title>2026-03-11: 0 commits</title></rect><rect x="800.5" y="720.0"
        width="12" height="12" rx="2.5" fill="#0a1630"
        stroke="#0d2464" stroke-width="0.5" stroke-opacity="0.4">
        <title>2026-03-12: 0 commits</title></rect><rect x="800.5" y="735.0"
        width="12" height="12" rx="2.5" fill="#0a1630"
        stroke="#0d2464" stroke-width="0.5" stroke-opacity="0.4">
        <title>2026-03-13: 0 commits</title></rect><rect x="800.5" y="750.0"
        width="12" height="12" rx="2.5" fill="#0a1630"
        stroke="#0d2464" stroke-width="0.5" stroke-opacity="0.4">
        <title>2026-03-14: 0 commits</title></rect><rect x="815.5" y="660.0"
        width="12" height="12" rx="2.5" fill="#0a1630"
        stroke="#0d2464" stroke-width="0.5" stroke-opacity="0.4">
        <title>2026-03-15: 0 commits</title></rect><rect x="815.5" y="675.0"
        width="12" height="12" rx="2.5" fill="#0a1630"
        stroke="#0d2464" stroke-width="0.5" stroke-opacity="0.4">
        <title>2026-03-16: 0 commits</title></rect><rect x="815.5" y="690.0"
        width="12" height="12" rx="2.5" fill="#0d3068"
        stroke="#0d2464" stroke-width="0.5" stroke-opacity="0.4">
        <title>2026-03-17: 10 commits</title></rect><rect x="815.5" y="705.0"
        width="12" height="12" rx="2.5" fill="#0a1630"
        stroke="#0d2464" stroke-width="0.5" stroke-opacity="0.4">
        <title>2026-03-18: 0 commits</title></rect><rect x="815.5" y="720.0"
        width="12" height="12" rx="2.5" fill="#0a1630"
        stroke="#0d2464" stroke-width="0.5" stroke-opacity="0.4">
        <title>2026-03-19: 0 commits</title></rect><rect x="815.5" y="735.0"
        width="12" height="12" rx="2.5" fill="#1e56a8"
        stroke="#0d2464" stroke-width="0.5" stroke-opacity="0.4">
        <title>2026-03-20: 26 commits</title></rect><rect x="815.5" y="750.0"
        width="12" height="12" rx="2.5" fill="#0a1630"
        stroke="#0d2464" stroke-width="0.5" stroke-opacity="0.4">
        <title>2026-03-21: 0 commits</title></rect><rect x="830.5" y="660.0"
        width="12" height="12" rx="2.5" fill="#0d3068"
        stroke="#0d2464" stroke-width="0.5" stroke-opacity="0.4">
        <title>2026-03-22: 1 commits</title></rect><rect x="830.5" y="675.0"
        width="12" height="12" rx="2.5" fill="#0a1630"
        stroke="#0d2464" stroke-width="0.5" stroke-opacity="0.4">
        <title>2026-03-23: 0 commits</title></rect><rect x="830.5" y="690.0"
        width="12" height="12" rx="2.5" fill="#1e56a8"
        stroke="#0d2464" stroke-width="0.5" stroke-opacity="0.4">
        <title>2026-03-24: 32 commits</title></rect><rect x="830.5" y="705.0"
        width="12" height="12" rx="2.5" fill="#0d3068"
        stroke="#0d2464" stroke-width="0.5" stroke-opacity="0.4">
        <title>2026-03-25: 7 commits</title></rect><rect x="830.5" y="720.0"
        width="12" height="12" rx="2.5" fill="#0d3068"
        stroke="#0d2464" stroke-width="0.5" stroke-opacity="0.4">
        <title>2026-03-26: 3 commits</title></rect><rect x="830.5" y="735.0"
        width="12" height="12" rx="2.5" fill="#0d3068"
        stroke="#0d2464" stroke-width="0.5" stroke-opacity="0.4">
        <title>2026-03-27: 1 commits</title></rect><rect x="830.5" y="750.0"
        width="12" height="12" rx="2.5" fill="#93c5fd"
        stroke="#0d2464" stroke-width="0.5" stroke-opacity="0.4">
        <title>2026-03-28: 66 commits</title></rect><rect x="845.5" y="660.0"
        width="12" height="12" rx="2.5" fill="#3b82f6"
        stroke="#0d2464" stroke-width="0.5" stroke-opacity="0.4">
        <title>2026-03-29: 44 commits</title></rect><rect x="845.5" y="675.0"
        width="12" height="12" rx="2.5" fill="#0d3068"
        stroke="#0d2464" stroke-width="0.5" stroke-opacity="0.4">
        <title>2026-03-30: 2 commits</title></rect><rect x="845.5" y="690.0"
        width="12" height="12" rx="2.5" fill="#0d3068"
        stroke="#0d2464" stroke-width="0.5" stroke-opacity="0.4">
        <title>2026-03-31: 16 commits</title></rect><rect x="845.5" y="705.0"
        width="12" height="12" rx="2.5" fill="#0d3068"
        stroke="#0d2464" stroke-width="0.5" stroke-opacity="0.4">
        <title>2026-04-01: 14 commits</title></rect><rect x="845.5" y="720.0"
        width="12" height="12" rx="2.5" fill="#0d3068"
        stroke="#0d2464" stroke-width="0.5" stroke-opacity="0.4">
        <title>2026-04-02: 2 commits</title></rect><rect x="845.5" y="735.0"
        width="12" height="12" rx="2.5" fill="#1e56a8"
        stroke="#0d2464" stroke-width="0.5" stroke-opacity="0.4">
        <title>2026-04-03: 24 commits</title></rect><rect x="845.5" y="750.0"
        width="12" height="12" rx="2.5" fill="#1e56a8"
        stroke="#0d2464" stroke-width="0.5" stroke-opacity="0.4">
        <title>2026-04-04: 18 commits</title></rect><text x="845.5" y="656" font-size="8.5" fill="#3d7ed4"
        font-family="'Lexend','Segoe UI',sans-serif" font-weight="300">Apr</text><rect x="860.5" y="660.0"
        width="12" height="12" rx="2.5" fill="#0d3068"
        stroke="#0d2464" stroke-width="0.5" stroke-opacity="0.4">
        <title>2026-04-05: 1 commits</title></rect><rect x="860.5" y="675.0"
        width="12" height="12" rx="2.5" fill="#0d3068"
        stroke="#0d2464" stroke-width="0.5" stroke-opacity="0.4">
        <title>2026-04-06: 1 commits</title></rect><rect x="860.5" y="690.0"
        width="12" height="12" rx="2.5" fill="#0d3068"
        stroke="#0d2464" stroke-width="0.5" stroke-opacity="0.4">
        <title>2026-04-07: 9 commits</title></rect><rect x="860.5" y="705.0"
        width="12" height="12" rx="2.5" fill="#0d3068"
        stroke="#0d2464" stroke-width="0.5" stroke-opacity="0.4">
        <title>2026-04-08: 1 commits</title></rect><rect x="860.5" y="720.0"
        width="12" height="12" rx="2.5" fill="#0d3068"
        stroke="#0d2464" stroke-width="0.5" stroke-opacity="0.4">
        <title>2026-04-09: 1 commits</title></rect><rect x="860.5" y="735.0"
        width="12" height="12" rx="2.5" fill="#0d3068"
        stroke="#0d2464" stroke-width="0.5" stroke-opacity="0.4">
        <title>2026-04-10: 1 commits</title></rect><rect x="860.5" y="750.0"
        width="12" height="12" rx="2.5" fill="#0d3068"
        stroke="#0d2464" stroke-width="0.5" stroke-opacity="0.4">
        <title>2026-04-11: 1 commits</title></rect><rect x="875.5" y="660.0"
        width="12" height="12" rx="2.5" fill="#0d3068"
        stroke="#0d2464" stroke-width="0.5" stroke-opacity="0.4">
        <title>2026-04-12: 4 commits</title></rect><rect x="875.5" y="675.0"
        width="12" height="12" rx="2.5" fill="#0d3068"
        stroke="#0d2464" stroke-width="0.5" stroke-opacity="0.4">
        <title>2026-04-13: 1 commits</title></rect><rect x="875.5" y="690.0"
        width="12" height="12" rx="2.5" fill="#0d3068"
        stroke="#0d2464" stroke-width="0.5" stroke-opacity="0.4">
        <title>2026-04-14: 1 commits</title></rect><rect x="875.5" y="705.0"
        width="12" height="12" rx="2.5" fill="#0d3068"
        stroke="#0d2464" stroke-width="0.5" stroke-opacity="0.4">
        <title>2026-04-15: 1 commits</title></rect><rect x="875.5" y="720.0"
        width="12" height="12" rx="2.5" fill="#0d3068"
        stroke="#0d2464" stroke-width="0.5" stroke-opacity="0.4">
        <title>2026-04-16: 1 commits</title></rect><rect x="875.5" y="735.0"
        width="12" height="12" rx="2.5" fill="#0d3068"
        stroke="#0d2464" stroke-width="0.5" stroke-opacity="0.4">
        <title>2026-04-17: 1 commits</title></rect><rect x="875.5" y="750.0"
        width="12" height="12" rx="2.5" fill="#0d3068"
        stroke="#0d2464" stroke-width="0.5" stroke-opacity="0.4">
        <title>2026-04-18: 1 commits</title></rect><rect x="890.5" y="660.0"
        width="12" height="12" rx="2.5" fill="#0d3068"
        stroke="#0d2464" stroke-width="0.5" stroke-opacity="0.4">
        <title>2026-04-19: 1 commits</title></rect><rect x="890.5" y="675.0"
        width="12" height="12" rx="2.5" fill="#0d3068"
        stroke="#0d2464" stroke-width="0.5" stroke-opacity="0.4">
        <title>2026-04-20: 3 commits</title></rect><rect x="890.5" y="690.0"
        width="12" height="12" rx="2.5" fill="#0d3068"
        stroke="#0d2464" stroke-width="0.5" stroke-opacity="0.4">
        <title>2026-04-21: 1 commits</title></rect><rect x="890.5" y="705.0"
        width="12" height="12" rx="2.5" fill="#0d3068"
        stroke="#0d2464" stroke-width="0.5" stroke-opacity="0.4">
        <title>2026-04-22: 1 commits</title></rect><rect x="890.5" y="720.0"
        width="12" height="12" rx="2.5" fill="#0d3068"
        stroke="#0d2464" stroke-width="0.5" stroke-opacity="0.4">
        <title>2026-04-23: 1 commits</title></rect><rect x="890.5" y="735.0"
        width="12" height="12" rx="2.5" fill="#0d3068"
        stroke="#0d2464" stroke-width="0.5" stroke-opacity="0.4">
        <title>2026-04-24: 1 commits</title></rect><rect x="890.5" y="750.0"
        width="12" height="12" rx="2.5" fill="#0d3068"
        stroke="#0d2464" stroke-width="0.5" stroke-opacity="0.4">
        <title>2026-04-25: 1 commits</title></rect><rect x="905.5" y="660.0"
        width="12" height="12" rx="2.5" fill="#0d3068"
        stroke="#0d2464" stroke-width="0.5" stroke-opacity="0.4">
        <title>2026-04-26: 1 commits</title></rect><rect x="905.5" y="675.0"
        width="12" height="12" rx="2.5" fill="#0d3068"
        stroke="#0d2464" stroke-width="0.5" stroke-opacity="0.4">
        <title>2026-04-27: 1 commits</title></rect><rect x="905.5" y="690.0"
        width="12" height="12" rx="2.5" fill="#0d3068"
        stroke="#0d2464" stroke-width="0.5" stroke-opacity="0.4">
        <title>2026-04-28: 1 commits</title></rect><rect x="905.5" y="705.0"
        width="12" height="12" rx="2.5" fill="#0d3068"
        stroke="#0d2464" stroke-width="0.5" stroke-opacity="0.4">
        <title>2026-04-29: 1 commits</title></rect><rect x="905.5" y="720.0"
        width="12" height="12" rx="2.5" fill="#0d3068"
        stroke="#0d2464" stroke-width="0.5" stroke-opacity="0.4">
        <title>2026-04-30: 1 commits</title></rect><rect x="905.5" y="735.0"
        width="12" height="12" rx="2.5" fill="#0d3068"
        stroke="#0d2464" stroke-width="0.5" stroke-opacity="0.4">
        <title>2026-05-01: 6 commits</title></rect><rect x="905.5" y="750.0"
        width="12" height="12" rx="2.5" fill="#0d3068"
        stroke="#0d2464" stroke-width="0.5" stroke-opacity="0.4">
        <title>2026-05-02: 1 commits</title></rect><text x="905.5" y="656" font-size="8.5" fill="#3d7ed4"
        font-family="'Lexend','Segoe UI',sans-serif" font-weight="300">May</text><rect x="920.5" y="660.0"
        width="12" height="12" rx="2.5" fill="#3b82f6"
        stroke="#0d2464" stroke-width="0.5" stroke-opacity="0.4">
        <title>2026-05-03: 36 commits</title></rect><rect x="920.5" y="675.0"
        width="12" height="12" rx="2.5" fill="#0a1630"
        stroke="#0d2464" stroke-width="0.5" stroke-opacity="0.4">
        <title>2026-05-04: 0 commits</title></rect><rect x="920.5" y="690.0"
        width="12" height="12" rx="2.5" fill="#0a1630"
        stroke="#0d2464" stroke-width="0.5" stroke-opacity="0.4">
        <title>2026-05-05: 0 commits</title></rect><rect x="920.5" y="705.0"
        width="12" height="12" rx="2.5" fill="#0a1630"
        stroke="#0d2464" stroke-width="0.5" stroke-opacity="0.4">
        <title>2026-05-06: 0 commits</title></rect><rect x="920.5" y="720.0"
        width="12" height="12" rx="2.5" fill="#0a1630"
        stroke="#0d2464" stroke-width="0.5" stroke-opacity="0.4">
        <title>2026-05-07: 0 commits</title></rect><rect x="920.5" y="735.0"
        width="12" height="12" rx="2.5" fill="#0a1630"
        stroke="#0d2464" stroke-width="0.5" stroke-opacity="0.4">
        <title>2026-05-08: 0 commits</title></rect><rect x="920.5" y="750.0"
        width="12" height="12" rx="2.5" fill="#0a1630"
        stroke="#0d2464" stroke-width="0.5" stroke-opacity="0.4">
        <title>2026-05-09: 0 commits</title></rect>

<!-- ════ BOTTOM PANELS ════ -->

    <rect x="86" y="823" width="320" height="110"
      rx="4" fill="#030e26" fill-opacity="0.6" stroke="#1a3f7a" stroke-width="0.8"/>
    <text x="246" y="819" font-size="8" fill="#3d7ed4"
      text-anchor="middle" font-family="'Lexend','Segoe UI',sans-serif"
      letter-spacing="2" font-weight="300">OVERVIEW</text>
    <g clip-path="url(#minimapClip)">
      <path d="M 86.00 931.58 C 86.99 931.82, 89.95 932.76, 91.93 933.00 C 93.90 933.24, 95.88 933.00, 97.85 933.00 C 99.83 933.00, 101.80 933.00, 103.78 933.00 C 105.75 933.00, 107.73 933.00, 109.70 933.00 C 111.68 933.00, 113.65 933.00, 115.63 933.00 C 117.60 933.00, 119.58 935.36, 121.56 933.00 C 123.53 930.64, 125.51 918.83, 127.48 918.83 C 129.46 918.83, 131.43 930.64, 133.41 933.00 C 135.38 935.36, 137.36 939.14, 139.33 933.00 C 141.31 926.86, 143.28 896.17, 145.26 896.17 C 147.23 896.17, 149.21 927.10, 151.19 933.00 C 153.16 938.90, 155.14 931.58, 157.11 931.58 C 159.09 931.58, 161.06 940.32, 163.04 933.00 C 165.01 925.68, 166.99 889.32, 168.96 887.67 C 170.94 886.01, 172.91 916.24, 174.89 923.08 C 176.86 929.93, 178.84 927.33, 180.81 928.75 C 182.79 930.17, 184.77 946.46, 186.74 931.58 C 188.72 916.71, 190.69 849.65, 192.67 839.50 C 194.64 829.35, 196.62 855.56, 198.59 870.67 C 200.57 885.78, 202.54 923.56, 204.52 930.17 C 206.49 936.78, 208.47 913.17, 210.44 910.33 C 212.42 907.50, 214.40 909.86, 216.37 913.17 C 218.35 916.47, 220.32 932.53, 222.30 930.17 C 224.27 927.81, 226.25 902.78, 228.22 899.00 C 230.20 895.22, 232.17 902.07, 234.15 907.50 C 236.12 912.93, 238.10 927.57, 240.07 931.58 C 242.05 935.60, 244.02 933.47, 246.00 931.58 C 247.98 929.69, 249.95 920.25, 251.93 920.25 C 253.90 920.25, 255.88 929.69, 257.85 931.58 C 259.83 933.47, 261.80 931.58, 263.78 931.58 C 265.75 931.58, 267.73 931.58, 269.70 931.58 C 271.68 931.58, 273.65 932.29, 275.63 931.58 C 277.60 930.88, 279.58 927.33, 281.56 927.33 C 283.53 927.33, 285.51 930.88, 287.48 931.58 C 289.46 932.29, 291.43 931.58, 293.41 931.58 C 295.38 931.58, 297.36 931.58, 299.33 931.58 C 301.31 931.58, 303.28 931.58, 305.26 931.58 C 307.23 931.58, 309.21 931.58, 311.19 931.58 C 313.16 931.58, 315.14 931.58, 317.11 931.58 C 319.09 931.58, 321.06 932.06, 323.04 931.58 C 325.01 931.11, 326.99 928.75, 328.96 928.75 C 330.94 928.75, 332.91 931.11, 334.89 931.58 C 336.86 932.06, 338.84 931.58, 340.81 931.58 C 342.79 931.58, 344.77 931.58, 346.74 931.58 C 348.72 931.58, 350.69 931.58, 352.67 931.58 C 354.64 931.58, 356.62 931.58, 358.59 931.58 C 360.57 931.58, 362.54 931.58, 364.52 931.58 C 366.49 931.58, 368.47 931.58, 370.44 931.58 C 372.42 931.58, 374.40 931.58, 376.37 931.58 C 378.35 931.58, 380.32 931.58, 382.30 931.58 C 384.27 931.58, 386.25 932.76, 388.22 931.58 C 390.20 930.40, 392.17 924.50, 394.15 924.50 C 396.12 924.50, 398.10 938.67, 400.07 931.58 C 402.05 924.50, 405.01 890.26, 406.00 882.00 L 406.00 933 L 86.00 933 Z" fill="#4a90e2" fill-opacity="0.15"/>
      <path d="M 86.00 931.58 C 86.99 931.82, 89.95 932.76, 91.93 933.00 C 93.90 933.24, 95.88 933.00, 97.85 933.00 C 99.83 933.00, 101.80 933.00, 103.78 933.00 C 105.75 933.00, 107.73 933.00, 109.70 933.00 C 111.68 933.00, 113.65 933.00, 115.63 933.00 C 117.60 933.00, 119.58 935.36, 121.56 933.00 C 123.53 930.64, 125.51 918.83, 127.48 918.83 C 129.46 918.83, 131.43 930.64, 133.41 933.00 C 135.38 935.36, 137.36 939.14, 139.33 933.00 C 141.31 926.86, 143.28 896.17, 145.26 896.17 C 147.23 896.17, 149.21 927.10, 151.19 933.00 C 153.16 938.90, 155.14 931.58, 157.11 931.58 C 159.09 931.58, 161.06 940.32, 163.04 933.00 C 165.01 925.68, 166.99 889.32, 168.96 887.67 C 170.94 886.01, 172.91 916.24, 174.89 923.08 C 176.86 929.93, 178.84 927.33, 180.81 928.75 C 182.79 930.17, 184.77 946.46, 186.74 931.58 C 188.72 916.71, 190.69 849.65, 192.67 839.50 C 194.64 829.35, 196.62 855.56, 198.59 870.67 C 200.57 885.78, 202.54 923.56, 204.52 930.17 C 206.49 936.78, 208.47 913.17, 210.44 910.33 C 212.42 907.50, 214.40 909.86, 216.37 913.17 C 218.35 916.47, 220.32 932.53, 222.30 930.17 C 224.27 927.81, 226.25 902.78, 228.22 899.00 C 230.20 895.22, 232.17 902.07, 234.15 907.50 C 236.12 912.93, 238.10 927.57, 240.07 931.58 C 242.05 935.60, 244.02 933.47, 246.00 931.58 C 247.98 929.69, 249.95 920.25, 251.93 920.25 C 253.90 920.25, 255.88 929.69, 257.85 931.58 C 259.83 933.47, 261.80 931.58, 263.78 931.58 C 265.75 931.58, 267.73 931.58, 269.70 931.58 C 271.68 931.58, 273.65 932.29, 275.63 931.58 C 277.60 930.88, 279.58 927.33, 281.56 927.33 C 283.53 927.33, 285.51 930.88, 287.48 931.58 C 289.46 932.29, 291.43 931.58, 293.41 931.58 C 295.38 931.58, 297.36 931.58, 299.33 931.58 C 301.31 931.58, 303.28 931.58, 305.26 931.58 C 307.23 931.58, 309.21 931.58, 311.19 931.58 C 313.16 931.58, 315.14 931.58, 317.11 931.58 C 319.09 931.58, 321.06 932.06, 323.04 931.58 C 325.01 931.11, 326.99 928.75, 328.96 928.75 C 330.94 928.75, 332.91 931.11, 334.89 931.58 C 336.86 932.06, 338.84 931.58, 340.81 931.58 C 342.79 931.58, 344.77 931.58, 346.74 931.58 C 348.72 931.58, 350.69 931.58, 352.67 931.58 C 354.64 931.58, 356.62 931.58, 358.59 931.58 C 360.57 931.58, 362.54 931.58, 364.52 931.58 C 366.49 931.58, 368.47 931.58, 370.44 931.58 C 372.42 931.58, 374.40 931.58, 376.37 931.58 C 378.35 931.58, 380.32 931.58, 382.30 931.58 C 384.27 931.58, 386.25 932.76, 388.22 931.58 C 390.20 930.40, 392.17 924.50, 394.15 924.50 C 396.12 924.50, 398.10 938.67, 400.07 931.58 C 402.05 924.50, 405.01 890.26, 406.00 882.00" fill="none" stroke="#4a90e2" stroke-width="1.5" stroke-opacity="0.7"/>
    </g>
    <clipPath id="minimapClip">
      <rect x="86" y="823" width="320" height="110" rx="4"/>
    </clipPath><path d="M 1486.00 854.90
      L 1486.00 836.00
      A 42 42 0 1 1 1444.05 880.08
      L 1462.93 879.14
      A 23.1 23.1 0 1 0 1486.00 854.90 Z"
      fill="#4a90e2" fill-opacity="0.8" stroke="#030e26" stroke-width="1.5">
      <title>Kieran Lucas: 259 commits (74%)</title></path><path d="M 1462.93 879.14
      L 1444.05 880.08
      A 42 42 0 0 1 1459.46 845.45
      L 1471.40 860.10
      A 23.1 23.1 0 0 0 1462.93 879.14 Z"
      fill="#ff8c42" fill-opacity="0.8" stroke="#030e26" stroke-width="1.5">
      <title>github-actions: 52 commits (15%)</title></path><path d="M 1471.40 860.10
      L 1459.46 845.45
      A 42 42 0 0 1 1474.07 837.73
      L 1479.44 855.85
      A 23.1 23.1 0 0 0 1471.40 860.10 Z"
      fill="#00d4f5" fill-opacity="0.8" stroke="#030e26" stroke-width="1.5">
      <title>HumaNormal: 22 commits (6%)</title></path><path d="M 1479.44 855.85
      L 1474.07 837.73
      A 42 42 0 0 1 1485.24 836.01
      L 1485.58 854.90
      A 23.1 23.1 0 0 0 1479.44 855.85 Z"
      fill="#22c55e" fill-opacity="0.8" stroke="#030e26" stroke-width="1.5">
      <title>stillqhuy: 15 commits (4%)</title></path><path d="M 1485.58 854.90
      L 1485.24 836.01
      A 42 42 0 0 1 1486.00 836.00
      L 1486.00 854.90
      A 23.1 23.1 0 0 0 1485.58 854.90 Z"
      fill="#ef4444" fill-opacity="0.8" stroke="#030e26" stroke-width="1.5">
      <title>Nguyễn Đinh Việt Đức: 1 commits (0%)</title></path><text x="1486" y="874" font-size="9" fill="#3d7ed4" text-anchor="middle"
    font-family="'Lexend','Segoe UI',sans-serif" letter-spacing="1.5" font-weight="300">AUTHORS</text><text x="1486" y="892" font-size="16" fill="#cce8ff" text-anchor="middle"
    font-family="'Lexend','Segoe UI',sans-serif" font-weight="600">5</text><rect x="1544" y="830" width="8" height="8" rx="2" fill="#4a90e2" opacity="0.85"/><text x="1558" y="838" font-size="9.5" fill="#3d7ed4"
      font-family="'Lexend','Segoe UI',sans-serif" font-weight="300">Kieran Lucas (259)</text><rect x="1544" y="848" width="8" height="8" rx="2" fill="#ff8c42" opacity="0.85"/><text x="1558" y="856" font-size="9.5" fill="#3d7ed4"
      font-family="'Lexend','Segoe UI',sans-serif" font-weight="300">github-actions (52)</text><rect x="1544" y="866" width="8" height="8" rx="2" fill="#00d4f5" opacity="0.85"/><text x="1558" y="874" font-size="9.5" fill="#3d7ed4"
      font-family="'Lexend','Segoe UI',sans-serif" font-weight="300">HumaNormal (22)</text><rect x="1544" y="884" width="8" height="8" rx="2" fill="#22c55e" opacity="0.85"/><text x="1558" y="892" font-size="9.5" fill="#3d7ed4"
      font-family="'Lexend','Segoe UI',sans-serif" font-weight="300">stillqhuy (15)</text><rect x="1544" y="902" width="8" height="8" rx="2" fill="#ef4444" opacity="0.85"/><text x="1558" y="910" font-size="9.5" fill="#3d7ed4"
      font-family="'Lexend','Segoe UI',sans-serif" font-weight="300">Nguyễn Đinh … (1)</text>

<!-- ════ WAVES ════ -->
<path d="M 0 963 Q 106.5 956.0 213.0 963 Q 319.5 956.0 426.0 963 Q 532.5 956.0 639.0 963 Q 745.5 956.0 852.0 963 Q 958.5 956.0 1065.0 963 Q 1171.5 956.0 1278.0 963 Q 1384.5 956.0 1491.0 963 Q 1597.5 956.0 1704.0 963" fill="none" stroke="#1948a0" stroke-width="1.2" stroke-opacity="0.35"/>
<path d="M 0 958 Q 106.5 952.5 213.0 958 Q 319.5 952.5 426.0 958 Q 532.5 952.5 639.0 958 Q 745.5 952.5 852.0 958 Q 958.5 952.5 1065.0 958 Q 1171.5 952.5 1278.0 958 Q 1384.5 952.5 1491.0 958 Q 1597.5 952.5 1704.0 958" fill="none" stroke="#1948a0" stroke-width="1" stroke-opacity="0.29"/>
<path d="M 0 953 Q 106.5 949.0 213.0 953 Q 319.5 949.0 426.0 953 Q 532.5 949.0 639.0 953 Q 745.5 949.0 852.0 953 Q 958.5 949.0 1065.0 953 Q 1171.5 949.0 1278.0 953 Q 1384.5 949.0 1491.0 953 Q 1597.5 949.0 1704.0 953" fill="none" stroke="#1948a0" stroke-width="0.7999999999999999" stroke-opacity="0.22999999999999998"/>
<path d="M 0 948 Q 106.5 945.5 213.0 948 Q 319.5 945.5 426.0 948 Q 532.5 945.5 639.0 948 Q 745.5 945.5 852.0 948 Q 958.5 945.5 1065.0 948 Q 1171.5 945.5 1278.0 948 Q 1384.5 945.5 1491.0 948 Q 1597.5 945.5 1704.0 948" fill="none" stroke="#1948a0" stroke-width="0.5999999999999999" stroke-opacity="0.16999999999999998"/>

</svg>