<svg width="1324" height="969" xmlns="http://www.w3.org/2000/svg" viewBox="0 0 1324 969">
<defs>
  <style>
    @import url('https://fonts.googleapis.com/css2?family=Lexend:wght@300;400;600;700&amp;display=swap');
    circle:hover { opacity: 1 !important; r: 6; }
    rect.bar-segment:hover { opacity: 1 !important; }
  </style>

  <linearGradient id="bg" x1="0%" y1="0%" x2="55%" y2="100%">
    <stop offset="0%"   stop-color="#010c1e"/>
    <stop offset="50%"  stop-color="#010f27"/>
    <stop offset="100%" stop-color="#000a18"/>
  </linearGradient>
  <linearGradient id="areaFill" x1="0%" y1="0%" x2="0%" y2="100%">
    <stop offset="0%"   stop-color="#4a90e2" stop-opacity="0.5"/>
    <stop offset="55%"  stop-color="#1a3f7a" stop-opacity="0.18"/>
    <stop offset="100%" stop-color="#000a18" stop-opacity="0"/>
  </linearGradient>
  <linearGradient id="gCommits" x1="0%" y1="0%" x2="100%" y2="0%">
    <stop offset="0%"   stop-color="#ff8c42"/>
    <stop offset="100%" stop-color="#ffd0a0"/>
  </linearGradient>
  <linearGradient id="gChanges" x1="0%" y1="0%" x2="100%" y2="0%">
    <stop offset="0%"   stop-color="#00d4f5" stop-opacity="0.8"/>
    <stop offset="50%"  stop-color="#00d4f5"/>
    <stop offset="100%" stop-color="#80eeff"/>
  </linearGradient>
  <linearGradient id="gBorder" x1="0%" y1="0%" x2="100%" y2="100%">
    <stop offset="0%"   stop-color="#1840a0" stop-opacity="0.9"/>
    <stop offset="50%"  stop-color="#3b82f6" stop-opacity="0.6"/>
    <stop offset="100%" stop-color="#60a5fa" stop-opacity="0.9"/>
  </linearGradient>
  <linearGradient id="gHeader" x1="0%" y1="0%" x2="100%" y2="0%">
    <stop offset="0%"   stop-color="#010c1e" stop-opacity="0"/>
    <stop offset="20%"  stop-color="#091c3e" stop-opacity="0.92"/>
    <stop offset="80%"  stop-color="#091c3e" stop-opacity="0.92"/>
    <stop offset="100%" stop-color="#010c1e" stop-opacity="0"/>
  </linearGradient>
  <linearGradient id="gAddBar" x1="0%" y1="0%" x2="0%" y2="100%">
    <stop offset="0%"   stop-color="#22c55e" stop-opacity="0.95"/>
    <stop offset="100%" stop-color="#22c55e" stop-opacity="0.65"/>
  </linearGradient>
  <linearGradient id="gDelBar" x1="0%" y1="0%" x2="0%" y2="100%">
    <stop offset="0%"   stop-color="#ef4444" stop-opacity="0.9"/>
    <stop offset="100%" stop-color="#ef4444" stop-opacity="0.6"/>
  </linearGradient>

  <filter id="glowOrange" x="-120%" y="-120%" width="340%" height="340%">
    <feGaussianBlur stdDeviation="4" result="b"/>
    <feMerge><feMergeNode in="b"/><feMergeNode in="SourceGraphic"/></feMerge>
  </filter>
  <filter id="glowCyan" x="-120%" y="-120%" width="340%" height="340%">
    <feGaussianBlur stdDeviation="3.5" result="b"/>
    <feMerge><feMergeNode in="b"/><feMergeNode in="SourceGraphic"/></feMerge>
  </filter>
  <filter id="glowTitle">
    <feGaussianBlur stdDeviation="5" result="b"/>
    <feMerge><feMergeNode in="b"/><feMergeNode in="b"/><feMergeNode in="SourceGraphic"/></feMerge>
  </filter>
  <filter id="glowLine" x="-6%" y="-120%" width="112%" height="340%">
    <feGaussianBlur stdDeviation="4.5" result="b"/>
    <feMerge><feMergeNode in="b"/><feMergeNode in="SourceGraphic"/></feMerge>
  </filter>
  <filter id="glowMA" x="-6%" y="-120%" width="112%" height="340%">
    <feGaussianBlur stdDeviation="3" result="b"/>
    <feMerge><feMergeNode in="b"/><feMergeNode in="SourceGraphic"/></feMerge>
  </filter>

  <pattern id="diamondTile" x="0" y="0" width="30" height="30" patternUnits="userSpaceOnUse">
    <path d="M15 2 L28 15 L15 28 L2 15 Z"
      fill="none" stroke="#0d2464" stroke-width="0.4" stroke-opacity="0.25"/>
  </pattern>

  <clipPath id="chartClip">
    <rect x="86" y="130" width="1160" height="360"/>
  </clipPath>
</defs>

<!-- ════ BACKGROUND ════ -->
<rect width="1324" height="969" fill="url(#bg)" rx="16"/>
<rect width="1324" height="969" fill="url(#diamondTile)" rx="16"/>

<!-- ════ BORDERS ════ -->
<rect width="1324" height="969" fill="none" rx="16" stroke="url(#gBorder)" stroke-width="2.2"/>
<rect x="5" y="5" width="1314" height="959" fill="none" rx="13"
  stroke="#1840a0" stroke-width="0.7" stroke-opacity="0.35"/>

<!-- ════ HEADER ════ -->
<rect x="0" y="0" width="1324" height="122" fill="url(#gHeader)" rx="16"/>
<line x1="24" y1="118.0" x2="1300.0" y2="118.0"
    stroke="url(#gBorder)" stroke-width="0.8" stroke-opacity="0.5"/>

<!-- ════ TITLE ════ -->
<text x="666.0" y="44" font-size="18" font-weight="600" fill="#cce8ff"
  text-anchor="middle" font-family="'Lexend','Segoe UI',sans-serif"
  filter="url(#glowTitle)" letter-spacing="5">⬡  COMMIT  ANALYTICS  ⬡</text>
<text x="666.0" y="62" font-size="9.5" fill="#3d7ed4" text-anchor="middle"
  font-family="'Lexend','Segoe UI',sans-serif" letter-spacing="3.5" font-weight="300">kieran-lucas/oop-course-project-uet</text>

<!-- ════ STATS BADGE ════ -->

    <rect x="1098" y="8" width="142" height="92" rx="10"
      fill="#030e26" fill-opacity="0.94" stroke="#2563eb" stroke-width="1.2"/>
    <text x="1169" y="24" font-size="8" fill="#3d7ed4"
      text-anchor="middle" font-family="'Lexend',sans-serif" letter-spacing="2" font-weight="400">TOTAL  COMMITS</text>
    <text x="1169" y="52" font-size="28" font-weight="700" fill="#cce8ff"
      text-anchor="middle" font-family="'Lexend',sans-serif" filter="url(#glowTitle)">189</text>
    <line x1="1114" y1="60" x2="1224" y2="60"
      stroke="#1a3f7a" stroke-width="0.8" stroke-opacity="0.5"/>
    <text x="1145" y="74" font-size="9" fill="#22c55e"
      text-anchor="middle" font-family="'Lexend',sans-serif" font-weight="400">+149.4k</text>
    <text x="1193" y="74" font-size="9" fill="#ef4444"
      text-anchor="middle" font-family="'Lexend',sans-serif" font-weight="400">-73.7k</text>
    <text x="1169" y="90" font-size="8" fill="#3d7ed4"
      text-anchor="middle" font-family="'Lexend',sans-serif" font-weight="300">10 active days · 714 files</text>

<!-- ════ LEGEND ════ -->
<g><rect x="310.0" y="90.0" width="24" height="12" rx="3"
        fill="#4a90e2" fill-opacity="0.45" stroke="#4a90e2" stroke-width="1.2"/><text x="341.0" y="100.0" font-size="11" fill="#93c5fd"
      font-family="'Lexend','Segoe UI',sans-serif" font-weight="400">Total Lines</text><line x1="446.0" y1="97.0" x2="470.0" y2="97.0"
        stroke="#ff8c42" stroke-width="2.5" stroke-linecap="round"/><circle cx="458.0" cy="97.0" r="3.5"
        fill="#ff8c42" stroke="#fff" stroke-width="0.6" stroke-opacity="0.3"/><text x="477.0" y="100.0" font-size="11" fill="#93c5fd"
      font-family="'Lexend','Segoe UI',sans-serif" font-weight="400">Commits</text><line x1="554.0" y1="97.0" x2="578.0" y2="97.0"
        stroke="#00d4f5" stroke-width="2.5" stroke-linecap="round"/><circle cx="566.0" cy="97.0" r="3.5"
        fill="#00d4f5" stroke="#fff" stroke-width="0.6" stroke-opacity="0.3"/><text x="585.0" y="100.0" font-size="11" fill="#93c5fd"
      font-family="'Lexend','Segoe UI',sans-serif" font-weight="400">Chg/Commit</text><rect x="689.0" y="90.0" width="12" height="12" rx="2"
        fill="#22c55e" opacity="0.85"/><text x="714.0" y="100.0" font-size="11" fill="#93c5fd"
      font-family="'Lexend','Segoe UI',sans-serif" font-weight="400">Additions</text><rect x="811.0" y="90.0" width="12" height="12" rx="2"
        fill="#ef4444" opacity="0.85"/><text x="836.0" y="100.0" font-size="11" fill="#93c5fd"
      font-family="'Lexend','Segoe UI',sans-serif" font-weight="400">Deletions</text><line x1="927.0" y1="97.0" x2="951.0" y2="97.0"
        stroke="#a78bfa" stroke-width="2" stroke-dasharray="5,3" stroke-linecap="round"/><text x="958.0" y="100.0" font-size="11" fill="#93c5fd"
      font-family="'Lexend','Segoe UI',sans-serif" font-weight="400">7-day MA</text></g>

<!-- ════ AXIS LABELS ════ -->
<text x="16" y="310.0" font-size="9.5" fill="#4a90e2"
    text-anchor="middle" font-family="'Lexend','Segoe UI',sans-serif" letter-spacing="3" font-weight="300"
    transform="rotate(-90, 16, 310.0)">LINES</text>
<text x="1310.0" y="310.0" font-size="9.5"
    fill="#ff8c42" text-anchor="middle" font-family="'Lexend','Segoe UI',sans-serif"
    letter-spacing="3" font-weight="300" opacity="0.8"
    transform="rotate(90, 1310.0, 310.0)">COMMITS</text>

<!-- ════ GRID + Y-LABELS ════ -->
<line x1="86" y1="490.0" x2="1246" y2="490.0"
      stroke="#1a3f7a" stroke-width="1.4"
      stroke-opacity="0.9" stroke-dasharray="none"/><line x1="86" y1="418.0" x2="1246" y2="418.0"
      stroke="#1a3f7a" stroke-width="0.5"
      stroke-opacity="0.3" stroke-dasharray="6,6"/><line x1="86" y1="346.0" x2="1246" y2="346.0"
      stroke="#1a3f7a" stroke-width="0.5"
      stroke-opacity="0.3" stroke-dasharray="6,6"/><line x1="86" y1="274.0" x2="1246" y2="274.0"
      stroke="#1a3f7a" stroke-width="0.5"
      stroke-opacity="0.3" stroke-dasharray="6,6"/><line x1="86" y1="202.0" x2="1246" y2="202.0"
      stroke="#1a3f7a" stroke-width="0.5"
      stroke-opacity="0.3" stroke-dasharray="6,6"/><line x1="86" y1="130.0" x2="1246" y2="130.0"
      stroke="#1a3f7a" stroke-width="0.5"
      stroke-opacity="0.3" stroke-dasharray="6,6"/>
<text x="74" y="494.0" font-size="11" fill="#5aa8ff"
      text-anchor="end" font-family="'Lexend','Segoe UI',sans-serif" font-weight="300">0</text><text x="74" y="422.0" font-size="11" fill="#5aa8ff"
      text-anchor="end" font-family="'Lexend','Segoe UI',sans-serif" font-weight="300">20.0k</text><text x="74" y="350.0" font-size="11" fill="#5aa8ff"
      text-anchor="end" font-family="'Lexend','Segoe UI',sans-serif" font-weight="300">40.0k</text><text x="74" y="278.0" font-size="11" fill="#5aa8ff"
      text-anchor="end" font-family="'Lexend','Segoe UI',sans-serif" font-weight="300">60.0k</text><text x="74" y="206.0" font-size="11" fill="#5aa8ff"
      text-anchor="end" font-family="'Lexend','Segoe UI',sans-serif" font-weight="300">80.0k</text><text x="74" y="134.0" font-size="11" fill="#5aa8ff"
      text-anchor="end" font-family="'Lexend','Segoe UI',sans-serif" font-weight="300">100.0k</text>
<text x="1258" y="494.0" font-size="11" fill="#ff8c42"
      text-anchor="start" font-family="'Lexend','Segoe UI',sans-serif" font-weight="300" opacity="0.85">0</text><text x="1258" y="404.0" font-size="11" fill="#ff8c42"
      text-anchor="start" font-family="'Lexend','Segoe UI',sans-serif" font-weight="300" opacity="0.85">20</text><text x="1258" y="314.0" font-size="11" fill="#ff8c42"
      text-anchor="start" font-family="'Lexend','Segoe UI',sans-serif" font-weight="300" opacity="0.85">40</text><text x="1258" y="224.0" font-size="11" fill="#ff8c42"
      text-anchor="start" font-family="'Lexend','Segoe UI',sans-serif" font-weight="300" opacity="0.85">60</text><text x="1258" y="134.0" font-size="11" fill="#ff8c42"
      text-anchor="start" font-family="'Lexend','Segoe UI',sans-serif" font-weight="300" opacity="0.85">80</text>

<!-- ════ AXIS LINES ════ -->
<line x1="86" y1="130" x2="86" y2="490"
  stroke="#1a3f7a" stroke-width="1.2" stroke-opacity="0.65"/>
<line x1="86" y1="490" x2="1246" y2="490"
  stroke="#1a3f7a" stroke-width="1.4" stroke-opacity="0.8"/>
<line x1="1246" y1="130" x2="1246" y2="490"
  stroke="#ff8c42" stroke-width="0.9" stroke-opacity="0.28"/>

<!-- ════ X-AXIS ════ -->
<text x="86.0" y="514" font-size="10" fill="#5aa8ff"
      text-anchor="end" font-family="'Lexend','Segoe UI',sans-serif" font-weight="300"
      transform="rotate(-42, 86.0, 514)">10 Mar</text><text x="208.1" y="514" font-size="10" fill="#5aa8ff"
      text-anchor="end" font-family="'Lexend','Segoe UI',sans-serif" font-weight="300"
      transform="rotate(-42, 208.1, 514)">12 Mar</text><text x="330.2" y="514" font-size="10" fill="#5aa8ff"
      text-anchor="end" font-family="'Lexend','Segoe UI',sans-serif" font-weight="300"
      transform="rotate(-42, 330.2, 514)">14 Mar</text><text x="452.3" y="514" font-size="10" fill="#5aa8ff"
      text-anchor="end" font-family="'Lexend','Segoe UI',sans-serif" font-weight="300"
      transform="rotate(-42, 452.3, 514)">16 Mar</text><text x="574.4" y="514" font-size="10" fill="#5aa8ff"
      text-anchor="end" font-family="'Lexend','Segoe UI',sans-serif" font-weight="300"
      transform="rotate(-42, 574.4, 514)">18 Mar</text><text x="696.5" y="514" font-size="10" fill="#5aa8ff"
      text-anchor="end" font-family="'Lexend','Segoe UI',sans-serif" font-weight="300"
      transform="rotate(-42, 696.5, 514)">20 Mar</text><text x="818.6" y="514" font-size="10" fill="#5aa8ff"
      text-anchor="end" font-family="'Lexend','Segoe UI',sans-serif" font-weight="300"
      transform="rotate(-42, 818.6, 514)">22 Mar</text><text x="940.7" y="514" font-size="10" fill="#5aa8ff"
      text-anchor="end" font-family="'Lexend','Segoe UI',sans-serif" font-weight="300"
      transform="rotate(-42, 940.7, 514)">24 Mar</text><text x="1062.8" y="514" font-size="10" fill="#5aa8ff"
      text-anchor="end" font-family="'Lexend','Segoe UI',sans-serif" font-weight="300"
      transform="rotate(-42, 1062.8, 514)">26 Mar</text><text x="1184.9" y="514" font-size="10" fill="#5aa8ff"
      text-anchor="end" font-family="'Lexend','Segoe UI',sans-serif" font-weight="300"
      transform="rotate(-42, 1184.9, 514)">28 Mar</text><text x="1246.0" y="514" font-size="10" fill="#5aa8ff"
      text-anchor="end" font-family="'Lexend','Segoe UI',sans-serif" font-weight="300"
      transform="rotate(-42, 1246.0, 514)">29 Mar</text>

<!-- ════ CHART CONTENT ════ -->
<g clip-path="url(#chartClip)">
  <!-- Total lines: area + stroke -->
  <path d="M 86.00 490.00 C 96.18 490.00, 126.70 490.00, 147.05 490.00 C 167.40 490.00, 187.75 490.00, 208.11 490.00 C 228.46 490.00, 248.81 490.00, 269.16 490.00 C 289.51 490.00, 309.86 490.00, 330.21 490.00 C 350.56 490.00, 370.91 490.00, 391.26 490.00 C 411.61 490.00, 431.96 490.00, 452.32 490.00 C 472.67 489.98, 493.02 489.92, 513.37 489.91 C 533.72 489.89, 554.07 489.91, 574.42 489.91 C 594.77 489.91, 615.12 489.94, 635.47 489.91 C 655.82 489.87, 676.18 489.72, 696.53 489.69 C 716.88 489.65, 737.23 489.70, 757.58 489.69 C 777.93 489.67, 798.28 489.62, 818.63 489.61 C 838.98 489.59, 859.33 490.00, 879.68 489.61 C 900.04 488.99, 920.39 486.51, 940.74 485.89 C 961.09 485.28, 981.44 485.91, 1001.79 485.91 C 1022.14 485.91, 1042.49 485.90, 1062.84 485.90 C 1083.19 485.90, 1103.54 490.00, 1123.89 485.89 C 1144.25 443.28, 1164.60 274.96, 1184.95 230.27 C 1205.30 185.59, 1235.82 219.86, 1246.00 217.78 L 1246.00 490 L 86.00 490 Z" fill="url(#areaFill)"/>
  <path d="M 86.00 490.00 C 96.18 490.00, 126.70 490.00, 147.05 490.00 C 167.40 490.00, 187.75 490.00, 208.11 490.00 C 228.46 490.00, 248.81 490.00, 269.16 490.00 C 289.51 490.00, 309.86 490.00, 330.21 490.00 C 350.56 490.00, 370.91 490.00, 391.26 490.00 C 411.61 490.00, 431.96 490.00, 452.32 490.00 C 472.67 489.98, 493.02 489.92, 513.37 489.91 C 533.72 489.89, 554.07 489.91, 574.42 489.91 C 594.77 489.91, 615.12 489.94, 635.47 489.91 C 655.82 489.87, 676.18 489.72, 696.53 489.69 C 716.88 489.65, 737.23 489.70, 757.58 489.69 C 777.93 489.67, 798.28 489.62, 818.63 489.61 C 838.98 489.59, 859.33 490.00, 879.68 489.61 C 900.04 488.99, 920.39 486.51, 940.74 485.89 C 961.09 485.28, 981.44 485.91, 1001.79 485.91 C 1022.14 485.91, 1042.49 485.90, 1062.84 485.90 C 1083.19 485.90, 1103.54 490.00, 1123.89 485.89 C 1144.25 443.28, 1164.60 274.96, 1184.95 230.27 C 1205.30 185.59, 1235.82 219.86, 1246.00 217.78" fill="none" stroke="#4a90e2" stroke-width="2" stroke-opacity="0.7"/>

  <!-- Bars -->
  <rect x="928.7" y="312.5" width="24" height="88.1"
        fill="url(#gDelBar)" rx="2" opacity="0.78"/><rect x="928.7" y="400.6" width="24" height="89.4"
        fill="url(#gAddBar)" rx="2" opacity="0.82"/><rect x="1172.9" y="392.5" width="24" height="2.7"
        fill="url(#gDelBar)" rx="2" opacity="0.78"/><rect x="1172.9" y="395.2" width="24" height="94.8"
        fill="url(#gAddBar)" rx="2" opacity="0.82"/><rect x="1234.0" y="476.4" width="24" height="4.5"
        fill="url(#gDelBar)" rx="2" opacity="0.78"/><rect x="1234.0" y="481.0" width="24" height="9.0"
        fill="url(#gAddBar)" rx="2" opacity="0.82"/>

  <!-- Commits line — glow + crisp -->
  <path d="M 86.00 485.50 C 96.18 486.25, 126.70 489.25, 147.05 490.00 C 167.40 490.00, 187.75 490.00, 208.11 490.00 C 228.46 490.00, 248.81 490.00, 269.16 490.00 C 289.51 490.00, 309.86 490.00, 330.21 490.00 C 350.56 490.00, 370.91 490.00, 391.26 490.00 C 411.61 490.00, 431.96 490.00, 452.32 490.00 C 472.67 482.50, 493.02 445.00, 513.37 445.00 C 533.72 445.00, 554.07 482.50, 574.42 490.00 C 594.77 490.00, 615.12 490.00, 635.47 490.00 C 655.82 470.50, 676.18 373.00, 696.53 373.00 C 716.88 373.00, 737.23 471.25, 757.58 490.00 C 777.93 490.00, 798.28 485.50, 818.63 485.50 C 838.98 485.50, 859.33 490.00, 879.68 490.00 C 900.04 466.75, 920.39 351.25, 940.74 346.00 C 961.09 340.75, 981.44 436.75, 1001.79 458.50 C 1022.14 480.25, 1042.49 472.00, 1062.84 476.50 C 1083.19 481.00, 1103.54 490.00, 1123.89 485.50 C 1144.25 438.25, 1164.60 223.75, 1184.95 193.00 C 1205.30 162.25, 1235.82 283.00, 1246.00 301.00" fill="none" stroke="#ff8c42" stroke-width="9" stroke-opacity="0.06" filter="url(#glowLine)"/>
  <path d="M 86.00 485.50 C 96.18 486.25, 126.70 489.25, 147.05 490.00 C 167.40 490.00, 187.75 490.00, 208.11 490.00 C 228.46 490.00, 248.81 490.00, 269.16 490.00 C 289.51 490.00, 309.86 490.00, 330.21 490.00 C 350.56 490.00, 370.91 490.00, 391.26 490.00 C 411.61 490.00, 431.96 490.00, 452.32 490.00 C 472.67 482.50, 493.02 445.00, 513.37 445.00 C 533.72 445.00, 554.07 482.50, 574.42 490.00 C 594.77 490.00, 615.12 490.00, 635.47 490.00 C 655.82 470.50, 676.18 373.00, 696.53 373.00 C 716.88 373.00, 737.23 471.25, 757.58 490.00 C 777.93 490.00, 798.28 485.50, 818.63 485.50 C 838.98 485.50, 859.33 490.00, 879.68 490.00 C 900.04 466.75, 920.39 351.25, 940.74 346.00 C 961.09 340.75, 981.44 436.75, 1001.79 458.50 C 1022.14 480.25, 1042.49 472.00, 1062.84 476.50 C 1083.19 481.00, 1103.54 490.00, 1123.89 485.50 C 1144.25 438.25, 1164.60 223.75, 1184.95 193.00 C 1205.30 162.25, 1235.82 283.00, 1246.00 301.00" fill="none" stroke="url(#gCommits)" stroke-width="2.8" stroke-linecap="round"/>

  <!-- Changes/commit line -->
  <path d="M 86.00 489.93 C 96.18 489.94, 126.70 489.99, 147.05 490.00 C 167.40 490.00, 187.75 490.00, 208.11 490.00 C 228.46 490.00, 248.81 490.00, 269.16 490.00 C 289.51 490.00, 309.86 490.00, 330.21 490.00 C 350.56 490.00, 370.91 490.00, 391.26 490.00 C 411.61 490.00, 431.96 490.00, 452.32 490.00 C 472.67 489.95, 493.02 489.71, 513.37 489.71 C 533.72 489.71, 554.07 489.95, 574.42 490.00 C 594.77 490.00, 615.12 490.00, 635.47 490.00 C 655.82 489.96, 676.18 489.78, 696.53 489.78 C 716.88 489.78, 737.23 490.00, 757.58 490.00 C 777.93 489.77, 798.28 488.42, 818.63 488.42 C 838.98 488.42, 859.33 490.00, 879.68 490.00 C 900.04 438.92, 920.39 182.09, 940.74 181.91 C 961.09 181.73, 981.44 438.20, 1001.79 488.92 C 1022.14 490.00, 1042.49 486.70, 1062.84 486.26 C 1083.19 485.81, 1103.54 490.00, 1123.89 486.26 C 1144.25 473.20, 1164.60 410.30, 1184.95 407.92 C 1205.30 405.54, 1235.82 461.32, 1246.00 472.00" fill="none" stroke="#00d4f5" stroke-width="9" stroke-opacity="0.06" filter="url(#glowLine)"/>
  <path d="M 86.00 489.93 C 96.18 489.94, 126.70 489.99, 147.05 490.00 C 167.40 490.00, 187.75 490.00, 208.11 490.00 C 228.46 490.00, 248.81 490.00, 269.16 490.00 C 289.51 490.00, 309.86 490.00, 330.21 490.00 C 350.56 490.00, 370.91 490.00, 391.26 490.00 C 411.61 490.00, 431.96 490.00, 452.32 490.00 C 472.67 489.95, 493.02 489.71, 513.37 489.71 C 533.72 489.71, 554.07 489.95, 574.42 490.00 C 594.77 490.00, 615.12 490.00, 635.47 490.00 C 655.82 489.96, 676.18 489.78, 696.53 489.78 C 716.88 489.78, 737.23 490.00, 757.58 490.00 C 777.93 489.77, 798.28 488.42, 818.63 488.42 C 838.98 488.42, 859.33 490.00, 879.68 490.00 C 900.04 438.92, 920.39 182.09, 940.74 181.91 C 961.09 181.73, 981.44 438.20, 1001.79 488.92 C 1022.14 490.00, 1042.49 486.70, 1062.84 486.26 C 1083.19 485.81, 1103.54 490.00, 1123.89 486.26 C 1144.25 473.20, 1164.60 410.30, 1184.95 407.92 C 1205.30 405.54, 1235.82 461.32, 1246.00 472.00" fill="none" stroke="url(#gChanges)" stroke-width="2.5" stroke-linecap="round"/>

  <!-- Moving averages -->
  <path d="M 86.00 488.88 C 96.18 488.91, 126.70 489.04, 147.05 489.10 C 167.40 489.16, 187.75 489.21, 208.11 489.25 C 228.46 489.29, 248.81 490.00, 269.16 489.36 C 289.51 488.41, 309.86 484.54, 330.21 483.57 C 350.56 482.61, 370.91 483.57, 391.26 483.57 C 411.61 483.57, 431.96 486.36, 452.32 483.57 C 472.67 480.79, 493.02 469.64, 513.37 466.86 C 533.72 464.07, 554.07 466.96, 574.42 466.86 C 594.77 466.75, 615.12 466.32, 635.47 466.21 C 655.82 466.11, 676.18 468.57, 696.53 466.21 C 716.88 463.86, 737.23 455.18, 757.58 452.07 C 777.93 448.96, 798.28 448.64, 818.63 447.57 C 838.98 446.50, 859.33 443.29, 879.68 445.64 C 900.04 448.00, 920.39 466.11, 940.74 461.71 C 961.09 457.32, 981.44 430.75, 1001.79 419.29 C 1022.14 407.82, 1042.49 400.02, 1062.84 392.93 C 1083.19 385.84, 1103.54 378.42, 1123.89 376.75 C 1144.25 375.08, 1164.60 385.02, 1184.95 382.90 C 1205.30 380.77, 1235.82 367.15, 1246.00 364.00" fill="none" stroke="#a78bfa" stroke-width="2" stroke-dasharray="6,4" stroke-opacity="0.55" filter="url(#glowMA)"/>
  <path d="M 86.00 489.98 C 96.18 489.98, 126.70 489.98, 147.05 489.99 C 167.40 489.99, 187.75 489.99, 208.11 489.99 C 228.46 489.99, 248.81 489.99, 269.16 489.99 C 289.51 489.98, 309.86 489.96, 330.21 489.96 C 350.56 489.95, 370.91 489.96, 391.26 489.96 C 411.61 489.96, 431.96 489.96, 452.32 489.96 C 472.67 489.95, 493.02 489.93, 513.37 489.93 C 533.72 489.92, 554.07 489.97, 574.42 489.93 C 594.77 489.89, 615.12 489.74, 635.47 489.70 C 655.82 489.66, 676.18 490.00, 696.53 489.70 C 716.88 482.37, 737.23 453.08, 757.58 445.73 C 777.93 438.38, 798.28 445.69, 818.63 445.58 C 838.98 445.46, 859.33 445.21, 879.68 445.04 C 900.04 444.87, 920.39 446.58, 940.74 444.54 C 961.09 442.50, 981.44 435.16, 1001.79 432.81 C 1022.14 430.47, 1042.49 432.51, 1062.84 430.47 C 1083.19 428.42, 1103.54 414.24, 1123.89 420.54 C 1144.25 426.84, 1164.60 461.18, 1184.95 468.27 C 1205.30 475.36, 1235.82 463.97, 1246.00 463.11" fill="none" stroke="#c4b5fd" stroke-width="1.5" stroke-dasharray="5,4" stroke-opacity="0.4"/>

  <!-- Statistical overlay -->
  <line x1="86" y1="404.9" x2="1246" y2="404.9"
      stroke="#ff8c42" stroke-width="1" stroke-dasharray="8,4" opacity="0.3"/>
    <text x="1258" y="398.9" font-size="8" fill="#ff8c42"
      text-anchor="start" font-family="'Lexend','Segoe UI',sans-serif" font-weight="300" opacity="0.6">μ=18.9</text>

  <!-- Data point circles (inside clip for safety) -->
  <circle cx="86.0" cy="485.5" r="3.0"
        fill="#ff8c42" stroke="#ffd0a0" stroke-width="1" filter="url(#glowOrange)" opacity="0.9">
        <title>2026-03-10: 1 commits</title></circle><circle cx="513.4" cy="445.0" r="3.3"
        fill="#ff8c42" stroke="#ffd0a0" stroke-width="1" filter="url(#glowOrange)" opacity="0.9">
        <title>2026-03-17: 10 commits</title></circle><circle cx="696.5" cy="373.0" r="3.8"
        fill="#ff8c42" stroke="#ffd0a0" stroke-width="1" filter="url(#glowOrange)" opacity="0.9">
        <title>2026-03-20: 26 commits</title></circle><circle cx="818.6" cy="485.5" r="3.0"
        fill="#ff8c42" stroke="#ffd0a0" stroke-width="1" filter="url(#glowOrange)" opacity="0.9">
        <title>2026-03-22: 1 commits</title></circle><circle cx="940.7" cy="346.0" r="4.0"
        fill="#ff8c42" stroke="#ffd0a0" stroke-width="1" filter="url(#glowOrange)" opacity="0.9">
        <title>2026-03-24: 32 commits</title></circle><circle cx="1001.8" cy="458.5" r="3.2"
        fill="#ff8c42" stroke="#ffd0a0" stroke-width="1" filter="url(#glowOrange)" opacity="0.9">
        <title>2026-03-25: 7 commits</title></circle><circle cx="1062.8" cy="476.5" r="3.1"
        fill="#ff8c42" stroke="#ffd0a0" stroke-width="1" filter="url(#glowOrange)" opacity="0.9">
        <title>2026-03-26: 3 commits</title></circle><circle cx="1123.9" cy="485.5" r="3.0"
        fill="#ff8c42" stroke="#ffd0a0" stroke-width="1" filter="url(#glowOrange)" opacity="0.9">
        <title>2026-03-27: 1 commits</title></circle><circle cx="1184.9" cy="193.0" r="5.1"
        fill="#ff8c42" stroke="#ffd0a0" stroke-width="1" filter="url(#glowOrange)" opacity="0.9">
        <title>2026-03-28: 66 commits</title></circle><circle cx="1246.0" cy="301.0" r="4.3"
        fill="#ff8c42" stroke="#ffd0a0" stroke-width="1" filter="url(#glowOrange)" opacity="0.9">
        <title>2026-03-29: 42 commits</title></circle>
  <circle cx="86.0" cy="489.9" r="3.5"
        fill="#00d4f5" stroke="#80eeff" stroke-width="0.8" filter="url(#glowCyan)" opacity="0.85">
        <title>2026-03-10: 1 changes/commit</title></circle><circle cx="513.4" cy="489.7" r="3.5"
        fill="#00d4f5" stroke="#80eeff" stroke-width="0.8" filter="url(#glowCyan)" opacity="0.85">
        <title>2026-03-17: 4 changes/commit</title></circle><circle cx="696.5" cy="489.8" r="3.5"
        fill="#00d4f5" stroke="#80eeff" stroke-width="0.8" filter="url(#glowCyan)" opacity="0.85">
        <title>2026-03-20: 3 changes/commit</title></circle><circle cx="818.6" cy="488.4" r="3.5"
        fill="#00d4f5" stroke="#80eeff" stroke-width="0.8" filter="url(#glowCyan)" opacity="0.85">
        <title>2026-03-22: 22 changes/commit</title></circle><circle cx="940.7" cy="181.9" r="3.5"
        fill="#00d4f5" stroke="#80eeff" stroke-width="0.8" filter="url(#glowCyan)" opacity="0.85">
        <title>2026-03-24: 4279 changes/commit</title></circle><circle cx="1001.8" cy="488.9" r="3.5"
        fill="#00d4f5" stroke="#80eeff" stroke-width="0.8" filter="url(#glowCyan)" opacity="0.85">
        <title>2026-03-25: 15 changes/commit</title></circle><circle cx="1062.8" cy="486.3" r="3.5"
        fill="#00d4f5" stroke="#80eeff" stroke-width="0.8" filter="url(#glowCyan)" opacity="0.85">
        <title>2026-03-26: 52 changes/commit</title></circle><circle cx="1123.9" cy="486.3" r="3.5"
        fill="#00d4f5" stroke="#80eeff" stroke-width="0.8" filter="url(#glowCyan)" opacity="0.85">
        <title>2026-03-27: 52 changes/commit</title></circle><circle cx="1184.9" cy="407.9" r="3.5"
        fill="#00d4f5" stroke="#80eeff" stroke-width="0.8" filter="url(#glowCyan)" opacity="0.85">
        <title>2026-03-28: 1140 changes/commit</title></circle><circle cx="1246.0" cy="472.0" r="3.5"
        fill="#00d4f5" stroke="#80eeff" stroke-width="0.8" filter="url(#glowCyan)" opacity="0.85">
        <title>2026-03-29: 250 changes/commit</title></circle>
</g>

<!-- ════ ANNOTATIONS ════ -->

        <line x1="1184.9" y1="181.0"
          x2="1184.9" y2="172.0"
          stroke="#2563eb" stroke-width="1.2" stroke-dasharray="4,4" opacity="0.65"/>
        <rect x="1116.0" y="148.0"
          width="130" height="24" rx="6"
          fill="#030e26" stroke="#2563eb" stroke-width="1" opacity="0.96"/>
        <text x="1181.0" y="164.0"
          font-size="10" fill="#93c5fd" text-anchor="middle"
          font-family="'Lexend','Segoe UI',sans-serif" font-weight="400"
          letter-spacing="0.5">⬡  Peak · 66 commits</text>
        <line x1="940.7" y1="494" x2="1246.0" y2="494"
          stroke="#f472b6" stroke-width="2.5" stroke-linecap="round" opacity="0.7"/>
        <circle cx="940.7" cy="494" r="3" fill="#f472b6" opacity="0.9"/>
        <circle cx="1246.0" cy="494" r="3" fill="#f472b6" opacity="0.9"/>
        <text x="1093.4" y="508" font-size="8.5" fill="#f472b6"
          text-anchor="middle" font-family="'Lexend','Segoe UI',sans-serif"
          font-weight="400" opacity="0.85">🔥 6-day streak</text>
        <line x1="940.7" y1="130" x2="940.7" y2="490"
          stroke="#f472b6" stroke-width="0.8" stroke-dasharray="3,6" opacity="0.35"/>

<!-- ════ CORNER BRACKETS ════ -->
<path d="M 86 152.0 L 86 130 L 108.0 130"
      fill="none" stroke="#4a90e2" stroke-width="2" stroke-opacity="0.85" stroke-linecap="round"/><path d="M 1246 152.0 L 1246 130 L 1224.0 130"
      fill="none" stroke="#4a90e2" stroke-width="2" stroke-opacity="0.85" stroke-linecap="round"/><path d="M 86 468.0 L 86 490 L 108.0 490"
      fill="none" stroke="#4a90e2" stroke-width="2" stroke-opacity="0.85" stroke-linecap="round"/><path d="M 1246 468.0 L 1246 490 L 1224.0 490"
      fill="none" stroke="#4a90e2" stroke-width="2" stroke-opacity="0.85" stroke-linecap="round"/>

<!-- ════ HEATMAP ════ -->
<text x="662" y="646" font-size="11" fill="#3d7ed4"
    text-anchor="middle" font-family="'Lexend','Segoe UI',sans-serif"
    letter-spacing="3" font-weight="400">CONTRIBUTION  CALENDAR</text><text x="642" y="686"
        font-size="9" fill="#3d7ed4" text-anchor="end"
        font-family="'Lexend','Segoe UI',sans-serif" font-weight="300">M</text><text x="642" y="716"
        font-size="9" fill="#3d7ed4" text-anchor="end"
        font-family="'Lexend','Segoe UI',sans-serif" font-weight="300">W</text><text x="642" y="746"
        font-size="9" fill="#3d7ed4" text-anchor="end"
        font-family="'Lexend','Segoe UI',sans-serif" font-weight="300">F</text><rect x="648.0" y="660.0"
        width="12" height="12" rx="2.5" fill="#0a1630"
        stroke="#0d2464" stroke-width="0.5" stroke-opacity="0.4">
        <title>2026-03-08: 0 commits</title></rect><rect x="648.0" y="675.0"
        width="12" height="12" rx="2.5" fill="#0a1630"
        stroke="#0d2464" stroke-width="0.5" stroke-opacity="0.4">
        <title>2026-03-09: 0 commits</title></rect><rect x="648.0" y="690.0"
        width="12" height="12" rx="2.5" fill="#0d3068"
        stroke="#0d2464" stroke-width="0.5" stroke-opacity="0.4">
        <title>2026-03-10: 1 commits</title></rect><rect x="648.0" y="705.0"
        width="12" height="12" rx="2.5" fill="#0a1630"
        stroke="#0d2464" stroke-width="0.5" stroke-opacity="0.4">
        <title>2026-03-11: 0 commits</title></rect><rect x="648.0" y="720.0"
        width="12" height="12" rx="2.5" fill="#0a1630"
        stroke="#0d2464" stroke-width="0.5" stroke-opacity="0.4">
        <title>2026-03-12: 0 commits</title></rect><rect x="648.0" y="735.0"
        width="12" height="12" rx="2.5" fill="#0a1630"
        stroke="#0d2464" stroke-width="0.5" stroke-opacity="0.4">
        <title>2026-03-13: 0 commits</title></rect><rect x="648.0" y="750.0"
        width="12" height="12" rx="2.5" fill="#0a1630"
        stroke="#0d2464" stroke-width="0.5" stroke-opacity="0.4">
        <title>2026-03-14: 0 commits</title></rect><rect x="663.0" y="660.0"
        width="12" height="12" rx="2.5" fill="#0a1630"
        stroke="#0d2464" stroke-width="0.5" stroke-opacity="0.4">
        <title>2026-03-15: 0 commits</title></rect><rect x="663.0" y="675.0"
        width="12" height="12" rx="2.5" fill="#0a1630"
        stroke="#0d2464" stroke-width="0.5" stroke-opacity="0.4">
        <title>2026-03-16: 0 commits</title></rect><rect x="663.0" y="690.0"
        width="12" height="12" rx="2.5" fill="#0d3068"
        stroke="#0d2464" stroke-width="0.5" stroke-opacity="0.4">
        <title>2026-03-17: 10 commits</title></rect><rect x="663.0" y="705.0"
        width="12" height="12" rx="2.5" fill="#0a1630"
        stroke="#0d2464" stroke-width="0.5" stroke-opacity="0.4">
        <title>2026-03-18: 0 commits</title></rect><rect x="663.0" y="720.0"
        width="12" height="12" rx="2.5" fill="#0a1630"
        stroke="#0d2464" stroke-width="0.5" stroke-opacity="0.4">
        <title>2026-03-19: 0 commits</title></rect><rect x="663.0" y="735.0"
        width="12" height="12" rx="2.5" fill="#1e56a8"
        stroke="#0d2464" stroke-width="0.5" stroke-opacity="0.4">
        <title>2026-03-20: 26 commits</title></rect><rect x="663.0" y="750.0"
        width="12" height="12" rx="2.5" fill="#0a1630"
        stroke="#0d2464" stroke-width="0.5" stroke-opacity="0.4">
        <title>2026-03-21: 0 commits</title></rect><rect x="678.0" y="660.0"
        width="12" height="12" rx="2.5" fill="#0d3068"
        stroke="#0d2464" stroke-width="0.5" stroke-opacity="0.4">
        <title>2026-03-22: 1 commits</title></rect><rect x="678.0" y="675.0"
        width="12" height="12" rx="2.5" fill="#0a1630"
        stroke="#0d2464" stroke-width="0.5" stroke-opacity="0.4">
        <title>2026-03-23: 0 commits</title></rect><rect x="678.0" y="690.0"
        width="12" height="12" rx="2.5" fill="#1e56a8"
        stroke="#0d2464" stroke-width="0.5" stroke-opacity="0.4">
        <title>2026-03-24: 32 commits</title></rect><rect x="678.0" y="705.0"
        width="12" height="12" rx="2.5" fill="#0d3068"
        stroke="#0d2464" stroke-width="0.5" stroke-opacity="0.4">
        <title>2026-03-25: 7 commits</title></rect><rect x="678.0" y="720.0"
        width="12" height="12" rx="2.5" fill="#0d3068"
        stroke="#0d2464" stroke-width="0.5" stroke-opacity="0.4">
        <title>2026-03-26: 3 commits</title></rect><rect x="678.0" y="735.0"
        width="12" height="12" rx="2.5" fill="#0d3068"
        stroke="#0d2464" stroke-width="0.5" stroke-opacity="0.4">
        <title>2026-03-27: 1 commits</title></rect><rect x="678.0" y="750.0"
        width="12" height="12" rx="2.5" fill="#93c5fd"
        stroke="#0d2464" stroke-width="0.5" stroke-opacity="0.4">
        <title>2026-03-28: 66 commits</title></rect><rect x="693.0" y="660.0"
        width="12" height="12" rx="2.5" fill="#3b82f6"
        stroke="#0d2464" stroke-width="0.5" stroke-opacity="0.4">
        <title>2026-03-29: 42 commits</title></rect><rect x="693.0" y="675.0"
        width="12" height="12" rx="2.5" fill="#0a1630"
        stroke="#0d2464" stroke-width="0.5" stroke-opacity="0.4">
        <title>2026-03-30: 0 commits</title></rect><rect x="693.0" y="690.0"
        width="12" height="12" rx="2.5" fill="#0a1630"
        stroke="#0d2464" stroke-width="0.5" stroke-opacity="0.4">
        <title>2026-03-31: 0 commits</title></rect><rect x="693.0" y="705.0"
        width="12" height="12" rx="2.5" fill="#0a1630"
        stroke="#0d2464" stroke-width="0.5" stroke-opacity="0.4">
        <title>2026-04-01: 0 commits</title></rect><rect x="693.0" y="720.0"
        width="12" height="12" rx="2.5" fill="#0a1630"
        stroke="#0d2464" stroke-width="0.5" stroke-opacity="0.4">
        <title>2026-04-02: 0 commits</title></rect><rect x="693.0" y="735.0"
        width="12" height="12" rx="2.5" fill="#0a1630"
        stroke="#0d2464" stroke-width="0.5" stroke-opacity="0.4">
        <title>2026-04-03: 0 commits</title></rect><rect x="693.0" y="750.0"
        width="12" height="12" rx="2.5" fill="#0a1630"
        stroke="#0d2464" stroke-width="0.5" stroke-opacity="0.4">
        <title>2026-04-04: 0 commits</title></rect><text x="693.0" y="656" font-size="8.5" fill="#3d7ed4"
        font-family="'Lexend','Segoe UI',sans-serif" font-weight="300">Apr</text>

<!-- ════ BOTTOM PANELS ════ -->

    <rect x="86" y="823" width="320" height="110"
      rx="4" fill="#030e26" fill-opacity="0.6" stroke="#1a3f7a" stroke-width="0.8"/>
    <text x="246" y="819" font-size="8" fill="#3d7ed4"
      text-anchor="middle" font-family="'Lexend','Segoe UI',sans-serif"
      letter-spacing="2" font-weight="300">OVERVIEW</text>
    <g clip-path="url(#minimapClip)">
      <path d="M 86.00 931.58 C 88.81 931.82, 97.23 932.76, 102.84 933.00 C 108.46 933.24, 114.07 933.00, 119.68 933.00 C 125.30 933.00, 130.91 933.00, 136.53 933.00 C 142.14 933.00, 147.75 933.00, 153.37 933.00 C 158.98 933.00, 164.60 933.00, 170.21 933.00 C 175.82 933.00, 181.44 935.36, 187.05 933.00 C 192.67 930.64, 198.28 918.83, 203.89 918.83 C 209.51 918.83, 215.12 930.64, 220.74 933.00 C 226.35 935.36, 231.96 939.14, 237.58 933.00 C 243.19 926.86, 248.81 896.17, 254.42 896.17 C 260.04 896.17, 265.65 927.10, 271.26 933.00 C 276.88 938.90, 282.49 931.58, 288.11 931.58 C 293.72 931.58, 299.33 940.32, 304.95 933.00 C 310.56 925.68, 316.18 889.32, 321.79 887.67 C 327.40 886.01, 333.02 916.24, 338.63 923.08 C 344.25 929.93, 349.86 927.33, 355.47 928.75 C 361.09 930.17, 366.70 946.46, 372.32 931.58 C 377.93 916.71, 383.54 849.18, 389.16 839.50 C 394.77 829.82, 403.19 867.83, 406.00 873.50 L 406.00 933 L 86.00 933 Z" fill="#4a90e2" fill-opacity="0.15"/>
      <path d="M 86.00 931.58 C 88.81 931.82, 97.23 932.76, 102.84 933.00 C 108.46 933.24, 114.07 933.00, 119.68 933.00 C 125.30 933.00, 130.91 933.00, 136.53 933.00 C 142.14 933.00, 147.75 933.00, 153.37 933.00 C 158.98 933.00, 164.60 933.00, 170.21 933.00 C 175.82 933.00, 181.44 935.36, 187.05 933.00 C 192.67 930.64, 198.28 918.83, 203.89 918.83 C 209.51 918.83, 215.12 930.64, 220.74 933.00 C 226.35 935.36, 231.96 939.14, 237.58 933.00 C 243.19 926.86, 248.81 896.17, 254.42 896.17 C 260.04 896.17, 265.65 927.10, 271.26 933.00 C 276.88 938.90, 282.49 931.58, 288.11 931.58 C 293.72 931.58, 299.33 940.32, 304.95 933.00 C 310.56 925.68, 316.18 889.32, 321.79 887.67 C 327.40 886.01, 333.02 916.24, 338.63 923.08 C 344.25 929.93, 349.86 927.33, 355.47 928.75 C 361.09 930.17, 366.70 946.46, 372.32 931.58 C 377.93 916.71, 383.54 849.18, 389.16 839.50 C 394.77 829.82, 403.19 867.83, 406.00 873.50" fill="none" stroke="#4a90e2" stroke-width="1.5" stroke-opacity="0.7"/>
    </g>
    <clipPath id="minimapClip">
      <rect x="86" y="823" width="320" height="110" rx="4"/>
    </clipPath><path d="M 1106.00 854.90
      L 1106.00 836.00
      A 42 42 0 1 1 1088.41 839.86
      L 1096.32 857.02
      A 23.1 23.1 0 1 0 1106.00 854.90 Z"
      fill="#4a90e2" fill-opacity="0.8" stroke="#030e26" stroke-width="1.5">
      <title>Kieran Lucas: 176 commits (93%)</title></path><path d="M 1096.32 857.02
      L 1088.41 839.86
      A 42 42 0 0 1 1106.00 836.00
      L 1106.00 854.90
      A 23.1 23.1 0 0 0 1096.32 857.02 Z"
      fill="#ff8c42" fill-opacity="0.8" stroke="#030e26" stroke-width="1.5">
      <title>github-actions: 13 commits (7%)</title></path><text x="1106" y="874" font-size="9" fill="#3d7ed4" text-anchor="middle"
    font-family="'Lexend','Segoe UI',sans-serif" letter-spacing="1.5" font-weight="300">AUTHORS</text><text x="1106" y="892" font-size="16" fill="#cce8ff" text-anchor="middle"
    font-family="'Lexend','Segoe UI',sans-serif" font-weight="600">2</text><rect x="1164" y="830" width="8" height="8" rx="2" fill="#4a90e2" opacity="0.85"/><text x="1178" y="838" font-size="9.5" fill="#3d7ed4"
      font-family="'Lexend','Segoe UI',sans-serif" font-weight="300">Kieran Lucas (176)</text><rect x="1164" y="848" width="8" height="8" rx="2" fill="#ff8c42" opacity="0.85"/><text x="1178" y="856" font-size="9.5" fill="#3d7ed4"
      font-family="'Lexend','Segoe UI',sans-serif" font-weight="300">github-actions (13)</text>

<!-- ════ WAVES ════ -->
<path d="M 0 963 Q 82.8 956.0 165.5 963 Q 248.3 956.0 331.0 963 Q 413.8 956.0 496.5 963 Q 579.3 956.0 662.0 963 Q 744.8 956.0 827.5 963 Q 910.3 956.0 993.0 963 Q 1075.8 956.0 1158.5 963 Q 1241.3 956.0 1324.0 963" fill="none" stroke="#1948a0" stroke-width="1.2" stroke-opacity="0.35"/>
<path d="M 0 958 Q 82.8 952.5 165.5 958 Q 248.3 952.5 331.0 958 Q 413.8 952.5 496.5 958 Q 579.3 952.5 662.0 958 Q 744.8 952.5 827.5 958 Q 910.3 952.5 993.0 958 Q 1075.8 952.5 1158.5 958 Q 1241.3 952.5 1324.0 958" fill="none" stroke="#1948a0" stroke-width="1" stroke-opacity="0.29"/>
<path d="M 0 953 Q 82.8 949.0 165.5 953 Q 248.3 949.0 331.0 953 Q 413.8 949.0 496.5 953 Q 579.3 949.0 662.0 953 Q 744.8 949.0 827.5 953 Q 910.3 949.0 993.0 953 Q 1075.8 949.0 1158.5 953 Q 1241.3 949.0 1324.0 953" fill="none" stroke="#1948a0" stroke-width="0.7999999999999999" stroke-opacity="0.22999999999999998"/>
<path d="M 0 948 Q 82.8 945.5 165.5 948 Q 248.3 945.5 331.0 948 Q 413.8 945.5 496.5 948 Q 579.3 945.5 662.0 948 Q 744.8 945.5 827.5 948 Q 910.3 945.5 993.0 948 Q 1075.8 945.5 1158.5 948 Q 1241.3 945.5 1324.0 948" fill="none" stroke="#1948a0" stroke-width="0.5999999999999999" stroke-opacity="0.16999999999999998"/>

</svg>