<svg width="1928" height="969" xmlns="http://www.w3.org/2000/svg" viewBox="0 0 1928 969">
<defs>
  <style>
    @import url('https://fonts.googleapis.com/css2?family=Lexend:wght@300;400;600;700&amp;display=swap');
    circle:hover { opacity: 1 !important; r: 6; }
    rect.bar-segment:hover { opacity: 1 !important; }
  </style>

  <linearGradient id="bg" x1="0%" y1="0%" x2="55%" y2="100%">
    <stop offset="0%"   stop-color="#010c1e"/>
    <stop offset="50%"  stop-color="#010f27"/>
    <stop offset="100%" stop-color="#000a18"/>
  </linearGradient>
  <linearGradient id="areaFill" x1="0%" y1="0%" x2="0%" y2="100%">
    <stop offset="0%"   stop-color="#4a90e2" stop-opacity="0.5"/>
    <stop offset="55%"  stop-color="#1a3f7a" stop-opacity="0.18"/>
    <stop offset="100%" stop-color="#000a18" stop-opacity="0"/>
  </linearGradient>
  <linearGradient id="gCommits" x1="0%" y1="0%" x2="100%" y2="0%">
    <stop offset="0%"   stop-color="#ff8c42"/>
    <stop offset="100%" stop-color="#ffd0a0"/>
  </linearGradient>
  <linearGradient id="gChanges" x1="0%" y1="0%" x2="100%" y2="0%">
    <stop offset="0%"   stop-color="#00d4f5" stop-opacity="0.8"/>
    <stop offset="50%"  stop-color="#00d4f5"/>
    <stop offset="100%" stop-color="#80eeff"/>
  </linearGradient>
  <linearGradient id="gBorder" x1="0%" y1="0%" x2="100%" y2="100%">
    <stop offset="0%"   stop-color="#1840a0" stop-opacity="0.9"/>
    <stop offset="50%"  stop-color="#3b82f6" stop-opacity="0.6"/>
    <stop offset="100%" stop-color="#60a5fa" stop-opacity="0.9"/>
  </linearGradient>
  <linearGradient id="gHeader" x1="0%" y1="0%" x2="100%" y2="0%">
    <stop offset="0%"   stop-color="#010c1e" stop-opacity="0"/>
    <stop offset="20%"  stop-color="#091c3e" stop-opacity="0.92"/>
    <stop offset="80%"  stop-color="#091c3e" stop-opacity="0.92"/>
    <stop offset="100%" stop-color="#010c1e" stop-opacity="0"/>
  </linearGradient>
  <linearGradient id="gAddBar" x1="0%" y1="0%" x2="0%" y2="100%">
    <stop offset="0%"   stop-color="#22c55e" stop-opacity="0.95"/>
    <stop offset="100%" stop-color="#22c55e" stop-opacity="0.65"/>
  </linearGradient>
  <linearGradient id="gDelBar" x1="0%" y1="0%" x2="0%" y2="100%">
    <stop offset="0%"   stop-color="#ef4444" stop-opacity="0.9"/>
    <stop offset="100%" stop-color="#ef4444" stop-opacity="0.6"/>
  </linearGradient>

  <filter id="glowOrange" x="-120%" y="-120%" width="340%" height="340%">
    <feGaussianBlur stdDeviation="4" result="b"/>
    <feMerge><feMergeNode in="b"/><feMergeNode in="SourceGraphic"/></feMerge>
  </filter>
  <filter id="glowCyan" x="-120%" y="-120%" width="340%" height="340%">
    <feGaussianBlur stdDeviation="3.5" result="b"/>
    <feMerge><feMergeNode in="b"/><feMergeNode in="SourceGraphic"/></feMerge>
  </filter>
  <filter id="glowTitle">
    <feGaussianBlur stdDeviation="5" result="b"/>
    <feMerge><feMergeNode in="b"/><feMergeNode in="b"/><feMergeNode in="SourceGraphic"/></feMerge>
  </filter>
  <filter id="glowLine" x="-6%" y="-120%" width="112%" height="340%">
    <feGaussianBlur stdDeviation="4.5" result="b"/>
    <feMerge><feMergeNode in="b"/><feMergeNode in="SourceGraphic"/></feMerge>
  </filter>
  <filter id="glowMA" x="-6%" y="-120%" width="112%" height="340%">
    <feGaussianBlur stdDeviation="3" result="b"/>
    <feMerge><feMergeNode in="b"/><feMergeNode in="SourceGraphic"/></feMerge>
  </filter>

  <pattern id="diamondTile" x="0" y="0" width="30" height="30" patternUnits="userSpaceOnUse">
    <path d="M15 2 L28 15 L15 28 L2 15 Z"
      fill="none" stroke="#0d2464" stroke-width="0.4" stroke-opacity="0.25"/>
  </pattern>

  <clipPath id="chartClip">
    <rect x="86" y="130" width="1764" height="360"/>
  </clipPath>
</defs>

<!-- ════ BACKGROUND ════ -->
<rect width="1928" height="969" fill="url(#bg)" rx="16"/>
<rect width="1928" height="969" fill="url(#diamondTile)" rx="16"/>

<!-- ════ BORDERS ════ -->
<rect width="1928" height="969" fill="none" rx="16" stroke="url(#gBorder)" stroke-width="2.2"/>
<rect x="5" y="5" width="1918" height="959" fill="none" rx="13"
  stroke="#1840a0" stroke-width="0.7" stroke-opacity="0.35"/>

<!-- ════ HEADER ════ -->
<rect x="0" y="0" width="1928" height="122" fill="url(#gHeader)" rx="16"/>
<line x1="24" y1="118.0" x2="1904.0" y2="118.0"
    stroke="url(#gBorder)" stroke-width="0.8" stroke-opacity="0.5"/>

<!-- ════ TITLE ════ -->
<text x="968.0" y="44" font-size="18" font-weight="600" fill="#cce8ff"
  text-anchor="middle" font-family="'Lexend','Segoe UI',sans-serif"
  filter="url(#glowTitle)" letter-spacing="5">⬡  COMMIT  ANALYTICS  ⬡</text>
<text x="968.0" y="62" font-size="9.5" fill="#3d7ed4" text-anchor="middle"
  font-family="'Lexend','Segoe UI',sans-serif" letter-spacing="3.5" font-weight="300">kieran-lucas/oop-course-project-uet</text>

<!-- ════ STATS BADGE ════ -->

    <rect x="1702" y="8" width="142" height="92" rx="10"
      fill="#030e26" fill-opacity="0.94" stroke="#2563eb" stroke-width="1.2"/>
    <text x="1773" y="24" font-size="8" fill="#3d7ed4"
      text-anchor="middle" font-family="'Lexend',sans-serif" letter-spacing="2" font-weight="400">TOTAL  COMMITS</text>
    <text x="1773" y="52" font-size="28" font-weight="700" fill="#cce8ff"
      text-anchor="middle" font-family="'Lexend',sans-serif" filter="url(#glowTitle)">523</text>
    <line x1="1718" y1="60" x2="1828" y2="60"
      stroke="#1a3f7a" stroke-width="0.8" stroke-opacity="0.5"/>
    <text x="1749" y="74" font-size="9" fill="#22c55e"
      text-anchor="middle" font-family="'Lexend',sans-serif" font-weight="400">+195.7k</text>
    <text x="1797" y="74" font-size="9" fill="#ef4444"
      text-anchor="middle" font-family="'Lexend',sans-serif" font-weight="400">-170.1k</text>
    <text x="1773" y="90" font-size="8" fill="#3d7ed4"
      text-anchor="middle" font-family="'Lexend',sans-serif" font-weight="300">53 active days · 1.9k files</text>

<!-- ════ LEGEND ════ -->
<g><rect x="612.0" y="90.0" width="24" height="12" rx="3"
        fill="#4a90e2" fill-opacity="0.45" stroke="#4a90e2" stroke-width="1.2"/><text x="643.0" y="100.0" font-size="11" fill="#93c5fd"
      font-family="'Lexend','Segoe UI',sans-serif" font-weight="400">Total Lines</text><line x1="748.0" y1="97.0" x2="772.0" y2="97.0"
        stroke="#ff8c42" stroke-width="2.5" stroke-linecap="round"/><circle cx="760.0" cy="97.0" r="3.5"
        fill="#ff8c42" stroke="#fff" stroke-width="0.6" stroke-opacity="0.3"/><text x="779.0" y="100.0" font-size="11" fill="#93c5fd"
      font-family="'Lexend','Segoe UI',sans-serif" font-weight="400">Commits</text><line x1="856.0" y1="97.0" x2="880.0" y2="97.0"
        stroke="#00d4f5" stroke-width="2.5" stroke-linecap="round"/><circle cx="868.0" cy="97.0" r="3.5"
        fill="#00d4f5" stroke="#fff" stroke-width="0.6" stroke-opacity="0.3"/><text x="887.0" y="100.0" font-size="11" fill="#93c5fd"
      font-family="'Lexend','Segoe UI',sans-serif" font-weight="400">Chg/Commit</text><rect x="991.0" y="90.0" width="12" height="12" rx="2"
        fill="#22c55e" opacity="0.85"/><text x="1016.0" y="100.0" font-size="11" fill="#93c5fd"
      font-family="'Lexend','Segoe UI',sans-serif" font-weight="400">Additions</text><rect x="1113.0" y="90.0" width="12" height="12" rx="2"
        fill="#ef4444" opacity="0.85"/><text x="1138.0" y="100.0" font-size="11" fill="#93c5fd"
      font-family="'Lexend','Segoe UI',sans-serif" font-weight="400">Deletions</text><line x1="1229.0" y1="97.0" x2="1253.0" y2="97.0"
        stroke="#a78bfa" stroke-width="2" stroke-dasharray="5,3" stroke-linecap="round"/><text x="1260.0" y="100.0" font-size="11" fill="#93c5fd"
      font-family="'Lexend','Segoe UI',sans-serif" font-weight="400">7-day MA</text></g>

<!-- ════ AXIS LABELS ════ -->
<text x="16" y="310.0" font-size="9.5" fill="#4a90e2"
    text-anchor="middle" font-family="'Lexend','Segoe UI',sans-serif" letter-spacing="3" font-weight="300"
    transform="rotate(-90, 16, 310.0)">LINES</text>
<text x="1914.0" y="310.0" font-size="9.5"
    fill="#ff8c42" text-anchor="middle" font-family="'Lexend','Segoe UI',sans-serif"
    letter-spacing="3" font-weight="300" opacity="0.8"
    transform="rotate(90, 1914.0, 310.0)">COMMITS</text>

<!-- ════ GRID + Y-LABELS ════ -->
<line x1="86" y1="490.0" x2="1850" y2="490.0"
      stroke="#1a3f7a" stroke-width="1.4"
      stroke-opacity="0.9" stroke-dasharray="none"/><line x1="86" y1="418.0" x2="1850" y2="418.0"
      stroke="#1a3f7a" stroke-width="0.5"
      stroke-opacity="0.3" stroke-dasharray="6,6"/><line x1="86" y1="346.0" x2="1850" y2="346.0"
      stroke="#1a3f7a" stroke-width="0.5"
      stroke-opacity="0.3" stroke-dasharray="6,6"/><line x1="86" y1="274.0" x2="1850" y2="274.0"
      stroke="#1a3f7a" stroke-width="0.5"
      stroke-opacity="0.3" stroke-dasharray="6,6"/><line x1="86" y1="202.0" x2="1850" y2="202.0"
      stroke="#1a3f7a" stroke-width="0.5"
      stroke-opacity="0.3" stroke-dasharray="6,6"/><line x1="86" y1="130.0" x2="1850" y2="130.0"
      stroke="#1a3f7a" stroke-width="0.5"
      stroke-opacity="0.3" stroke-dasharray="6,6"/>
<text x="74" y="494.0" font-size="11" fill="#5aa8ff"
      text-anchor="end" font-family="'Lexend','Segoe UI',sans-serif" font-weight="300">0</text><text x="74" y="422.0" font-size="11" fill="#5aa8ff"
      text-anchor="end" font-family="'Lexend','Segoe UI',sans-serif" font-weight="300">20.0k</text><text x="74" y="350.0" font-size="11" fill="#5aa8ff"
      text-anchor="end" font-family="'Lexend','Segoe UI',sans-serif" font-weight="300">40.0k</text><text x="74" y="278.0" font-size="11" fill="#5aa8ff"
      text-anchor="end" font-family="'Lexend','Segoe UI',sans-serif" font-weight="300">60.0k</text><text x="74" y="206.0" font-size="11" fill="#5aa8ff"
      text-anchor="end" font-family="'Lexend','Segoe UI',sans-serif" font-weight="300">80.0k</text><text x="74" y="134.0" font-size="11" fill="#5aa8ff"
      text-anchor="end" font-family="'Lexend','Segoe UI',sans-serif" font-weight="300">100.0k</text>
<text x="1862" y="494.0" font-size="11" fill="#ff8c42"
      text-anchor="start" font-family="'Lexend','Segoe UI',sans-serif" font-weight="300" opacity="0.85">0</text><text x="1862" y="404.0" font-size="11" fill="#ff8c42"
      text-anchor="start" font-family="'Lexend','Segoe UI',sans-serif" font-weight="300" opacity="0.85">20</text><text x="1862" y="314.0" font-size="11" fill="#ff8c42"
      text-anchor="start" font-family="'Lexend','Segoe UI',sans-serif" font-weight="300" opacity="0.85">40</text><text x="1862" y="224.0" font-size="11" fill="#ff8c42"
      text-anchor="start" font-family="'Lexend','Segoe UI',sans-serif" font-weight="300" opacity="0.85">60</text><text x="1862" y="134.0" font-size="11" fill="#ff8c42"
      text-anchor="start" font-family="'Lexend','Segoe UI',sans-serif" font-weight="300" opacity="0.85">80</text>

<!-- ════ AXIS LINES ════ -->
<line x1="86" y1="130" x2="86" y2="490"
  stroke="#1a3f7a" stroke-width="1.2" stroke-opacity="0.65"/>
<line x1="86" y1="490" x2="1850" y2="490"
  stroke="#1a3f7a" stroke-width="1.4" stroke-opacity="0.8"/>
<line x1="1850" y1="130" x2="1850" y2="490"
  stroke="#ff8c42" stroke-width="0.9" stroke-opacity="0.28"/>

<!-- ════ X-AXIS ════ -->
<text x="86.0" y="514" font-size="10" fill="#5aa8ff"
      text-anchor="end" font-family="'Lexend','Segoe UI',sans-serif" font-weight="300"
      transform="rotate(-42, 86.0, 514)">10 Mar</text><text x="228.3" y="514" font-size="10" fill="#5aa8ff"
      text-anchor="end" font-family="'Lexend','Segoe UI',sans-serif" font-weight="300"
      transform="rotate(-42, 228.3, 514)">15 Mar</text><text x="370.5" y="514" font-size="10" fill="#5aa8ff"
      text-anchor="end" font-family="'Lexend','Segoe UI',sans-serif" font-weight="300"
      transform="rotate(-42, 370.5, 514)">20 Mar</text><text x="512.8" y="514" font-size="10" fill="#5aa8ff"
      text-anchor="end" font-family="'Lexend','Segoe UI',sans-serif" font-weight="300"
      transform="rotate(-42, 512.8, 514)">25 Mar</text><text x="655.0" y="514" font-size="10" fill="#5aa8ff"
      text-anchor="end" font-family="'Lexend','Segoe UI',sans-serif" font-weight="300"
      transform="rotate(-42, 655.0, 514)">30 Mar</text><text x="797.3" y="514" font-size="10" fill="#5aa8ff"
      text-anchor="end" font-family="'Lexend','Segoe UI',sans-serif" font-weight="300"
      transform="rotate(-42, 797.3, 514)">4 Apr</text><text x="939.5" y="514" font-size="10" fill="#5aa8ff"
      text-anchor="end" font-family="'Lexend','Segoe UI',sans-serif" font-weight="300"
      transform="rotate(-42, 939.5, 514)">9 Apr</text><text x="1081.8" y="514" font-size="10" fill="#5aa8ff"
      text-anchor="end" font-family="'Lexend','Segoe UI',sans-serif" font-weight="300"
      transform="rotate(-42, 1081.8, 514)">14 Apr</text><text x="1224.1" y="514" font-size="10" fill="#5aa8ff"
      text-anchor="end" font-family="'Lexend','Segoe UI',sans-serif" font-weight="300"
      transform="rotate(-42, 1224.1, 514)">19 Apr</text><text x="1366.3" y="514" font-size="10" fill="#5aa8ff"
      text-anchor="end" font-family="'Lexend','Segoe UI',sans-serif" font-weight="300"
      transform="rotate(-42, 1366.3, 514)">24 Apr</text><text x="1508.6" y="514" font-size="10" fill="#5aa8ff"
      text-anchor="end" font-family="'Lexend','Segoe UI',sans-serif" font-weight="300"
      transform="rotate(-42, 1508.6, 514)">29 Apr</text><text x="1650.8" y="514" font-size="10" fill="#5aa8ff"
      text-anchor="end" font-family="'Lexend','Segoe UI',sans-serif" font-weight="300"
      transform="rotate(-42, 1650.8, 514)">4 May</text><text x="1793.1" y="514" font-size="10" fill="#5aa8ff"
      text-anchor="end" font-family="'Lexend','Segoe UI',sans-serif" font-weight="300"
      transform="rotate(-42, 1793.1, 514)">9 May</text><text x="1850.0" y="514" font-size="10" fill="#5aa8ff"
      text-anchor="end" font-family="'Lexend','Segoe UI',sans-serif" font-weight="300"
      transform="rotate(-42, 1850.0, 514)">11 May</text>

<!-- ════ CHART CONTENT ════ -->
<g clip-path="url(#chartClip)">
  <!-- Total lines: area + stroke -->
  <path d="M 86.00 490.00 C 90.74 490.00, 104.97 490.00, 114.45 490.00 C 123.94 490.00, 133.42 490.00, 142.90 490.00 C 152.39 490.00, 161.87 490.00, 171.35 490.00 C 180.84 490.00, 190.32 490.00, 199.81 490.00 C 209.29 490.00, 218.77 490.00, 228.26 490.00 C 237.74 490.00, 247.23 490.00, 256.71 490.00 C 266.19 489.98, 275.68 489.92, 285.16 489.91 C 294.65 489.89, 304.13 489.91, 313.61 489.91 C 323.10 489.91, 332.58 489.94, 342.06 489.91 C 351.55 489.87, 361.03 489.72, 370.52 489.69 C 380.00 489.65, 389.48 489.70, 398.97 489.69 C 408.45 489.67, 417.94 489.62, 427.42 489.61 C 436.90 489.59, 446.39 490.00, 455.87 489.61 C 465.35 488.99, 474.84 486.51, 484.32 485.89 C 493.81 485.28, 503.29 485.91, 512.77 485.91 C 522.26 485.91, 531.74 485.90, 541.23 485.90 C 550.71 485.90, 560.19 490.00, 569.68 485.89 C 579.16 443.28, 588.65 274.96, 598.13 230.27 C 607.61 185.59, 617.10 219.88, 626.58 217.78 C 636.06 215.68, 645.55 218.05, 655.03 217.69 C 664.52 217.33, 674.00 216.22, 683.48 215.61 C 692.97 215.00, 702.45 214.42, 711.94 214.05 C 721.42 213.67, 730.90 213.51, 740.39 213.37 C 749.87 213.23, 759.35 213.54, 768.84 213.21 C 778.32 212.88, 787.81 211.70, 797.29 211.39 C 806.77 211.09, 816.26 211.39, 825.74 211.39 C 835.23 211.39, 844.71 211.45, 854.19 211.38 C 863.68 211.31, 873.16 211.03, 882.65 210.96 C 892.13 210.89, 901.61 210.96, 911.10 210.96 C 920.58 210.95, 930.06 210.95, 939.55 210.94 C 949.03 210.94, 958.52 210.92, 968.00 210.92 C 977.48 210.92, 986.97 211.38, 996.45 210.94 C 1005.94 210.50, 1015.42 208.73, 1024.90 208.29 C 1034.39 207.84, 1043.87 208.30, 1053.35 208.29 C 1062.84 208.27, 1072.32 208.21, 1081.81 208.20 C 1091.29 208.18, 1100.77 208.18, 1110.26 208.17 C 1119.74 208.17, 1129.23 208.16, 1138.71 208.16 C 1148.19 208.15, 1157.68 208.15, 1167.16 208.15 C 1176.65 208.14, 1186.13 208.13, 1195.61 208.12 C 1205.10 208.12, 1214.58 208.20, 1224.06 208.11 C 1233.55 208.01, 1243.03 207.65, 1252.52 207.56 C 1262.00 207.47, 1271.48 207.55, 1280.97 207.55 C 1290.45 207.55, 1299.94 207.54, 1309.42 207.54 C 1318.90 207.53, 1328.39 207.53, 1337.87 207.52 C 1347.35 207.52, 1356.84 207.51, 1366.32 207.50 C 1375.81 207.49, 1385.29 207.49, 1394.77 207.49 C 1404.26 207.49, 1413.74 207.49, 1423.23 207.49 C 1432.71 207.49, 1442.19 207.50, 1451.68 207.48 C 1461.16 207.46, 1470.65 207.41, 1480.13 207.39 C 1489.61 207.37, 1499.10 207.38, 1508.58 207.37 C 1518.06 207.37, 1527.55 207.71, 1537.03 207.35 C 1546.52 207.00, 1556.00 205.59, 1565.48 205.24 C 1574.97 204.89, 1584.45 211.15, 1593.94 205.24 C 1603.42 199.33, 1612.90 135.79, 1622.39 169.76 C 1631.87 203.74, 1641.35 369.82, 1650.84 409.09 C 1660.32 448.36, 1669.81 406.13, 1679.29 405.39 C 1688.77 404.64, 1698.26 405.21, 1707.74 404.61 C 1717.23 404.02, 1726.71 403.31, 1736.19 401.81 C 1745.68 400.30, 1755.16 397.30, 1764.65 395.56 C 1774.13 393.83, 1783.61 390.79, 1793.10 391.37 C 1802.58 391.96, 1812.06 397.96, 1821.55 399.09 C 1831.03 400.22, 1845.26 398.33, 1850.00 398.17 L 1850.00 490 L 86.00 490 Z" fill="url(#areaFill)"/>
  <path d="M 86.00 490.00 C 90.74 490.00, 104.97 490.00, 114.45 490.00 C 123.94 490.00, 133.42 490.00, 142.90 490.00 C 152.39 490.00, 161.87 490.00, 171.35 490.00 C 180.84 490.00, 190.32 490.00, 199.81 490.00 C 209.29 490.00, 218.77 490.00, 228.26 490.00 C 237.74 490.00, 247.23 490.00, 256.71 490.00 C 266.19 489.98, 275.68 489.92, 285.16 489.91 C 294.65 489.89, 304.13 489.91, 313.61 489.91 C 323.10 489.91, 332.58 489.94, 342.06 489.91 C 351.55 489.87, 361.03 489.72, 370.52 489.69 C 380.00 489.65, 389.48 489.70, 398.97 489.69 C 408.45 489.67, 417.94 489.62, 427.42 489.61 C 436.90 489.59, 446.39 490.00, 455.87 489.61 C 465.35 488.99, 474.84 486.51, 484.32 485.89 C 493.81 485.28, 503.29 485.91, 512.77 485.91 C 522.26 485.91, 531.74 485.90, 541.23 485.90 C 550.71 485.90, 560.19 490.00, 569.68 485.89 C 579.16 443.28, 588.65 274.96, 598.13 230.27 C 607.61 185.59, 617.10 219.88, 626.58 217.78 C 636.06 215.68, 645.55 218.05, 655.03 217.69 C 664.52 217.33, 674.00 216.22, 683.48 215.61 C 692.97 215.00, 702.45 214.42, 711.94 214.05 C 721.42 213.67, 730.90 213.51, 740.39 213.37 C 749.87 213.23, 759.35 213.54, 768.84 213.21 C 778.32 212.88, 787.81 211.70, 797.29 211.39 C 806.77 211.09, 816.26 211.39, 825.74 211.39 C 835.23 211.39, 844.71 211.45, 854.19 211.38 C 863.68 211.31, 873.16 211.03, 882.65 210.96 C 892.13 210.89, 901.61 210.96, 911.10 210.96 C 920.58 210.95, 930.06 210.95, 939.55 210.94 C 949.03 210.94, 958.52 210.92, 968.00 210.92 C 977.48 210.92, 986.97 211.38, 996.45 210.94 C 1005.94 210.50, 1015.42 208.73, 1024.90 208.29 C 1034.39 207.84, 1043.87 208.30, 1053.35 208.29 C 1062.84 208.27, 1072.32 208.21, 1081.81 208.20 C 1091.29 208.18, 1100.77 208.18, 1110.26 208.17 C 1119.74 208.17, 1129.23 208.16, 1138.71 208.16 C 1148.19 208.15, 1157.68 208.15, 1167.16 208.15 C 1176.65 208.14, 1186.13 208.13, 1195.61 208.12 C 1205.10 208.12, 1214.58 208.20, 1224.06 208.11 C 1233.55 208.01, 1243.03 207.65, 1252.52 207.56 C 1262.00 207.47, 1271.48 207.55, 1280.97 207.55 C 1290.45 207.55, 1299.94 207.54, 1309.42 207.54 C 1318.90 207.53, 1328.39 207.53, 1337.87 207.52 C 1347.35 207.52, 1356.84 207.51, 1366.32 207.50 C 1375.81 207.49, 1385.29 207.49, 1394.77 207.49 C 1404.26 207.49, 1413.74 207.49, 1423.23 207.49 C 1432.71 207.49, 1442.19 207.50, 1451.68 207.48 C 1461.16 207.46, 1470.65 207.41, 1480.13 207.39 C 1489.61 207.37, 1499.10 207.38, 1508.58 207.37 C 1518.06 207.37, 1527.55 207.71, 1537.03 207.35 C 1546.52 207.00, 1556.00 205.59, 1565.48 205.24 C 1574.97 204.89, 1584.45 211.15, 1593.94 205.24 C 1603.42 199.33, 1612.90 135.79, 1622.39 169.76 C 1631.87 203.74, 1641.35 369.82, 1650.84 409.09 C 1660.32 448.36, 1669.81 406.13, 1679.29 405.39 C 1688.77 404.64, 1698.26 405.21, 1707.74 404.61 C 1717.23 404.02, 1726.71 403.31, 1736.19 401.81 C 1745.68 400.30, 1755.16 397.30, 1764.65 395.56 C 1774.13 393.83, 1783.61 390.79, 1793.10 391.37 C 1802.58 391.96, 1812.06 397.96, 1821.55 399.09 C 1831.03 400.22, 1845.26 398.33, 1850.00 398.17" fill="none" stroke="#4a90e2" stroke-width="2" stroke-opacity="0.7"/>

  <!-- Bars -->
  <rect x="476.6" y="312.5" width="15.400000000000002" height="88.1"
        fill="url(#gDelBar)" rx="2" opacity="0.78"/><rect x="476.6" y="400.6" width="15.400000000000002" height="89.4"
        fill="url(#gAddBar)" rx="2" opacity="0.82"/><rect x="590.4" y="392.5" width="15.400000000000002" height="2.7"
        fill="url(#gDelBar)" rx="2" opacity="0.78"/><rect x="590.4" y="395.2" width="15.400000000000002" height="94.8"
        fill="url(#gAddBar)" rx="2" opacity="0.82"/><rect x="618.9" y="476.3" width="15.400000000000002" height="4.6"
        fill="url(#gDelBar)" rx="2" opacity="0.78"/><rect x="618.9" y="480.9" width="15.400000000000002" height="9.1"
        fill="url(#gAddBar)" rx="2" opacity="0.82"/><rect x="675.8" y="487.5" width="15.400000000000002" height="0.9"
        fill="url(#gDelBar)" rx="2" opacity="0.78"/><rect x="675.8" y="488.4" width="15.400000000000002" height="1.6"
        fill="url(#gAddBar)" rx="2" opacity="0.82"/><rect x="704.2" y="487.5" width="15.400000000000002" height="1.0"
        fill="url(#gDelBar)" rx="2" opacity="0.78"/><rect x="704.2" y="488.5" width="15.400000000000002" height="1.5"
        fill="url(#gAddBar)" rx="2" opacity="0.82"/><rect x="761.1" y="487.6" width="15.400000000000002" height="1.2"
        fill="url(#gDelBar)" rx="2" opacity="0.78"/><rect x="761.1" y="488.8" width="15.400000000000002" height="1.2"
        fill="url(#gAddBar)" rx="2" opacity="0.82"/><rect x="789.6" y="486.1" width="15.400000000000002" height="1.6"
        fill="url(#gDelBar)" rx="2" opacity="0.78"/><rect x="789.6" y="487.7" width="15.400000000000002" height="2.3"
        fill="url(#gAddBar)" rx="2" opacity="0.82"/><rect x="1017.2" y="488.8" width="15.400000000000002" height="1.2"
        fill="url(#gAddBar)" rx="2" opacity="0.82"/><rect x="1244.8" y="488.7" width="15.400000000000002" height="0.5"
        fill="url(#gDelBar)" rx="2" opacity="0.78"/><rect x="1244.8" y="489.3" width="15.400000000000002" height="0.7"
        fill="url(#gAddBar)" rx="2" opacity="0.82"/><rect x="1557.8" y="479.7" width="15.400000000000002" height="4.8"
        fill="url(#gDelBar)" rx="2" opacity="0.78"/><rect x="1557.8" y="484.5" width="15.400000000000002" height="5.5"
        fill="url(#gAddBar)" rx="2" opacity="0.82"/><rect x="1614.7" y="472.3" width="15.400000000000002" height="2.5"
        fill="url(#gDelBar)" rx="2" opacity="0.78"/><rect x="1614.7" y="474.8" width="15.400000000000002" height="15.2"
        fill="url(#gAddBar)" rx="2" opacity="0.82"/><rect x="1643.1" y="401.3" width="15.400000000000002" height="87.4"
        fill="url(#gDelBar)" rx="2" opacity="0.78"/><rect x="1643.1" y="488.7" width="15.400000000000002" height="1.3"
        fill="url(#gAddBar)" rx="2" opacity="0.82"/><rect x="1671.6" y="479.5" width="15.400000000000002" height="4.6"
        fill="url(#gDelBar)" rx="2" opacity="0.78"/><rect x="1671.6" y="484.1" width="15.400000000000002" height="5.9"
        fill="url(#gAddBar)" rx="2" opacity="0.82"/><rect x="1700.0" y="488.0" width="15.400000000000002" height="0.9"
        fill="url(#gDelBar)" rx="2" opacity="0.78"/><rect x="1700.0" y="488.8" width="15.400000000000002" height="1.2"
        fill="url(#gAddBar)" rx="2" opacity="0.82"/><rect x="1728.5" y="483.7" width="15.400000000000002" height="2.6"
        fill="url(#gDelBar)" rx="2" opacity="0.78"/><rect x="1728.5" y="486.4" width="15.400000000000002" height="3.6"
        fill="url(#gAddBar)" rx="2" opacity="0.82"/><rect x="1756.9" y="484.0" width="15.400000000000002" height="1.9"
        fill="url(#gDelBar)" rx="2" opacity="0.78"/><rect x="1756.9" y="485.9" width="15.400000000000002" height="4.1"
        fill="url(#gAddBar)" rx="2" opacity="0.82"/><rect x="1785.4" y="476.7" width="15.400000000000002" height="5.9"
        fill="url(#gDelBar)" rx="2" opacity="0.78"/><rect x="1785.4" y="482.6" width="15.400000000000002" height="7.4"
        fill="url(#gAddBar)" rx="2" opacity="0.82"/><rect x="1813.8" y="484.2" width="15.400000000000002" height="4.3"
        fill="url(#gDelBar)" rx="2" opacity="0.78"/><rect x="1813.8" y="488.5" width="15.400000000000002" height="1.5"
        fill="url(#gAddBar)" rx="2" opacity="0.82"/><rect x="1842.3" y="489.5" width="15.400000000000002" height="0.5"
        fill="url(#gAddBar)" rx="2" opacity="0.82"/>

  <!-- Commits line — glow + crisp -->
  <path d="M 86.00 485.50 C 90.74 486.25, 104.97 489.25, 114.45 490.00 C 123.94 490.00, 133.42 490.00, 142.90 490.00 C 152.39 490.00, 161.87 490.00, 171.35 490.00 C 180.84 490.00, 190.32 490.00, 199.81 490.00 C 209.29 490.00, 218.77 490.00, 228.26 490.00 C 237.74 490.00, 247.23 490.00, 256.71 490.00 C 266.19 482.50, 275.68 445.00, 285.16 445.00 C 294.65 445.00, 304.13 482.50, 313.61 490.00 C 323.10 490.00, 332.58 490.00, 342.06 490.00 C 351.55 470.50, 361.03 373.00, 370.52 373.00 C 380.00 373.00, 389.48 471.25, 398.97 490.00 C 408.45 490.00, 417.94 485.50, 427.42 485.50 C 436.90 485.50, 446.39 490.00, 455.87 490.00 C 465.35 466.75, 474.84 351.25, 484.32 346.00 C 493.81 340.75, 503.29 436.75, 512.77 458.50 C 522.26 480.25, 531.74 472.00, 541.23 476.50 C 550.71 481.00, 560.19 490.00, 569.68 485.50 C 579.16 438.25, 588.65 225.25, 598.13 193.00 C 607.61 160.75, 617.10 244.00, 626.58 292.00 C 636.06 340.00, 645.55 460.00, 655.03 481.00 C 664.52 490.00, 674.00 427.00, 683.48 418.00 C 692.97 409.00, 702.45 416.50, 711.94 427.00 C 721.42 437.50, 730.90 488.50, 740.39 481.00 C 749.87 473.50, 759.35 394.00, 768.84 382.00 C 778.32 370.00, 787.81 391.75, 797.29 409.00 C 806.77 426.25, 816.26 472.75, 825.74 485.50 C 835.23 490.00, 844.71 490.00, 854.19 485.50 C 863.68 479.50, 873.16 449.50, 882.65 449.50 C 892.13 449.50, 901.61 479.50, 911.10 485.50 C 920.58 490.00, 930.06 485.50, 939.55 485.50 C 949.03 485.50, 958.52 485.50, 968.00 485.50 C 977.48 485.50, 986.97 487.75, 996.45 485.50 C 1005.94 483.25, 1015.42 472.00, 1024.90 472.00 C 1034.39 472.00, 1043.87 483.25, 1053.35 485.50 C 1062.84 487.75, 1072.32 485.50, 1081.81 485.50 C 1091.29 485.50, 1100.77 485.50, 1110.26 485.50 C 1119.74 485.50, 1129.23 485.50, 1138.71 485.50 C 1148.19 485.50, 1157.68 485.50, 1167.16 485.50 C 1176.65 485.50, 1186.13 485.50, 1195.61 485.50 C 1205.10 485.50, 1214.58 487.00, 1224.06 485.50 C 1233.55 484.00, 1243.03 476.50, 1252.52 476.50 C 1262.00 476.50, 1271.48 484.00, 1280.97 485.50 C 1290.45 487.00, 1299.94 485.50, 1309.42 485.50 C 1318.90 485.50, 1328.39 485.50, 1337.87 485.50 C 1347.35 485.50, 1356.84 485.50, 1366.32 485.50 C 1375.81 485.50, 1385.29 485.50, 1394.77 485.50 C 1404.26 485.50, 1413.74 485.50, 1423.23 485.50 C 1432.71 485.50, 1442.19 485.50, 1451.68 485.50 C 1461.16 485.50, 1470.65 485.50, 1480.13 485.50 C 1489.61 485.50, 1499.10 485.50, 1508.58 485.50 C 1518.06 485.50, 1527.55 489.25, 1537.03 485.50 C 1546.52 481.75, 1556.00 463.00, 1565.48 463.00 C 1574.97 463.00, 1584.45 490.00, 1593.94 485.50 C 1603.42 460.75, 1612.90 321.25, 1622.39 314.50 C 1631.87 307.75, 1641.35 443.50, 1650.84 445.00 C 1660.32 446.50, 1669.81 322.75, 1679.29 323.50 C 1688.77 324.25, 1698.26 431.50, 1707.74 449.50 C 1717.23 467.50, 1726.71 431.50, 1736.19 431.50 C 1745.68 431.50, 1755.16 484.75, 1764.65 449.50 C 1774.13 414.25, 1783.61 229.75, 1793.10 220.00 C 1802.58 210.25, 1812.06 354.25, 1821.55 391.00 C 1831.03 427.75, 1845.26 432.25, 1850.00 440.50" fill="none" stroke="#ff8c42" stroke-width="9" stroke-opacity="0.06" filter="url(#glowLine)"/>
  <path d="M 86.00 485.50 C 90.74 486.25, 104.97 489.25, 114.45 490.00 C 123.94 490.00, 133.42 490.00, 142.90 490.00 C 152.39 490.00, 161.87 490.00, 171.35 490.00 C 180.84 490.00, 190.32 490.00, 199.81 490.00 C 209.29 490.00, 218.77 490.00, 228.26 490.00 C 237.74 490.00, 247.23 490.00, 256.71 490.00 C 266.19 482.50, 275.68 445.00, 285.16 445.00 C 294.65 445.00, 304.13 482.50, 313.61 490.00 C 323.10 490.00, 332.58 490.00, 342.06 490.00 C 351.55 470.50, 361.03 373.00, 370.52 373.00 C 380.00 373.00, 389.48 471.25, 398.97 490.00 C 408.45 490.00, 417.94 485.50, 427.42 485.50 C 436.90 485.50, 446.39 490.00, 455.87 490.00 C 465.35 466.75, 474.84 351.25, 484.32 346.00 C 493.81 340.75, 503.29 436.75, 512.77 458.50 C 522.26 480.25, 531.74 472.00, 541.23 476.50 C 550.71 481.00, 560.19 490.00, 569.68 485.50 C 579.16 438.25, 588.65 225.25, 598.13 193.00 C 607.61 160.75, 617.10 244.00, 626.58 292.00 C 636.06 340.00, 645.55 460.00, 655.03 481.00 C 664.52 490.00, 674.00 427.00, 683.48 418.00 C 692.97 409.00, 702.45 416.50, 711.94 427.00 C 721.42 437.50, 730.90 488.50, 740.39 481.00 C 749.87 473.50, 759.35 394.00, 768.84 382.00 C 778.32 370.00, 787.81 391.75, 797.29 409.00 C 806.77 426.25, 816.26 472.75, 825.74 485.50 C 835.23 490.00, 844.71 490.00, 854.19 485.50 C 863.68 479.50, 873.16 449.50, 882.65 449.50 C 892.13 449.50, 901.61 479.50, 911.10 485.50 C 920.58 490.00, 930.06 485.50, 939.55 485.50 C 949.03 485.50, 958.52 485.50, 968.00 485.50 C 977.48 485.50, 986.97 487.75, 996.45 485.50 C 1005.94 483.25, 1015.42 472.00, 1024.90 472.00 C 1034.39 472.00, 1043.87 483.25, 1053.35 485.50 C 1062.84 487.75, 1072.32 485.50, 1081.81 485.50 C 1091.29 485.50, 1100.77 485.50, 1110.26 485.50 C 1119.74 485.50, 1129.23 485.50, 1138.71 485.50 C 1148.19 485.50, 1157.68 485.50, 1167.16 485.50 C 1176.65 485.50, 1186.13 485.50, 1195.61 485.50 C 1205.10 485.50, 1214.58 487.00, 1224.06 485.50 C 1233.55 484.00, 1243.03 476.50, 1252.52 476.50 C 1262.00 476.50, 1271.48 484.00, 1280.97 485.50 C 1290.45 487.00, 1299.94 485.50, 1309.42 485.50 C 1318.90 485.50, 1328.39 485.50, 1337.87 485.50 C 1347.35 485.50, 1356.84 485.50, 1366.32 485.50 C 1375.81 485.50, 1385.29 485.50, 1394.77 485.50 C 1404.26 485.50, 1413.74 485.50, 1423.23 485.50 C 1432.71 485.50, 1442.19 485.50, 1451.68 485.50 C 1461.16 485.50, 1470.65 485.50, 1480.13 485.50 C 1489.61 485.50, 1499.10 485.50, 1508.58 485.50 C 1518.06 485.50, 1527.55 489.25, 1537.03 485.50 C 1546.52 481.75, 1556.00 463.00, 1565.48 463.00 C 1574.97 463.00, 1584.45 490.00, 1593.94 485.50 C 1603.42 460.75, 1612.90 321.25, 1622.39 314.50 C 1631.87 307.75, 1641.35 443.50, 1650.84 445.00 C 1660.32 446.50, 1669.81 322.75, 1679.29 323.50 C 1688.77 324.25, 1698.26 431.50, 1707.74 449.50 C 1717.23 467.50, 1726.71 431.50, 1736.19 431.50 C 1745.68 431.50, 1755.16 484.75, 1764.65 449.50 C 1774.13 414.25, 1783.61 229.75, 1793.10 220.00 C 1802.58 210.25, 1812.06 354.25, 1821.55 391.00 C 1831.03 427.75, 1845.26 432.25, 1850.00 440.50" fill="none" stroke="url(#gCommits)" stroke-width="2.8" stroke-linecap="round"/>

  <!-- Changes/commit line -->
  <path d="M 86.00 489.95 C 90.74 489.96, 104.97 489.99, 114.45 490.00 C 123.94 490.00, 133.42 490.00, 142.90 490.00 C 152.39 490.00, 161.87 490.00, 171.35 490.00 C 180.84 490.00, 190.32 490.00, 199.81 490.00 C 209.29 490.00, 218.77 490.00, 228.26 490.00 C 237.74 490.00, 247.23 490.00, 256.71 490.00 C 266.19 489.97, 275.68 489.82, 285.16 489.82 C 294.65 489.82, 304.13 489.97, 313.61 490.00 C 323.10 490.00, 332.58 490.00, 342.06 490.00 C 351.55 489.98, 361.03 489.87, 370.52 489.87 C 380.00 489.87, 389.48 490.00, 398.97 490.00 C 408.45 489.86, 417.94 489.01, 427.42 489.01 C 436.90 489.01, 446.39 490.00, 455.87 490.00 C 465.35 458.07, 474.84 297.56, 484.32 297.44 C 493.81 297.33, 503.29 457.62, 512.77 489.32 C 522.26 490.00, 531.74 487.94, 541.23 487.66 C 550.71 487.38, 560.19 490.00, 569.68 487.66 C 579.16 479.50, 588.65 440.12, 598.13 438.70 C 607.61 437.28, 617.10 472.11, 626.58 479.15 C 636.06 486.20, 645.55 480.05, 655.03 480.95 C 664.52 481.86, 674.00 484.08, 683.48 484.56 C 692.97 485.03, 702.45 483.86, 711.94 483.79 C 721.42 483.72, 730.90 483.70, 740.39 484.15 C 749.87 484.60, 759.35 486.76, 768.84 486.49 C 778.32 486.22, 787.81 482.59, 797.29 482.53 C 806.77 482.47, 816.26 486.48, 825.74 486.13 C 835.23 485.78, 844.71 480.26, 854.19 480.46 C 863.68 480.65, 873.16 486.26, 882.65 487.30 C 892.13 488.34, 901.61 487.88, 911.10 486.67 C 920.58 485.46, 930.06 481.23, 939.55 480.01 C 949.03 478.79, 958.52 479.49, 968.00 479.38 C 977.48 479.27, 986.97 479.64, 996.45 479.38 C 1005.94 479.12, 1015.42 476.63, 1024.90 477.81 C 1034.39 478.98, 1043.87 487.00, 1053.35 486.40 C 1062.84 485.80, 1072.32 475.51, 1081.81 474.20 C 1091.29 472.90, 1100.77 477.86, 1110.26 478.57 C 1119.74 479.28, 1129.23 478.50, 1138.71 478.48 C 1148.19 478.47, 1157.68 478.53, 1167.16 478.48 C 1176.65 478.44, 1186.13 478.31, 1195.61 478.21 C 1205.10 478.10, 1214.58 478.32, 1224.06 477.85 C 1233.55 477.38, 1243.03 473.94, 1252.52 475.38 C 1262.00 476.81, 1271.48 486.17, 1280.97 486.49 C 1290.45 486.81, 1299.94 478.88, 1309.42 477.31 C 1318.90 475.74, 1328.39 477.16, 1337.87 477.04 C 1347.35 476.92, 1356.84 476.71, 1366.32 476.59 C 1375.81 476.47, 1385.29 476.35, 1394.77 476.32 C 1404.26 476.29, 1413.74 476.46, 1423.23 476.41 C 1432.71 476.37, 1442.19 477.12, 1451.68 476.05 C 1461.16 474.98, 1470.65 469.96, 1480.13 469.98 C 1489.61 469.99, 1499.10 477.21, 1508.58 476.14 C 1518.06 475.07, 1527.55 471.21, 1537.03 463.54 C 1546.52 455.88, 1556.00 426.34, 1565.48 430.15 C 1574.97 433.96, 1584.45 479.05, 1593.94 486.40 C 1603.42 490.00, 1612.90 490.00, 1622.39 474.25 C 1631.87 423.52, 1641.35 181.04, 1650.84 182.02 C 1660.32 183.00, 1669.81 430.11, 1679.29 480.14 C 1688.77 490.00, 1698.26 483.37, 1707.74 482.21 C 1717.23 481.06, 1726.71 475.81, 1736.19 473.21 C 1745.68 470.62, 1755.16 465.14, 1764.65 466.64 C 1774.13 468.15, 1783.61 479.89, 1793.10 482.26 C 1802.58 484.63, 1812.06 479.94, 1821.55 480.87 C 1831.03 481.80, 1845.26 486.68, 1850.00 487.84" fill="none" stroke="#00d4f5" stroke-width="9" stroke-opacity="0.06" filter="url(#glowLine)"/>
  <path d="M 86.00 489.95 C 90.74 489.96, 104.97 489.99, 114.45 490.00 C 123.94 490.00, 133.42 490.00, 142.90 490.00 C 152.39 490.00, 161.87 490.00, 171.35 490.00 C 180.84 490.00, 190.32 490.00, 199.81 490.00 C 209.29 490.00, 218.77 490.00, 228.26 490.00 C 237.74 490.00, 247.23 490.00, 256.71 490.00 C 266.19 489.97, 275.68 489.82, 285.16 489.82 C 294.65 489.82, 304.13 489.97, 313.61 490.00 C 323.10 490.00, 332.58 490.00, 342.06 490.00 C 351.55 489.98, 361.03 489.87, 370.52 489.87 C 380.00 489.87, 389.48 490.00, 398.97 490.00 C 408.45 489.86, 417.94 489.01, 427.42 489.01 C 436.90 489.01, 446.39 490.00, 455.87 490.00 C 465.35 458.07, 474.84 297.56, 484.32 297.44 C 493.81 297.33, 503.29 457.62, 512.77 489.32 C 522.26 490.00, 531.74 487.94, 541.23 487.66 C 550.71 487.38, 560.19 490.00, 569.68 487.66 C 579.16 479.50, 588.65 440.12, 598.13 438.70 C 607.61 437.28, 617.10 472.11, 626.58 479.15 C 636.06 486.20, 645.55 480.05, 655.03 480.95 C 664.52 481.86, 674.00 484.08, 683.48 484.56 C 692.97 485.03, 702.45 483.86, 711.94 483.79 C 721.42 483.72, 730.90 483.70, 740.39 484.15 C 749.87 484.60, 759.35 486.76, 768.84 486.49 C 778.32 486.22, 787.81 482.59, 797.29 482.53 C 806.77 482.47, 816.26 486.48, 825.74 486.13 C 835.23 485.78, 844.71 480.26, 854.19 480.46 C 863.68 480.65, 873.16 486.26, 882.65 487.30 C 892.13 488.34, 901.61 487.88, 911.10 486.67 C 920.58 485.46, 930.06 481.23, 939.55 480.01 C 949.03 478.79, 958.52 479.49, 968.00 479.38 C 977.48 479.27, 986.97 479.64, 996.45 479.38 C 1005.94 479.12, 1015.42 476.63, 1024.90 477.81 C 1034.39 478.98, 1043.87 487.00, 1053.35 486.40 C 1062.84 485.80, 1072.32 475.51, 1081.81 474.20 C 1091.29 472.90, 1100.77 477.86, 1110.26 478.57 C 1119.74 479.28, 1129.23 478.50, 1138.71 478.48 C 1148.19 478.47, 1157.68 478.53, 1167.16 478.48 C 1176.65 478.44, 1186.13 478.31, 1195.61 478.21 C 1205.10 478.10, 1214.58 478.32, 1224.06 477.85 C 1233.55 477.38, 1243.03 473.94, 1252.52 475.38 C 1262.00 476.81, 1271.48 486.17, 1280.97 486.49 C 1290.45 486.81, 1299.94 478.88, 1309.42 477.31 C 1318.90 475.74, 1328.39 477.16, 1337.87 477.04 C 1347.35 476.92, 1356.84 476.71, 1366.32 476.59 C 1375.81 476.47, 1385.29 476.35, 1394.77 476.32 C 1404.26 476.29, 1413.74 476.46, 1423.23 476.41 C 1432.71 476.37, 1442.19 477.12, 1451.68 476.05 C 1461.16 474.98, 1470.65 469.96, 1480.13 469.98 C 1489.61 469.99, 1499.10 477.21, 1508.58 476.14 C 1518.06 475.07, 1527.55 471.21, 1537.03 463.54 C 1546.52 455.88, 1556.00 426.34, 1565.48 430.15 C 1574.97 433.96, 1584.45 479.05, 1593.94 486.40 C 1603.42 490.00, 1612.90 490.00, 1622.39 474.25 C 1631.87 423.52, 1641.35 181.04, 1650.84 182.02 C 1660.32 183.00, 1669.81 430.11, 1679.29 480.14 C 1688.77 490.00, 1698.26 483.37, 1707.74 482.21 C 1717.23 481.06, 1726.71 475.81, 1736.19 473.21 C 1745.68 470.62, 1755.16 465.14, 1764.65 466.64 C 1774.13 468.15, 1783.61 479.89, 1793.10 482.26 C 1802.58 484.63, 1812.06 479.94, 1821.55 480.87 C 1831.03 481.80, 1845.26 486.68, 1850.00 487.84" fill="none" stroke="url(#gChanges)" stroke-width="2.5" stroke-linecap="round"/>

  <!-- Moving averages -->
  <path d="M 86.00 488.88 C 90.74 488.91, 104.97 489.04, 114.45 489.10 C 123.94 489.16, 133.42 489.21, 142.90 489.25 C 152.39 489.29, 161.87 490.00, 171.35 489.36 C 180.84 488.41, 190.32 484.54, 199.81 483.57 C 209.29 482.61, 218.77 483.57, 228.26 483.57 C 237.74 483.57, 247.23 486.36, 256.71 483.57 C 266.19 480.79, 275.68 469.64, 285.16 466.86 C 294.65 464.07, 304.13 466.96, 313.61 466.86 C 323.10 466.75, 332.58 466.32, 342.06 466.21 C 351.55 466.11, 361.03 468.57, 370.52 466.21 C 380.00 463.86, 389.48 455.18, 398.97 452.07 C 408.45 448.96, 417.94 448.64, 427.42 447.57 C 436.90 446.50, 446.39 443.29, 455.87 445.64 C 465.35 448.00, 474.84 466.11, 484.32 461.71 C 493.81 457.32, 503.29 430.96, 512.77 419.29 C 522.26 407.61, 531.74 396.46, 541.23 391.64 C 550.71 386.82, 560.19 388.86, 569.68 390.36 C 579.16 391.86, 588.65 399.68, 598.13 400.64 C 607.61 401.61, 617.10 396.79, 626.58 396.14 C 636.06 395.50, 645.55 399.14, 655.03 396.79 C 664.52 394.43, 674.00 379.32, 683.48 382.00 C 692.97 384.68, 702.45 403.11, 711.94 412.86 C 721.42 422.61, 730.90 435.79, 740.39 440.50 C 749.87 445.21, 759.35 440.29, 768.84 441.14 C 778.32 442.00, 787.81 443.50, 797.29 445.64 C 806.77 447.79, 816.26 452.50, 825.74 454.00 C 835.23 455.50, 844.71 452.07, 854.19 454.64 C 863.68 457.21, 873.16 465.14, 882.65 469.43 C 892.13 473.71, 901.61 478.86, 911.10 480.36 C 920.58 481.86, 930.06 478.75, 939.55 478.43 C 949.03 478.11, 958.52 477.57, 968.00 478.43 C 977.48 479.29, 986.97 482.71, 996.45 483.57 C 1005.94 484.43, 1015.42 483.57, 1024.90 483.57 C 1034.39 483.57, 1043.87 483.57, 1053.35 483.57 C 1062.84 483.57, 1072.32 483.57, 1081.81 483.57 C 1091.29 483.57, 1100.77 483.25, 1110.26 483.57 C 1119.74 483.89, 1129.23 485.39, 1138.71 485.50 C 1148.19 485.61, 1157.68 484.43, 1167.16 484.21 C 1176.65 484.00, 1186.13 484.21, 1195.61 484.21 C 1205.10 484.21, 1214.58 484.21, 1224.06 484.21 C 1233.55 484.21, 1243.03 484.21, 1252.52 484.21 C 1262.00 484.21, 1271.48 484.21, 1280.97 484.21 C 1290.45 484.21, 1299.94 484.21, 1309.42 484.21 C 1318.90 484.21, 1328.39 484.00, 1337.87 484.21 C 1347.35 484.43, 1356.84 485.29, 1366.32 485.50 C 1375.81 485.71, 1385.29 485.50, 1394.77 485.50 C 1404.26 485.50, 1413.74 485.50, 1423.23 485.50 C 1432.71 485.50, 1442.19 486.04, 1451.68 485.50 C 1461.16 484.96, 1470.65 482.82, 1480.13 482.29 C 1489.61 481.75, 1499.10 486.36, 1508.58 482.29 C 1518.06 478.21, 1527.55 462.89, 1537.03 457.86 C 1546.52 452.82, 1556.00 456.89, 1565.48 452.07 C 1574.97 447.25, 1584.45 433.64, 1593.94 428.93 C 1603.42 424.21, 1612.90 425.93, 1622.39 423.79 C 1631.87 421.64, 1641.35 417.68, 1650.84 416.07 C 1660.32 414.46, 1669.81 420.79, 1679.29 414.14 C 1688.77 407.50, 1698.26 380.71, 1707.74 376.21 C 1717.23 371.71, 1726.71 385.43, 1736.19 387.14 C 1745.68 388.86, 1755.16 384.86, 1764.65 386.50 C 1774.13 388.14, 1783.61 397.00, 1793.10 397.00 C 1802.58 397.00, 1812.06 390.13, 1821.55 386.50 C 1831.03 382.88, 1845.26 377.13, 1850.00 375.25" fill="none" stroke="#a78bfa" stroke-width="2" stroke-dasharray="6,4" stroke-opacity="0.55" filter="url(#glowMA)"/>
  <path d="M 86.00 489.99 C 90.74 489.99, 104.97 489.99, 114.45 489.99 C 123.94 489.99, 133.42 489.99, 142.90 489.99 C 152.39 489.99, 161.87 490.00, 171.35 489.99 C 180.84 489.99, 190.32 489.98, 199.81 489.97 C 209.29 489.97, 218.77 489.97, 228.26 489.97 C 237.74 489.97, 247.23 489.98, 256.71 489.97 C 266.19 489.97, 275.68 489.96, 285.16 489.95 C 294.65 489.95, 304.13 489.98, 313.61 489.95 C 323.10 489.93, 332.58 489.84, 342.06 489.81 C 351.55 489.79, 361.03 490.00, 370.52 489.81 C 380.00 485.23, 389.48 466.93, 398.97 462.33 C 408.45 457.73, 417.94 462.31, 427.42 462.24 C 436.90 462.16, 446.39 462.01, 455.87 461.90 C 465.35 461.79, 474.84 462.86, 484.32 461.59 C 493.81 460.31, 503.29 455.71, 512.77 454.26 C 522.26 452.80, 531.74 453.30, 541.23 452.85 C 550.71 452.40, 560.19 447.32, 569.68 451.56 C 579.16 455.80, 588.65 473.96, 598.13 478.29 C 607.61 482.61, 617.10 477.71, 626.58 477.50 C 636.06 477.28, 645.55 477.11, 655.03 477.00 C 664.52 476.88, 674.00 475.81, 683.48 476.83 C 692.97 477.84, 702.45 481.88, 711.94 483.09 C 721.42 484.30, 730.90 483.93, 740.39 484.09 C 749.87 484.24, 759.35 483.96, 768.84 484.01 C 778.32 484.07, 787.81 484.27, 797.29 484.41 C 806.77 484.54, 816.26 484.85, 825.74 484.82 C 835.23 484.79, 844.71 484.50, 854.19 484.23 C 863.68 483.96, 873.16 483.46, 882.65 483.21 C 892.13 482.97, 901.61 483.03, 911.10 482.76 C 920.58 482.49, 930.06 481.63, 939.55 481.57 C 949.03 481.52, 958.52 482.59, 968.00 482.42 C 977.48 482.25, 986.97 481.05, 996.45 480.55 C 1005.94 480.05, 1015.42 479.62, 1024.90 479.39 C 1034.39 479.16, 1043.87 479.23, 1053.35 479.17 C 1062.84 479.12, 1072.32 479.09, 1081.81 479.05 C 1091.29 479.00, 1100.77 478.91, 1110.26 478.88 C 1119.74 478.85, 1129.23 479.15, 1138.71 478.88 C 1148.19 478.62, 1157.68 477.28, 1167.16 477.31 C 1176.65 477.34, 1186.13 478.80, 1195.61 479.06 C 1205.10 479.33, 1214.58 478.95, 1224.06 478.88 C 1233.55 478.82, 1243.03 478.76, 1252.52 478.68 C 1262.00 478.60, 1271.48 478.50, 1280.97 478.41 C 1290.45 478.32, 1299.94 478.22, 1309.42 478.14 C 1318.90 478.06, 1328.39 477.95, 1337.87 477.93 C 1347.35 477.92, 1356.84 478.41, 1366.32 478.03 C 1375.81 477.65, 1385.29 476.09, 1394.77 475.67 C 1404.26 475.25, 1413.74 475.85, 1423.23 475.50 C 1432.71 475.15, 1442.19 475.00, 1451.68 473.57 C 1461.16 472.15, 1470.65 467.81, 1480.13 466.94 C 1489.61 466.08, 1499.10 468.19, 1508.58 468.38 C 1518.06 468.57, 1527.55 475.12, 1537.03 468.07 C 1546.52 461.02, 1556.00 432.83, 1565.48 426.07 C 1574.97 419.31, 1584.45 427.13, 1593.94 427.52 C 1603.42 427.91, 1612.90 428.01, 1622.39 428.39 C 1631.87 428.76, 1641.35 428.67, 1650.84 429.77 C 1660.32 430.87, 1669.81 434.21, 1679.29 434.98 C 1688.77 435.75, 1698.26 434.33, 1707.74 434.39 C 1717.23 434.45, 1726.71 427.90, 1736.19 435.34 C 1745.68 442.78, 1755.16 471.78, 1764.65 479.03 C 1774.13 486.28, 1783.61 478.98, 1793.10 478.84 C 1802.58 478.70, 1812.06 478.07, 1821.55 478.17 C 1831.03 478.26, 1845.26 479.20, 1850.00 479.40" fill="none" stroke="#c4b5fd" stroke-width="1.5" stroke-dasharray="5,4" stroke-opacity="0.4"/>

  <!-- Statistical overlay -->
  <line x1="86" y1="445.6" x2="1850" y2="445.6"
      stroke="#ff8c42" stroke-width="1" stroke-dasharray="8,4" opacity="0.3"/>
    <text x="1862" y="439.6" font-size="8" fill="#ff8c42"
      text-anchor="start" font-family="'Lexend','Segoe UI',sans-serif" font-weight="300" opacity="0.6">μ=9.9</text>

  <!-- Data point circles (inside clip for safety) -->
  <circle cx="86.0" cy="485.5" r="3.0"
        fill="#ff8c42" stroke="#ffd0a0" stroke-width="1" filter="url(#glowOrange)" opacity="0.9">
        <title>2026-03-10: 1 commits</title></circle><circle cx="285.2" cy="445.0" r="3.3"
        fill="#ff8c42" stroke="#ffd0a0" stroke-width="1" filter="url(#glowOrange)" opacity="0.9">
        <title>2026-03-17: 10 commits</title></circle><circle cx="370.5" cy="373.0" r="3.8"
        fill="#ff8c42" stroke="#ffd0a0" stroke-width="1" filter="url(#glowOrange)" opacity="0.9">
        <title>2026-03-20: 26 commits</title></circle><circle cx="427.4" cy="485.5" r="3.0"
        fill="#ff8c42" stroke="#ffd0a0" stroke-width="1" filter="url(#glowOrange)" opacity="0.9">
        <title>2026-03-22: 1 commits</title></circle><circle cx="484.3" cy="346.0" r="4.0"
        fill="#ff8c42" stroke="#ffd0a0" stroke-width="1" filter="url(#glowOrange)" opacity="0.9">
        <title>2026-03-24: 32 commits</title></circle><circle cx="512.8" cy="458.5" r="3.2"
        fill="#ff8c42" stroke="#ffd0a0" stroke-width="1" filter="url(#glowOrange)" opacity="0.9">
        <title>2026-03-25: 7 commits</title></circle><circle cx="541.2" cy="476.5" r="3.1"
        fill="#ff8c42" stroke="#ffd0a0" stroke-width="1" filter="url(#glowOrange)" opacity="0.9">
        <title>2026-03-26: 3 commits</title></circle><circle cx="569.7" cy="485.5" r="3.0"
        fill="#ff8c42" stroke="#ffd0a0" stroke-width="1" filter="url(#glowOrange)" opacity="0.9">
        <title>2026-03-27: 1 commits</title></circle><circle cx="598.1" cy="193.0" r="5.1"
        fill="#ff8c42" stroke="#ffd0a0" stroke-width="1" filter="url(#glowOrange)" opacity="0.9">
        <title>2026-03-28: 66 commits</title></circle><circle cx="626.6" cy="292.0" r="4.4"
        fill="#ff8c42" stroke="#ffd0a0" stroke-width="1" filter="url(#glowOrange)" opacity="0.9">
        <title>2026-03-29: 44 commits</title></circle><circle cx="655.0" cy="481.0" r="3.1"
        fill="#ff8c42" stroke="#ffd0a0" stroke-width="1" filter="url(#glowOrange)" opacity="0.9">
        <title>2026-03-30: 2 commits</title></circle><circle cx="683.5" cy="418.0" r="3.5"
        fill="#ff8c42" stroke="#ffd0a0" stroke-width="1" filter="url(#glowOrange)" opacity="0.9">
        <title>2026-03-31: 16 commits</title></circle><circle cx="711.9" cy="427.0" r="3.4"
        fill="#ff8c42" stroke="#ffd0a0" stroke-width="1" filter="url(#glowOrange)" opacity="0.9">
        <title>2026-04-01: 14 commits</title></circle><circle cx="740.4" cy="481.0" r="3.1"
        fill="#ff8c42" stroke="#ffd0a0" stroke-width="1" filter="url(#glowOrange)" opacity="0.9">
        <title>2026-04-02: 2 commits</title></circle><circle cx="768.8" cy="382.0" r="3.8"
        fill="#ff8c42" stroke="#ffd0a0" stroke-width="1" filter="url(#glowOrange)" opacity="0.9">
        <title>2026-04-03: 24 commits</title></circle><circle cx="797.3" cy="409.0" r="3.6"
        fill="#ff8c42" stroke="#ffd0a0" stroke-width="1" filter="url(#glowOrange)" opacity="0.9">
        <title>2026-04-04: 18 commits</title></circle><circle cx="825.7" cy="485.5" r="3.0"
        fill="#ff8c42" stroke="#ffd0a0" stroke-width="1" filter="url(#glowOrange)" opacity="0.9">
        <title>2026-04-05: 1 commits</title></circle><circle cx="854.2" cy="485.5" r="3.0"
        fill="#ff8c42" stroke="#ffd0a0" stroke-width="1" filter="url(#glowOrange)" opacity="0.9">
        <title>2026-04-06: 1 commits</title></circle><circle cx="882.6" cy="449.5" r="3.3"
        fill="#ff8c42" stroke="#ffd0a0" stroke-width="1" filter="url(#glowOrange)" opacity="0.9">
        <title>2026-04-07: 9 commits</title></circle><circle cx="911.1" cy="485.5" r="3.0"
        fill="#ff8c42" stroke="#ffd0a0" stroke-width="1" filter="url(#glowOrange)" opacity="0.9">
        <title>2026-04-08: 1 commits</title></circle><circle cx="939.5" cy="485.5" r="3.0"
        fill="#ff8c42" stroke="#ffd0a0" stroke-width="1" filter="url(#glowOrange)" opacity="0.9">
        <title>2026-04-09: 1 commits</title></circle><circle cx="968.0" cy="485.5" r="3.0"
        fill="#ff8c42" stroke="#ffd0a0" stroke-width="1" filter="url(#glowOrange)" opacity="0.9">
        <title>2026-04-10: 1 commits</title></circle><circle cx="996.5" cy="485.5" r="3.0"
        fill="#ff8c42" stroke="#ffd0a0" stroke-width="1" filter="url(#glowOrange)" opacity="0.9">
        <title>2026-04-11: 1 commits</title></circle><circle cx="1024.9" cy="472.0" r="3.1"
        fill="#ff8c42" stroke="#ffd0a0" stroke-width="1" filter="url(#glowOrange)" opacity="0.9">
        <title>2026-04-12: 4 commits</title></circle><circle cx="1053.4" cy="485.5" r="3.0"
        fill="#ff8c42" stroke="#ffd0a0" stroke-width="1" filter="url(#glowOrange)" opacity="0.9">
        <title>2026-04-13: 1 commits</title></circle><circle cx="1081.8" cy="485.5" r="3.0"
        fill="#ff8c42" stroke="#ffd0a0" stroke-width="1" filter="url(#glowOrange)" opacity="0.9">
        <title>2026-04-14: 1 commits</title></circle><circle cx="1110.3" cy="485.5" r="3.0"
        fill="#ff8c42" stroke="#ffd0a0" stroke-width="1" filter="url(#glowOrange)" opacity="0.9">
        <title>2026-04-15: 1 commits</title></circle><circle cx="1138.7" cy="485.5" r="3.0"
        fill="#ff8c42" stroke="#ffd0a0" stroke-width="1" filter="url(#glowOrange)" opacity="0.9">
        <title>2026-04-16: 1 commits</title></circle><circle cx="1167.2" cy="485.5" r="3.0"
        fill="#ff8c42" stroke="#ffd0a0" stroke-width="1" filter="url(#glowOrange)" opacity="0.9">
        <title>2026-04-17: 1 commits</title></circle><circle cx="1195.6" cy="485.5" r="3.0"
        fill="#ff8c42" stroke="#ffd0a0" stroke-width="1" filter="url(#glowOrange)" opacity="0.9">
        <title>2026-04-18: 1 commits</title></circle><circle cx="1224.1" cy="485.5" r="3.0"
        fill="#ff8c42" stroke="#ffd0a0" stroke-width="1" filter="url(#glowOrange)" opacity="0.9">
        <title>2026-04-19: 1 commits</title></circle><circle cx="1252.5" cy="476.5" r="3.1"
        fill="#ff8c42" stroke="#ffd0a0" stroke-width="1" filter="url(#glowOrange)" opacity="0.9">
        <title>2026-04-20: 3 commits</title></circle><circle cx="1281.0" cy="485.5" r="3.0"
        fill="#ff8c42" stroke="#ffd0a0" stroke-width="1" filter="url(#glowOrange)" opacity="0.9">
        <title>2026-04-21: 1 commits</title></circle><circle cx="1309.4" cy="485.5" r="3.0"
        fill="#ff8c42" stroke="#ffd0a0" stroke-width="1" filter="url(#glowOrange)" opacity="0.9">
        <title>2026-04-22: 1 commits</title></circle><circle cx="1337.9" cy="485.5" r="3.0"
        fill="#ff8c42" stroke="#ffd0a0" stroke-width="1" filter="url(#glowOrange)" opacity="0.9">
        <title>2026-04-23: 1 commits</title></circle><circle cx="1366.3" cy="485.5" r="3.0"
        fill="#ff8c42" stroke="#ffd0a0" stroke-width="1" filter="url(#glowOrange)" opacity="0.9">
        <title>2026-04-24: 1 commits</title></circle><circle cx="1394.8" cy="485.5" r="3.0"
        fill="#ff8c42" stroke="#ffd0a0" stroke-width="1" filter="url(#glowOrange)" opacity="0.9">
        <title>2026-04-25: 1 commits</title></circle><circle cx="1423.2" cy="485.5" r="3.0"
        fill="#ff8c42" stroke="#ffd0a0" stroke-width="1" filter="url(#glowOrange)" opacity="0.9">
        <title>2026-04-26: 1 commits</title></circle><circle cx="1451.7" cy="485.5" r="3.0"
        fill="#ff8c42" stroke="#ffd0a0" stroke-width="1" filter="url(#glowOrange)" opacity="0.9">
        <title>2026-04-27: 1 commits</title></circle><circle cx="1480.1" cy="485.5" r="3.0"
        fill="#ff8c42" stroke="#ffd0a0" stroke-width="1" filter="url(#glowOrange)" opacity="0.9">
        <title>2026-04-28: 1 commits</title></circle><circle cx="1508.6" cy="485.5" r="3.0"
        fill="#ff8c42" stroke="#ffd0a0" stroke-width="1" filter="url(#glowOrange)" opacity="0.9">
        <title>2026-04-29: 1 commits</title></circle><circle cx="1537.0" cy="485.5" r="3.0"
        fill="#ff8c42" stroke="#ffd0a0" stroke-width="1" filter="url(#glowOrange)" opacity="0.9">
        <title>2026-04-30: 1 commits</title></circle><circle cx="1565.5" cy="463.0" r="3.2"
        fill="#ff8c42" stroke="#ffd0a0" stroke-width="1" filter="url(#glowOrange)" opacity="0.9">
        <title>2026-05-01: 6 commits</title></circle><circle cx="1593.9" cy="485.5" r="3.0"
        fill="#ff8c42" stroke="#ffd0a0" stroke-width="1" filter="url(#glowOrange)" opacity="0.9">
        <title>2026-05-02: 1 commits</title></circle><circle cx="1622.4" cy="314.5" r="4.2"
        fill="#ff8c42" stroke="#ffd0a0" stroke-width="1" filter="url(#glowOrange)" opacity="0.9">
        <title>2026-05-03: 39 commits</title></circle><circle cx="1650.8" cy="445.0" r="3.3"
        fill="#ff8c42" stroke="#ffd0a0" stroke-width="1" filter="url(#glowOrange)" opacity="0.9">
        <title>2026-05-04: 10 commits</title></circle><circle cx="1679.3" cy="323.5" r="4.2"
        fill="#ff8c42" stroke="#ffd0a0" stroke-width="1" filter="url(#glowOrange)" opacity="0.9">
        <title>2026-05-05: 37 commits</title></circle><circle cx="1707.7" cy="449.5" r="3.3"
        fill="#ff8c42" stroke="#ffd0a0" stroke-width="1" filter="url(#glowOrange)" opacity="0.9">
        <title>2026-05-06: 9 commits</title></circle><circle cx="1736.2" cy="431.5" r="3.4"
        fill="#ff8c42" stroke="#ffd0a0" stroke-width="1" filter="url(#glowOrange)" opacity="0.9">
        <title>2026-05-07: 13 commits</title></circle><circle cx="1764.6" cy="449.5" r="3.3"
        fill="#ff8c42" stroke="#ffd0a0" stroke-width="1" filter="url(#glowOrange)" opacity="0.9">
        <title>2026-05-08: 9 commits</title></circle><circle cx="1793.1" cy="220.0" r="4.9"
        fill="#ff8c42" stroke="#ffd0a0" stroke-width="1" filter="url(#glowOrange)" opacity="0.9">
        <title>2026-05-09: 60 commits</title></circle><circle cx="1821.5" cy="391.0" r="3.7"
        fill="#ff8c42" stroke="#ffd0a0" stroke-width="1" filter="url(#glowOrange)" opacity="0.9">
        <title>2026-05-10: 22 commits</title></circle><circle cx="1850.0" cy="440.5" r="3.3"
        fill="#ff8c42" stroke="#ffd0a0" stroke-width="1" filter="url(#glowOrange)" opacity="0.9">
        <title>2026-05-11: 11 commits</title></circle>
  <circle cx="86.0" cy="490.0" r="3.5"
        fill="#00d4f5" stroke="#80eeff" stroke-width="0.8" filter="url(#glowCyan)" opacity="0.85">
        <title>2026-03-10: 1 changes/commit</title></circle><circle cx="285.2" cy="489.8" r="3.5"
        fill="#00d4f5" stroke="#80eeff" stroke-width="0.8" filter="url(#glowCyan)" opacity="0.85">
        <title>2026-03-17: 4 changes/commit</title></circle><circle cx="370.5" cy="489.9" r="3.5"
        fill="#00d4f5" stroke="#80eeff" stroke-width="0.8" filter="url(#glowCyan)" opacity="0.85">
        <title>2026-03-20: 3 changes/commit</title></circle><circle cx="427.4" cy="489.0" r="3.5"
        fill="#00d4f5" stroke="#80eeff" stroke-width="0.8" filter="url(#glowCyan)" opacity="0.85">
        <title>2026-03-22: 22 changes/commit</title></circle><circle cx="484.3" cy="297.4" r="3.5"
        fill="#00d4f5" stroke="#80eeff" stroke-width="0.8" filter="url(#glowCyan)" opacity="0.85">
        <title>2026-03-24: 4279 changes/commit</title></circle><circle cx="512.8" cy="489.3" r="3.5"
        fill="#00d4f5" stroke="#80eeff" stroke-width="0.8" filter="url(#glowCyan)" opacity="0.85">
        <title>2026-03-25: 15 changes/commit</title></circle><circle cx="541.2" cy="487.7" r="3.5"
        fill="#00d4f5" stroke="#80eeff" stroke-width="0.8" filter="url(#glowCyan)" opacity="0.85">
        <title>2026-03-26: 52 changes/commit</title></circle><circle cx="569.7" cy="487.7" r="3.5"
        fill="#00d4f5" stroke="#80eeff" stroke-width="0.8" filter="url(#glowCyan)" opacity="0.85">
        <title>2026-03-27: 52 changes/commit</title></circle><circle cx="598.1" cy="438.7" r="3.5"
        fill="#00d4f5" stroke="#80eeff" stroke-width="0.8" filter="url(#glowCyan)" opacity="0.85">
        <title>2026-03-28: 1140 changes/commit</title></circle><circle cx="626.6" cy="479.2" r="3.5"
        fill="#00d4f5" stroke="#80eeff" stroke-width="0.8" filter="url(#glowCyan)" opacity="0.85">
        <title>2026-03-29: 241 changes/commit</title></circle><circle cx="655.0" cy="481.0" r="3.5"
        fill="#00d4f5" stroke="#80eeff" stroke-width="0.8" filter="url(#glowCyan)" opacity="0.85">
        <title>2026-03-30: 201 changes/commit</title></circle><circle cx="683.5" cy="484.6" r="3.5"
        fill="#00d4f5" stroke="#80eeff" stroke-width="0.8" filter="url(#glowCyan)" opacity="0.85">
        <title>2026-03-31: 121 changes/commit</title></circle><circle cx="711.9" cy="483.8" r="3.5"
        fill="#00d4f5" stroke="#80eeff" stroke-width="0.8" filter="url(#glowCyan)" opacity="0.85">
        <title>2026-04-01: 138 changes/commit</title></circle><circle cx="740.4" cy="484.1" r="3.5"
        fill="#00d4f5" stroke="#80eeff" stroke-width="0.8" filter="url(#glowCyan)" opacity="0.85">
        <title>2026-04-02: 130 changes/commit</title></circle><circle cx="768.8" cy="486.5" r="3.5"
        fill="#00d4f5" stroke="#80eeff" stroke-width="0.8" filter="url(#glowCyan)" opacity="0.85">
        <title>2026-04-03: 78 changes/commit</title></circle><circle cx="797.3" cy="482.5" r="3.5"
        fill="#00d4f5" stroke="#80eeff" stroke-width="0.8" filter="url(#glowCyan)" opacity="0.85">
        <title>2026-04-04: 166 changes/commit</title></circle><circle cx="825.7" cy="486.1" r="3.5"
        fill="#00d4f5" stroke="#80eeff" stroke-width="0.8" filter="url(#glowCyan)" opacity="0.85">
        <title>2026-04-05: 86 changes/commit</title></circle><circle cx="854.2" cy="480.5" r="3.5"
        fill="#00d4f5" stroke="#80eeff" stroke-width="0.8" filter="url(#glowCyan)" opacity="0.85">
        <title>2026-04-06: 212 changes/commit</title></circle><circle cx="882.6" cy="487.3" r="3.5"
        fill="#00d4f5" stroke="#80eeff" stroke-width="0.8" filter="url(#glowCyan)" opacity="0.85">
        <title>2026-04-07: 60 changes/commit</title></circle><circle cx="911.1" cy="486.7" r="3.5"
        fill="#00d4f5" stroke="#80eeff" stroke-width="0.8" filter="url(#glowCyan)" opacity="0.85">
        <title>2026-04-08: 74 changes/commit</title></circle><circle cx="939.5" cy="480.0" r="3.5"
        fill="#00d4f5" stroke="#80eeff" stroke-width="0.8" filter="url(#glowCyan)" opacity="0.85">
        <title>2026-04-09: 222 changes/commit</title></circle><circle cx="968.0" cy="479.4" r="3.5"
        fill="#00d4f5" stroke="#80eeff" stroke-width="0.8" filter="url(#glowCyan)" opacity="0.85">
        <title>2026-04-10: 236 changes/commit</title></circle><circle cx="996.5" cy="479.4" r="3.5"
        fill="#00d4f5" stroke="#80eeff" stroke-width="0.8" filter="url(#glowCyan)" opacity="0.85">
        <title>2026-04-11: 236 changes/commit</title></circle><circle cx="1024.9" cy="477.8" r="3.5"
        fill="#00d4f5" stroke="#80eeff" stroke-width="0.8" filter="url(#glowCyan)" opacity="0.85">
        <title>2026-04-12: 271 changes/commit</title></circle><circle cx="1053.4" cy="486.4" r="3.5"
        fill="#00d4f5" stroke="#80eeff" stroke-width="0.8" filter="url(#glowCyan)" opacity="0.85">
        <title>2026-04-13: 80 changes/commit</title></circle><circle cx="1081.8" cy="474.2" r="3.5"
        fill="#00d4f5" stroke="#80eeff" stroke-width="0.8" filter="url(#glowCyan)" opacity="0.85">
        <title>2026-04-14: 351 changes/commit</title></circle><circle cx="1110.3" cy="478.6" r="3.5"
        fill="#00d4f5" stroke="#80eeff" stroke-width="0.8" filter="url(#glowCyan)" opacity="0.85">
        <title>2026-04-15: 254 changes/commit</title></circle><circle cx="1138.7" cy="478.5" r="3.5"
        fill="#00d4f5" stroke="#80eeff" stroke-width="0.8" filter="url(#glowCyan)" opacity="0.85">
        <title>2026-04-16: 256 changes/commit</title></circle><circle cx="1167.2" cy="478.5" r="3.5"
        fill="#00d4f5" stroke="#80eeff" stroke-width="0.8" filter="url(#glowCyan)" opacity="0.85">
        <title>2026-04-17: 256 changes/commit</title></circle><circle cx="1195.6" cy="478.2" r="3.5"
        fill="#00d4f5" stroke="#80eeff" stroke-width="0.8" filter="url(#glowCyan)" opacity="0.85">
        <title>2026-04-18: 262 changes/commit</title></circle><circle cx="1224.1" cy="477.9" r="3.5"
        fill="#00d4f5" stroke="#80eeff" stroke-width="0.8" filter="url(#glowCyan)" opacity="0.85">
        <title>2026-04-19: 270 changes/commit</title></circle><circle cx="1252.5" cy="475.4" r="3.5"
        fill="#00d4f5" stroke="#80eeff" stroke-width="0.8" filter="url(#glowCyan)" opacity="0.85">
        <title>2026-04-20: 325 changes/commit</title></circle><circle cx="1281.0" cy="486.5" r="3.5"
        fill="#00d4f5" stroke="#80eeff" stroke-width="0.8" filter="url(#glowCyan)" opacity="0.85">
        <title>2026-04-21: 78 changes/commit</title></circle><circle cx="1309.4" cy="477.3" r="3.5"
        fill="#00d4f5" stroke="#80eeff" stroke-width="0.8" filter="url(#glowCyan)" opacity="0.85">
        <title>2026-04-22: 282 changes/commit</title></circle><circle cx="1337.9" cy="477.0" r="3.5"
        fill="#00d4f5" stroke="#80eeff" stroke-width="0.8" filter="url(#glowCyan)" opacity="0.85">
        <title>2026-04-23: 288 changes/commit</title></circle><circle cx="1366.3" cy="476.6" r="3.5"
        fill="#00d4f5" stroke="#80eeff" stroke-width="0.8" filter="url(#glowCyan)" opacity="0.85">
        <title>2026-04-24: 298 changes/commit</title></circle><circle cx="1394.8" cy="476.3" r="3.5"
        fill="#00d4f5" stroke="#80eeff" stroke-width="0.8" filter="url(#glowCyan)" opacity="0.85">
        <title>2026-04-25: 304 changes/commit</title></circle><circle cx="1423.2" cy="476.4" r="3.5"
        fill="#00d4f5" stroke="#80eeff" stroke-width="0.8" filter="url(#glowCyan)" opacity="0.85">
        <title>2026-04-26: 302 changes/commit</title></circle><circle cx="1451.7" cy="476.1" r="3.5"
        fill="#00d4f5" stroke="#80eeff" stroke-width="0.8" filter="url(#glowCyan)" opacity="0.85">
        <title>2026-04-27: 310 changes/commit</title></circle><circle cx="1480.1" cy="470.0" r="3.5"
        fill="#00d4f5" stroke="#80eeff" stroke-width="0.8" filter="url(#glowCyan)" opacity="0.85">
        <title>2026-04-28: 445 changes/commit</title></circle><circle cx="1508.6" cy="476.1" r="3.5"
        fill="#00d4f5" stroke="#80eeff" stroke-width="0.8" filter="url(#glowCyan)" opacity="0.85">
        <title>2026-04-29: 308 changes/commit</title></circle><circle cx="1537.0" cy="463.5" r="3.5"
        fill="#00d4f5" stroke="#80eeff" stroke-width="0.8" filter="url(#glowCyan)" opacity="0.85">
        <title>2026-04-30: 588 changes/commit</title></circle><circle cx="1565.5" cy="430.1" r="3.5"
        fill="#00d4f5" stroke="#80eeff" stroke-width="0.8" filter="url(#glowCyan)" opacity="0.85">
        <title>2026-05-01: 1330 changes/commit</title></circle><circle cx="1593.9" cy="486.4" r="3.5"
        fill="#00d4f5" stroke="#80eeff" stroke-width="0.8" filter="url(#glowCyan)" opacity="0.85">
        <title>2026-05-02: 80 changes/commit</title></circle><circle cx="1622.4" cy="474.3" r="3.5"
        fill="#00d4f5" stroke="#80eeff" stroke-width="0.8" filter="url(#glowCyan)" opacity="0.85">
        <title>2026-05-03: 350 changes/commit</title></circle><circle cx="1650.8" cy="182.0" r="3.5"
        fill="#00d4f5" stroke="#80eeff" stroke-width="0.8" filter="url(#glowCyan)" opacity="0.85">
        <title>2026-05-04: 6844 changes/commit</title></circle><circle cx="1679.3" cy="480.1" r="3.5"
        fill="#00d4f5" stroke="#80eeff" stroke-width="0.8" filter="url(#glowCyan)" opacity="0.85">
        <title>2026-05-05: 219 changes/commit</title></circle><circle cx="1707.7" cy="482.2" r="3.5"
        fill="#00d4f5" stroke="#80eeff" stroke-width="0.8" filter="url(#glowCyan)" opacity="0.85">
        <title>2026-05-06: 173 changes/commit</title></circle><circle cx="1736.2" cy="473.2" r="3.5"
        fill="#00d4f5" stroke="#80eeff" stroke-width="0.8" filter="url(#glowCyan)" opacity="0.85">
        <title>2026-05-07: 373 changes/commit</title></circle><circle cx="1764.6" cy="466.6" r="3.5"
        fill="#00d4f5" stroke="#80eeff" stroke-width="0.8" filter="url(#glowCyan)" opacity="0.85">
        <title>2026-05-08: 519 changes/commit</title></circle><circle cx="1793.1" cy="482.3" r="3.5"
        fill="#00d4f5" stroke="#80eeff" stroke-width="0.8" filter="url(#glowCyan)" opacity="0.85">
        <title>2026-05-09: 172 changes/commit</title></circle><circle cx="1821.5" cy="480.9" r="3.5"
        fill="#00d4f5" stroke="#80eeff" stroke-width="0.8" filter="url(#glowCyan)" opacity="0.85">
        <title>2026-05-10: 203 changes/commit</title></circle><circle cx="1850.0" cy="487.8" r="3.5"
        fill="#00d4f5" stroke="#80eeff" stroke-width="0.8" filter="url(#glowCyan)" opacity="0.85">
        <title>2026-05-11: 48 changes/commit</title></circle>
</g>

<!-- ════ ANNOTATIONS ════ -->

        <line x1="598.1" y1="181.0"
          x2="598.1" y2="172.0"
          stroke="#2563eb" stroke-width="1.2" stroke-dasharray="4,4" opacity="0.65"/>
        <rect x="533.1" y="148.0"
          width="130" height="24" rx="6"
          fill="#030e26" stroke="#2563eb" stroke-width="1" opacity="0.96"/>
        <text x="598.1" y="164.0"
          font-size="10" fill="#93c5fd" text-anchor="middle"
          font-family="'Lexend','Segoe UI',sans-serif" font-weight="400"
          letter-spacing="0.5">⬡  Peak · 66 commits</text>
        <line x1="484.3" y1="494" x2="1850.0" y2="494"
          stroke="#f472b6" stroke-width="2.5" stroke-linecap="round" opacity="0.7"/>
        <circle cx="484.3" cy="494" r="3" fill="#f472b6" opacity="0.9"/>
        <circle cx="1850.0" cy="494" r="3" fill="#f472b6" opacity="0.9"/>
        <text x="1167.2" y="508" font-size="8.5" fill="#f472b6"
          text-anchor="middle" font-family="'Lexend','Segoe UI',sans-serif"
          font-weight="400" opacity="0.85">🔥 49-day streak</text>
        <line x1="484.3" y1="130" x2="484.3" y2="490"
          stroke="#f472b6" stroke-width="0.8" stroke-dasharray="3,6" opacity="0.35"/>

<!-- ════ CORNER BRACKETS ════ -->
<path d="M 86 152.0 L 86 130 L 108.0 130"
      fill="none" stroke="#4a90e2" stroke-width="2" stroke-opacity="0.85" stroke-linecap="round"/><path d="M 1850 152.0 L 1850 130 L 1828.0 130"
      fill="none" stroke="#4a90e2" stroke-width="2" stroke-opacity="0.85" stroke-linecap="round"/><path d="M 86 468.0 L 86 490 L 108.0 490"
      fill="none" stroke="#4a90e2" stroke-width="2" stroke-opacity="0.85" stroke-linecap="round"/><path d="M 1850 468.0 L 1850 490 L 1828.0 490"
      fill="none" stroke="#4a90e2" stroke-width="2" stroke-opacity="0.85" stroke-linecap="round"/>

<!-- ════ HEATMAP ════ -->
<text x="964" y="646" font-size="11" fill="#3d7ed4"
    text-anchor="middle" font-family="'Lexend','Segoe UI',sans-serif"
    letter-spacing="3" font-weight="400">CONTRIBUTION  CALENDAR</text><text x="891.5" y="686"
        font-size="9" fill="#3d7ed4" text-anchor="end"
        font-family="'Lexend','Segoe UI',sans-serif" font-weight="300">M</text><text x="891.5" y="716"
        font-size="9" fill="#3d7ed4" text-anchor="end"
        font-family="'Lexend','Segoe UI',sans-serif" font-weight="300">W</text><text x="891.5" y="746"
        font-size="9" fill="#3d7ed4" text-anchor="end"
        font-family="'Lexend','Segoe UI',sans-serif" font-weight="300">F</text><rect x="897.5" y="660.0"
        width="12" height="12" rx="2.5" fill="#0a1630"
        stroke="#0d2464" stroke-width="0.5" stroke-opacity="0.4">
        <title>2026-03-08: 0 commits</title></rect><rect x="897.5" y="675.0"
        width="12" height="12" rx="2.5" fill="#0a1630"
        stroke="#0d2464" stroke-width="0.5" stroke-opacity="0.4">
        <title>2026-03-09: 0 commits</title></rect><rect x="897.5" y="690.0"
        width="12" height="12" rx="2.5" fill="#0d3068"
        stroke="#0d2464" stroke-width="0.5" stroke-opacity="0.4">
        <title>2026-03-10: 1 commits</title></rect><rect x="897.5" y="705.0"
        width="12" height="12" rx="2.5" fill="#0a1630"
        stroke="#0d2464" stroke-width="0.5" stroke-opacity="0.4">
        <title>2026-03-11: 0 commits</title></rect><rect x="897.5" y="720.0"
        width="12" height="12" rx="2.5" fill="#0a1630"
        stroke="#0d2464" stroke-width="0.5" stroke-opacity="0.4">
        <title>2026-03-12: 0 commits</title></rect><rect x="897.5" y="735.0"
        width="12" height="12" rx="2.5" fill="#0a1630"
        stroke="#0d2464" stroke-width="0.5" stroke-opacity="0.4">
        <title>2026-03-13: 0 commits</title></rect><rect x="897.5" y="750.0"
        width="12" height="12" rx="2.5" fill="#0a1630"
        stroke="#0d2464" stroke-width="0.5" stroke-opacity="0.4">
        <title>2026-03-14: 0 commits</title></rect><rect x="912.5" y="660.0"
        width="12" height="12" rx="2.5" fill="#0a1630"
        stroke="#0d2464" stroke-width="0.5" stroke-opacity="0.4">
        <title>2026-03-15: 0 commits</title></rect><rect x="912.5" y="675.0"
        width="12" height="12" rx="2.5" fill="#0a1630"
        stroke="#0d2464" stroke-width="0.5" stroke-opacity="0.4">
        <title>2026-03-16: 0 commits</title></rect><rect x="912.5" y="690.0"
        width="12" height="12" rx="2.5" fill="#0d3068"
        stroke="#0d2464" stroke-width="0.5" stroke-opacity="0.4">
        <title>2026-03-17: 10 commits</title></rect><rect x="912.5" y="705.0"
        width="12" height="12" rx="2.5" fill="#0a1630"
        stroke="#0d2464" stroke-width="0.5" stroke-opacity="0.4">
        <title>2026-03-18: 0 commits</title></rect><rect x="912.5" y="720.0"
        width="12" height="12" rx="2.5" fill="#0a1630"
        stroke="#0d2464" stroke-width="0.5" stroke-opacity="0.4">
        <title>2026-03-19: 0 commits</title></rect><rect x="912.5" y="735.0"
        width="12" height="12" rx="2.5" fill="#1e56a8"
        stroke="#0d2464" stroke-width="0.5" stroke-opacity="0.4">
        <title>2026-03-20: 26 commits</title></rect><rect x="912.5" y="750.0"
        width="12" height="12" rx="2.5" fill="#0a1630"
        stroke="#0d2464" stroke-width="0.5" stroke-opacity="0.4">
        <title>2026-03-21: 0 commits</title></rect><rect x="927.5" y="660.0"
        width="12" height="12" rx="2.5" fill="#0d3068"
        stroke="#0d2464" stroke-width="0.5" stroke-opacity="0.4">
        <title>2026-03-22: 1 commits</title></rect><rect x="927.5" y="675.0"
        width="12" height="12" rx="2.5" fill="#0a1630"
        stroke="#0d2464" stroke-width="0.5" stroke-opacity="0.4">
        <title>2026-03-23: 0 commits</title></rect><rect x="927.5" y="690.0"
        width="12" height="12" rx="2.5" fill="#1e56a8"
        stroke="#0d2464" stroke-width="0.5" stroke-opacity="0.4">
        <title>2026-03-24: 32 commits</title></rect><rect x="927.5" y="705.0"
        width="12" height="12" rx="2.5" fill="#0d3068"
        stroke="#0d2464" stroke-width="0.5" stroke-opacity="0.4">
        <title>2026-03-25: 7 commits</title></rect><rect x="927.5" y="720.0"
        width="12" height="12" rx="2.5" fill="#0d3068"
        stroke="#0d2464" stroke-width="0.5" stroke-opacity="0.4">
        <title>2026-03-26: 3 commits</title></rect><rect x="927.5" y="735.0"
        width="12" height="12" rx="2.5" fill="#0d3068"
        stroke="#0d2464" stroke-width="0.5" stroke-opacity="0.4">
        <title>2026-03-27: 1 commits</title></rect><rect x="927.5" y="750.0"
        width="12" height="12" rx="2.5" fill="#93c5fd"
        stroke="#0d2464" stroke-width="0.5" stroke-opacity="0.4">
        <title>2026-03-28: 66 commits</title></rect><rect x="942.5" y="660.0"
        width="12" height="12" rx="2.5" fill="#3b82f6"
        stroke="#0d2464" stroke-width="0.5" stroke-opacity="0.4">
        <title>2026-03-29: 44 commits</title></rect><rect x="942.5" y="675.0"
        width="12" height="12" rx="2.5" fill="#0d3068"
        stroke="#0d2464" stroke-width="0.5" stroke-opacity="0.4">
        <title>2026-03-30: 2 commits</title></rect><rect x="942.5" y="690.0"
        width="12" height="12" rx="2.5" fill="#0d3068"
        stroke="#0d2464" stroke-width="0.5" stroke-opacity="0.4">
        <title>2026-03-31: 16 commits</title></rect><rect x="942.5" y="705.0"
        width="12" height="12" rx="2.5" fill="#0d3068"
        stroke="#0d2464" stroke-width="0.5" stroke-opacity="0.4">
        <title>2026-04-01: 14 commits</title></rect><rect x="942.5" y="720.0"
        width="12" height="12" rx="2.5" fill="#0d3068"
        stroke="#0d2464" stroke-width="0.5" stroke-opacity="0.4">
        <title>2026-04-02: 2 commits</title></rect><rect x="942.5" y="735.0"
        width="12" height="12" rx="2.5" fill="#1e56a8"
        stroke="#0d2464" stroke-width="0.5" stroke-opacity="0.4">
        <title>2026-04-03: 24 commits</title></rect><rect x="942.5" y="750.0"
        width="12" height="12" rx="2.5" fill="#1e56a8"
        stroke="#0d2464" stroke-width="0.5" stroke-opacity="0.4">
        <title>2026-04-04: 18 commits</title></rect><text x="942.5" y="656" font-size="8.5" fill="#3d7ed4"
        font-family="'Lexend','Segoe UI',sans-serif" font-weight="300">Apr</text><rect x="957.5" y="660.0"
        width="12" height="12" rx="2.5" fill="#0d3068"
        stroke="#0d2464" stroke-width="0.5" stroke-opacity="0.4">
        <title>2026-04-05: 1 commits</title></rect><rect x="957.5" y="675.0"
        width="12" height="12" rx="2.5" fill="#0d3068"
        stroke="#0d2464" stroke-width="0.5" stroke-opacity="0.4">
        <title>2026-04-06: 1 commits</title></rect><rect x="957.5" y="690.0"
        width="12" height="12" rx="2.5" fill="#0d3068"
        stroke="#0d2464" stroke-width="0.5" stroke-opacity="0.4">
        <title>2026-04-07: 9 commits</title></rect><rect x="957.5" y="705.0"
        width="12" height="12" rx="2.5" fill="#0d3068"
        stroke="#0d2464" stroke-width="0.5" stroke-opacity="0.4">
        <title>2026-04-08: 1 commits</title></rect><rect x="957.5" y="720.0"
        width="12" height="12" rx="2.5" fill="#0d3068"
        stroke="#0d2464" stroke-width="0.5" stroke-opacity="0.4">
        <title>2026-04-09: 1 commits</title></rect><rect x="957.5" y="735.0"
        width="12" height="12" rx="2.5" fill="#0d3068"
        stroke="#0d2464" stroke-width="0.5" stroke-opacity="0.4">
        <title>2026-04-10: 1 commits</title></rect><rect x="957.5" y="750.0"
        width="12" height="12" rx="2.5" fill="#0d3068"
        stroke="#0d2464" stroke-width="0.5" stroke-opacity="0.4">
        <title>2026-04-11: 1 commits</title></rect><rect x="972.5" y="660.0"
        width="12" height="12" rx="2.5" fill="#0d3068"
        stroke="#0d2464" stroke-width="0.5" stroke-opacity="0.4">
        <title>2026-04-12: 4 commits</title></rect><rect x="972.5" y="675.0"
        width="12" height="12" rx="2.5" fill="#0d3068"
        stroke="#0d2464" stroke-width="0.5" stroke-opacity="0.4">
        <title>2026-04-13: 1 commits</title></rect><rect x="972.5" y="690.0"
        width="12" height="12" rx="2.5" fill="#0d3068"
        stroke="#0d2464" stroke-width="0.5" stroke-opacity="0.4">
        <title>2026-04-14: 1 commits</title></rect><rect x="972.5" y="705.0"
        width="12" height="12" rx="2.5" fill="#0d3068"
        stroke="#0d2464" stroke-width="0.5" stroke-opacity="0.4">
        <title>2026-04-15: 1 commits</title></rect><rect x="972.5" y="720.0"
        width="12" height="12" rx="2.5" fill="#0d3068"
        stroke="#0d2464" stroke-width="0.5" stroke-opacity="0.4">
        <title>2026-04-16: 1 commits</title></rect><rect x="972.5" y="735.0"
        width="12" height="12" rx="2.5" fill="#0d3068"
        stroke="#0d2464" stroke-width="0.5" stroke-opacity="0.4">
        <title>2026-04-17: 1 commits</title></rect><rect x="972.5" y="750.0"
        width="12" height="12" rx="2.5" fill="#0d3068"
        stroke="#0d2464" stroke-width="0.5" stroke-opacity="0.4">
        <title>2026-04-18: 1 commits</title></rect><rect x="987.5" y="660.0"
        width="12" height="12" rx="2.5" fill="#0d3068"
        stroke="#0d2464" stroke-width="0.5" stroke-opacity="0.4">
        <title>2026-04-19: 1 commits</title></rect><rect x="987.5" y="675.0"
        width="12" height="12" rx="2.5" fill="#0d3068"
        stroke="#0d2464" stroke-width="0.5" stroke-opacity="0.4">
        <title>2026-04-20: 3 commits</title></rect><rect x="987.5" y="690.0"
        width="12" height="12" rx="2.5" fill="#0d3068"
        stroke="#0d2464" stroke-width="0.5" stroke-opacity="0.4">
        <title>2026-04-21: 1 commits</title></rect><rect x="987.5" y="705.0"
        width="12" height="12" rx="2.5" fill="#0d3068"
        stroke="#0d2464" stroke-width="0.5" stroke-opacity="0.4">
        <title>2026-04-22: 1 commits</title></rect><rect x="987.5" y="720.0"
        width="12" height="12" rx="2.5" fill="#0d3068"
        stroke="#0d2464" stroke-width="0.5" stroke-opacity="0.4">
        <title>2026-04-23: 1 commits</title></rect><rect x="987.5" y="735.0"
        width="12" height="12" rx="2.5" fill="#0d3068"
        stroke="#0d2464" stroke-width="0.5" stroke-opacity="0.4">
        <title>2026-04-24: 1 commits</title></rect><rect x="987.5" y="750.0"
        width="12" height="12" rx="2.5" fill="#0d3068"
        stroke="#0d2464" stroke-width="0.5" stroke-opacity="0.4">
        <title>2026-04-25: 1 commits</title></rect><rect x="1002.5" y="660.0"
        width="12" height="12" rx="2.5" fill="#0d3068"
        stroke="#0d2464" stroke-width="0.5" stroke-opacity="0.4">
        <title>2026-04-26: 1 commits</title></rect><rect x="1002.5" y="675.0"
        width="12" height="12" rx="2.5" fill="#0d3068"
        stroke="#0d2464" stroke-width="0.5" stroke-opacity="0.4">
        <title>2026-04-27: 1 commits</title></rect><rect x="1002.5" y="690.0"
        width="12" height="12" rx="2.5" fill="#0d3068"
        stroke="#0d2464" stroke-width="0.5" stroke-opacity="0.4">
        <title>2026-04-28: 1 commits</title></rect><rect x="1002.5" y="705.0"
        width="12" height="12" rx="2.5" fill="#0d3068"
        stroke="#0d2464" stroke-width="0.5" stroke-opacity="0.4">
        <title>2026-04-29: 1 commits</title></rect><rect x="1002.5" y="720.0"
        width="12" height="12" rx="2.5" fill="#0d3068"
        stroke="#0d2464" stroke-width="0.5" stroke-opacity="0.4">
        <title>2026-04-30: 1 commits</title></rect><rect x="1002.5" y="735.0"
        width="12" height="12" rx="2.5" fill="#0d3068"
        stroke="#0d2464" stroke-width="0.5" stroke-opacity="0.4">
        <title>2026-05-01: 6 commits</title></rect><rect x="1002.5" y="750.0"
        width="12" height="12" rx="2.5" fill="#0d3068"
        stroke="#0d2464" stroke-width="0.5" stroke-opacity="0.4">
        <title>2026-05-02: 1 commits</title></rect><text x="1002.5" y="656" font-size="8.5" fill="#3d7ed4"
        font-family="'Lexend','Segoe UI',sans-serif" font-weight="300">May</text><rect x="1017.5" y="660.0"
        width="12" height="12" rx="2.5" fill="#3b82f6"
        stroke="#0d2464" stroke-width="0.5" stroke-opacity="0.4">
        <title>2026-05-03: 39 commits</title></rect><rect x="1017.5" y="675.0"
        width="12" height="12" rx="2.5" fill="#0d3068"
        stroke="#0d2464" stroke-width="0.5" stroke-opacity="0.4">
        <title>2026-05-04: 10 commits</title></rect><rect x="1017.5" y="690.0"
        width="12" height="12" rx="2.5" fill="#3b82f6"
        stroke="#0d2464" stroke-width="0.5" stroke-opacity="0.4">
        <title>2026-05-05: 37 commits</title></rect><rect x="1017.5" y="705.0"
        width="12" height="12" rx="2.5" fill="#0d3068"
        stroke="#0d2464" stroke-width="0.5" stroke-opacity="0.4">
        <title>2026-05-06: 9 commits</title></rect><rect x="1017.5" y="720.0"
        width="12" height="12" rx="2.5" fill="#0d3068"
        stroke="#0d2464" stroke-width="0.5" stroke-opacity="0.4">
        <title>2026-05-07: 13 commits</title></rect><rect x="1017.5" y="735.0"
        width="12" height="12" rx="2.5" fill="#0d3068"
        stroke="#0d2464" stroke-width="0.5" stroke-opacity="0.4">
        <title>2026-05-08: 9 commits</title></rect><rect x="1017.5" y="750.0"
        width="12" height="12" rx="2.5" fill="#93c5fd"
        stroke="#0d2464" stroke-width="0.5" stroke-opacity="0.4">
        <title>2026-05-09: 60 commits</title></rect><rect x="1032.5" y="660.0"
        width="12" height="12" rx="2.5" fill="#1e56a8"
        stroke="#0d2464" stroke-width="0.5" stroke-opacity="0.4">
        <title>2026-05-10: 22 commits</title></rect><rect x="1032.5" y="675.0"
        width="12" height="12" rx="2.5" fill="#0d3068"
        stroke="#0d2464" stroke-width="0.5" stroke-opacity="0.4">
        <title>2026-05-11: 11 commits</title></rect><rect x="1032.5" y="690.0"
        width="12" height="12" rx="2.5" fill="#0a1630"
        stroke="#0d2464" stroke-width="0.5" stroke-opacity="0.4">
        <title>2026-05-12: 0 commits</title></rect><rect x="1032.5" y="705.0"
        width="12" height="12" rx="2.5" fill="#0a1630"
        stroke="#0d2464" stroke-width="0.5" stroke-opacity="0.4">
        <title>2026-05-13: 0 commits</title></rect><rect x="1032.5" y="720.0"
        width="12" height="12" rx="2.5" fill="#0a1630"
        stroke="#0d2464" stroke-width="0.5" stroke-opacity="0.4">
        <title>2026-05-14: 0 commits</title></rect><rect x="1032.5" y="735.0"
        width="12" height="12" rx="2.5" fill="#0a1630"
        stroke="#0d2464" stroke-width="0.5" stroke-opacity="0.4">
        <title>2026-05-15: 0 commits</title></rect><rect x="1032.5" y="750.0"
        width="12" height="12" rx="2.5" fill="#0a1630"
        stroke="#0d2464" stroke-width="0.5" stroke-opacity="0.4">
        <title>2026-05-16: 0 commits</title></rect><rect x="1047.5" y="660.0"
        width="12" height="12" rx="2.5" fill="#0a1630"
        stroke="#0d2464" stroke-width="0.5" stroke-opacity="0.4">
        <title>2026-05-17: 0 commits</title></rect><rect x="1047.5" y="675.0"
        width="12" height="12" rx="2.5" fill="#0a1630"
        stroke="#0d2464" stroke-width="0.5" stroke-opacity="0.4">
        <title>2026-05-18: 0 commits</title></rect><rect x="1047.5" y="690.0"
        width="12" height="12" rx="2.5" fill="#0a1630"
        stroke="#0d2464" stroke-width="0.5" stroke-opacity="0.4">
        <title>2026-05-19: 0 commits</title></rect><rect x="1047.5" y="705.0"
        width="12" height="12" rx="2.5" fill="#0a1630"
        stroke="#0d2464" stroke-width="0.5" stroke-opacity="0.4">
        <title>2026-05-20: 0 commits</title></rect><rect x="1047.5" y="720.0"
        width="12" height="12" rx="2.5" fill="#0a1630"
        stroke="#0d2464" stroke-width="0.5" stroke-opacity="0.4">
        <title>2026-05-21: 0 commits</title></rect><rect x="1047.5" y="735.0"
        width="12" height="12" rx="2.5" fill="#0a1630"
        stroke="#0d2464" stroke-width="0.5" stroke-opacity="0.4">
        <title>2026-05-22: 0 commits</title></rect><rect x="1047.5" y="750.0"
        width="12" height="12" rx="2.5" fill="#0a1630"
        stroke="#0d2464" stroke-width="0.5" stroke-opacity="0.4">
        <title>2026-05-23: 0 commits</title></rect>

<!-- ════ BOTTOM PANELS ════ -->

    <rect x="86" y="823" width="320" height="110"
      rx="4" fill="#030e26" fill-opacity="0.6" stroke="#1a3f7a" stroke-width="0.8"/>
    <text x="246" y="819" font-size="8" fill="#3d7ed4"
      text-anchor="middle" font-family="'Lexend','Segoe UI',sans-serif"
      letter-spacing="2" font-weight="300">OVERVIEW</text>
    <g clip-path="url(#minimapClip)">
      <path d="M 86.00 931.58 C 86.86 931.82, 89.44 932.76, 91.16 933.00 C 92.88 933.24, 94.60 933.00, 96.32 933.00 C 98.04 933.00, 99.76 933.00, 101.48 933.00 C 103.20 933.00, 104.92 933.00, 106.65 933.00 C 108.37 933.00, 110.09 933.00, 111.81 933.00 C 113.53 933.00, 115.25 935.36, 116.97 933.00 C 118.69 930.64, 120.41 918.83, 122.13 918.83 C 123.85 918.83, 125.57 930.64, 127.29 933.00 C 129.01 935.36, 130.73 939.14, 132.45 933.00 C 134.17 926.86, 135.89 896.17, 137.61 896.17 C 139.33 896.17, 141.05 927.10, 142.77 933.00 C 144.49 938.90, 146.22 931.58, 147.94 931.58 C 149.66 931.58, 151.38 940.32, 153.10 933.00 C 154.82 925.68, 156.54 889.32, 158.26 887.67 C 159.98 886.01, 161.70 916.24, 163.42 923.08 C 165.14 929.93, 166.86 927.33, 168.58 928.75 C 170.30 930.17, 172.02 946.46, 173.74 931.58 C 175.46 916.71, 177.18 849.65, 178.90 839.50 C 180.62 829.35, 182.34 855.56, 184.06 870.67 C 185.78 885.78, 187.51 923.56, 189.23 930.17 C 190.95 936.78, 192.67 913.17, 194.39 910.33 C 196.11 907.50, 197.83 909.86, 199.55 913.17 C 201.27 916.47, 202.99 932.53, 204.71 930.17 C 206.43 927.81, 208.15 902.78, 209.87 899.00 C 211.59 895.22, 213.31 902.07, 215.03 907.50 C 216.75 912.93, 218.47 927.57, 220.19 931.58 C 221.91 935.60, 223.63 933.47, 225.35 931.58 C 227.08 929.69, 228.80 920.25, 230.52 920.25 C 232.24 920.25, 233.96 929.69, 235.68 931.58 C 237.40 933.47, 239.12 931.58, 240.84 931.58 C 242.56 931.58, 244.28 931.58, 246.00 931.58 C 247.72 931.58, 249.44 932.29, 251.16 931.58 C 252.88 930.88, 254.60 927.33, 256.32 927.33 C 258.04 927.33, 259.76 930.88, 261.48 931.58 C 263.20 932.29, 264.92 931.58, 266.65 931.58 C 268.37 931.58, 270.09 931.58, 271.81 931.58 C 273.53 931.58, 275.25 931.58, 276.97 931.58 C 278.69 931.58, 280.41 931.58, 282.13 931.58 C 283.85 931.58, 285.57 931.58, 287.29 931.58 C 289.01 931.58, 290.73 932.06, 292.45 931.58 C 294.17 931.11, 295.89 928.75, 297.61 928.75 C 299.33 928.75, 301.05 931.11, 302.77 931.58 C 304.49 932.06, 306.22 931.58, 307.94 931.58 C 309.66 931.58, 311.38 931.58, 313.10 931.58 C 314.82 931.58, 316.54 931.58, 318.26 931.58 C 319.98 931.58, 321.70 931.58, 323.42 931.58 C 325.14 931.58, 326.86 931.58, 328.58 931.58 C 330.30 931.58, 332.02 931.58, 333.74 931.58 C 335.46 931.58, 337.18 931.58, 338.90 931.58 C 340.62 931.58, 342.34 931.58, 344.06 931.58 C 345.78 931.58, 347.51 932.76, 349.23 931.58 C 350.95 930.40, 352.67 924.50, 354.39 924.50 C 356.11 924.50, 357.83 939.38, 359.55 931.58 C 361.27 923.79, 362.99 879.88, 364.71 877.75 C 366.43 875.63, 368.15 918.36, 369.87 918.83 C 371.59 919.31, 373.31 880.35, 375.03 880.58 C 376.75 880.82, 378.47 914.58, 380.19 920.25 C 381.91 925.92, 383.63 914.58, 385.35 914.58 C 387.08 914.58, 388.80 931.35, 390.52 920.25 C 392.24 909.15, 393.96 851.07, 395.68 848.00 C 397.40 844.93, 399.12 890.26, 400.84 901.83 C 402.56 913.40, 405.14 914.82, 406.00 917.42 L 406.00 933 L 86.00 933 Z" fill="#4a90e2" fill-opacity="0.15"/>
      <path d="M 86.00 931.58 C 86.86 931.82, 89.44 932.76, 91.16 933.00 C 92.88 933.24, 94.60 933.00, 96.32 933.00 C 98.04 933.00, 99.76 933.00, 101.48 933.00 C 103.20 933.00, 104.92 933.00, 106.65 933.00 C 108.37 933.00, 110.09 933.00, 111.81 933.00 C 113.53 933.00, 115.25 935.36, 116.97 933.00 C 118.69 930.64, 120.41 918.83, 122.13 918.83 C 123.85 918.83, 125.57 930.64, 127.29 933.00 C 129.01 935.36, 130.73 939.14, 132.45 933.00 C 134.17 926.86, 135.89 896.17, 137.61 896.17 C 139.33 896.17, 141.05 927.10, 142.77 933.00 C 144.49 938.90, 146.22 931.58, 147.94 931.58 C 149.66 931.58, 151.38 940.32, 153.10 933.00 C 154.82 925.68, 156.54 889.32, 158.26 887.67 C 159.98 886.01, 161.70 916.24, 163.42 923.08 C 165.14 929.93, 166.86 927.33, 168.58 928.75 C 170.30 930.17, 172.02 946.46, 173.74 931.58 C 175.46 916.71, 177.18 849.65, 178.90 839.50 C 180.62 829.35, 182.34 855.56, 184.06 870.67 C 185.78 885.78, 187.51 923.56, 189.23 930.17 C 190.95 936.78, 192.67 913.17, 194.39 910.33 C 196.11 907.50, 197.83 909.86, 199.55 913.17 C 201.27 916.47, 202.99 932.53, 204.71 930.17 C 206.43 927.81, 208.15 902.78, 209.87 899.00 C 211.59 895.22, 213.31 902.07, 215.03 907.50 C 216.75 912.93, 218.47 927.57, 220.19 931.58 C 221.91 935.60, 223.63 933.47, 225.35 931.58 C 227.08 929.69, 228.80 920.25, 230.52 920.25 C 232.24 920.25, 233.96 929.69, 235.68 931.58 C 237.40 933.47, 239.12 931.58, 240.84 931.58 C 242.56 931.58, 244.28 931.58, 246.00 931.58 C 247.72 931.58, 249.44 932.29, 251.16 931.58 C 252.88 930.88, 254.60 927.33, 256.32 927.33 C 258.04 927.33, 259.76 930.88, 261.48 931.58 C 263.20 932.29, 264.92 931.58, 266.65 931.58 C 268.37 931.58, 270.09 931.58, 271.81 931.58 C 273.53 931.58, 275.25 931.58, 276.97 931.58 C 278.69 931.58, 280.41 931.58, 282.13 931.58 C 283.85 931.58, 285.57 931.58, 287.29 931.58 C 289.01 931.58, 290.73 932.06, 292.45 931.58 C 294.17 931.11, 295.89 928.75, 297.61 928.75 C 299.33 928.75, 301.05 931.11, 302.77 931.58 C 304.49 932.06, 306.22 931.58, 307.94 931.58 C 309.66 931.58, 311.38 931.58, 313.10 931.58 C 314.82 931.58, 316.54 931.58, 318.26 931.58 C 319.98 931.58, 321.70 931.58, 323.42 931.58 C 325.14 931.58, 326.86 931.58, 328.58 931.58 C 330.30 931.58, 332.02 931.58, 333.74 931.58 C 335.46 931.58, 337.18 931.58, 338.90 931.58 C 340.62 931.58, 342.34 931.58, 344.06 931.58 C 345.78 931.58, 347.51 932.76, 349.23 931.58 C 350.95 930.40, 352.67 924.50, 354.39 924.50 C 356.11 924.50, 357.83 939.38, 359.55 931.58 C 361.27 923.79, 362.99 879.88, 364.71 877.75 C 366.43 875.63, 368.15 918.36, 369.87 918.83 C 371.59 919.31, 373.31 880.35, 375.03 880.58 C 376.75 880.82, 378.47 914.58, 380.19 920.25 C 381.91 925.92, 383.63 914.58, 385.35 914.58 C 387.08 914.58, 388.80 931.35, 390.52 920.25 C 392.24 909.15, 393.96 851.07, 395.68 848.00 C 397.40 844.93, 399.12 890.26, 400.84 901.83 C 402.56 913.40, 405.14 914.82, 406.00 917.42" fill="none" stroke="#4a90e2" stroke-width="1.5" stroke-opacity="0.7"/>
    </g>
    <clipPath id="minimapClip">
      <rect x="86" y="823" width="320" height="110" rx="4"/>
    </clipPath><path d="M 1710.00 854.90
      L 1710.00 836.00
      A 42 42 0 1 1 1684.42 911.31
      L 1695.93 896.32
      A 23.1 23.1 0 1 0 1710.00 854.90 Z"
      fill="#4a90e2" fill-opacity="0.8" stroke="#030e26" stroke-width="1.5">
      <title>Kieran Lucas: 316 commits (60%)</title></path><path d="M 1695.93 896.32
      L 1684.42 911.31
      A 42 42 0 0 1 1668.08 880.65
      L 1686.95 879.46
      A 23.1 23.1 0 0 0 1695.93 896.32 Z"
      fill="#ff8c42" fill-opacity="0.8" stroke="#030e26" stroke-width="1.5">
      <title>stillqhuy: 71 commits (14%)</title></path><path d="M 1686.95 879.46
      L 1668.08 880.65
      A 42 42 0 0 1 1679.04 849.62
      L 1692.97 862.39
      A 23.1 23.1 0 0 0 1686.95 879.46 Z"
      fill="#00d4f5" fill-opacity="0.8" stroke="#030e26" stroke-width="1.5">
      <title>HumaNormal: 67 commits (13%)</title></path><path d="M 1692.97 862.39
      L 1679.04 849.62
      A 42 42 0 0 1 1706.98 836.11
      L 1708.34 854.96
      A 23.1 23.1 0 0 0 1692.97 862.39 Z"
      fill="#22c55e" fill-opacity="0.8" stroke="#030e26" stroke-width="1.5">
      <title>github-actions: 63 commits (12%)</title></path><path d="M 1708.34 854.96
      L 1706.98 836.11
      A 42 42 0 0 1 1710.00 836.00
      L 1710.00 854.90
      A 23.1 23.1 0 0 0 1708.34 854.96 Z"
      fill="#ef4444" fill-opacity="0.8" stroke="#030e26" stroke-width="1.5">
      <title>Nguyễn Đinh Việt Đức: 6 commits (1%)</title></path><text x="1710" y="874" font-size="9" fill="#3d7ed4" text-anchor="middle"
    font-family="'Lexend','Segoe UI',sans-serif" letter-spacing="1.5" font-weight="300">AUTHORS</text><text x="1710" y="892" font-size="16" fill="#cce8ff" text-anchor="middle"
    font-family="'Lexend','Segoe UI',sans-serif" font-weight="600">5</text><rect x="1768" y="830" width="8" height="8" rx="2" fill="#4a90e2" opacity="0.85"/><text x="1782" y="838" font-size="9.5" fill="#3d7ed4"
      font-family="'Lexend','Segoe UI',sans-serif" font-weight="300">Kieran Lucas (316)</text><rect x="1768" y="848" width="8" height="8" rx="2" fill="#ff8c42" opacity="0.85"/><text x="1782" y="856" font-size="9.5" fill="#3d7ed4"
      font-family="'Lexend','Segoe UI',sans-serif" font-weight="300">stillqhuy (71)</text><rect x="1768" y="866" width="8" height="8" rx="2" fill="#00d4f5" opacity="0.85"/><text x="1782" y="874" font-size="9.5" fill="#3d7ed4"
      font-family="'Lexend','Segoe UI',sans-serif" font-weight="300">HumaNormal (67)</text><rect x="1768" y="884" width="8" height="8" rx="2" fill="#22c55e" opacity="0.85"/><text x="1782" y="892" font-size="9.5" fill="#3d7ed4"
      font-family="'Lexend','Segoe UI',sans-serif" font-weight="300">github-actions (63)</text><rect x="1768" y="902" width="8" height="8" rx="2" fill="#ef4444" opacity="0.85"/><text x="1782" y="910" font-size="9.5" fill="#3d7ed4"
      font-family="'Lexend','Segoe UI',sans-serif" font-weight="300">Nguyễn Đinh … (6)</text>

<!-- ════ WAVES ════ -->
<path d="M 0 963 Q 120.5 956.0 241.0 963 Q 361.5 956.0 482.0 963 Q 602.5 956.0 723.0 963 Q 843.5 956.0 964.0 963 Q 1084.5 956.0 1205.0 963 Q 1325.5 956.0 1446.0 963 Q 1566.5 956.0 1687.0 963 Q 1807.5 956.0 1928.0 963" fill="none" stroke="#1948a0" stroke-width="1.2" stroke-opacity="0.35"/>
<path d="M 0 958 Q 120.5 952.5 241.0 958 Q 361.5 952.5 482.0 958 Q 602.5 952.5 723.0 958 Q 843.5 952.5 964.0 958 Q 1084.5 952.5 1205.0 958 Q 1325.5 952.5 1446.0 958 Q 1566.5 952.5 1687.0 958 Q 1807.5 952.5 1928.0 958" fill="none" stroke="#1948a0" stroke-width="1" stroke-opacity="0.29"/>
<path d="M 0 953 Q 120.5 949.0 241.0 953 Q 361.5 949.0 482.0 953 Q 602.5 949.0 723.0 953 Q 843.5 949.0 964.0 953 Q 1084.5 949.0 1205.0 953 Q 1325.5 949.0 1446.0 953 Q 1566.5 949.0 1687.0 953 Q 1807.5 949.0 1928.0 953" fill="none" stroke="#1948a0" stroke-width="0.7999999999999999" stroke-opacity="0.22999999999999998"/>
<path d="M 0 948 Q 120.5 945.5 241.0 948 Q 361.5 945.5 482.0 948 Q 602.5 945.5 723.0 948 Q 843.5 945.5 964.0 948 Q 1084.5 945.5 1205.0 948 Q 1325.5 945.5 1446.0 948 Q 1566.5 945.5 1687.0 948 Q 1807.5 945.5 1928.0 948" fill="none" stroke="#1948a0" stroke-width="0.5999999999999999" stroke-opacity="0.16999999999999998"/>

</svg>