<svg width="1844" height="969" xmlns="http://www.w3.org/2000/svg" viewBox="0 0 1844 969">
<defs>
  <style>
    @import url('https://fonts.googleapis.com/css2?family=Lexend:wght@300;400;600;700&amp;display=swap');
    circle:hover { opacity: 1 !important; r: 6; }
    rect.bar-segment:hover { opacity: 1 !important; }
  </style>

  <linearGradient id="bg" x1="0%" y1="0%" x2="55%" y2="100%">
    <stop offset="0%"   stop-color="#010c1e"/>
    <stop offset="50%"  stop-color="#010f27"/>
    <stop offset="100%" stop-color="#000a18"/>
  </linearGradient>
  <linearGradient id="areaFill" x1="0%" y1="0%" x2="0%" y2="100%">
    <stop offset="0%"   stop-color="#4a90e2" stop-opacity="0.5"/>
    <stop offset="55%"  stop-color="#1a3f7a" stop-opacity="0.18"/>
    <stop offset="100%" stop-color="#000a18" stop-opacity="0"/>
  </linearGradient>
  <linearGradient id="gCommits" x1="0%" y1="0%" x2="100%" y2="0%">
    <stop offset="0%"   stop-color="#ff8c42"/>
    <stop offset="100%" stop-color="#ffd0a0"/>
  </linearGradient>
  <linearGradient id="gChanges" x1="0%" y1="0%" x2="100%" y2="0%">
    <stop offset="0%"   stop-color="#00d4f5" stop-opacity="0.8"/>
    <stop offset="50%"  stop-color="#00d4f5"/>
    <stop offset="100%" stop-color="#80eeff"/>
  </linearGradient>
  <linearGradient id="gBorder" x1="0%" y1="0%" x2="100%" y2="100%">
    <stop offset="0%"   stop-color="#1840a0" stop-opacity="0.9"/>
    <stop offset="50%"  stop-color="#3b82f6" stop-opacity="0.6"/>
    <stop offset="100%" stop-color="#60a5fa" stop-opacity="0.9"/>
  </linearGradient>
  <linearGradient id="gHeader" x1="0%" y1="0%" x2="100%" y2="0%">
    <stop offset="0%"   stop-color="#010c1e" stop-opacity="0"/>
    <stop offset="20%"  stop-color="#091c3e" stop-opacity="0.92"/>
    <stop offset="80%"  stop-color="#091c3e" stop-opacity="0.92"/>
    <stop offset="100%" stop-color="#010c1e" stop-opacity="0"/>
  </linearGradient>
  <linearGradient id="gAddBar" x1="0%" y1="0%" x2="0%" y2="100%">
    <stop offset="0%"   stop-color="#22c55e" stop-opacity="0.95"/>
    <stop offset="100%" stop-color="#22c55e" stop-opacity="0.65"/>
  </linearGradient>
  <linearGradient id="gDelBar" x1="0%" y1="0%" x2="0%" y2="100%">
    <stop offset="0%"   stop-color="#ef4444" stop-opacity="0.9"/>
    <stop offset="100%" stop-color="#ef4444" stop-opacity="0.6"/>
  </linearGradient>

  <filter id="glowOrange" x="-120%" y="-120%" width="340%" height="340%">
    <feGaussianBlur stdDeviation="4" result="b"/>
    <feMerge><feMergeNode in="b"/><feMergeNode in="SourceGraphic"/></feMerge>
  </filter>
  <filter id="glowCyan" x="-120%" y="-120%" width="340%" height="340%">
    <feGaussianBlur stdDeviation="3.5" result="b"/>
    <feMerge><feMergeNode in="b"/><feMergeNode in="SourceGraphic"/></feMerge>
  </filter>
  <filter id="glowTitle">
    <feGaussianBlur stdDeviation="5" result="b"/>
    <feMerge><feMergeNode in="b"/><feMergeNode in="b"/><feMergeNode in="SourceGraphic"/></feMerge>
  </filter>
  <filter id="glowLine" x="-6%" y="-120%" width="112%" height="340%">
    <feGaussianBlur stdDeviation="4.5" result="b"/>
    <feMerge><feMergeNode in="b"/><feMergeNode in="SourceGraphic"/></feMerge>
  </filter>
  <filter id="glowMA" x="-6%" y="-120%" width="112%" height="340%">
    <feGaussianBlur stdDeviation="3" result="b"/>
    <feMerge><feMergeNode in="b"/><feMergeNode in="SourceGraphic"/></feMerge>
  </filter>

  <pattern id="diamondTile" x="0" y="0" width="30" height="30" patternUnits="userSpaceOnUse">
    <path d="M15 2 L28 15 L15 28 L2 15 Z"
      fill="none" stroke="#0d2464" stroke-width="0.4" stroke-opacity="0.25"/>
  </pattern>

  <clipPath id="chartClip">
    <rect x="86" y="130" width="1680" height="360"/>
  </clipPath>
</defs>

<!-- ════ BACKGROUND ════ -->
<rect width="1844" height="969" fill="url(#bg)" rx="16"/>
<rect width="1844" height="969" fill="url(#diamondTile)" rx="16"/>

<!-- ════ BORDERS ════ -->
<rect width="1844" height="969" fill="none" rx="16" stroke="url(#gBorder)" stroke-width="2.2"/>
<rect x="5" y="5" width="1834" height="959" fill="none" rx="13"
  stroke="#1840a0" stroke-width="0.7" stroke-opacity="0.35"/>

<!-- ════ HEADER ════ -->
<rect x="0" y="0" width="1844" height="122" fill="url(#gHeader)" rx="16"/>
<line x1="24" y1="118.0" x2="1820.0" y2="118.0"
    stroke="url(#gBorder)" stroke-width="0.8" stroke-opacity="0.5"/>

<!-- ════ TITLE ════ -->
<text x="926.0" y="44" font-size="18" font-weight="600" fill="#cce8ff"
  text-anchor="middle" font-family="'Lexend','Segoe UI',sans-serif"
  filter="url(#glowTitle)" letter-spacing="5">⬡  COMMIT  ANALYTICS  ⬡</text>
<text x="926.0" y="62" font-size="9.5" fill="#3d7ed4" text-anchor="middle"
  font-family="'Lexend','Segoe UI',sans-serif" letter-spacing="3.5" font-weight="300">kieran-lucas/oop-course-project-uet</text>

<!-- ════ STATS BADGE ════ -->

    <rect x="1618" y="8" width="142" height="92" rx="10"
      fill="#030e26" fill-opacity="0.94" stroke="#2563eb" stroke-width="1.2"/>
    <text x="1689" y="24" font-size="8" fill="#3d7ed4"
      text-anchor="middle" font-family="'Lexend',sans-serif" letter-spacing="2" font-weight="400">TOTAL  COMMITS</text>
    <text x="1689" y="52" font-size="28" font-weight="700" fill="#cce8ff"
      text-anchor="middle" font-family="'Lexend',sans-serif" filter="url(#glowTitle)">426</text>
    <line x1="1634" y1="60" x2="1744" y2="60"
      stroke="#1a3f7a" stroke-width="0.8" stroke-opacity="0.5"/>
    <text x="1665" y="74" font-size="9" fill="#22c55e"
      text-anchor="middle" font-family="'Lexend',sans-serif" font-weight="400">+187.5k</text>
    <text x="1713" y="74" font-size="9" fill="#ef4444"
      text-anchor="middle" font-family="'Lexend',sans-serif" font-weight="400">-161.3k</text>
    <text x="1689" y="90" font-size="8" fill="#3d7ed4"
      text-anchor="middle" font-family="'Lexend',sans-serif" font-weight="300">50 active days · 1.6k files</text>

<!-- ════ LEGEND ════ -->
<g><rect x="570.0" y="90.0" width="24" height="12" rx="3"
        fill="#4a90e2" fill-opacity="0.45" stroke="#4a90e2" stroke-width="1.2"/><text x="601.0" y="100.0" font-size="11" fill="#93c5fd"
      font-family="'Lexend','Segoe UI',sans-serif" font-weight="400">Total Lines</text><line x1="706.0" y1="97.0" x2="730.0" y2="97.0"
        stroke="#ff8c42" stroke-width="2.5" stroke-linecap="round"/><circle cx="718.0" cy="97.0" r="3.5"
        fill="#ff8c42" stroke="#fff" stroke-width="0.6" stroke-opacity="0.3"/><text x="737.0" y="100.0" font-size="11" fill="#93c5fd"
      font-family="'Lexend','Segoe UI',sans-serif" font-weight="400">Commits</text><line x1="814.0" y1="97.0" x2="838.0" y2="97.0"
        stroke="#00d4f5" stroke-width="2.5" stroke-linecap="round"/><circle cx="826.0" cy="97.0" r="3.5"
        fill="#00d4f5" stroke="#fff" stroke-width="0.6" stroke-opacity="0.3"/><text x="845.0" y="100.0" font-size="11" fill="#93c5fd"
      font-family="'Lexend','Segoe UI',sans-serif" font-weight="400">Chg/Commit</text><rect x="949.0" y="90.0" width="12" height="12" rx="2"
        fill="#22c55e" opacity="0.85"/><text x="974.0" y="100.0" font-size="11" fill="#93c5fd"
      font-family="'Lexend','Segoe UI',sans-serif" font-weight="400">Additions</text><rect x="1071.0" y="90.0" width="12" height="12" rx="2"
        fill="#ef4444" opacity="0.85"/><text x="1096.0" y="100.0" font-size="11" fill="#93c5fd"
      font-family="'Lexend','Segoe UI',sans-serif" font-weight="400">Deletions</text><line x1="1187.0" y1="97.0" x2="1211.0" y2="97.0"
        stroke="#a78bfa" stroke-width="2" stroke-dasharray="5,3" stroke-linecap="round"/><text x="1218.0" y="100.0" font-size="11" fill="#93c5fd"
      font-family="'Lexend','Segoe UI',sans-serif" font-weight="400">7-day MA</text></g>

<!-- ════ AXIS LABELS ════ -->
<text x="16" y="310.0" font-size="9.5" fill="#4a90e2"
    text-anchor="middle" font-family="'Lexend','Segoe UI',sans-serif" letter-spacing="3" font-weight="300"
    transform="rotate(-90, 16, 310.0)">LINES</text>
<text x="1830.0" y="310.0" font-size="9.5"
    fill="#ff8c42" text-anchor="middle" font-family="'Lexend','Segoe UI',sans-serif"
    letter-spacing="3" font-weight="300" opacity="0.8"
    transform="rotate(90, 1830.0, 310.0)">COMMITS</text>

<!-- ════ GRID + Y-LABELS ════ -->
<line x1="86" y1="490.0" x2="1766" y2="490.0"
      stroke="#1a3f7a" stroke-width="1.4"
      stroke-opacity="0.9" stroke-dasharray="none"/><line x1="86" y1="418.0" x2="1766" y2="418.0"
      stroke="#1a3f7a" stroke-width="0.5"
      stroke-opacity="0.3" stroke-dasharray="6,6"/><line x1="86" y1="346.0" x2="1766" y2="346.0"
      stroke="#1a3f7a" stroke-width="0.5"
      stroke-opacity="0.3" stroke-dasharray="6,6"/><line x1="86" y1="274.0" x2="1766" y2="274.0"
      stroke="#1a3f7a" stroke-width="0.5"
      stroke-opacity="0.3" stroke-dasharray="6,6"/><line x1="86" y1="202.0" x2="1766" y2="202.0"
      stroke="#1a3f7a" stroke-width="0.5"
      stroke-opacity="0.3" stroke-dasharray="6,6"/><line x1="86" y1="130.0" x2="1766" y2="130.0"
      stroke="#1a3f7a" stroke-width="0.5"
      stroke-opacity="0.3" stroke-dasharray="6,6"/>
<text x="74" y="494.0" font-size="11" fill="#5aa8ff"
      text-anchor="end" font-family="'Lexend','Segoe UI',sans-serif" font-weight="300">0</text><text x="74" y="422.0" font-size="11" fill="#5aa8ff"
      text-anchor="end" font-family="'Lexend','Segoe UI',sans-serif" font-weight="300">20.0k</text><text x="74" y="350.0" font-size="11" fill="#5aa8ff"
      text-anchor="end" font-family="'Lexend','Segoe UI',sans-serif" font-weight="300">40.0k</text><text x="74" y="278.0" font-size="11" fill="#5aa8ff"
      text-anchor="end" font-family="'Lexend','Segoe UI',sans-serif" font-weight="300">60.0k</text><text x="74" y="206.0" font-size="11" fill="#5aa8ff"
      text-anchor="end" font-family="'Lexend','Segoe UI',sans-serif" font-weight="300">80.0k</text><text x="74" y="134.0" font-size="11" fill="#5aa8ff"
      text-anchor="end" font-family="'Lexend','Segoe UI',sans-serif" font-weight="300">100.0k</text>
<text x="1778" y="494.0" font-size="11" fill="#ff8c42"
      text-anchor="start" font-family="'Lexend','Segoe UI',sans-serif" font-weight="300" opacity="0.85">0</text><text x="1778" y="404.0" font-size="11" fill="#ff8c42"
      text-anchor="start" font-family="'Lexend','Segoe UI',sans-serif" font-weight="300" opacity="0.85">20</text><text x="1778" y="314.0" font-size="11" fill="#ff8c42"
      text-anchor="start" font-family="'Lexend','Segoe UI',sans-serif" font-weight="300" opacity="0.85">40</text><text x="1778" y="224.0" font-size="11" fill="#ff8c42"
      text-anchor="start" font-family="'Lexend','Segoe UI',sans-serif" font-weight="300" opacity="0.85">60</text><text x="1778" y="134.0" font-size="11" fill="#ff8c42"
      text-anchor="start" font-family="'Lexend','Segoe UI',sans-serif" font-weight="300" opacity="0.85">80</text>

<!-- ════ AXIS LINES ════ -->
<line x1="86" y1="130" x2="86" y2="490"
  stroke="#1a3f7a" stroke-width="1.2" stroke-opacity="0.65"/>
<line x1="86" y1="490" x2="1766" y2="490"
  stroke="#1a3f7a" stroke-width="1.4" stroke-opacity="0.8"/>
<line x1="1766" y1="130" x2="1766" y2="490"
  stroke="#ff8c42" stroke-width="0.9" stroke-opacity="0.28"/>

<!-- ════ X-AXIS ════ -->
<text x="86.0" y="514" font-size="10" fill="#5aa8ff"
      text-anchor="end" font-family="'Lexend','Segoe UI',sans-serif" font-weight="300"
      transform="rotate(-42, 86.0, 514)">10 Mar</text><text x="199.9" y="514" font-size="10" fill="#5aa8ff"
      text-anchor="end" font-family="'Lexend','Segoe UI',sans-serif" font-weight="300"
      transform="rotate(-42, 199.9, 514)">14 Mar</text><text x="313.8" y="514" font-size="10" fill="#5aa8ff"
      text-anchor="end" font-family="'Lexend','Segoe UI',sans-serif" font-weight="300"
      transform="rotate(-42, 313.8, 514)">18 Mar</text><text x="427.7" y="514" font-size="10" fill="#5aa8ff"
      text-anchor="end" font-family="'Lexend','Segoe UI',sans-serif" font-weight="300"
      transform="rotate(-42, 427.7, 514)">22 Mar</text><text x="541.6" y="514" font-size="10" fill="#5aa8ff"
      text-anchor="end" font-family="'Lexend','Segoe UI',sans-serif" font-weight="300"
      transform="rotate(-42, 541.6, 514)">26 Mar</text><text x="655.5" y="514" font-size="10" fill="#5aa8ff"
      text-anchor="end" font-family="'Lexend','Segoe UI',sans-serif" font-weight="300"
      transform="rotate(-42, 655.5, 514)">30 Mar</text><text x="769.4" y="514" font-size="10" fill="#5aa8ff"
      text-anchor="end" font-family="'Lexend','Segoe UI',sans-serif" font-weight="300"
      transform="rotate(-42, 769.4, 514)">3 Apr</text><text x="883.3" y="514" font-size="10" fill="#5aa8ff"
      text-anchor="end" font-family="'Lexend','Segoe UI',sans-serif" font-weight="300"
      transform="rotate(-42, 883.3, 514)">7 Apr</text><text x="997.2" y="514" font-size="10" fill="#5aa8ff"
      text-anchor="end" font-family="'Lexend','Segoe UI',sans-serif" font-weight="300"
      transform="rotate(-42, 997.2, 514)">11 Apr</text><text x="1111.1" y="514" font-size="10" fill="#5aa8ff"
      text-anchor="end" font-family="'Lexend','Segoe UI',sans-serif" font-weight="300"
      transform="rotate(-42, 1111.1, 514)">15 Apr</text><text x="1225.0" y="514" font-size="10" fill="#5aa8ff"
      text-anchor="end" font-family="'Lexend','Segoe UI',sans-serif" font-weight="300"
      transform="rotate(-42, 1225.0, 514)">19 Apr</text><text x="1338.9" y="514" font-size="10" fill="#5aa8ff"
      text-anchor="end" font-family="'Lexend','Segoe UI',sans-serif" font-weight="300"
      transform="rotate(-42, 1338.9, 514)">23 Apr</text><text x="1452.8" y="514" font-size="10" fill="#5aa8ff"
      text-anchor="end" font-family="'Lexend','Segoe UI',sans-serif" font-weight="300"
      transform="rotate(-42, 1452.8, 514)">27 Apr</text><text x="1566.7" y="514" font-size="10" fill="#5aa8ff"
      text-anchor="end" font-family="'Lexend','Segoe UI',sans-serif" font-weight="300"
      transform="rotate(-42, 1566.7, 514)">1 May</text><text x="1680.6" y="514" font-size="10" fill="#5aa8ff"
      text-anchor="end" font-family="'Lexend','Segoe UI',sans-serif" font-weight="300"
      transform="rotate(-42, 1680.6, 514)">5 May</text><text x="1766.0" y="514" font-size="10" fill="#5aa8ff"
      text-anchor="end" font-family="'Lexend','Segoe UI',sans-serif" font-weight="300"
      transform="rotate(-42, 1766.0, 514)">8 May</text>

<!-- ════ CHART CONTENT ════ -->
<g clip-path="url(#chartClip)">
  <!-- Total lines: area + stroke -->
  <path d="M 86.00 490.00 C 90.75 490.00, 104.98 490.00, 114.47 490.00 C 123.97 490.00, 133.46 490.00, 142.95 490.00 C 152.44 490.00, 161.93 490.00, 171.42 490.00 C 180.92 490.00, 190.41 490.00, 199.90 490.00 C 209.39 490.00, 218.88 490.00, 228.37 490.00 C 237.86 490.00, 247.36 490.00, 256.85 490.00 C 266.34 489.98, 275.83 489.92, 285.32 489.91 C 294.81 489.89, 304.31 489.91, 313.80 489.91 C 323.29 489.91, 332.78 489.94, 342.27 489.91 C 351.76 489.87, 361.25 489.72, 370.75 489.69 C 380.24 489.65, 389.73 489.70, 399.22 489.69 C 408.71 489.67, 418.20 489.62, 427.69 489.61 C 437.19 489.59, 446.68 490.00, 456.17 489.61 C 465.66 488.99, 475.15 486.51, 484.64 485.89 C 494.14 485.28, 503.63 485.91, 513.12 485.91 C 522.61 485.91, 532.10 485.90, 541.59 485.90 C 551.08 485.90, 560.58 490.00, 570.07 485.89 C 579.56 443.28, 589.05 274.96, 598.54 230.27 C 608.03 185.59, 617.53 219.88, 627.02 217.78 C 636.51 215.68, 646.00 218.05, 655.49 217.69 C 664.98 217.33, 674.47 216.22, 683.97 215.61 C 693.46 215.00, 702.95 214.42, 712.44 214.05 C 721.93 213.67, 731.42 213.51, 740.92 213.37 C 750.41 213.23, 759.90 213.54, 769.39 213.21 C 778.88 212.88, 788.37 211.70, 797.86 211.39 C 807.36 211.09, 816.85 211.39, 826.34 211.39 C 835.83 211.39, 845.32 211.45, 854.81 211.38 C 864.31 211.31, 873.80 211.03, 883.29 210.96 C 892.78 210.89, 902.27 210.96, 911.76 210.96 C 921.25 210.95, 930.75 210.95, 940.24 210.94 C 949.73 210.94, 959.22 210.92, 968.71 210.92 C 978.20 210.92, 987.69 211.38, 997.19 210.94 C 1006.68 210.50, 1016.17 208.73, 1025.66 208.29 C 1035.15 207.84, 1044.64 208.30, 1054.14 208.29 C 1063.63 208.27, 1073.12 208.21, 1082.61 208.20 C 1092.10 208.18, 1101.59 208.18, 1111.08 208.17 C 1120.58 208.17, 1130.07 208.16, 1139.56 208.16 C 1149.05 208.15, 1158.54 208.15, 1168.03 208.15 C 1177.53 208.14, 1187.02 208.13, 1196.51 208.12 C 1206.00 208.12, 1215.49 208.20, 1224.98 208.11 C 1234.47 208.01, 1243.97 207.65, 1253.46 207.56 C 1262.95 207.47, 1272.44 207.55, 1281.93 207.55 C 1291.42 207.55, 1300.92 207.54, 1310.41 207.54 C 1319.90 207.53, 1329.39 207.53, 1338.88 207.52 C 1348.37 207.52, 1357.86 207.51, 1367.36 207.50 C 1376.85 207.49, 1386.34 207.49, 1395.83 207.49 C 1405.32 207.49, 1414.81 207.49, 1424.31 207.49 C 1433.80 207.49, 1443.29 207.50, 1452.78 207.48 C 1462.27 207.46, 1471.76 207.41, 1481.25 207.39 C 1490.75 207.37, 1500.24 207.38, 1509.73 207.37 C 1519.22 207.37, 1528.71 207.71, 1538.20 207.35 C 1547.69 207.00, 1557.19 205.59, 1566.68 205.24 C 1576.17 204.89, 1585.66 211.15, 1595.15 205.24 C 1604.64 199.33, 1614.14 135.79, 1623.63 169.76 C 1633.12 203.74, 1642.61 369.82, 1652.10 409.09 C 1661.59 448.36, 1671.08 406.13, 1680.58 405.39 C 1690.07 404.64, 1699.56 405.21, 1709.05 404.61 C 1718.54 404.02, 1728.03 403.29, 1737.53 401.81 C 1747.02 400.33, 1761.25 396.74, 1766.00 395.72 L 1766.00 490 L 86.00 490 Z" fill="url(#areaFill)"/>
  <path d="M 86.00 490.00 C 90.75 490.00, 104.98 490.00, 114.47 490.00 C 123.97 490.00, 133.46 490.00, 142.95 490.00 C 152.44 490.00, 161.93 490.00, 171.42 490.00 C 180.92 490.00, 190.41 490.00, 199.90 490.00 C 209.39 490.00, 218.88 490.00, 228.37 490.00 C 237.86 490.00, 247.36 490.00, 256.85 490.00 C 266.34 489.98, 275.83 489.92, 285.32 489.91 C 294.81 489.89, 304.31 489.91, 313.80 489.91 C 323.29 489.91, 332.78 489.94, 342.27 489.91 C 351.76 489.87, 361.25 489.72, 370.75 489.69 C 380.24 489.65, 389.73 489.70, 399.22 489.69 C 408.71 489.67, 418.20 489.62, 427.69 489.61 C 437.19 489.59, 446.68 490.00, 456.17 489.61 C 465.66 488.99, 475.15 486.51, 484.64 485.89 C 494.14 485.28, 503.63 485.91, 513.12 485.91 C 522.61 485.91, 532.10 485.90, 541.59 485.90 C 551.08 485.90, 560.58 490.00, 570.07 485.89 C 579.56 443.28, 589.05 274.96, 598.54 230.27 C 608.03 185.59, 617.53 219.88, 627.02 217.78 C 636.51 215.68, 646.00 218.05, 655.49 217.69 C 664.98 217.33, 674.47 216.22, 683.97 215.61 C 693.46 215.00, 702.95 214.42, 712.44 214.05 C 721.93 213.67, 731.42 213.51, 740.92 213.37 C 750.41 213.23, 759.90 213.54, 769.39 213.21 C 778.88 212.88, 788.37 211.70, 797.86 211.39 C 807.36 211.09, 816.85 211.39, 826.34 211.39 C 835.83 211.39, 845.32 211.45, 854.81 211.38 C 864.31 211.31, 873.80 211.03, 883.29 210.96 C 892.78 210.89, 902.27 210.96, 911.76 210.96 C 921.25 210.95, 930.75 210.95, 940.24 210.94 C 949.73 210.94, 959.22 210.92, 968.71 210.92 C 978.20 210.92, 987.69 211.38, 997.19 210.94 C 1006.68 210.50, 1016.17 208.73, 1025.66 208.29 C 1035.15 207.84, 1044.64 208.30, 1054.14 208.29 C 1063.63 208.27, 1073.12 208.21, 1082.61 208.20 C 1092.10 208.18, 1101.59 208.18, 1111.08 208.17 C 1120.58 208.17, 1130.07 208.16, 1139.56 208.16 C 1149.05 208.15, 1158.54 208.15, 1168.03 208.15 C 1177.53 208.14, 1187.02 208.13, 1196.51 208.12 C 1206.00 208.12, 1215.49 208.20, 1224.98 208.11 C 1234.47 208.01, 1243.97 207.65, 1253.46 207.56 C 1262.95 207.47, 1272.44 207.55, 1281.93 207.55 C 1291.42 207.55, 1300.92 207.54, 1310.41 207.54 C 1319.90 207.53, 1329.39 207.53, 1338.88 207.52 C 1348.37 207.52, 1357.86 207.51, 1367.36 207.50 C 1376.85 207.49, 1386.34 207.49, 1395.83 207.49 C 1405.32 207.49, 1414.81 207.49, 1424.31 207.49 C 1433.80 207.49, 1443.29 207.50, 1452.78 207.48 C 1462.27 207.46, 1471.76 207.41, 1481.25 207.39 C 1490.75 207.37, 1500.24 207.38, 1509.73 207.37 C 1519.22 207.37, 1528.71 207.71, 1538.20 207.35 C 1547.69 207.00, 1557.19 205.59, 1566.68 205.24 C 1576.17 204.89, 1585.66 211.15, 1595.15 205.24 C 1604.64 199.33, 1614.14 135.79, 1623.63 169.76 C 1633.12 203.74, 1642.61 369.82, 1652.10 409.09 C 1661.59 448.36, 1671.08 406.13, 1680.58 405.39 C 1690.07 404.64, 1699.56 405.21, 1709.05 404.61 C 1718.54 404.02, 1728.03 403.29, 1737.53 401.81 C 1747.02 400.33, 1761.25 396.74, 1766.00 395.72" fill="none" stroke="#4a90e2" stroke-width="2" stroke-opacity="0.7"/>

  <!-- Bars -->
  <rect x="476.9" y="312.5" width="15.400000000000002" height="88.1"
        fill="url(#gDelBar)" rx="2" opacity="0.78"/><rect x="476.9" y="400.6" width="15.400000000000002" height="89.4"
        fill="url(#gAddBar)" rx="2" opacity="0.82"/><rect x="590.8" y="392.5" width="15.400000000000002" height="2.7"
        fill="url(#gDelBar)" rx="2" opacity="0.78"/><rect x="590.8" y="395.2" width="15.400000000000002" height="94.8"
        fill="url(#gAddBar)" rx="2" opacity="0.82"/><rect x="619.3" y="476.3" width="15.400000000000002" height="4.6"
        fill="url(#gDelBar)" rx="2" opacity="0.78"/><rect x="619.3" y="480.9" width="15.400000000000002" height="9.1"
        fill="url(#gAddBar)" rx="2" opacity="0.82"/><rect x="676.3" y="487.5" width="15.400000000000002" height="0.9"
        fill="url(#gDelBar)" rx="2" opacity="0.78"/><rect x="676.3" y="488.4" width="15.400000000000002" height="1.6"
        fill="url(#gAddBar)" rx="2" opacity="0.82"/><rect x="704.7" y="487.5" width="15.400000000000002" height="1.0"
        fill="url(#gDelBar)" rx="2" opacity="0.78"/><rect x="704.7" y="488.5" width="15.400000000000002" height="1.5"
        fill="url(#gAddBar)" rx="2" opacity="0.82"/><rect x="761.7" y="487.6" width="15.400000000000002" height="1.2"
        fill="url(#gDelBar)" rx="2" opacity="0.78"/><rect x="761.7" y="488.8" width="15.400000000000002" height="1.2"
        fill="url(#gAddBar)" rx="2" opacity="0.82"/><rect x="790.2" y="486.1" width="15.400000000000002" height="1.6"
        fill="url(#gDelBar)" rx="2" opacity="0.78"/><rect x="790.2" y="487.7" width="15.400000000000002" height="2.3"
        fill="url(#gAddBar)" rx="2" opacity="0.82"/><rect x="1018.0" y="488.8" width="15.400000000000002" height="1.2"
        fill="url(#gAddBar)" rx="2" opacity="0.82"/><rect x="1245.8" y="488.7" width="15.400000000000002" height="0.5"
        fill="url(#gDelBar)" rx="2" opacity="0.78"/><rect x="1245.8" y="489.3" width="15.400000000000002" height="0.7"
        fill="url(#gAddBar)" rx="2" opacity="0.82"/><rect x="1559.0" y="479.7" width="15.400000000000002" height="4.8"
        fill="url(#gDelBar)" rx="2" opacity="0.78"/><rect x="1559.0" y="484.5" width="15.400000000000002" height="5.5"
        fill="url(#gAddBar)" rx="2" opacity="0.82"/><rect x="1615.9" y="472.3" width="15.400000000000002" height="2.5"
        fill="url(#gDelBar)" rx="2" opacity="0.78"/><rect x="1615.9" y="474.8" width="15.400000000000002" height="15.2"
        fill="url(#gAddBar)" rx="2" opacity="0.82"/><rect x="1644.4" y="401.3" width="15.400000000000002" height="87.4"
        fill="url(#gDelBar)" rx="2" opacity="0.78"/><rect x="1644.4" y="488.7" width="15.400000000000002" height="1.3"
        fill="url(#gAddBar)" rx="2" opacity="0.82"/><rect x="1672.9" y="479.5" width="15.400000000000002" height="4.6"
        fill="url(#gDelBar)" rx="2" opacity="0.78"/><rect x="1672.9" y="484.1" width="15.400000000000002" height="5.9"
        fill="url(#gAddBar)" rx="2" opacity="0.82"/><rect x="1701.4" y="488.0" width="15.400000000000002" height="0.9"
        fill="url(#gDelBar)" rx="2" opacity="0.78"/><rect x="1701.4" y="488.8" width="15.400000000000002" height="1.2"
        fill="url(#gAddBar)" rx="2" opacity="0.82"/><rect x="1729.8" y="483.7" width="15.400000000000002" height="2.6"
        fill="url(#gDelBar)" rx="2" opacity="0.78"/><rect x="1729.8" y="486.4" width="15.400000000000002" height="3.6"
        fill="url(#gAddBar)" rx="2" opacity="0.82"/><rect x="1758.3" y="486.2" width="15.400000000000002" height="0.8"
        fill="url(#gDelBar)" rx="2" opacity="0.78"/><rect x="1758.3" y="487.0" width="15.400000000000002" height="3.0"
        fill="url(#gAddBar)" rx="2" opacity="0.82"/>

  <!-- Commits line — glow + crisp -->
  <path d="M 86.00 485.50 C 90.75 486.25, 104.98 489.25, 114.47 490.00 C 123.97 490.00, 133.46 490.00, 142.95 490.00 C 152.44 490.00, 161.93 490.00, 171.42 490.00 C 180.92 490.00, 190.41 490.00, 199.90 490.00 C 209.39 490.00, 218.88 490.00, 228.37 490.00 C 237.86 490.00, 247.36 490.00, 256.85 490.00 C 266.34 482.50, 275.83 445.00, 285.32 445.00 C 294.81 445.00, 304.31 482.50, 313.80 490.00 C 323.29 490.00, 332.78 490.00, 342.27 490.00 C 351.76 470.50, 361.25 373.00, 370.75 373.00 C 380.24 373.00, 389.73 471.25, 399.22 490.00 C 408.71 490.00, 418.20 485.50, 427.69 485.50 C 437.19 485.50, 446.68 490.00, 456.17 490.00 C 465.66 466.75, 475.15 351.25, 484.64 346.00 C 494.14 340.75, 503.63 436.75, 513.12 458.50 C 522.61 480.25, 532.10 472.00, 541.59 476.50 C 551.08 481.00, 560.58 490.00, 570.07 485.50 C 579.56 438.25, 589.05 225.25, 598.54 193.00 C 608.03 160.75, 617.53 244.00, 627.02 292.00 C 636.51 340.00, 646.00 460.00, 655.49 481.00 C 664.98 490.00, 674.47 427.00, 683.97 418.00 C 693.46 409.00, 702.95 416.50, 712.44 427.00 C 721.93 437.50, 731.42 488.50, 740.92 481.00 C 750.41 473.50, 759.90 394.00, 769.39 382.00 C 778.88 370.00, 788.37 391.75, 797.86 409.00 C 807.36 426.25, 816.85 472.75, 826.34 485.50 C 835.83 490.00, 845.32 490.00, 854.81 485.50 C 864.31 479.50, 873.80 449.50, 883.29 449.50 C 892.78 449.50, 902.27 479.50, 911.76 485.50 C 921.25 490.00, 930.75 485.50, 940.24 485.50 C 949.73 485.50, 959.22 485.50, 968.71 485.50 C 978.20 485.50, 987.69 487.75, 997.19 485.50 C 1006.68 483.25, 1016.17 472.00, 1025.66 472.00 C 1035.15 472.00, 1044.64 483.25, 1054.14 485.50 C 1063.63 487.75, 1073.12 485.50, 1082.61 485.50 C 1092.10 485.50, 1101.59 485.50, 1111.08 485.50 C 1120.58 485.50, 1130.07 485.50, 1139.56 485.50 C 1149.05 485.50, 1158.54 485.50, 1168.03 485.50 C 1177.53 485.50, 1187.02 485.50, 1196.51 485.50 C 1206.00 485.50, 1215.49 487.00, 1224.98 485.50 C 1234.47 484.00, 1243.97 476.50, 1253.46 476.50 C 1262.95 476.50, 1272.44 484.00, 1281.93 485.50 C 1291.42 487.00, 1300.92 485.50, 1310.41 485.50 C 1319.90 485.50, 1329.39 485.50, 1338.88 485.50 C 1348.37 485.50, 1357.86 485.50, 1367.36 485.50 C 1376.85 485.50, 1386.34 485.50, 1395.83 485.50 C 1405.32 485.50, 1414.81 485.50, 1424.31 485.50 C 1433.80 485.50, 1443.29 485.50, 1452.78 485.50 C 1462.27 485.50, 1471.76 485.50, 1481.25 485.50 C 1490.75 485.50, 1500.24 485.50, 1509.73 485.50 C 1519.22 485.50, 1528.71 489.25, 1538.20 485.50 C 1547.69 481.75, 1557.19 463.00, 1566.68 463.00 C 1576.17 463.00, 1585.66 490.00, 1595.15 485.50 C 1604.64 460.75, 1614.14 321.25, 1623.63 314.50 C 1633.12 307.75, 1642.61 443.50, 1652.10 445.00 C 1661.59 446.50, 1671.08 322.75, 1680.58 323.50 C 1690.07 324.25, 1699.56 431.50, 1709.05 449.50 C 1718.54 467.50, 1728.03 428.50, 1737.53 431.50 C 1747.02 434.50, 1761.25 461.50, 1766.00 467.50" fill="none" stroke="#ff8c42" stroke-width="9" stroke-opacity="0.06" filter="url(#glowLine)"/>
  <path d="M 86.00 485.50 C 90.75 486.25, 104.98 489.25, 114.47 490.00 C 123.97 490.00, 133.46 490.00, 142.95 490.00 C 152.44 490.00, 161.93 490.00, 171.42 490.00 C 180.92 490.00, 190.41 490.00, 199.90 490.00 C 209.39 490.00, 218.88 490.00, 228.37 490.00 C 237.86 490.00, 247.36 490.00, 256.85 490.00 C 266.34 482.50, 275.83 445.00, 285.32 445.00 C 294.81 445.00, 304.31 482.50, 313.80 490.00 C 323.29 490.00, 332.78 490.00, 342.27 490.00 C 351.76 470.50, 361.25 373.00, 370.75 373.00 C 380.24 373.00, 389.73 471.25, 399.22 490.00 C 408.71 490.00, 418.20 485.50, 427.69 485.50 C 437.19 485.50, 446.68 490.00, 456.17 490.00 C 465.66 466.75, 475.15 351.25, 484.64 346.00 C 494.14 340.75, 503.63 436.75, 513.12 458.50 C 522.61 480.25, 532.10 472.00, 541.59 476.50 C 551.08 481.00, 560.58 490.00, 570.07 485.50 C 579.56 438.25, 589.05 225.25, 598.54 193.00 C 608.03 160.75, 617.53 244.00, 627.02 292.00 C 636.51 340.00, 646.00 460.00, 655.49 481.00 C 664.98 490.00, 674.47 427.00, 683.97 418.00 C 693.46 409.00, 702.95 416.50, 712.44 427.00 C 721.93 437.50, 731.42 488.50, 740.92 481.00 C 750.41 473.50, 759.90 394.00, 769.39 382.00 C 778.88 370.00, 788.37 391.75, 797.86 409.00 C 807.36 426.25, 816.85 472.75, 826.34 485.50 C 835.83 490.00, 845.32 490.00, 854.81 485.50 C 864.31 479.50, 873.80 449.50, 883.29 449.50 C 892.78 449.50, 902.27 479.50, 911.76 485.50 C 921.25 490.00, 930.75 485.50, 940.24 485.50 C 949.73 485.50, 959.22 485.50, 968.71 485.50 C 978.20 485.50, 987.69 487.75, 997.19 485.50 C 1006.68 483.25, 1016.17 472.00, 1025.66 472.00 C 1035.15 472.00, 1044.64 483.25, 1054.14 485.50 C 1063.63 487.75, 1073.12 485.50, 1082.61 485.50 C 1092.10 485.50, 1101.59 485.50, 1111.08 485.50 C 1120.58 485.50, 1130.07 485.50, 1139.56 485.50 C 1149.05 485.50, 1158.54 485.50, 1168.03 485.50 C 1177.53 485.50, 1187.02 485.50, 1196.51 485.50 C 1206.00 485.50, 1215.49 487.00, 1224.98 485.50 C 1234.47 484.00, 1243.97 476.50, 1253.46 476.50 C 1262.95 476.50, 1272.44 484.00, 1281.93 485.50 C 1291.42 487.00, 1300.92 485.50, 1310.41 485.50 C 1319.90 485.50, 1329.39 485.50, 1338.88 485.50 C 1348.37 485.50, 1357.86 485.50, 1367.36 485.50 C 1376.85 485.50, 1386.34 485.50, 1395.83 485.50 C 1405.32 485.50, 1414.81 485.50, 1424.31 485.50 C 1433.80 485.50, 1443.29 485.50, 1452.78 485.50 C 1462.27 485.50, 1471.76 485.50, 1481.25 485.50 C 1490.75 485.50, 1500.24 485.50, 1509.73 485.50 C 1519.22 485.50, 1528.71 489.25, 1538.20 485.50 C 1547.69 481.75, 1557.19 463.00, 1566.68 463.00 C 1576.17 463.00, 1585.66 490.00, 1595.15 485.50 C 1604.64 460.75, 1614.14 321.25, 1623.63 314.50 C 1633.12 307.75, 1642.61 443.50, 1652.10 445.00 C 1661.59 446.50, 1671.08 322.75, 1680.58 323.50 C 1690.07 324.25, 1699.56 431.50, 1709.05 449.50 C 1718.54 467.50, 1728.03 428.50, 1737.53 431.50 C 1747.02 434.50, 1761.25 461.50, 1766.00 467.50" fill="none" stroke="url(#gCommits)" stroke-width="2.8" stroke-linecap="round"/>

  <!-- Changes/commit line -->
  <path d="M 86.00 489.95 C 90.75 489.96, 104.98 489.99, 114.47 490.00 C 123.97 490.00, 133.46 490.00, 142.95 490.00 C 152.44 490.00, 161.93 490.00, 171.42 490.00 C 180.92 490.00, 190.41 490.00, 199.90 490.00 C 209.39 490.00, 218.88 490.00, 228.37 490.00 C 237.86 490.00, 247.36 490.00, 256.85 490.00 C 266.34 489.97, 275.83 489.82, 285.32 489.82 C 294.81 489.82, 304.31 489.97, 313.80 490.00 C 323.29 490.00, 332.78 490.00, 342.27 490.00 C 351.76 489.98, 361.25 489.87, 370.75 489.87 C 380.24 489.87, 389.73 490.00, 399.22 490.00 C 408.71 489.86, 418.20 489.01, 427.69 489.01 C 437.19 489.01, 446.68 490.00, 456.17 490.00 C 465.66 458.07, 475.15 297.56, 484.64 297.44 C 494.14 297.33, 503.63 457.62, 513.12 489.32 C 522.61 490.00, 532.10 487.94, 541.59 487.66 C 551.08 487.38, 560.58 490.00, 570.07 487.66 C 579.56 479.50, 589.05 440.12, 598.54 438.70 C 608.03 437.28, 617.53 472.11, 627.02 479.15 C 636.51 486.20, 646.00 480.05, 655.49 480.95 C 664.98 481.86, 674.47 484.08, 683.97 484.56 C 693.46 485.03, 702.95 483.86, 712.44 483.79 C 721.93 483.72, 731.42 483.70, 740.92 484.15 C 750.41 484.60, 759.90 486.76, 769.39 486.49 C 778.88 486.22, 788.37 482.59, 797.86 482.53 C 807.36 482.47, 816.85 486.48, 826.34 486.13 C 835.83 485.78, 845.32 480.26, 854.81 480.46 C 864.31 480.65, 873.80 486.26, 883.29 487.30 C 892.78 488.34, 902.27 487.88, 911.76 486.67 C 921.25 485.46, 930.75 481.23, 940.24 480.01 C 949.73 478.79, 959.22 479.49, 968.71 479.38 C 978.20 479.27, 987.69 479.64, 997.19 479.38 C 1006.68 479.12, 1016.17 476.63, 1025.66 477.81 C 1035.15 478.98, 1044.64 487.00, 1054.14 486.40 C 1063.63 485.80, 1073.12 475.51, 1082.61 474.20 C 1092.10 472.90, 1101.59 477.86, 1111.08 478.57 C 1120.58 479.28, 1130.07 478.50, 1139.56 478.48 C 1149.05 478.47, 1158.54 478.53, 1168.03 478.48 C 1177.53 478.44, 1187.02 478.31, 1196.51 478.21 C 1206.00 478.10, 1215.49 478.32, 1224.98 477.85 C 1234.47 477.38, 1243.97 473.94, 1253.46 475.38 C 1262.95 476.81, 1272.44 486.17, 1281.93 486.49 C 1291.42 486.81, 1300.92 478.88, 1310.41 477.31 C 1319.90 475.74, 1329.39 477.16, 1338.88 477.04 C 1348.37 476.92, 1357.86 476.71, 1367.36 476.59 C 1376.85 476.47, 1386.34 476.35, 1395.83 476.32 C 1405.32 476.29, 1414.81 476.46, 1424.31 476.41 C 1433.80 476.37, 1443.29 477.12, 1452.78 476.05 C 1462.27 474.98, 1471.76 469.96, 1481.25 469.98 C 1490.75 469.99, 1500.24 477.21, 1509.73 476.14 C 1519.22 475.07, 1528.71 471.21, 1538.20 463.54 C 1547.69 455.88, 1557.19 426.34, 1566.68 430.15 C 1576.17 433.96, 1585.66 479.05, 1595.15 486.40 C 1604.64 490.00, 1614.14 490.00, 1623.63 474.25 C 1633.12 423.52, 1642.61 181.04, 1652.10 182.02 C 1661.59 183.00, 1671.08 430.11, 1680.58 480.14 C 1690.07 490.00, 1699.56 483.37, 1709.05 482.21 C 1718.54 481.06, 1728.03 476.32, 1737.53 473.21 C 1747.02 470.11, 1761.25 465.19, 1766.00 463.58" fill="none" stroke="#00d4f5" stroke-width="9" stroke-opacity="0.06" filter="url(#glowLine)"/>
  <path d="M 86.00 489.95 C 90.75 489.96, 104.98 489.99, 114.47 490.00 C 123.97 490.00, 133.46 490.00, 142.95 490.00 C 152.44 490.00, 161.93 490.00, 171.42 490.00 C 180.92 490.00, 190.41 490.00, 199.90 490.00 C 209.39 490.00, 218.88 490.00, 228.37 490.00 C 237.86 490.00, 247.36 490.00, 256.85 490.00 C 266.34 489.97, 275.83 489.82, 285.32 489.82 C 294.81 489.82, 304.31 489.97, 313.80 490.00 C 323.29 490.00, 332.78 490.00, 342.27 490.00 C 351.76 489.98, 361.25 489.87, 370.75 489.87 C 380.24 489.87, 389.73 490.00, 399.22 490.00 C 408.71 489.86, 418.20 489.01, 427.69 489.01 C 437.19 489.01, 446.68 490.00, 456.17 490.00 C 465.66 458.07, 475.15 297.56, 484.64 297.44 C 494.14 297.33, 503.63 457.62, 513.12 489.32 C 522.61 490.00, 532.10 487.94, 541.59 487.66 C 551.08 487.38, 560.58 490.00, 570.07 487.66 C 579.56 479.50, 589.05 440.12, 598.54 438.70 C 608.03 437.28, 617.53 472.11, 627.02 479.15 C 636.51 486.20, 646.00 480.05, 655.49 480.95 C 664.98 481.86, 674.47 484.08, 683.97 484.56 C 693.46 485.03, 702.95 483.86, 712.44 483.79 C 721.93 483.72, 731.42 483.70, 740.92 484.15 C 750.41 484.60, 759.90 486.76, 769.39 486.49 C 778.88 486.22, 788.37 482.59, 797.86 482.53 C 807.36 482.47, 816.85 486.48, 826.34 486.13 C 835.83 485.78, 845.32 480.26, 854.81 480.46 C 864.31 480.65, 873.80 486.26, 883.29 487.30 C 892.78 488.34, 902.27 487.88, 911.76 486.67 C 921.25 485.46, 930.75 481.23, 940.24 480.01 C 949.73 478.79, 959.22 479.49, 968.71 479.38 C 978.20 479.27, 987.69 479.64, 997.19 479.38 C 1006.68 479.12, 1016.17 476.63, 1025.66 477.81 C 1035.15 478.98, 1044.64 487.00, 1054.14 486.40 C 1063.63 485.80, 1073.12 475.51, 1082.61 474.20 C 1092.10 472.90, 1101.59 477.86, 1111.08 478.57 C 1120.58 479.28, 1130.07 478.50, 1139.56 478.48 C 1149.05 478.47, 1158.54 478.53, 1168.03 478.48 C 1177.53 478.44, 1187.02 478.31, 1196.51 478.21 C 1206.00 478.10, 1215.49 478.32, 1224.98 477.85 C 1234.47 477.38, 1243.97 473.94, 1253.46 475.38 C 1262.95 476.81, 1272.44 486.17, 1281.93 486.49 C 1291.42 486.81, 1300.92 478.88, 1310.41 477.31 C 1319.90 475.74, 1329.39 477.16, 1338.88 477.04 C 1348.37 476.92, 1357.86 476.71, 1367.36 476.59 C 1376.85 476.47, 1386.34 476.35, 1395.83 476.32 C 1405.32 476.29, 1414.81 476.46, 1424.31 476.41 C 1433.80 476.37, 1443.29 477.12, 1452.78 476.05 C 1462.27 474.98, 1471.76 469.96, 1481.25 469.98 C 1490.75 469.99, 1500.24 477.21, 1509.73 476.14 C 1519.22 475.07, 1528.71 471.21, 1538.20 463.54 C 1547.69 455.88, 1557.19 426.34, 1566.68 430.15 C 1576.17 433.96, 1585.66 479.05, 1595.15 486.40 C 1604.64 490.00, 1614.14 490.00, 1623.63 474.25 C 1633.12 423.52, 1642.61 181.04, 1652.10 182.02 C 1661.59 183.00, 1671.08 430.11, 1680.58 480.14 C 1690.07 490.00, 1699.56 483.37, 1709.05 482.21 C 1718.54 481.06, 1728.03 476.32, 1737.53 473.21 C 1747.02 470.11, 1761.25 465.19, 1766.00 463.58" fill="none" stroke="url(#gChanges)" stroke-width="2.5" stroke-linecap="round"/>

  <!-- Moving averages -->
  <path d="M 86.00 488.88 C 90.75 488.91, 104.98 489.04, 114.47 489.10 C 123.97 489.16, 133.46 489.21, 142.95 489.25 C 152.44 489.29, 161.93 490.00, 171.42 489.36 C 180.92 488.41, 190.41 484.54, 199.90 483.57 C 209.39 482.61, 218.88 483.57, 228.37 483.57 C 237.86 483.57, 247.36 486.36, 256.85 483.57 C 266.34 480.79, 275.83 469.64, 285.32 466.86 C 294.81 464.07, 304.31 466.96, 313.80 466.86 C 323.29 466.75, 332.78 466.32, 342.27 466.21 C 351.76 466.11, 361.25 468.57, 370.75 466.21 C 380.24 463.86, 389.73 455.18, 399.22 452.07 C 408.71 448.96, 418.20 448.64, 427.69 447.57 C 437.19 446.50, 446.68 443.29, 456.17 445.64 C 465.66 448.00, 475.15 466.11, 484.64 461.71 C 494.14 457.32, 503.63 430.96, 513.12 419.29 C 522.61 407.61, 532.10 396.46, 541.59 391.64 C 551.08 386.82, 560.58 388.86, 570.07 390.36 C 579.56 391.86, 589.05 399.68, 598.54 400.64 C 608.03 401.61, 617.53 396.79, 627.02 396.14 C 636.51 395.50, 646.00 399.14, 655.49 396.79 C 664.98 394.43, 674.47 379.32, 683.97 382.00 C 693.46 384.68, 702.95 403.11, 712.44 412.86 C 721.93 422.61, 731.42 435.79, 740.92 440.50 C 750.41 445.21, 759.90 440.29, 769.39 441.14 C 778.88 442.00, 788.37 443.50, 797.86 445.64 C 807.36 447.79, 816.85 452.50, 826.34 454.00 C 835.83 455.50, 845.32 452.07, 854.81 454.64 C 864.31 457.21, 873.80 465.14, 883.29 469.43 C 892.78 473.71, 902.27 478.86, 911.76 480.36 C 921.25 481.86, 930.75 478.75, 940.24 478.43 C 949.73 478.11, 959.22 477.57, 968.71 478.43 C 978.20 479.29, 987.69 482.71, 997.19 483.57 C 1006.68 484.43, 1016.17 483.57, 1025.66 483.57 C 1035.15 483.57, 1044.64 483.57, 1054.14 483.57 C 1063.63 483.57, 1073.12 483.57, 1082.61 483.57 C 1092.10 483.57, 1101.59 483.25, 1111.08 483.57 C 1120.58 483.89, 1130.07 485.39, 1139.56 485.50 C 1149.05 485.61, 1158.54 484.43, 1168.03 484.21 C 1177.53 484.00, 1187.02 484.21, 1196.51 484.21 C 1206.00 484.21, 1215.49 484.21, 1224.98 484.21 C 1234.47 484.21, 1243.97 484.21, 1253.46 484.21 C 1262.95 484.21, 1272.44 484.21, 1281.93 484.21 C 1291.42 484.21, 1300.92 484.21, 1310.41 484.21 C 1319.90 484.21, 1329.39 484.00, 1338.88 484.21 C 1348.37 484.43, 1357.86 485.29, 1367.36 485.50 C 1376.85 485.71, 1386.34 485.50, 1395.83 485.50 C 1405.32 485.50, 1414.81 485.50, 1424.31 485.50 C 1433.80 485.50, 1443.29 486.04, 1452.78 485.50 C 1462.27 484.96, 1471.76 482.82, 1481.25 482.29 C 1490.75 481.75, 1500.24 486.36, 1509.73 482.29 C 1519.22 478.21, 1528.71 462.89, 1538.20 457.86 C 1547.69 452.82, 1557.19 456.89, 1566.68 452.07 C 1576.17 447.25, 1585.66 433.64, 1595.15 428.93 C 1604.64 424.21, 1614.14 425.93, 1623.63 423.79 C 1633.12 421.64, 1642.61 417.25, 1652.10 416.07 C 1661.59 414.89, 1671.08 418.52, 1680.58 416.71 C 1690.07 414.91, 1699.56 404.14, 1709.05 405.25 C 1718.54 406.36, 1728.03 421.27, 1737.53 423.40 C 1747.02 425.52, 1761.25 418.90, 1766.00 418.00" fill="none" stroke="#a78bfa" stroke-width="2" stroke-dasharray="6,4" stroke-opacity="0.55" filter="url(#glowMA)"/>
  <path d="M 86.00 489.99 C 90.75 489.99, 104.98 489.99, 114.47 489.99 C 123.97 489.99, 133.46 489.99, 142.95 489.99 C 152.44 489.99, 161.93 490.00, 171.42 489.99 C 180.92 489.99, 190.41 489.98, 199.90 489.97 C 209.39 489.97, 218.88 489.97, 228.37 489.97 C 237.86 489.97, 247.36 489.98, 256.85 489.97 C 266.34 489.97, 275.83 489.96, 285.32 489.95 C 294.81 489.95, 304.31 489.98, 313.80 489.95 C 323.29 489.93, 332.78 489.84, 342.27 489.81 C 351.76 489.79, 361.25 490.00, 370.75 489.81 C 380.24 485.23, 389.73 466.93, 399.22 462.33 C 408.71 457.73, 418.20 462.31, 427.69 462.24 C 437.19 462.16, 446.68 462.01, 456.17 461.90 C 465.66 461.79, 475.15 462.86, 484.64 461.59 C 494.14 460.31, 503.63 455.71, 513.12 454.26 C 522.61 452.80, 532.10 453.30, 541.59 452.85 C 551.08 452.40, 560.58 447.32, 570.07 451.56 C 579.56 455.80, 589.05 473.96, 598.54 478.29 C 608.03 482.61, 617.53 477.71, 627.02 477.50 C 636.51 477.28, 646.00 477.11, 655.49 477.00 C 664.98 476.88, 674.47 475.81, 683.97 476.83 C 693.46 477.84, 702.95 481.88, 712.44 483.09 C 721.93 484.30, 731.42 483.93, 740.92 484.09 C 750.41 484.24, 759.90 483.96, 769.39 484.01 C 778.88 484.07, 788.37 484.27, 797.86 484.41 C 807.36 484.54, 816.85 484.85, 826.34 484.82 C 835.83 484.79, 845.32 484.50, 854.81 484.23 C 864.31 483.96, 873.80 483.46, 883.29 483.21 C 892.78 482.97, 902.27 483.03, 911.76 482.76 C 921.25 482.49, 930.75 481.63, 940.24 481.57 C 949.73 481.52, 959.22 482.59, 968.71 482.42 C 978.20 482.25, 987.69 481.05, 997.19 480.55 C 1006.68 480.05, 1016.17 479.62, 1025.66 479.39 C 1035.15 479.16, 1044.64 479.23, 1054.14 479.17 C 1063.63 479.12, 1073.12 479.09, 1082.61 479.05 C 1092.10 479.00, 1101.59 478.91, 1111.08 478.88 C 1120.58 478.85, 1130.07 479.15, 1139.56 478.88 C 1149.05 478.62, 1158.54 477.28, 1168.03 477.31 C 1177.53 477.34, 1187.02 478.80, 1196.51 479.06 C 1206.00 479.33, 1215.49 478.95, 1224.98 478.88 C 1234.47 478.82, 1243.97 478.76, 1253.46 478.68 C 1262.95 478.60, 1272.44 478.50, 1281.93 478.41 C 1291.42 478.32, 1300.92 478.22, 1310.41 478.14 C 1319.90 478.06, 1329.39 477.95, 1338.88 477.93 C 1348.37 477.92, 1357.86 478.41, 1367.36 478.03 C 1376.85 477.65, 1386.34 476.09, 1395.83 475.67 C 1405.32 475.25, 1414.81 475.85, 1424.31 475.50 C 1433.80 475.15, 1443.29 475.00, 1452.78 473.57 C 1462.27 472.15, 1471.76 467.81, 1481.25 466.94 C 1490.75 466.08, 1500.24 468.19, 1509.73 468.38 C 1519.22 468.57, 1528.71 475.12, 1538.20 468.07 C 1547.69 461.02, 1557.19 432.83, 1566.68 426.07 C 1576.17 419.31, 1585.66 427.13, 1595.15 427.52 C 1604.64 427.91, 1614.14 428.01, 1623.63 428.39 C 1633.12 428.76, 1642.61 428.74, 1652.10 429.77 C 1661.59 430.80, 1671.08 435.19, 1680.58 434.55 C 1690.07 433.90, 1699.56 428.96, 1709.05 425.90 C 1718.54 422.85, 1728.03 408.09, 1737.53 416.24 C 1747.02 424.38, 1761.25 465.03, 1766.00 474.79" fill="none" stroke="#c4b5fd" stroke-width="1.5" stroke-dasharray="5,4" stroke-opacity="0.4"/>

  <!-- Statistical overlay -->
  <line x1="86" y1="451.7" x2="1766" y2="451.7"
      stroke="#ff8c42" stroke-width="1" stroke-dasharray="8,4" opacity="0.3"/>
    <text x="1778" y="445.7" font-size="8" fill="#ff8c42"
      text-anchor="start" font-family="'Lexend','Segoe UI',sans-serif" font-weight="300" opacity="0.6">μ=8.5</text>

  <!-- Data point circles (inside clip for safety) -->
  <circle cx="86.0" cy="485.5" r="3.0"
        fill="#ff8c42" stroke="#ffd0a0" stroke-width="1" filter="url(#glowOrange)" opacity="0.9">
        <title>2026-03-10: 1 commits</title></circle><circle cx="285.3" cy="445.0" r="3.3"
        fill="#ff8c42" stroke="#ffd0a0" stroke-width="1" filter="url(#glowOrange)" opacity="0.9">
        <title>2026-03-17: 10 commits</title></circle><circle cx="370.7" cy="373.0" r="3.8"
        fill="#ff8c42" stroke="#ffd0a0" stroke-width="1" filter="url(#glowOrange)" opacity="0.9">
        <title>2026-03-20: 26 commits</title></circle><circle cx="427.7" cy="485.5" r="3.0"
        fill="#ff8c42" stroke="#ffd0a0" stroke-width="1" filter="url(#glowOrange)" opacity="0.9">
        <title>2026-03-22: 1 commits</title></circle><circle cx="484.6" cy="346.0" r="4.0"
        fill="#ff8c42" stroke="#ffd0a0" stroke-width="1" filter="url(#glowOrange)" opacity="0.9">
        <title>2026-03-24: 32 commits</title></circle><circle cx="513.1" cy="458.5" r="3.2"
        fill="#ff8c42" stroke="#ffd0a0" stroke-width="1" filter="url(#glowOrange)" opacity="0.9">
        <title>2026-03-25: 7 commits</title></circle><circle cx="541.6" cy="476.5" r="3.1"
        fill="#ff8c42" stroke="#ffd0a0" stroke-width="1" filter="url(#glowOrange)" opacity="0.9">
        <title>2026-03-26: 3 commits</title></circle><circle cx="570.1" cy="485.5" r="3.0"
        fill="#ff8c42" stroke="#ffd0a0" stroke-width="1" filter="url(#glowOrange)" opacity="0.9">
        <title>2026-03-27: 1 commits</title></circle><circle cx="598.5" cy="193.0" r="5.1"
        fill="#ff8c42" stroke="#ffd0a0" stroke-width="1" filter="url(#glowOrange)" opacity="0.9">
        <title>2026-03-28: 66 commits</title></circle><circle cx="627.0" cy="292.0" r="4.4"
        fill="#ff8c42" stroke="#ffd0a0" stroke-width="1" filter="url(#glowOrange)" opacity="0.9">
        <title>2026-03-29: 44 commits</title></circle><circle cx="655.5" cy="481.0" r="3.1"
        fill="#ff8c42" stroke="#ffd0a0" stroke-width="1" filter="url(#glowOrange)" opacity="0.9">
        <title>2026-03-30: 2 commits</title></circle><circle cx="684.0" cy="418.0" r="3.5"
        fill="#ff8c42" stroke="#ffd0a0" stroke-width="1" filter="url(#glowOrange)" opacity="0.9">
        <title>2026-03-31: 16 commits</title></circle><circle cx="712.4" cy="427.0" r="3.4"
        fill="#ff8c42" stroke="#ffd0a0" stroke-width="1" filter="url(#glowOrange)" opacity="0.9">
        <title>2026-04-01: 14 commits</title></circle><circle cx="740.9" cy="481.0" r="3.1"
        fill="#ff8c42" stroke="#ffd0a0" stroke-width="1" filter="url(#glowOrange)" opacity="0.9">
        <title>2026-04-02: 2 commits</title></circle><circle cx="769.4" cy="382.0" r="3.8"
        fill="#ff8c42" stroke="#ffd0a0" stroke-width="1" filter="url(#glowOrange)" opacity="0.9">
        <title>2026-04-03: 24 commits</title></circle><circle cx="797.9" cy="409.0" r="3.6"
        fill="#ff8c42" stroke="#ffd0a0" stroke-width="1" filter="url(#glowOrange)" opacity="0.9">
        <title>2026-04-04: 18 commits</title></circle><circle cx="826.3" cy="485.5" r="3.0"
        fill="#ff8c42" stroke="#ffd0a0" stroke-width="1" filter="url(#glowOrange)" opacity="0.9">
        <title>2026-04-05: 1 commits</title></circle><circle cx="854.8" cy="485.5" r="3.0"
        fill="#ff8c42" stroke="#ffd0a0" stroke-width="1" filter="url(#glowOrange)" opacity="0.9">
        <title>2026-04-06: 1 commits</title></circle><circle cx="883.3" cy="449.5" r="3.3"
        fill="#ff8c42" stroke="#ffd0a0" stroke-width="1" filter="url(#glowOrange)" opacity="0.9">
        <title>2026-04-07: 9 commits</title></circle><circle cx="911.8" cy="485.5" r="3.0"
        fill="#ff8c42" stroke="#ffd0a0" stroke-width="1" filter="url(#glowOrange)" opacity="0.9">
        <title>2026-04-08: 1 commits</title></circle><circle cx="940.2" cy="485.5" r="3.0"
        fill="#ff8c42" stroke="#ffd0a0" stroke-width="1" filter="url(#glowOrange)" opacity="0.9">
        <title>2026-04-09: 1 commits</title></circle><circle cx="968.7" cy="485.5" r="3.0"
        fill="#ff8c42" stroke="#ffd0a0" stroke-width="1" filter="url(#glowOrange)" opacity="0.9">
        <title>2026-04-10: 1 commits</title></circle><circle cx="997.2" cy="485.5" r="3.0"
        fill="#ff8c42" stroke="#ffd0a0" stroke-width="1" filter="url(#glowOrange)" opacity="0.9">
        <title>2026-04-11: 1 commits</title></circle><circle cx="1025.7" cy="472.0" r="3.1"
        fill="#ff8c42" stroke="#ffd0a0" stroke-width="1" filter="url(#glowOrange)" opacity="0.9">
        <title>2026-04-12: 4 commits</title></circle><circle cx="1054.1" cy="485.5" r="3.0"
        fill="#ff8c42" stroke="#ffd0a0" stroke-width="1" filter="url(#glowOrange)" opacity="0.9">
        <title>2026-04-13: 1 commits</title></circle><circle cx="1082.6" cy="485.5" r="3.0"
        fill="#ff8c42" stroke="#ffd0a0" stroke-width="1" filter="url(#glowOrange)" opacity="0.9">
        <title>2026-04-14: 1 commits</title></circle><circle cx="1111.1" cy="485.5" r="3.0"
        fill="#ff8c42" stroke="#ffd0a0" stroke-width="1" filter="url(#glowOrange)" opacity="0.9">
        <title>2026-04-15: 1 commits</title></circle><circle cx="1139.6" cy="485.5" r="3.0"
        fill="#ff8c42" stroke="#ffd0a0" stroke-width="1" filter="url(#glowOrange)" opacity="0.9">
        <title>2026-04-16: 1 commits</title></circle><circle cx="1168.0" cy="485.5" r="3.0"
        fill="#ff8c42" stroke="#ffd0a0" stroke-width="1" filter="url(#glowOrange)" opacity="0.9">
        <title>2026-04-17: 1 commits</title></circle><circle cx="1196.5" cy="485.5" r="3.0"
        fill="#ff8c42" stroke="#ffd0a0" stroke-width="1" filter="url(#glowOrange)" opacity="0.9">
        <title>2026-04-18: 1 commits</title></circle><circle cx="1225.0" cy="485.5" r="3.0"
        fill="#ff8c42" stroke="#ffd0a0" stroke-width="1" filter="url(#glowOrange)" opacity="0.9">
        <title>2026-04-19: 1 commits</title></circle><circle cx="1253.5" cy="476.5" r="3.1"
        fill="#ff8c42" stroke="#ffd0a0" stroke-width="1" filter="url(#glowOrange)" opacity="0.9">
        <title>2026-04-20: 3 commits</title></circle><circle cx="1281.9" cy="485.5" r="3.0"
        fill="#ff8c42" stroke="#ffd0a0" stroke-width="1" filter="url(#glowOrange)" opacity="0.9">
        <title>2026-04-21: 1 commits</title></circle><circle cx="1310.4" cy="485.5" r="3.0"
        fill="#ff8c42" stroke="#ffd0a0" stroke-width="1" filter="url(#glowOrange)" opacity="0.9">
        <title>2026-04-22: 1 commits</title></circle><circle cx="1338.9" cy="485.5" r="3.0"
        fill="#ff8c42" stroke="#ffd0a0" stroke-width="1" filter="url(#glowOrange)" opacity="0.9">
        <title>2026-04-23: 1 commits</title></circle><circle cx="1367.4" cy="485.5" r="3.0"
        fill="#ff8c42" stroke="#ffd0a0" stroke-width="1" filter="url(#glowOrange)" opacity="0.9">
        <title>2026-04-24: 1 commits</title></circle><circle cx="1395.8" cy="485.5" r="3.0"
        fill="#ff8c42" stroke="#ffd0a0" stroke-width="1" filter="url(#glowOrange)" opacity="0.9">
        <title>2026-04-25: 1 commits</title></circle><circle cx="1424.3" cy="485.5" r="3.0"
        fill="#ff8c42" stroke="#ffd0a0" stroke-width="1" filter="url(#glowOrange)" opacity="0.9">
        <title>2026-04-26: 1 commits</title></circle><circle cx="1452.8" cy="485.5" r="3.0"
        fill="#ff8c42" stroke="#ffd0a0" stroke-width="1" filter="url(#glowOrange)" opacity="0.9">
        <title>2026-04-27: 1 commits</title></circle><circle cx="1481.3" cy="485.5" r="3.0"
        fill="#ff8c42" stroke="#ffd0a0" stroke-width="1" filter="url(#glowOrange)" opacity="0.9">
        <title>2026-04-28: 1 commits</title></circle><circle cx="1509.7" cy="485.5" r="3.0"
        fill="#ff8c42" stroke="#ffd0a0" stroke-width="1" filter="url(#glowOrange)" opacity="0.9">
        <title>2026-04-29: 1 commits</title></circle><circle cx="1538.2" cy="485.5" r="3.0"
        fill="#ff8c42" stroke="#ffd0a0" stroke-width="1" filter="url(#glowOrange)" opacity="0.9">
        <title>2026-04-30: 1 commits</title></circle><circle cx="1566.7" cy="463.0" r="3.2"
        fill="#ff8c42" stroke="#ffd0a0" stroke-width="1" filter="url(#glowOrange)" opacity="0.9">
        <title>2026-05-01: 6 commits</title></circle><circle cx="1595.2" cy="485.5" r="3.0"
        fill="#ff8c42" stroke="#ffd0a0" stroke-width="1" filter="url(#glowOrange)" opacity="0.9">
        <title>2026-05-02: 1 commits</title></circle><circle cx="1623.6" cy="314.5" r="4.2"
        fill="#ff8c42" stroke="#ffd0a0" stroke-width="1" filter="url(#glowOrange)" opacity="0.9">
        <title>2026-05-03: 39 commits</title></circle><circle cx="1652.1" cy="445.0" r="3.3"
        fill="#ff8c42" stroke="#ffd0a0" stroke-width="1" filter="url(#glowOrange)" opacity="0.9">
        <title>2026-05-04: 10 commits</title></circle><circle cx="1680.6" cy="323.5" r="4.2"
        fill="#ff8c42" stroke="#ffd0a0" stroke-width="1" filter="url(#glowOrange)" opacity="0.9">
        <title>2026-05-05: 37 commits</title></circle><circle cx="1709.1" cy="449.5" r="3.3"
        fill="#ff8c42" stroke="#ffd0a0" stroke-width="1" filter="url(#glowOrange)" opacity="0.9">
        <title>2026-05-06: 9 commits</title></circle><circle cx="1737.5" cy="431.5" r="3.4"
        fill="#ff8c42" stroke="#ffd0a0" stroke-width="1" filter="url(#glowOrange)" opacity="0.9">
        <title>2026-05-07: 13 commits</title></circle><circle cx="1766.0" cy="467.5" r="3.2"
        fill="#ff8c42" stroke="#ffd0a0" stroke-width="1" filter="url(#glowOrange)" opacity="0.9">
        <title>2026-05-08: 5 commits</title></circle>
  <circle cx="86.0" cy="490.0" r="3.5"
        fill="#00d4f5" stroke="#80eeff" stroke-width="0.8" filter="url(#glowCyan)" opacity="0.85">
        <title>2026-03-10: 1 changes/commit</title></circle><circle cx="285.3" cy="489.8" r="3.5"
        fill="#00d4f5" stroke="#80eeff" stroke-width="0.8" filter="url(#glowCyan)" opacity="0.85">
        <title>2026-03-17: 4 changes/commit</title></circle><circle cx="370.7" cy="489.9" r="3.5"
        fill="#00d4f5" stroke="#80eeff" stroke-width="0.8" filter="url(#glowCyan)" opacity="0.85">
        <title>2026-03-20: 3 changes/commit</title></circle><circle cx="427.7" cy="489.0" r="3.5"
        fill="#00d4f5" stroke="#80eeff" stroke-width="0.8" filter="url(#glowCyan)" opacity="0.85">
        <title>2026-03-22: 22 changes/commit</title></circle><circle cx="484.6" cy="297.4" r="3.5"
        fill="#00d4f5" stroke="#80eeff" stroke-width="0.8" filter="url(#glowCyan)" opacity="0.85">
        <title>2026-03-24: 4279 changes/commit</title></circle><circle cx="513.1" cy="489.3" r="3.5"
        fill="#00d4f5" stroke="#80eeff" stroke-width="0.8" filter="url(#glowCyan)" opacity="0.85">
        <title>2026-03-25: 15 changes/commit</title></circle><circle cx="541.6" cy="487.7" r="3.5"
        fill="#00d4f5" stroke="#80eeff" stroke-width="0.8" filter="url(#glowCyan)" opacity="0.85">
        <title>2026-03-26: 52 changes/commit</title></circle><circle cx="570.1" cy="487.7" r="3.5"
        fill="#00d4f5" stroke="#80eeff" stroke-width="0.8" filter="url(#glowCyan)" opacity="0.85">
        <title>2026-03-27: 52 changes/commit</title></circle><circle cx="598.5" cy="438.7" r="3.5"
        fill="#00d4f5" stroke="#80eeff" stroke-width="0.8" filter="url(#glowCyan)" opacity="0.85">
        <title>2026-03-28: 1140 changes/commit</title></circle><circle cx="627.0" cy="479.2" r="3.5"
        fill="#00d4f5" stroke="#80eeff" stroke-width="0.8" filter="url(#glowCyan)" opacity="0.85">
        <title>2026-03-29: 241 changes/commit</title></circle><circle cx="655.5" cy="481.0" r="3.5"
        fill="#00d4f5" stroke="#80eeff" stroke-width="0.8" filter="url(#glowCyan)" opacity="0.85">
        <title>2026-03-30: 201 changes/commit</title></circle><circle cx="684.0" cy="484.6" r="3.5"
        fill="#00d4f5" stroke="#80eeff" stroke-width="0.8" filter="url(#glowCyan)" opacity="0.85">
        <title>2026-03-31: 121 changes/commit</title></circle><circle cx="712.4" cy="483.8" r="3.5"
        fill="#00d4f5" stroke="#80eeff" stroke-width="0.8" filter="url(#glowCyan)" opacity="0.85">
        <title>2026-04-01: 138 changes/commit</title></circle><circle cx="740.9" cy="484.1" r="3.5"
        fill="#00d4f5" stroke="#80eeff" stroke-width="0.8" filter="url(#glowCyan)" opacity="0.85">
        <title>2026-04-02: 130 changes/commit</title></circle><circle cx="769.4" cy="486.5" r="3.5"
        fill="#00d4f5" stroke="#80eeff" stroke-width="0.8" filter="url(#glowCyan)" opacity="0.85">
        <title>2026-04-03: 78 changes/commit</title></circle><circle cx="797.9" cy="482.5" r="3.5"
        fill="#00d4f5" stroke="#80eeff" stroke-width="0.8" filter="url(#glowCyan)" opacity="0.85">
        <title>2026-04-04: 166 changes/commit</title></circle><circle cx="826.3" cy="486.1" r="3.5"
        fill="#00d4f5" stroke="#80eeff" stroke-width="0.8" filter="url(#glowCyan)" opacity="0.85">
        <title>2026-04-05: 86 changes/commit</title></circle><circle cx="854.8" cy="480.5" r="3.5"
        fill="#00d4f5" stroke="#80eeff" stroke-width="0.8" filter="url(#glowCyan)" opacity="0.85">
        <title>2026-04-06: 212 changes/commit</title></circle><circle cx="883.3" cy="487.3" r="3.5"
        fill="#00d4f5" stroke="#80eeff" stroke-width="0.8" filter="url(#glowCyan)" opacity="0.85">
        <title>2026-04-07: 60 changes/commit</title></circle><circle cx="911.8" cy="486.7" r="3.5"
        fill="#00d4f5" stroke="#80eeff" stroke-width="0.8" filter="url(#glowCyan)" opacity="0.85">
        <title>2026-04-08: 74 changes/commit</title></circle><circle cx="940.2" cy="480.0" r="3.5"
        fill="#00d4f5" stroke="#80eeff" stroke-width="0.8" filter="url(#glowCyan)" opacity="0.85">
        <title>2026-04-09: 222 changes/commit</title></circle><circle cx="968.7" cy="479.4" r="3.5"
        fill="#00d4f5" stroke="#80eeff" stroke-width="0.8" filter="url(#glowCyan)" opacity="0.85">
        <title>2026-04-10: 236 changes/commit</title></circle><circle cx="997.2" cy="479.4" r="3.5"
        fill="#00d4f5" stroke="#80eeff" stroke-width="0.8" filter="url(#glowCyan)" opacity="0.85">
        <title>2026-04-11: 236 changes/commit</title></circle><circle cx="1025.7" cy="477.8" r="3.5"
        fill="#00d4f5" stroke="#80eeff" stroke-width="0.8" filter="url(#glowCyan)" opacity="0.85">
        <title>2026-04-12: 271 changes/commit</title></circle><circle cx="1054.1" cy="486.4" r="3.5"
        fill="#00d4f5" stroke="#80eeff" stroke-width="0.8" filter="url(#glowCyan)" opacity="0.85">
        <title>2026-04-13: 80 changes/commit</title></circle><circle cx="1082.6" cy="474.2" r="3.5"
        fill="#00d4f5" stroke="#80eeff" stroke-width="0.8" filter="url(#glowCyan)" opacity="0.85">
        <title>2026-04-14: 351 changes/commit</title></circle><circle cx="1111.1" cy="478.6" r="3.5"
        fill="#00d4f5" stroke="#80eeff" stroke-width="0.8" filter="url(#glowCyan)" opacity="0.85">
        <title>2026-04-15: 254 changes/commit</title></circle><circle cx="1139.6" cy="478.5" r="3.5"
        fill="#00d4f5" stroke="#80eeff" stroke-width="0.8" filter="url(#glowCyan)" opacity="0.85">
        <title>2026-04-16: 256 changes/commit</title></circle><circle cx="1168.0" cy="478.5" r="3.5"
        fill="#00d4f5" stroke="#80eeff" stroke-width="0.8" filter="url(#glowCyan)" opacity="0.85">
        <title>2026-04-17: 256 changes/commit</title></circle><circle cx="1196.5" cy="478.2" r="3.5"
        fill="#00d4f5" stroke="#80eeff" stroke-width="0.8" filter="url(#glowCyan)" opacity="0.85">
        <title>2026-04-18: 262 changes/commit</title></circle><circle cx="1225.0" cy="477.9" r="3.5"
        fill="#00d4f5" stroke="#80eeff" stroke-width="0.8" filter="url(#glowCyan)" opacity="0.85">
        <title>2026-04-19: 270 changes/commit</title></circle><circle cx="1253.5" cy="475.4" r="3.5"
        fill="#00d4f5" stroke="#80eeff" stroke-width="0.8" filter="url(#glowCyan)" opacity="0.85">
        <title>2026-04-20: 325 changes/commit</title></circle><circle cx="1281.9" cy="486.5" r="3.5"
        fill="#00d4f5" stroke="#80eeff" stroke-width="0.8" filter="url(#glowCyan)" opacity="0.85">
        <title>2026-04-21: 78 changes/commit</title></circle><circle cx="1310.4" cy="477.3" r="3.5"
        fill="#00d4f5" stroke="#80eeff" stroke-width="0.8" filter="url(#glowCyan)" opacity="0.85">
        <title>2026-04-22: 282 changes/commit</title></circle><circle cx="1338.9" cy="477.0" r="3.5"
        fill="#00d4f5" stroke="#80eeff" stroke-width="0.8" filter="url(#glowCyan)" opacity="0.85">
        <title>2026-04-23: 288 changes/commit</title></circle><circle cx="1367.4" cy="476.6" r="3.5"
        fill="#00d4f5" stroke="#80eeff" stroke-width="0.8" filter="url(#glowCyan)" opacity="0.85">
        <title>2026-04-24: 298 changes/commit</title></circle><circle cx="1395.8" cy="476.3" r="3.5"
        fill="#00d4f5" stroke="#80eeff" stroke-width="0.8" filter="url(#glowCyan)" opacity="0.85">
        <title>2026-04-25: 304 changes/commit</title></circle><circle cx="1424.3" cy="476.4" r="3.5"
        fill="#00d4f5" stroke="#80eeff" stroke-width="0.8" filter="url(#glowCyan)" opacity="0.85">
        <title>2026-04-26: 302 changes/commit</title></circle><circle cx="1452.8" cy="476.1" r="3.5"
        fill="#00d4f5" stroke="#80eeff" stroke-width="0.8" filter="url(#glowCyan)" opacity="0.85">
        <title>2026-04-27: 310 changes/commit</title></circle><circle cx="1481.3" cy="470.0" r="3.5"
        fill="#00d4f5" stroke="#80eeff" stroke-width="0.8" filter="url(#glowCyan)" opacity="0.85">
        <title>2026-04-28: 445 changes/commit</title></circle><circle cx="1509.7" cy="476.1" r="3.5"
        fill="#00d4f5" stroke="#80eeff" stroke-width="0.8" filter="url(#glowCyan)" opacity="0.85">
        <title>2026-04-29: 308 changes/commit</title></circle><circle cx="1538.2" cy="463.5" r="3.5"
        fill="#00d4f5" stroke="#80eeff" stroke-width="0.8" filter="url(#glowCyan)" opacity="0.85">
        <title>2026-04-30: 588 changes/commit</title></circle><circle cx="1566.7" cy="430.1" r="3.5"
        fill="#00d4f5" stroke="#80eeff" stroke-width="0.8" filter="url(#glowCyan)" opacity="0.85">
        <title>2026-05-01: 1330 changes/commit</title></circle><circle cx="1595.2" cy="486.4" r="3.5"
        fill="#00d4f5" stroke="#80eeff" stroke-width="0.8" filter="url(#glowCyan)" opacity="0.85">
        <title>2026-05-02: 80 changes/commit</title></circle><circle cx="1623.6" cy="474.3" r="3.5"
        fill="#00d4f5" stroke="#80eeff" stroke-width="0.8" filter="url(#glowCyan)" opacity="0.85">
        <title>2026-05-03: 350 changes/commit</title></circle><circle cx="1652.1" cy="182.0" r="3.5"
        fill="#00d4f5" stroke="#80eeff" stroke-width="0.8" filter="url(#glowCyan)" opacity="0.85">
        <title>2026-05-04: 6844 changes/commit</title></circle><circle cx="1680.6" cy="480.1" r="3.5"
        fill="#00d4f5" stroke="#80eeff" stroke-width="0.8" filter="url(#glowCyan)" opacity="0.85">
        <title>2026-05-05: 219 changes/commit</title></circle><circle cx="1709.1" cy="482.2" r="3.5"
        fill="#00d4f5" stroke="#80eeff" stroke-width="0.8" filter="url(#glowCyan)" opacity="0.85">
        <title>2026-05-06: 173 changes/commit</title></circle><circle cx="1737.5" cy="473.2" r="3.5"
        fill="#00d4f5" stroke="#80eeff" stroke-width="0.8" filter="url(#glowCyan)" opacity="0.85">
        <title>2026-05-07: 373 changes/commit</title></circle><circle cx="1766.0" cy="463.6" r="3.5"
        fill="#00d4f5" stroke="#80eeff" stroke-width="0.8" filter="url(#glowCyan)" opacity="0.85">
        <title>2026-05-08: 587 changes/commit</title></circle>
</g>

<!-- ════ ANNOTATIONS ════ -->

        <line x1="598.5" y1="181.0"
          x2="598.5" y2="172.0"
          stroke="#2563eb" stroke-width="1.2" stroke-dasharray="4,4" opacity="0.65"/>
        <rect x="533.5" y="148.0"
          width="130" height="24" rx="6"
          fill="#030e26" stroke="#2563eb" stroke-width="1" opacity="0.96"/>
        <text x="598.5" y="164.0"
          font-size="10" fill="#93c5fd" text-anchor="middle"
          font-family="'Lexend','Segoe UI',sans-serif" font-weight="400"
          letter-spacing="0.5">⬡  Peak · 66 commits</text>
        <line x1="484.6" y1="494" x2="1766.0" y2="494"
          stroke="#f472b6" stroke-width="2.5" stroke-linecap="round" opacity="0.7"/>
        <circle cx="484.6" cy="494" r="3" fill="#f472b6" opacity="0.9"/>
        <circle cx="1766.0" cy="494" r="3" fill="#f472b6" opacity="0.9"/>
        <text x="1125.3" y="508" font-size="8.5" fill="#f472b6"
          text-anchor="middle" font-family="'Lexend','Segoe UI',sans-serif"
          font-weight="400" opacity="0.85">🔥 46-day streak</text>
        <line x1="484.6" y1="130" x2="484.6" y2="490"
          stroke="#f472b6" stroke-width="0.8" stroke-dasharray="3,6" opacity="0.35"/>

<!-- ════ CORNER BRACKETS ════ -->
<path d="M 86 152.0 L 86 130 L 108.0 130"
      fill="none" stroke="#4a90e2" stroke-width="2" stroke-opacity="0.85" stroke-linecap="round"/><path d="M 1766 152.0 L 1766 130 L 1744.0 130"
      fill="none" stroke="#4a90e2" stroke-width="2" stroke-opacity="0.85" stroke-linecap="round"/><path d="M 86 468.0 L 86 490 L 108.0 490"
      fill="none" stroke="#4a90e2" stroke-width="2" stroke-opacity="0.85" stroke-linecap="round"/><path d="M 1766 468.0 L 1766 490 L 1744.0 490"
      fill="none" stroke="#4a90e2" stroke-width="2" stroke-opacity="0.85" stroke-linecap="round"/>

<!-- ════ HEATMAP ════ -->
<text x="922" y="646" font-size="11" fill="#3d7ed4"
    text-anchor="middle" font-family="'Lexend','Segoe UI',sans-serif"
    letter-spacing="3" font-weight="400">CONTRIBUTION  CALENDAR</text><text x="857" y="686"
        font-size="9" fill="#3d7ed4" text-anchor="end"
        font-family="'Lexend','Segoe UI',sans-serif" font-weight="300">M</text><text x="857" y="716"
        font-size="9" fill="#3d7ed4" text-anchor="end"
        font-family="'Lexend','Segoe UI',sans-serif" font-weight="300">W</text><text x="857" y="746"
        font-size="9" fill="#3d7ed4" text-anchor="end"
        font-family="'Lexend','Segoe UI',sans-serif" font-weight="300">F</text><rect x="863.0" y="660.0"
        width="12" height="12" rx="2.5" fill="#0a1630"
        stroke="#0d2464" stroke-width="0.5" stroke-opacity="0.4">
        <title>2026-03-08: 0 commits</title></rect><rect x="863.0" y="675.0"
        width="12" height="12" rx="2.5" fill="#0a1630"
        stroke="#0d2464" stroke-width="0.5" stroke-opacity="0.4">
        <title>2026-03-09: 0 commits</title></rect><rect x="863.0" y="690.0"
        width="12" height="12" rx="2.5" fill="#0d3068"
        stroke="#0d2464" stroke-width="0.5" stroke-opacity="0.4">
        <title>2026-03-10: 1 commits</title></rect><rect x="863.0" y="705.0"
        width="12" height="12" rx="2.5" fill="#0a1630"
        stroke="#0d2464" stroke-width="0.5" stroke-opacity="0.4">
        <title>2026-03-11: 0 commits</title></rect><rect x="863.0" y="720.0"
        width="12" height="12" rx="2.5" fill="#0a1630"
        stroke="#0d2464" stroke-width="0.5" stroke-opacity="0.4">
        <title>2026-03-12: 0 commits</title></rect><rect x="863.0" y="735.0"
        width="12" height="12" rx="2.5" fill="#0a1630"
        stroke="#0d2464" stroke-width="0.5" stroke-opacity="0.4">
        <title>2026-03-13: 0 commits</title></rect><rect x="863.0" y="750.0"
        width="12" height="12" rx="2.5" fill="#0a1630"
        stroke="#0d2464" stroke-width="0.5" stroke-opacity="0.4">
        <title>2026-03-14: 0 commits</title></rect><rect x="878.0" y="660.0"
        width="12" height="12" rx="2.5" fill="#0a1630"
        stroke="#0d2464" stroke-width="0.5" stroke-opacity="0.4">
        <title>2026-03-15: 0 commits</title></rect><rect x="878.0" y="675.0"
        width="12" height="12" rx="2.5" fill="#0a1630"
        stroke="#0d2464" stroke-width="0.5" stroke-opacity="0.4">
        <title>2026-03-16: 0 commits</title></rect><rect x="878.0" y="690.0"
        width="12" height="12" rx="2.5" fill="#0d3068"
        stroke="#0d2464" stroke-width="0.5" stroke-opacity="0.4">
        <title>2026-03-17: 10 commits</title></rect><rect x="878.0" y="705.0"
        width="12" height="12" rx="2.5" fill="#0a1630"
        stroke="#0d2464" stroke-width="0.5" stroke-opacity="0.4">
        <title>2026-03-18: 0 commits</title></rect><rect x="878.0" y="720.0"
        width="12" height="12" rx="2.5" fill="#0a1630"
        stroke="#0d2464" stroke-width="0.5" stroke-opacity="0.4">
        <title>2026-03-19: 0 commits</title></rect><rect x="878.0" y="735.0"
        width="12" height="12" rx="2.5" fill="#1e56a8"
        stroke="#0d2464" stroke-width="0.5" stroke-opacity="0.4">
        <title>2026-03-20: 26 commits</title></rect><rect x="878.0" y="750.0"
        width="12" height="12" rx="2.5" fill="#0a1630"
        stroke="#0d2464" stroke-width="0.5" stroke-opacity="0.4">
        <title>2026-03-21: 0 commits</title></rect><rect x="893.0" y="660.0"
        width="12" height="12" rx="2.5" fill="#0d3068"
        stroke="#0d2464" stroke-width="0.5" stroke-opacity="0.4">
        <title>2026-03-22: 1 commits</title></rect><rect x="893.0" y="675.0"
        width="12" height="12" rx="2.5" fill="#0a1630"
        stroke="#0d2464" stroke-width="0.5" stroke-opacity="0.4">
        <title>2026-03-23: 0 commits</title></rect><rect x="893.0" y="690.0"
        width="12" height="12" rx="2.5" fill="#1e56a8"
        stroke="#0d2464" stroke-width="0.5" stroke-opacity="0.4">
        <title>2026-03-24: 32 commits</title></rect><rect x="893.0" y="705.0"
        width="12" height="12" rx="2.5" fill="#0d3068"
        stroke="#0d2464" stroke-width="0.5" stroke-opacity="0.4">
        <title>2026-03-25: 7 commits</title></rect><rect x="893.0" y="720.0"
        width="12" height="12" rx="2.5" fill="#0d3068"
        stroke="#0d2464" stroke-width="0.5" stroke-opacity="0.4">
        <title>2026-03-26: 3 commits</title></rect><rect x="893.0" y="735.0"
        width="12" height="12" rx="2.5" fill="#0d3068"
        stroke="#0d2464" stroke-width="0.5" stroke-opacity="0.4">
        <title>2026-03-27: 1 commits</title></rect><rect x="893.0" y="750.0"
        width="12" height="12" rx="2.5" fill="#93c5fd"
        stroke="#0d2464" stroke-width="0.5" stroke-opacity="0.4">
        <title>2026-03-28: 66 commits</title></rect><rect x="908.0" y="660.0"
        width="12" height="12" rx="2.5" fill="#3b82f6"
        stroke="#0d2464" stroke-width="0.5" stroke-opacity="0.4">
        <title>2026-03-29: 44 commits</title></rect><rect x="908.0" y="675.0"
        width="12" height="12" rx="2.5" fill="#0d3068"
        stroke="#0d2464" stroke-width="0.5" stroke-opacity="0.4">
        <title>2026-03-30: 2 commits</title></rect><rect x="908.0" y="690.0"
        width="12" height="12" rx="2.5" fill="#0d3068"
        stroke="#0d2464" stroke-width="0.5" stroke-opacity="0.4">
        <title>2026-03-31: 16 commits</title></rect><rect x="908.0" y="705.0"
        width="12" height="12" rx="2.5" fill="#0d3068"
        stroke="#0d2464" stroke-width="0.5" stroke-opacity="0.4">
        <title>2026-04-01: 14 commits</title></rect><rect x="908.0" y="720.0"
        width="12" height="12" rx="2.5" fill="#0d3068"
        stroke="#0d2464" stroke-width="0.5" stroke-opacity="0.4">
        <title>2026-04-02: 2 commits</title></rect><rect x="908.0" y="735.0"
        width="12" height="12" rx="2.5" fill="#1e56a8"
        stroke="#0d2464" stroke-width="0.5" stroke-opacity="0.4">
        <title>2026-04-03: 24 commits</title></rect><rect x="908.0" y="750.0"
        width="12" height="12" rx="2.5" fill="#1e56a8"
        stroke="#0d2464" stroke-width="0.5" stroke-opacity="0.4">
        <title>2026-04-04: 18 commits</title></rect><text x="908.0" y="656" font-size="8.5" fill="#3d7ed4"
        font-family="'Lexend','Segoe UI',sans-serif" font-weight="300">Apr</text><rect x="923.0" y="660.0"
        width="12" height="12" rx="2.5" fill="#0d3068"
        stroke="#0d2464" stroke-width="0.5" stroke-opacity="0.4">
        <title>2026-04-05: 1 commits</title></rect><rect x="923.0" y="675.0"
        width="12" height="12" rx="2.5" fill="#0d3068"
        stroke="#0d2464" stroke-width="0.5" stroke-opacity="0.4">
        <title>2026-04-06: 1 commits</title></rect><rect x="923.0" y="690.0"
        width="12" height="12" rx="2.5" fill="#0d3068"
        stroke="#0d2464" stroke-width="0.5" stroke-opacity="0.4">
        <title>2026-04-07: 9 commits</title></rect><rect x="923.0" y="705.0"
        width="12" height="12" rx="2.5" fill="#0d3068"
        stroke="#0d2464" stroke-width="0.5" stroke-opacity="0.4">
        <title>2026-04-08: 1 commits</title></rect><rect x="923.0" y="720.0"
        width="12" height="12" rx="2.5" fill="#0d3068"
        stroke="#0d2464" stroke-width="0.5" stroke-opacity="0.4">
        <title>2026-04-09: 1 commits</title></rect><rect x="923.0" y="735.0"
        width="12" height="12" rx="2.5" fill="#0d3068"
        stroke="#0d2464" stroke-width="0.5" stroke-opacity="0.4">
        <title>2026-04-10: 1 commits</title></rect><rect x="923.0" y="750.0"
        width="12" height="12" rx="2.5" fill="#0d3068"
        stroke="#0d2464" stroke-width="0.5" stroke-opacity="0.4">
        <title>2026-04-11: 1 commits</title></rect><rect x="938.0" y="660.0"
        width="12" height="12" rx="2.5" fill="#0d3068"
        stroke="#0d2464" stroke-width="0.5" stroke-opacity="0.4">
        <title>2026-04-12: 4 commits</title></rect><rect x="938.0" y="675.0"
        width="12" height="12" rx="2.5" fill="#0d3068"
        stroke="#0d2464" stroke-width="0.5" stroke-opacity="0.4">
        <title>2026-04-13: 1 commits</title></rect><rect x="938.0" y="690.0"
        width="12" height="12" rx="2.5" fill="#0d3068"
        stroke="#0d2464" stroke-width="0.5" stroke-opacity="0.4">
        <title>2026-04-14: 1 commits</title></rect><rect x="938.0" y="705.0"
        width="12" height="12" rx="2.5" fill="#0d3068"
        stroke="#0d2464" stroke-width="0.5" stroke-opacity="0.4">
        <title>2026-04-15: 1 commits</title></rect><rect x="938.0" y="720.0"
        width="12" height="12" rx="2.5" fill="#0d3068"
        stroke="#0d2464" stroke-width="0.5" stroke-opacity="0.4">
        <title>2026-04-16: 1 commits</title></rect><rect x="938.0" y="735.0"
        width="12" height="12" rx="2.5" fill="#0d3068"
        stroke="#0d2464" stroke-width="0.5" stroke-opacity="0.4">
        <title>2026-04-17: 1 commits</title></rect><rect x="938.0" y="750.0"
        width="12" height="12" rx="2.5" fill="#0d3068"
        stroke="#0d2464" stroke-width="0.5" stroke-opacity="0.4">
        <title>2026-04-18: 1 commits</title></rect><rect x="953.0" y="660.0"
        width="12" height="12" rx="2.5" fill="#0d3068"
        stroke="#0d2464" stroke-width="0.5" stroke-opacity="0.4">
        <title>2026-04-19: 1 commits</title></rect><rect x="953.0" y="675.0"
        width="12" height="12" rx="2.5" fill="#0d3068"
        stroke="#0d2464" stroke-width="0.5" stroke-opacity="0.4">
        <title>2026-04-20: 3 commits</title></rect><rect x="953.0" y="690.0"
        width="12" height="12" rx="2.5" fill="#0d3068"
        stroke="#0d2464" stroke-width="0.5" stroke-opacity="0.4">
        <title>2026-04-21: 1 commits</title></rect><rect x="953.0" y="705.0"
        width="12" height="12" rx="2.5" fill="#0d3068"
        stroke="#0d2464" stroke-width="0.5" stroke-opacity="0.4">
        <title>2026-04-22: 1 commits</title></rect><rect x="953.0" y="720.0"
        width="12" height="12" rx="2.5" fill="#0d3068"
        stroke="#0d2464" stroke-width="0.5" stroke-opacity="0.4">
        <title>2026-04-23: 1 commits</title></rect><rect x="953.0" y="735.0"
        width="12" height="12" rx="2.5" fill="#0d3068"
        stroke="#0d2464" stroke-width="0.5" stroke-opacity="0.4">
        <title>2026-04-24: 1 commits</title></rect><rect x="953.0" y="750.0"
        width="12" height="12" rx="2.5" fill="#0d3068"
        stroke="#0d2464" stroke-width="0.5" stroke-opacity="0.4">
        <title>2026-04-25: 1 commits</title></rect><rect x="968.0" y="660.0"
        width="12" height="12" rx="2.5" fill="#0d3068"
        stroke="#0d2464" stroke-width="0.5" stroke-opacity="0.4">
        <title>2026-04-26: 1 commits</title></rect><rect x="968.0" y="675.0"
        width="12" height="12" rx="2.5" fill="#0d3068"
        stroke="#0d2464" stroke-width="0.5" stroke-opacity="0.4">
        <title>2026-04-27: 1 commits</title></rect><rect x="968.0" y="690.0"
        width="12" height="12" rx="2.5" fill="#0d3068"
        stroke="#0d2464" stroke-width="0.5" stroke-opacity="0.4">
        <title>2026-04-28: 1 commits</title></rect><rect x="968.0" y="705.0"
        width="12" height="12" rx="2.5" fill="#0d3068"
        stroke="#0d2464" stroke-width="0.5" stroke-opacity="0.4">
        <title>2026-04-29: 1 commits</title></rect><rect x="968.0" y="720.0"
        width="12" height="12" rx="2.5" fill="#0d3068"
        stroke="#0d2464" stroke-width="0.5" stroke-opacity="0.4">
        <title>2026-04-30: 1 commits</title></rect><rect x="968.0" y="735.0"
        width="12" height="12" rx="2.5" fill="#0d3068"
        stroke="#0d2464" stroke-width="0.5" stroke-opacity="0.4">
        <title>2026-05-01: 6 commits</title></rect><rect x="968.0" y="750.0"
        width="12" height="12" rx="2.5" fill="#0d3068"
        stroke="#0d2464" stroke-width="0.5" stroke-opacity="0.4">
        <title>2026-05-02: 1 commits</title></rect><text x="968.0" y="656" font-size="8.5" fill="#3d7ed4"
        font-family="'Lexend','Segoe UI',sans-serif" font-weight="300">May</text><rect x="983.0" y="660.0"
        width="12" height="12" rx="2.5" fill="#3b82f6"
        stroke="#0d2464" stroke-width="0.5" stroke-opacity="0.4">
        <title>2026-05-03: 39 commits</title></rect><rect x="983.0" y="675.0"
        width="12" height="12" rx="2.5" fill="#0d3068"
        stroke="#0d2464" stroke-width="0.5" stroke-opacity="0.4">
        <title>2026-05-04: 10 commits</title></rect><rect x="983.0" y="690.0"
        width="12" height="12" rx="2.5" fill="#3b82f6"
        stroke="#0d2464" stroke-width="0.5" stroke-opacity="0.4">
        <title>2026-05-05: 37 commits</title></rect><rect x="983.0" y="705.0"
        width="12" height="12" rx="2.5" fill="#0d3068"
        stroke="#0d2464" stroke-width="0.5" stroke-opacity="0.4">
        <title>2026-05-06: 9 commits</title></rect><rect x="983.0" y="720.0"
        width="12" height="12" rx="2.5" fill="#0d3068"
        stroke="#0d2464" stroke-width="0.5" stroke-opacity="0.4">
        <title>2026-05-07: 13 commits</title></rect><rect x="983.0" y="735.0"
        width="12" height="12" rx="2.5" fill="#0d3068"
        stroke="#0d2464" stroke-width="0.5" stroke-opacity="0.4">
        <title>2026-05-08: 5 commits</title></rect><rect x="983.0" y="750.0"
        width="12" height="12" rx="2.5" fill="#0a1630"
        stroke="#0d2464" stroke-width="0.5" stroke-opacity="0.4">
        <title>2026-05-09: 0 commits</title></rect><rect x="998.0" y="660.0"
        width="12" height="12" rx="2.5" fill="#0a1630"
        stroke="#0d2464" stroke-width="0.5" stroke-opacity="0.4">
        <title>2026-05-10: 0 commits</title></rect><rect x="998.0" y="675.0"
        width="12" height="12" rx="2.5" fill="#0a1630"
        stroke="#0d2464" stroke-width="0.5" stroke-opacity="0.4">
        <title>2026-05-11: 0 commits</title></rect><rect x="998.0" y="690.0"
        width="12" height="12" rx="2.5" fill="#0a1630"
        stroke="#0d2464" stroke-width="0.5" stroke-opacity="0.4">
        <title>2026-05-12: 0 commits</title></rect><rect x="998.0" y="705.0"
        width="12" height="12" rx="2.5" fill="#0a1630"
        stroke="#0d2464" stroke-width="0.5" stroke-opacity="0.4">
        <title>2026-05-13: 0 commits</title></rect><rect x="998.0" y="720.0"
        width="12" height="12" rx="2.5" fill="#0a1630"
        stroke="#0d2464" stroke-width="0.5" stroke-opacity="0.4">
        <title>2026-05-14: 0 commits</title></rect><rect x="998.0" y="735.0"
        width="12" height="12" rx="2.5" fill="#0a1630"
        stroke="#0d2464" stroke-width="0.5" stroke-opacity="0.4">
        <title>2026-05-15: 0 commits</title></rect><rect x="998.0" y="750.0"
        width="12" height="12" rx="2.5" fill="#0a1630"
        stroke="#0d2464" stroke-width="0.5" stroke-opacity="0.4">
        <title>2026-05-16: 0 commits</title></rect>

<!-- ════ BOTTOM PANELS ════ -->

    <rect x="86" y="823" width="320" height="110"
      rx="4" fill="#030e26" fill-opacity="0.6" stroke="#1a3f7a" stroke-width="0.8"/>
    <text x="246" y="819" font-size="8" fill="#3d7ed4"
      text-anchor="middle" font-family="'Lexend','Segoe UI',sans-serif"
      letter-spacing="2" font-weight="300">OVERVIEW</text>
    <g clip-path="url(#minimapClip)">
      <path d="M 86.00 931.58 C 86.90 931.82, 89.62 932.76, 91.42 933.00 C 93.23 933.24, 95.04 933.00, 96.85 933.00 C 98.66 933.00, 100.46 933.00, 102.27 933.00 C 104.08 933.00, 105.89 933.00, 107.69 933.00 C 109.50 933.00, 111.31 933.00, 113.12 933.00 C 114.93 933.00, 116.73 935.36, 118.54 933.00 C 120.35 930.64, 122.16 918.83, 123.97 918.83 C 125.77 918.83, 127.58 930.64, 129.39 933.00 C 131.20 935.36, 133.01 939.14, 134.81 933.00 C 136.62 926.86, 138.43 896.17, 140.24 896.17 C 142.05 896.17, 143.85 927.10, 145.66 933.00 C 147.47 938.90, 149.28 931.58, 151.08 931.58 C 152.89 931.58, 154.70 940.32, 156.51 933.00 C 158.32 925.68, 160.12 889.32, 161.93 887.67 C 163.74 886.01, 165.55 916.24, 167.36 923.08 C 169.16 929.93, 170.97 927.33, 172.78 928.75 C 174.59 930.17, 176.40 946.46, 178.20 931.58 C 180.01 916.71, 181.82 849.65, 183.63 839.50 C 185.44 829.35, 187.24 855.56, 189.05 870.67 C 190.86 885.78, 192.67 923.56, 194.47 930.17 C 196.28 936.78, 198.09 913.17, 199.90 910.33 C 201.71 907.50, 203.51 909.86, 205.32 913.17 C 207.13 916.47, 208.94 932.53, 210.75 930.17 C 212.55 927.81, 214.36 902.78, 216.17 899.00 C 217.98 895.22, 219.79 902.07, 221.59 907.50 C 223.40 912.93, 225.21 927.57, 227.02 931.58 C 228.82 935.60, 230.63 933.47, 232.44 931.58 C 234.25 929.69, 236.06 920.25, 237.86 920.25 C 239.67 920.25, 241.48 929.69, 243.29 931.58 C 245.10 933.47, 246.90 931.58, 248.71 931.58 C 250.52 931.58, 252.33 931.58, 254.14 931.58 C 255.94 931.58, 257.75 932.29, 259.56 931.58 C 261.37 930.88, 263.18 927.33, 264.98 927.33 C 266.79 927.33, 268.60 930.88, 270.41 931.58 C 272.21 932.29, 274.02 931.58, 275.83 931.58 C 277.64 931.58, 279.45 931.58, 281.25 931.58 C 283.06 931.58, 284.87 931.58, 286.68 931.58 C 288.49 931.58, 290.29 931.58, 292.10 931.58 C 293.91 931.58, 295.72 931.58, 297.53 931.58 C 299.33 931.58, 301.14 932.06, 302.95 931.58 C 304.76 931.11, 306.56 928.75, 308.37 928.75 C 310.18 928.75, 311.99 931.11, 313.80 931.58 C 315.60 932.06, 317.41 931.58, 319.22 931.58 C 321.03 931.58, 322.84 931.58, 324.64 931.58 C 326.45 931.58, 328.26 931.58, 330.07 931.58 C 331.88 931.58, 333.68 931.58, 335.49 931.58 C 337.30 931.58, 339.11 931.58, 340.92 931.58 C 342.72 931.58, 344.53 931.58, 346.34 931.58 C 348.15 931.58, 349.95 931.58, 351.76 931.58 C 353.57 931.58, 355.38 931.58, 357.19 931.58 C 358.99 931.58, 360.80 932.76, 362.61 931.58 C 364.42 930.40, 366.23 924.50, 368.03 924.50 C 369.84 924.50, 371.65 939.38, 373.46 931.58 C 375.27 923.79, 377.07 879.88, 378.88 877.75 C 380.69 875.63, 382.50 918.36, 384.31 918.83 C 386.11 919.31, 387.92 880.35, 389.73 880.58 C 391.54 880.82, 393.34 914.58, 395.15 920.25 C 396.96 925.92, 398.77 913.64, 400.58 914.58 C 402.38 915.53, 405.10 924.03, 406.00 925.92 L 406.00 933 L 86.00 933 Z" fill="#4a90e2" fill-opacity="0.15"/>
      <path d="M 86.00 931.58 C 86.90 931.82, 89.62 932.76, 91.42 933.00 C 93.23 933.24, 95.04 933.00, 96.85 933.00 C 98.66 933.00, 100.46 933.00, 102.27 933.00 C 104.08 933.00, 105.89 933.00, 107.69 933.00 C 109.50 933.00, 111.31 933.00, 113.12 933.00 C 114.93 933.00, 116.73 935.36, 118.54 933.00 C 120.35 930.64, 122.16 918.83, 123.97 918.83 C 125.77 918.83, 127.58 930.64, 129.39 933.00 C 131.20 935.36, 133.01 939.14, 134.81 933.00 C 136.62 926.86, 138.43 896.17, 140.24 896.17 C 142.05 896.17, 143.85 927.10, 145.66 933.00 C 147.47 938.90, 149.28 931.58, 151.08 931.58 C 152.89 931.58, 154.70 940.32, 156.51 933.00 C 158.32 925.68, 160.12 889.32, 161.93 887.67 C 163.74 886.01, 165.55 916.24, 167.36 923.08 C 169.16 929.93, 170.97 927.33, 172.78 928.75 C 174.59 930.17, 176.40 946.46, 178.20 931.58 C 180.01 916.71, 181.82 849.65, 183.63 839.50 C 185.44 829.35, 187.24 855.56, 189.05 870.67 C 190.86 885.78, 192.67 923.56, 194.47 930.17 C 196.28 936.78, 198.09 913.17, 199.90 910.33 C 201.71 907.50, 203.51 909.86, 205.32 913.17 C 207.13 916.47, 208.94 932.53, 210.75 930.17 C 212.55 927.81, 214.36 902.78, 216.17 899.00 C 217.98 895.22, 219.79 902.07, 221.59 907.50 C 223.40 912.93, 225.21 927.57, 227.02 931.58 C 228.82 935.60, 230.63 933.47, 232.44 931.58 C 234.25 929.69, 236.06 920.25, 237.86 920.25 C 239.67 920.25, 241.48 929.69, 243.29 931.58 C 245.10 933.47, 246.90 931.58, 248.71 931.58 C 250.52 931.58, 252.33 931.58, 254.14 931.58 C 255.94 931.58, 257.75 932.29, 259.56 931.58 C 261.37 930.88, 263.18 927.33, 264.98 927.33 C 266.79 927.33, 268.60 930.88, 270.41 931.58 C 272.21 932.29, 274.02 931.58, 275.83 931.58 C 277.64 931.58, 279.45 931.58, 281.25 931.58 C 283.06 931.58, 284.87 931.58, 286.68 931.58 C 288.49 931.58, 290.29 931.58, 292.10 931.58 C 293.91 931.58, 295.72 931.58, 297.53 931.58 C 299.33 931.58, 301.14 932.06, 302.95 931.58 C 304.76 931.11, 306.56 928.75, 308.37 928.75 C 310.18 928.75, 311.99 931.11, 313.80 931.58 C 315.60 932.06, 317.41 931.58, 319.22 931.58 C 321.03 931.58, 322.84 931.58, 324.64 931.58 C 326.45 931.58, 328.26 931.58, 330.07 931.58 C 331.88 931.58, 333.68 931.58, 335.49 931.58 C 337.30 931.58, 339.11 931.58, 340.92 931.58 C 342.72 931.58, 344.53 931.58, 346.34 931.58 C 348.15 931.58, 349.95 931.58, 351.76 931.58 C 353.57 931.58, 355.38 931.58, 357.19 931.58 C 358.99 931.58, 360.80 932.76, 362.61 931.58 C 364.42 930.40, 366.23 924.50, 368.03 924.50 C 369.84 924.50, 371.65 939.38, 373.46 931.58 C 375.27 923.79, 377.07 879.88, 378.88 877.75 C 380.69 875.63, 382.50 918.36, 384.31 918.83 C 386.11 919.31, 387.92 880.35, 389.73 880.58 C 391.54 880.82, 393.34 914.58, 395.15 920.25 C 396.96 925.92, 398.77 913.64, 400.58 914.58 C 402.38 915.53, 405.10 924.03, 406.00 925.92" fill="none" stroke="#4a90e2" stroke-width="1.5" stroke-opacity="0.7"/>
    </g>
    <clipPath id="minimapClip">
      <rect x="86" y="823" width="320" height="110" rx="4"/>
    </clipPath><path d="M 1626.00 854.90
      L 1626.00 836.00
      A 42 42 0 1 1 1589.94 899.53
      L 1606.17 889.84
      A 23.1 23.1 0 1 0 1626.00 854.90 Z"
      fill="#4a90e2" fill-opacity="0.8" stroke="#030e26" stroke-width="1.5">
      <title>Kieran Lucas: 283 commits (66%)</title></path><path d="M 1606.17 889.84
      L 1589.94 899.53
      A 42 42 0 0 1 1586.50 863.73
      L 1604.27 870.15
      A 23.1 23.1 0 0 0 1606.17 889.84 Z"
      fill="#ff8c42" fill-opacity="0.8" stroke="#030e26" stroke-width="1.5">
      <title>HumaNormal: 60 commits (14%)</title></path><path d="M 1604.27 870.15
      L 1586.50 863.73
      A 42 42 0 0 1 1611.44 838.60
      L 1617.99 856.33
      A 23.1 23.1 0 0 0 1604.27 870.15 Z"
      fill="#00d4f5" fill-opacity="0.8" stroke="#030e26" stroke-width="1.5">
      <title>github-actions: 59 commits (14%)</title></path><path d="M 1617.99 856.33
      L 1611.44 838.60
      A 42 42 0 0 1 1625.38 836.00
      L 1625.66 854.90
      A 23.1 23.1 0 0 0 1617.99 856.33 Z"
      fill="#22c55e" fill-opacity="0.8" stroke="#030e26" stroke-width="1.5">
      <title>stillqhuy: 23 commits (5%)</title></path><path d="M 1625.66 854.90
      L 1625.38 836.00
      A 42 42 0 0 1 1626.00 836.00
      L 1626.00 854.90
      A 23.1 23.1 0 0 0 1625.66 854.90 Z"
      fill="#ef4444" fill-opacity="0.8" stroke="#030e26" stroke-width="1.5">
      <title>Nguyễn Đinh Việt Đức: 1 commits (0%)</title></path><text x="1626" y="874" font-size="9" fill="#3d7ed4" text-anchor="middle"
    font-family="'Lexend','Segoe UI',sans-serif" letter-spacing="1.5" font-weight="300">AUTHORS</text><text x="1626" y="892" font-size="16" fill="#cce8ff" text-anchor="middle"
    font-family="'Lexend','Segoe UI',sans-serif" font-weight="600">5</text><rect x="1684" y="830" width="8" height="8" rx="2" fill="#4a90e2" opacity="0.85"/><text x="1698" y="838" font-size="9.5" fill="#3d7ed4"
      font-family="'Lexend','Segoe UI',sans-serif" font-weight="300">Kieran Lucas (283)</text><rect x="1684" y="848" width="8" height="8" rx="2" fill="#ff8c42" opacity="0.85"/><text x="1698" y="856" font-size="9.5" fill="#3d7ed4"
      font-family="'Lexend','Segoe UI',sans-serif" font-weight="300">HumaNormal (60)</text><rect x="1684" y="866" width="8" height="8" rx="2" fill="#00d4f5" opacity="0.85"/><text x="1698" y="874" font-size="9.5" fill="#3d7ed4"
      font-family="'Lexend','Segoe UI',sans-serif" font-weight="300">github-actions (59)</text><rect x="1684" y="884" width="8" height="8" rx="2" fill="#22c55e" opacity="0.85"/><text x="1698" y="892" font-size="9.5" fill="#3d7ed4"
      font-family="'Lexend','Segoe UI',sans-serif" font-weight="300">stillqhuy (23)</text><rect x="1684" y="902" width="8" height="8" rx="2" fill="#ef4444" opacity="0.85"/><text x="1698" y="910" font-size="9.5" fill="#3d7ed4"
      font-family="'Lexend','Segoe UI',sans-serif" font-weight="300">Nguyễn Đinh … (1)</text>

<!-- ════ WAVES ════ -->
<path d="M 0 963 Q 115.3 956.0 230.5 963 Q 345.8 956.0 461.0 963 Q 576.3 956.0 691.5 963 Q 806.8 956.0 922.0 963 Q 1037.3 956.0 1152.5 963 Q 1267.8 956.0 1383.0 963 Q 1498.3 956.0 1613.5 963 Q 1728.8 956.0 1844.0 963" fill="none" stroke="#1948a0" stroke-width="1.2" stroke-opacity="0.35"/>
<path d="M 0 958 Q 115.3 952.5 230.5 958 Q 345.8 952.5 461.0 958 Q 576.3 952.5 691.5 958 Q 806.8 952.5 922.0 958 Q 1037.3 952.5 1152.5 958 Q 1267.8 952.5 1383.0 958 Q 1498.3 952.5 1613.5 958 Q 1728.8 952.5 1844.0 958" fill="none" stroke="#1948a0" stroke-width="1" stroke-opacity="0.29"/>
<path d="M 0 953 Q 115.3 949.0 230.5 953 Q 345.8 949.0 461.0 953 Q 576.3 949.0 691.5 953 Q 806.8 949.0 922.0 953 Q 1037.3 949.0 1152.5 953 Q 1267.8 949.0 1383.0 953 Q 1498.3 949.0 1613.5 953 Q 1728.8 949.0 1844.0 953" fill="none" stroke="#1948a0" stroke-width="0.7999999999999999" stroke-opacity="0.22999999999999998"/>
<path d="M 0 948 Q 115.3 945.5 230.5 948 Q 345.8 945.5 461.0 948 Q 576.3 945.5 691.5 948 Q 806.8 945.5 922.0 948 Q 1037.3 945.5 1152.5 948 Q 1267.8 945.5 1383.0 948 Q 1498.3 945.5 1613.5 948 Q 1728.8 945.5 1844.0 948" fill="none" stroke="#1948a0" stroke-width="0.5999999999999999" stroke-opacity="0.16999999999999998"/>

</svg>