<svg width="1760" height="969" xmlns="http://www.w3.org/2000/svg" viewBox="0 0 1760 969">
<defs>
  <style>
    @import url('https://fonts.googleapis.com/css2?family=Lexend:wght@300;400;600;700&amp;display=swap');
    circle:hover { opacity: 1 !important; r: 6; }
    rect.bar-segment:hover { opacity: 1 !important; }
  </style>

  <linearGradient id="bg" x1="0%" y1="0%" x2="55%" y2="100%">
    <stop offset="0%"   stop-color="#010c1e"/>
    <stop offset="50%"  stop-color="#010f27"/>
    <stop offset="100%" stop-color="#000a18"/>
  </linearGradient>
  <linearGradient id="areaFill" x1="0%" y1="0%" x2="0%" y2="100%">
    <stop offset="0%"   stop-color="#4a90e2" stop-opacity="0.5"/>
    <stop offset="55%"  stop-color="#1a3f7a" stop-opacity="0.18"/>
    <stop offset="100%" stop-color="#000a18" stop-opacity="0"/>
  </linearGradient>
  <linearGradient id="gCommits" x1="0%" y1="0%" x2="100%" y2="0%">
    <stop offset="0%"   stop-color="#ff8c42"/>
    <stop offset="100%" stop-color="#ffd0a0"/>
  </linearGradient>
  <linearGradient id="gChanges" x1="0%" y1="0%" x2="100%" y2="0%">
    <stop offset="0%"   stop-color="#00d4f5" stop-opacity="0.8"/>
    <stop offset="50%"  stop-color="#00d4f5"/>
    <stop offset="100%" stop-color="#80eeff"/>
  </linearGradient>
  <linearGradient id="gBorder" x1="0%" y1="0%" x2="100%" y2="100%">
    <stop offset="0%"   stop-color="#1840a0" stop-opacity="0.9"/>
    <stop offset="50%"  stop-color="#3b82f6" stop-opacity="0.6"/>
    <stop offset="100%" stop-color="#60a5fa" stop-opacity="0.9"/>
  </linearGradient>
  <linearGradient id="gHeader" x1="0%" y1="0%" x2="100%" y2="0%">
    <stop offset="0%"   stop-color="#010c1e" stop-opacity="0"/>
    <stop offset="20%"  stop-color="#091c3e" stop-opacity="0.92"/>
    <stop offset="80%"  stop-color="#091c3e" stop-opacity="0.92"/>
    <stop offset="100%" stop-color="#010c1e" stop-opacity="0"/>
  </linearGradient>
  <linearGradient id="gAddBar" x1="0%" y1="0%" x2="0%" y2="100%">
    <stop offset="0%"   stop-color="#22c55e" stop-opacity="0.95"/>
    <stop offset="100%" stop-color="#22c55e" stop-opacity="0.65"/>
  </linearGradient>
  <linearGradient id="gDelBar" x1="0%" y1="0%" x2="0%" y2="100%">
    <stop offset="0%"   stop-color="#ef4444" stop-opacity="0.9"/>
    <stop offset="100%" stop-color="#ef4444" stop-opacity="0.6"/>
  </linearGradient>

  <filter id="glowOrange" x="-120%" y="-120%" width="340%" height="340%">
    <feGaussianBlur stdDeviation="4" result="b"/>
    <feMerge><feMergeNode in="b"/><feMergeNode in="SourceGraphic"/></feMerge>
  </filter>
  <filter id="glowCyan" x="-120%" y="-120%" width="340%" height="340%">
    <feGaussianBlur stdDeviation="3.5" result="b"/>
    <feMerge><feMergeNode in="b"/><feMergeNode in="SourceGraphic"/></feMerge>
  </filter>
  <filter id="glowTitle">
    <feGaussianBlur stdDeviation="5" result="b"/>
    <feMerge><feMergeNode in="b"/><feMergeNode in="b"/><feMergeNode in="SourceGraphic"/></feMerge>
  </filter>
  <filter id="glowLine" x="-6%" y="-120%" width="112%" height="340%">
    <feGaussianBlur stdDeviation="4.5" result="b"/>
    <feMerge><feMergeNode in="b"/><feMergeNode in="SourceGraphic"/></feMerge>
  </filter>
  <filter id="glowMA" x="-6%" y="-120%" width="112%" height="340%">
    <feGaussianBlur stdDeviation="3" result="b"/>
    <feMerge><feMergeNode in="b"/><feMergeNode in="SourceGraphic"/></feMerge>
  </filter>

  <pattern id="diamondTile" x="0" y="0" width="30" height="30" patternUnits="userSpaceOnUse">
    <path d="M15 2 L28 15 L15 28 L2 15 Z"
      fill="none" stroke="#0d2464" stroke-width="0.4" stroke-opacity="0.25"/>
  </pattern>

  <clipPath id="chartClip">
    <rect x="86" y="130" width="1596" height="360"/>
  </clipPath>
</defs>

<!-- ════ BACKGROUND ════ -->
<rect width="1760" height="969" fill="url(#bg)" rx="16"/>
<rect width="1760" height="969" fill="url(#diamondTile)" rx="16"/>

<!-- ════ BORDERS ════ -->
<rect width="1760" height="969" fill="none" rx="16" stroke="url(#gBorder)" stroke-width="2.2"/>
<rect x="5" y="5" width="1750" height="959" fill="none" rx="13"
  stroke="#1840a0" stroke-width="0.7" stroke-opacity="0.35"/>

<!-- ════ HEADER ════ -->
<rect x="0" y="0" width="1760" height="122" fill="url(#gHeader)" rx="16"/>
<line x1="24" y1="118.0" x2="1736.0" y2="118.0"
    stroke="url(#gBorder)" stroke-width="0.8" stroke-opacity="0.5"/>

<!-- ════ TITLE ════ -->
<text x="884.0" y="44" font-size="18" font-weight="600" fill="#cce8ff"
  text-anchor="middle" font-family="'Lexend','Segoe UI',sans-serif"
  filter="url(#glowTitle)" letter-spacing="5">⬡  COMMIT  ANALYTICS  ⬡</text>
<text x="884.0" y="62" font-size="9.5" fill="#3d7ed4" text-anchor="middle"
  font-family="'Lexend','Segoe UI',sans-serif" letter-spacing="3.5" font-weight="300">kieran-lucas/oop-course-project-uet</text>

<!-- ════ STATS BADGE ════ -->

    <rect x="1534" y="8" width="142" height="92" rx="10"
      fill="#030e26" fill-opacity="0.94" stroke="#2563eb" stroke-width="1.2"/>
    <text x="1605" y="24" font-size="8" fill="#3d7ed4"
      text-anchor="middle" font-family="'Lexend',sans-serif" letter-spacing="2" font-weight="400">TOTAL  COMMITS</text>
    <text x="1605" y="52" font-size="28" font-weight="700" fill="#cce8ff"
      text-anchor="middle" font-family="'Lexend',sans-serif" filter="url(#glowTitle)">397</text>
    <line x1="1550" y1="60" x2="1660" y2="60"
      stroke="#1a3f7a" stroke-width="0.8" stroke-opacity="0.5"/>
    <text x="1581" y="74" font-size="9" fill="#22c55e"
      text-anchor="middle" font-family="'Lexend',sans-serif" font-weight="400">+181.0k</text>
    <text x="1629" y="74" font-size="9" fill="#ef4444"
      text-anchor="middle" font-family="'Lexend',sans-serif" font-weight="400">-157.5k</text>
    <text x="1605" y="90" font-size="8" fill="#3d7ed4"
      text-anchor="middle" font-family="'Lexend',sans-serif" font-weight="300">47 active days · 1.5k files</text>

<!-- ════ LEGEND ════ -->
<g><rect x="528.0" y="90.0" width="24" height="12" rx="3"
        fill="#4a90e2" fill-opacity="0.45" stroke="#4a90e2" stroke-width="1.2"/><text x="559.0" y="100.0" font-size="11" fill="#93c5fd"
      font-family="'Lexend','Segoe UI',sans-serif" font-weight="400">Total Lines</text><line x1="664.0" y1="97.0" x2="688.0" y2="97.0"
        stroke="#ff8c42" stroke-width="2.5" stroke-linecap="round"/><circle cx="676.0" cy="97.0" r="3.5"
        fill="#ff8c42" stroke="#fff" stroke-width="0.6" stroke-opacity="0.3"/><text x="695.0" y="100.0" font-size="11" fill="#93c5fd"
      font-family="'Lexend','Segoe UI',sans-serif" font-weight="400">Commits</text><line x1="772.0" y1="97.0" x2="796.0" y2="97.0"
        stroke="#00d4f5" stroke-width="2.5" stroke-linecap="round"/><circle cx="784.0" cy="97.0" r="3.5"
        fill="#00d4f5" stroke="#fff" stroke-width="0.6" stroke-opacity="0.3"/><text x="803.0" y="100.0" font-size="11" fill="#93c5fd"
      font-family="'Lexend','Segoe UI',sans-serif" font-weight="400">Chg/Commit</text><rect x="907.0" y="90.0" width="12" height="12" rx="2"
        fill="#22c55e" opacity="0.85"/><text x="932.0" y="100.0" font-size="11" fill="#93c5fd"
      font-family="'Lexend','Segoe UI',sans-serif" font-weight="400">Additions</text><rect x="1029.0" y="90.0" width="12" height="12" rx="2"
        fill="#ef4444" opacity="0.85"/><text x="1054.0" y="100.0" font-size="11" fill="#93c5fd"
      font-family="'Lexend','Segoe UI',sans-serif" font-weight="400">Deletions</text><line x1="1145.0" y1="97.0" x2="1169.0" y2="97.0"
        stroke="#a78bfa" stroke-width="2" stroke-dasharray="5,3" stroke-linecap="round"/><text x="1176.0" y="100.0" font-size="11" fill="#93c5fd"
      font-family="'Lexend','Segoe UI',sans-serif" font-weight="400">7-day MA</text></g>

<!-- ════ AXIS LABELS ════ -->
<text x="16" y="310.0" font-size="9.5" fill="#4a90e2"
    text-anchor="middle" font-family="'Lexend','Segoe UI',sans-serif" letter-spacing="3" font-weight="300"
    transform="rotate(-90, 16, 310.0)">LINES</text>
<text x="1746.0" y="310.0" font-size="9.5"
    fill="#ff8c42" text-anchor="middle" font-family="'Lexend','Segoe UI',sans-serif"
    letter-spacing="3" font-weight="300" opacity="0.8"
    transform="rotate(90, 1746.0, 310.0)">COMMITS</text>

<!-- ════ GRID + Y-LABELS ════ -->
<line x1="86" y1="490.0" x2="1682" y2="490.0"
      stroke="#1a3f7a" stroke-width="1.4"
      stroke-opacity="0.9" stroke-dasharray="none"/><line x1="86" y1="418.0" x2="1682" y2="418.0"
      stroke="#1a3f7a" stroke-width="0.5"
      stroke-opacity="0.3" stroke-dasharray="6,6"/><line x1="86" y1="346.0" x2="1682" y2="346.0"
      stroke="#1a3f7a" stroke-width="0.5"
      stroke-opacity="0.3" stroke-dasharray="6,6"/><line x1="86" y1="274.0" x2="1682" y2="274.0"
      stroke="#1a3f7a" stroke-width="0.5"
      stroke-opacity="0.3" stroke-dasharray="6,6"/><line x1="86" y1="202.0" x2="1682" y2="202.0"
      stroke="#1a3f7a" stroke-width="0.5"
      stroke-opacity="0.3" stroke-dasharray="6,6"/><line x1="86" y1="130.0" x2="1682" y2="130.0"
      stroke="#1a3f7a" stroke-width="0.5"
      stroke-opacity="0.3" stroke-dasharray="6,6"/>
<text x="74" y="494.0" font-size="11" fill="#5aa8ff"
      text-anchor="end" font-family="'Lexend','Segoe UI',sans-serif" font-weight="300">0</text><text x="74" y="422.0" font-size="11" fill="#5aa8ff"
      text-anchor="end" font-family="'Lexend','Segoe UI',sans-serif" font-weight="300">20.0k</text><text x="74" y="350.0" font-size="11" fill="#5aa8ff"
      text-anchor="end" font-family="'Lexend','Segoe UI',sans-serif" font-weight="300">40.0k</text><text x="74" y="278.0" font-size="11" fill="#5aa8ff"
      text-anchor="end" font-family="'Lexend','Segoe UI',sans-serif" font-weight="300">60.0k</text><text x="74" y="206.0" font-size="11" fill="#5aa8ff"
      text-anchor="end" font-family="'Lexend','Segoe UI',sans-serif" font-weight="300">80.0k</text><text x="74" y="134.0" font-size="11" fill="#5aa8ff"
      text-anchor="end" font-family="'Lexend','Segoe UI',sans-serif" font-weight="300">100.0k</text>
<text x="1694" y="494.0" font-size="11" fill="#ff8c42"
      text-anchor="start" font-family="'Lexend','Segoe UI',sans-serif" font-weight="300" opacity="0.85">0</text><text x="1694" y="404.0" font-size="11" fill="#ff8c42"
      text-anchor="start" font-family="'Lexend','Segoe UI',sans-serif" font-weight="300" opacity="0.85">20</text><text x="1694" y="314.0" font-size="11" fill="#ff8c42"
      text-anchor="start" font-family="'Lexend','Segoe UI',sans-serif" font-weight="300" opacity="0.85">40</text><text x="1694" y="224.0" font-size="11" fill="#ff8c42"
      text-anchor="start" font-family="'Lexend','Segoe UI',sans-serif" font-weight="300" opacity="0.85">60</text><text x="1694" y="134.0" font-size="11" fill="#ff8c42"
      text-anchor="start" font-family="'Lexend','Segoe UI',sans-serif" font-weight="300" opacity="0.85">80</text>

<!-- ════ AXIS LINES ════ -->
<line x1="86" y1="130" x2="86" y2="490"
  stroke="#1a3f7a" stroke-width="1.2" stroke-opacity="0.65"/>
<line x1="86" y1="490" x2="1682" y2="490"
  stroke="#1a3f7a" stroke-width="1.4" stroke-opacity="0.8"/>
<line x1="1682" y1="130" x2="1682" y2="490"
  stroke="#ff8c42" stroke-width="0.9" stroke-opacity="0.28"/>

<!-- ════ X-AXIS ════ -->
<text x="86.0" y="514" font-size="10" fill="#5aa8ff"
      text-anchor="end" font-family="'Lexend','Segoe UI',sans-serif" font-weight="300"
      transform="rotate(-42, 86.0, 514)">10 Mar</text><text x="200.0" y="514" font-size="10" fill="#5aa8ff"
      text-anchor="end" font-family="'Lexend','Segoe UI',sans-serif" font-weight="300"
      transform="rotate(-42, 200.0, 514)">14 Mar</text><text x="314.0" y="514" font-size="10" fill="#5aa8ff"
      text-anchor="end" font-family="'Lexend','Segoe UI',sans-serif" font-weight="300"
      transform="rotate(-42, 314.0, 514)">18 Mar</text><text x="428.0" y="514" font-size="10" fill="#5aa8ff"
      text-anchor="end" font-family="'Lexend','Segoe UI',sans-serif" font-weight="300"
      transform="rotate(-42, 428.0, 514)">22 Mar</text><text x="542.0" y="514" font-size="10" fill="#5aa8ff"
      text-anchor="end" font-family="'Lexend','Segoe UI',sans-serif" font-weight="300"
      transform="rotate(-42, 542.0, 514)">26 Mar</text><text x="656.0" y="514" font-size="10" fill="#5aa8ff"
      text-anchor="end" font-family="'Lexend','Segoe UI',sans-serif" font-weight="300"
      transform="rotate(-42, 656.0, 514)">30 Mar</text><text x="770.0" y="514" font-size="10" fill="#5aa8ff"
      text-anchor="end" font-family="'Lexend','Segoe UI',sans-serif" font-weight="300"
      transform="rotate(-42, 770.0, 514)">3 Apr</text><text x="884.0" y="514" font-size="10" fill="#5aa8ff"
      text-anchor="end" font-family="'Lexend','Segoe UI',sans-serif" font-weight="300"
      transform="rotate(-42, 884.0, 514)">7 Apr</text><text x="998.0" y="514" font-size="10" fill="#5aa8ff"
      text-anchor="end" font-family="'Lexend','Segoe UI',sans-serif" font-weight="300"
      transform="rotate(-42, 998.0, 514)">11 Apr</text><text x="1112.0" y="514" font-size="10" fill="#5aa8ff"
      text-anchor="end" font-family="'Lexend','Segoe UI',sans-serif" font-weight="300"
      transform="rotate(-42, 1112.0, 514)">15 Apr</text><text x="1226.0" y="514" font-size="10" fill="#5aa8ff"
      text-anchor="end" font-family="'Lexend','Segoe UI',sans-serif" font-weight="300"
      transform="rotate(-42, 1226.0, 514)">19 Apr</text><text x="1340.0" y="514" font-size="10" fill="#5aa8ff"
      text-anchor="end" font-family="'Lexend','Segoe UI',sans-serif" font-weight="300"
      transform="rotate(-42, 1340.0, 514)">23 Apr</text><text x="1454.0" y="514" font-size="10" fill="#5aa8ff"
      text-anchor="end" font-family="'Lexend','Segoe UI',sans-serif" font-weight="300"
      transform="rotate(-42, 1454.0, 514)">27 Apr</text><text x="1568.0" y="514" font-size="10" fill="#5aa8ff"
      text-anchor="end" font-family="'Lexend','Segoe UI',sans-serif" font-weight="300"
      transform="rotate(-42, 1568.0, 514)">1 May</text><text x="1682.0" y="514" font-size="10" fill="#5aa8ff"
      text-anchor="end" font-family="'Lexend','Segoe UI',sans-serif" font-weight="300"
      transform="rotate(-42, 1682.0, 514)">5 May</text>

<!-- ════ CHART CONTENT ════ -->
<g clip-path="url(#chartClip)">
  <!-- Total lines: area + stroke -->
  <path d="M 86.00 490.00 C 90.75 490.00, 105.00 490.00, 114.50 490.00 C 124.00 490.00, 133.50 490.00, 143.00 490.00 C 152.50 490.00, 162.00 490.00, 171.50 490.00 C 181.00 490.00, 190.50 490.00, 200.00 490.00 C 209.50 490.00, 219.00 490.00, 228.50 490.00 C 238.00 490.00, 247.50 490.00, 257.00 490.00 C 266.50 489.98, 276.00 489.92, 285.50 489.91 C 295.00 489.89, 304.50 489.91, 314.00 489.91 C 323.50 489.91, 333.00 489.94, 342.50 489.91 C 352.00 489.87, 361.50 489.72, 371.00 489.69 C 380.50 489.65, 390.00 489.70, 399.50 489.69 C 409.00 489.67, 418.50 489.62, 428.00 489.61 C 437.50 489.59, 447.00 490.00, 456.50 489.61 C 466.00 489.00, 475.50 486.57, 485.00 485.97 C 494.50 485.36, 504.00 485.98, 513.50 485.99 C 523.00 485.99, 532.50 485.98, 542.00 485.98 C 551.50 485.97, 561.00 490.00, 570.50 485.96 C 580.00 443.36, 589.50 275.03, 599.00 230.35 C 608.50 185.66, 618.00 219.95, 627.50 217.85 C 637.00 215.76, 646.50 218.13, 656.00 217.76 C 665.50 217.40, 675.00 216.29, 684.50 215.68 C 694.00 215.08, 703.50 214.49, 713.00 214.12 C 722.50 213.75, 732.00 213.58, 741.50 213.44 C 751.00 213.31, 760.50 213.62, 770.00 213.29 C 779.50 212.96, 789.00 211.77, 798.50 211.47 C 808.00 211.16, 817.50 211.47, 827.00 211.47 C 836.50 211.47, 846.00 211.53, 855.50 211.45 C 865.00 211.38, 874.50 211.10, 884.00 211.03 C 893.50 210.96, 903.00 211.03, 912.50 211.03 C 922.00 211.03, 931.50 211.02, 941.00 211.02 C 950.50 211.01, 960.00 211.00, 969.50 211.00 C 979.00 211.00, 988.50 211.46, 998.00 211.02 C 1007.50 210.58, 1017.00 208.80, 1026.50 208.36 C 1036.00 207.92, 1045.50 208.38, 1055.00 208.36 C 1064.50 208.35, 1074.00 208.29, 1083.50 208.27 C 1093.00 208.25, 1102.50 208.26, 1112.00 208.25 C 1121.50 208.24, 1131.00 208.24, 1140.50 208.24 C 1150.00 208.23, 1159.50 208.23, 1169.00 208.22 C 1178.50 208.21, 1188.00 208.21, 1197.50 208.20 C 1207.00 208.19, 1216.50 208.28, 1226.00 208.18 C 1235.50 208.09, 1245.00 207.73, 1254.50 207.63 C 1264.00 207.54, 1273.50 207.63, 1283.00 207.63 C 1292.50 207.62, 1302.00 207.62, 1311.50 207.61 C 1321.00 207.61, 1330.50 207.60, 1340.00 207.60 C 1349.50 207.59, 1359.00 207.58, 1368.50 207.58 C 1378.00 207.57, 1387.50 207.56, 1397.00 207.56 C 1406.50 207.56, 1416.00 207.57, 1425.50 207.57 C 1435.00 207.57, 1444.50 207.57, 1454.00 207.55 C 1463.50 207.54, 1473.00 207.48, 1482.50 207.46 C 1492.00 207.45, 1501.50 207.46, 1511.00 207.45 C 1520.50 207.44, 1530.00 207.78, 1539.50 207.43 C 1549.00 207.07, 1558.50 205.67, 1568.00 205.32 C 1577.50 204.96, 1587.00 211.23, 1596.50 205.32 C 1606.00 199.40, 1615.50 135.86, 1625.00 169.84 C 1634.50 203.81, 1644.00 369.89, 1653.50 409.17 C 1663.00 448.44, 1677.25 406.10, 1682.00 405.49 L 1682.00 490 L 86.00 490 Z" fill="url(#areaFill)"/>
  <path d="M 86.00 490.00 C 90.75 490.00, 105.00 490.00, 114.50 490.00 C 124.00 490.00, 133.50 490.00, 143.00 490.00 C 152.50 490.00, 162.00 490.00, 171.50 490.00 C 181.00 490.00, 190.50 490.00, 200.00 490.00 C 209.50 490.00, 219.00 490.00, 228.50 490.00 C 238.00 490.00, 247.50 490.00, 257.00 490.00 C 266.50 489.98, 276.00 489.92, 285.50 489.91 C 295.00 489.89, 304.50 489.91, 314.00 489.91 C 323.50 489.91, 333.00 489.94, 342.50 489.91 C 352.00 489.87, 361.50 489.72, 371.00 489.69 C 380.50 489.65, 390.00 489.70, 399.50 489.69 C 409.00 489.67, 418.50 489.62, 428.00 489.61 C 437.50 489.59, 447.00 490.00, 456.50 489.61 C 466.00 489.00, 475.50 486.57, 485.00 485.97 C 494.50 485.36, 504.00 485.98, 513.50 485.99 C 523.00 485.99, 532.50 485.98, 542.00 485.98 C 551.50 485.97, 561.00 490.00, 570.50 485.96 C 580.00 443.36, 589.50 275.03, 599.00 230.35 C 608.50 185.66, 618.00 219.95, 627.50 217.85 C 637.00 215.76, 646.50 218.13, 656.00 217.76 C 665.50 217.40, 675.00 216.29, 684.50 215.68 C 694.00 215.08, 703.50 214.49, 713.00 214.12 C 722.50 213.75, 732.00 213.58, 741.50 213.44 C 751.00 213.31, 760.50 213.62, 770.00 213.29 C 779.50 212.96, 789.00 211.77, 798.50 211.47 C 808.00 211.16, 817.50 211.47, 827.00 211.47 C 836.50 211.47, 846.00 211.53, 855.50 211.45 C 865.00 211.38, 874.50 211.10, 884.00 211.03 C 893.50 210.96, 903.00 211.03, 912.50 211.03 C 922.00 211.03, 931.50 211.02, 941.00 211.02 C 950.50 211.01, 960.00 211.00, 969.50 211.00 C 979.00 211.00, 988.50 211.46, 998.00 211.02 C 1007.50 210.58, 1017.00 208.80, 1026.50 208.36 C 1036.00 207.92, 1045.50 208.38, 1055.00 208.36 C 1064.50 208.35, 1074.00 208.29, 1083.50 208.27 C 1093.00 208.25, 1102.50 208.26, 1112.00 208.25 C 1121.50 208.24, 1131.00 208.24, 1140.50 208.24 C 1150.00 208.23, 1159.50 208.23, 1169.00 208.22 C 1178.50 208.21, 1188.00 208.21, 1197.50 208.20 C 1207.00 208.19, 1216.50 208.28, 1226.00 208.18 C 1235.50 208.09, 1245.00 207.73, 1254.50 207.63 C 1264.00 207.54, 1273.50 207.63, 1283.00 207.63 C 1292.50 207.62, 1302.00 207.62, 1311.50 207.61 C 1321.00 207.61, 1330.50 207.60, 1340.00 207.60 C 1349.50 207.59, 1359.00 207.58, 1368.50 207.58 C 1378.00 207.57, 1387.50 207.56, 1397.00 207.56 C 1406.50 207.56, 1416.00 207.57, 1425.50 207.57 C 1435.00 207.57, 1444.50 207.57, 1454.00 207.55 C 1463.50 207.54, 1473.00 207.48, 1482.50 207.46 C 1492.00 207.45, 1501.50 207.46, 1511.00 207.45 C 1520.50 207.44, 1530.00 207.78, 1539.50 207.43 C 1549.00 207.07, 1558.50 205.67, 1568.00 205.32 C 1577.50 204.96, 1587.00 211.23, 1596.50 205.32 C 1606.00 199.40, 1615.50 135.86, 1625.00 169.84 C 1634.50 203.81, 1644.00 369.89, 1653.50 409.17 C 1663.00 448.44, 1677.25 406.10, 1682.00 405.49" fill="none" stroke="#4a90e2" stroke-width="2" stroke-opacity="0.7"/>

  <!-- Bars -->
  <rect x="477.3" y="312.7" width="15.400000000000002" height="88.0"
        fill="url(#gDelBar)" rx="2" opacity="0.78"/><rect x="477.3" y="400.7" width="15.400000000000002" height="89.3"
        fill="url(#gAddBar)" rx="2" opacity="0.82"/><rect x="591.3" y="392.5" width="15.400000000000002" height="2.7"
        fill="url(#gDelBar)" rx="2" opacity="0.78"/><rect x="591.3" y="395.2" width="15.400000000000002" height="94.8"
        fill="url(#gAddBar)" rx="2" opacity="0.82"/><rect x="619.8" y="476.3" width="15.400000000000002" height="4.6"
        fill="url(#gDelBar)" rx="2" opacity="0.78"/><rect x="619.8" y="480.9" width="15.400000000000002" height="9.1"
        fill="url(#gAddBar)" rx="2" opacity="0.82"/><rect x="676.8" y="487.5" width="15.400000000000002" height="0.9"
        fill="url(#gDelBar)" rx="2" opacity="0.78"/><rect x="676.8" y="488.4" width="15.400000000000002" height="1.6"
        fill="url(#gAddBar)" rx="2" opacity="0.82"/><rect x="705.3" y="487.5" width="15.400000000000002" height="1.0"
        fill="url(#gDelBar)" rx="2" opacity="0.78"/><rect x="705.3" y="488.5" width="15.400000000000002" height="1.5"
        fill="url(#gAddBar)" rx="2" opacity="0.82"/><rect x="762.3" y="487.6" width="15.400000000000002" height="1.2"
        fill="url(#gDelBar)" rx="2" opacity="0.78"/><rect x="762.3" y="488.8" width="15.400000000000002" height="1.2"
        fill="url(#gAddBar)" rx="2" opacity="0.82"/><rect x="790.8" y="486.1" width="15.400000000000002" height="1.6"
        fill="url(#gDelBar)" rx="2" opacity="0.78"/><rect x="790.8" y="487.7" width="15.400000000000002" height="2.3"
        fill="url(#gAddBar)" rx="2" opacity="0.82"/><rect x="1018.8" y="488.8" width="15.400000000000002" height="1.2"
        fill="url(#gAddBar)" rx="2" opacity="0.82"/><rect x="1246.8" y="488.7" width="15.400000000000002" height="0.5"
        fill="url(#gDelBar)" rx="2" opacity="0.78"/><rect x="1246.8" y="489.3" width="15.400000000000002" height="0.7"
        fill="url(#gAddBar)" rx="2" opacity="0.82"/><rect x="1560.3" y="479.7" width="15.400000000000002" height="4.8"
        fill="url(#gDelBar)" rx="2" opacity="0.78"/><rect x="1560.3" y="484.5" width="15.400000000000002" height="5.5"
        fill="url(#gAddBar)" rx="2" opacity="0.82"/><rect x="1617.3" y="472.3" width="15.400000000000002" height="2.5"
        fill="url(#gDelBar)" rx="2" opacity="0.78"/><rect x="1617.3" y="474.8" width="15.400000000000002" height="15.2"
        fill="url(#gAddBar)" rx="2" opacity="0.82"/><rect x="1645.8" y="401.3" width="15.400000000000002" height="87.4"
        fill="url(#gDelBar)" rx="2" opacity="0.78"/><rect x="1645.8" y="488.7" width="15.400000000000002" height="1.3"
        fill="url(#gAddBar)" rx="2" opacity="0.82"/><rect x="1674.3" y="480.5" width="15.400000000000002" height="4.1"
        fill="url(#gDelBar)" rx="2" opacity="0.78"/><rect x="1674.3" y="484.6" width="15.400000000000002" height="5.4"
        fill="url(#gAddBar)" rx="2" opacity="0.82"/>

  <!-- Commits line — glow + crisp -->
  <path d="M 86.00 485.50 C 90.75 486.25, 105.00 489.25, 114.50 490.00 C 124.00 490.00, 133.50 490.00, 143.00 490.00 C 152.50 490.00, 162.00 490.00, 171.50 490.00 C 181.00 490.00, 190.50 490.00, 200.00 490.00 C 209.50 490.00, 219.00 490.00, 228.50 490.00 C 238.00 490.00, 247.50 490.00, 257.00 490.00 C 266.50 482.50, 276.00 445.00, 285.50 445.00 C 295.00 445.00, 304.50 482.50, 314.00 490.00 C 323.50 490.00, 333.00 490.00, 342.50 490.00 C 352.00 470.50, 361.50 373.00, 371.00 373.00 C 380.50 373.00, 390.00 471.25, 399.50 490.00 C 409.00 490.00, 418.50 485.50, 428.00 485.50 C 437.50 485.50, 447.00 490.00, 456.50 490.00 C 466.00 466.75, 475.50 351.25, 485.00 346.00 C 494.50 340.75, 504.00 436.75, 513.50 458.50 C 523.00 480.25, 532.50 472.00, 542.00 476.50 C 551.50 481.00, 561.00 490.00, 570.50 485.50 C 580.00 438.25, 589.50 225.25, 599.00 193.00 C 608.50 160.75, 618.00 244.00, 627.50 292.00 C 637.00 340.00, 646.50 460.00, 656.00 481.00 C 665.50 490.00, 675.00 427.00, 684.50 418.00 C 694.00 409.00, 703.50 416.50, 713.00 427.00 C 722.50 437.50, 732.00 488.50, 741.50 481.00 C 751.00 473.50, 760.50 394.00, 770.00 382.00 C 779.50 370.00, 789.00 391.75, 798.50 409.00 C 808.00 426.25, 817.50 472.75, 827.00 485.50 C 836.50 490.00, 846.00 490.00, 855.50 485.50 C 865.00 479.50, 874.50 449.50, 884.00 449.50 C 893.50 449.50, 903.00 479.50, 912.50 485.50 C 922.00 490.00, 931.50 485.50, 941.00 485.50 C 950.50 485.50, 960.00 485.50, 969.50 485.50 C 979.00 485.50, 988.50 487.75, 998.00 485.50 C 1007.50 483.25, 1017.00 472.00, 1026.50 472.00 C 1036.00 472.00, 1045.50 483.25, 1055.00 485.50 C 1064.50 487.75, 1074.00 485.50, 1083.50 485.50 C 1093.00 485.50, 1102.50 485.50, 1112.00 485.50 C 1121.50 485.50, 1131.00 485.50, 1140.50 485.50 C 1150.00 485.50, 1159.50 485.50, 1169.00 485.50 C 1178.50 485.50, 1188.00 485.50, 1197.50 485.50 C 1207.00 485.50, 1216.50 487.00, 1226.00 485.50 C 1235.50 484.00, 1245.00 476.50, 1254.50 476.50 C 1264.00 476.50, 1273.50 484.00, 1283.00 485.50 C 1292.50 487.00, 1302.00 485.50, 1311.50 485.50 C 1321.00 485.50, 1330.50 485.50, 1340.00 485.50 C 1349.50 485.50, 1359.00 485.50, 1368.50 485.50 C 1378.00 485.50, 1387.50 485.50, 1397.00 485.50 C 1406.50 485.50, 1416.00 485.50, 1425.50 485.50 C 1435.00 485.50, 1444.50 485.50, 1454.00 485.50 C 1463.50 485.50, 1473.00 485.50, 1482.50 485.50 C 1492.00 485.50, 1501.50 485.50, 1511.00 485.50 C 1520.50 485.50, 1530.00 489.25, 1539.50 485.50 C 1549.00 481.75, 1558.50 463.00, 1568.00 463.00 C 1577.50 463.00, 1587.00 490.00, 1596.50 485.50 C 1606.00 460.75, 1615.50 321.25, 1625.00 314.50 C 1634.50 307.75, 1644.00 442.00, 1653.50 445.00 C 1663.00 448.00, 1677.25 351.25, 1682.00 332.50" fill="none" stroke="#ff8c42" stroke-width="9" stroke-opacity="0.06" filter="url(#glowLine)"/>
  <path d="M 86.00 485.50 C 90.75 486.25, 105.00 489.25, 114.50 490.00 C 124.00 490.00, 133.50 490.00, 143.00 490.00 C 152.50 490.00, 162.00 490.00, 171.50 490.00 C 181.00 490.00, 190.50 490.00, 200.00 490.00 C 209.50 490.00, 219.00 490.00, 228.50 490.00 C 238.00 490.00, 247.50 490.00, 257.00 490.00 C 266.50 482.50, 276.00 445.00, 285.50 445.00 C 295.00 445.00, 304.50 482.50, 314.00 490.00 C 323.50 490.00, 333.00 490.00, 342.50 490.00 C 352.00 470.50, 361.50 373.00, 371.00 373.00 C 380.50 373.00, 390.00 471.25, 399.50 490.00 C 409.00 490.00, 418.50 485.50, 428.00 485.50 C 437.50 485.50, 447.00 490.00, 456.50 490.00 C 466.00 466.75, 475.50 351.25, 485.00 346.00 C 494.50 340.75, 504.00 436.75, 513.50 458.50 C 523.00 480.25, 532.50 472.00, 542.00 476.50 C 551.50 481.00, 561.00 490.00, 570.50 485.50 C 580.00 438.25, 589.50 225.25, 599.00 193.00 C 608.50 160.75, 618.00 244.00, 627.50 292.00 C 637.00 340.00, 646.50 460.00, 656.00 481.00 C 665.50 490.00, 675.00 427.00, 684.50 418.00 C 694.00 409.00, 703.50 416.50, 713.00 427.00 C 722.50 437.50, 732.00 488.50, 741.50 481.00 C 751.00 473.50, 760.50 394.00, 770.00 382.00 C 779.50 370.00, 789.00 391.75, 798.50 409.00 C 808.00 426.25, 817.50 472.75, 827.00 485.50 C 836.50 490.00, 846.00 490.00, 855.50 485.50 C 865.00 479.50, 874.50 449.50, 884.00 449.50 C 893.50 449.50, 903.00 479.50, 912.50 485.50 C 922.00 490.00, 931.50 485.50, 941.00 485.50 C 950.50 485.50, 960.00 485.50, 969.50 485.50 C 979.00 485.50, 988.50 487.75, 998.00 485.50 C 1007.50 483.25, 1017.00 472.00, 1026.50 472.00 C 1036.00 472.00, 1045.50 483.25, 1055.00 485.50 C 1064.50 487.75, 1074.00 485.50, 1083.50 485.50 C 1093.00 485.50, 1102.50 485.50, 1112.00 485.50 C 1121.50 485.50, 1131.00 485.50, 1140.50 485.50 C 1150.00 485.50, 1159.50 485.50, 1169.00 485.50 C 1178.50 485.50, 1188.00 485.50, 1197.50 485.50 C 1207.00 485.50, 1216.50 487.00, 1226.00 485.50 C 1235.50 484.00, 1245.00 476.50, 1254.50 476.50 C 1264.00 476.50, 1273.50 484.00, 1283.00 485.50 C 1292.50 487.00, 1302.00 485.50, 1311.50 485.50 C 1321.00 485.50, 1330.50 485.50, 1340.00 485.50 C 1349.50 485.50, 1359.00 485.50, 1368.50 485.50 C 1378.00 485.50, 1387.50 485.50, 1397.00 485.50 C 1406.50 485.50, 1416.00 485.50, 1425.50 485.50 C 1435.00 485.50, 1444.50 485.50, 1454.00 485.50 C 1463.50 485.50, 1473.00 485.50, 1482.50 485.50 C 1492.00 485.50, 1501.50 485.50, 1511.00 485.50 C 1520.50 485.50, 1530.00 489.25, 1539.50 485.50 C 1549.00 481.75, 1558.50 463.00, 1568.00 463.00 C 1577.50 463.00, 1587.00 490.00, 1596.50 485.50 C 1606.00 460.75, 1615.50 321.25, 1625.00 314.50 C 1634.50 307.75, 1644.00 442.00, 1653.50 445.00 C 1663.00 448.00, 1677.25 351.25, 1682.00 332.50" fill="none" stroke="url(#gCommits)" stroke-width="2.8" stroke-linecap="round"/>

  <!-- Changes/commit line -->
  <path d="M 86.00 489.95 C 90.75 489.96, 105.00 489.99, 114.50 490.00 C 124.00 490.00, 133.50 490.00, 143.00 490.00 C 152.50 490.00, 162.00 490.00, 171.50 490.00 C 181.00 490.00, 190.50 490.00, 200.00 490.00 C 209.50 490.00, 219.00 490.00, 228.50 490.00 C 238.00 490.00, 247.50 490.00, 257.00 490.00 C 266.50 489.97, 276.00 489.82, 285.50 489.82 C 295.00 489.82, 304.50 489.97, 314.00 490.00 C 323.50 490.00, 333.00 490.00, 342.50 490.00 C 352.00 489.98, 361.50 489.87, 371.00 489.87 C 380.50 489.87, 390.00 490.00, 399.50 490.00 C 409.00 489.86, 418.50 489.01, 428.00 489.01 C 437.50 489.01, 447.00 490.00, 456.50 490.00 C 466.00 458.10, 475.50 297.74, 485.00 297.63 C 494.50 297.51, 504.00 457.65, 513.50 489.32 C 523.00 490.00, 532.50 487.94, 542.00 487.66 C 551.50 487.38, 561.00 490.00, 570.50 487.66 C 580.00 479.50, 589.50 440.12, 599.00 438.70 C 608.50 437.28, 618.00 472.11, 627.50 479.15 C 637.00 486.20, 646.50 480.05, 656.00 480.95 C 665.50 481.86, 675.00 484.08, 684.50 484.56 C 694.00 485.03, 703.50 483.86, 713.00 483.79 C 722.50 483.72, 732.00 483.70, 741.50 484.15 C 751.00 484.60, 760.50 486.76, 770.00 486.49 C 779.50 486.22, 789.00 482.59, 798.50 482.53 C 808.00 482.47, 817.50 486.48, 827.00 486.13 C 836.50 485.78, 846.00 480.26, 855.50 480.46 C 865.00 480.65, 874.50 486.26, 884.00 487.30 C 893.50 488.34, 903.00 487.88, 912.50 486.67 C 922.00 485.46, 931.50 481.23, 941.00 480.01 C 950.50 478.79, 960.00 479.49, 969.50 479.38 C 979.00 479.27, 988.50 479.64, 998.00 479.38 C 1007.50 479.12, 1017.00 476.63, 1026.50 477.81 C 1036.00 478.98, 1045.50 487.00, 1055.00 486.40 C 1064.50 485.80, 1074.00 475.51, 1083.50 474.20 C 1093.00 472.90, 1102.50 477.86, 1112.00 478.57 C 1121.50 479.28, 1131.00 478.50, 1140.50 478.48 C 1150.00 478.47, 1159.50 478.53, 1169.00 478.48 C 1178.50 478.44, 1188.00 478.31, 1197.50 478.21 C 1207.00 478.10, 1216.50 478.32, 1226.00 477.85 C 1235.50 477.38, 1245.00 473.94, 1254.50 475.38 C 1264.00 476.81, 1273.50 486.17, 1283.00 486.49 C 1292.50 486.81, 1302.00 478.88, 1311.50 477.31 C 1321.00 475.74, 1330.50 477.16, 1340.00 477.04 C 1349.50 476.92, 1359.00 476.71, 1368.50 476.59 C 1378.00 476.47, 1387.50 476.35, 1397.00 476.32 C 1406.50 476.29, 1416.00 476.46, 1425.50 476.41 C 1435.00 476.37, 1444.50 477.12, 1454.00 476.05 C 1463.50 474.98, 1473.00 469.96, 1482.50 469.98 C 1492.00 469.99, 1501.50 477.21, 1511.00 476.14 C 1520.50 475.07, 1530.00 471.21, 1539.50 463.54 C 1549.00 455.88, 1558.50 426.34, 1568.00 430.15 C 1577.50 433.96, 1587.00 479.05, 1596.50 486.40 C 1606.00 490.00, 1615.50 490.00, 1625.00 474.25 C 1634.50 423.52, 1644.00 180.97, 1653.50 182.02 C 1663.00 183.07, 1677.25 430.80, 1682.00 480.55" fill="none" stroke="#00d4f5" stroke-width="9" stroke-opacity="0.06" filter="url(#glowLine)"/>
  <path d="M 86.00 489.95 C 90.75 489.96, 105.00 489.99, 114.50 490.00 C 124.00 490.00, 133.50 490.00, 143.00 490.00 C 152.50 490.00, 162.00 490.00, 171.50 490.00 C 181.00 490.00, 190.50 490.00, 200.00 490.00 C 209.50 490.00, 219.00 490.00, 228.50 490.00 C 238.00 490.00, 247.50 490.00, 257.00 490.00 C 266.50 489.97, 276.00 489.82, 285.50 489.82 C 295.00 489.82, 304.50 489.97, 314.00 490.00 C 323.50 490.00, 333.00 490.00, 342.50 490.00 C 352.00 489.98, 361.50 489.87, 371.00 489.87 C 380.50 489.87, 390.00 490.00, 399.50 490.00 C 409.00 489.86, 418.50 489.01, 428.00 489.01 C 437.50 489.01, 447.00 490.00, 456.50 490.00 C 466.00 458.10, 475.50 297.74, 485.00 297.63 C 494.50 297.51, 504.00 457.65, 513.50 489.32 C 523.00 490.00, 532.50 487.94, 542.00 487.66 C 551.50 487.38, 561.00 490.00, 570.50 487.66 C 580.00 479.50, 589.50 440.12, 599.00 438.70 C 608.50 437.28, 618.00 472.11, 627.50 479.15 C 637.00 486.20, 646.50 480.05, 656.00 480.95 C 665.50 481.86, 675.00 484.08, 684.50 484.56 C 694.00 485.03, 703.50 483.86, 713.00 483.79 C 722.50 483.72, 732.00 483.70, 741.50 484.15 C 751.00 484.60, 760.50 486.76, 770.00 486.49 C 779.50 486.22, 789.00 482.59, 798.50 482.53 C 808.00 482.47, 817.50 486.48, 827.00 486.13 C 836.50 485.78, 846.00 480.26, 855.50 480.46 C 865.00 480.65, 874.50 486.26, 884.00 487.30 C 893.50 488.34, 903.00 487.88, 912.50 486.67 C 922.00 485.46, 931.50 481.23, 941.00 480.01 C 950.50 478.79, 960.00 479.49, 969.50 479.38 C 979.00 479.27, 988.50 479.64, 998.00 479.38 C 1007.50 479.12, 1017.00 476.63, 1026.50 477.81 C 1036.00 478.98, 1045.50 487.00, 1055.00 486.40 C 1064.50 485.80, 1074.00 475.51, 1083.50 474.20 C 1093.00 472.90, 1102.50 477.86, 1112.00 478.57 C 1121.50 479.28, 1131.00 478.50, 1140.50 478.48 C 1150.00 478.47, 1159.50 478.53, 1169.00 478.48 C 1178.50 478.44, 1188.00 478.31, 1197.50 478.21 C 1207.00 478.10, 1216.50 478.32, 1226.00 477.85 C 1235.50 477.38, 1245.00 473.94, 1254.50 475.38 C 1264.00 476.81, 1273.50 486.17, 1283.00 486.49 C 1292.50 486.81, 1302.00 478.88, 1311.50 477.31 C 1321.00 475.74, 1330.50 477.16, 1340.00 477.04 C 1349.50 476.92, 1359.00 476.71, 1368.50 476.59 C 1378.00 476.47, 1387.50 476.35, 1397.00 476.32 C 1406.50 476.29, 1416.00 476.46, 1425.50 476.41 C 1435.00 476.37, 1444.50 477.12, 1454.00 476.05 C 1463.50 474.98, 1473.00 469.96, 1482.50 469.98 C 1492.00 469.99, 1501.50 477.21, 1511.00 476.14 C 1520.50 475.07, 1530.00 471.21, 1539.50 463.54 C 1549.00 455.88, 1558.50 426.34, 1568.00 430.15 C 1577.50 433.96, 1587.00 479.05, 1596.50 486.40 C 1606.00 490.00, 1615.50 490.00, 1625.00 474.25 C 1634.50 423.52, 1644.00 180.97, 1653.50 182.02 C 1663.00 183.07, 1677.25 430.80, 1682.00 480.55" fill="none" stroke="url(#gChanges)" stroke-width="2.5" stroke-linecap="round"/>

  <!-- Moving averages -->
  <path d="M 86.00 488.88 C 90.75 488.91, 105.00 489.04, 114.50 489.10 C 124.00 489.16, 133.50 489.21, 143.00 489.25 C 152.50 489.29, 162.00 490.00, 171.50 489.36 C 181.00 488.41, 190.50 484.54, 200.00 483.57 C 209.50 482.61, 219.00 483.57, 228.50 483.57 C 238.00 483.57, 247.50 486.36, 257.00 483.57 C 266.50 480.79, 276.00 469.64, 285.50 466.86 C 295.00 464.07, 304.50 466.96, 314.00 466.86 C 323.50 466.75, 333.00 466.32, 342.50 466.21 C 352.00 466.11, 361.50 468.57, 371.00 466.21 C 380.50 463.86, 390.00 455.18, 399.50 452.07 C 409.00 448.96, 418.50 448.64, 428.00 447.57 C 437.50 446.50, 447.00 443.29, 456.50 445.64 C 466.00 448.00, 475.50 466.11, 485.00 461.71 C 494.50 457.32, 504.00 430.96, 513.50 419.29 C 523.00 407.61, 532.50 396.46, 542.00 391.64 C 551.50 386.82, 561.00 388.86, 570.50 390.36 C 580.00 391.86, 589.50 399.68, 599.00 400.64 C 608.50 401.61, 618.00 396.79, 627.50 396.14 C 637.00 395.50, 646.50 399.14, 656.00 396.79 C 665.50 394.43, 675.00 379.32, 684.50 382.00 C 694.00 384.68, 703.50 403.11, 713.00 412.86 C 722.50 422.61, 732.00 435.79, 741.50 440.50 C 751.00 445.21, 760.50 440.29, 770.00 441.14 C 779.50 442.00, 789.00 443.50, 798.50 445.64 C 808.00 447.79, 817.50 452.50, 827.00 454.00 C 836.50 455.50, 846.00 452.07, 855.50 454.64 C 865.00 457.21, 874.50 465.14, 884.00 469.43 C 893.50 473.71, 903.00 478.86, 912.50 480.36 C 922.00 481.86, 931.50 478.75, 941.00 478.43 C 950.50 478.11, 960.00 477.57, 969.50 478.43 C 979.00 479.29, 988.50 482.71, 998.00 483.57 C 1007.50 484.43, 1017.00 483.57, 1026.50 483.57 C 1036.00 483.57, 1045.50 483.57, 1055.00 483.57 C 1064.50 483.57, 1074.00 483.57, 1083.50 483.57 C 1093.00 483.57, 1102.50 483.25, 1112.00 483.57 C 1121.50 483.89, 1131.00 485.39, 1140.50 485.50 C 1150.00 485.61, 1159.50 484.43, 1169.00 484.21 C 1178.50 484.00, 1188.00 484.21, 1197.50 484.21 C 1207.00 484.21, 1216.50 484.21, 1226.00 484.21 C 1235.50 484.21, 1245.00 484.21, 1254.50 484.21 C 1264.00 484.21, 1273.50 484.21, 1283.00 484.21 C 1292.50 484.21, 1302.00 484.21, 1311.50 484.21 C 1321.00 484.21, 1330.50 484.00, 1340.00 484.21 C 1349.50 484.43, 1359.00 485.29, 1368.50 485.50 C 1378.00 485.71, 1387.50 485.50, 1397.00 485.50 C 1406.50 485.50, 1416.00 485.50, 1425.50 485.50 C 1435.00 485.50, 1444.50 486.04, 1454.00 485.50 C 1463.50 484.96, 1473.00 482.82, 1482.50 482.29 C 1492.00 481.75, 1501.50 486.36, 1511.00 482.29 C 1520.50 478.21, 1530.00 462.89, 1539.50 457.86 C 1549.00 452.82, 1558.50 456.68, 1568.00 452.07 C 1577.50 447.46, 1587.00 435.39, 1596.50 430.21 C 1606.00 425.04, 1615.50 424.69, 1625.00 421.00 C 1634.50 417.31, 1644.00 412.54, 1653.50 408.10 C 1663.00 403.66, 1677.25 396.66, 1682.00 394.38" fill="none" stroke="#a78bfa" stroke-width="2" stroke-dasharray="6,4" stroke-opacity="0.55" filter="url(#glowMA)"/>
  <path d="M 86.00 489.99 C 90.75 489.99, 105.00 489.99, 114.50 489.99 C 124.00 489.99, 133.50 489.99, 143.00 489.99 C 152.50 489.99, 162.00 490.00, 171.50 489.99 C 181.00 489.99, 190.50 489.98, 200.00 489.97 C 209.50 489.97, 219.00 489.97, 228.50 489.97 C 238.00 489.97, 247.50 489.98, 257.00 489.97 C 266.50 489.97, 276.00 489.96, 285.50 489.95 C 295.00 489.95, 304.50 489.98, 314.00 489.95 C 323.50 489.93, 333.00 489.84, 342.50 489.81 C 352.00 489.79, 361.50 490.00, 371.00 489.81 C 380.50 485.24, 390.00 466.95, 399.50 462.36 C 409.00 457.76, 418.50 462.33, 428.00 462.26 C 437.50 462.19, 447.00 462.03, 456.50 461.93 C 466.00 461.82, 475.50 462.89, 485.00 461.61 C 494.50 460.34, 504.00 455.74, 513.50 454.28 C 523.00 452.83, 532.50 453.32, 542.00 452.88 C 551.50 452.43, 561.00 447.35, 570.50 451.58 C 580.00 455.82, 589.50 473.97, 599.00 478.29 C 608.50 482.61, 618.00 477.71, 627.50 477.50 C 637.00 477.28, 646.50 477.11, 656.00 477.00 C 665.50 476.88, 675.00 475.81, 684.50 476.83 C 694.00 477.84, 703.50 481.88, 713.00 483.09 C 722.50 484.30, 732.00 483.93, 741.50 484.09 C 751.00 484.24, 760.50 483.96, 770.00 484.01 C 779.50 484.07, 789.00 484.27, 798.50 484.41 C 808.00 484.54, 817.50 484.85, 827.00 484.82 C 836.50 484.79, 846.00 484.50, 855.50 484.23 C 865.00 483.96, 874.50 483.46, 884.00 483.21 C 893.50 482.97, 903.00 483.03, 912.50 482.76 C 922.00 482.49, 931.50 481.63, 941.00 481.57 C 950.50 481.52, 960.00 482.59, 969.50 482.42 C 979.00 482.25, 988.50 481.05, 998.00 480.55 C 1007.50 480.05, 1017.00 479.62, 1026.50 479.39 C 1036.00 479.16, 1045.50 479.23, 1055.00 479.17 C 1064.50 479.12, 1074.00 479.09, 1083.50 479.05 C 1093.00 479.00, 1102.50 478.91, 1112.00 478.88 C 1121.50 478.85, 1131.00 479.15, 1140.50 478.88 C 1150.00 478.62, 1159.50 477.28, 1169.00 477.31 C 1178.50 477.34, 1188.00 478.80, 1197.50 479.06 C 1207.00 479.33, 1216.50 478.95, 1226.00 478.88 C 1235.50 478.82, 1245.00 478.76, 1254.50 478.68 C 1264.00 478.60, 1273.50 478.50, 1283.00 478.41 C 1292.50 478.32, 1302.00 478.22, 1311.50 478.14 C 1321.00 478.06, 1330.50 477.95, 1340.00 477.93 C 1349.50 477.92, 1359.00 478.41, 1368.50 478.03 C 1378.00 477.65, 1387.50 476.09, 1397.00 475.67 C 1406.50 475.25, 1416.00 475.85, 1425.50 475.50 C 1435.00 475.15, 1444.50 475.00, 1454.00 473.57 C 1463.50 472.15, 1473.00 467.81, 1482.50 466.94 C 1492.00 466.08, 1501.50 468.19, 1511.00 468.38 C 1520.50 468.57, 1530.00 475.12, 1539.50 468.07 C 1549.00 461.02, 1558.50 432.82, 1568.00 426.07 C 1577.50 419.32, 1587.00 428.68, 1596.50 427.58 C 1606.00 426.48, 1615.50 422.30, 1625.00 419.49 C 1634.50 416.67, 1644.00 412.95, 1653.50 410.67 C 1663.00 408.39, 1677.25 406.62, 1682.00 405.81" fill="none" stroke="#c4b5fd" stroke-width="1.5" stroke-dasharray="5,4" stroke-opacity="0.4"/>

  <!-- Statistical overlay -->
  <line x1="86" y1="452.0" x2="1682" y2="452.0"
      stroke="#ff8c42" stroke-width="1" stroke-dasharray="8,4" opacity="0.3"/>
    <text x="1694" y="446.0" font-size="8" fill="#ff8c42"
      text-anchor="start" font-family="'Lexend','Segoe UI',sans-serif" font-weight="300" opacity="0.6">μ=8.4</text>

  <!-- Data point circles (inside clip for safety) -->
  <circle cx="86.0" cy="485.5" r="3.0"
        fill="#ff8c42" stroke="#ffd0a0" stroke-width="1" filter="url(#glowOrange)" opacity="0.9">
        <title>2026-03-10: 1 commits</title></circle><circle cx="285.5" cy="445.0" r="3.3"
        fill="#ff8c42" stroke="#ffd0a0" stroke-width="1" filter="url(#glowOrange)" opacity="0.9">
        <title>2026-03-17: 10 commits</title></circle><circle cx="371.0" cy="373.0" r="3.8"
        fill="#ff8c42" stroke="#ffd0a0" stroke-width="1" filter="url(#glowOrange)" opacity="0.9">
        <title>2026-03-20: 26 commits</title></circle><circle cx="428.0" cy="485.5" r="3.0"
        fill="#ff8c42" stroke="#ffd0a0" stroke-width="1" filter="url(#glowOrange)" opacity="0.9">
        <title>2026-03-22: 1 commits</title></circle><circle cx="485.0" cy="346.0" r="4.0"
        fill="#ff8c42" stroke="#ffd0a0" stroke-width="1" filter="url(#glowOrange)" opacity="0.9">
        <title>2026-03-24: 32 commits</title></circle><circle cx="513.5" cy="458.5" r="3.2"
        fill="#ff8c42" stroke="#ffd0a0" stroke-width="1" filter="url(#glowOrange)" opacity="0.9">
        <title>2026-03-25: 7 commits</title></circle><circle cx="542.0" cy="476.5" r="3.1"
        fill="#ff8c42" stroke="#ffd0a0" stroke-width="1" filter="url(#glowOrange)" opacity="0.9">
        <title>2026-03-26: 3 commits</title></circle><circle cx="570.5" cy="485.5" r="3.0"
        fill="#ff8c42" stroke="#ffd0a0" stroke-width="1" filter="url(#glowOrange)" opacity="0.9">
        <title>2026-03-27: 1 commits</title></circle><circle cx="599.0" cy="193.0" r="5.1"
        fill="#ff8c42" stroke="#ffd0a0" stroke-width="1" filter="url(#glowOrange)" opacity="0.9">
        <title>2026-03-28: 66 commits</title></circle><circle cx="627.5" cy="292.0" r="4.4"
        fill="#ff8c42" stroke="#ffd0a0" stroke-width="1" filter="url(#glowOrange)" opacity="0.9">
        <title>2026-03-29: 44 commits</title></circle><circle cx="656.0" cy="481.0" r="3.1"
        fill="#ff8c42" stroke="#ffd0a0" stroke-width="1" filter="url(#glowOrange)" opacity="0.9">
        <title>2026-03-30: 2 commits</title></circle><circle cx="684.5" cy="418.0" r="3.5"
        fill="#ff8c42" stroke="#ffd0a0" stroke-width="1" filter="url(#glowOrange)" opacity="0.9">
        <title>2026-03-31: 16 commits</title></circle><circle cx="713.0" cy="427.0" r="3.4"
        fill="#ff8c42" stroke="#ffd0a0" stroke-width="1" filter="url(#glowOrange)" opacity="0.9">
        <title>2026-04-01: 14 commits</title></circle><circle cx="741.5" cy="481.0" r="3.1"
        fill="#ff8c42" stroke="#ffd0a0" stroke-width="1" filter="url(#glowOrange)" opacity="0.9">
        <title>2026-04-02: 2 commits</title></circle><circle cx="770.0" cy="382.0" r="3.8"
        fill="#ff8c42" stroke="#ffd0a0" stroke-width="1" filter="url(#glowOrange)" opacity="0.9">
        <title>2026-04-03: 24 commits</title></circle><circle cx="798.5" cy="409.0" r="3.6"
        fill="#ff8c42" stroke="#ffd0a0" stroke-width="1" filter="url(#glowOrange)" opacity="0.9">
        <title>2026-04-04: 18 commits</title></circle><circle cx="827.0" cy="485.5" r="3.0"
        fill="#ff8c42" stroke="#ffd0a0" stroke-width="1" filter="url(#glowOrange)" opacity="0.9">
        <title>2026-04-05: 1 commits</title></circle><circle cx="855.5" cy="485.5" r="3.0"
        fill="#ff8c42" stroke="#ffd0a0" stroke-width="1" filter="url(#glowOrange)" opacity="0.9">
        <title>2026-04-06: 1 commits</title></circle><circle cx="884.0" cy="449.5" r="3.3"
        fill="#ff8c42" stroke="#ffd0a0" stroke-width="1" filter="url(#glowOrange)" opacity="0.9">
        <title>2026-04-07: 9 commits</title></circle><circle cx="912.5" cy="485.5" r="3.0"
        fill="#ff8c42" stroke="#ffd0a0" stroke-width="1" filter="url(#glowOrange)" opacity="0.9">
        <title>2026-04-08: 1 commits</title></circle><circle cx="941.0" cy="485.5" r="3.0"
        fill="#ff8c42" stroke="#ffd0a0" stroke-width="1" filter="url(#glowOrange)" opacity="0.9">
        <title>2026-04-09: 1 commits</title></circle><circle cx="969.5" cy="485.5" r="3.0"
        fill="#ff8c42" stroke="#ffd0a0" stroke-width="1" filter="url(#glowOrange)" opacity="0.9">
        <title>2026-04-10: 1 commits</title></circle><circle cx="998.0" cy="485.5" r="3.0"
        fill="#ff8c42" stroke="#ffd0a0" stroke-width="1" filter="url(#glowOrange)" opacity="0.9">
        <title>2026-04-11: 1 commits</title></circle><circle cx="1026.5" cy="472.0" r="3.1"
        fill="#ff8c42" stroke="#ffd0a0" stroke-width="1" filter="url(#glowOrange)" opacity="0.9">
        <title>2026-04-12: 4 commits</title></circle><circle cx="1055.0" cy="485.5" r="3.0"
        fill="#ff8c42" stroke="#ffd0a0" stroke-width="1" filter="url(#glowOrange)" opacity="0.9">
        <title>2026-04-13: 1 commits</title></circle><circle cx="1083.5" cy="485.5" r="3.0"
        fill="#ff8c42" stroke="#ffd0a0" stroke-width="1" filter="url(#glowOrange)" opacity="0.9">
        <title>2026-04-14: 1 commits</title></circle><circle cx="1112.0" cy="485.5" r="3.0"
        fill="#ff8c42" stroke="#ffd0a0" stroke-width="1" filter="url(#glowOrange)" opacity="0.9">
        <title>2026-04-15: 1 commits</title></circle><circle cx="1140.5" cy="485.5" r="3.0"
        fill="#ff8c42" stroke="#ffd0a0" stroke-width="1" filter="url(#glowOrange)" opacity="0.9">
        <title>2026-04-16: 1 commits</title></circle><circle cx="1169.0" cy="485.5" r="3.0"
        fill="#ff8c42" stroke="#ffd0a0" stroke-width="1" filter="url(#glowOrange)" opacity="0.9">
        <title>2026-04-17: 1 commits</title></circle><circle cx="1197.5" cy="485.5" r="3.0"
        fill="#ff8c42" stroke="#ffd0a0" stroke-width="1" filter="url(#glowOrange)" opacity="0.9">
        <title>2026-04-18: 1 commits</title></circle><circle cx="1226.0" cy="485.5" r="3.0"
        fill="#ff8c42" stroke="#ffd0a0" stroke-width="1" filter="url(#glowOrange)" opacity="0.9">
        <title>2026-04-19: 1 commits</title></circle><circle cx="1254.5" cy="476.5" r="3.1"
        fill="#ff8c42" stroke="#ffd0a0" stroke-width="1" filter="url(#glowOrange)" opacity="0.9">
        <title>2026-04-20: 3 commits</title></circle><circle cx="1283.0" cy="485.5" r="3.0"
        fill="#ff8c42" stroke="#ffd0a0" stroke-width="1" filter="url(#glowOrange)" opacity="0.9">
        <title>2026-04-21: 1 commits</title></circle><circle cx="1311.5" cy="485.5" r="3.0"
        fill="#ff8c42" stroke="#ffd0a0" stroke-width="1" filter="url(#glowOrange)" opacity="0.9">
        <title>2026-04-22: 1 commits</title></circle><circle cx="1340.0" cy="485.5" r="3.0"
        fill="#ff8c42" stroke="#ffd0a0" stroke-width="1" filter="url(#glowOrange)" opacity="0.9">
        <title>2026-04-23: 1 commits</title></circle><circle cx="1368.5" cy="485.5" r="3.0"
        fill="#ff8c42" stroke="#ffd0a0" stroke-width="1" filter="url(#glowOrange)" opacity="0.9">
        <title>2026-04-24: 1 commits</title></circle><circle cx="1397.0" cy="485.5" r="3.0"
        fill="#ff8c42" stroke="#ffd0a0" stroke-width="1" filter="url(#glowOrange)" opacity="0.9">
        <title>2026-04-25: 1 commits</title></circle><circle cx="1425.5" cy="485.5" r="3.0"
        fill="#ff8c42" stroke="#ffd0a0" stroke-width="1" filter="url(#glowOrange)" opacity="0.9">
        <title>2026-04-26: 1 commits</title></circle><circle cx="1454.0" cy="485.5" r="3.0"
        fill="#ff8c42" stroke="#ffd0a0" stroke-width="1" filter="url(#glowOrange)" opacity="0.9">
        <title>2026-04-27: 1 commits</title></circle><circle cx="1482.5" cy="485.5" r="3.0"
        fill="#ff8c42" stroke="#ffd0a0" stroke-width="1" filter="url(#glowOrange)" opacity="0.9">
        <title>2026-04-28: 1 commits</title></circle><circle cx="1511.0" cy="485.5" r="3.0"
        fill="#ff8c42" stroke="#ffd0a0" stroke-width="1" filter="url(#glowOrange)" opacity="0.9">
        <title>2026-04-29: 1 commits</title></circle><circle cx="1539.5" cy="485.5" r="3.0"
        fill="#ff8c42" stroke="#ffd0a0" stroke-width="1" filter="url(#glowOrange)" opacity="0.9">
        <title>2026-04-30: 1 commits</title></circle><circle cx="1568.0" cy="463.0" r="3.2"
        fill="#ff8c42" stroke="#ffd0a0" stroke-width="1" filter="url(#glowOrange)" opacity="0.9">
        <title>2026-05-01: 6 commits</title></circle><circle cx="1596.5" cy="485.5" r="3.0"
        fill="#ff8c42" stroke="#ffd0a0" stroke-width="1" filter="url(#glowOrange)" opacity="0.9">
        <title>2026-05-02: 1 commits</title></circle><circle cx="1625.0" cy="314.5" r="4.2"
        fill="#ff8c42" stroke="#ffd0a0" stroke-width="1" filter="url(#glowOrange)" opacity="0.9">
        <title>2026-05-03: 39 commits</title></circle><circle cx="1653.5" cy="445.0" r="3.3"
        fill="#ff8c42" stroke="#ffd0a0" stroke-width="1" filter="url(#glowOrange)" opacity="0.9">
        <title>2026-05-04: 10 commits</title></circle><circle cx="1682.0" cy="332.5" r="4.1"
        fill="#ff8c42" stroke="#ffd0a0" stroke-width="1" filter="url(#glowOrange)" opacity="0.9">
        <title>2026-05-05: 35 commits</title></circle>
  <circle cx="86.0" cy="490.0" r="3.5"
        fill="#00d4f5" stroke="#80eeff" stroke-width="0.8" filter="url(#glowCyan)" opacity="0.85">
        <title>2026-03-10: 1 changes/commit</title></circle><circle cx="285.5" cy="489.8" r="3.5"
        fill="#00d4f5" stroke="#80eeff" stroke-width="0.8" filter="url(#glowCyan)" opacity="0.85">
        <title>2026-03-17: 4 changes/commit</title></circle><circle cx="371.0" cy="489.9" r="3.5"
        fill="#00d4f5" stroke="#80eeff" stroke-width="0.8" filter="url(#glowCyan)" opacity="0.85">
        <title>2026-03-20: 3 changes/commit</title></circle><circle cx="428.0" cy="489.0" r="3.5"
        fill="#00d4f5" stroke="#80eeff" stroke-width="0.8" filter="url(#glowCyan)" opacity="0.85">
        <title>2026-03-22: 22 changes/commit</title></circle><circle cx="485.0" cy="297.6" r="3.5"
        fill="#00d4f5" stroke="#80eeff" stroke-width="0.8" filter="url(#glowCyan)" opacity="0.85">
        <title>2026-03-24: 4275 changes/commit</title></circle><circle cx="513.5" cy="489.3" r="3.5"
        fill="#00d4f5" stroke="#80eeff" stroke-width="0.8" filter="url(#glowCyan)" opacity="0.85">
        <title>2026-03-25: 15 changes/commit</title></circle><circle cx="542.0" cy="487.7" r="3.5"
        fill="#00d4f5" stroke="#80eeff" stroke-width="0.8" filter="url(#glowCyan)" opacity="0.85">
        <title>2026-03-26: 52 changes/commit</title></circle><circle cx="570.5" cy="487.7" r="3.5"
        fill="#00d4f5" stroke="#80eeff" stroke-width="0.8" filter="url(#glowCyan)" opacity="0.85">
        <title>2026-03-27: 52 changes/commit</title></circle><circle cx="599.0" cy="438.7" r="3.5"
        fill="#00d4f5" stroke="#80eeff" stroke-width="0.8" filter="url(#glowCyan)" opacity="0.85">
        <title>2026-03-28: 1140 changes/commit</title></circle><circle cx="627.5" cy="479.2" r="3.5"
        fill="#00d4f5" stroke="#80eeff" stroke-width="0.8" filter="url(#glowCyan)" opacity="0.85">
        <title>2026-03-29: 241 changes/commit</title></circle><circle cx="656.0" cy="481.0" r="3.5"
        fill="#00d4f5" stroke="#80eeff" stroke-width="0.8" filter="url(#glowCyan)" opacity="0.85">
        <title>2026-03-30: 201 changes/commit</title></circle><circle cx="684.5" cy="484.6" r="3.5"
        fill="#00d4f5" stroke="#80eeff" stroke-width="0.8" filter="url(#glowCyan)" opacity="0.85">
        <title>2026-03-31: 121 changes/commit</title></circle><circle cx="713.0" cy="483.8" r="3.5"
        fill="#00d4f5" stroke="#80eeff" stroke-width="0.8" filter="url(#glowCyan)" opacity="0.85">
        <title>2026-04-01: 138 changes/commit</title></circle><circle cx="741.5" cy="484.1" r="3.5"
        fill="#00d4f5" stroke="#80eeff" stroke-width="0.8" filter="url(#glowCyan)" opacity="0.85">
        <title>2026-04-02: 130 changes/commit</title></circle><circle cx="770.0" cy="486.5" r="3.5"
        fill="#00d4f5" stroke="#80eeff" stroke-width="0.8" filter="url(#glowCyan)" opacity="0.85">
        <title>2026-04-03: 78 changes/commit</title></circle><circle cx="798.5" cy="482.5" r="3.5"
        fill="#00d4f5" stroke="#80eeff" stroke-width="0.8" filter="url(#glowCyan)" opacity="0.85">
        <title>2026-04-04: 166 changes/commit</title></circle><circle cx="827.0" cy="486.1" r="3.5"
        fill="#00d4f5" stroke="#80eeff" stroke-width="0.8" filter="url(#glowCyan)" opacity="0.85">
        <title>2026-04-05: 86 changes/commit</title></circle><circle cx="855.5" cy="480.5" r="3.5"
        fill="#00d4f5" stroke="#80eeff" stroke-width="0.8" filter="url(#glowCyan)" opacity="0.85">
        <title>2026-04-06: 212 changes/commit</title></circle><circle cx="884.0" cy="487.3" r="3.5"
        fill="#00d4f5" stroke="#80eeff" stroke-width="0.8" filter="url(#glowCyan)" opacity="0.85">
        <title>2026-04-07: 60 changes/commit</title></circle><circle cx="912.5" cy="486.7" r="3.5"
        fill="#00d4f5" stroke="#80eeff" stroke-width="0.8" filter="url(#glowCyan)" opacity="0.85">
        <title>2026-04-08: 74 changes/commit</title></circle><circle cx="941.0" cy="480.0" r="3.5"
        fill="#00d4f5" stroke="#80eeff" stroke-width="0.8" filter="url(#glowCyan)" opacity="0.85">
        <title>2026-04-09: 222 changes/commit</title></circle><circle cx="969.5" cy="479.4" r="3.5"
        fill="#00d4f5" stroke="#80eeff" stroke-width="0.8" filter="url(#glowCyan)" opacity="0.85">
        <title>2026-04-10: 236 changes/commit</title></circle><circle cx="998.0" cy="479.4" r="3.5"
        fill="#00d4f5" stroke="#80eeff" stroke-width="0.8" filter="url(#glowCyan)" opacity="0.85">
        <title>2026-04-11: 236 changes/commit</title></circle><circle cx="1026.5" cy="477.8" r="3.5"
        fill="#00d4f5" stroke="#80eeff" stroke-width="0.8" filter="url(#glowCyan)" opacity="0.85">
        <title>2026-04-12: 271 changes/commit</title></circle><circle cx="1055.0" cy="486.4" r="3.5"
        fill="#00d4f5" stroke="#80eeff" stroke-width="0.8" filter="url(#glowCyan)" opacity="0.85">
        <title>2026-04-13: 80 changes/commit</title></circle><circle cx="1083.5" cy="474.2" r="3.5"
        fill="#00d4f5" stroke="#80eeff" stroke-width="0.8" filter="url(#glowCyan)" opacity="0.85">
        <title>2026-04-14: 351 changes/commit</title></circle><circle cx="1112.0" cy="478.6" r="3.5"
        fill="#00d4f5" stroke="#80eeff" stroke-width="0.8" filter="url(#glowCyan)" opacity="0.85">
        <title>2026-04-15: 254 changes/commit</title></circle><circle cx="1140.5" cy="478.5" r="3.5"
        fill="#00d4f5" stroke="#80eeff" stroke-width="0.8" filter="url(#glowCyan)" opacity="0.85">
        <title>2026-04-16: 256 changes/commit</title></circle><circle cx="1169.0" cy="478.5" r="3.5"
        fill="#00d4f5" stroke="#80eeff" stroke-width="0.8" filter="url(#glowCyan)" opacity="0.85">
        <title>2026-04-17: 256 changes/commit</title></circle><circle cx="1197.5" cy="478.2" r="3.5"
        fill="#00d4f5" stroke="#80eeff" stroke-width="0.8" filter="url(#glowCyan)" opacity="0.85">
        <title>2026-04-18: 262 changes/commit</title></circle><circle cx="1226.0" cy="477.9" r="3.5"
        fill="#00d4f5" stroke="#80eeff" stroke-width="0.8" filter="url(#glowCyan)" opacity="0.85">
        <title>2026-04-19: 270 changes/commit</title></circle><circle cx="1254.5" cy="475.4" r="3.5"
        fill="#00d4f5" stroke="#80eeff" stroke-width="0.8" filter="url(#glowCyan)" opacity="0.85">
        <title>2026-04-20: 325 changes/commit</title></circle><circle cx="1283.0" cy="486.5" r="3.5"
        fill="#00d4f5" stroke="#80eeff" stroke-width="0.8" filter="url(#glowCyan)" opacity="0.85">
        <title>2026-04-21: 78 changes/commit</title></circle><circle cx="1311.5" cy="477.3" r="3.5"
        fill="#00d4f5" stroke="#80eeff" stroke-width="0.8" filter="url(#glowCyan)" opacity="0.85">
        <title>2026-04-22: 282 changes/commit</title></circle><circle cx="1340.0" cy="477.0" r="3.5"
        fill="#00d4f5" stroke="#80eeff" stroke-width="0.8" filter="url(#glowCyan)" opacity="0.85">
        <title>2026-04-23: 288 changes/commit</title></circle><circle cx="1368.5" cy="476.6" r="3.5"
        fill="#00d4f5" stroke="#80eeff" stroke-width="0.8" filter="url(#glowCyan)" opacity="0.85">
        <title>2026-04-24: 298 changes/commit</title></circle><circle cx="1397.0" cy="476.3" r="3.5"
        fill="#00d4f5" stroke="#80eeff" stroke-width="0.8" filter="url(#glowCyan)" opacity="0.85">
        <title>2026-04-25: 304 changes/commit</title></circle><circle cx="1425.5" cy="476.4" r="3.5"
        fill="#00d4f5" stroke="#80eeff" stroke-width="0.8" filter="url(#glowCyan)" opacity="0.85">
        <title>2026-04-26: 302 changes/commit</title></circle><circle cx="1454.0" cy="476.1" r="3.5"
        fill="#00d4f5" stroke="#80eeff" stroke-width="0.8" filter="url(#glowCyan)" opacity="0.85">
        <title>2026-04-27: 310 changes/commit</title></circle><circle cx="1482.5" cy="470.0" r="3.5"
        fill="#00d4f5" stroke="#80eeff" stroke-width="0.8" filter="url(#glowCyan)" opacity="0.85">
        <title>2026-04-28: 445 changes/commit</title></circle><circle cx="1511.0" cy="476.1" r="3.5"
        fill="#00d4f5" stroke="#80eeff" stroke-width="0.8" filter="url(#glowCyan)" opacity="0.85">
        <title>2026-04-29: 308 changes/commit</title></circle><circle cx="1539.5" cy="463.5" r="3.5"
        fill="#00d4f5" stroke="#80eeff" stroke-width="0.8" filter="url(#glowCyan)" opacity="0.85">
        <title>2026-04-30: 588 changes/commit</title></circle><circle cx="1568.0" cy="430.1" r="3.5"
        fill="#00d4f5" stroke="#80eeff" stroke-width="0.8" filter="url(#glowCyan)" opacity="0.85">
        <title>2026-05-01: 1330 changes/commit</title></circle><circle cx="1596.5" cy="486.4" r="3.5"
        fill="#00d4f5" stroke="#80eeff" stroke-width="0.8" filter="url(#glowCyan)" opacity="0.85">
        <title>2026-05-02: 80 changes/commit</title></circle><circle cx="1625.0" cy="474.3" r="3.5"
        fill="#00d4f5" stroke="#80eeff" stroke-width="0.8" filter="url(#glowCyan)" opacity="0.85">
        <title>2026-05-03: 350 changes/commit</title></circle><circle cx="1653.5" cy="182.0" r="3.5"
        fill="#00d4f5" stroke="#80eeff" stroke-width="0.8" filter="url(#glowCyan)" opacity="0.85">
        <title>2026-05-04: 6844 changes/commit</title></circle><circle cx="1682.0" cy="480.6" r="3.5"
        fill="#00d4f5" stroke="#80eeff" stroke-width="0.8" filter="url(#glowCyan)" opacity="0.85">
        <title>2026-05-05: 210 changes/commit</title></circle>
</g>

<!-- ════ ANNOTATIONS ════ -->

        <line x1="599.0" y1="181.0"
          x2="599.0" y2="172.0"
          stroke="#2563eb" stroke-width="1.2" stroke-dasharray="4,4" opacity="0.65"/>
        <rect x="534.0" y="148.0"
          width="130" height="24" rx="6"
          fill="#030e26" stroke="#2563eb" stroke-width="1" opacity="0.96"/>
        <text x="599.0" y="164.0"
          font-size="10" fill="#93c5fd" text-anchor="middle"
          font-family="'Lexend','Segoe UI',sans-serif" font-weight="400"
          letter-spacing="0.5">⬡  Peak · 66 commits</text>
        <line x1="485.0" y1="494" x2="1682.0" y2="494"
          stroke="#f472b6" stroke-width="2.5" stroke-linecap="round" opacity="0.7"/>
        <circle cx="485.0" cy="494" r="3" fill="#f472b6" opacity="0.9"/>
        <circle cx="1682.0" cy="494" r="3" fill="#f472b6" opacity="0.9"/>
        <text x="1083.5" y="508" font-size="8.5" fill="#f472b6"
          text-anchor="middle" font-family="'Lexend','Segoe UI',sans-serif"
          font-weight="400" opacity="0.85">🔥 43-day streak</text>
        <line x1="485.0" y1="130" x2="485.0" y2="490"
          stroke="#f472b6" stroke-width="0.8" stroke-dasharray="3,6" opacity="0.35"/>

<!-- ════ CORNER BRACKETS ════ -->
<path d="M 86 152.0 L 86 130 L 108.0 130"
      fill="none" stroke="#4a90e2" stroke-width="2" stroke-opacity="0.85" stroke-linecap="round"/><path d="M 1682 152.0 L 1682 130 L 1660.0 130"
      fill="none" stroke="#4a90e2" stroke-width="2" stroke-opacity="0.85" stroke-linecap="round"/><path d="M 86 468.0 L 86 490 L 108.0 490"
      fill="none" stroke="#4a90e2" stroke-width="2" stroke-opacity="0.85" stroke-linecap="round"/><path d="M 1682 468.0 L 1682 490 L 1660.0 490"
      fill="none" stroke="#4a90e2" stroke-width="2" stroke-opacity="0.85" stroke-linecap="round"/>

<!-- ════ HEATMAP ════ -->
<text x="880" y="646" font-size="11" fill="#3d7ed4"
    text-anchor="middle" font-family="'Lexend','Segoe UI',sans-serif"
    letter-spacing="3" font-weight="400">CONTRIBUTION  CALENDAR</text><text x="815" y="686"
        font-size="9" fill="#3d7ed4" text-anchor="end"
        font-family="'Lexend','Segoe UI',sans-serif" font-weight="300">M</text><text x="815" y="716"
        font-size="9" fill="#3d7ed4" text-anchor="end"
        font-family="'Lexend','Segoe UI',sans-serif" font-weight="300">W</text><text x="815" y="746"
        font-size="9" fill="#3d7ed4" text-anchor="end"
        font-family="'Lexend','Segoe UI',sans-serif" font-weight="300">F</text><rect x="821.0" y="660.0"
        width="12" height="12" rx="2.5" fill="#0a1630"
        stroke="#0d2464" stroke-width="0.5" stroke-opacity="0.4">
        <title>2026-03-08: 0 commits</title></rect><rect x="821.0" y="675.0"
        width="12" height="12" rx="2.5" fill="#0a1630"
        stroke="#0d2464" stroke-width="0.5" stroke-opacity="0.4">
        <title>2026-03-09: 0 commits</title></rect><rect x="821.0" y="690.0"
        width="12" height="12" rx="2.5" fill="#0d3068"
        stroke="#0d2464" stroke-width="0.5" stroke-opacity="0.4">
        <title>2026-03-10: 1 commits</title></rect><rect x="821.0" y="705.0"
        width="12" height="12" rx="2.5" fill="#0a1630"
        stroke="#0d2464" stroke-width="0.5" stroke-opacity="0.4">
        <title>2026-03-11: 0 commits</title></rect><rect x="821.0" y="720.0"
        width="12" height="12" rx="2.5" fill="#0a1630"
        stroke="#0d2464" stroke-width="0.5" stroke-opacity="0.4">
        <title>2026-03-12: 0 commits</title></rect><rect x="821.0" y="735.0"
        width="12" height="12" rx="2.5" fill="#0a1630"
        stroke="#0d2464" stroke-width="0.5" stroke-opacity="0.4">
        <title>2026-03-13: 0 commits</title></rect><rect x="821.0" y="750.0"
        width="12" height="12" rx="2.5" fill="#0a1630"
        stroke="#0d2464" stroke-width="0.5" stroke-opacity="0.4">
        <title>2026-03-14: 0 commits</title></rect><rect x="836.0" y="660.0"
        width="12" height="12" rx="2.5" fill="#0a1630"
        stroke="#0d2464" stroke-width="0.5" stroke-opacity="0.4">
        <title>2026-03-15: 0 commits</title></rect><rect x="836.0" y="675.0"
        width="12" height="12" rx="2.5" fill="#0a1630"
        stroke="#0d2464" stroke-width="0.5" stroke-opacity="0.4">
        <title>2026-03-16: 0 commits</title></rect><rect x="836.0" y="690.0"
        width="12" height="12" rx="2.5" fill="#0d3068"
        stroke="#0d2464" stroke-width="0.5" stroke-opacity="0.4">
        <title>2026-03-17: 10 commits</title></rect><rect x="836.0" y="705.0"
        width="12" height="12" rx="2.5" fill="#0a1630"
        stroke="#0d2464" stroke-width="0.5" stroke-opacity="0.4">
        <title>2026-03-18: 0 commits</title></rect><rect x="836.0" y="720.0"
        width="12" height="12" rx="2.5" fill="#0a1630"
        stroke="#0d2464" stroke-width="0.5" stroke-opacity="0.4">
        <title>2026-03-19: 0 commits</title></rect><rect x="836.0" y="735.0"
        width="12" height="12" rx="2.5" fill="#1e56a8"
        stroke="#0d2464" stroke-width="0.5" stroke-opacity="0.4">
        <title>2026-03-20: 26 commits</title></rect><rect x="836.0" y="750.0"
        width="12" height="12" rx="2.5" fill="#0a1630"
        stroke="#0d2464" stroke-width="0.5" stroke-opacity="0.4">
        <title>2026-03-21: 0 commits</title></rect><rect x="851.0" y="660.0"
        width="12" height="12" rx="2.5" fill="#0d3068"
        stroke="#0d2464" stroke-width="0.5" stroke-opacity="0.4">
        <title>2026-03-22: 1 commits</title></rect><rect x="851.0" y="675.0"
        width="12" height="12" rx="2.5" fill="#0a1630"
        stroke="#0d2464" stroke-width="0.5" stroke-opacity="0.4">
        <title>2026-03-23: 0 commits</title></rect><rect x="851.0" y="690.0"
        width="12" height="12" rx="2.5" fill="#1e56a8"
        stroke="#0d2464" stroke-width="0.5" stroke-opacity="0.4">
        <title>2026-03-24: 32 commits</title></rect><rect x="851.0" y="705.0"
        width="12" height="12" rx="2.5" fill="#0d3068"
        stroke="#0d2464" stroke-width="0.5" stroke-opacity="0.4">
        <title>2026-03-25: 7 commits</title></rect><rect x="851.0" y="720.0"
        width="12" height="12" rx="2.5" fill="#0d3068"
        stroke="#0d2464" stroke-width="0.5" stroke-opacity="0.4">
        <title>2026-03-26: 3 commits</title></rect><rect x="851.0" y="735.0"
        width="12" height="12" rx="2.5" fill="#0d3068"
        stroke="#0d2464" stroke-width="0.5" stroke-opacity="0.4">
        <title>2026-03-27: 1 commits</title></rect><rect x="851.0" y="750.0"
        width="12" height="12" rx="2.5" fill="#93c5fd"
        stroke="#0d2464" stroke-width="0.5" stroke-opacity="0.4">
        <title>2026-03-28: 66 commits</title></rect><rect x="866.0" y="660.0"
        width="12" height="12" rx="2.5" fill="#3b82f6"
        stroke="#0d2464" stroke-width="0.5" stroke-opacity="0.4">
        <title>2026-03-29: 44 commits</title></rect><rect x="866.0" y="675.0"
        width="12" height="12" rx="2.5" fill="#0d3068"
        stroke="#0d2464" stroke-width="0.5" stroke-opacity="0.4">
        <title>2026-03-30: 2 commits</title></rect><rect x="866.0" y="690.0"
        width="12" height="12" rx="2.5" fill="#0d3068"
        stroke="#0d2464" stroke-width="0.5" stroke-opacity="0.4">
        <title>2026-03-31: 16 commits</title></rect><rect x="866.0" y="705.0"
        width="12" height="12" rx="2.5" fill="#0d3068"
        stroke="#0d2464" stroke-width="0.5" stroke-opacity="0.4">
        <title>2026-04-01: 14 commits</title></rect><rect x="866.0" y="720.0"
        width="12" height="12" rx="2.5" fill="#0d3068"
        stroke="#0d2464" stroke-width="0.5" stroke-opacity="0.4">
        <title>2026-04-02: 2 commits</title></rect><rect x="866.0" y="735.0"
        width="12" height="12" rx="2.5" fill="#1e56a8"
        stroke="#0d2464" stroke-width="0.5" stroke-opacity="0.4">
        <title>2026-04-03: 24 commits</title></rect><rect x="866.0" y="750.0"
        width="12" height="12" rx="2.5" fill="#1e56a8"
        stroke="#0d2464" stroke-width="0.5" stroke-opacity="0.4">
        <title>2026-04-04: 18 commits</title></rect><text x="866.0" y="656" font-size="8.5" fill="#3d7ed4"
        font-family="'Lexend','Segoe UI',sans-serif" font-weight="300">Apr</text><rect x="881.0" y="660.0"
        width="12" height="12" rx="2.5" fill="#0d3068"
        stroke="#0d2464" stroke-width="0.5" stroke-opacity="0.4">
        <title>2026-04-05: 1 commits</title></rect><rect x="881.0" y="675.0"
        width="12" height="12" rx="2.5" fill="#0d3068"
        stroke="#0d2464" stroke-width="0.5" stroke-opacity="0.4">
        <title>2026-04-06: 1 commits</title></rect><rect x="881.0" y="690.0"
        width="12" height="12" rx="2.5" fill="#0d3068"
        stroke="#0d2464" stroke-width="0.5" stroke-opacity="0.4">
        <title>2026-04-07: 9 commits</title></rect><rect x="881.0" y="705.0"
        width="12" height="12" rx="2.5" fill="#0d3068"
        stroke="#0d2464" stroke-width="0.5" stroke-opacity="0.4">
        <title>2026-04-08: 1 commits</title></rect><rect x="881.0" y="720.0"
        width="12" height="12" rx="2.5" fill="#0d3068"
        stroke="#0d2464" stroke-width="0.5" stroke-opacity="0.4">
        <title>2026-04-09: 1 commits</title></rect><rect x="881.0" y="735.0"
        width="12" height="12" rx="2.5" fill="#0d3068"
        stroke="#0d2464" stroke-width="0.5" stroke-opacity="0.4">
        <title>2026-04-10: 1 commits</title></rect><rect x="881.0" y="750.0"
        width="12" height="12" rx="2.5" fill="#0d3068"
        stroke="#0d2464" stroke-width="0.5" stroke-opacity="0.4">
        <title>2026-04-11: 1 commits</title></rect><rect x="896.0" y="660.0"
        width="12" height="12" rx="2.5" fill="#0d3068"
        stroke="#0d2464" stroke-width="0.5" stroke-opacity="0.4">
        <title>2026-04-12: 4 commits</title></rect><rect x="896.0" y="675.0"
        width="12" height="12" rx="2.5" fill="#0d3068"
        stroke="#0d2464" stroke-width="0.5" stroke-opacity="0.4">
        <title>2026-04-13: 1 commits</title></rect><rect x="896.0" y="690.0"
        width="12" height="12" rx="2.5" fill="#0d3068"
        stroke="#0d2464" stroke-width="0.5" stroke-opacity="0.4">
        <title>2026-04-14: 1 commits</title></rect><rect x="896.0" y="705.0"
        width="12" height="12" rx="2.5" fill="#0d3068"
        stroke="#0d2464" stroke-width="0.5" stroke-opacity="0.4">
        <title>2026-04-15: 1 commits</title></rect><rect x="896.0" y="720.0"
        width="12" height="12" rx="2.5" fill="#0d3068"
        stroke="#0d2464" stroke-width="0.5" stroke-opacity="0.4">
        <title>2026-04-16: 1 commits</title></rect><rect x="896.0" y="735.0"
        width="12" height="12" rx="2.5" fill="#0d3068"
        stroke="#0d2464" stroke-width="0.5" stroke-opacity="0.4">
        <title>2026-04-17: 1 commits</title></rect><rect x="896.0" y="750.0"
        width="12" height="12" rx="2.5" fill="#0d3068"
        stroke="#0d2464" stroke-width="0.5" stroke-opacity="0.4">
        <title>2026-04-18: 1 commits</title></rect><rect x="911.0" y="660.0"
        width="12" height="12" rx="2.5" fill="#0d3068"
        stroke="#0d2464" stroke-width="0.5" stroke-opacity="0.4">
        <title>2026-04-19: 1 commits</title></rect><rect x="911.0" y="675.0"
        width="12" height="12" rx="2.5" fill="#0d3068"
        stroke="#0d2464" stroke-width="0.5" stroke-opacity="0.4">
        <title>2026-04-20: 3 commits</title></rect><rect x="911.0" y="690.0"
        width="12" height="12" rx="2.5" fill="#0d3068"
        stroke="#0d2464" stroke-width="0.5" stroke-opacity="0.4">
        <title>2026-04-21: 1 commits</title></rect><rect x="911.0" y="705.0"
        width="12" height="12" rx="2.5" fill="#0d3068"
        stroke="#0d2464" stroke-width="0.5" stroke-opacity="0.4">
        <title>2026-04-22: 1 commits</title></rect><rect x="911.0" y="720.0"
        width="12" height="12" rx="2.5" fill="#0d3068"
        stroke="#0d2464" stroke-width="0.5" stroke-opacity="0.4">
        <title>2026-04-23: 1 commits</title></rect><rect x="911.0" y="735.0"
        width="12" height="12" rx="2.5" fill="#0d3068"
        stroke="#0d2464" stroke-width="0.5" stroke-opacity="0.4">
        <title>2026-04-24: 1 commits</title></rect><rect x="911.0" y="750.0"
        width="12" height="12" rx="2.5" fill="#0d3068"
        stroke="#0d2464" stroke-width="0.5" stroke-opacity="0.4">
        <title>2026-04-25: 1 commits</title></rect><rect x="926.0" y="660.0"
        width="12" height="12" rx="2.5" fill="#0d3068"
        stroke="#0d2464" stroke-width="0.5" stroke-opacity="0.4">
        <title>2026-04-26: 1 commits</title></rect><rect x="926.0" y="675.0"
        width="12" height="12" rx="2.5" fill="#0d3068"
        stroke="#0d2464" stroke-width="0.5" stroke-opacity="0.4">
        <title>2026-04-27: 1 commits</title></rect><rect x="926.0" y="690.0"
        width="12" height="12" rx="2.5" fill="#0d3068"
        stroke="#0d2464" stroke-width="0.5" stroke-opacity="0.4">
        <title>2026-04-28: 1 commits</title></rect><rect x="926.0" y="705.0"
        width="12" height="12" rx="2.5" fill="#0d3068"
        stroke="#0d2464" stroke-width="0.5" stroke-opacity="0.4">
        <title>2026-04-29: 1 commits</title></rect><rect x="926.0" y="720.0"
        width="12" height="12" rx="2.5" fill="#0d3068"
        stroke="#0d2464" stroke-width="0.5" stroke-opacity="0.4">
        <title>2026-04-30: 1 commits</title></rect><rect x="926.0" y="735.0"
        width="12" height="12" rx="2.5" fill="#0d3068"
        stroke="#0d2464" stroke-width="0.5" stroke-opacity="0.4">
        <title>2026-05-01: 6 commits</title></rect><rect x="926.0" y="750.0"
        width="12" height="12" rx="2.5" fill="#0d3068"
        stroke="#0d2464" stroke-width="0.5" stroke-opacity="0.4">
        <title>2026-05-02: 1 commits</title></rect><text x="926.0" y="656" font-size="8.5" fill="#3d7ed4"
        font-family="'Lexend','Segoe UI',sans-serif" font-weight="300">May</text><rect x="941.0" y="660.0"
        width="12" height="12" rx="2.5" fill="#3b82f6"
        stroke="#0d2464" stroke-width="0.5" stroke-opacity="0.4">
        <title>2026-05-03: 39 commits</title></rect><rect x="941.0" y="675.0"
        width="12" height="12" rx="2.5" fill="#0d3068"
        stroke="#0d2464" stroke-width="0.5" stroke-opacity="0.4">
        <title>2026-05-04: 10 commits</title></rect><rect x="941.0" y="690.0"
        width="12" height="12" rx="2.5" fill="#3b82f6"
        stroke="#0d2464" stroke-width="0.5" stroke-opacity="0.4">
        <title>2026-05-05: 35 commits</title></rect><rect x="941.0" y="705.0"
        width="12" height="12" rx="2.5" fill="#0a1630"
        stroke="#0d2464" stroke-width="0.5" stroke-opacity="0.4">
        <title>2026-05-06: 0 commits</title></rect><rect x="941.0" y="720.0"
        width="12" height="12" rx="2.5" fill="#0a1630"
        stroke="#0d2464" stroke-width="0.5" stroke-opacity="0.4">
        <title>2026-05-07: 0 commits</title></rect><rect x="941.0" y="735.0"
        width="12" height="12" rx="2.5" fill="#0a1630"
        stroke="#0d2464" stroke-width="0.5" stroke-opacity="0.4">
        <title>2026-05-08: 0 commits</title></rect><rect x="941.0" y="750.0"
        width="12" height="12" rx="2.5" fill="#0a1630"
        stroke="#0d2464" stroke-width="0.5" stroke-opacity="0.4">
        <title>2026-05-09: 0 commits</title></rect><rect x="956.0" y="660.0"
        width="12" height="12" rx="2.5" fill="#0a1630"
        stroke="#0d2464" stroke-width="0.5" stroke-opacity="0.4">
        <title>2026-05-10: 0 commits</title></rect><rect x="956.0" y="675.0"
        width="12" height="12" rx="2.5" fill="#0a1630"
        stroke="#0d2464" stroke-width="0.5" stroke-opacity="0.4">
        <title>2026-05-11: 0 commits</title></rect><rect x="956.0" y="690.0"
        width="12" height="12" rx="2.5" fill="#0a1630"
        stroke="#0d2464" stroke-width="0.5" stroke-opacity="0.4">
        <title>2026-05-12: 0 commits</title></rect><rect x="956.0" y="705.0"
        width="12" height="12" rx="2.5" fill="#0a1630"
        stroke="#0d2464" stroke-width="0.5" stroke-opacity="0.4">
        <title>2026-05-13: 0 commits</title></rect><rect x="956.0" y="720.0"
        width="12" height="12" rx="2.5" fill="#0a1630"
        stroke="#0d2464" stroke-width="0.5" stroke-opacity="0.4">
        <title>2026-05-14: 0 commits</title></rect><rect x="956.0" y="735.0"
        width="12" height="12" rx="2.5" fill="#0a1630"
        stroke="#0d2464" stroke-width="0.5" stroke-opacity="0.4">
        <title>2026-05-15: 0 commits</title></rect><rect x="956.0" y="750.0"
        width="12" height="12" rx="2.5" fill="#0a1630"
        stroke="#0d2464" stroke-width="0.5" stroke-opacity="0.4">
        <title>2026-05-16: 0 commits</title></rect>

<!-- ════ BOTTOM PANELS ════ -->

    <rect x="86" y="823" width="320" height="110"
      rx="4" fill="#030e26" fill-opacity="0.6" stroke="#1a3f7a" stroke-width="0.8"/>
    <text x="246" y="819" font-size="8" fill="#3d7ed4"
      text-anchor="middle" font-family="'Lexend','Segoe UI',sans-serif"
      letter-spacing="2" font-weight="300">OVERVIEW</text>
    <g clip-path="url(#minimapClip)">
      <path d="M 86.00 931.58 C 86.95 931.82, 89.81 932.76, 91.71 933.00 C 93.62 933.24, 95.52 933.00, 97.43 933.00 C 99.33 933.00, 101.24 933.00, 103.14 933.00 C 105.05 933.00, 106.95 933.00, 108.86 933.00 C 110.76 933.00, 112.67 933.00, 114.57 933.00 C 116.48 933.00, 118.38 935.36, 120.29 933.00 C 122.19 930.64, 124.10 918.83, 126.00 918.83 C 127.90 918.83, 129.81 930.64, 131.71 933.00 C 133.62 935.36, 135.52 939.14, 137.43 933.00 C 139.33 926.86, 141.24 896.17, 143.14 896.17 C 145.05 896.17, 146.95 927.10, 148.86 933.00 C 150.76 938.90, 152.67 931.58, 154.57 931.58 C 156.48 931.58, 158.38 940.32, 160.29 933.00 C 162.19 925.68, 164.10 889.32, 166.00 887.67 C 167.90 886.01, 169.81 916.24, 171.71 923.08 C 173.62 929.93, 175.52 927.33, 177.43 928.75 C 179.33 930.17, 181.24 946.46, 183.14 931.58 C 185.05 916.71, 186.95 849.65, 188.86 839.50 C 190.76 829.35, 192.67 855.56, 194.57 870.67 C 196.48 885.78, 198.38 923.56, 200.29 930.17 C 202.19 936.78, 204.10 913.17, 206.00 910.33 C 207.90 907.50, 209.81 909.86, 211.71 913.17 C 213.62 916.47, 215.52 932.53, 217.43 930.17 C 219.33 927.81, 221.24 902.78, 223.14 899.00 C 225.05 895.22, 226.95 902.07, 228.86 907.50 C 230.76 912.93, 232.67 927.57, 234.57 931.58 C 236.48 935.60, 238.38 933.47, 240.29 931.58 C 242.19 929.69, 244.10 920.25, 246.00 920.25 C 247.90 920.25, 249.81 929.69, 251.71 931.58 C 253.62 933.47, 255.52 931.58, 257.43 931.58 C 259.33 931.58, 261.24 931.58, 263.14 931.58 C 265.05 931.58, 266.95 932.29, 268.86 931.58 C 270.76 930.88, 272.67 927.33, 274.57 927.33 C 276.48 927.33, 278.38 930.88, 280.29 931.58 C 282.19 932.29, 284.10 931.58, 286.00 931.58 C 287.90 931.58, 289.81 931.58, 291.71 931.58 C 293.62 931.58, 295.52 931.58, 297.43 931.58 C 299.33 931.58, 301.24 931.58, 303.14 931.58 C 305.05 931.58, 306.95 931.58, 308.86 931.58 C 310.76 931.58, 312.67 932.06, 314.57 931.58 C 316.48 931.11, 318.38 928.75, 320.29 928.75 C 322.19 928.75, 324.10 931.11, 326.00 931.58 C 327.90 932.06, 329.81 931.58, 331.71 931.58 C 333.62 931.58, 335.52 931.58, 337.43 931.58 C 339.33 931.58, 341.24 931.58, 343.14 931.58 C 345.05 931.58, 346.95 931.58, 348.86 931.58 C 350.76 931.58, 352.67 931.58, 354.57 931.58 C 356.48 931.58, 358.38 931.58, 360.29 931.58 C 362.19 931.58, 364.10 931.58, 366.00 931.58 C 367.90 931.58, 369.81 931.58, 371.71 931.58 C 373.62 931.58, 375.52 932.76, 377.43 931.58 C 379.33 930.40, 381.24 924.50, 383.14 924.50 C 385.05 924.50, 386.95 939.38, 388.86 931.58 C 390.76 923.79, 392.67 879.88, 394.57 877.75 C 396.48 875.63, 398.38 917.89, 400.29 918.83 C 402.19 919.78, 405.05 889.32, 406.00 883.42 L 406.00 933 L 86.00 933 Z" fill="#4a90e2" fill-opacity="0.15"/>
      <path d="M 86.00 931.58 C 86.95 931.82, 89.81 932.76, 91.71 933.00 C 93.62 933.24, 95.52 933.00, 97.43 933.00 C 99.33 933.00, 101.24 933.00, 103.14 933.00 C 105.05 933.00, 106.95 933.00, 108.86 933.00 C 110.76 933.00, 112.67 933.00, 114.57 933.00 C 116.48 933.00, 118.38 935.36, 120.29 933.00 C 122.19 930.64, 124.10 918.83, 126.00 918.83 C 127.90 918.83, 129.81 930.64, 131.71 933.00 C 133.62 935.36, 135.52 939.14, 137.43 933.00 C 139.33 926.86, 141.24 896.17, 143.14 896.17 C 145.05 896.17, 146.95 927.10, 148.86 933.00 C 150.76 938.90, 152.67 931.58, 154.57 931.58 C 156.48 931.58, 158.38 940.32, 160.29 933.00 C 162.19 925.68, 164.10 889.32, 166.00 887.67 C 167.90 886.01, 169.81 916.24, 171.71 923.08 C 173.62 929.93, 175.52 927.33, 177.43 928.75 C 179.33 930.17, 181.24 946.46, 183.14 931.58 C 185.05 916.71, 186.95 849.65, 188.86 839.50 C 190.76 829.35, 192.67 855.56, 194.57 870.67 C 196.48 885.78, 198.38 923.56, 200.29 930.17 C 202.19 936.78, 204.10 913.17, 206.00 910.33 C 207.90 907.50, 209.81 909.86, 211.71 913.17 C 213.62 916.47, 215.52 932.53, 217.43 930.17 C 219.33 927.81, 221.24 902.78, 223.14 899.00 C 225.05 895.22, 226.95 902.07, 228.86 907.50 C 230.76 912.93, 232.67 927.57, 234.57 931.58 C 236.48 935.60, 238.38 933.47, 240.29 931.58 C 242.19 929.69, 244.10 920.25, 246.00 920.25 C 247.90 920.25, 249.81 929.69, 251.71 931.58 C 253.62 933.47, 255.52 931.58, 257.43 931.58 C 259.33 931.58, 261.24 931.58, 263.14 931.58 C 265.05 931.58, 266.95 932.29, 268.86 931.58 C 270.76 930.88, 272.67 927.33, 274.57 927.33 C 276.48 927.33, 278.38 930.88, 280.29 931.58 C 282.19 932.29, 284.10 931.58, 286.00 931.58 C 287.90 931.58, 289.81 931.58, 291.71 931.58 C 293.62 931.58, 295.52 931.58, 297.43 931.58 C 299.33 931.58, 301.24 931.58, 303.14 931.58 C 305.05 931.58, 306.95 931.58, 308.86 931.58 C 310.76 931.58, 312.67 932.06, 314.57 931.58 C 316.48 931.11, 318.38 928.75, 320.29 928.75 C 322.19 928.75, 324.10 931.11, 326.00 931.58 C 327.90 932.06, 329.81 931.58, 331.71 931.58 C 333.62 931.58, 335.52 931.58, 337.43 931.58 C 339.33 931.58, 341.24 931.58, 343.14 931.58 C 345.05 931.58, 346.95 931.58, 348.86 931.58 C 350.76 931.58, 352.67 931.58, 354.57 931.58 C 356.48 931.58, 358.38 931.58, 360.29 931.58 C 362.19 931.58, 364.10 931.58, 366.00 931.58 C 367.90 931.58, 369.81 931.58, 371.71 931.58 C 373.62 931.58, 375.52 932.76, 377.43 931.58 C 379.33 930.40, 381.24 924.50, 383.14 924.50 C 385.05 924.50, 386.95 939.38, 388.86 931.58 C 390.76 923.79, 392.67 879.88, 394.57 877.75 C 396.48 875.63, 398.38 917.89, 400.29 918.83 C 402.19 919.78, 405.05 889.32, 406.00 883.42" fill="none" stroke="#4a90e2" stroke-width="1.5" stroke-opacity="0.7"/>
    </g>
    <clipPath id="minimapClip">
      <rect x="86" y="823" width="320" height="110" rx="4"/>
    </clipPath><path d="M 1542.00 854.90
      L 1542.00 836.00
      A 42 42 0 1 1 1502.93 893.42
      L 1520.51 886.48
      A 23.1 23.1 0 1 0 1542.00 854.90 Z"
      fill="#4a90e2" fill-opacity="0.8" stroke="#030e26" stroke-width="1.5">
      <title>Kieran Lucas: 274 commits (69%)</title></path><path d="M 1520.51 886.48
      L 1502.93 893.42
      A 42 42 0 0 1 1504.72 858.65
      L 1521.50 867.36
      A 23.1 23.1 0 0 0 1520.51 886.48 Z"
      fill="#ff8c42" fill-opacity="0.8" stroke="#030e26" stroke-width="1.5">
      <title>github-actions: 54 commits (14%)</title></path><path d="M 1521.50 867.36
      L 1504.72 858.65
      A 42 42 0 0 1 1531.48 837.34
      L 1536.21 855.64
      A 23.1 23.1 0 0 0 1521.50 867.36 Z"
      fill="#00d4f5" fill-opacity="0.8" stroke="#030e26" stroke-width="1.5">
      <title>HumaNormal: 53 commits (13%)</title></path><path d="M 1536.21 855.64
      L 1531.48 837.34
      A 42 42 0 0 1 1541.34 836.01
      L 1541.63 854.90
      A 23.1 23.1 0 0 0 1536.21 855.64 Z"
      fill="#22c55e" fill-opacity="0.8" stroke="#030e26" stroke-width="1.5">
      <title>stillqhuy: 15 commits (4%)</title></path><path d="M 1541.63 854.90
      L 1541.34 836.01
      A 42 42 0 0 1 1542.00 836.00
      L 1542.00 854.90
      A 23.1 23.1 0 0 0 1541.63 854.90 Z"
      fill="#ef4444" fill-opacity="0.8" stroke="#030e26" stroke-width="1.5">
      <title>Nguyễn Đinh Việt Đức: 1 commits (0%)</title></path><text x="1542" y="874" font-size="9" fill="#3d7ed4" text-anchor="middle"
    font-family="'Lexend','Segoe UI',sans-serif" letter-spacing="1.5" font-weight="300">AUTHORS</text><text x="1542" y="892" font-size="16" fill="#cce8ff" text-anchor="middle"
    font-family="'Lexend','Segoe UI',sans-serif" font-weight="600">5</text><rect x="1600" y="830" width="8" height="8" rx="2" fill="#4a90e2" opacity="0.85"/><text x="1614" y="838" font-size="9.5" fill="#3d7ed4"
      font-family="'Lexend','Segoe UI',sans-serif" font-weight="300">Kieran Lucas (274)</text><rect x="1600" y="848" width="8" height="8" rx="2" fill="#ff8c42" opacity="0.85"/><text x="1614" y="856" font-size="9.5" fill="#3d7ed4"
      font-family="'Lexend','Segoe UI',sans-serif" font-weight="300">github-actions (54)</text><rect x="1600" y="866" width="8" height="8" rx="2" fill="#00d4f5" opacity="0.85"/><text x="1614" y="874" font-size="9.5" fill="#3d7ed4"
      font-family="'Lexend','Segoe UI',sans-serif" font-weight="300">HumaNormal (53)</text><rect x="1600" y="884" width="8" height="8" rx="2" fill="#22c55e" opacity="0.85"/><text x="1614" y="892" font-size="9.5" fill="#3d7ed4"
      font-family="'Lexend','Segoe UI',sans-serif" font-weight="300">stillqhuy (15)</text><rect x="1600" y="902" width="8" height="8" rx="2" fill="#ef4444" opacity="0.85"/><text x="1614" y="910" font-size="9.5" fill="#3d7ed4"
      font-family="'Lexend','Segoe UI',sans-serif" font-weight="300">Nguyễn Đinh … (1)</text>

<!-- ════ WAVES ════ -->
<path d="M 0 963 Q 110.0 956.0 220.0 963 Q 330.0 956.0 440.0 963 Q 550.0 956.0 660.0 963 Q 770.0 956.0 880.0 963 Q 990.0 956.0 1100.0 963 Q 1210.0 956.0 1320.0 963 Q 1430.0 956.0 1540.0 963 Q 1650.0 956.0 1760.0 963" fill="none" stroke="#1948a0" stroke-width="1.2" stroke-opacity="0.35"/>
<path d="M 0 958 Q 110.0 952.5 220.0 958 Q 330.0 952.5 440.0 958 Q 550.0 952.5 660.0 958 Q 770.0 952.5 880.0 958 Q 990.0 952.5 1100.0 958 Q 1210.0 952.5 1320.0 958 Q 1430.0 952.5 1540.0 958 Q 1650.0 952.5 1760.0 958" fill="none" stroke="#1948a0" stroke-width="1" stroke-opacity="0.29"/>
<path d="M 0 953 Q 110.0 949.0 220.0 953 Q 330.0 949.0 440.0 953 Q 550.0 949.0 660.0 953 Q 770.0 949.0 880.0 953 Q 990.0 949.0 1100.0 953 Q 1210.0 949.0 1320.0 953 Q 1430.0 949.0 1540.0 953 Q 1650.0 949.0 1760.0 953" fill="none" stroke="#1948a0" stroke-width="0.7999999999999999" stroke-opacity="0.22999999999999998"/>
<path d="M 0 948 Q 110.0 945.5 220.0 948 Q 330.0 945.5 440.0 948 Q 550.0 945.5 660.0 948 Q 770.0 945.5 880.0 948 Q 990.0 945.5 1100.0 948 Q 1210.0 945.5 1320.0 948 Q 1430.0 945.5 1540.0 948 Q 1650.0 945.5 1760.0 948" fill="none" stroke="#1948a0" stroke-width="0.5999999999999999" stroke-opacity="0.16999999999999998"/>

</svg>