<svg width="1732" height="969" xmlns="http://www.w3.org/2000/svg" viewBox="0 0 1732 969">
<defs>
  <style>
    @import url('https://fonts.googleapis.com/css2?family=Lexend:wght@300;400;600;700&amp;display=swap');
    circle:hover { opacity: 1 !important; r: 6; }
    rect.bar-segment:hover { opacity: 1 !important; }
  </style>

  <linearGradient id="bg" x1="0%" y1="0%" x2="55%" y2="100%">
    <stop offset="0%"   stop-color="#010c1e"/>
    <stop offset="50%"  stop-color="#010f27"/>
    <stop offset="100%" stop-color="#000a18"/>
  </linearGradient>
  <linearGradient id="areaFill" x1="0%" y1="0%" x2="0%" y2="100%">
    <stop offset="0%"   stop-color="#4a90e2" stop-opacity="0.5"/>
    <stop offset="55%"  stop-color="#1a3f7a" stop-opacity="0.18"/>
    <stop offset="100%" stop-color="#000a18" stop-opacity="0"/>
  </linearGradient>
  <linearGradient id="gCommits" x1="0%" y1="0%" x2="100%" y2="0%">
    <stop offset="0%"   stop-color="#ff8c42"/>
    <stop offset="100%" stop-color="#ffd0a0"/>
  </linearGradient>
  <linearGradient id="gChanges" x1="0%" y1="0%" x2="100%" y2="0%">
    <stop offset="0%"   stop-color="#00d4f5" stop-opacity="0.8"/>
    <stop offset="50%"  stop-color="#00d4f5"/>
    <stop offset="100%" stop-color="#80eeff"/>
  </linearGradient>
  <linearGradient id="gBorder" x1="0%" y1="0%" x2="100%" y2="100%">
    <stop offset="0%"   stop-color="#1840a0" stop-opacity="0.9"/>
    <stop offset="50%"  stop-color="#3b82f6" stop-opacity="0.6"/>
    <stop offset="100%" stop-color="#60a5fa" stop-opacity="0.9"/>
  </linearGradient>
  <linearGradient id="gHeader" x1="0%" y1="0%" x2="100%" y2="0%">
    <stop offset="0%"   stop-color="#010c1e" stop-opacity="0"/>
    <stop offset="20%"  stop-color="#091c3e" stop-opacity="0.92"/>
    <stop offset="80%"  stop-color="#091c3e" stop-opacity="0.92"/>
    <stop offset="100%" stop-color="#010c1e" stop-opacity="0"/>
  </linearGradient>
  <linearGradient id="gAddBar" x1="0%" y1="0%" x2="0%" y2="100%">
    <stop offset="0%"   stop-color="#22c55e" stop-opacity="0.95"/>
    <stop offset="100%" stop-color="#22c55e" stop-opacity="0.65"/>
  </linearGradient>
  <linearGradient id="gDelBar" x1="0%" y1="0%" x2="0%" y2="100%">
    <stop offset="0%"   stop-color="#ef4444" stop-opacity="0.9"/>
    <stop offset="100%" stop-color="#ef4444" stop-opacity="0.6"/>
  </linearGradient>

  <filter id="glowOrange" x="-120%" y="-120%" width="340%" height="340%">
    <feGaussianBlur stdDeviation="4" result="b"/>
    <feMerge><feMergeNode in="b"/><feMergeNode in="SourceGraphic"/></feMerge>
  </filter>
  <filter id="glowCyan" x="-120%" y="-120%" width="340%" height="340%">
    <feGaussianBlur stdDeviation="3.5" result="b"/>
    <feMerge><feMergeNode in="b"/><feMergeNode in="SourceGraphic"/></feMerge>
  </filter>
  <filter id="glowTitle">
    <feGaussianBlur stdDeviation="5" result="b"/>
    <feMerge><feMergeNode in="b"/><feMergeNode in="b"/><feMergeNode in="SourceGraphic"/></feMerge>
  </filter>
  <filter id="glowLine" x="-6%" y="-120%" width="112%" height="340%">
    <feGaussianBlur stdDeviation="4.5" result="b"/>
    <feMerge><feMergeNode in="b"/><feMergeNode in="SourceGraphic"/></feMerge>
  </filter>
  <filter id="glowMA" x="-6%" y="-120%" width="112%" height="340%">
    <feGaussianBlur stdDeviation="3" result="b"/>
    <feMerge><feMergeNode in="b"/><feMergeNode in="SourceGraphic"/></feMerge>
  </filter>

  <pattern id="diamondTile" x="0" y="0" width="30" height="30" patternUnits="userSpaceOnUse">
    <path d="M15 2 L28 15 L15 28 L2 15 Z"
      fill="none" stroke="#0d2464" stroke-width="0.4" stroke-opacity="0.25"/>
  </pattern>

  <clipPath id="chartClip">
    <rect x="86" y="130" width="1568" height="360"/>
  </clipPath>
</defs>

<!-- ════ BACKGROUND ════ -->
<rect width="1732" height="969" fill="url(#bg)" rx="16"/>
<rect width="1732" height="969" fill="url(#diamondTile)" rx="16"/>

<!-- ════ BORDERS ════ -->
<rect width="1732" height="969" fill="none" rx="16" stroke="url(#gBorder)" stroke-width="2.2"/>
<rect x="5" y="5" width="1722" height="959" fill="none" rx="13"
  stroke="#1840a0" stroke-width="0.7" stroke-opacity="0.35"/>

<!-- ════ HEADER ════ -->
<rect x="0" y="0" width="1732" height="122" fill="url(#gHeader)" rx="16"/>
<line x1="24" y1="118.0" x2="1708.0" y2="118.0"
    stroke="url(#gBorder)" stroke-width="0.8" stroke-opacity="0.5"/>

<!-- ════ TITLE ════ -->
<text x="870.0" y="44" font-size="18" font-weight="600" fill="#cce8ff"
  text-anchor="middle" font-family="'Lexend','Segoe UI',sans-serif"
  filter="url(#glowTitle)" letter-spacing="5">⬡  COMMIT  ANALYTICS  ⬡</text>
<text x="870.0" y="62" font-size="9.5" fill="#3d7ed4" text-anchor="middle"
  font-family="'Lexend','Segoe UI',sans-serif" letter-spacing="3.5" font-weight="300">kieran-lucas/oop-course-project-uet</text>

<!-- ════ STATS BADGE ════ -->

    <rect x="1506" y="8" width="142" height="92" rx="10"
      fill="#030e26" fill-opacity="0.94" stroke="#2563eb" stroke-width="1.2"/>
    <text x="1577" y="24" font-size="8" fill="#3d7ed4"
      text-anchor="middle" font-family="'Lexend',sans-serif" letter-spacing="2" font-weight="400">TOTAL  COMMITS</text>
    <text x="1577" y="52" font-size="28" font-weight="700" fill="#cce8ff"
      text-anchor="middle" font-family="'Lexend',sans-serif" filter="url(#glowTitle)">356</text>
    <line x1="1522" y1="60" x2="1632" y2="60"
      stroke="#1a3f7a" stroke-width="0.8" stroke-opacity="0.5"/>
    <text x="1553" y="74" font-size="9" fill="#22c55e"
      text-anchor="middle" font-family="'Lexend',sans-serif" font-weight="400">+176.2k</text>
    <text x="1601" y="74" font-size="9" fill="#ef4444"
      text-anchor="middle" font-family="'Lexend',sans-serif" font-weight="400">-87.1k</text>
    <text x="1577" y="90" font-size="8" fill="#3d7ed4"
      text-anchor="middle" font-family="'Lexend',sans-serif" font-weight="300">46 active days · 1.2k files</text>

<!-- ════ LEGEND ════ -->
<g><rect x="514.0" y="90.0" width="24" height="12" rx="3"
        fill="#4a90e2" fill-opacity="0.45" stroke="#4a90e2" stroke-width="1.2"/><text x="545.0" y="100.0" font-size="11" fill="#93c5fd"
      font-family="'Lexend','Segoe UI',sans-serif" font-weight="400">Total Lines</text><line x1="650.0" y1="97.0" x2="674.0" y2="97.0"
        stroke="#ff8c42" stroke-width="2.5" stroke-linecap="round"/><circle cx="662.0" cy="97.0" r="3.5"
        fill="#ff8c42" stroke="#fff" stroke-width="0.6" stroke-opacity="0.3"/><text x="681.0" y="100.0" font-size="11" fill="#93c5fd"
      font-family="'Lexend','Segoe UI',sans-serif" font-weight="400">Commits</text><line x1="758.0" y1="97.0" x2="782.0" y2="97.0"
        stroke="#00d4f5" stroke-width="2.5" stroke-linecap="round"/><circle cx="770.0" cy="97.0" r="3.5"
        fill="#00d4f5" stroke="#fff" stroke-width="0.6" stroke-opacity="0.3"/><text x="789.0" y="100.0" font-size="11" fill="#93c5fd"
      font-family="'Lexend','Segoe UI',sans-serif" font-weight="400">Chg/Commit</text><rect x="893.0" y="90.0" width="12" height="12" rx="2"
        fill="#22c55e" opacity="0.85"/><text x="918.0" y="100.0" font-size="11" fill="#93c5fd"
      font-family="'Lexend','Segoe UI',sans-serif" font-weight="400">Additions</text><rect x="1015.0" y="90.0" width="12" height="12" rx="2"
        fill="#ef4444" opacity="0.85"/><text x="1040.0" y="100.0" font-size="11" fill="#93c5fd"
      font-family="'Lexend','Segoe UI',sans-serif" font-weight="400">Deletions</text><line x1="1131.0" y1="97.0" x2="1155.0" y2="97.0"
        stroke="#a78bfa" stroke-width="2" stroke-dasharray="5,3" stroke-linecap="round"/><text x="1162.0" y="100.0" font-size="11" fill="#93c5fd"
      font-family="'Lexend','Segoe UI',sans-serif" font-weight="400">7-day MA</text></g>

<!-- ════ AXIS LABELS ════ -->
<text x="16" y="310.0" font-size="9.5" fill="#4a90e2"
    text-anchor="middle" font-family="'Lexend','Segoe UI',sans-serif" letter-spacing="3" font-weight="300"
    transform="rotate(-90, 16, 310.0)">LINES</text>
<text x="1718.0" y="310.0" font-size="9.5"
    fill="#ff8c42" text-anchor="middle" font-family="'Lexend','Segoe UI',sans-serif"
    letter-spacing="3" font-weight="300" opacity="0.8"
    transform="rotate(90, 1718.0, 310.0)">COMMITS</text>

<!-- ════ GRID + Y-LABELS ════ -->
<line x1="86" y1="490.0" x2="1654" y2="490.0"
      stroke="#1a3f7a" stroke-width="1.4"
      stroke-opacity="0.9" stroke-dasharray="none"/><line x1="86" y1="418.0" x2="1654" y2="418.0"
      stroke="#1a3f7a" stroke-width="0.5"
      stroke-opacity="0.3" stroke-dasharray="6,6"/><line x1="86" y1="346.0" x2="1654" y2="346.0"
      stroke="#1a3f7a" stroke-width="0.5"
      stroke-opacity="0.3" stroke-dasharray="6,6"/><line x1="86" y1="274.0" x2="1654" y2="274.0"
      stroke="#1a3f7a" stroke-width="0.5"
      stroke-opacity="0.3" stroke-dasharray="6,6"/><line x1="86" y1="202.0" x2="1654" y2="202.0"
      stroke="#1a3f7a" stroke-width="0.5"
      stroke-opacity="0.3" stroke-dasharray="6,6"/><line x1="86" y1="130.0" x2="1654" y2="130.0"
      stroke="#1a3f7a" stroke-width="0.5"
      stroke-opacity="0.3" stroke-dasharray="6,6"/>
<text x="74" y="494.0" font-size="11" fill="#5aa8ff"
      text-anchor="end" font-family="'Lexend','Segoe UI',sans-serif" font-weight="300">0</text><text x="74" y="422.0" font-size="11" fill="#5aa8ff"
      text-anchor="end" font-family="'Lexend','Segoe UI',sans-serif" font-weight="300">20.0k</text><text x="74" y="350.0" font-size="11" fill="#5aa8ff"
      text-anchor="end" font-family="'Lexend','Segoe UI',sans-serif" font-weight="300">40.0k</text><text x="74" y="278.0" font-size="11" fill="#5aa8ff"
      text-anchor="end" font-family="'Lexend','Segoe UI',sans-serif" font-weight="300">60.0k</text><text x="74" y="206.0" font-size="11" fill="#5aa8ff"
      text-anchor="end" font-family="'Lexend','Segoe UI',sans-serif" font-weight="300">80.0k</text><text x="74" y="134.0" font-size="11" fill="#5aa8ff"
      text-anchor="end" font-family="'Lexend','Segoe UI',sans-serif" font-weight="300">100.0k</text>
<text x="1666" y="494.0" font-size="11" fill="#ff8c42"
      text-anchor="start" font-family="'Lexend','Segoe UI',sans-serif" font-weight="300" opacity="0.85">0</text><text x="1666" y="404.0" font-size="11" fill="#ff8c42"
      text-anchor="start" font-family="'Lexend','Segoe UI',sans-serif" font-weight="300" opacity="0.85">20</text><text x="1666" y="314.0" font-size="11" fill="#ff8c42"
      text-anchor="start" font-family="'Lexend','Segoe UI',sans-serif" font-weight="300" opacity="0.85">40</text><text x="1666" y="224.0" font-size="11" fill="#ff8c42"
      text-anchor="start" font-family="'Lexend','Segoe UI',sans-serif" font-weight="300" opacity="0.85">60</text><text x="1666" y="134.0" font-size="11" fill="#ff8c42"
      text-anchor="start" font-family="'Lexend','Segoe UI',sans-serif" font-weight="300" opacity="0.85">80</text>

<!-- ════ AXIS LINES ════ -->
<line x1="86" y1="130" x2="86" y2="490"
  stroke="#1a3f7a" stroke-width="1.2" stroke-opacity="0.65"/>
<line x1="86" y1="490" x2="1654" y2="490"
  stroke="#1a3f7a" stroke-width="1.4" stroke-opacity="0.8"/>
<line x1="1654" y1="130" x2="1654" y2="490"
  stroke="#ff8c42" stroke-width="0.9" stroke-opacity="0.28"/>

<!-- ════ X-AXIS ════ -->
<text x="86.0" y="514" font-size="10" fill="#5aa8ff"
      text-anchor="end" font-family="'Lexend','Segoe UI',sans-serif" font-weight="300"
      transform="rotate(-42, 86.0, 514)">10 Mar</text><text x="200.0" y="514" font-size="10" fill="#5aa8ff"
      text-anchor="end" font-family="'Lexend','Segoe UI',sans-serif" font-weight="300"
      transform="rotate(-42, 200.0, 514)">14 Mar</text><text x="314.1" y="514" font-size="10" fill="#5aa8ff"
      text-anchor="end" font-family="'Lexend','Segoe UI',sans-serif" font-weight="300"
      transform="rotate(-42, 314.1, 514)">18 Mar</text><text x="428.1" y="514" font-size="10" fill="#5aa8ff"
      text-anchor="end" font-family="'Lexend','Segoe UI',sans-serif" font-weight="300"
      transform="rotate(-42, 428.1, 514)">22 Mar</text><text x="542.1" y="514" font-size="10" fill="#5aa8ff"
      text-anchor="end" font-family="'Lexend','Segoe UI',sans-serif" font-weight="300"
      transform="rotate(-42, 542.1, 514)">26 Mar</text><text x="656.2" y="514" font-size="10" fill="#5aa8ff"
      text-anchor="end" font-family="'Lexend','Segoe UI',sans-serif" font-weight="300"
      transform="rotate(-42, 656.2, 514)">30 Mar</text><text x="770.2" y="514" font-size="10" fill="#5aa8ff"
      text-anchor="end" font-family="'Lexend','Segoe UI',sans-serif" font-weight="300"
      transform="rotate(-42, 770.2, 514)">3 Apr</text><text x="884.3" y="514" font-size="10" fill="#5aa8ff"
      text-anchor="end" font-family="'Lexend','Segoe UI',sans-serif" font-weight="300"
      transform="rotate(-42, 884.3, 514)">7 Apr</text><text x="998.3" y="514" font-size="10" fill="#5aa8ff"
      text-anchor="end" font-family="'Lexend','Segoe UI',sans-serif" font-weight="300"
      transform="rotate(-42, 998.3, 514)">11 Apr</text><text x="1112.3" y="514" font-size="10" fill="#5aa8ff"
      text-anchor="end" font-family="'Lexend','Segoe UI',sans-serif" font-weight="300"
      transform="rotate(-42, 1112.3, 514)">15 Apr</text><text x="1226.4" y="514" font-size="10" fill="#5aa8ff"
      text-anchor="end" font-family="'Lexend','Segoe UI',sans-serif" font-weight="300"
      transform="rotate(-42, 1226.4, 514)">19 Apr</text><text x="1340.4" y="514" font-size="10" fill="#5aa8ff"
      text-anchor="end" font-family="'Lexend','Segoe UI',sans-serif" font-weight="300"
      transform="rotate(-42, 1340.4, 514)">23 Apr</text><text x="1454.4" y="514" font-size="10" fill="#5aa8ff"
      text-anchor="end" font-family="'Lexend','Segoe UI',sans-serif" font-weight="300"
      transform="rotate(-42, 1454.4, 514)">27 Apr</text><text x="1568.5" y="514" font-size="10" fill="#5aa8ff"
      text-anchor="end" font-family="'Lexend','Segoe UI',sans-serif" font-weight="300"
      transform="rotate(-42, 1568.5, 514)">1 May</text><text x="1654.0" y="514" font-size="10" fill="#5aa8ff"
      text-anchor="end" font-family="'Lexend','Segoe UI',sans-serif" font-weight="300"
      transform="rotate(-42, 1654.0, 514)">4 May</text>

<!-- ════ CHART CONTENT ════ -->
<g clip-path="url(#chartClip)">
  <!-- Total lines: area + stroke -->
  <path d="M 86.00 490.00 C 90.75 490.00, 105.01 490.00, 114.51 490.00 C 124.01 490.00, 133.52 490.00, 143.02 490.00 C 152.52 490.00, 162.02 490.00, 171.53 490.00 C 181.03 490.00, 190.53 490.00, 200.04 490.00 C 209.54 490.00, 219.04 490.00, 228.55 490.00 C 238.05 490.00, 247.55 490.00, 257.05 490.00 C 266.56 489.98, 276.06 489.92, 285.56 489.91 C 295.07 489.89, 304.57 489.91, 314.07 489.91 C 323.58 489.91, 333.08 489.94, 342.58 489.91 C 352.08 489.87, 361.59 489.72, 371.09 489.69 C 380.59 489.65, 390.10 489.70, 399.60 489.69 C 409.10 489.67, 418.61 489.62, 428.11 489.61 C 437.61 489.59, 447.12 490.00, 456.62 489.61 C 466.12 488.99, 475.62 486.51, 485.13 485.89 C 494.63 485.28, 504.13 485.91, 513.64 485.91 C 523.14 485.91, 532.64 485.90, 542.15 485.90 C 551.65 485.90, 561.15 490.00, 570.65 485.89 C 580.16 443.28, 589.66 274.96, 599.16 230.27 C 608.67 185.59, 618.17 219.88, 627.67 217.78 C 637.18 215.68, 646.68 218.05, 656.18 217.69 C 665.68 217.33, 675.19 216.22, 684.69 215.61 C 694.19 215.00, 703.70 214.42, 713.20 214.05 C 722.70 213.67, 732.21 213.51, 741.71 213.37 C 751.21 213.23, 760.72 213.54, 770.22 213.21 C 779.72 212.88, 789.22 211.70, 798.73 211.39 C 808.23 211.09, 817.73 211.39, 827.24 211.39 C 836.74 211.39, 846.24 211.45, 855.75 211.38 C 865.25 211.31, 874.75 211.03, 884.25 210.96 C 893.76 210.89, 903.26 210.96, 912.76 210.96 C 922.27 210.95, 931.77 210.95, 941.27 210.94 C 950.78 210.94, 960.28 210.92, 969.78 210.92 C 979.28 210.92, 988.79 211.38, 998.29 210.94 C 1007.79 210.50, 1017.30 208.73, 1026.80 208.29 C 1036.30 207.84, 1045.81 208.30, 1055.31 208.29 C 1064.81 208.27, 1074.32 208.21, 1083.82 208.20 C 1093.32 208.18, 1102.82 208.18, 1112.33 208.17 C 1121.83 208.17, 1131.33 208.16, 1140.84 208.16 C 1150.34 208.15, 1159.84 208.15, 1169.35 208.15 C 1178.85 208.14, 1188.35 208.13, 1197.85 208.12 C 1207.36 208.12, 1216.86 208.20, 1226.36 208.11 C 1235.87 208.01, 1245.37 207.65, 1254.87 207.56 C 1264.38 207.47, 1273.88 207.55, 1283.38 207.55 C 1292.88 207.55, 1302.39 207.54, 1311.89 207.54 C 1321.39 207.53, 1330.90 207.53, 1340.40 207.52 C 1349.90 207.52, 1359.41 207.51, 1368.91 207.50 C 1378.41 207.49, 1387.92 207.49, 1397.42 207.49 C 1406.92 207.49, 1416.42 207.49, 1425.93 207.49 C 1435.43 207.49, 1444.93 207.50, 1454.44 207.48 C 1463.94 207.46, 1473.44 207.41, 1482.95 207.39 C 1492.45 207.37, 1501.95 207.38, 1511.45 207.37 C 1520.96 207.37, 1530.46 207.71, 1539.96 207.35 C 1549.47 207.00, 1558.97 205.59, 1568.47 205.24 C 1577.98 204.89, 1587.48 211.15, 1596.98 205.24 C 1606.48 199.33, 1615.99 175.76, 1625.49 169.76 C 1634.99 163.76, 1649.25 169.32, 1654.00 169.24 L 1654.00 490 L 86.00 490 Z" fill="url(#areaFill)"/>
  <path d="M 86.00 490.00 C 90.75 490.00, 105.01 490.00, 114.51 490.00 C 124.01 490.00, 133.52 490.00, 143.02 490.00 C 152.52 490.00, 162.02 490.00, 171.53 490.00 C 181.03 490.00, 190.53 490.00, 200.04 490.00 C 209.54 490.00, 219.04 490.00, 228.55 490.00 C 238.05 490.00, 247.55 490.00, 257.05 490.00 C 266.56 489.98, 276.06 489.92, 285.56 489.91 C 295.07 489.89, 304.57 489.91, 314.07 489.91 C 323.58 489.91, 333.08 489.94, 342.58 489.91 C 352.08 489.87, 361.59 489.72, 371.09 489.69 C 380.59 489.65, 390.10 489.70, 399.60 489.69 C 409.10 489.67, 418.61 489.62, 428.11 489.61 C 437.61 489.59, 447.12 490.00, 456.62 489.61 C 466.12 488.99, 475.62 486.51, 485.13 485.89 C 494.63 485.28, 504.13 485.91, 513.64 485.91 C 523.14 485.91, 532.64 485.90, 542.15 485.90 C 551.65 485.90, 561.15 490.00, 570.65 485.89 C 580.16 443.28, 589.66 274.96, 599.16 230.27 C 608.67 185.59, 618.17 219.88, 627.67 217.78 C 637.18 215.68, 646.68 218.05, 656.18 217.69 C 665.68 217.33, 675.19 216.22, 684.69 215.61 C 694.19 215.00, 703.70 214.42, 713.20 214.05 C 722.70 213.67, 732.21 213.51, 741.71 213.37 C 751.21 213.23, 760.72 213.54, 770.22 213.21 C 779.72 212.88, 789.22 211.70, 798.73 211.39 C 808.23 211.09, 817.73 211.39, 827.24 211.39 C 836.74 211.39, 846.24 211.45, 855.75 211.38 C 865.25 211.31, 874.75 211.03, 884.25 210.96 C 893.76 210.89, 903.26 210.96, 912.76 210.96 C 922.27 210.95, 931.77 210.95, 941.27 210.94 C 950.78 210.94, 960.28 210.92, 969.78 210.92 C 979.28 210.92, 988.79 211.38, 998.29 210.94 C 1007.79 210.50, 1017.30 208.73, 1026.80 208.29 C 1036.30 207.84, 1045.81 208.30, 1055.31 208.29 C 1064.81 208.27, 1074.32 208.21, 1083.82 208.20 C 1093.32 208.18, 1102.82 208.18, 1112.33 208.17 C 1121.83 208.17, 1131.33 208.16, 1140.84 208.16 C 1150.34 208.15, 1159.84 208.15, 1169.35 208.15 C 1178.85 208.14, 1188.35 208.13, 1197.85 208.12 C 1207.36 208.12, 1216.86 208.20, 1226.36 208.11 C 1235.87 208.01, 1245.37 207.65, 1254.87 207.56 C 1264.38 207.47, 1273.88 207.55, 1283.38 207.55 C 1292.88 207.55, 1302.39 207.54, 1311.89 207.54 C 1321.39 207.53, 1330.90 207.53, 1340.40 207.52 C 1349.90 207.52, 1359.41 207.51, 1368.91 207.50 C 1378.41 207.49, 1387.92 207.49, 1397.42 207.49 C 1406.92 207.49, 1416.42 207.49, 1425.93 207.49 C 1435.43 207.49, 1444.93 207.50, 1454.44 207.48 C 1463.94 207.46, 1473.44 207.41, 1482.95 207.39 C 1492.45 207.37, 1501.95 207.38, 1511.45 207.37 C 1520.96 207.37, 1530.46 207.71, 1539.96 207.35 C 1549.47 207.00, 1558.97 205.59, 1568.47 205.24 C 1577.98 204.89, 1587.48 211.15, 1596.98 205.24 C 1606.48 199.33, 1615.99 175.76, 1625.49 169.76 C 1634.99 163.76, 1649.25 169.32, 1654.00 169.24" fill="none" stroke="#4a90e2" stroke-width="2" stroke-opacity="0.7"/>

  <!-- Bars -->
  <rect x="477.4" y="312.5" width="15.400000000000002" height="88.1"
        fill="url(#gDelBar)" rx="2" opacity="0.78"/><rect x="477.4" y="400.6" width="15.400000000000002" height="89.4"
        fill="url(#gAddBar)" rx="2" opacity="0.82"/><rect x="591.5" y="392.5" width="15.400000000000002" height="2.7"
        fill="url(#gDelBar)" rx="2" opacity="0.78"/><rect x="591.5" y="395.2" width="15.400000000000002" height="94.8"
        fill="url(#gAddBar)" rx="2" opacity="0.82"/><rect x="620.0" y="476.3" width="15.400000000000002" height="4.6"
        fill="url(#gDelBar)" rx="2" opacity="0.78"/><rect x="620.0" y="480.9" width="15.400000000000002" height="9.1"
        fill="url(#gAddBar)" rx="2" opacity="0.82"/><rect x="677.0" y="487.5" width="15.400000000000002" height="0.9"
        fill="url(#gDelBar)" rx="2" opacity="0.78"/><rect x="677.0" y="488.4" width="15.400000000000002" height="1.6"
        fill="url(#gAddBar)" rx="2" opacity="0.82"/><rect x="705.5" y="487.5" width="15.400000000000002" height="1.0"
        fill="url(#gDelBar)" rx="2" opacity="0.78"/><rect x="705.5" y="488.5" width="15.400000000000002" height="1.5"
        fill="url(#gAddBar)" rx="2" opacity="0.82"/><rect x="762.5" y="487.6" width="15.400000000000002" height="1.2"
        fill="url(#gDelBar)" rx="2" opacity="0.78"/><rect x="762.5" y="488.8" width="15.400000000000002" height="1.2"
        fill="url(#gAddBar)" rx="2" opacity="0.82"/><rect x="791.0" y="486.1" width="15.400000000000002" height="1.6"
        fill="url(#gDelBar)" rx="2" opacity="0.78"/><rect x="791.0" y="487.7" width="15.400000000000002" height="2.3"
        fill="url(#gAddBar)" rx="2" opacity="0.82"/><rect x="1019.1" y="488.8" width="15.400000000000002" height="1.2"
        fill="url(#gAddBar)" rx="2" opacity="0.82"/><rect x="1247.2" y="488.7" width="15.400000000000002" height="0.5"
        fill="url(#gDelBar)" rx="2" opacity="0.78"/><rect x="1247.2" y="489.3" width="15.400000000000002" height="0.7"
        fill="url(#gAddBar)" rx="2" opacity="0.82"/><rect x="1560.8" y="479.7" width="15.400000000000002" height="4.8"
        fill="url(#gDelBar)" rx="2" opacity="0.78"/><rect x="1560.8" y="484.5" width="15.400000000000002" height="5.5"
        fill="url(#gAddBar)" rx="2" opacity="0.82"/><rect x="1617.8" y="472.3" width="15.400000000000002" height="2.5"
        fill="url(#gDelBar)" rx="2" opacity="0.78"/><rect x="1617.8" y="474.8" width="15.400000000000002" height="15.2"
        fill="url(#gAddBar)" rx="2" opacity="0.82"/>

  <!-- Commits line — glow + crisp -->
  <path d="M 86.00 485.50 C 90.75 486.25, 105.01 489.25, 114.51 490.00 C 124.01 490.00, 133.52 490.00, 143.02 490.00 C 152.52 490.00, 162.02 490.00, 171.53 490.00 C 181.03 490.00, 190.53 490.00, 200.04 490.00 C 209.54 490.00, 219.04 490.00, 228.55 490.00 C 238.05 490.00, 247.55 490.00, 257.05 490.00 C 266.56 482.50, 276.06 445.00, 285.56 445.00 C 295.07 445.00, 304.57 482.50, 314.07 490.00 C 323.58 490.00, 333.08 490.00, 342.58 490.00 C 352.08 470.50, 361.59 373.00, 371.09 373.00 C 380.59 373.00, 390.10 471.25, 399.60 490.00 C 409.10 490.00, 418.61 485.50, 428.11 485.50 C 437.61 485.50, 447.12 490.00, 456.62 490.00 C 466.12 466.75, 475.62 351.25, 485.13 346.00 C 494.63 340.75, 504.13 436.75, 513.64 458.50 C 523.14 480.25, 532.64 472.00, 542.15 476.50 C 551.65 481.00, 561.15 490.00, 570.65 485.50 C 580.16 438.25, 589.66 225.25, 599.16 193.00 C 608.67 160.75, 618.17 244.00, 627.67 292.00 C 637.18 340.00, 646.68 460.00, 656.18 481.00 C 665.68 490.00, 675.19 427.00, 684.69 418.00 C 694.19 409.00, 703.70 416.50, 713.20 427.00 C 722.70 437.50, 732.21 488.50, 741.71 481.00 C 751.21 473.50, 760.72 394.00, 770.22 382.00 C 779.72 370.00, 789.22 391.75, 798.73 409.00 C 808.23 426.25, 817.73 472.75, 827.24 485.50 C 836.74 490.00, 846.24 490.00, 855.75 485.50 C 865.25 479.50, 874.75 449.50, 884.25 449.50 C 893.76 449.50, 903.26 479.50, 912.76 485.50 C 922.27 490.00, 931.77 485.50, 941.27 485.50 C 950.78 485.50, 960.28 485.50, 969.78 485.50 C 979.28 485.50, 988.79 487.75, 998.29 485.50 C 1007.79 483.25, 1017.30 472.00, 1026.80 472.00 C 1036.30 472.00, 1045.81 483.25, 1055.31 485.50 C 1064.81 487.75, 1074.32 485.50, 1083.82 485.50 C 1093.32 485.50, 1102.82 485.50, 1112.33 485.50 C 1121.83 485.50, 1131.33 485.50, 1140.84 485.50 C 1150.34 485.50, 1159.84 485.50, 1169.35 485.50 C 1178.85 485.50, 1188.35 485.50, 1197.85 485.50 C 1207.36 485.50, 1216.86 487.00, 1226.36 485.50 C 1235.87 484.00, 1245.37 476.50, 1254.87 476.50 C 1264.38 476.50, 1273.88 484.00, 1283.38 485.50 C 1292.88 487.00, 1302.39 485.50, 1311.89 485.50 C 1321.39 485.50, 1330.90 485.50, 1340.40 485.50 C 1349.90 485.50, 1359.41 485.50, 1368.91 485.50 C 1378.41 485.50, 1387.92 485.50, 1397.42 485.50 C 1406.92 485.50, 1416.42 485.50, 1425.93 485.50 C 1435.43 485.50, 1444.93 485.50, 1454.44 485.50 C 1463.94 485.50, 1473.44 485.50, 1482.95 485.50 C 1492.45 485.50, 1501.95 485.50, 1511.45 485.50 C 1520.96 485.50, 1530.46 489.25, 1539.96 485.50 C 1549.47 481.75, 1558.97 463.00, 1568.47 463.00 C 1577.98 463.00, 1587.48 490.00, 1596.98 485.50 C 1606.48 460.75, 1615.99 316.75, 1625.49 314.50 C 1634.99 312.25, 1649.25 445.75, 1654.00 472.00" fill="none" stroke="#ff8c42" stroke-width="9" stroke-opacity="0.06" filter="url(#glowLine)"/>
  <path d="M 86.00 485.50 C 90.75 486.25, 105.01 489.25, 114.51 490.00 C 124.01 490.00, 133.52 490.00, 143.02 490.00 C 152.52 490.00, 162.02 490.00, 171.53 490.00 C 181.03 490.00, 190.53 490.00, 200.04 490.00 C 209.54 490.00, 219.04 490.00, 228.55 490.00 C 238.05 490.00, 247.55 490.00, 257.05 490.00 C 266.56 482.50, 276.06 445.00, 285.56 445.00 C 295.07 445.00, 304.57 482.50, 314.07 490.00 C 323.58 490.00, 333.08 490.00, 342.58 490.00 C 352.08 470.50, 361.59 373.00, 371.09 373.00 C 380.59 373.00, 390.10 471.25, 399.60 490.00 C 409.10 490.00, 418.61 485.50, 428.11 485.50 C 437.61 485.50, 447.12 490.00, 456.62 490.00 C 466.12 466.75, 475.62 351.25, 485.13 346.00 C 494.63 340.75, 504.13 436.75, 513.64 458.50 C 523.14 480.25, 532.64 472.00, 542.15 476.50 C 551.65 481.00, 561.15 490.00, 570.65 485.50 C 580.16 438.25, 589.66 225.25, 599.16 193.00 C 608.67 160.75, 618.17 244.00, 627.67 292.00 C 637.18 340.00, 646.68 460.00, 656.18 481.00 C 665.68 490.00, 675.19 427.00, 684.69 418.00 C 694.19 409.00, 703.70 416.50, 713.20 427.00 C 722.70 437.50, 732.21 488.50, 741.71 481.00 C 751.21 473.50, 760.72 394.00, 770.22 382.00 C 779.72 370.00, 789.22 391.75, 798.73 409.00 C 808.23 426.25, 817.73 472.75, 827.24 485.50 C 836.74 490.00, 846.24 490.00, 855.75 485.50 C 865.25 479.50, 874.75 449.50, 884.25 449.50 C 893.76 449.50, 903.26 479.50, 912.76 485.50 C 922.27 490.00, 931.77 485.50, 941.27 485.50 C 950.78 485.50, 960.28 485.50, 969.78 485.50 C 979.28 485.50, 988.79 487.75, 998.29 485.50 C 1007.79 483.25, 1017.30 472.00, 1026.80 472.00 C 1036.30 472.00, 1045.81 483.25, 1055.31 485.50 C 1064.81 487.75, 1074.32 485.50, 1083.82 485.50 C 1093.32 485.50, 1102.82 485.50, 1112.33 485.50 C 1121.83 485.50, 1131.33 485.50, 1140.84 485.50 C 1150.34 485.50, 1159.84 485.50, 1169.35 485.50 C 1178.85 485.50, 1188.35 485.50, 1197.85 485.50 C 1207.36 485.50, 1216.86 487.00, 1226.36 485.50 C 1235.87 484.00, 1245.37 476.50, 1254.87 476.50 C 1264.38 476.50, 1273.88 484.00, 1283.38 485.50 C 1292.88 487.00, 1302.39 485.50, 1311.89 485.50 C 1321.39 485.50, 1330.90 485.50, 1340.40 485.50 C 1349.90 485.50, 1359.41 485.50, 1368.91 485.50 C 1378.41 485.50, 1387.92 485.50, 1397.42 485.50 C 1406.92 485.50, 1416.42 485.50, 1425.93 485.50 C 1435.43 485.50, 1444.93 485.50, 1454.44 485.50 C 1463.94 485.50, 1473.44 485.50, 1482.95 485.50 C 1492.45 485.50, 1501.95 485.50, 1511.45 485.50 C 1520.96 485.50, 1530.46 489.25, 1539.96 485.50 C 1549.47 481.75, 1558.97 463.00, 1568.47 463.00 C 1577.98 463.00, 1587.48 490.00, 1596.98 485.50 C 1606.48 460.75, 1615.99 316.75, 1625.49 314.50 C 1634.99 312.25, 1649.25 445.75, 1654.00 472.00" fill="none" stroke="url(#gCommits)" stroke-width="2.8" stroke-linecap="round"/>

  <!-- Changes/commit line -->
  <path d="M 86.00 489.93 C 90.75 489.94, 105.01 489.99, 114.51 490.00 C 124.01 490.00, 133.52 490.00, 143.02 490.00 C 152.52 490.00, 162.02 490.00, 171.53 490.00 C 181.03 490.00, 190.53 490.00, 200.04 490.00 C 209.54 490.00, 219.04 490.00, 228.55 490.00 C 238.05 490.00, 247.55 490.00, 257.05 490.00 C 266.56 489.95, 276.06 489.71, 285.56 489.71 C 295.07 489.71, 304.57 489.95, 314.07 490.00 C 323.58 490.00, 333.08 490.00, 342.58 490.00 C 352.08 489.96, 361.59 489.78, 371.09 489.78 C 380.59 489.78, 390.10 490.00, 399.60 490.00 C 409.10 489.77, 418.61 488.42, 428.11 488.42 C 437.61 488.42, 447.12 490.00, 456.62 490.00 C 466.12 438.92, 475.62 182.09, 485.13 181.91 C 494.63 181.73, 504.13 438.20, 513.64 488.92 C 523.14 490.00, 532.64 486.70, 542.15 486.26 C 551.65 485.81, 561.15 490.00, 570.65 486.26 C 580.16 473.20, 589.66 410.19, 599.16 407.92 C 608.67 405.65, 618.17 461.38, 627.67 472.65 C 637.18 483.92, 646.68 474.09, 656.18 475.53 C 665.68 476.97, 675.19 480.53, 684.69 481.29 C 694.19 482.04, 703.70 480.17, 713.20 480.06 C 722.70 479.96, 732.21 479.92, 741.71 480.64 C 751.21 481.36, 760.72 484.82, 770.22 484.38 C 779.72 483.95, 789.22 478.14, 798.73 478.05 C 808.23 477.95, 817.73 484.36, 827.24 483.81 C 836.74 483.26, 846.24 474.42, 855.75 474.74 C 865.25 475.05, 874.75 484.02, 884.25 485.68 C 893.76 487.34, 903.26 486.62, 912.76 484.67 C 922.27 482.73, 931.77 475.96, 941.27 474.02 C 950.78 472.07, 960.28 473.18, 969.78 473.01 C 979.28 472.84, 988.79 473.43, 998.29 473.01 C 1007.79 472.59, 1017.30 468.62, 1026.80 470.49 C 1036.30 472.36, 1045.81 485.20, 1055.31 484.24 C 1064.81 483.28, 1074.32 466.82, 1083.82 464.73 C 1093.32 462.64, 1102.82 470.57, 1112.33 471.71 C 1121.83 472.85, 1131.33 471.59, 1140.84 471.57 C 1150.34 471.54, 1159.84 471.64, 1169.35 471.57 C 1178.85 471.50, 1188.35 471.30, 1197.85 471.14 C 1207.36 470.97, 1216.86 471.32, 1226.36 470.56 C 1235.87 469.80, 1245.37 464.30, 1254.87 466.60 C 1264.38 468.90, 1273.88 483.87, 1283.38 484.38 C 1292.88 484.90, 1302.39 472.22, 1311.89 469.70 C 1321.39 467.18, 1330.90 469.46, 1340.40 469.26 C 1349.90 469.07, 1359.41 468.74, 1368.91 468.54 C 1378.41 468.35, 1387.92 468.16, 1397.42 468.11 C 1406.92 468.06, 1416.42 468.33, 1425.93 468.26 C 1435.43 468.18, 1444.93 469.40, 1454.44 467.68 C 1463.94 465.96, 1473.44 457.94, 1482.95 457.96 C 1492.45 457.98, 1501.95 469.54, 1511.45 467.82 C 1520.96 466.11, 1530.46 459.93, 1539.96 447.66 C 1549.47 435.40, 1558.97 388.14, 1568.47 394.24 C 1577.98 400.34, 1587.48 472.48, 1596.98 484.24 C 1606.48 490.00, 1615.99 465.08, 1625.49 464.80 C 1634.99 464.52, 1649.25 479.62, 1654.00 482.58" fill="none" stroke="#00d4f5" stroke-width="9" stroke-opacity="0.06" filter="url(#glowLine)"/>
  <path d="M 86.00 489.93 C 90.75 489.94, 105.01 489.99, 114.51 490.00 C 124.01 490.00, 133.52 490.00, 143.02 490.00 C 152.52 490.00, 162.02 490.00, 171.53 490.00 C 181.03 490.00, 190.53 490.00, 200.04 490.00 C 209.54 490.00, 219.04 490.00, 228.55 490.00 C 238.05 490.00, 247.55 490.00, 257.05 490.00 C 266.56 489.95, 276.06 489.71, 285.56 489.71 C 295.07 489.71, 304.57 489.95, 314.07 490.00 C 323.58 490.00, 333.08 490.00, 342.58 490.00 C 352.08 489.96, 361.59 489.78, 371.09 489.78 C 380.59 489.78, 390.10 490.00, 399.60 490.00 C 409.10 489.77, 418.61 488.42, 428.11 488.42 C 437.61 488.42, 447.12 490.00, 456.62 490.00 C 466.12 438.92, 475.62 182.09, 485.13 181.91 C 494.63 181.73, 504.13 438.20, 513.64 488.92 C 523.14 490.00, 532.64 486.70, 542.15 486.26 C 551.65 485.81, 561.15 490.00, 570.65 486.26 C 580.16 473.20, 589.66 410.19, 599.16 407.92 C 608.67 405.65, 618.17 461.38, 627.67 472.65 C 637.18 483.92, 646.68 474.09, 656.18 475.53 C 665.68 476.97, 675.19 480.53, 684.69 481.29 C 694.19 482.04, 703.70 480.17, 713.20 480.06 C 722.70 479.96, 732.21 479.92, 741.71 480.64 C 751.21 481.36, 760.72 484.82, 770.22 484.38 C 779.72 483.95, 789.22 478.14, 798.73 478.05 C 808.23 477.95, 817.73 484.36, 827.24 483.81 C 836.74 483.26, 846.24 474.42, 855.75 474.74 C 865.25 475.05, 874.75 484.02, 884.25 485.68 C 893.76 487.34, 903.26 486.62, 912.76 484.67 C 922.27 482.73, 931.77 475.96, 941.27 474.02 C 950.78 472.07, 960.28 473.18, 969.78 473.01 C 979.28 472.84, 988.79 473.43, 998.29 473.01 C 1007.79 472.59, 1017.30 468.62, 1026.80 470.49 C 1036.30 472.36, 1045.81 485.20, 1055.31 484.24 C 1064.81 483.28, 1074.32 466.82, 1083.82 464.73 C 1093.32 462.64, 1102.82 470.57, 1112.33 471.71 C 1121.83 472.85, 1131.33 471.59, 1140.84 471.57 C 1150.34 471.54, 1159.84 471.64, 1169.35 471.57 C 1178.85 471.50, 1188.35 471.30, 1197.85 471.14 C 1207.36 470.97, 1216.86 471.32, 1226.36 470.56 C 1235.87 469.80, 1245.37 464.30, 1254.87 466.60 C 1264.38 468.90, 1273.88 483.87, 1283.38 484.38 C 1292.88 484.90, 1302.39 472.22, 1311.89 469.70 C 1321.39 467.18, 1330.90 469.46, 1340.40 469.26 C 1349.90 469.07, 1359.41 468.74, 1368.91 468.54 C 1378.41 468.35, 1387.92 468.16, 1397.42 468.11 C 1406.92 468.06, 1416.42 468.33, 1425.93 468.26 C 1435.43 468.18, 1444.93 469.40, 1454.44 467.68 C 1463.94 465.96, 1473.44 457.94, 1482.95 457.96 C 1492.45 457.98, 1501.95 469.54, 1511.45 467.82 C 1520.96 466.11, 1530.46 459.93, 1539.96 447.66 C 1549.47 435.40, 1558.97 388.14, 1568.47 394.24 C 1577.98 400.34, 1587.48 472.48, 1596.98 484.24 C 1606.48 490.00, 1615.99 465.08, 1625.49 464.80 C 1634.99 464.52, 1649.25 479.62, 1654.00 482.58" fill="none" stroke="url(#gChanges)" stroke-width="2.5" stroke-linecap="round"/>

  <!-- Moving averages -->
  <path d="M 86.00 488.88 C 90.75 488.91, 105.01 489.04, 114.51 489.10 C 124.01 489.16, 133.52 489.21, 143.02 489.25 C 152.52 489.29, 162.02 490.00, 171.53 489.36 C 181.03 488.41, 190.53 484.54, 200.04 483.57 C 209.54 482.61, 219.04 483.57, 228.55 483.57 C 238.05 483.57, 247.55 486.36, 257.05 483.57 C 266.56 480.79, 276.06 469.64, 285.56 466.86 C 295.07 464.07, 304.57 466.96, 314.07 466.86 C 323.58 466.75, 333.08 466.32, 342.58 466.21 C 352.08 466.11, 361.59 468.57, 371.09 466.21 C 380.59 463.86, 390.10 455.18, 399.60 452.07 C 409.10 448.96, 418.61 448.64, 428.11 447.57 C 437.61 446.50, 447.12 443.29, 456.62 445.64 C 466.12 448.00, 475.62 466.11, 485.13 461.71 C 494.63 457.32, 504.13 430.96, 513.64 419.29 C 523.14 407.61, 532.64 396.46, 542.15 391.64 C 551.65 386.82, 561.15 388.86, 570.65 390.36 C 580.16 391.86, 589.66 399.68, 599.16 400.64 C 608.67 401.61, 618.17 396.79, 627.67 396.14 C 637.18 395.50, 646.68 399.14, 656.18 396.79 C 665.68 394.43, 675.19 379.32, 684.69 382.00 C 694.19 384.68, 703.70 403.11, 713.20 412.86 C 722.70 422.61, 732.21 435.79, 741.71 440.50 C 751.21 445.21, 760.72 440.29, 770.22 441.14 C 779.72 442.00, 789.22 443.50, 798.73 445.64 C 808.23 447.79, 817.73 452.50, 827.24 454.00 C 836.74 455.50, 846.24 452.07, 855.75 454.64 C 865.25 457.21, 874.75 465.14, 884.25 469.43 C 893.76 473.71, 903.26 478.86, 912.76 480.36 C 922.27 481.86, 931.77 478.75, 941.27 478.43 C 950.78 478.11, 960.28 477.57, 969.78 478.43 C 979.28 479.29, 988.79 482.71, 998.29 483.57 C 1007.79 484.43, 1017.30 483.57, 1026.80 483.57 C 1036.30 483.57, 1045.81 483.57, 1055.31 483.57 C 1064.81 483.57, 1074.32 483.57, 1083.82 483.57 C 1093.32 483.57, 1102.82 483.25, 1112.33 483.57 C 1121.83 483.89, 1131.33 485.39, 1140.84 485.50 C 1150.34 485.61, 1159.84 484.43, 1169.35 484.21 C 1178.85 484.00, 1188.35 484.21, 1197.85 484.21 C 1207.36 484.21, 1216.86 484.21, 1226.36 484.21 C 1235.87 484.21, 1245.37 484.21, 1254.87 484.21 C 1264.38 484.21, 1273.88 484.21, 1283.38 484.21 C 1292.88 484.21, 1302.39 484.21, 1311.89 484.21 C 1321.39 484.21, 1330.90 484.00, 1340.40 484.21 C 1349.90 484.43, 1359.41 485.29, 1368.91 485.50 C 1378.41 485.71, 1387.92 485.50, 1397.42 485.50 C 1406.92 485.50, 1416.42 485.50, 1425.93 485.50 C 1435.43 485.50, 1444.93 486.04, 1454.44 485.50 C 1463.94 484.96, 1473.44 482.82, 1482.95 482.29 C 1492.45 481.75, 1501.95 486.36, 1511.45 482.29 C 1520.96 478.21, 1530.46 462.25, 1539.96 457.86 C 1549.47 453.46, 1558.97 457.07, 1568.47 455.93 C 1577.98 454.79, 1587.48 452.97, 1596.98 451.00 C 1606.48 449.03, 1615.99 446.98, 1625.49 444.10 C 1634.99 441.23, 1649.25 435.48, 1654.00 433.75" fill="none" stroke="#a78bfa" stroke-width="2" stroke-dasharray="6,4" stroke-opacity="0.55" filter="url(#glowMA)"/>
  <path d="M 86.00 489.98 C 90.75 489.98, 105.01 489.98, 114.51 489.99 C 124.01 489.99, 133.52 489.99, 143.02 489.99 C 152.52 489.99, 162.02 489.99, 171.53 489.99 C 181.03 489.98, 190.53 489.96, 200.04 489.96 C 209.54 489.95, 219.04 489.96, 228.55 489.96 C 238.05 489.96, 247.55 489.96, 257.05 489.96 C 266.56 489.95, 276.06 489.93, 285.56 489.93 C 295.07 489.92, 304.57 489.97, 314.07 489.93 C 323.58 489.89, 333.08 489.74, 342.58 489.70 C 352.08 489.66, 361.59 490.00, 371.09 489.70 C 380.59 482.37, 390.10 453.08, 399.60 445.73 C 409.10 438.38, 418.61 445.69, 428.11 445.58 C 437.61 445.46, 447.12 445.21, 456.62 445.04 C 466.12 444.87, 475.62 446.58, 485.13 444.54 C 494.63 442.50, 504.13 435.14, 513.64 432.81 C 523.14 430.48, 532.64 431.28, 542.15 430.56 C 551.65 429.84, 561.15 421.71, 570.65 428.49 C 580.16 435.27, 589.66 464.34, 599.16 471.26 C 608.67 478.18, 618.17 470.34, 627.67 469.99 C 637.18 469.65, 646.68 469.37, 656.18 469.19 C 665.68 469.01, 675.19 467.30, 684.69 468.92 C 694.19 470.55, 703.70 477.01, 713.20 478.94 C 722.70 480.88, 732.21 480.29, 741.71 480.54 C 751.21 480.78, 760.72 480.34, 770.22 480.42 C 779.72 480.51, 789.22 480.84, 798.73 481.05 C 808.23 481.27, 817.73 481.76, 827.24 481.71 C 836.74 481.66, 846.24 481.19, 855.75 480.76 C 865.25 480.33, 874.75 479.53, 884.25 479.14 C 893.76 478.75, 903.26 478.86, 912.76 478.42 C 922.27 477.98, 931.77 476.61, 941.27 476.52 C 950.78 476.42, 960.28 478.15, 969.78 477.87 C 979.28 477.60, 988.79 475.69, 998.29 474.88 C 1007.79 474.07, 1017.30 473.40, 1026.80 473.03 C 1036.30 472.66, 1045.81 472.77, 1055.31 472.68 C 1064.81 472.59, 1074.32 472.55, 1083.82 472.47 C 1093.32 472.39, 1102.82 472.25, 1112.33 472.21 C 1121.83 472.16, 1131.33 472.63, 1140.84 472.22 C 1150.34 471.80, 1159.84 469.65, 1169.35 469.70 C 1178.85 469.74, 1188.35 472.08, 1197.85 472.50 C 1207.36 472.92, 1216.86 472.32, 1226.36 472.22 C 1235.87 472.11, 1245.37 472.01, 1254.87 471.89 C 1264.38 471.76, 1273.88 471.60, 1283.38 471.45 C 1292.88 471.31, 1302.39 471.15, 1311.89 471.02 C 1321.39 470.90, 1330.90 470.72, 1340.40 470.69 C 1349.90 470.66, 1359.41 471.45, 1368.91 470.85 C 1378.41 470.24, 1387.92 467.75, 1397.42 467.07 C 1406.92 466.40, 1416.42 467.36, 1425.93 466.81 C 1435.43 466.25, 1444.93 466.00, 1454.44 463.72 C 1463.94 461.44, 1473.44 454.49, 1482.95 453.11 C 1492.45 451.72, 1501.95 455.11, 1511.45 455.41 C 1520.96 455.71, 1530.46 454.64, 1539.96 454.92 C 1549.47 455.19, 1558.97 456.72, 1568.47 457.04 C 1577.98 457.37, 1587.48 457.28, 1596.98 456.89 C 1606.48 456.50, 1615.99 454.78, 1625.49 454.71 C 1634.99 454.63, 1649.25 456.17, 1654.00 456.47" fill="none" stroke="#c4b5fd" stroke-width="1.5" stroke-dasharray="5,4" stroke-opacity="0.4"/>

  <!-- Statistical overlay -->
  <line x1="86" y1="455.2" x2="1654" y2="455.2"
      stroke="#ff8c42" stroke-width="1" stroke-dasharray="8,4" opacity="0.3"/>
    <text x="1666" y="449.2" font-size="8" fill="#ff8c42"
      text-anchor="start" font-family="'Lexend','Segoe UI',sans-serif" font-weight="300" opacity="0.6">μ=7.7</text>

  <!-- Data point circles (inside clip for safety) -->
  <circle cx="86.0" cy="485.5" r="3.0"
        fill="#ff8c42" stroke="#ffd0a0" stroke-width="1" filter="url(#glowOrange)" opacity="0.9">
        <title>2026-03-10: 1 commits</title></circle><circle cx="285.6" cy="445.0" r="3.3"
        fill="#ff8c42" stroke="#ffd0a0" stroke-width="1" filter="url(#glowOrange)" opacity="0.9">
        <title>2026-03-17: 10 commits</title></circle><circle cx="371.1" cy="373.0" r="3.8"
        fill="#ff8c42" stroke="#ffd0a0" stroke-width="1" filter="url(#glowOrange)" opacity="0.9">
        <title>2026-03-20: 26 commits</title></circle><circle cx="428.1" cy="485.5" r="3.0"
        fill="#ff8c42" stroke="#ffd0a0" stroke-width="1" filter="url(#glowOrange)" opacity="0.9">
        <title>2026-03-22: 1 commits</title></circle><circle cx="485.1" cy="346.0" r="4.0"
        fill="#ff8c42" stroke="#ffd0a0" stroke-width="1" filter="url(#glowOrange)" opacity="0.9">
        <title>2026-03-24: 32 commits</title></circle><circle cx="513.6" cy="458.5" r="3.2"
        fill="#ff8c42" stroke="#ffd0a0" stroke-width="1" filter="url(#glowOrange)" opacity="0.9">
        <title>2026-03-25: 7 commits</title></circle><circle cx="542.1" cy="476.5" r="3.1"
        fill="#ff8c42" stroke="#ffd0a0" stroke-width="1" filter="url(#glowOrange)" opacity="0.9">
        <title>2026-03-26: 3 commits</title></circle><circle cx="570.7" cy="485.5" r="3.0"
        fill="#ff8c42" stroke="#ffd0a0" stroke-width="1" filter="url(#glowOrange)" opacity="0.9">
        <title>2026-03-27: 1 commits</title></circle><circle cx="599.2" cy="193.0" r="5.1"
        fill="#ff8c42" stroke="#ffd0a0" stroke-width="1" filter="url(#glowOrange)" opacity="0.9">
        <title>2026-03-28: 66 commits</title></circle><circle cx="627.7" cy="292.0" r="4.4"
        fill="#ff8c42" stroke="#ffd0a0" stroke-width="1" filter="url(#glowOrange)" opacity="0.9">
        <title>2026-03-29: 44 commits</title></circle><circle cx="656.2" cy="481.0" r="3.1"
        fill="#ff8c42" stroke="#ffd0a0" stroke-width="1" filter="url(#glowOrange)" opacity="0.9">
        <title>2026-03-30: 2 commits</title></circle><circle cx="684.7" cy="418.0" r="3.5"
        fill="#ff8c42" stroke="#ffd0a0" stroke-width="1" filter="url(#glowOrange)" opacity="0.9">
        <title>2026-03-31: 16 commits</title></circle><circle cx="713.2" cy="427.0" r="3.4"
        fill="#ff8c42" stroke="#ffd0a0" stroke-width="1" filter="url(#glowOrange)" opacity="0.9">
        <title>2026-04-01: 14 commits</title></circle><circle cx="741.7" cy="481.0" r="3.1"
        fill="#ff8c42" stroke="#ffd0a0" stroke-width="1" filter="url(#glowOrange)" opacity="0.9">
        <title>2026-04-02: 2 commits</title></circle><circle cx="770.2" cy="382.0" r="3.8"
        fill="#ff8c42" stroke="#ffd0a0" stroke-width="1" filter="url(#glowOrange)" opacity="0.9">
        <title>2026-04-03: 24 commits</title></circle><circle cx="798.7" cy="409.0" r="3.6"
        fill="#ff8c42" stroke="#ffd0a0" stroke-width="1" filter="url(#glowOrange)" opacity="0.9">
        <title>2026-04-04: 18 commits</title></circle><circle cx="827.2" cy="485.5" r="3.0"
        fill="#ff8c42" stroke="#ffd0a0" stroke-width="1" filter="url(#glowOrange)" opacity="0.9">
        <title>2026-04-05: 1 commits</title></circle><circle cx="855.7" cy="485.5" r="3.0"
        fill="#ff8c42" stroke="#ffd0a0" stroke-width="1" filter="url(#glowOrange)" opacity="0.9">
        <title>2026-04-06: 1 commits</title></circle><circle cx="884.3" cy="449.5" r="3.3"
        fill="#ff8c42" stroke="#ffd0a0" stroke-width="1" filter="url(#glowOrange)" opacity="0.9">
        <title>2026-04-07: 9 commits</title></circle><circle cx="912.8" cy="485.5" r="3.0"
        fill="#ff8c42" stroke="#ffd0a0" stroke-width="1" filter="url(#glowOrange)" opacity="0.9">
        <title>2026-04-08: 1 commits</title></circle><circle cx="941.3" cy="485.5" r="3.0"
        fill="#ff8c42" stroke="#ffd0a0" stroke-width="1" filter="url(#glowOrange)" opacity="0.9">
        <title>2026-04-09: 1 commits</title></circle><circle cx="969.8" cy="485.5" r="3.0"
        fill="#ff8c42" stroke="#ffd0a0" stroke-width="1" filter="url(#glowOrange)" opacity="0.9">
        <title>2026-04-10: 1 commits</title></circle><circle cx="998.3" cy="485.5" r="3.0"
        fill="#ff8c42" stroke="#ffd0a0" stroke-width="1" filter="url(#glowOrange)" opacity="0.9">
        <title>2026-04-11: 1 commits</title></circle><circle cx="1026.8" cy="472.0" r="3.1"
        fill="#ff8c42" stroke="#ffd0a0" stroke-width="1" filter="url(#glowOrange)" opacity="0.9">
        <title>2026-04-12: 4 commits</title></circle><circle cx="1055.3" cy="485.5" r="3.0"
        fill="#ff8c42" stroke="#ffd0a0" stroke-width="1" filter="url(#glowOrange)" opacity="0.9">
        <title>2026-04-13: 1 commits</title></circle><circle cx="1083.8" cy="485.5" r="3.0"
        fill="#ff8c42" stroke="#ffd0a0" stroke-width="1" filter="url(#glowOrange)" opacity="0.9">
        <title>2026-04-14: 1 commits</title></circle><circle cx="1112.3" cy="485.5" r="3.0"
        fill="#ff8c42" stroke="#ffd0a0" stroke-width="1" filter="url(#glowOrange)" opacity="0.9">
        <title>2026-04-15: 1 commits</title></circle><circle cx="1140.8" cy="485.5" r="3.0"
        fill="#ff8c42" stroke="#ffd0a0" stroke-width="1" filter="url(#glowOrange)" opacity="0.9">
        <title>2026-04-16: 1 commits</title></circle><circle cx="1169.3" cy="485.5" r="3.0"
        fill="#ff8c42" stroke="#ffd0a0" stroke-width="1" filter="url(#glowOrange)" opacity="0.9">
        <title>2026-04-17: 1 commits</title></circle><circle cx="1197.9" cy="485.5" r="3.0"
        fill="#ff8c42" stroke="#ffd0a0" stroke-width="1" filter="url(#glowOrange)" opacity="0.9">
        <title>2026-04-18: 1 commits</title></circle><circle cx="1226.4" cy="485.5" r="3.0"
        fill="#ff8c42" stroke="#ffd0a0" stroke-width="1" filter="url(#glowOrange)" opacity="0.9">
        <title>2026-04-19: 1 commits</title></circle><circle cx="1254.9" cy="476.5" r="3.1"
        fill="#ff8c42" stroke="#ffd0a0" stroke-width="1" filter="url(#glowOrange)" opacity="0.9">
        <title>2026-04-20: 3 commits</title></circle><circle cx="1283.4" cy="485.5" r="3.0"
        fill="#ff8c42" stroke="#ffd0a0" stroke-width="1" filter="url(#glowOrange)" opacity="0.9">
        <title>2026-04-21: 1 commits</title></circle><circle cx="1311.9" cy="485.5" r="3.0"
        fill="#ff8c42" stroke="#ffd0a0" stroke-width="1" filter="url(#glowOrange)" opacity="0.9">
        <title>2026-04-22: 1 commits</title></circle><circle cx="1340.4" cy="485.5" r="3.0"
        fill="#ff8c42" stroke="#ffd0a0" stroke-width="1" filter="url(#glowOrange)" opacity="0.9">
        <title>2026-04-23: 1 commits</title></circle><circle cx="1368.9" cy="485.5" r="3.0"
        fill="#ff8c42" stroke="#ffd0a0" stroke-width="1" filter="url(#glowOrange)" opacity="0.9">
        <title>2026-04-24: 1 commits</title></circle><circle cx="1397.4" cy="485.5" r="3.0"
        fill="#ff8c42" stroke="#ffd0a0" stroke-width="1" filter="url(#glowOrange)" opacity="0.9">
        <title>2026-04-25: 1 commits</title></circle><circle cx="1425.9" cy="485.5" r="3.0"
        fill="#ff8c42" stroke="#ffd0a0" stroke-width="1" filter="url(#glowOrange)" opacity="0.9">
        <title>2026-04-26: 1 commits</title></circle><circle cx="1454.4" cy="485.5" r="3.0"
        fill="#ff8c42" stroke="#ffd0a0" stroke-width="1" filter="url(#glowOrange)" opacity="0.9">
        <title>2026-04-27: 1 commits</title></circle><circle cx="1482.9" cy="485.5" r="3.0"
        fill="#ff8c42" stroke="#ffd0a0" stroke-width="1" filter="url(#glowOrange)" opacity="0.9">
        <title>2026-04-28: 1 commits</title></circle><circle cx="1511.5" cy="485.5" r="3.0"
        fill="#ff8c42" stroke="#ffd0a0" stroke-width="1" filter="url(#glowOrange)" opacity="0.9">
        <title>2026-04-29: 1 commits</title></circle><circle cx="1540.0" cy="485.5" r="3.0"
        fill="#ff8c42" stroke="#ffd0a0" stroke-width="1" filter="url(#glowOrange)" opacity="0.9">
        <title>2026-04-30: 1 commits</title></circle><circle cx="1568.5" cy="463.0" r="3.2"
        fill="#ff8c42" stroke="#ffd0a0" stroke-width="1" filter="url(#glowOrange)" opacity="0.9">
        <title>2026-05-01: 6 commits</title></circle><circle cx="1597.0" cy="485.5" r="3.0"
        fill="#ff8c42" stroke="#ffd0a0" stroke-width="1" filter="url(#glowOrange)" opacity="0.9">
        <title>2026-05-02: 1 commits</title></circle><circle cx="1625.5" cy="314.5" r="4.2"
        fill="#ff8c42" stroke="#ffd0a0" stroke-width="1" filter="url(#glowOrange)" opacity="0.9">
        <title>2026-05-03: 39 commits</title></circle><circle cx="1654.0" cy="472.0" r="3.1"
        fill="#ff8c42" stroke="#ffd0a0" stroke-width="1" filter="url(#glowOrange)" opacity="0.9">
        <title>2026-05-04: 4 commits</title></circle>
  <circle cx="86.0" cy="489.9" r="3.5"
        fill="#00d4f5" stroke="#80eeff" stroke-width="0.8" filter="url(#glowCyan)" opacity="0.85">
        <title>2026-03-10: 1 changes/commit</title></circle><circle cx="285.6" cy="489.7" r="3.5"
        fill="#00d4f5" stroke="#80eeff" stroke-width="0.8" filter="url(#glowCyan)" opacity="0.85">
        <title>2026-03-17: 4 changes/commit</title></circle><circle cx="371.1" cy="489.8" r="3.5"
        fill="#00d4f5" stroke="#80eeff" stroke-width="0.8" filter="url(#glowCyan)" opacity="0.85">
        <title>2026-03-20: 3 changes/commit</title></circle><circle cx="428.1" cy="488.4" r="3.5"
        fill="#00d4f5" stroke="#80eeff" stroke-width="0.8" filter="url(#glowCyan)" opacity="0.85">
        <title>2026-03-22: 22 changes/commit</title></circle><circle cx="485.1" cy="181.9" r="3.5"
        fill="#00d4f5" stroke="#80eeff" stroke-width="0.8" filter="url(#glowCyan)" opacity="0.85">
        <title>2026-03-24: 4279 changes/commit</title></circle><circle cx="513.6" cy="488.9" r="3.5"
        fill="#00d4f5" stroke="#80eeff" stroke-width="0.8" filter="url(#glowCyan)" opacity="0.85">
        <title>2026-03-25: 15 changes/commit</title></circle><circle cx="542.1" cy="486.3" r="3.5"
        fill="#00d4f5" stroke="#80eeff" stroke-width="0.8" filter="url(#glowCyan)" opacity="0.85">
        <title>2026-03-26: 52 changes/commit</title></circle><circle cx="570.7" cy="486.3" r="3.5"
        fill="#00d4f5" stroke="#80eeff" stroke-width="0.8" filter="url(#glowCyan)" opacity="0.85">
        <title>2026-03-27: 52 changes/commit</title></circle><circle cx="599.2" cy="407.9" r="3.5"
        fill="#00d4f5" stroke="#80eeff" stroke-width="0.8" filter="url(#glowCyan)" opacity="0.85">
        <title>2026-03-28: 1140 changes/commit</title></circle><circle cx="627.7" cy="472.6" r="3.5"
        fill="#00d4f5" stroke="#80eeff" stroke-width="0.8" filter="url(#glowCyan)" opacity="0.85">
        <title>2026-03-29: 241 changes/commit</title></circle><circle cx="656.2" cy="475.5" r="3.5"
        fill="#00d4f5" stroke="#80eeff" stroke-width="0.8" filter="url(#glowCyan)" opacity="0.85">
        <title>2026-03-30: 201 changes/commit</title></circle><circle cx="684.7" cy="481.3" r="3.5"
        fill="#00d4f5" stroke="#80eeff" stroke-width="0.8" filter="url(#glowCyan)" opacity="0.85">
        <title>2026-03-31: 121 changes/commit</title></circle><circle cx="713.2" cy="480.1" r="3.5"
        fill="#00d4f5" stroke="#80eeff" stroke-width="0.8" filter="url(#glowCyan)" opacity="0.85">
        <title>2026-04-01: 138 changes/commit</title></circle><circle cx="741.7" cy="480.6" r="3.5"
        fill="#00d4f5" stroke="#80eeff" stroke-width="0.8" filter="url(#glowCyan)" opacity="0.85">
        <title>2026-04-02: 130 changes/commit</title></circle><circle cx="770.2" cy="484.4" r="3.5"
        fill="#00d4f5" stroke="#80eeff" stroke-width="0.8" filter="url(#glowCyan)" opacity="0.85">
        <title>2026-04-03: 78 changes/commit</title></circle><circle cx="798.7" cy="478.0" r="3.5"
        fill="#00d4f5" stroke="#80eeff" stroke-width="0.8" filter="url(#glowCyan)" opacity="0.85">
        <title>2026-04-04: 166 changes/commit</title></circle><circle cx="827.2" cy="483.8" r="3.5"
        fill="#00d4f5" stroke="#80eeff" stroke-width="0.8" filter="url(#glowCyan)" opacity="0.85">
        <title>2026-04-05: 86 changes/commit</title></circle><circle cx="855.7" cy="474.7" r="3.5"
        fill="#00d4f5" stroke="#80eeff" stroke-width="0.8" filter="url(#glowCyan)" opacity="0.85">
        <title>2026-04-06: 212 changes/commit</title></circle><circle cx="884.3" cy="485.7" r="3.5"
        fill="#00d4f5" stroke="#80eeff" stroke-width="0.8" filter="url(#glowCyan)" opacity="0.85">
        <title>2026-04-07: 60 changes/commit</title></circle><circle cx="912.8" cy="484.7" r="3.5"
        fill="#00d4f5" stroke="#80eeff" stroke-width="0.8" filter="url(#glowCyan)" opacity="0.85">
        <title>2026-04-08: 74 changes/commit</title></circle><circle cx="941.3" cy="474.0" r="3.5"
        fill="#00d4f5" stroke="#80eeff" stroke-width="0.8" filter="url(#glowCyan)" opacity="0.85">
        <title>2026-04-09: 222 changes/commit</title></circle><circle cx="969.8" cy="473.0" r="3.5"
        fill="#00d4f5" stroke="#80eeff" stroke-width="0.8" filter="url(#glowCyan)" opacity="0.85">
        <title>2026-04-10: 236 changes/commit</title></circle><circle cx="998.3" cy="473.0" r="3.5"
        fill="#00d4f5" stroke="#80eeff" stroke-width="0.8" filter="url(#glowCyan)" opacity="0.85">
        <title>2026-04-11: 236 changes/commit</title></circle><circle cx="1026.8" cy="470.5" r="3.5"
        fill="#00d4f5" stroke="#80eeff" stroke-width="0.8" filter="url(#glowCyan)" opacity="0.85">
        <title>2026-04-12: 271 changes/commit</title></circle><circle cx="1055.3" cy="484.2" r="3.5"
        fill="#00d4f5" stroke="#80eeff" stroke-width="0.8" filter="url(#glowCyan)" opacity="0.85">
        <title>2026-04-13: 80 changes/commit</title></circle><circle cx="1083.8" cy="464.7" r="3.5"
        fill="#00d4f5" stroke="#80eeff" stroke-width="0.8" filter="url(#glowCyan)" opacity="0.85">
        <title>2026-04-14: 351 changes/commit</title></circle><circle cx="1112.3" cy="471.7" r="3.5"
        fill="#00d4f5" stroke="#80eeff" stroke-width="0.8" filter="url(#glowCyan)" opacity="0.85">
        <title>2026-04-15: 254 changes/commit</title></circle><circle cx="1140.8" cy="471.6" r="3.5"
        fill="#00d4f5" stroke="#80eeff" stroke-width="0.8" filter="url(#glowCyan)" opacity="0.85">
        <title>2026-04-16: 256 changes/commit</title></circle><circle cx="1169.3" cy="471.6" r="3.5"
        fill="#00d4f5" stroke="#80eeff" stroke-width="0.8" filter="url(#glowCyan)" opacity="0.85">
        <title>2026-04-17: 256 changes/commit</title></circle><circle cx="1197.9" cy="471.1" r="3.5"
        fill="#00d4f5" stroke="#80eeff" stroke-width="0.8" filter="url(#glowCyan)" opacity="0.85">
        <title>2026-04-18: 262 changes/commit</title></circle><circle cx="1226.4" cy="470.6" r="3.5"
        fill="#00d4f5" stroke="#80eeff" stroke-width="0.8" filter="url(#glowCyan)" opacity="0.85">
        <title>2026-04-19: 270 changes/commit</title></circle><circle cx="1254.9" cy="466.6" r="3.5"
        fill="#00d4f5" stroke="#80eeff" stroke-width="0.8" filter="url(#glowCyan)" opacity="0.85">
        <title>2026-04-20: 325 changes/commit</title></circle><circle cx="1283.4" cy="484.4" r="3.5"
        fill="#00d4f5" stroke="#80eeff" stroke-width="0.8" filter="url(#glowCyan)" opacity="0.85">
        <title>2026-04-21: 78 changes/commit</title></circle><circle cx="1311.9" cy="469.7" r="3.5"
        fill="#00d4f5" stroke="#80eeff" stroke-width="0.8" filter="url(#glowCyan)" opacity="0.85">
        <title>2026-04-22: 282 changes/commit</title></circle><circle cx="1340.4" cy="469.3" r="3.5"
        fill="#00d4f5" stroke="#80eeff" stroke-width="0.8" filter="url(#glowCyan)" opacity="0.85">
        <title>2026-04-23: 288 changes/commit</title></circle><circle cx="1368.9" cy="468.5" r="3.5"
        fill="#00d4f5" stroke="#80eeff" stroke-width="0.8" filter="url(#glowCyan)" opacity="0.85">
        <title>2026-04-24: 298 changes/commit</title></circle><circle cx="1397.4" cy="468.1" r="3.5"
        fill="#00d4f5" stroke="#80eeff" stroke-width="0.8" filter="url(#glowCyan)" opacity="0.85">
        <title>2026-04-25: 304 changes/commit</title></circle><circle cx="1425.9" cy="468.3" r="3.5"
        fill="#00d4f5" stroke="#80eeff" stroke-width="0.8" filter="url(#glowCyan)" opacity="0.85">
        <title>2026-04-26: 302 changes/commit</title></circle><circle cx="1454.4" cy="467.7" r="3.5"
        fill="#00d4f5" stroke="#80eeff" stroke-width="0.8" filter="url(#glowCyan)" opacity="0.85">
        <title>2026-04-27: 310 changes/commit</title></circle><circle cx="1482.9" cy="458.0" r="3.5"
        fill="#00d4f5" stroke="#80eeff" stroke-width="0.8" filter="url(#glowCyan)" opacity="0.85">
        <title>2026-04-28: 445 changes/commit</title></circle><circle cx="1511.5" cy="467.8" r="3.5"
        fill="#00d4f5" stroke="#80eeff" stroke-width="0.8" filter="url(#glowCyan)" opacity="0.85">
        <title>2026-04-29: 308 changes/commit</title></circle><circle cx="1540.0" cy="447.7" r="3.5"
        fill="#00d4f5" stroke="#80eeff" stroke-width="0.8" filter="url(#glowCyan)" opacity="0.85">
        <title>2026-04-30: 588 changes/commit</title></circle><circle cx="1568.5" cy="394.2" r="3.5"
        fill="#00d4f5" stroke="#80eeff" stroke-width="0.8" filter="url(#glowCyan)" opacity="0.85">
        <title>2026-05-01: 1330 changes/commit</title></circle><circle cx="1597.0" cy="484.2" r="3.5"
        fill="#00d4f5" stroke="#80eeff" stroke-width="0.8" filter="url(#glowCyan)" opacity="0.85">
        <title>2026-05-02: 80 changes/commit</title></circle><circle cx="1625.5" cy="464.8" r="3.5"
        fill="#00d4f5" stroke="#80eeff" stroke-width="0.8" filter="url(#glowCyan)" opacity="0.85">
        <title>2026-05-03: 350 changes/commit</title></circle><circle cx="1654.0" cy="482.6" r="3.5"
        fill="#00d4f5" stroke="#80eeff" stroke-width="0.8" filter="url(#glowCyan)" opacity="0.85">
        <title>2026-05-04: 103 changes/commit</title></circle>
</g>

<!-- ════ ANNOTATIONS ════ -->

        <line x1="599.2" y1="181.0"
          x2="599.2" y2="172.0"
          stroke="#2563eb" stroke-width="1.2" stroke-dasharray="4,4" opacity="0.65"/>
        <rect x="534.2" y="148.0"
          width="130" height="24" rx="6"
          fill="#030e26" stroke="#2563eb" stroke-width="1" opacity="0.96"/>
        <text x="599.2" y="164.0"
          font-size="10" fill="#93c5fd" text-anchor="middle"
          font-family="'Lexend','Segoe UI',sans-serif" font-weight="400"
          letter-spacing="0.5">⬡  Peak · 66 commits</text>
        <line x1="485.1" y1="494" x2="1654.0" y2="494"
          stroke="#f472b6" stroke-width="2.5" stroke-linecap="round" opacity="0.7"/>
        <circle cx="485.1" cy="494" r="3" fill="#f472b6" opacity="0.9"/>
        <circle cx="1654.0" cy="494" r="3" fill="#f472b6" opacity="0.9"/>
        <text x="1069.6" y="508" font-size="8.5" fill="#f472b6"
          text-anchor="middle" font-family="'Lexend','Segoe UI',sans-serif"
          font-weight="400" opacity="0.85">🔥 42-day streak</text>
        <line x1="485.1" y1="130" x2="485.1" y2="490"
          stroke="#f472b6" stroke-width="0.8" stroke-dasharray="3,6" opacity="0.35"/>

<!-- ════ CORNER BRACKETS ════ -->
<path d="M 86 152.0 L 86 130 L 108.0 130"
      fill="none" stroke="#4a90e2" stroke-width="2" stroke-opacity="0.85" stroke-linecap="round"/><path d="M 1654 152.0 L 1654 130 L 1632.0 130"
      fill="none" stroke="#4a90e2" stroke-width="2" stroke-opacity="0.85" stroke-linecap="round"/><path d="M 86 468.0 L 86 490 L 108.0 490"
      fill="none" stroke="#4a90e2" stroke-width="2" stroke-opacity="0.85" stroke-linecap="round"/><path d="M 1654 468.0 L 1654 490 L 1632.0 490"
      fill="none" stroke="#4a90e2" stroke-width="2" stroke-opacity="0.85" stroke-linecap="round"/>

<!-- ════ HEATMAP ════ -->
<text x="866" y="646" font-size="11" fill="#3d7ed4"
    text-anchor="middle" font-family="'Lexend','Segoe UI',sans-serif"
    letter-spacing="3" font-weight="400">CONTRIBUTION  CALENDAR</text><text x="801" y="686"
        font-size="9" fill="#3d7ed4" text-anchor="end"
        font-family="'Lexend','Segoe UI',sans-serif" font-weight="300">M</text><text x="801" y="716"
        font-size="9" fill="#3d7ed4" text-anchor="end"
        font-family="'Lexend','Segoe UI',sans-serif" font-weight="300">W</text><text x="801" y="746"
        font-size="9" fill="#3d7ed4" text-anchor="end"
        font-family="'Lexend','Segoe UI',sans-serif" font-weight="300">F</text><rect x="807.0" y="660.0"
        width="12" height="12" rx="2.5" fill="#0a1630"
        stroke="#0d2464" stroke-width="0.5" stroke-opacity="0.4">
        <title>2026-03-08: 0 commits</title></rect><rect x="807.0" y="675.0"
        width="12" height="12" rx="2.5" fill="#0a1630"
        stroke="#0d2464" stroke-width="0.5" stroke-opacity="0.4">
        <title>2026-03-09: 0 commits</title></rect><rect x="807.0" y="690.0"
        width="12" height="12" rx="2.5" fill="#0d3068"
        stroke="#0d2464" stroke-width="0.5" stroke-opacity="0.4">
        <title>2026-03-10: 1 commits</title></rect><rect x="807.0" y="705.0"
        width="12" height="12" rx="2.5" fill="#0a1630"
        stroke="#0d2464" stroke-width="0.5" stroke-opacity="0.4">
        <title>2026-03-11: 0 commits</title></rect><rect x="807.0" y="720.0"
        width="12" height="12" rx="2.5" fill="#0a1630"
        stroke="#0d2464" stroke-width="0.5" stroke-opacity="0.4">
        <title>2026-03-12: 0 commits</title></rect><rect x="807.0" y="735.0"
        width="12" height="12" rx="2.5" fill="#0a1630"
        stroke="#0d2464" stroke-width="0.5" stroke-opacity="0.4">
        <title>2026-03-13: 0 commits</title></rect><rect x="807.0" y="750.0"
        width="12" height="12" rx="2.5" fill="#0a1630"
        stroke="#0d2464" stroke-width="0.5" stroke-opacity="0.4">
        <title>2026-03-14: 0 commits</title></rect><rect x="822.0" y="660.0"
        width="12" height="12" rx="2.5" fill="#0a1630"
        stroke="#0d2464" stroke-width="0.5" stroke-opacity="0.4">
        <title>2026-03-15: 0 commits</title></rect><rect x="822.0" y="675.0"
        width="12" height="12" rx="2.5" fill="#0a1630"
        stroke="#0d2464" stroke-width="0.5" stroke-opacity="0.4">
        <title>2026-03-16: 0 commits</title></rect><rect x="822.0" y="690.0"
        width="12" height="12" rx="2.5" fill="#0d3068"
        stroke="#0d2464" stroke-width="0.5" stroke-opacity="0.4">
        <title>2026-03-17: 10 commits</title></rect><rect x="822.0" y="705.0"
        width="12" height="12" rx="2.5" fill="#0a1630"
        stroke="#0d2464" stroke-width="0.5" stroke-opacity="0.4">
        <title>2026-03-18: 0 commits</title></rect><rect x="822.0" y="720.0"
        width="12" height="12" rx="2.5" fill="#0a1630"
        stroke="#0d2464" stroke-width="0.5" stroke-opacity="0.4">
        <title>2026-03-19: 0 commits</title></rect><rect x="822.0" y="735.0"
        width="12" height="12" rx="2.5" fill="#1e56a8"
        stroke="#0d2464" stroke-width="0.5" stroke-opacity="0.4">
        <title>2026-03-20: 26 commits</title></rect><rect x="822.0" y="750.0"
        width="12" height="12" rx="2.5" fill="#0a1630"
        stroke="#0d2464" stroke-width="0.5" stroke-opacity="0.4">
        <title>2026-03-21: 0 commits</title></rect><rect x="837.0" y="660.0"
        width="12" height="12" rx="2.5" fill="#0d3068"
        stroke="#0d2464" stroke-width="0.5" stroke-opacity="0.4">
        <title>2026-03-22: 1 commits</title></rect><rect x="837.0" y="675.0"
        width="12" height="12" rx="2.5" fill="#0a1630"
        stroke="#0d2464" stroke-width="0.5" stroke-opacity="0.4">
        <title>2026-03-23: 0 commits</title></rect><rect x="837.0" y="690.0"
        width="12" height="12" rx="2.5" fill="#1e56a8"
        stroke="#0d2464" stroke-width="0.5" stroke-opacity="0.4">
        <title>2026-03-24: 32 commits</title></rect><rect x="837.0" y="705.0"
        width="12" height="12" rx="2.5" fill="#0d3068"
        stroke="#0d2464" stroke-width="0.5" stroke-opacity="0.4">
        <title>2026-03-25: 7 commits</title></rect><rect x="837.0" y="720.0"
        width="12" height="12" rx="2.5" fill="#0d3068"
        stroke="#0d2464" stroke-width="0.5" stroke-opacity="0.4">
        <title>2026-03-26: 3 commits</title></rect><rect x="837.0" y="735.0"
        width="12" height="12" rx="2.5" fill="#0d3068"
        stroke="#0d2464" stroke-width="0.5" stroke-opacity="0.4">
        <title>2026-03-27: 1 commits</title></rect><rect x="837.0" y="750.0"
        width="12" height="12" rx="2.5" fill="#93c5fd"
        stroke="#0d2464" stroke-width="0.5" stroke-opacity="0.4">
        <title>2026-03-28: 66 commits</title></rect><rect x="852.0" y="660.0"
        width="12" height="12" rx="2.5" fill="#3b82f6"
        stroke="#0d2464" stroke-width="0.5" stroke-opacity="0.4">
        <title>2026-03-29: 44 commits</title></rect><rect x="852.0" y="675.0"
        width="12" height="12" rx="2.5" fill="#0d3068"
        stroke="#0d2464" stroke-width="0.5" stroke-opacity="0.4">
        <title>2026-03-30: 2 commits</title></rect><rect x="852.0" y="690.0"
        width="12" height="12" rx="2.5" fill="#0d3068"
        stroke="#0d2464" stroke-width="0.5" stroke-opacity="0.4">
        <title>2026-03-31: 16 commits</title></rect><rect x="852.0" y="705.0"
        width="12" height="12" rx="2.5" fill="#0d3068"
        stroke="#0d2464" stroke-width="0.5" stroke-opacity="0.4">
        <title>2026-04-01: 14 commits</title></rect><rect x="852.0" y="720.0"
        width="12" height="12" rx="2.5" fill="#0d3068"
        stroke="#0d2464" stroke-width="0.5" stroke-opacity="0.4">
        <title>2026-04-02: 2 commits</title></rect><rect x="852.0" y="735.0"
        width="12" height="12" rx="2.5" fill="#1e56a8"
        stroke="#0d2464" stroke-width="0.5" stroke-opacity="0.4">
        <title>2026-04-03: 24 commits</title></rect><rect x="852.0" y="750.0"
        width="12" height="12" rx="2.5" fill="#1e56a8"
        stroke="#0d2464" stroke-width="0.5" stroke-opacity="0.4">
        <title>2026-04-04: 18 commits</title></rect><text x="852.0" y="656" font-size="8.5" fill="#3d7ed4"
        font-family="'Lexend','Segoe UI',sans-serif" font-weight="300">Apr</text><rect x="867.0" y="660.0"
        width="12" height="12" rx="2.5" fill="#0d3068"
        stroke="#0d2464" stroke-width="0.5" stroke-opacity="0.4">
        <title>2026-04-05: 1 commits</title></rect><rect x="867.0" y="675.0"
        width="12" height="12" rx="2.5" fill="#0d3068"
        stroke="#0d2464" stroke-width="0.5" stroke-opacity="0.4">
        <title>2026-04-06: 1 commits</title></rect><rect x="867.0" y="690.0"
        width="12" height="12" rx="2.5" fill="#0d3068"
        stroke="#0d2464" stroke-width="0.5" stroke-opacity="0.4">
        <title>2026-04-07: 9 commits</title></rect><rect x="867.0" y="705.0"
        width="12" height="12" rx="2.5" fill="#0d3068"
        stroke="#0d2464" stroke-width="0.5" stroke-opacity="0.4">
        <title>2026-04-08: 1 commits</title></rect><rect x="867.0" y="720.0"
        width="12" height="12" rx="2.5" fill="#0d3068"
        stroke="#0d2464" stroke-width="0.5" stroke-opacity="0.4">
        <title>2026-04-09: 1 commits</title></rect><rect x="867.0" y="735.0"
        width="12" height="12" rx="2.5" fill="#0d3068"
        stroke="#0d2464" stroke-width="0.5" stroke-opacity="0.4">
        <title>2026-04-10: 1 commits</title></rect><rect x="867.0" y="750.0"
        width="12" height="12" rx="2.5" fill="#0d3068"
        stroke="#0d2464" stroke-width="0.5" stroke-opacity="0.4">
        <title>2026-04-11: 1 commits</title></rect><rect x="882.0" y="660.0"
        width="12" height="12" rx="2.5" fill="#0d3068"
        stroke="#0d2464" stroke-width="0.5" stroke-opacity="0.4">
        <title>2026-04-12: 4 commits</title></rect><rect x="882.0" y="675.0"
        width="12" height="12" rx="2.5" fill="#0d3068"
        stroke="#0d2464" stroke-width="0.5" stroke-opacity="0.4">
        <title>2026-04-13: 1 commits</title></rect><rect x="882.0" y="690.0"
        width="12" height="12" rx="2.5" fill="#0d3068"
        stroke="#0d2464" stroke-width="0.5" stroke-opacity="0.4">
        <title>2026-04-14: 1 commits</title></rect><rect x="882.0" y="705.0"
        width="12" height="12" rx="2.5" fill="#0d3068"
        stroke="#0d2464" stroke-width="0.5" stroke-opacity="0.4">
        <title>2026-04-15: 1 commits</title></rect><rect x="882.0" y="720.0"
        width="12" height="12" rx="2.5" fill="#0d3068"
        stroke="#0d2464" stroke-width="0.5" stroke-opacity="0.4">
        <title>2026-04-16: 1 commits</title></rect><rect x="882.0" y="735.0"
        width="12" height="12" rx="2.5" fill="#0d3068"
        stroke="#0d2464" stroke-width="0.5" stroke-opacity="0.4">
        <title>2026-04-17: 1 commits</title></rect><rect x="882.0" y="750.0"
        width="12" height="12" rx="2.5" fill="#0d3068"
        stroke="#0d2464" stroke-width="0.5" stroke-opacity="0.4">
        <title>2026-04-18: 1 commits</title></rect><rect x="897.0" y="660.0"
        width="12" height="12" rx="2.5" fill="#0d3068"
        stroke="#0d2464" stroke-width="0.5" stroke-opacity="0.4">
        <title>2026-04-19: 1 commits</title></rect><rect x="897.0" y="675.0"
        width="12" height="12" rx="2.5" fill="#0d3068"
        stroke="#0d2464" stroke-width="0.5" stroke-opacity="0.4">
        <title>2026-04-20: 3 commits</title></rect><rect x="897.0" y="690.0"
        width="12" height="12" rx="2.5" fill="#0d3068"
        stroke="#0d2464" stroke-width="0.5" stroke-opacity="0.4">
        <title>2026-04-21: 1 commits</title></rect><rect x="897.0" y="705.0"
        width="12" height="12" rx="2.5" fill="#0d3068"
        stroke="#0d2464" stroke-width="0.5" stroke-opacity="0.4">
        <title>2026-04-22: 1 commits</title></rect><rect x="897.0" y="720.0"
        width="12" height="12" rx="2.5" fill="#0d3068"
        stroke="#0d2464" stroke-width="0.5" stroke-opacity="0.4">
        <title>2026-04-23: 1 commits</title></rect><rect x="897.0" y="735.0"
        width="12" height="12" rx="2.5" fill="#0d3068"
        stroke="#0d2464" stroke-width="0.5" stroke-opacity="0.4">
        <title>2026-04-24: 1 commits</title></rect><rect x="897.0" y="750.0"
        width="12" height="12" rx="2.5" fill="#0d3068"
        stroke="#0d2464" stroke-width="0.5" stroke-opacity="0.4">
        <title>2026-04-25: 1 commits</title></rect><rect x="912.0" y="660.0"
        width="12" height="12" rx="2.5" fill="#0d3068"
        stroke="#0d2464" stroke-width="0.5" stroke-opacity="0.4">
        <title>2026-04-26: 1 commits</title></rect><rect x="912.0" y="675.0"
        width="12" height="12" rx="2.5" fill="#0d3068"
        stroke="#0d2464" stroke-width="0.5" stroke-opacity="0.4">
        <title>2026-04-27: 1 commits</title></rect><rect x="912.0" y="690.0"
        width="12" height="12" rx="2.5" fill="#0d3068"
        stroke="#0d2464" stroke-width="0.5" stroke-opacity="0.4">
        <title>2026-04-28: 1 commits</title></rect><rect x="912.0" y="705.0"
        width="12" height="12" rx="2.5" fill="#0d3068"
        stroke="#0d2464" stroke-width="0.5" stroke-opacity="0.4">
        <title>2026-04-29: 1 commits</title></rect><rect x="912.0" y="720.0"
        width="12" height="12" rx="2.5" fill="#0d3068"
        stroke="#0d2464" stroke-width="0.5" stroke-opacity="0.4">
        <title>2026-04-30: 1 commits</title></rect><rect x="912.0" y="735.0"
        width="12" height="12" rx="2.5" fill="#0d3068"
        stroke="#0d2464" stroke-width="0.5" stroke-opacity="0.4">
        <title>2026-05-01: 6 commits</title></rect><rect x="912.0" y="750.0"
        width="12" height="12" rx="2.5" fill="#0d3068"
        stroke="#0d2464" stroke-width="0.5" stroke-opacity="0.4">
        <title>2026-05-02: 1 commits</title></rect><text x="912.0" y="656" font-size="8.5" fill="#3d7ed4"
        font-family="'Lexend','Segoe UI',sans-serif" font-weight="300">May</text><rect x="927.0" y="660.0"
        width="12" height="12" rx="2.5" fill="#3b82f6"
        stroke="#0d2464" stroke-width="0.5" stroke-opacity="0.4">
        <title>2026-05-03: 39 commits</title></rect><rect x="927.0" y="675.0"
        width="12" height="12" rx="2.5" fill="#0d3068"
        stroke="#0d2464" stroke-width="0.5" stroke-opacity="0.4">
        <title>2026-05-04: 4 commits</title></rect><rect x="927.0" y="690.0"
        width="12" height="12" rx="2.5" fill="#0a1630"
        stroke="#0d2464" stroke-width="0.5" stroke-opacity="0.4">
        <title>2026-05-05: 0 commits</title></rect><rect x="927.0" y="705.0"
        width="12" height="12" rx="2.5" fill="#0a1630"
        stroke="#0d2464" stroke-width="0.5" stroke-opacity="0.4">
        <title>2026-05-06: 0 commits</title></rect><rect x="927.0" y="720.0"
        width="12" height="12" rx="2.5" fill="#0a1630"
        stroke="#0d2464" stroke-width="0.5" stroke-opacity="0.4">
        <title>2026-05-07: 0 commits</title></rect><rect x="927.0" y="735.0"
        width="12" height="12" rx="2.5" fill="#0a1630"
        stroke="#0d2464" stroke-width="0.5" stroke-opacity="0.4">
        <title>2026-05-08: 0 commits</title></rect><rect x="927.0" y="750.0"
        width="12" height="12" rx="2.5" fill="#0a1630"
        stroke="#0d2464" stroke-width="0.5" stroke-opacity="0.4">
        <title>2026-05-09: 0 commits</title></rect><rect x="942.0" y="660.0"
        width="12" height="12" rx="2.5" fill="#0a1630"
        stroke="#0d2464" stroke-width="0.5" stroke-opacity="0.4">
        <title>2026-05-10: 0 commits</title></rect><rect x="942.0" y="675.0"
        width="12" height="12" rx="2.5" fill="#0a1630"
        stroke="#0d2464" stroke-width="0.5" stroke-opacity="0.4">
        <title>2026-05-11: 0 commits</title></rect><rect x="942.0" y="690.0"
        width="12" height="12" rx="2.5" fill="#0a1630"
        stroke="#0d2464" stroke-width="0.5" stroke-opacity="0.4">
        <title>2026-05-12: 0 commits</title></rect><rect x="942.0" y="705.0"
        width="12" height="12" rx="2.5" fill="#0a1630"
        stroke="#0d2464" stroke-width="0.5" stroke-opacity="0.4">
        <title>2026-05-13: 0 commits</title></rect><rect x="942.0" y="720.0"
        width="12" height="12" rx="2.5" fill="#0a1630"
        stroke="#0d2464" stroke-width="0.5" stroke-opacity="0.4">
        <title>2026-05-14: 0 commits</title></rect><rect x="942.0" y="735.0"
        width="12" height="12" rx="2.5" fill="#0a1630"
        stroke="#0d2464" stroke-width="0.5" stroke-opacity="0.4">
        <title>2026-05-15: 0 commits</title></rect><rect x="942.0" y="750.0"
        width="12" height="12" rx="2.5" fill="#0a1630"
        stroke="#0d2464" stroke-width="0.5" stroke-opacity="0.4">
        <title>2026-05-16: 0 commits</title></rect>

<!-- ════ BOTTOM PANELS ════ -->

    <rect x="86" y="823" width="320" height="110"
      rx="4" fill="#030e26" fill-opacity="0.6" stroke="#1a3f7a" stroke-width="0.8"/>
    <text x="246" y="819" font-size="8" fill="#3d7ed4"
      text-anchor="middle" font-family="'Lexend','Segoe UI',sans-serif"
      letter-spacing="2" font-weight="300">OVERVIEW</text>
    <g clip-path="url(#minimapClip)">
      <path d="M 86.00 931.58 C 86.97 931.82, 89.88 932.76, 91.82 933.00 C 93.76 933.24, 95.70 933.00, 97.64 933.00 C 99.58 933.00, 101.52 933.00, 103.45 933.00 C 105.39 933.00, 107.33 933.00, 109.27 933.00 C 111.21 933.00, 113.15 933.00, 115.09 933.00 C 117.03 933.00, 118.97 935.36, 120.91 933.00 C 122.85 930.64, 124.79 918.83, 126.73 918.83 C 128.67 918.83, 130.61 930.64, 132.55 933.00 C 134.48 935.36, 136.42 939.14, 138.36 933.00 C 140.30 926.86, 142.24 896.17, 144.18 896.17 C 146.12 896.17, 148.06 927.10, 150.00 933.00 C 151.94 938.90, 153.88 931.58, 155.82 931.58 C 157.76 931.58, 159.70 940.32, 161.64 933.00 C 163.58 925.68, 165.52 889.32, 167.45 887.67 C 169.39 886.01, 171.33 916.24, 173.27 923.08 C 175.21 929.93, 177.15 927.33, 179.09 928.75 C 181.03 930.17, 182.97 946.46, 184.91 931.58 C 186.85 916.71, 188.79 849.65, 190.73 839.50 C 192.67 829.35, 194.61 855.56, 196.55 870.67 C 198.48 885.78, 200.42 923.56, 202.36 930.17 C 204.30 936.78, 206.24 913.17, 208.18 910.33 C 210.12 907.50, 212.06 909.86, 214.00 913.17 C 215.94 916.47, 217.88 932.53, 219.82 930.17 C 221.76 927.81, 223.70 902.78, 225.64 899.00 C 227.58 895.22, 229.52 902.07, 231.45 907.50 C 233.39 912.93, 235.33 927.57, 237.27 931.58 C 239.21 935.60, 241.15 933.47, 243.09 931.58 C 245.03 929.69, 246.97 920.25, 248.91 920.25 C 250.85 920.25, 252.79 929.69, 254.73 931.58 C 256.67 933.47, 258.61 931.58, 260.55 931.58 C 262.48 931.58, 264.42 931.58, 266.36 931.58 C 268.30 931.58, 270.24 932.29, 272.18 931.58 C 274.12 930.88, 276.06 927.33, 278.00 927.33 C 279.94 927.33, 281.88 930.88, 283.82 931.58 C 285.76 932.29, 287.70 931.58, 289.64 931.58 C 291.58 931.58, 293.52 931.58, 295.45 931.58 C 297.39 931.58, 299.33 931.58, 301.27 931.58 C 303.21 931.58, 305.15 931.58, 307.09 931.58 C 309.03 931.58, 310.97 931.58, 312.91 931.58 C 314.85 931.58, 316.79 932.06, 318.73 931.58 C 320.67 931.11, 322.61 928.75, 324.55 928.75 C 326.48 928.75, 328.42 931.11, 330.36 931.58 C 332.30 932.06, 334.24 931.58, 336.18 931.58 C 338.12 931.58, 340.06 931.58, 342.00 931.58 C 343.94 931.58, 345.88 931.58, 347.82 931.58 C 349.76 931.58, 351.70 931.58, 353.64 931.58 C 355.58 931.58, 357.52 931.58, 359.45 931.58 C 361.39 931.58, 363.33 931.58, 365.27 931.58 C 367.21 931.58, 369.15 931.58, 371.09 931.58 C 373.03 931.58, 374.97 931.58, 376.91 931.58 C 378.85 931.58, 380.79 932.76, 382.73 931.58 C 384.67 930.40, 386.61 924.50, 388.55 924.50 C 390.48 924.50, 392.42 939.38, 394.36 931.58 C 396.30 923.79, 398.24 878.46, 400.18 877.75 C 402.12 877.04, 405.03 919.07, 406.00 927.33 L 406.00 933 L 86.00 933 Z" fill="#4a90e2" fill-opacity="0.15"/>
      <path d="M 86.00 931.58 C 86.97 931.82, 89.88 932.76, 91.82 933.00 C 93.76 933.24, 95.70 933.00, 97.64 933.00 C 99.58 933.00, 101.52 933.00, 103.45 933.00 C 105.39 933.00, 107.33 933.00, 109.27 933.00 C 111.21 933.00, 113.15 933.00, 115.09 933.00 C 117.03 933.00, 118.97 935.36, 120.91 933.00 C 122.85 930.64, 124.79 918.83, 126.73 918.83 C 128.67 918.83, 130.61 930.64, 132.55 933.00 C 134.48 935.36, 136.42 939.14, 138.36 933.00 C 140.30 926.86, 142.24 896.17, 144.18 896.17 C 146.12 896.17, 148.06 927.10, 150.00 933.00 C 151.94 938.90, 153.88 931.58, 155.82 931.58 C 157.76 931.58, 159.70 940.32, 161.64 933.00 C 163.58 925.68, 165.52 889.32, 167.45 887.67 C 169.39 886.01, 171.33 916.24, 173.27 923.08 C 175.21 929.93, 177.15 927.33, 179.09 928.75 C 181.03 930.17, 182.97 946.46, 184.91 931.58 C 186.85 916.71, 188.79 849.65, 190.73 839.50 C 192.67 829.35, 194.61 855.56, 196.55 870.67 C 198.48 885.78, 200.42 923.56, 202.36 930.17 C 204.30 936.78, 206.24 913.17, 208.18 910.33 C 210.12 907.50, 212.06 909.86, 214.00 913.17 C 215.94 916.47, 217.88 932.53, 219.82 930.17 C 221.76 927.81, 223.70 902.78, 225.64 899.00 C 227.58 895.22, 229.52 902.07, 231.45 907.50 C 233.39 912.93, 235.33 927.57, 237.27 931.58 C 239.21 935.60, 241.15 933.47, 243.09 931.58 C 245.03 929.69, 246.97 920.25, 248.91 920.25 C 250.85 920.25, 252.79 929.69, 254.73 931.58 C 256.67 933.47, 258.61 931.58, 260.55 931.58 C 262.48 931.58, 264.42 931.58, 266.36 931.58 C 268.30 931.58, 270.24 932.29, 272.18 931.58 C 274.12 930.88, 276.06 927.33, 278.00 927.33 C 279.94 927.33, 281.88 930.88, 283.82 931.58 C 285.76 932.29, 287.70 931.58, 289.64 931.58 C 291.58 931.58, 293.52 931.58, 295.45 931.58 C 297.39 931.58, 299.33 931.58, 301.27 931.58 C 303.21 931.58, 305.15 931.58, 307.09 931.58 C 309.03 931.58, 310.97 931.58, 312.91 931.58 C 314.85 931.58, 316.79 932.06, 318.73 931.58 C 320.67 931.11, 322.61 928.75, 324.55 928.75 C 326.48 928.75, 328.42 931.11, 330.36 931.58 C 332.30 932.06, 334.24 931.58, 336.18 931.58 C 338.12 931.58, 340.06 931.58, 342.00 931.58 C 343.94 931.58, 345.88 931.58, 347.82 931.58 C 349.76 931.58, 351.70 931.58, 353.64 931.58 C 355.58 931.58, 357.52 931.58, 359.45 931.58 C 361.39 931.58, 363.33 931.58, 365.27 931.58 C 367.21 931.58, 369.15 931.58, 371.09 931.58 C 373.03 931.58, 374.97 931.58, 376.91 931.58 C 378.85 931.58, 380.79 932.76, 382.73 931.58 C 384.67 930.40, 386.61 924.50, 388.55 924.50 C 390.48 924.50, 392.42 939.38, 394.36 931.58 C 396.30 923.79, 398.24 878.46, 400.18 877.75 C 402.12 877.04, 405.03 919.07, 406.00 927.33" fill="none" stroke="#4a90e2" stroke-width="1.5" stroke-opacity="0.7"/>
    </g>
    <clipPath id="minimapClip">
      <rect x="86" y="823" width="320" height="110" rx="4"/>
    </clipPath><path d="M 1514.00 854.90
      L 1514.00 836.00
      A 42 42 0 1 1 1472.03 879.48
      L 1490.91 878.82
      A 23.1 23.1 0 1 0 1514.00 854.90 Z"
      fill="#4a90e2" fill-opacity="0.8" stroke="#030e26" stroke-width="1.5">
      <title>Kieran Lucas: 265 commits (74%)</title></path><path d="M 1490.91 878.82
      L 1472.03 879.48
      A 42 42 0 0 1 1487.90 845.10
      L 1499.64 859.90
      A 23.1 23.1 0 0 0 1490.91 878.82 Z"
      fill="#ff8c42" fill-opacity="0.8" stroke="#030e26" stroke-width="1.5">
      <title>github-actions: 53 commits (15%)</title></path><path d="M 1499.64 859.90
      L 1487.90 845.10
      A 42 42 0 0 1 1502.30 837.66
      L 1507.56 855.81
      A 23.1 23.1 0 0 0 1499.64 859.90 Z"
      fill="#00d4f5" fill-opacity="0.8" stroke="#030e26" stroke-width="1.5">
      <title>HumaNormal: 22 commits (6%)</title></path><path d="M 1507.56 855.81
      L 1502.30 837.66
      A 42 42 0 0 1 1513.26 836.01
      L 1513.59 854.90
      A 23.1 23.1 0 0 0 1507.56 855.81 Z"
      fill="#22c55e" fill-opacity="0.8" stroke="#030e26" stroke-width="1.5">
      <title>stillqhuy: 15 commits (4%)</title></path><path d="M 1513.59 854.90
      L 1513.26 836.01
      A 42 42 0 0 1 1514.00 836.00
      L 1514.00 854.90
      A 23.1 23.1 0 0 0 1513.59 854.90 Z"
      fill="#ef4444" fill-opacity="0.8" stroke="#030e26" stroke-width="1.5">
      <title>Nguyễn Đinh Việt Đức: 1 commits (0%)</title></path><text x="1514" y="874" font-size="9" fill="#3d7ed4" text-anchor="middle"
    font-family="'Lexend','Segoe UI',sans-serif" letter-spacing="1.5" font-weight="300">AUTHORS</text><text x="1514" y="892" font-size="16" fill="#cce8ff" text-anchor="middle"
    font-family="'Lexend','Segoe UI',sans-serif" font-weight="600">5</text><rect x="1572" y="830" width="8" height="8" rx="2" fill="#4a90e2" opacity="0.85"/><text x="1586" y="838" font-size="9.5" fill="#3d7ed4"
      font-family="'Lexend','Segoe UI',sans-serif" font-weight="300">Kieran Lucas (265)</text><rect x="1572" y="848" width="8" height="8" rx="2" fill="#ff8c42" opacity="0.85"/><text x="1586" y="856" font-size="9.5" fill="#3d7ed4"
      font-family="'Lexend','Segoe UI',sans-serif" font-weight="300">github-actions (53)</text><rect x="1572" y="866" width="8" height="8" rx="2" fill="#00d4f5" opacity="0.85"/><text x="1586" y="874" font-size="9.5" fill="#3d7ed4"
      font-family="'Lexend','Segoe UI',sans-serif" font-weight="300">HumaNormal (22)</text><rect x="1572" y="884" width="8" height="8" rx="2" fill="#22c55e" opacity="0.85"/><text x="1586" y="892" font-size="9.5" fill="#3d7ed4"
      font-family="'Lexend','Segoe UI',sans-serif" font-weight="300">stillqhuy (15)</text><rect x="1572" y="902" width="8" height="8" rx="2" fill="#ef4444" opacity="0.85"/><text x="1586" y="910" font-size="9.5" fill="#3d7ed4"
      font-family="'Lexend','Segoe UI',sans-serif" font-weight="300">Nguyễn Đinh … (1)</text>

<!-- ════ WAVES ════ -->
<path d="M 0 963 Q 108.3 956.0 216.5 963 Q 324.8 956.0 433.0 963 Q 541.3 956.0 649.5 963 Q 757.8 956.0 866.0 963 Q 974.3 956.0 1082.5 963 Q 1190.8 956.0 1299.0 963 Q 1407.3 956.0 1515.5 963 Q 1623.8 956.0 1732.0 963" fill="none" stroke="#1948a0" stroke-width="1.2" stroke-opacity="0.35"/>
<path d="M 0 958 Q 108.3 952.5 216.5 958 Q 324.8 952.5 433.0 958 Q 541.3 952.5 649.5 958 Q 757.8 952.5 866.0 958 Q 974.3 952.5 1082.5 958 Q 1190.8 952.5 1299.0 958 Q 1407.3 952.5 1515.5 958 Q 1623.8 952.5 1732.0 958" fill="none" stroke="#1948a0" stroke-width="1" stroke-opacity="0.29"/>
<path d="M 0 953 Q 108.3 949.0 216.5 953 Q 324.8 949.0 433.0 953 Q 541.3 949.0 649.5 953 Q 757.8 949.0 866.0 953 Q 974.3 949.0 1082.5 953 Q 1190.8 949.0 1299.0 953 Q 1407.3 949.0 1515.5 953 Q 1623.8 949.0 1732.0 953" fill="none" stroke="#1948a0" stroke-width="0.7999999999999999" stroke-opacity="0.22999999999999998"/>
<path d="M 0 948 Q 108.3 945.5 216.5 948 Q 324.8 945.5 433.0 948 Q 541.3 945.5 649.5 948 Q 757.8 945.5 866.0 948 Q 974.3 945.5 1082.5 948 Q 1190.8 945.5 1299.0 948 Q 1407.3 945.5 1515.5 948 Q 1623.8 945.5 1732.0 948" fill="none" stroke="#1948a0" stroke-width="0.5999999999999999" stroke-opacity="0.16999999999999998"/>

</svg>