<svg width="1788" height="969" xmlns="http://www.w3.org/2000/svg" viewBox="0 0 1788 969">
<defs>
  <style>
    @import url('https://fonts.googleapis.com/css2?family=Lexend:wght@300;400;600;700&amp;display=swap');
    circle:hover { opacity: 1 !important; r: 6; }
    rect.bar-segment:hover { opacity: 1 !important; }
  </style>

  <linearGradient id="bg" x1="0%" y1="0%" x2="55%" y2="100%">
    <stop offset="0%"   stop-color="#010c1e"/>
    <stop offset="50%"  stop-color="#010f27"/>
    <stop offset="100%" stop-color="#000a18"/>
  </linearGradient>
  <linearGradient id="areaFill" x1="0%" y1="0%" x2="0%" y2="100%">
    <stop offset="0%"   stop-color="#4a90e2" stop-opacity="0.5"/>
    <stop offset="55%"  stop-color="#1a3f7a" stop-opacity="0.18"/>
    <stop offset="100%" stop-color="#000a18" stop-opacity="0"/>
  </linearGradient>
  <linearGradient id="gCommits" x1="0%" y1="0%" x2="100%" y2="0%">
    <stop offset="0%"   stop-color="#ff8c42"/>
    <stop offset="100%" stop-color="#ffd0a0"/>
  </linearGradient>
  <linearGradient id="gChanges" x1="0%" y1="0%" x2="100%" y2="0%">
    <stop offset="0%"   stop-color="#00d4f5" stop-opacity="0.8"/>
    <stop offset="50%"  stop-color="#00d4f5"/>
    <stop offset="100%" stop-color="#80eeff"/>
  </linearGradient>
  <linearGradient id="gBorder" x1="0%" y1="0%" x2="100%" y2="100%">
    <stop offset="0%"   stop-color="#1840a0" stop-opacity="0.9"/>
    <stop offset="50%"  stop-color="#3b82f6" stop-opacity="0.6"/>
    <stop offset="100%" stop-color="#60a5fa" stop-opacity="0.9"/>
  </linearGradient>
  <linearGradient id="gHeader" x1="0%" y1="0%" x2="100%" y2="0%">
    <stop offset="0%"   stop-color="#010c1e" stop-opacity="0"/>
    <stop offset="20%"  stop-color="#091c3e" stop-opacity="0.92"/>
    <stop offset="80%"  stop-color="#091c3e" stop-opacity="0.92"/>
    <stop offset="100%" stop-color="#010c1e" stop-opacity="0"/>
  </linearGradient>
  <linearGradient id="gAddBar" x1="0%" y1="0%" x2="0%" y2="100%">
    <stop offset="0%"   stop-color="#22c55e" stop-opacity="0.95"/>
    <stop offset="100%" stop-color="#22c55e" stop-opacity="0.65"/>
  </linearGradient>
  <linearGradient id="gDelBar" x1="0%" y1="0%" x2="0%" y2="100%">
    <stop offset="0%"   stop-color="#ef4444" stop-opacity="0.9"/>
    <stop offset="100%" stop-color="#ef4444" stop-opacity="0.6"/>
  </linearGradient>

  <filter id="glowOrange" x="-120%" y="-120%" width="340%" height="340%">
    <feGaussianBlur stdDeviation="4" result="b"/>
    <feMerge><feMergeNode in="b"/><feMergeNode in="SourceGraphic"/></feMerge>
  </filter>
  <filter id="glowCyan" x="-120%" y="-120%" width="340%" height="340%">
    <feGaussianBlur stdDeviation="3.5" result="b"/>
    <feMerge><feMergeNode in="b"/><feMergeNode in="SourceGraphic"/></feMerge>
  </filter>
  <filter id="glowTitle">
    <feGaussianBlur stdDeviation="5" result="b"/>
    <feMerge><feMergeNode in="b"/><feMergeNode in="b"/><feMergeNode in="SourceGraphic"/></feMerge>
  </filter>
  <filter id="glowLine" x="-6%" y="-120%" width="112%" height="340%">
    <feGaussianBlur stdDeviation="4.5" result="b"/>
    <feMerge><feMergeNode in="b"/><feMergeNode in="SourceGraphic"/></feMerge>
  </filter>
  <filter id="glowMA" x="-6%" y="-120%" width="112%" height="340%">
    <feGaussianBlur stdDeviation="3" result="b"/>
    <feMerge><feMergeNode in="b"/><feMergeNode in="SourceGraphic"/></feMerge>
  </filter>

  <pattern id="diamondTile" x="0" y="0" width="30" height="30" patternUnits="userSpaceOnUse">
    <path d="M15 2 L28 15 L15 28 L2 15 Z"
      fill="none" stroke="#0d2464" stroke-width="0.4" stroke-opacity="0.25"/>
  </pattern>

  <clipPath id="chartClip">
    <rect x="86" y="130" width="1624" height="360"/>
  </clipPath>
</defs>

<!-- ════ BACKGROUND ════ -->
<rect width="1788" height="969" fill="url(#bg)" rx="16"/>
<rect width="1788" height="969" fill="url(#diamondTile)" rx="16"/>

<!-- ════ BORDERS ════ -->
<rect width="1788" height="969" fill="none" rx="16" stroke="url(#gBorder)" stroke-width="2.2"/>
<rect x="5" y="5" width="1778" height="959" fill="none" rx="13"
  stroke="#1840a0" stroke-width="0.7" stroke-opacity="0.35"/>

<!-- ════ HEADER ════ -->
<rect x="0" y="0" width="1788" height="122" fill="url(#gHeader)" rx="16"/>
<line x1="24" y1="118.0" x2="1764.0" y2="118.0"
    stroke="url(#gBorder)" stroke-width="0.8" stroke-opacity="0.5"/>

<!-- ════ TITLE ════ -->
<text x="898.0" y="44" font-size="18" font-weight="600" fill="#cce8ff"
  text-anchor="middle" font-family="'Lexend','Segoe UI',sans-serif"
  filter="url(#glowTitle)" letter-spacing="5">⬡  COMMIT  ANALYTICS  ⬡</text>
<text x="898.0" y="62" font-size="9.5" fill="#3d7ed4" text-anchor="middle"
  font-family="'Lexend','Segoe UI',sans-serif" letter-spacing="3.5" font-weight="300">kieran-lucas/oop-course-project-uet</text>

<!-- ════ STATS BADGE ════ -->

    <rect x="1562" y="8" width="142" height="92" rx="10"
      fill="#030e26" fill-opacity="0.94" stroke="#2563eb" stroke-width="1.2"/>
    <text x="1633" y="24" font-size="8" fill="#3d7ed4"
      text-anchor="middle" font-family="'Lexend',sans-serif" letter-spacing="2" font-weight="400">TOTAL  COMMITS</text>
    <text x="1633" y="52" font-size="28" font-weight="700" fill="#cce8ff"
      text-anchor="middle" font-family="'Lexend',sans-serif" filter="url(#glowTitle)">407</text>
    <line x1="1578" y1="60" x2="1688" y2="60"
      stroke="#1a3f7a" stroke-width="0.8" stroke-opacity="0.5"/>
    <text x="1609" y="74" font-size="9" fill="#22c55e"
      text-anchor="middle" font-family="'Lexend',sans-serif" font-weight="400">+182.3k</text>
    <text x="1657" y="74" font-size="9" fill="#ef4444"
      text-anchor="middle" font-family="'Lexend',sans-serif" font-weight="400">-158.6k</text>
    <text x="1633" y="90" font-size="8" fill="#3d7ed4"
      text-anchor="middle" font-family="'Lexend',sans-serif" font-weight="300">48 active days · 1.5k files</text>

<!-- ════ LEGEND ════ -->
<g><rect x="542.0" y="90.0" width="24" height="12" rx="3"
        fill="#4a90e2" fill-opacity="0.45" stroke="#4a90e2" stroke-width="1.2"/><text x="573.0" y="100.0" font-size="11" fill="#93c5fd"
      font-family="'Lexend','Segoe UI',sans-serif" font-weight="400">Total Lines</text><line x1="678.0" y1="97.0" x2="702.0" y2="97.0"
        stroke="#ff8c42" stroke-width="2.5" stroke-linecap="round"/><circle cx="690.0" cy="97.0" r="3.5"
        fill="#ff8c42" stroke="#fff" stroke-width="0.6" stroke-opacity="0.3"/><text x="709.0" y="100.0" font-size="11" fill="#93c5fd"
      font-family="'Lexend','Segoe UI',sans-serif" font-weight="400">Commits</text><line x1="786.0" y1="97.0" x2="810.0" y2="97.0"
        stroke="#00d4f5" stroke-width="2.5" stroke-linecap="round"/><circle cx="798.0" cy="97.0" r="3.5"
        fill="#00d4f5" stroke="#fff" stroke-width="0.6" stroke-opacity="0.3"/><text x="817.0" y="100.0" font-size="11" fill="#93c5fd"
      font-family="'Lexend','Segoe UI',sans-serif" font-weight="400">Chg/Commit</text><rect x="921.0" y="90.0" width="12" height="12" rx="2"
        fill="#22c55e" opacity="0.85"/><text x="946.0" y="100.0" font-size="11" fill="#93c5fd"
      font-family="'Lexend','Segoe UI',sans-serif" font-weight="400">Additions</text><rect x="1043.0" y="90.0" width="12" height="12" rx="2"
        fill="#ef4444" opacity="0.85"/><text x="1068.0" y="100.0" font-size="11" fill="#93c5fd"
      font-family="'Lexend','Segoe UI',sans-serif" font-weight="400">Deletions</text><line x1="1159.0" y1="97.0" x2="1183.0" y2="97.0"
        stroke="#a78bfa" stroke-width="2" stroke-dasharray="5,3" stroke-linecap="round"/><text x="1190.0" y="100.0" font-size="11" fill="#93c5fd"
      font-family="'Lexend','Segoe UI',sans-serif" font-weight="400">7-day MA</text></g>

<!-- ════ AXIS LABELS ════ -->
<text x="16" y="310.0" font-size="9.5" fill="#4a90e2"
    text-anchor="middle" font-family="'Lexend','Segoe UI',sans-serif" letter-spacing="3" font-weight="300"
    transform="rotate(-90, 16, 310.0)">LINES</text>
<text x="1774.0" y="310.0" font-size="9.5"
    fill="#ff8c42" text-anchor="middle" font-family="'Lexend','Segoe UI',sans-serif"
    letter-spacing="3" font-weight="300" opacity="0.8"
    transform="rotate(90, 1774.0, 310.0)">COMMITS</text>

<!-- ════ GRID + Y-LABELS ════ -->
<line x1="86" y1="490.0" x2="1710" y2="490.0"
      stroke="#1a3f7a" stroke-width="1.4"
      stroke-opacity="0.9" stroke-dasharray="none"/><line x1="86" y1="418.0" x2="1710" y2="418.0"
      stroke="#1a3f7a" stroke-width="0.5"
      stroke-opacity="0.3" stroke-dasharray="6,6"/><line x1="86" y1="346.0" x2="1710" y2="346.0"
      stroke="#1a3f7a" stroke-width="0.5"
      stroke-opacity="0.3" stroke-dasharray="6,6"/><line x1="86" y1="274.0" x2="1710" y2="274.0"
      stroke="#1a3f7a" stroke-width="0.5"
      stroke-opacity="0.3" stroke-dasharray="6,6"/><line x1="86" y1="202.0" x2="1710" y2="202.0"
      stroke="#1a3f7a" stroke-width="0.5"
      stroke-opacity="0.3" stroke-dasharray="6,6"/><line x1="86" y1="130.0" x2="1710" y2="130.0"
      stroke="#1a3f7a" stroke-width="0.5"
      stroke-opacity="0.3" stroke-dasharray="6,6"/>
<text x="74" y="494.0" font-size="11" fill="#5aa8ff"
      text-anchor="end" font-family="'Lexend','Segoe UI',sans-serif" font-weight="300">0</text><text x="74" y="422.0" font-size="11" fill="#5aa8ff"
      text-anchor="end" font-family="'Lexend','Segoe UI',sans-serif" font-weight="300">20.0k</text><text x="74" y="350.0" font-size="11" fill="#5aa8ff"
      text-anchor="end" font-family="'Lexend','Segoe UI',sans-serif" font-weight="300">40.0k</text><text x="74" y="278.0" font-size="11" fill="#5aa8ff"
      text-anchor="end" font-family="'Lexend','Segoe UI',sans-serif" font-weight="300">60.0k</text><text x="74" y="206.0" font-size="11" fill="#5aa8ff"
      text-anchor="end" font-family="'Lexend','Segoe UI',sans-serif" font-weight="300">80.0k</text><text x="74" y="134.0" font-size="11" fill="#5aa8ff"
      text-anchor="end" font-family="'Lexend','Segoe UI',sans-serif" font-weight="300">100.0k</text>
<text x="1722" y="494.0" font-size="11" fill="#ff8c42"
      text-anchor="start" font-family="'Lexend','Segoe UI',sans-serif" font-weight="300" opacity="0.85">0</text><text x="1722" y="404.0" font-size="11" fill="#ff8c42"
      text-anchor="start" font-family="'Lexend','Segoe UI',sans-serif" font-weight="300" opacity="0.85">20</text><text x="1722" y="314.0" font-size="11" fill="#ff8c42"
      text-anchor="start" font-family="'Lexend','Segoe UI',sans-serif" font-weight="300" opacity="0.85">40</text><text x="1722" y="224.0" font-size="11" fill="#ff8c42"
      text-anchor="start" font-family="'Lexend','Segoe UI',sans-serif" font-weight="300" opacity="0.85">60</text><text x="1722" y="134.0" font-size="11" fill="#ff8c42"
      text-anchor="start" font-family="'Lexend','Segoe UI',sans-serif" font-weight="300" opacity="0.85">80</text>

<!-- ════ AXIS LINES ════ -->
<line x1="86" y1="130" x2="86" y2="490"
  stroke="#1a3f7a" stroke-width="1.2" stroke-opacity="0.65"/>
<line x1="86" y1="490" x2="1710" y2="490"
  stroke="#1a3f7a" stroke-width="1.4" stroke-opacity="0.8"/>
<line x1="1710" y1="130" x2="1710" y2="490"
  stroke="#ff8c42" stroke-width="0.9" stroke-opacity="0.28"/>

<!-- ════ X-AXIS ════ -->
<text x="86.0" y="514" font-size="10" fill="#5aa8ff"
      text-anchor="end" font-family="'Lexend','Segoe UI',sans-serif" font-weight="300"
      transform="rotate(-42, 86.0, 514)">10 Mar</text><text x="200.0" y="514" font-size="10" fill="#5aa8ff"
      text-anchor="end" font-family="'Lexend','Segoe UI',sans-serif" font-weight="300"
      transform="rotate(-42, 200.0, 514)">14 Mar</text><text x="313.9" y="514" font-size="10" fill="#5aa8ff"
      text-anchor="end" font-family="'Lexend','Segoe UI',sans-serif" font-weight="300"
      transform="rotate(-42, 313.9, 514)">18 Mar</text><text x="427.9" y="514" font-size="10" fill="#5aa8ff"
      text-anchor="end" font-family="'Lexend','Segoe UI',sans-serif" font-weight="300"
      transform="rotate(-42, 427.9, 514)">22 Mar</text><text x="541.9" y="514" font-size="10" fill="#5aa8ff"
      text-anchor="end" font-family="'Lexend','Segoe UI',sans-serif" font-weight="300"
      transform="rotate(-42, 541.9, 514)">26 Mar</text><text x="655.8" y="514" font-size="10" fill="#5aa8ff"
      text-anchor="end" font-family="'Lexend','Segoe UI',sans-serif" font-weight="300"
      transform="rotate(-42, 655.8, 514)">30 Mar</text><text x="769.8" y="514" font-size="10" fill="#5aa8ff"
      text-anchor="end" font-family="'Lexend','Segoe UI',sans-serif" font-weight="300"
      transform="rotate(-42, 769.8, 514)">3 Apr</text><text x="883.8" y="514" font-size="10" fill="#5aa8ff"
      text-anchor="end" font-family="'Lexend','Segoe UI',sans-serif" font-weight="300"
      transform="rotate(-42, 883.8, 514)">7 Apr</text><text x="997.7" y="514" font-size="10" fill="#5aa8ff"
      text-anchor="end" font-family="'Lexend','Segoe UI',sans-serif" font-weight="300"
      transform="rotate(-42, 997.7, 514)">11 Apr</text><text x="1111.7" y="514" font-size="10" fill="#5aa8ff"
      text-anchor="end" font-family="'Lexend','Segoe UI',sans-serif" font-weight="300"
      transform="rotate(-42, 1111.7, 514)">15 Apr</text><text x="1225.6" y="514" font-size="10" fill="#5aa8ff"
      text-anchor="end" font-family="'Lexend','Segoe UI',sans-serif" font-weight="300"
      transform="rotate(-42, 1225.6, 514)">19 Apr</text><text x="1339.6" y="514" font-size="10" fill="#5aa8ff"
      text-anchor="end" font-family="'Lexend','Segoe UI',sans-serif" font-weight="300"
      transform="rotate(-42, 1339.6, 514)">23 Apr</text><text x="1453.6" y="514" font-size="10" fill="#5aa8ff"
      text-anchor="end" font-family="'Lexend','Segoe UI',sans-serif" font-weight="300"
      transform="rotate(-42, 1453.6, 514)">27 Apr</text><text x="1567.5" y="514" font-size="10" fill="#5aa8ff"
      text-anchor="end" font-family="'Lexend','Segoe UI',sans-serif" font-weight="300"
      transform="rotate(-42, 1567.5, 514)">1 May</text><text x="1681.5" y="514" font-size="10" fill="#5aa8ff"
      text-anchor="end" font-family="'Lexend','Segoe UI',sans-serif" font-weight="300"
      transform="rotate(-42, 1681.5, 514)">5 May</text>

<!-- ════ CHART CONTENT ════ -->
<g clip-path="url(#chartClip)">
  <!-- Total lines: area + stroke -->
  <path d="M 86.00 490.00 C 90.75 490.00, 104.99 490.00, 114.49 490.00 C 123.99 490.00, 133.49 490.00, 142.98 490.00 C 152.48 490.00, 161.98 490.00, 171.47 490.00 C 180.97 490.00, 190.47 490.00, 199.96 490.00 C 209.46 490.00, 218.96 490.00, 228.46 490.00 C 237.95 490.00, 247.45 490.00, 256.95 490.00 C 266.44 489.98, 275.94 489.92, 285.44 489.91 C 294.94 489.89, 304.43 489.91, 313.93 489.91 C 323.43 489.91, 332.92 489.94, 342.42 489.91 C 351.92 489.87, 361.42 489.72, 370.91 489.69 C 380.41 489.65, 389.91 489.70, 399.40 489.69 C 408.90 489.67, 418.40 489.62, 427.89 489.61 C 437.39 489.59, 446.89 490.00, 456.39 489.61 C 465.88 488.99, 475.38 486.51, 484.88 485.89 C 494.37 485.28, 503.87 485.91, 513.37 485.91 C 522.87 485.91, 532.36 485.90, 541.86 485.90 C 551.36 485.90, 560.85 490.00, 570.35 485.89 C 579.85 443.28, 589.35 274.96, 598.84 230.27 C 608.34 185.59, 617.84 219.88, 627.33 217.78 C 636.83 215.68, 646.33 218.05, 655.82 217.69 C 665.32 217.33, 674.82 216.22, 684.32 215.61 C 693.81 215.00, 703.31 214.42, 712.81 214.05 C 722.30 213.67, 731.80 213.51, 741.30 213.37 C 750.80 213.23, 760.29 213.54, 769.79 213.21 C 779.29 212.88, 788.78 211.70, 798.28 211.39 C 807.78 211.09, 817.27 211.39, 826.77 211.39 C 836.27 211.39, 845.77 211.45, 855.26 211.38 C 864.76 211.31, 874.26 211.03, 883.75 210.96 C 893.25 210.89, 902.75 210.96, 912.25 210.96 C 921.74 210.95, 931.24 210.95, 940.74 210.94 C 950.23 210.94, 959.73 210.92, 969.23 210.92 C 978.73 210.92, 988.22 211.38, 997.72 210.94 C 1007.22 210.50, 1016.71 208.73, 1026.21 208.29 C 1035.71 207.84, 1045.20 208.30, 1054.70 208.29 C 1064.20 208.27, 1073.70 208.21, 1083.19 208.20 C 1092.69 208.18, 1102.19 208.18, 1111.68 208.17 C 1121.18 208.17, 1130.68 208.16, 1140.18 208.16 C 1149.67 208.15, 1159.17 208.15, 1168.67 208.15 C 1178.16 208.14, 1187.66 208.13, 1197.16 208.12 C 1206.65 208.12, 1216.15 208.20, 1225.65 208.11 C 1235.15 208.01, 1244.64 207.65, 1254.14 207.56 C 1263.64 207.47, 1273.13 207.55, 1282.63 207.55 C 1292.13 207.55, 1301.63 207.54, 1311.12 207.54 C 1320.62 207.53, 1330.12 207.53, 1339.61 207.52 C 1349.11 207.52, 1358.61 207.51, 1368.11 207.50 C 1377.60 207.49, 1387.10 207.49, 1396.60 207.49 C 1406.09 207.49, 1415.59 207.49, 1425.09 207.49 C 1434.58 207.49, 1444.08 207.50, 1453.58 207.48 C 1463.08 207.46, 1472.57 207.41, 1482.07 207.39 C 1491.57 207.37, 1501.06 207.38, 1510.56 207.37 C 1520.06 207.37, 1529.56 207.71, 1539.05 207.35 C 1548.55 207.00, 1558.05 205.59, 1567.54 205.24 C 1577.04 204.89, 1586.54 211.15, 1596.04 205.24 C 1605.53 199.33, 1615.03 135.79, 1624.53 169.76 C 1634.02 203.74, 1643.52 369.82, 1653.02 409.09 C 1662.51 448.36, 1672.01 406.13, 1681.51 405.39 C 1691.01 404.64, 1705.25 404.74, 1710.00 404.62 L 1710.00 490 L 86.00 490 Z" fill="url(#areaFill)"/>
  <path d="M 86.00 490.00 C 90.75 490.00, 104.99 490.00, 114.49 490.00 C 123.99 490.00, 133.49 490.00, 142.98 490.00 C 152.48 490.00, 161.98 490.00, 171.47 490.00 C 180.97 490.00, 190.47 490.00, 199.96 490.00 C 209.46 490.00, 218.96 490.00, 228.46 490.00 C 237.95 490.00, 247.45 490.00, 256.95 490.00 C 266.44 489.98, 275.94 489.92, 285.44 489.91 C 294.94 489.89, 304.43 489.91, 313.93 489.91 C 323.43 489.91, 332.92 489.94, 342.42 489.91 C 351.92 489.87, 361.42 489.72, 370.91 489.69 C 380.41 489.65, 389.91 489.70, 399.40 489.69 C 408.90 489.67, 418.40 489.62, 427.89 489.61 C 437.39 489.59, 446.89 490.00, 456.39 489.61 C 465.88 488.99, 475.38 486.51, 484.88 485.89 C 494.37 485.28, 503.87 485.91, 513.37 485.91 C 522.87 485.91, 532.36 485.90, 541.86 485.90 C 551.36 485.90, 560.85 490.00, 570.35 485.89 C 579.85 443.28, 589.35 274.96, 598.84 230.27 C 608.34 185.59, 617.84 219.88, 627.33 217.78 C 636.83 215.68, 646.33 218.05, 655.82 217.69 C 665.32 217.33, 674.82 216.22, 684.32 215.61 C 693.81 215.00, 703.31 214.42, 712.81 214.05 C 722.30 213.67, 731.80 213.51, 741.30 213.37 C 750.80 213.23, 760.29 213.54, 769.79 213.21 C 779.29 212.88, 788.78 211.70, 798.28 211.39 C 807.78 211.09, 817.27 211.39, 826.77 211.39 C 836.27 211.39, 845.77 211.45, 855.26 211.38 C 864.76 211.31, 874.26 211.03, 883.75 210.96 C 893.25 210.89, 902.75 210.96, 912.25 210.96 C 921.74 210.95, 931.24 210.95, 940.74 210.94 C 950.23 210.94, 959.73 210.92, 969.23 210.92 C 978.73 210.92, 988.22 211.38, 997.72 210.94 C 1007.22 210.50, 1016.71 208.73, 1026.21 208.29 C 1035.71 207.84, 1045.20 208.30, 1054.70 208.29 C 1064.20 208.27, 1073.70 208.21, 1083.19 208.20 C 1092.69 208.18, 1102.19 208.18, 1111.68 208.17 C 1121.18 208.17, 1130.68 208.16, 1140.18 208.16 C 1149.67 208.15, 1159.17 208.15, 1168.67 208.15 C 1178.16 208.14, 1187.66 208.13, 1197.16 208.12 C 1206.65 208.12, 1216.15 208.20, 1225.65 208.11 C 1235.15 208.01, 1244.64 207.65, 1254.14 207.56 C 1263.64 207.47, 1273.13 207.55, 1282.63 207.55 C 1292.13 207.55, 1301.63 207.54, 1311.12 207.54 C 1320.62 207.53, 1330.12 207.53, 1339.61 207.52 C 1349.11 207.52, 1358.61 207.51, 1368.11 207.50 C 1377.60 207.49, 1387.10 207.49, 1396.60 207.49 C 1406.09 207.49, 1415.59 207.49, 1425.09 207.49 C 1434.58 207.49, 1444.08 207.50, 1453.58 207.48 C 1463.08 207.46, 1472.57 207.41, 1482.07 207.39 C 1491.57 207.37, 1501.06 207.38, 1510.56 207.37 C 1520.06 207.37, 1529.56 207.71, 1539.05 207.35 C 1548.55 207.00, 1558.05 205.59, 1567.54 205.24 C 1577.04 204.89, 1586.54 211.15, 1596.04 205.24 C 1605.53 199.33, 1615.03 135.79, 1624.53 169.76 C 1634.02 203.74, 1643.52 369.82, 1653.02 409.09 C 1662.51 448.36, 1672.01 406.13, 1681.51 405.39 C 1691.01 404.64, 1705.25 404.74, 1710.00 404.62" fill="none" stroke="#4a90e2" stroke-width="2" stroke-opacity="0.7"/>

  <!-- Bars -->
  <rect x="477.2" y="312.5" width="15.400000000000002" height="88.1"
        fill="url(#gDelBar)" rx="2" opacity="0.78"/><rect x="477.2" y="400.6" width="15.400000000000002" height="89.4"
        fill="url(#gAddBar)" rx="2" opacity="0.82"/><rect x="591.1" y="392.5" width="15.400000000000002" height="2.7"
        fill="url(#gDelBar)" rx="2" opacity="0.78"/><rect x="591.1" y="395.2" width="15.400000000000002" height="94.8"
        fill="url(#gAddBar)" rx="2" opacity="0.82"/><rect x="619.6" y="476.3" width="15.400000000000002" height="4.6"
        fill="url(#gDelBar)" rx="2" opacity="0.78"/><rect x="619.6" y="480.9" width="15.400000000000002" height="9.1"
        fill="url(#gAddBar)" rx="2" opacity="0.82"/><rect x="676.6" y="487.5" width="15.400000000000002" height="0.9"
        fill="url(#gDelBar)" rx="2" opacity="0.78"/><rect x="676.6" y="488.4" width="15.400000000000002" height="1.6"
        fill="url(#gAddBar)" rx="2" opacity="0.82"/><rect x="705.1" y="487.5" width="15.400000000000002" height="1.0"
        fill="url(#gDelBar)" rx="2" opacity="0.78"/><rect x="705.1" y="488.5" width="15.400000000000002" height="1.5"
        fill="url(#gAddBar)" rx="2" opacity="0.82"/><rect x="762.1" y="487.6" width="15.400000000000002" height="1.2"
        fill="url(#gDelBar)" rx="2" opacity="0.78"/><rect x="762.1" y="488.8" width="15.400000000000002" height="1.2"
        fill="url(#gAddBar)" rx="2" opacity="0.82"/><rect x="790.6" y="486.1" width="15.400000000000002" height="1.6"
        fill="url(#gDelBar)" rx="2" opacity="0.78"/><rect x="790.6" y="487.7" width="15.400000000000002" height="2.3"
        fill="url(#gAddBar)" rx="2" opacity="0.82"/><rect x="1018.5" y="488.8" width="15.400000000000002" height="1.2"
        fill="url(#gAddBar)" rx="2" opacity="0.82"/><rect x="1246.4" y="488.7" width="15.400000000000002" height="0.5"
        fill="url(#gDelBar)" rx="2" opacity="0.78"/><rect x="1246.4" y="489.3" width="15.400000000000002" height="0.7"
        fill="url(#gAddBar)" rx="2" opacity="0.82"/><rect x="1559.8" y="479.7" width="15.400000000000002" height="4.8"
        fill="url(#gDelBar)" rx="2" opacity="0.78"/><rect x="1559.8" y="484.5" width="15.400000000000002" height="5.5"
        fill="url(#gAddBar)" rx="2" opacity="0.82"/><rect x="1616.8" y="472.3" width="15.400000000000002" height="2.5"
        fill="url(#gDelBar)" rx="2" opacity="0.78"/><rect x="1616.8" y="474.8" width="15.400000000000002" height="15.2"
        fill="url(#gAddBar)" rx="2" opacity="0.82"/><rect x="1645.3" y="401.3" width="15.400000000000002" height="87.4"
        fill="url(#gDelBar)" rx="2" opacity="0.78"/><rect x="1645.3" y="488.7" width="15.400000000000002" height="1.3"
        fill="url(#gAddBar)" rx="2" opacity="0.82"/><rect x="1673.8" y="479.5" width="15.400000000000002" height="4.6"
        fill="url(#gDelBar)" rx="2" opacity="0.78"/><rect x="1673.8" y="484.1" width="15.400000000000002" height="5.9"
        fill="url(#gAddBar)" rx="2" opacity="0.82"/><rect x="1702.3" y="488.1" width="15.400000000000002" height="0.8"
        fill="url(#gDelBar)" rx="2" opacity="0.78"/><rect x="1702.3" y="488.9" width="15.400000000000002" height="1.1"
        fill="url(#gAddBar)" rx="2" opacity="0.82"/>

  <!-- Commits line — glow + crisp -->
  <path d="M 86.00 485.50 C 90.75 486.25, 104.99 489.25, 114.49 490.00 C 123.99 490.00, 133.49 490.00, 142.98 490.00 C 152.48 490.00, 161.98 490.00, 171.47 490.00 C 180.97 490.00, 190.47 490.00, 199.96 490.00 C 209.46 490.00, 218.96 490.00, 228.46 490.00 C 237.95 490.00, 247.45 490.00, 256.95 490.00 C 266.44 482.50, 275.94 445.00, 285.44 445.00 C 294.94 445.00, 304.43 482.50, 313.93 490.00 C 323.43 490.00, 332.92 490.00, 342.42 490.00 C 351.92 470.50, 361.42 373.00, 370.91 373.00 C 380.41 373.00, 389.91 471.25, 399.40 490.00 C 408.90 490.00, 418.40 485.50, 427.89 485.50 C 437.39 485.50, 446.89 490.00, 456.39 490.00 C 465.88 466.75, 475.38 351.25, 484.88 346.00 C 494.37 340.75, 503.87 436.75, 513.37 458.50 C 522.87 480.25, 532.36 472.00, 541.86 476.50 C 551.36 481.00, 560.85 490.00, 570.35 485.50 C 579.85 438.25, 589.35 225.25, 598.84 193.00 C 608.34 160.75, 617.84 244.00, 627.33 292.00 C 636.83 340.00, 646.33 460.00, 655.82 481.00 C 665.32 490.00, 674.82 427.00, 684.32 418.00 C 693.81 409.00, 703.31 416.50, 712.81 427.00 C 722.30 437.50, 731.80 488.50, 741.30 481.00 C 750.80 473.50, 760.29 394.00, 769.79 382.00 C 779.29 370.00, 788.78 391.75, 798.28 409.00 C 807.78 426.25, 817.27 472.75, 826.77 485.50 C 836.27 490.00, 845.77 490.00, 855.26 485.50 C 864.76 479.50, 874.26 449.50, 883.75 449.50 C 893.25 449.50, 902.75 479.50, 912.25 485.50 C 921.74 490.00, 931.24 485.50, 940.74 485.50 C 950.23 485.50, 959.73 485.50, 969.23 485.50 C 978.73 485.50, 988.22 487.75, 997.72 485.50 C 1007.22 483.25, 1016.71 472.00, 1026.21 472.00 C 1035.71 472.00, 1045.20 483.25, 1054.70 485.50 C 1064.20 487.75, 1073.70 485.50, 1083.19 485.50 C 1092.69 485.50, 1102.19 485.50, 1111.68 485.50 C 1121.18 485.50, 1130.68 485.50, 1140.18 485.50 C 1149.67 485.50, 1159.17 485.50, 1168.67 485.50 C 1178.16 485.50, 1187.66 485.50, 1197.16 485.50 C 1206.65 485.50, 1216.15 487.00, 1225.65 485.50 C 1235.15 484.00, 1244.64 476.50, 1254.14 476.50 C 1263.64 476.50, 1273.13 484.00, 1282.63 485.50 C 1292.13 487.00, 1301.63 485.50, 1311.12 485.50 C 1320.62 485.50, 1330.12 485.50, 1339.61 485.50 C 1349.11 485.50, 1358.61 485.50, 1368.11 485.50 C 1377.60 485.50, 1387.10 485.50, 1396.60 485.50 C 1406.09 485.50, 1415.59 485.50, 1425.09 485.50 C 1434.58 485.50, 1444.08 485.50, 1453.58 485.50 C 1463.08 485.50, 1472.57 485.50, 1482.07 485.50 C 1491.57 485.50, 1501.06 485.50, 1510.56 485.50 C 1520.06 485.50, 1529.56 489.25, 1539.05 485.50 C 1548.55 481.75, 1558.05 463.00, 1567.54 463.00 C 1577.04 463.00, 1586.54 490.00, 1596.04 485.50 C 1605.53 460.75, 1615.03 321.25, 1624.53 314.50 C 1634.02 307.75, 1643.52 443.50, 1653.02 445.00 C 1662.51 446.50, 1672.01 322.00, 1681.51 323.50 C 1691.01 325.00, 1705.25 432.25, 1710.00 454.00" fill="none" stroke="#ff8c42" stroke-width="9" stroke-opacity="0.06" filter="url(#glowLine)"/>
  <path d="M 86.00 485.50 C 90.75 486.25, 104.99 489.25, 114.49 490.00 C 123.99 490.00, 133.49 490.00, 142.98 490.00 C 152.48 490.00, 161.98 490.00, 171.47 490.00 C 180.97 490.00, 190.47 490.00, 199.96 490.00 C 209.46 490.00, 218.96 490.00, 228.46 490.00 C 237.95 490.00, 247.45 490.00, 256.95 490.00 C 266.44 482.50, 275.94 445.00, 285.44 445.00 C 294.94 445.00, 304.43 482.50, 313.93 490.00 C 323.43 490.00, 332.92 490.00, 342.42 490.00 C 351.92 470.50, 361.42 373.00, 370.91 373.00 C 380.41 373.00, 389.91 471.25, 399.40 490.00 C 408.90 490.00, 418.40 485.50, 427.89 485.50 C 437.39 485.50, 446.89 490.00, 456.39 490.00 C 465.88 466.75, 475.38 351.25, 484.88 346.00 C 494.37 340.75, 503.87 436.75, 513.37 458.50 C 522.87 480.25, 532.36 472.00, 541.86 476.50 C 551.36 481.00, 560.85 490.00, 570.35 485.50 C 579.85 438.25, 589.35 225.25, 598.84 193.00 C 608.34 160.75, 617.84 244.00, 627.33 292.00 C 636.83 340.00, 646.33 460.00, 655.82 481.00 C 665.32 490.00, 674.82 427.00, 684.32 418.00 C 693.81 409.00, 703.31 416.50, 712.81 427.00 C 722.30 437.50, 731.80 488.50, 741.30 481.00 C 750.80 473.50, 760.29 394.00, 769.79 382.00 C 779.29 370.00, 788.78 391.75, 798.28 409.00 C 807.78 426.25, 817.27 472.75, 826.77 485.50 C 836.27 490.00, 845.77 490.00, 855.26 485.50 C 864.76 479.50, 874.26 449.50, 883.75 449.50 C 893.25 449.50, 902.75 479.50, 912.25 485.50 C 921.74 490.00, 931.24 485.50, 940.74 485.50 C 950.23 485.50, 959.73 485.50, 969.23 485.50 C 978.73 485.50, 988.22 487.75, 997.72 485.50 C 1007.22 483.25, 1016.71 472.00, 1026.21 472.00 C 1035.71 472.00, 1045.20 483.25, 1054.70 485.50 C 1064.20 487.75, 1073.70 485.50, 1083.19 485.50 C 1092.69 485.50, 1102.19 485.50, 1111.68 485.50 C 1121.18 485.50, 1130.68 485.50, 1140.18 485.50 C 1149.67 485.50, 1159.17 485.50, 1168.67 485.50 C 1178.16 485.50, 1187.66 485.50, 1197.16 485.50 C 1206.65 485.50, 1216.15 487.00, 1225.65 485.50 C 1235.15 484.00, 1244.64 476.50, 1254.14 476.50 C 1263.64 476.50, 1273.13 484.00, 1282.63 485.50 C 1292.13 487.00, 1301.63 485.50, 1311.12 485.50 C 1320.62 485.50, 1330.12 485.50, 1339.61 485.50 C 1349.11 485.50, 1358.61 485.50, 1368.11 485.50 C 1377.60 485.50, 1387.10 485.50, 1396.60 485.50 C 1406.09 485.50, 1415.59 485.50, 1425.09 485.50 C 1434.58 485.50, 1444.08 485.50, 1453.58 485.50 C 1463.08 485.50, 1472.57 485.50, 1482.07 485.50 C 1491.57 485.50, 1501.06 485.50, 1510.56 485.50 C 1520.06 485.50, 1529.56 489.25, 1539.05 485.50 C 1548.55 481.75, 1558.05 463.00, 1567.54 463.00 C 1577.04 463.00, 1586.54 490.00, 1596.04 485.50 C 1605.53 460.75, 1615.03 321.25, 1624.53 314.50 C 1634.02 307.75, 1643.52 443.50, 1653.02 445.00 C 1662.51 446.50, 1672.01 322.00, 1681.51 323.50 C 1691.01 325.00, 1705.25 432.25, 1710.00 454.00" fill="none" stroke="url(#gCommits)" stroke-width="2.8" stroke-linecap="round"/>

  <!-- Changes/commit line -->
  <path d="M 86.00 489.95 C 90.75 489.96, 104.99 489.99, 114.49 490.00 C 123.99 490.00, 133.49 490.00, 142.98 490.00 C 152.48 490.00, 161.98 490.00, 171.47 490.00 C 180.97 490.00, 190.47 490.00, 199.96 490.00 C 209.46 490.00, 218.96 490.00, 228.46 490.00 C 237.95 490.00, 247.45 490.00, 256.95 490.00 C 266.44 489.97, 275.94 489.82, 285.44 489.82 C 294.94 489.82, 304.43 489.97, 313.93 490.00 C 323.43 490.00, 332.92 490.00, 342.42 490.00 C 351.92 489.98, 361.42 489.87, 370.91 489.87 C 380.41 489.87, 389.91 490.00, 399.40 490.00 C 408.90 489.86, 418.40 489.01, 427.89 489.01 C 437.39 489.01, 446.89 490.00, 456.39 490.00 C 465.88 458.07, 475.38 297.56, 484.88 297.44 C 494.37 297.33, 503.87 457.62, 513.37 489.32 C 522.87 490.00, 532.36 487.94, 541.86 487.66 C 551.36 487.38, 560.85 490.00, 570.35 487.66 C 579.85 479.50, 589.35 440.12, 598.84 438.70 C 608.34 437.28, 617.84 472.11, 627.33 479.15 C 636.83 486.20, 646.33 480.05, 655.82 480.95 C 665.32 481.86, 674.82 484.08, 684.32 484.56 C 693.81 485.03, 703.31 483.86, 712.81 483.79 C 722.30 483.72, 731.80 483.70, 741.30 484.15 C 750.80 484.60, 760.29 486.76, 769.79 486.49 C 779.29 486.22, 788.78 482.59, 798.28 482.53 C 807.78 482.47, 817.27 486.48, 826.77 486.13 C 836.27 485.78, 845.77 480.26, 855.26 480.46 C 864.76 480.65, 874.26 486.26, 883.75 487.30 C 893.25 488.34, 902.75 487.88, 912.25 486.67 C 921.74 485.46, 931.24 481.23, 940.74 480.01 C 950.23 478.79, 959.73 479.49, 969.23 479.38 C 978.73 479.27, 988.22 479.64, 997.72 479.38 C 1007.22 479.12, 1016.71 476.63, 1026.21 477.81 C 1035.71 478.98, 1045.20 487.00, 1054.70 486.40 C 1064.20 485.80, 1073.70 475.51, 1083.19 474.20 C 1092.69 472.90, 1102.19 477.86, 1111.68 478.57 C 1121.18 479.28, 1130.68 478.50, 1140.18 478.48 C 1149.67 478.47, 1159.17 478.53, 1168.67 478.48 C 1178.16 478.44, 1187.66 478.31, 1197.16 478.21 C 1206.65 478.10, 1216.15 478.32, 1225.65 477.85 C 1235.15 477.38, 1244.64 473.94, 1254.14 475.38 C 1263.64 476.81, 1273.13 486.17, 1282.63 486.49 C 1292.13 486.81, 1301.63 478.88, 1311.12 477.31 C 1320.62 475.74, 1330.12 477.16, 1339.61 477.04 C 1349.11 476.92, 1358.61 476.71, 1368.11 476.59 C 1377.60 476.47, 1387.10 476.35, 1396.60 476.32 C 1406.09 476.29, 1415.59 476.46, 1425.09 476.41 C 1434.58 476.37, 1444.08 477.12, 1453.58 476.05 C 1463.08 474.98, 1472.57 469.96, 1482.07 469.98 C 1491.57 469.99, 1501.06 477.21, 1510.56 476.14 C 1520.06 475.07, 1529.56 471.21, 1539.05 463.54 C 1548.55 455.88, 1558.05 426.34, 1567.54 430.15 C 1577.04 433.96, 1586.54 479.05, 1596.04 486.40 C 1605.53 490.00, 1615.03 490.00, 1624.53 474.25 C 1634.02 423.52, 1643.52 181.04, 1653.02 182.02 C 1662.51 183.00, 1672.01 430.21, 1681.51 480.14 C 1691.01 490.00, 1705.25 481.38, 1710.00 481.63" fill="none" stroke="#00d4f5" stroke-width="9" stroke-opacity="0.06" filter="url(#glowLine)"/>
  <path d="M 86.00 489.95 C 90.75 489.96, 104.99 489.99, 114.49 490.00 C 123.99 490.00, 133.49 490.00, 142.98 490.00 C 152.48 490.00, 161.98 490.00, 171.47 490.00 C 180.97 490.00, 190.47 490.00, 199.96 490.00 C 209.46 490.00, 218.96 490.00, 228.46 490.00 C 237.95 490.00, 247.45 490.00, 256.95 490.00 C 266.44 489.97, 275.94 489.82, 285.44 489.82 C 294.94 489.82, 304.43 489.97, 313.93 490.00 C 323.43 490.00, 332.92 490.00, 342.42 490.00 C 351.92 489.98, 361.42 489.87, 370.91 489.87 C 380.41 489.87, 389.91 490.00, 399.40 490.00 C 408.90 489.86, 418.40 489.01, 427.89 489.01 C 437.39 489.01, 446.89 490.00, 456.39 490.00 C 465.88 458.07, 475.38 297.56, 484.88 297.44 C 494.37 297.33, 503.87 457.62, 513.37 489.32 C 522.87 490.00, 532.36 487.94, 541.86 487.66 C 551.36 487.38, 560.85 490.00, 570.35 487.66 C 579.85 479.50, 589.35 440.12, 598.84 438.70 C 608.34 437.28, 617.84 472.11, 627.33 479.15 C 636.83 486.20, 646.33 480.05, 655.82 480.95 C 665.32 481.86, 674.82 484.08, 684.32 484.56 C 693.81 485.03, 703.31 483.86, 712.81 483.79 C 722.30 483.72, 731.80 483.70, 741.30 484.15 C 750.80 484.60, 760.29 486.76, 769.79 486.49 C 779.29 486.22, 788.78 482.59, 798.28 482.53 C 807.78 482.47, 817.27 486.48, 826.77 486.13 C 836.27 485.78, 845.77 480.26, 855.26 480.46 C 864.76 480.65, 874.26 486.26, 883.75 487.30 C 893.25 488.34, 902.75 487.88, 912.25 486.67 C 921.74 485.46, 931.24 481.23, 940.74 480.01 C 950.23 478.79, 959.73 479.49, 969.23 479.38 C 978.73 479.27, 988.22 479.64, 997.72 479.38 C 1007.22 479.12, 1016.71 476.63, 1026.21 477.81 C 1035.71 478.98, 1045.20 487.00, 1054.70 486.40 C 1064.20 485.80, 1073.70 475.51, 1083.19 474.20 C 1092.69 472.90, 1102.19 477.86, 1111.68 478.57 C 1121.18 479.28, 1130.68 478.50, 1140.18 478.48 C 1149.67 478.47, 1159.17 478.53, 1168.67 478.48 C 1178.16 478.44, 1187.66 478.31, 1197.16 478.21 C 1206.65 478.10, 1216.15 478.32, 1225.65 477.85 C 1235.15 477.38, 1244.64 473.94, 1254.14 475.38 C 1263.64 476.81, 1273.13 486.17, 1282.63 486.49 C 1292.13 486.81, 1301.63 478.88, 1311.12 477.31 C 1320.62 475.74, 1330.12 477.16, 1339.61 477.04 C 1349.11 476.92, 1358.61 476.71, 1368.11 476.59 C 1377.60 476.47, 1387.10 476.35, 1396.60 476.32 C 1406.09 476.29, 1415.59 476.46, 1425.09 476.41 C 1434.58 476.37, 1444.08 477.12, 1453.58 476.05 C 1463.08 474.98, 1472.57 469.96, 1482.07 469.98 C 1491.57 469.99, 1501.06 477.21, 1510.56 476.14 C 1520.06 475.07, 1529.56 471.21, 1539.05 463.54 C 1548.55 455.88, 1558.05 426.34, 1567.54 430.15 C 1577.04 433.96, 1586.54 479.05, 1596.04 486.40 C 1605.53 490.00, 1615.03 490.00, 1624.53 474.25 C 1634.02 423.52, 1643.52 181.04, 1653.02 182.02 C 1662.51 183.00, 1672.01 430.21, 1681.51 480.14 C 1691.01 490.00, 1705.25 481.38, 1710.00 481.63" fill="none" stroke="url(#gChanges)" stroke-width="2.5" stroke-linecap="round"/>

  <!-- Moving averages -->
  <path d="M 86.00 488.88 C 90.75 488.91, 104.99 489.04, 114.49 489.10 C 123.99 489.16, 133.49 489.21, 142.98 489.25 C 152.48 489.29, 161.98 490.00, 171.47 489.36 C 180.97 488.41, 190.47 484.54, 199.96 483.57 C 209.46 482.61, 218.96 483.57, 228.46 483.57 C 237.95 483.57, 247.45 486.36, 256.95 483.57 C 266.44 480.79, 275.94 469.64, 285.44 466.86 C 294.94 464.07, 304.43 466.96, 313.93 466.86 C 323.43 466.75, 332.92 466.32, 342.42 466.21 C 351.92 466.11, 361.42 468.57, 370.91 466.21 C 380.41 463.86, 389.91 455.18, 399.40 452.07 C 408.90 448.96, 418.40 448.64, 427.89 447.57 C 437.39 446.50, 446.89 443.29, 456.39 445.64 C 465.88 448.00, 475.38 466.11, 484.88 461.71 C 494.37 457.32, 503.87 430.96, 513.37 419.29 C 522.87 407.61, 532.36 396.46, 541.86 391.64 C 551.36 386.82, 560.85 388.86, 570.35 390.36 C 579.85 391.86, 589.35 399.68, 598.84 400.64 C 608.34 401.61, 617.84 396.79, 627.33 396.14 C 636.83 395.50, 646.33 399.14, 655.82 396.79 C 665.32 394.43, 674.82 379.32, 684.32 382.00 C 693.81 384.68, 703.31 403.11, 712.81 412.86 C 722.30 422.61, 731.80 435.79, 741.30 440.50 C 750.80 445.21, 760.29 440.29, 769.79 441.14 C 779.29 442.00, 788.78 443.50, 798.28 445.64 C 807.78 447.79, 817.27 452.50, 826.77 454.00 C 836.27 455.50, 845.77 452.07, 855.26 454.64 C 864.76 457.21, 874.26 465.14, 883.75 469.43 C 893.25 473.71, 902.75 478.86, 912.25 480.36 C 921.74 481.86, 931.24 478.75, 940.74 478.43 C 950.23 478.11, 959.73 477.57, 969.23 478.43 C 978.73 479.29, 988.22 482.71, 997.72 483.57 C 1007.22 484.43, 1016.71 483.57, 1026.21 483.57 C 1035.71 483.57, 1045.20 483.57, 1054.70 483.57 C 1064.20 483.57, 1073.70 483.57, 1083.19 483.57 C 1092.69 483.57, 1102.19 483.25, 1111.68 483.57 C 1121.18 483.89, 1130.68 485.39, 1140.18 485.50 C 1149.67 485.61, 1159.17 484.43, 1168.67 484.21 C 1178.16 484.00, 1187.66 484.21, 1197.16 484.21 C 1206.65 484.21, 1216.15 484.21, 1225.65 484.21 C 1235.15 484.21, 1244.64 484.21, 1254.14 484.21 C 1263.64 484.21, 1273.13 484.21, 1282.63 484.21 C 1292.13 484.21, 1301.63 484.21, 1311.12 484.21 C 1320.62 484.21, 1330.12 484.00, 1339.61 484.21 C 1349.11 484.43, 1358.61 485.29, 1368.11 485.50 C 1377.60 485.71, 1387.10 485.50, 1396.60 485.50 C 1406.09 485.50, 1415.59 485.50, 1425.09 485.50 C 1434.58 485.50, 1444.08 486.04, 1453.58 485.50 C 1463.08 484.96, 1472.57 482.82, 1482.07 482.29 C 1491.57 481.75, 1501.06 486.36, 1510.56 482.29 C 1520.06 478.21, 1529.56 462.89, 1539.05 457.86 C 1548.55 452.82, 1558.05 456.89, 1567.54 452.07 C 1577.04 447.25, 1586.54 433.54, 1596.04 428.93 C 1605.53 424.32, 1615.03 426.88, 1624.53 424.43 C 1634.02 421.98, 1643.52 417.57, 1653.02 414.25 C 1662.51 410.93, 1672.01 409.50, 1681.51 404.50 C 1691.01 399.50, 1705.25 387.63, 1710.00 384.25" fill="none" stroke="#a78bfa" stroke-width="2" stroke-dasharray="6,4" stroke-opacity="0.55" filter="url(#glowMA)"/>
  <path d="M 86.00 489.99 C 90.75 489.99, 104.99 489.99, 114.49 489.99 C 123.99 489.99, 133.49 489.99, 142.98 489.99 C 152.48 489.99, 161.98 490.00, 171.47 489.99 C 180.97 489.99, 190.47 489.98, 199.96 489.97 C 209.46 489.97, 218.96 489.97, 228.46 489.97 C 237.95 489.97, 247.45 489.98, 256.95 489.97 C 266.44 489.97, 275.94 489.96, 285.44 489.95 C 294.94 489.95, 304.43 489.98, 313.93 489.95 C 323.43 489.93, 332.92 489.84, 342.42 489.81 C 351.92 489.79, 361.42 490.00, 370.91 489.81 C 380.41 485.23, 389.91 466.93, 399.40 462.33 C 408.90 457.73, 418.40 462.31, 427.89 462.24 C 437.39 462.16, 446.89 462.01, 456.39 461.90 C 465.88 461.79, 475.38 462.86, 484.88 461.59 C 494.37 460.31, 503.87 455.71, 513.37 454.26 C 522.87 452.80, 532.36 453.30, 541.86 452.85 C 551.36 452.40, 560.85 447.32, 570.35 451.56 C 579.85 455.80, 589.35 473.96, 598.84 478.29 C 608.34 482.61, 617.84 477.71, 627.33 477.50 C 636.83 477.28, 646.33 477.11, 655.82 477.00 C 665.32 476.88, 674.82 475.81, 684.32 476.83 C 693.81 477.84, 703.31 481.88, 712.81 483.09 C 722.30 484.30, 731.80 483.93, 741.30 484.09 C 750.80 484.24, 760.29 483.96, 769.79 484.01 C 779.29 484.07, 788.78 484.27, 798.28 484.41 C 807.78 484.54, 817.27 484.85, 826.77 484.82 C 836.27 484.79, 845.77 484.50, 855.26 484.23 C 864.76 483.96, 874.26 483.46, 883.75 483.21 C 893.25 482.97, 902.75 483.03, 912.25 482.76 C 921.74 482.49, 931.24 481.63, 940.74 481.57 C 950.23 481.52, 959.73 482.59, 969.23 482.42 C 978.73 482.25, 988.22 481.05, 997.72 480.55 C 1007.22 480.05, 1016.71 479.62, 1026.21 479.39 C 1035.71 479.16, 1045.20 479.23, 1054.70 479.17 C 1064.20 479.12, 1073.70 479.09, 1083.19 479.05 C 1092.69 479.00, 1102.19 478.91, 1111.68 478.88 C 1121.18 478.85, 1130.68 479.15, 1140.18 478.88 C 1149.67 478.62, 1159.17 477.28, 1168.67 477.31 C 1178.16 477.34, 1187.66 478.80, 1197.16 479.06 C 1206.65 479.33, 1216.15 478.95, 1225.65 478.88 C 1235.15 478.82, 1244.64 478.76, 1254.14 478.68 C 1263.64 478.60, 1273.13 478.50, 1282.63 478.41 C 1292.13 478.32, 1301.63 478.22, 1311.12 478.14 C 1320.62 478.06, 1330.12 477.95, 1339.61 477.93 C 1349.11 477.92, 1358.61 478.41, 1368.11 478.03 C 1377.60 477.65, 1387.10 476.09, 1396.60 475.67 C 1406.09 475.25, 1415.59 475.85, 1425.09 475.50 C 1434.58 475.15, 1444.08 475.00, 1453.58 473.57 C 1463.08 472.15, 1472.57 467.81, 1482.07 466.94 C 1491.57 466.08, 1501.06 468.19, 1510.56 468.38 C 1520.06 468.57, 1529.56 475.12, 1539.05 468.07 C 1548.55 461.02, 1558.05 432.83, 1567.54 426.07 C 1577.04 419.31, 1586.54 427.15, 1596.04 427.52 C 1605.53 427.89, 1615.03 429.15, 1624.53 428.31 C 1634.02 427.46, 1643.52 423.67, 1653.02 422.43 C 1662.51 421.20, 1672.01 423.88, 1681.51 420.89 C 1691.01 417.90, 1705.25 407.24, 1710.00 404.51" fill="none" stroke="#c4b5fd" stroke-width="1.5" stroke-dasharray="5,4" stroke-opacity="0.4"/>

  <!-- Statistical overlay -->
  <line x1="86" y1="451.8" x2="1710" y2="451.8"
      stroke="#ff8c42" stroke-width="1" stroke-dasharray="8,4" opacity="0.3"/>
    <text x="1722" y="445.8" font-size="8" fill="#ff8c42"
      text-anchor="start" font-family="'Lexend','Segoe UI',sans-serif" font-weight="300" opacity="0.6">μ=8.5</text>

  <!-- Data point circles (inside clip for safety) -->
  <circle cx="86.0" cy="485.5" r="3.0"
        fill="#ff8c42" stroke="#ffd0a0" stroke-width="1" filter="url(#glowOrange)" opacity="0.9">
        <title>2026-03-10: 1 commits</title></circle><circle cx="285.4" cy="445.0" r="3.3"
        fill="#ff8c42" stroke="#ffd0a0" stroke-width="1" filter="url(#glowOrange)" opacity="0.9">
        <title>2026-03-17: 10 commits</title></circle><circle cx="370.9" cy="373.0" r="3.8"
        fill="#ff8c42" stroke="#ffd0a0" stroke-width="1" filter="url(#glowOrange)" opacity="0.9">
        <title>2026-03-20: 26 commits</title></circle><circle cx="427.9" cy="485.5" r="3.0"
        fill="#ff8c42" stroke="#ffd0a0" stroke-width="1" filter="url(#glowOrange)" opacity="0.9">
        <title>2026-03-22: 1 commits</title></circle><circle cx="484.9" cy="346.0" r="4.0"
        fill="#ff8c42" stroke="#ffd0a0" stroke-width="1" filter="url(#glowOrange)" opacity="0.9">
        <title>2026-03-24: 32 commits</title></circle><circle cx="513.4" cy="458.5" r="3.2"
        fill="#ff8c42" stroke="#ffd0a0" stroke-width="1" filter="url(#glowOrange)" opacity="0.9">
        <title>2026-03-25: 7 commits</title></circle><circle cx="541.9" cy="476.5" r="3.1"
        fill="#ff8c42" stroke="#ffd0a0" stroke-width="1" filter="url(#glowOrange)" opacity="0.9">
        <title>2026-03-26: 3 commits</title></circle><circle cx="570.4" cy="485.5" r="3.0"
        fill="#ff8c42" stroke="#ffd0a0" stroke-width="1" filter="url(#glowOrange)" opacity="0.9">
        <title>2026-03-27: 1 commits</title></circle><circle cx="598.8" cy="193.0" r="5.1"
        fill="#ff8c42" stroke="#ffd0a0" stroke-width="1" filter="url(#glowOrange)" opacity="0.9">
        <title>2026-03-28: 66 commits</title></circle><circle cx="627.3" cy="292.0" r="4.4"
        fill="#ff8c42" stroke="#ffd0a0" stroke-width="1" filter="url(#glowOrange)" opacity="0.9">
        <title>2026-03-29: 44 commits</title></circle><circle cx="655.8" cy="481.0" r="3.1"
        fill="#ff8c42" stroke="#ffd0a0" stroke-width="1" filter="url(#glowOrange)" opacity="0.9">
        <title>2026-03-30: 2 commits</title></circle><circle cx="684.3" cy="418.0" r="3.5"
        fill="#ff8c42" stroke="#ffd0a0" stroke-width="1" filter="url(#glowOrange)" opacity="0.9">
        <title>2026-03-31: 16 commits</title></circle><circle cx="712.8" cy="427.0" r="3.4"
        fill="#ff8c42" stroke="#ffd0a0" stroke-width="1" filter="url(#glowOrange)" opacity="0.9">
        <title>2026-04-01: 14 commits</title></circle><circle cx="741.3" cy="481.0" r="3.1"
        fill="#ff8c42" stroke="#ffd0a0" stroke-width="1" filter="url(#glowOrange)" opacity="0.9">
        <title>2026-04-02: 2 commits</title></circle><circle cx="769.8" cy="382.0" r="3.8"
        fill="#ff8c42" stroke="#ffd0a0" stroke-width="1" filter="url(#glowOrange)" opacity="0.9">
        <title>2026-04-03: 24 commits</title></circle><circle cx="798.3" cy="409.0" r="3.6"
        fill="#ff8c42" stroke="#ffd0a0" stroke-width="1" filter="url(#glowOrange)" opacity="0.9">
        <title>2026-04-04: 18 commits</title></circle><circle cx="826.8" cy="485.5" r="3.0"
        fill="#ff8c42" stroke="#ffd0a0" stroke-width="1" filter="url(#glowOrange)" opacity="0.9">
        <title>2026-04-05: 1 commits</title></circle><circle cx="855.3" cy="485.5" r="3.0"
        fill="#ff8c42" stroke="#ffd0a0" stroke-width="1" filter="url(#glowOrange)" opacity="0.9">
        <title>2026-04-06: 1 commits</title></circle><circle cx="883.8" cy="449.5" r="3.3"
        fill="#ff8c42" stroke="#ffd0a0" stroke-width="1" filter="url(#glowOrange)" opacity="0.9">
        <title>2026-04-07: 9 commits</title></circle><circle cx="912.2" cy="485.5" r="3.0"
        fill="#ff8c42" stroke="#ffd0a0" stroke-width="1" filter="url(#glowOrange)" opacity="0.9">
        <title>2026-04-08: 1 commits</title></circle><circle cx="940.7" cy="485.5" r="3.0"
        fill="#ff8c42" stroke="#ffd0a0" stroke-width="1" filter="url(#glowOrange)" opacity="0.9">
        <title>2026-04-09: 1 commits</title></circle><circle cx="969.2" cy="485.5" r="3.0"
        fill="#ff8c42" stroke="#ffd0a0" stroke-width="1" filter="url(#glowOrange)" opacity="0.9">
        <title>2026-04-10: 1 commits</title></circle><circle cx="997.7" cy="485.5" r="3.0"
        fill="#ff8c42" stroke="#ffd0a0" stroke-width="1" filter="url(#glowOrange)" opacity="0.9">
        <title>2026-04-11: 1 commits</title></circle><circle cx="1026.2" cy="472.0" r="3.1"
        fill="#ff8c42" stroke="#ffd0a0" stroke-width="1" filter="url(#glowOrange)" opacity="0.9">
        <title>2026-04-12: 4 commits</title></circle><circle cx="1054.7" cy="485.5" r="3.0"
        fill="#ff8c42" stroke="#ffd0a0" stroke-width="1" filter="url(#glowOrange)" opacity="0.9">
        <title>2026-04-13: 1 commits</title></circle><circle cx="1083.2" cy="485.5" r="3.0"
        fill="#ff8c42" stroke="#ffd0a0" stroke-width="1" filter="url(#glowOrange)" opacity="0.9">
        <title>2026-04-14: 1 commits</title></circle><circle cx="1111.7" cy="485.5" r="3.0"
        fill="#ff8c42" stroke="#ffd0a0" stroke-width="1" filter="url(#glowOrange)" opacity="0.9">
        <title>2026-04-15: 1 commits</title></circle><circle cx="1140.2" cy="485.5" r="3.0"
        fill="#ff8c42" stroke="#ffd0a0" stroke-width="1" filter="url(#glowOrange)" opacity="0.9">
        <title>2026-04-16: 1 commits</title></circle><circle cx="1168.7" cy="485.5" r="3.0"
        fill="#ff8c42" stroke="#ffd0a0" stroke-width="1" filter="url(#glowOrange)" opacity="0.9">
        <title>2026-04-17: 1 commits</title></circle><circle cx="1197.2" cy="485.5" r="3.0"
        fill="#ff8c42" stroke="#ffd0a0" stroke-width="1" filter="url(#glowOrange)" opacity="0.9">
        <title>2026-04-18: 1 commits</title></circle><circle cx="1225.6" cy="485.5" r="3.0"
        fill="#ff8c42" stroke="#ffd0a0" stroke-width="1" filter="url(#glowOrange)" opacity="0.9">
        <title>2026-04-19: 1 commits</title></circle><circle cx="1254.1" cy="476.5" r="3.1"
        fill="#ff8c42" stroke="#ffd0a0" stroke-width="1" filter="url(#glowOrange)" opacity="0.9">
        <title>2026-04-20: 3 commits</title></circle><circle cx="1282.6" cy="485.5" r="3.0"
        fill="#ff8c42" stroke="#ffd0a0" stroke-width="1" filter="url(#glowOrange)" opacity="0.9">
        <title>2026-04-21: 1 commits</title></circle><circle cx="1311.1" cy="485.5" r="3.0"
        fill="#ff8c42" stroke="#ffd0a0" stroke-width="1" filter="url(#glowOrange)" opacity="0.9">
        <title>2026-04-22: 1 commits</title></circle><circle cx="1339.6" cy="485.5" r="3.0"
        fill="#ff8c42" stroke="#ffd0a0" stroke-width="1" filter="url(#glowOrange)" opacity="0.9">
        <title>2026-04-23: 1 commits</title></circle><circle cx="1368.1" cy="485.5" r="3.0"
        fill="#ff8c42" stroke="#ffd0a0" stroke-width="1" filter="url(#glowOrange)" opacity="0.9">
        <title>2026-04-24: 1 commits</title></circle><circle cx="1396.6" cy="485.5" r="3.0"
        fill="#ff8c42" stroke="#ffd0a0" stroke-width="1" filter="url(#glowOrange)" opacity="0.9">
        <title>2026-04-25: 1 commits</title></circle><circle cx="1425.1" cy="485.5" r="3.0"
        fill="#ff8c42" stroke="#ffd0a0" stroke-width="1" filter="url(#glowOrange)" opacity="0.9">
        <title>2026-04-26: 1 commits</title></circle><circle cx="1453.6" cy="485.5" r="3.0"
        fill="#ff8c42" stroke="#ffd0a0" stroke-width="1" filter="url(#glowOrange)" opacity="0.9">
        <title>2026-04-27: 1 commits</title></circle><circle cx="1482.1" cy="485.5" r="3.0"
        fill="#ff8c42" stroke="#ffd0a0" stroke-width="1" filter="url(#glowOrange)" opacity="0.9">
        <title>2026-04-28: 1 commits</title></circle><circle cx="1510.6" cy="485.5" r="3.0"
        fill="#ff8c42" stroke="#ffd0a0" stroke-width="1" filter="url(#glowOrange)" opacity="0.9">
        <title>2026-04-29: 1 commits</title></circle><circle cx="1539.1" cy="485.5" r="3.0"
        fill="#ff8c42" stroke="#ffd0a0" stroke-width="1" filter="url(#glowOrange)" opacity="0.9">
        <title>2026-04-30: 1 commits</title></circle><circle cx="1567.5" cy="463.0" r="3.2"
        fill="#ff8c42" stroke="#ffd0a0" stroke-width="1" filter="url(#glowOrange)" opacity="0.9">
        <title>2026-05-01: 6 commits</title></circle><circle cx="1596.0" cy="485.5" r="3.0"
        fill="#ff8c42" stroke="#ffd0a0" stroke-width="1" filter="url(#glowOrange)" opacity="0.9">
        <title>2026-05-02: 1 commits</title></circle><circle cx="1624.5" cy="314.5" r="4.2"
        fill="#ff8c42" stroke="#ffd0a0" stroke-width="1" filter="url(#glowOrange)" opacity="0.9">
        <title>2026-05-03: 39 commits</title></circle><circle cx="1653.0" cy="445.0" r="3.3"
        fill="#ff8c42" stroke="#ffd0a0" stroke-width="1" filter="url(#glowOrange)" opacity="0.9">
        <title>2026-05-04: 10 commits</title></circle><circle cx="1681.5" cy="323.5" r="4.2"
        fill="#ff8c42" stroke="#ffd0a0" stroke-width="1" filter="url(#glowOrange)" opacity="0.9">
        <title>2026-05-05: 37 commits</title></circle><circle cx="1710.0" cy="454.0" r="3.3"
        fill="#ff8c42" stroke="#ffd0a0" stroke-width="1" filter="url(#glowOrange)" opacity="0.9">
        <title>2026-05-06: 8 commits</title></circle>
  <circle cx="86.0" cy="490.0" r="3.5"
        fill="#00d4f5" stroke="#80eeff" stroke-width="0.8" filter="url(#glowCyan)" opacity="0.85">
        <title>2026-03-10: 1 changes/commit</title></circle><circle cx="285.4" cy="489.8" r="3.5"
        fill="#00d4f5" stroke="#80eeff" stroke-width="0.8" filter="url(#glowCyan)" opacity="0.85">
        <title>2026-03-17: 4 changes/commit</title></circle><circle cx="370.9" cy="489.9" r="3.5"
        fill="#00d4f5" stroke="#80eeff" stroke-width="0.8" filter="url(#glowCyan)" opacity="0.85">
        <title>2026-03-20: 3 changes/commit</title></circle><circle cx="427.9" cy="489.0" r="3.5"
        fill="#00d4f5" stroke="#80eeff" stroke-width="0.8" filter="url(#glowCyan)" opacity="0.85">
        <title>2026-03-22: 22 changes/commit</title></circle><circle cx="484.9" cy="297.4" r="3.5"
        fill="#00d4f5" stroke="#80eeff" stroke-width="0.8" filter="url(#glowCyan)" opacity="0.85">
        <title>2026-03-24: 4279 changes/commit</title></circle><circle cx="513.4" cy="489.3" r="3.5"
        fill="#00d4f5" stroke="#80eeff" stroke-width="0.8" filter="url(#glowCyan)" opacity="0.85">
        <title>2026-03-25: 15 changes/commit</title></circle><circle cx="541.9" cy="487.7" r="3.5"
        fill="#00d4f5" stroke="#80eeff" stroke-width="0.8" filter="url(#glowCyan)" opacity="0.85">
        <title>2026-03-26: 52 changes/commit</title></circle><circle cx="570.4" cy="487.7" r="3.5"
        fill="#00d4f5" stroke="#80eeff" stroke-width="0.8" filter="url(#glowCyan)" opacity="0.85">
        <title>2026-03-27: 52 changes/commit</title></circle><circle cx="598.8" cy="438.7" r="3.5"
        fill="#00d4f5" stroke="#80eeff" stroke-width="0.8" filter="url(#glowCyan)" opacity="0.85">
        <title>2026-03-28: 1140 changes/commit</title></circle><circle cx="627.3" cy="479.2" r="3.5"
        fill="#00d4f5" stroke="#80eeff" stroke-width="0.8" filter="url(#glowCyan)" opacity="0.85">
        <title>2026-03-29: 241 changes/commit</title></circle><circle cx="655.8" cy="481.0" r="3.5"
        fill="#00d4f5" stroke="#80eeff" stroke-width="0.8" filter="url(#glowCyan)" opacity="0.85">
        <title>2026-03-30: 201 changes/commit</title></circle><circle cx="684.3" cy="484.6" r="3.5"
        fill="#00d4f5" stroke="#80eeff" stroke-width="0.8" filter="url(#glowCyan)" opacity="0.85">
        <title>2026-03-31: 121 changes/commit</title></circle><circle cx="712.8" cy="483.8" r="3.5"
        fill="#00d4f5" stroke="#80eeff" stroke-width="0.8" filter="url(#glowCyan)" opacity="0.85">
        <title>2026-04-01: 138 changes/commit</title></circle><circle cx="741.3" cy="484.1" r="3.5"
        fill="#00d4f5" stroke="#80eeff" stroke-width="0.8" filter="url(#glowCyan)" opacity="0.85">
        <title>2026-04-02: 130 changes/commit</title></circle><circle cx="769.8" cy="486.5" r="3.5"
        fill="#00d4f5" stroke="#80eeff" stroke-width="0.8" filter="url(#glowCyan)" opacity="0.85">
        <title>2026-04-03: 78 changes/commit</title></circle><circle cx="798.3" cy="482.5" r="3.5"
        fill="#00d4f5" stroke="#80eeff" stroke-width="0.8" filter="url(#glowCyan)" opacity="0.85">
        <title>2026-04-04: 166 changes/commit</title></circle><circle cx="826.8" cy="486.1" r="3.5"
        fill="#00d4f5" stroke="#80eeff" stroke-width="0.8" filter="url(#glowCyan)" opacity="0.85">
        <title>2026-04-05: 86 changes/commit</title></circle><circle cx="855.3" cy="480.5" r="3.5"
        fill="#00d4f5" stroke="#80eeff" stroke-width="0.8" filter="url(#glowCyan)" opacity="0.85">
        <title>2026-04-06: 212 changes/commit</title></circle><circle cx="883.8" cy="487.3" r="3.5"
        fill="#00d4f5" stroke="#80eeff" stroke-width="0.8" filter="url(#glowCyan)" opacity="0.85">
        <title>2026-04-07: 60 changes/commit</title></circle><circle cx="912.2" cy="486.7" r="3.5"
        fill="#00d4f5" stroke="#80eeff" stroke-width="0.8" filter="url(#glowCyan)" opacity="0.85">
        <title>2026-04-08: 74 changes/commit</title></circle><circle cx="940.7" cy="480.0" r="3.5"
        fill="#00d4f5" stroke="#80eeff" stroke-width="0.8" filter="url(#glowCyan)" opacity="0.85">
        <title>2026-04-09: 222 changes/commit</title></circle><circle cx="969.2" cy="479.4" r="3.5"
        fill="#00d4f5" stroke="#80eeff" stroke-width="0.8" filter="url(#glowCyan)" opacity="0.85">
        <title>2026-04-10: 236 changes/commit</title></circle><circle cx="997.7" cy="479.4" r="3.5"
        fill="#00d4f5" stroke="#80eeff" stroke-width="0.8" filter="url(#glowCyan)" opacity="0.85">
        <title>2026-04-11: 236 changes/commit</title></circle><circle cx="1026.2" cy="477.8" r="3.5"
        fill="#00d4f5" stroke="#80eeff" stroke-width="0.8" filter="url(#glowCyan)" opacity="0.85">
        <title>2026-04-12: 271 changes/commit</title></circle><circle cx="1054.7" cy="486.4" r="3.5"
        fill="#00d4f5" stroke="#80eeff" stroke-width="0.8" filter="url(#glowCyan)" opacity="0.85">
        <title>2026-04-13: 80 changes/commit</title></circle><circle cx="1083.2" cy="474.2" r="3.5"
        fill="#00d4f5" stroke="#80eeff" stroke-width="0.8" filter="url(#glowCyan)" opacity="0.85">
        <title>2026-04-14: 351 changes/commit</title></circle><circle cx="1111.7" cy="478.6" r="3.5"
        fill="#00d4f5" stroke="#80eeff" stroke-width="0.8" filter="url(#glowCyan)" opacity="0.85">
        <title>2026-04-15: 254 changes/commit</title></circle><circle cx="1140.2" cy="478.5" r="3.5"
        fill="#00d4f5" stroke="#80eeff" stroke-width="0.8" filter="url(#glowCyan)" opacity="0.85">
        <title>2026-04-16: 256 changes/commit</title></circle><circle cx="1168.7" cy="478.5" r="3.5"
        fill="#00d4f5" stroke="#80eeff" stroke-width="0.8" filter="url(#glowCyan)" opacity="0.85">
        <title>2026-04-17: 256 changes/commit</title></circle><circle cx="1197.2" cy="478.2" r="3.5"
        fill="#00d4f5" stroke="#80eeff" stroke-width="0.8" filter="url(#glowCyan)" opacity="0.85">
        <title>2026-04-18: 262 changes/commit</title></circle><circle cx="1225.6" cy="477.9" r="3.5"
        fill="#00d4f5" stroke="#80eeff" stroke-width="0.8" filter="url(#glowCyan)" opacity="0.85">
        <title>2026-04-19: 270 changes/commit</title></circle><circle cx="1254.1" cy="475.4" r="3.5"
        fill="#00d4f5" stroke="#80eeff" stroke-width="0.8" filter="url(#glowCyan)" opacity="0.85">
        <title>2026-04-20: 325 changes/commit</title></circle><circle cx="1282.6" cy="486.5" r="3.5"
        fill="#00d4f5" stroke="#80eeff" stroke-width="0.8" filter="url(#glowCyan)" opacity="0.85">
        <title>2026-04-21: 78 changes/commit</title></circle><circle cx="1311.1" cy="477.3" r="3.5"
        fill="#00d4f5" stroke="#80eeff" stroke-width="0.8" filter="url(#glowCyan)" opacity="0.85">
        <title>2026-04-22: 282 changes/commit</title></circle><circle cx="1339.6" cy="477.0" r="3.5"
        fill="#00d4f5" stroke="#80eeff" stroke-width="0.8" filter="url(#glowCyan)" opacity="0.85">
        <title>2026-04-23: 288 changes/commit</title></circle><circle cx="1368.1" cy="476.6" r="3.5"
        fill="#00d4f5" stroke="#80eeff" stroke-width="0.8" filter="url(#glowCyan)" opacity="0.85">
        <title>2026-04-24: 298 changes/commit</title></circle><circle cx="1396.6" cy="476.3" r="3.5"
        fill="#00d4f5" stroke="#80eeff" stroke-width="0.8" filter="url(#glowCyan)" opacity="0.85">
        <title>2026-04-25: 304 changes/commit</title></circle><circle cx="1425.1" cy="476.4" r="3.5"
        fill="#00d4f5" stroke="#80eeff" stroke-width="0.8" filter="url(#glowCyan)" opacity="0.85">
        <title>2026-04-26: 302 changes/commit</title></circle><circle cx="1453.6" cy="476.1" r="3.5"
        fill="#00d4f5" stroke="#80eeff" stroke-width="0.8" filter="url(#glowCyan)" opacity="0.85">
        <title>2026-04-27: 310 changes/commit</title></circle><circle cx="1482.1" cy="470.0" r="3.5"
        fill="#00d4f5" stroke="#80eeff" stroke-width="0.8" filter="url(#glowCyan)" opacity="0.85">
        <title>2026-04-28: 445 changes/commit</title></circle><circle cx="1510.6" cy="476.1" r="3.5"
        fill="#00d4f5" stroke="#80eeff" stroke-width="0.8" filter="url(#glowCyan)" opacity="0.85">
        <title>2026-04-29: 308 changes/commit</title></circle><circle cx="1539.1" cy="463.5" r="3.5"
        fill="#00d4f5" stroke="#80eeff" stroke-width="0.8" filter="url(#glowCyan)" opacity="0.85">
        <title>2026-04-30: 588 changes/commit</title></circle><circle cx="1567.5" cy="430.1" r="3.5"
        fill="#00d4f5" stroke="#80eeff" stroke-width="0.8" filter="url(#glowCyan)" opacity="0.85">
        <title>2026-05-01: 1330 changes/commit</title></circle><circle cx="1596.0" cy="486.4" r="3.5"
        fill="#00d4f5" stroke="#80eeff" stroke-width="0.8" filter="url(#glowCyan)" opacity="0.85">
        <title>2026-05-02: 80 changes/commit</title></circle><circle cx="1624.5" cy="474.3" r="3.5"
        fill="#00d4f5" stroke="#80eeff" stroke-width="0.8" filter="url(#glowCyan)" opacity="0.85">
        <title>2026-05-03: 350 changes/commit</title></circle><circle cx="1653.0" cy="182.0" r="3.5"
        fill="#00d4f5" stroke="#80eeff" stroke-width="0.8" filter="url(#glowCyan)" opacity="0.85">
        <title>2026-05-04: 6844 changes/commit</title></circle><circle cx="1681.5" cy="480.1" r="3.5"
        fill="#00d4f5" stroke="#80eeff" stroke-width="0.8" filter="url(#glowCyan)" opacity="0.85">
        <title>2026-05-05: 219 changes/commit</title></circle><circle cx="1710.0" cy="481.6" r="3.5"
        fill="#00d4f5" stroke="#80eeff" stroke-width="0.8" filter="url(#glowCyan)" opacity="0.85">
        <title>2026-05-06: 186 changes/commit</title></circle>
</g>

<!-- ════ ANNOTATIONS ════ -->

        <line x1="598.8" y1="181.0"
          x2="598.8" y2="172.0"
          stroke="#2563eb" stroke-width="1.2" stroke-dasharray="4,4" opacity="0.65"/>
        <rect x="533.8" y="148.0"
          width="130" height="24" rx="6"
          fill="#030e26" stroke="#2563eb" stroke-width="1" opacity="0.96"/>
        <text x="598.8" y="164.0"
          font-size="10" fill="#93c5fd" text-anchor="middle"
          font-family="'Lexend','Segoe UI',sans-serif" font-weight="400"
          letter-spacing="0.5">⬡  Peak · 66 commits</text>
        <line x1="484.9" y1="494" x2="1710.0" y2="494"
          stroke="#f472b6" stroke-width="2.5" stroke-linecap="round" opacity="0.7"/>
        <circle cx="484.9" cy="494" r="3" fill="#f472b6" opacity="0.9"/>
        <circle cx="1710.0" cy="494" r="3" fill="#f472b6" opacity="0.9"/>
        <text x="1097.4" y="508" font-size="8.5" fill="#f472b6"
          text-anchor="middle" font-family="'Lexend','Segoe UI',sans-serif"
          font-weight="400" opacity="0.85">🔥 44-day streak</text>
        <line x1="484.9" y1="130" x2="484.9" y2="490"
          stroke="#f472b6" stroke-width="0.8" stroke-dasharray="3,6" opacity="0.35"/>

<!-- ════ CORNER BRACKETS ════ -->
<path d="M 86 152.0 L 86 130 L 108.0 130"
      fill="none" stroke="#4a90e2" stroke-width="2" stroke-opacity="0.85" stroke-linecap="round"/><path d="M 1710 152.0 L 1710 130 L 1688.0 130"
      fill="none" stroke="#4a90e2" stroke-width="2" stroke-opacity="0.85" stroke-linecap="round"/><path d="M 86 468.0 L 86 490 L 108.0 490"
      fill="none" stroke="#4a90e2" stroke-width="2" stroke-opacity="0.85" stroke-linecap="round"/><path d="M 1710 468.0 L 1710 490 L 1688.0 490"
      fill="none" stroke="#4a90e2" stroke-width="2" stroke-opacity="0.85" stroke-linecap="round"/>

<!-- ════ HEATMAP ════ -->
<text x="894" y="646" font-size="11" fill="#3d7ed4"
    text-anchor="middle" font-family="'Lexend','Segoe UI',sans-serif"
    letter-spacing="3" font-weight="400">CONTRIBUTION  CALENDAR</text><text x="829" y="686"
        font-size="9" fill="#3d7ed4" text-anchor="end"
        font-family="'Lexend','Segoe UI',sans-serif" font-weight="300">M</text><text x="829" y="716"
        font-size="9" fill="#3d7ed4" text-anchor="end"
        font-family="'Lexend','Segoe UI',sans-serif" font-weight="300">W</text><text x="829" y="746"
        font-size="9" fill="#3d7ed4" text-anchor="end"
        font-family="'Lexend','Segoe UI',sans-serif" font-weight="300">F</text><rect x="835.0" y="660.0"
        width="12" height="12" rx="2.5" fill="#0a1630"
        stroke="#0d2464" stroke-width="0.5" stroke-opacity="0.4">
        <title>2026-03-08: 0 commits</title></rect><rect x="835.0" y="675.0"
        width="12" height="12" rx="2.5" fill="#0a1630"
        stroke="#0d2464" stroke-width="0.5" stroke-opacity="0.4">
        <title>2026-03-09: 0 commits</title></rect><rect x="835.0" y="690.0"
        width="12" height="12" rx="2.5" fill="#0d3068"
        stroke="#0d2464" stroke-width="0.5" stroke-opacity="0.4">
        <title>2026-03-10: 1 commits</title></rect><rect x="835.0" y="705.0"
        width="12" height="12" rx="2.5" fill="#0a1630"
        stroke="#0d2464" stroke-width="0.5" stroke-opacity="0.4">
        <title>2026-03-11: 0 commits</title></rect><rect x="835.0" y="720.0"
        width="12" height="12" rx="2.5" fill="#0a1630"
        stroke="#0d2464" stroke-width="0.5" stroke-opacity="0.4">
        <title>2026-03-12: 0 commits</title></rect><rect x="835.0" y="735.0"
        width="12" height="12" rx="2.5" fill="#0a1630"
        stroke="#0d2464" stroke-width="0.5" stroke-opacity="0.4">
        <title>2026-03-13: 0 commits</title></rect><rect x="835.0" y="750.0"
        width="12" height="12" rx="2.5" fill="#0a1630"
        stroke="#0d2464" stroke-width="0.5" stroke-opacity="0.4">
        <title>2026-03-14: 0 commits</title></rect><rect x="850.0" y="660.0"
        width="12" height="12" rx="2.5" fill="#0a1630"
        stroke="#0d2464" stroke-width="0.5" stroke-opacity="0.4">
        <title>2026-03-15: 0 commits</title></rect><rect x="850.0" y="675.0"
        width="12" height="12" rx="2.5" fill="#0a1630"
        stroke="#0d2464" stroke-width="0.5" stroke-opacity="0.4">
        <title>2026-03-16: 0 commits</title></rect><rect x="850.0" y="690.0"
        width="12" height="12" rx="2.5" fill="#0d3068"
        stroke="#0d2464" stroke-width="0.5" stroke-opacity="0.4">
        <title>2026-03-17: 10 commits</title></rect><rect x="850.0" y="705.0"
        width="12" height="12" rx="2.5" fill="#0a1630"
        stroke="#0d2464" stroke-width="0.5" stroke-opacity="0.4">
        <title>2026-03-18: 0 commits</title></rect><rect x="850.0" y="720.0"
        width="12" height="12" rx="2.5" fill="#0a1630"
        stroke="#0d2464" stroke-width="0.5" stroke-opacity="0.4">
        <title>2026-03-19: 0 commits</title></rect><rect x="850.0" y="735.0"
        width="12" height="12" rx="2.5" fill="#1e56a8"
        stroke="#0d2464" stroke-width="0.5" stroke-opacity="0.4">
        <title>2026-03-20: 26 commits</title></rect><rect x="850.0" y="750.0"
        width="12" height="12" rx="2.5" fill="#0a1630"
        stroke="#0d2464" stroke-width="0.5" stroke-opacity="0.4">
        <title>2026-03-21: 0 commits</title></rect><rect x="865.0" y="660.0"
        width="12" height="12" rx="2.5" fill="#0d3068"
        stroke="#0d2464" stroke-width="0.5" stroke-opacity="0.4">
        <title>2026-03-22: 1 commits</title></rect><rect x="865.0" y="675.0"
        width="12" height="12" rx="2.5" fill="#0a1630"
        stroke="#0d2464" stroke-width="0.5" stroke-opacity="0.4">
        <title>2026-03-23: 0 commits</title></rect><rect x="865.0" y="690.0"
        width="12" height="12" rx="2.5" fill="#1e56a8"
        stroke="#0d2464" stroke-width="0.5" stroke-opacity="0.4">
        <title>2026-03-24: 32 commits</title></rect><rect x="865.0" y="705.0"
        width="12" height="12" rx="2.5" fill="#0d3068"
        stroke="#0d2464" stroke-width="0.5" stroke-opacity="0.4">
        <title>2026-03-25: 7 commits</title></rect><rect x="865.0" y="720.0"
        width="12" height="12" rx="2.5" fill="#0d3068"
        stroke="#0d2464" stroke-width="0.5" stroke-opacity="0.4">
        <title>2026-03-26: 3 commits</title></rect><rect x="865.0" y="735.0"
        width="12" height="12" rx="2.5" fill="#0d3068"
        stroke="#0d2464" stroke-width="0.5" stroke-opacity="0.4">
        <title>2026-03-27: 1 commits</title></rect><rect x="865.0" y="750.0"
        width="12" height="12" rx="2.5" fill="#93c5fd"
        stroke="#0d2464" stroke-width="0.5" stroke-opacity="0.4">
        <title>2026-03-28: 66 commits</title></rect><rect x="880.0" y="660.0"
        width="12" height="12" rx="2.5" fill="#3b82f6"
        stroke="#0d2464" stroke-width="0.5" stroke-opacity="0.4">
        <title>2026-03-29: 44 commits</title></rect><rect x="880.0" y="675.0"
        width="12" height="12" rx="2.5" fill="#0d3068"
        stroke="#0d2464" stroke-width="0.5" stroke-opacity="0.4">
        <title>2026-03-30: 2 commits</title></rect><rect x="880.0" y="690.0"
        width="12" height="12" rx="2.5" fill="#0d3068"
        stroke="#0d2464" stroke-width="0.5" stroke-opacity="0.4">
        <title>2026-03-31: 16 commits</title></rect><rect x="880.0" y="705.0"
        width="12" height="12" rx="2.5" fill="#0d3068"
        stroke="#0d2464" stroke-width="0.5" stroke-opacity="0.4">
        <title>2026-04-01: 14 commits</title></rect><rect x="880.0" y="720.0"
        width="12" height="12" rx="2.5" fill="#0d3068"
        stroke="#0d2464" stroke-width="0.5" stroke-opacity="0.4">
        <title>2026-04-02: 2 commits</title></rect><rect x="880.0" y="735.0"
        width="12" height="12" rx="2.5" fill="#1e56a8"
        stroke="#0d2464" stroke-width="0.5" stroke-opacity="0.4">
        <title>2026-04-03: 24 commits</title></rect><rect x="880.0" y="750.0"
        width="12" height="12" rx="2.5" fill="#1e56a8"
        stroke="#0d2464" stroke-width="0.5" stroke-opacity="0.4">
        <title>2026-04-04: 18 commits</title></rect><text x="880.0" y="656" font-size="8.5" fill="#3d7ed4"
        font-family="'Lexend','Segoe UI',sans-serif" font-weight="300">Apr</text><rect x="895.0" y="660.0"
        width="12" height="12" rx="2.5" fill="#0d3068"
        stroke="#0d2464" stroke-width="0.5" stroke-opacity="0.4">
        <title>2026-04-05: 1 commits</title></rect><rect x="895.0" y="675.0"
        width="12" height="12" rx="2.5" fill="#0d3068"
        stroke="#0d2464" stroke-width="0.5" stroke-opacity="0.4">
        <title>2026-04-06: 1 commits</title></rect><rect x="895.0" y="690.0"
        width="12" height="12" rx="2.5" fill="#0d3068"
        stroke="#0d2464" stroke-width="0.5" stroke-opacity="0.4">
        <title>2026-04-07: 9 commits</title></rect><rect x="895.0" y="705.0"
        width="12" height="12" rx="2.5" fill="#0d3068"
        stroke="#0d2464" stroke-width="0.5" stroke-opacity="0.4">
        <title>2026-04-08: 1 commits</title></rect><rect x="895.0" y="720.0"
        width="12" height="12" rx="2.5" fill="#0d3068"
        stroke="#0d2464" stroke-width="0.5" stroke-opacity="0.4">
        <title>2026-04-09: 1 commits</title></rect><rect x="895.0" y="735.0"
        width="12" height="12" rx="2.5" fill="#0d3068"
        stroke="#0d2464" stroke-width="0.5" stroke-opacity="0.4">
        <title>2026-04-10: 1 commits</title></rect><rect x="895.0" y="750.0"
        width="12" height="12" rx="2.5" fill="#0d3068"
        stroke="#0d2464" stroke-width="0.5" stroke-opacity="0.4">
        <title>2026-04-11: 1 commits</title></rect><rect x="910.0" y="660.0"
        width="12" height="12" rx="2.5" fill="#0d3068"
        stroke="#0d2464" stroke-width="0.5" stroke-opacity="0.4">
        <title>2026-04-12: 4 commits</title></rect><rect x="910.0" y="675.0"
        width="12" height="12" rx="2.5" fill="#0d3068"
        stroke="#0d2464" stroke-width="0.5" stroke-opacity="0.4">
        <title>2026-04-13: 1 commits</title></rect><rect x="910.0" y="690.0"
        width="12" height="12" rx="2.5" fill="#0d3068"
        stroke="#0d2464" stroke-width="0.5" stroke-opacity="0.4">
        <title>2026-04-14: 1 commits</title></rect><rect x="910.0" y="705.0"
        width="12" height="12" rx="2.5" fill="#0d3068"
        stroke="#0d2464" stroke-width="0.5" stroke-opacity="0.4">
        <title>2026-04-15: 1 commits</title></rect><rect x="910.0" y="720.0"
        width="12" height="12" rx="2.5" fill="#0d3068"
        stroke="#0d2464" stroke-width="0.5" stroke-opacity="0.4">
        <title>2026-04-16: 1 commits</title></rect><rect x="910.0" y="735.0"
        width="12" height="12" rx="2.5" fill="#0d3068"
        stroke="#0d2464" stroke-width="0.5" stroke-opacity="0.4">
        <title>2026-04-17: 1 commits</title></rect><rect x="910.0" y="750.0"
        width="12" height="12" rx="2.5" fill="#0d3068"
        stroke="#0d2464" stroke-width="0.5" stroke-opacity="0.4">
        <title>2026-04-18: 1 commits</title></rect><rect x="925.0" y="660.0"
        width="12" height="12" rx="2.5" fill="#0d3068"
        stroke="#0d2464" stroke-width="0.5" stroke-opacity="0.4">
        <title>2026-04-19: 1 commits</title></rect><rect x="925.0" y="675.0"
        width="12" height="12" rx="2.5" fill="#0d3068"
        stroke="#0d2464" stroke-width="0.5" stroke-opacity="0.4">
        <title>2026-04-20: 3 commits</title></rect><rect x="925.0" y="690.0"
        width="12" height="12" rx="2.5" fill="#0d3068"
        stroke="#0d2464" stroke-width="0.5" stroke-opacity="0.4">
        <title>2026-04-21: 1 commits</title></rect><rect x="925.0" y="705.0"
        width="12" height="12" rx="2.5" fill="#0d3068"
        stroke="#0d2464" stroke-width="0.5" stroke-opacity="0.4">
        <title>2026-04-22: 1 commits</title></rect><rect x="925.0" y="720.0"
        width="12" height="12" rx="2.5" fill="#0d3068"
        stroke="#0d2464" stroke-width="0.5" stroke-opacity="0.4">
        <title>2026-04-23: 1 commits</title></rect><rect x="925.0" y="735.0"
        width="12" height="12" rx="2.5" fill="#0d3068"
        stroke="#0d2464" stroke-width="0.5" stroke-opacity="0.4">
        <title>2026-04-24: 1 commits</title></rect><rect x="925.0" y="750.0"
        width="12" height="12" rx="2.5" fill="#0d3068"
        stroke="#0d2464" stroke-width="0.5" stroke-opacity="0.4">
        <title>2026-04-25: 1 commits</title></rect><rect x="940.0" y="660.0"
        width="12" height="12" rx="2.5" fill="#0d3068"
        stroke="#0d2464" stroke-width="0.5" stroke-opacity="0.4">
        <title>2026-04-26: 1 commits</title></rect><rect x="940.0" y="675.0"
        width="12" height="12" rx="2.5" fill="#0d3068"
        stroke="#0d2464" stroke-width="0.5" stroke-opacity="0.4">
        <title>2026-04-27: 1 commits</title></rect><rect x="940.0" y="690.0"
        width="12" height="12" rx="2.5" fill="#0d3068"
        stroke="#0d2464" stroke-width="0.5" stroke-opacity="0.4">
        <title>2026-04-28: 1 commits</title></rect><rect x="940.0" y="705.0"
        width="12" height="12" rx="2.5" fill="#0d3068"
        stroke="#0d2464" stroke-width="0.5" stroke-opacity="0.4">
        <title>2026-04-29: 1 commits</title></rect><rect x="940.0" y="720.0"
        width="12" height="12" rx="2.5" fill="#0d3068"
        stroke="#0d2464" stroke-width="0.5" stroke-opacity="0.4">
        <title>2026-04-30: 1 commits</title></rect><rect x="940.0" y="735.0"
        width="12" height="12" rx="2.5" fill="#0d3068"
        stroke="#0d2464" stroke-width="0.5" stroke-opacity="0.4">
        <title>2026-05-01: 6 commits</title></rect><rect x="940.0" y="750.0"
        width="12" height="12" rx="2.5" fill="#0d3068"
        stroke="#0d2464" stroke-width="0.5" stroke-opacity="0.4">
        <title>2026-05-02: 1 commits</title></rect><text x="940.0" y="656" font-size="8.5" fill="#3d7ed4"
        font-family="'Lexend','Segoe UI',sans-serif" font-weight="300">May</text><rect x="955.0" y="660.0"
        width="12" height="12" rx="2.5" fill="#3b82f6"
        stroke="#0d2464" stroke-width="0.5" stroke-opacity="0.4">
        <title>2026-05-03: 39 commits</title></rect><rect x="955.0" y="675.0"
        width="12" height="12" rx="2.5" fill="#0d3068"
        stroke="#0d2464" stroke-width="0.5" stroke-opacity="0.4">
        <title>2026-05-04: 10 commits</title></rect><rect x="955.0" y="690.0"
        width="12" height="12" rx="2.5" fill="#3b82f6"
        stroke="#0d2464" stroke-width="0.5" stroke-opacity="0.4">
        <title>2026-05-05: 37 commits</title></rect><rect x="955.0" y="705.0"
        width="12" height="12" rx="2.5" fill="#0d3068"
        stroke="#0d2464" stroke-width="0.5" stroke-opacity="0.4">
        <title>2026-05-06: 8 commits</title></rect><rect x="955.0" y="720.0"
        width="12" height="12" rx="2.5" fill="#0a1630"
        stroke="#0d2464" stroke-width="0.5" stroke-opacity="0.4">
        <title>2026-05-07: 0 commits</title></rect><rect x="955.0" y="735.0"
        width="12" height="12" rx="2.5" fill="#0a1630"
        stroke="#0d2464" stroke-width="0.5" stroke-opacity="0.4">
        <title>2026-05-08: 0 commits</title></rect><rect x="955.0" y="750.0"
        width="12" height="12" rx="2.5" fill="#0a1630"
        stroke="#0d2464" stroke-width="0.5" stroke-opacity="0.4">
        <title>2026-05-09: 0 commits</title></rect><rect x="970.0" y="660.0"
        width="12" height="12" rx="2.5" fill="#0a1630"
        stroke="#0d2464" stroke-width="0.5" stroke-opacity="0.4">
        <title>2026-05-10: 0 commits</title></rect><rect x="970.0" y="675.0"
        width="12" height="12" rx="2.5" fill="#0a1630"
        stroke="#0d2464" stroke-width="0.5" stroke-opacity="0.4">
        <title>2026-05-11: 0 commits</title></rect><rect x="970.0" y="690.0"
        width="12" height="12" rx="2.5" fill="#0a1630"
        stroke="#0d2464" stroke-width="0.5" stroke-opacity="0.4">
        <title>2026-05-12: 0 commits</title></rect><rect x="970.0" y="705.0"
        width="12" height="12" rx="2.5" fill="#0a1630"
        stroke="#0d2464" stroke-width="0.5" stroke-opacity="0.4">
        <title>2026-05-13: 0 commits</title></rect><rect x="970.0" y="720.0"
        width="12" height="12" rx="2.5" fill="#0a1630"
        stroke="#0d2464" stroke-width="0.5" stroke-opacity="0.4">
        <title>2026-05-14: 0 commits</title></rect><rect x="970.0" y="735.0"
        width="12" height="12" rx="2.5" fill="#0a1630"
        stroke="#0d2464" stroke-width="0.5" stroke-opacity="0.4">
        <title>2026-05-15: 0 commits</title></rect><rect x="970.0" y="750.0"
        width="12" height="12" rx="2.5" fill="#0a1630"
        stroke="#0d2464" stroke-width="0.5" stroke-opacity="0.4">
        <title>2026-05-16: 0 commits</title></rect>

<!-- ════ BOTTOM PANELS ════ -->

    <rect x="86" y="823" width="320" height="110"
      rx="4" fill="#030e26" fill-opacity="0.6" stroke="#1a3f7a" stroke-width="0.8"/>
    <text x="246" y="819" font-size="8" fill="#3d7ed4"
      text-anchor="middle" font-family="'Lexend','Segoe UI',sans-serif"
      letter-spacing="2" font-weight="300">OVERVIEW</text>
    <g clip-path="url(#minimapClip)">
      <path d="M 86.00 931.58 C 86.94 931.82, 89.74 932.76, 91.61 933.00 C 93.49 933.24, 95.36 933.00, 97.23 933.00 C 99.10 933.00, 100.97 933.00, 102.84 933.00 C 104.71 933.00, 106.58 933.00, 108.46 933.00 C 110.33 933.00, 112.20 933.00, 114.07 933.00 C 115.94 933.00, 117.81 935.36, 119.68 933.00 C 121.56 930.64, 123.43 918.83, 125.30 918.83 C 127.17 918.83, 129.04 930.64, 130.91 933.00 C 132.78 935.36, 134.65 939.14, 136.53 933.00 C 138.40 926.86, 140.27 896.17, 142.14 896.17 C 144.01 896.17, 145.88 927.10, 147.75 933.00 C 149.63 938.90, 151.50 931.58, 153.37 931.58 C 155.24 931.58, 157.11 940.32, 158.98 933.00 C 160.85 925.68, 162.73 889.32, 164.60 887.67 C 166.47 886.01, 168.34 916.24, 170.21 923.08 C 172.08 929.93, 173.95 927.33, 175.82 928.75 C 177.70 930.17, 179.57 946.46, 181.44 931.58 C 183.31 916.71, 185.18 849.65, 187.05 839.50 C 188.92 829.35, 190.80 855.56, 192.67 870.67 C 194.54 885.78, 196.41 923.56, 198.28 930.17 C 200.15 936.78, 202.02 913.17, 203.89 910.33 C 205.77 907.50, 207.64 909.86, 209.51 913.17 C 211.38 916.47, 213.25 932.53, 215.12 930.17 C 216.99 927.81, 218.87 902.78, 220.74 899.00 C 222.61 895.22, 224.48 902.07, 226.35 907.50 C 228.22 912.93, 230.09 927.57, 231.96 931.58 C 233.84 935.60, 235.71 933.47, 237.58 931.58 C 239.45 929.69, 241.32 920.25, 243.19 920.25 C 245.06 920.25, 246.94 929.69, 248.81 931.58 C 250.68 933.47, 252.55 931.58, 254.42 931.58 C 256.29 931.58, 258.16 931.58, 260.04 931.58 C 261.91 931.58, 263.78 932.29, 265.65 931.58 C 267.52 930.88, 269.39 927.33, 271.26 927.33 C 273.13 927.33, 275.01 930.88, 276.88 931.58 C 278.75 932.29, 280.62 931.58, 282.49 931.58 C 284.36 931.58, 286.23 931.58, 288.11 931.58 C 289.98 931.58, 291.85 931.58, 293.72 931.58 C 295.59 931.58, 297.46 931.58, 299.33 931.58 C 301.20 931.58, 303.08 931.58, 304.95 931.58 C 306.82 931.58, 308.69 932.06, 310.56 931.58 C 312.43 931.11, 314.30 928.75, 316.18 928.75 C 318.05 928.75, 319.92 931.11, 321.79 931.58 C 323.66 932.06, 325.53 931.58, 327.40 931.58 C 329.27 931.58, 331.15 931.58, 333.02 931.58 C 334.89 931.58, 336.76 931.58, 338.63 931.58 C 340.50 931.58, 342.37 931.58, 344.25 931.58 C 346.12 931.58, 347.99 931.58, 349.86 931.58 C 351.73 931.58, 353.60 931.58, 355.47 931.58 C 357.35 931.58, 359.22 931.58, 361.09 931.58 C 362.96 931.58, 364.83 931.58, 366.70 931.58 C 368.57 931.58, 370.44 932.76, 372.32 931.58 C 374.19 930.40, 376.06 924.50, 377.93 924.50 C 379.80 924.50, 381.67 939.38, 383.54 931.58 C 385.42 923.79, 387.29 879.88, 389.16 877.75 C 391.03 875.63, 392.90 918.36, 394.77 918.83 C 396.64 919.31, 398.51 880.11, 400.39 880.58 C 402.26 881.06, 405.06 914.82, 406.00 921.67 L 406.00 933 L 86.00 933 Z" fill="#4a90e2" fill-opacity="0.15"/>
      <path d="M 86.00 931.58 C 86.94 931.82, 89.74 932.76, 91.61 933.00 C 93.49 933.24, 95.36 933.00, 97.23 933.00 C 99.10 933.00, 100.97 933.00, 102.84 933.00 C 104.71 933.00, 106.58 933.00, 108.46 933.00 C 110.33 933.00, 112.20 933.00, 114.07 933.00 C 115.94 933.00, 117.81 935.36, 119.68 933.00 C 121.56 930.64, 123.43 918.83, 125.30 918.83 C 127.17 918.83, 129.04 930.64, 130.91 933.00 C 132.78 935.36, 134.65 939.14, 136.53 933.00 C 138.40 926.86, 140.27 896.17, 142.14 896.17 C 144.01 896.17, 145.88 927.10, 147.75 933.00 C 149.63 938.90, 151.50 931.58, 153.37 931.58 C 155.24 931.58, 157.11 940.32, 158.98 933.00 C 160.85 925.68, 162.73 889.32, 164.60 887.67 C 166.47 886.01, 168.34 916.24, 170.21 923.08 C 172.08 929.93, 173.95 927.33, 175.82 928.75 C 177.70 930.17, 179.57 946.46, 181.44 931.58 C 183.31 916.71, 185.18 849.65, 187.05 839.50 C 188.92 829.35, 190.80 855.56, 192.67 870.67 C 194.54 885.78, 196.41 923.56, 198.28 930.17 C 200.15 936.78, 202.02 913.17, 203.89 910.33 C 205.77 907.50, 207.64 909.86, 209.51 913.17 C 211.38 916.47, 213.25 932.53, 215.12 930.17 C 216.99 927.81, 218.87 902.78, 220.74 899.00 C 222.61 895.22, 224.48 902.07, 226.35 907.50 C 228.22 912.93, 230.09 927.57, 231.96 931.58 C 233.84 935.60, 235.71 933.47, 237.58 931.58 C 239.45 929.69, 241.32 920.25, 243.19 920.25 C 245.06 920.25, 246.94 929.69, 248.81 931.58 C 250.68 933.47, 252.55 931.58, 254.42 931.58 C 256.29 931.58, 258.16 931.58, 260.04 931.58 C 261.91 931.58, 263.78 932.29, 265.65 931.58 C 267.52 930.88, 269.39 927.33, 271.26 927.33 C 273.13 927.33, 275.01 930.88, 276.88 931.58 C 278.75 932.29, 280.62 931.58, 282.49 931.58 C 284.36 931.58, 286.23 931.58, 288.11 931.58 C 289.98 931.58, 291.85 931.58, 293.72 931.58 C 295.59 931.58, 297.46 931.58, 299.33 931.58 C 301.20 931.58, 303.08 931.58, 304.95 931.58 C 306.82 931.58, 308.69 932.06, 310.56 931.58 C 312.43 931.11, 314.30 928.75, 316.18 928.75 C 318.05 928.75, 319.92 931.11, 321.79 931.58 C 323.66 932.06, 325.53 931.58, 327.40 931.58 C 329.27 931.58, 331.15 931.58, 333.02 931.58 C 334.89 931.58, 336.76 931.58, 338.63 931.58 C 340.50 931.58, 342.37 931.58, 344.25 931.58 C 346.12 931.58, 347.99 931.58, 349.86 931.58 C 351.73 931.58, 353.60 931.58, 355.47 931.58 C 357.35 931.58, 359.22 931.58, 361.09 931.58 C 362.96 931.58, 364.83 931.58, 366.70 931.58 C 368.57 931.58, 370.44 932.76, 372.32 931.58 C 374.19 930.40, 376.06 924.50, 377.93 924.50 C 379.80 924.50, 381.67 939.38, 383.54 931.58 C 385.42 923.79, 387.29 879.88, 389.16 877.75 C 391.03 875.63, 392.90 918.36, 394.77 918.83 C 396.64 919.31, 398.51 880.11, 400.39 880.58 C 402.26 881.06, 405.06 914.82, 406.00 921.67" fill="none" stroke="#4a90e2" stroke-width="1.5" stroke-opacity="0.7"/>
    </g>
    <clipPath id="minimapClip">
      <rect x="86" y="823" width="320" height="110" rx="4"/>
    </clipPath><path d="M 1570.00 854.90
      L 1570.00 836.00
      A 42 42 0 1 1 1532.79 897.49
      L 1549.54 888.72
      A 23.1 23.1 0 1 0 1570.00 854.90 Z"
      fill="#4a90e2" fill-opacity="0.8" stroke="#030e26" stroke-width="1.5">
      <title>Kieran Lucas: 274 commits (67%)</title></path><path d="M 1549.54 888.72
      L 1532.79 897.49
      A 42 42 0 0 1 1532.07 859.96
      L 1549.14 868.08
      A 23.1 23.1 0 0 0 1549.54 888.72 Z"
      fill="#ff8c42" fill-opacity="0.8" stroke="#030e26" stroke-width="1.5">
      <title>HumaNormal: 60 commits (15%)</title></path><path d="M 1549.14 868.08
      L 1532.07 859.96
      A 42 42 0 0 1 1559.73 837.27
      L 1564.35 855.60
      A 23.1 23.1 0 0 0 1549.14 868.08 Z"
      fill="#00d4f5" fill-opacity="0.8" stroke="#030e26" stroke-width="1.5">
      <title>github-actions: 57 commits (14%)</title></path><path d="M 1564.35 855.60
      L 1559.73 837.27
      A 42 42 0 0 1 1569.35 836.01
      L 1569.64 854.90
      A 23.1 23.1 0 0 0 1564.35 855.60 Z"
      fill="#22c55e" fill-opacity="0.8" stroke="#030e26" stroke-width="1.5">
      <title>stillqhuy: 15 commits (4%)</title></path><path d="M 1569.64 854.90
      L 1569.35 836.01
      A 42 42 0 0 1 1570.00 836.00
      L 1570.00 854.90
      A 23.1 23.1 0 0 0 1569.64 854.90 Z"
      fill="#ef4444" fill-opacity="0.8" stroke="#030e26" stroke-width="1.5">
      <title>Nguyễn Đinh Việt Đức: 1 commits (0%)</title></path><text x="1570" y="874" font-size="9" fill="#3d7ed4" text-anchor="middle"
    font-family="'Lexend','Segoe UI',sans-serif" letter-spacing="1.5" font-weight="300">AUTHORS</text><text x="1570" y="892" font-size="16" fill="#cce8ff" text-anchor="middle"
    font-family="'Lexend','Segoe UI',sans-serif" font-weight="600">5</text><rect x="1628" y="830" width="8" height="8" rx="2" fill="#4a90e2" opacity="0.85"/><text x="1642" y="838" font-size="9.5" fill="#3d7ed4"
      font-family="'Lexend','Segoe UI',sans-serif" font-weight="300">Kieran Lucas (274)</text><rect x="1628" y="848" width="8" height="8" rx="2" fill="#ff8c42" opacity="0.85"/><text x="1642" y="856" font-size="9.5" fill="#3d7ed4"
      font-family="'Lexend','Segoe UI',sans-serif" font-weight="300">HumaNormal (60)</text><rect x="1628" y="866" width="8" height="8" rx="2" fill="#00d4f5" opacity="0.85"/><text x="1642" y="874" font-size="9.5" fill="#3d7ed4"
      font-family="'Lexend','Segoe UI',sans-serif" font-weight="300">github-actions (57)</text><rect x="1628" y="884" width="8" height="8" rx="2" fill="#22c55e" opacity="0.85"/><text x="1642" y="892" font-size="9.5" fill="#3d7ed4"
      font-family="'Lexend','Segoe UI',sans-serif" font-weight="300">stillqhuy (15)</text><rect x="1628" y="902" width="8" height="8" rx="2" fill="#ef4444" opacity="0.85"/><text x="1642" y="910" font-size="9.5" fill="#3d7ed4"
      font-family="'Lexend','Segoe UI',sans-serif" font-weight="300">Nguyễn Đinh … (1)</text>

<!-- ════ WAVES ════ -->
<path d="M 0 963 Q 111.8 956.0 223.5 963 Q 335.3 956.0 447.0 963 Q 558.8 956.0 670.5 963 Q 782.3 956.0 894.0 963 Q 1005.8 956.0 1117.5 963 Q 1229.3 956.0 1341.0 963 Q 1452.8 956.0 1564.5 963 Q 1676.3 956.0 1788.0 963" fill="none" stroke="#1948a0" stroke-width="1.2" stroke-opacity="0.35"/>
<path d="M 0 958 Q 111.8 952.5 223.5 958 Q 335.3 952.5 447.0 958 Q 558.8 952.5 670.5 958 Q 782.3 952.5 894.0 958 Q 1005.8 952.5 1117.5 958 Q 1229.3 952.5 1341.0 958 Q 1452.8 952.5 1564.5 958 Q 1676.3 952.5 1788.0 958" fill="none" stroke="#1948a0" stroke-width="1" stroke-opacity="0.29"/>
<path d="M 0 953 Q 111.8 949.0 223.5 953 Q 335.3 949.0 447.0 953 Q 558.8 949.0 670.5 953 Q 782.3 949.0 894.0 953 Q 1005.8 949.0 1117.5 953 Q 1229.3 949.0 1341.0 953 Q 1452.8 949.0 1564.5 953 Q 1676.3 949.0 1788.0 953" fill="none" stroke="#1948a0" stroke-width="0.7999999999999999" stroke-opacity="0.22999999999999998"/>
<path d="M 0 948 Q 111.8 945.5 223.5 948 Q 335.3 945.5 447.0 948 Q 558.8 945.5 670.5 948 Q 782.3 945.5 894.0 948 Q 1005.8 945.5 1117.5 948 Q 1229.3 945.5 1341.0 948 Q 1452.8 945.5 1564.5 948 Q 1676.3 945.5 1788.0 948" fill="none" stroke="#1948a0" stroke-width="0.5999999999999999" stroke-opacity="0.16999999999999998"/>

</svg>