<svg width="1564" height="969" xmlns="http://www.w3.org/2000/svg" viewBox="0 0 1564 969">
<defs>
  <style>
    @import url('https://fonts.googleapis.com/css2?family=Lexend:wght@300;400;600;700&amp;display=swap');
    circle:hover { opacity: 1 !important; r: 6; }
    rect.bar-segment:hover { opacity: 1 !important; }
  </style>

  <linearGradient id="bg" x1="0%" y1="0%" x2="55%" y2="100%">
    <stop offset="0%"   stop-color="#010c1e"/>
    <stop offset="50%"  stop-color="#010f27"/>
    <stop offset="100%" stop-color="#000a18"/>
  </linearGradient>
  <linearGradient id="areaFill" x1="0%" y1="0%" x2="0%" y2="100%">
    <stop offset="0%"   stop-color="#4a90e2" stop-opacity="0.5"/>
    <stop offset="55%"  stop-color="#1a3f7a" stop-opacity="0.18"/>
    <stop offset="100%" stop-color="#000a18" stop-opacity="0"/>
  </linearGradient>
  <linearGradient id="gCommits" x1="0%" y1="0%" x2="100%" y2="0%">
    <stop offset="0%"   stop-color="#ff8c42"/>
    <stop offset="100%" stop-color="#ffd0a0"/>
  </linearGradient>
  <linearGradient id="gChanges" x1="0%" y1="0%" x2="100%" y2="0%">
    <stop offset="0%"   stop-color="#00d4f5" stop-opacity="0.8"/>
    <stop offset="50%"  stop-color="#00d4f5"/>
    <stop offset="100%" stop-color="#80eeff"/>
  </linearGradient>
  <linearGradient id="gBorder" x1="0%" y1="0%" x2="100%" y2="100%">
    <stop offset="0%"   stop-color="#1840a0" stop-opacity="0.9"/>
    <stop offset="50%"  stop-color="#3b82f6" stop-opacity="0.6"/>
    <stop offset="100%" stop-color="#60a5fa" stop-opacity="0.9"/>
  </linearGradient>
  <linearGradient id="gHeader" x1="0%" y1="0%" x2="100%" y2="0%">
    <stop offset="0%"   stop-color="#010c1e" stop-opacity="0"/>
    <stop offset="20%"  stop-color="#091c3e" stop-opacity="0.92"/>
    <stop offset="80%"  stop-color="#091c3e" stop-opacity="0.92"/>
    <stop offset="100%" stop-color="#010c1e" stop-opacity="0"/>
  </linearGradient>
  <linearGradient id="gAddBar" x1="0%" y1="0%" x2="0%" y2="100%">
    <stop offset="0%"   stop-color="#22c55e" stop-opacity="0.95"/>
    <stop offset="100%" stop-color="#22c55e" stop-opacity="0.65"/>
  </linearGradient>
  <linearGradient id="gDelBar" x1="0%" y1="0%" x2="0%" y2="100%">
    <stop offset="0%"   stop-color="#ef4444" stop-opacity="0.9"/>
    <stop offset="100%" stop-color="#ef4444" stop-opacity="0.6"/>
  </linearGradient>

  <filter id="glowOrange" x="-120%" y="-120%" width="340%" height="340%">
    <feGaussianBlur stdDeviation="4" result="b"/>
    <feMerge><feMergeNode in="b"/><feMergeNode in="SourceGraphic"/></feMerge>
  </filter>
  <filter id="glowCyan" x="-120%" y="-120%" width="340%" height="340%">
    <feGaussianBlur stdDeviation="3.5" result="b"/>
    <feMerge><feMergeNode in="b"/><feMergeNode in="SourceGraphic"/></feMerge>
  </filter>
  <filter id="glowTitle">
    <feGaussianBlur stdDeviation="5" result="b"/>
    <feMerge><feMergeNode in="b"/><feMergeNode in="b"/><feMergeNode in="SourceGraphic"/></feMerge>
  </filter>
  <filter id="glowLine" x="-6%" y="-120%" width="112%" height="340%">
    <feGaussianBlur stdDeviation="4.5" result="b"/>
    <feMerge><feMergeNode in="b"/><feMergeNode in="SourceGraphic"/></feMerge>
  </filter>
  <filter id="glowMA" x="-6%" y="-120%" width="112%" height="340%">
    <feGaussianBlur stdDeviation="3" result="b"/>
    <feMerge><feMergeNode in="b"/><feMergeNode in="SourceGraphic"/></feMerge>
  </filter>

  <pattern id="diamondTile" x="0" y="0" width="30" height="30" patternUnits="userSpaceOnUse">
    <path d="M15 2 L28 15 L15 28 L2 15 Z"
      fill="none" stroke="#0d2464" stroke-width="0.4" stroke-opacity="0.25"/>
  </pattern>

  <clipPath id="chartClip">
    <rect x="86" y="130" width="1400" height="360"/>
  </clipPath>
</defs>

<!-- ════ BACKGROUND ════ -->
<rect width="1564" height="969" fill="url(#bg)" rx="16"/>
<rect width="1564" height="969" fill="url(#diamondTile)" rx="16"/>

<!-- ════ BORDERS ════ -->
<rect width="1564" height="969" fill="none" rx="16" stroke="url(#gBorder)" stroke-width="2.2"/>
<rect x="5" y="5" width="1554" height="959" fill="none" rx="13"
  stroke="#1840a0" stroke-width="0.7" stroke-opacity="0.35"/>

<!-- ════ HEADER ════ -->
<rect x="0" y="0" width="1564" height="122" fill="url(#gHeader)" rx="16"/>
<line x1="24" y1="118.0" x2="1540.0" y2="118.0"
    stroke="url(#gBorder)" stroke-width="0.8" stroke-opacity="0.5"/>

<!-- ════ TITLE ════ -->
<text x="786.0" y="44" font-size="18" font-weight="600" fill="#cce8ff"
  text-anchor="middle" font-family="'Lexend','Segoe UI',sans-serif"
  filter="url(#glowTitle)" letter-spacing="5">⬡  COMMIT  ANALYTICS  ⬡</text>
<text x="786.0" y="62" font-size="9.5" fill="#3d7ed4" text-anchor="middle"
  font-family="'Lexend','Segoe UI',sans-serif" letter-spacing="3.5" font-weight="300">kieran-lucas/oop-course-project-uet</text>

<!-- ════ STATS BADGE ════ -->

    <rect x="1338" y="8" width="142" height="92" rx="10"
      fill="#030e26" fill-opacity="0.94" stroke="#2563eb" stroke-width="1.2"/>
    <text x="1409" y="24" font-size="8" fill="#3d7ed4"
      text-anchor="middle" font-family="'Lexend',sans-serif" letter-spacing="2" font-weight="400">TOTAL  COMMITS</text>
    <text x="1409" y="52" font-size="28" font-weight="700" fill="#cce8ff"
      text-anchor="middle" font-family="'Lexend',sans-serif" filter="url(#glowTitle)">267</text>
    <line x1="1354" y1="60" x2="1464" y2="60"
      stroke="#1a3f7a" stroke-width="0.8" stroke-opacity="0.5"/>
    <text x="1385" y="74" font-size="9" fill="#22c55e"
      text-anchor="middle" font-family="'Lexend',sans-serif" font-weight="400">+155.0k</text>
    <text x="1433" y="74" font-size="9" fill="#ef4444"
      text-anchor="middle" font-family="'Lexend',sans-serif" font-weight="400">-77.6k</text>
    <text x="1409" y="90" font-size="8" fill="#3d7ed4"
      text-anchor="middle" font-family="'Lexend',sans-serif" font-weight="300">16 active days · 939 files</text>

<!-- ════ LEGEND ════ -->
<g><rect x="430.0" y="90.0" width="24" height="12" rx="3"
        fill="#4a90e2" fill-opacity="0.45" stroke="#4a90e2" stroke-width="1.2"/><text x="461.0" y="100.0" font-size="11" fill="#93c5fd"
      font-family="'Lexend','Segoe UI',sans-serif" font-weight="400">Total Lines</text><line x1="566.0" y1="97.0" x2="590.0" y2="97.0"
        stroke="#ff8c42" stroke-width="2.5" stroke-linecap="round"/><circle cx="578.0" cy="97.0" r="3.5"
        fill="#ff8c42" stroke="#fff" stroke-width="0.6" stroke-opacity="0.3"/><text x="597.0" y="100.0" font-size="11" fill="#93c5fd"
      font-family="'Lexend','Segoe UI',sans-serif" font-weight="400">Commits</text><line x1="674.0" y1="97.0" x2="698.0" y2="97.0"
        stroke="#00d4f5" stroke-width="2.5" stroke-linecap="round"/><circle cx="686.0" cy="97.0" r="3.5"
        fill="#00d4f5" stroke="#fff" stroke-width="0.6" stroke-opacity="0.3"/><text x="705.0" y="100.0" font-size="11" fill="#93c5fd"
      font-family="'Lexend','Segoe UI',sans-serif" font-weight="400">Chg/Commit</text><rect x="809.0" y="90.0" width="12" height="12" rx="2"
        fill="#22c55e" opacity="0.85"/><text x="834.0" y="100.0" font-size="11" fill="#93c5fd"
      font-family="'Lexend','Segoe UI',sans-serif" font-weight="400">Additions</text><rect x="931.0" y="90.0" width="12" height="12" rx="2"
        fill="#ef4444" opacity="0.85"/><text x="956.0" y="100.0" font-size="11" fill="#93c5fd"
      font-family="'Lexend','Segoe UI',sans-serif" font-weight="400">Deletions</text><line x1="1047.0" y1="97.0" x2="1071.0" y2="97.0"
        stroke="#a78bfa" stroke-width="2" stroke-dasharray="5,3" stroke-linecap="round"/><text x="1078.0" y="100.0" font-size="11" fill="#93c5fd"
      font-family="'Lexend','Segoe UI',sans-serif" font-weight="400">7-day MA</text></g>

<!-- ════ AXIS LABELS ════ -->
<text x="16" y="310.0" font-size="9.5" fill="#4a90e2"
    text-anchor="middle" font-family="'Lexend','Segoe UI',sans-serif" letter-spacing="3" font-weight="300"
    transform="rotate(-90, 16, 310.0)">LINES</text>
<text x="1550.0" y="310.0" font-size="9.5"
    fill="#ff8c42" text-anchor="middle" font-family="'Lexend','Segoe UI',sans-serif"
    letter-spacing="3" font-weight="300" opacity="0.8"
    transform="rotate(90, 1550.0, 310.0)">COMMITS</text>

<!-- ════ GRID + Y-LABELS ════ -->
<line x1="86" y1="490.0" x2="1486" y2="490.0"
      stroke="#1a3f7a" stroke-width="1.4"
      stroke-opacity="0.9" stroke-dasharray="none"/><line x1="86" y1="418.0" x2="1486" y2="418.0"
      stroke="#1a3f7a" stroke-width="0.5"
      stroke-opacity="0.3" stroke-dasharray="6,6"/><line x1="86" y1="346.0" x2="1486" y2="346.0"
      stroke="#1a3f7a" stroke-width="0.5"
      stroke-opacity="0.3" stroke-dasharray="6,6"/><line x1="86" y1="274.0" x2="1486" y2="274.0"
      stroke="#1a3f7a" stroke-width="0.5"
      stroke-opacity="0.3" stroke-dasharray="6,6"/><line x1="86" y1="202.0" x2="1486" y2="202.0"
      stroke="#1a3f7a" stroke-width="0.5"
      stroke-opacity="0.3" stroke-dasharray="6,6"/><line x1="86" y1="130.0" x2="1486" y2="130.0"
      stroke="#1a3f7a" stroke-width="0.5"
      stroke-opacity="0.3" stroke-dasharray="6,6"/>
<text x="74" y="494.0" font-size="11" fill="#5aa8ff"
      text-anchor="end" font-family="'Lexend','Segoe UI',sans-serif" font-weight="300">0</text><text x="74" y="422.0" font-size="11" fill="#5aa8ff"
      text-anchor="end" font-family="'Lexend','Segoe UI',sans-serif" font-weight="300">20.0k</text><text x="74" y="350.0" font-size="11" fill="#5aa8ff"
      text-anchor="end" font-family="'Lexend','Segoe UI',sans-serif" font-weight="300">40.0k</text><text x="74" y="278.0" font-size="11" fill="#5aa8ff"
      text-anchor="end" font-family="'Lexend','Segoe UI',sans-serif" font-weight="300">60.0k</text><text x="74" y="206.0" font-size="11" fill="#5aa8ff"
      text-anchor="end" font-family="'Lexend','Segoe UI',sans-serif" font-weight="300">80.0k</text><text x="74" y="134.0" font-size="11" fill="#5aa8ff"
      text-anchor="end" font-family="'Lexend','Segoe UI',sans-serif" font-weight="300">100.0k</text>
<text x="1498" y="494.0" font-size="11" fill="#ff8c42"
      text-anchor="start" font-family="'Lexend','Segoe UI',sans-serif" font-weight="300" opacity="0.85">0</text><text x="1498" y="404.0" font-size="11" fill="#ff8c42"
      text-anchor="start" font-family="'Lexend','Segoe UI',sans-serif" font-weight="300" opacity="0.85">20</text><text x="1498" y="314.0" font-size="11" fill="#ff8c42"
      text-anchor="start" font-family="'Lexend','Segoe UI',sans-serif" font-weight="300" opacity="0.85">40</text><text x="1498" y="224.0" font-size="11" fill="#ff8c42"
      text-anchor="start" font-family="'Lexend','Segoe UI',sans-serif" font-weight="300" opacity="0.85">60</text><text x="1498" y="134.0" font-size="11" fill="#ff8c42"
      text-anchor="start" font-family="'Lexend','Segoe UI',sans-serif" font-weight="300" opacity="0.85">80</text>

<!-- ════ AXIS LINES ════ -->
<line x1="86" y1="130" x2="86" y2="490"
  stroke="#1a3f7a" stroke-width="1.2" stroke-opacity="0.65"/>
<line x1="86" y1="490" x2="1486" y2="490"
  stroke="#1a3f7a" stroke-width="1.4" stroke-opacity="0.8"/>
<line x1="1486" y1="130" x2="1486" y2="490"
  stroke="#ff8c42" stroke-width="0.9" stroke-opacity="0.28"/>

<!-- ════ X-AXIS ════ -->
<text x="86.0" y="514" font-size="10" fill="#5aa8ff"
      text-anchor="end" font-family="'Lexend','Segoe UI',sans-serif" font-weight="300"
      transform="rotate(-42, 86.0, 514)">10 Mar</text><text x="198.0" y="514" font-size="10" fill="#5aa8ff"
      text-anchor="end" font-family="'Lexend','Segoe UI',sans-serif" font-weight="300"
      transform="rotate(-42, 198.0, 514)">12 Mar</text><text x="310.0" y="514" font-size="10" fill="#5aa8ff"
      text-anchor="end" font-family="'Lexend','Segoe UI',sans-serif" font-weight="300"
      transform="rotate(-42, 310.0, 514)">14 Mar</text><text x="422.0" y="514" font-size="10" fill="#5aa8ff"
      text-anchor="end" font-family="'Lexend','Segoe UI',sans-serif" font-weight="300"
      transform="rotate(-42, 422.0, 514)">16 Mar</text><text x="534.0" y="514" font-size="10" fill="#5aa8ff"
      text-anchor="end" font-family="'Lexend','Segoe UI',sans-serif" font-weight="300"
      transform="rotate(-42, 534.0, 514)">18 Mar</text><text x="646.0" y="514" font-size="10" fill="#5aa8ff"
      text-anchor="end" font-family="'Lexend','Segoe UI',sans-serif" font-weight="300"
      transform="rotate(-42, 646.0, 514)">20 Mar</text><text x="758.0" y="514" font-size="10" fill="#5aa8ff"
      text-anchor="end" font-family="'Lexend','Segoe UI',sans-serif" font-weight="300"
      transform="rotate(-42, 758.0, 514)">22 Mar</text><text x="870.0" y="514" font-size="10" fill="#5aa8ff"
      text-anchor="end" font-family="'Lexend','Segoe UI',sans-serif" font-weight="300"
      transform="rotate(-42, 870.0, 514)">24 Mar</text><text x="982.0" y="514" font-size="10" fill="#5aa8ff"
      text-anchor="end" font-family="'Lexend','Segoe UI',sans-serif" font-weight="300"
      transform="rotate(-42, 982.0, 514)">26 Mar</text><text x="1094.0" y="514" font-size="10" fill="#5aa8ff"
      text-anchor="end" font-family="'Lexend','Segoe UI',sans-serif" font-weight="300"
      transform="rotate(-42, 1094.0, 514)">28 Mar</text><text x="1206.0" y="514" font-size="10" fill="#5aa8ff"
      text-anchor="end" font-family="'Lexend','Segoe UI',sans-serif" font-weight="300"
      transform="rotate(-42, 1206.0, 514)">30 Mar</text><text x="1318.0" y="514" font-size="10" fill="#5aa8ff"
      text-anchor="end" font-family="'Lexend','Segoe UI',sans-serif" font-weight="300"
      transform="rotate(-42, 1318.0, 514)">1 Apr</text><text x="1430.0" y="514" font-size="10" fill="#5aa8ff"
      text-anchor="end" font-family="'Lexend','Segoe UI',sans-serif" font-weight="300"
      transform="rotate(-42, 1430.0, 514)">3 Apr</text><text x="1486.0" y="514" font-size="10" fill="#5aa8ff"
      text-anchor="end" font-family="'Lexend','Segoe UI',sans-serif" font-weight="300"
      transform="rotate(-42, 1486.0, 514)">4 Apr</text>

<!-- ════ CHART CONTENT ════ -->
<g clip-path="url(#chartClip)">
  <!-- Total lines: area + stroke -->
  <path d="M 86.00 490.00 C 95.33 490.00, 123.33 490.00, 142.00 490.00 C 160.67 490.00, 179.33 490.00, 198.00 490.00 C 216.67 490.00, 235.33 490.00, 254.00 490.00 C 272.67 490.00, 291.33 490.00, 310.00 490.00 C 328.67 490.00, 347.33 490.00, 366.00 490.00 C 384.67 490.00, 403.33 490.00, 422.00 490.00 C 440.67 489.98, 459.33 489.92, 478.00 489.91 C 496.67 489.89, 515.33 489.91, 534.00 489.91 C 552.67 489.91, 571.33 489.94, 590.00 489.91 C 608.67 489.87, 627.33 489.72, 646.00 489.69 C 664.67 489.65, 683.33 489.70, 702.00 489.69 C 720.67 489.67, 739.33 489.62, 758.00 489.61 C 776.67 489.59, 795.33 490.00, 814.00 489.61 C 832.67 488.99, 851.33 486.51, 870.00 485.89 C 888.67 485.28, 907.33 485.91, 926.00 485.91 C 944.67 485.91, 963.33 485.90, 982.00 485.90 C 1000.67 485.90, 1019.33 490.00, 1038.00 485.89 C 1056.67 443.28, 1075.33 274.96, 1094.00 230.27 C 1112.67 185.59, 1131.33 219.88, 1150.00 217.78 C 1168.67 215.68, 1187.33 218.05, 1206.00 217.69 C 1224.67 217.33, 1243.33 216.22, 1262.00 215.61 C 1280.67 215.00, 1299.33 214.42, 1318.00 214.05 C 1336.67 213.67, 1355.33 213.51, 1374.00 213.37 C 1392.67 213.23, 1411.33 213.54, 1430.00 213.21 C 1448.67 212.88, 1476.67 211.70, 1486.00 211.39 L 1486.00 490 L 86.00 490 Z" fill="url(#areaFill)"/>
  <path d="M 86.00 490.00 C 95.33 490.00, 123.33 490.00, 142.00 490.00 C 160.67 490.00, 179.33 490.00, 198.00 490.00 C 216.67 490.00, 235.33 490.00, 254.00 490.00 C 272.67 490.00, 291.33 490.00, 310.00 490.00 C 328.67 490.00, 347.33 490.00, 366.00 490.00 C 384.67 490.00, 403.33 490.00, 422.00 490.00 C 440.67 489.98, 459.33 489.92, 478.00 489.91 C 496.67 489.89, 515.33 489.91, 534.00 489.91 C 552.67 489.91, 571.33 489.94, 590.00 489.91 C 608.67 489.87, 627.33 489.72, 646.00 489.69 C 664.67 489.65, 683.33 489.70, 702.00 489.69 C 720.67 489.67, 739.33 489.62, 758.00 489.61 C 776.67 489.59, 795.33 490.00, 814.00 489.61 C 832.67 488.99, 851.33 486.51, 870.00 485.89 C 888.67 485.28, 907.33 485.91, 926.00 485.91 C 944.67 485.91, 963.33 485.90, 982.00 485.90 C 1000.67 485.90, 1019.33 490.00, 1038.00 485.89 C 1056.67 443.28, 1075.33 274.96, 1094.00 230.27 C 1112.67 185.59, 1131.33 219.88, 1150.00 217.78 C 1168.67 215.68, 1187.33 218.05, 1206.00 217.69 C 1224.67 217.33, 1243.33 216.22, 1262.00 215.61 C 1280.67 215.00, 1299.33 214.42, 1318.00 214.05 C 1336.67 213.67, 1355.33 213.51, 1374.00 213.37 C 1392.67 213.23, 1411.33 213.54, 1430.00 213.21 C 1448.67 212.88, 1476.67 211.70, 1486.00 211.39" fill="none" stroke="#4a90e2" stroke-width="2" stroke-opacity="0.7"/>

  <!-- Bars -->
  <rect x="858.0" y="312.5" width="24" height="88.1"
        fill="url(#gDelBar)" rx="2" opacity="0.78"/><rect x="858.0" y="400.6" width="24" height="89.4"
        fill="url(#gAddBar)" rx="2" opacity="0.82"/><rect x="1082.0" y="392.5" width="24" height="2.7"
        fill="url(#gDelBar)" rx="2" opacity="0.78"/><rect x="1082.0" y="395.2" width="24" height="94.8"
        fill="url(#gAddBar)" rx="2" opacity="0.82"/><rect x="1138.0" y="476.3" width="24" height="4.6"
        fill="url(#gDelBar)" rx="2" opacity="0.78"/><rect x="1138.0" y="480.9" width="24" height="9.1"
        fill="url(#gAddBar)" rx="2" opacity="0.82"/><rect x="1250.0" y="487.5" width="24" height="0.9"
        fill="url(#gDelBar)" rx="2" opacity="0.78"/><rect x="1250.0" y="488.4" width="24" height="1.6"
        fill="url(#gAddBar)" rx="2" opacity="0.82"/><rect x="1306.0" y="487.5" width="24" height="1.0"
        fill="url(#gDelBar)" rx="2" opacity="0.78"/><rect x="1306.0" y="488.5" width="24" height="1.5"
        fill="url(#gAddBar)" rx="2" opacity="0.82"/><rect x="1418.0" y="487.6" width="24" height="1.2"
        fill="url(#gDelBar)" rx="2" opacity="0.78"/><rect x="1418.0" y="488.8" width="24" height="1.2"
        fill="url(#gAddBar)" rx="2" opacity="0.82"/><rect x="1474.0" y="486.1" width="24" height="1.6"
        fill="url(#gDelBar)" rx="2" opacity="0.78"/><rect x="1474.0" y="487.7" width="24" height="2.3"
        fill="url(#gAddBar)" rx="2" opacity="0.82"/>

  <!-- Commits line — glow + crisp -->
  <path d="M 86.00 485.50 C 95.33 486.25, 123.33 489.25, 142.00 490.00 C 160.67 490.00, 179.33 490.00, 198.00 490.00 C 216.67 490.00, 235.33 490.00, 254.00 490.00 C 272.67 490.00, 291.33 490.00, 310.00 490.00 C 328.67 490.00, 347.33 490.00, 366.00 490.00 C 384.67 490.00, 403.33 490.00, 422.00 490.00 C 440.67 482.50, 459.33 445.00, 478.00 445.00 C 496.67 445.00, 515.33 482.50, 534.00 490.00 C 552.67 490.00, 571.33 490.00, 590.00 490.00 C 608.67 470.50, 627.33 373.00, 646.00 373.00 C 664.67 373.00, 683.33 471.25, 702.00 490.00 C 720.67 490.00, 739.33 485.50, 758.00 485.50 C 776.67 485.50, 795.33 490.00, 814.00 490.00 C 832.67 466.75, 851.33 351.25, 870.00 346.00 C 888.67 340.75, 907.33 436.75, 926.00 458.50 C 944.67 480.25, 963.33 472.00, 982.00 476.50 C 1000.67 481.00, 1019.33 490.00, 1038.00 485.50 C 1056.67 438.25, 1075.33 225.25, 1094.00 193.00 C 1112.67 160.75, 1131.33 244.00, 1150.00 292.00 C 1168.67 340.00, 1187.33 460.00, 1206.00 481.00 C 1224.67 490.00, 1243.33 427.00, 1262.00 418.00 C 1280.67 409.00, 1299.33 416.50, 1318.00 427.00 C 1336.67 437.50, 1355.33 488.50, 1374.00 481.00 C 1392.67 473.50, 1411.33 394.00, 1430.00 382.00 C 1448.67 370.00, 1476.67 404.50, 1486.00 409.00" fill="none" stroke="#ff8c42" stroke-width="9" stroke-opacity="0.06" filter="url(#glowLine)"/>
  <path d="M 86.00 485.50 C 95.33 486.25, 123.33 489.25, 142.00 490.00 C 160.67 490.00, 179.33 490.00, 198.00 490.00 C 216.67 490.00, 235.33 490.00, 254.00 490.00 C 272.67 490.00, 291.33 490.00, 310.00 490.00 C 328.67 490.00, 347.33 490.00, 366.00 490.00 C 384.67 490.00, 403.33 490.00, 422.00 490.00 C 440.67 482.50, 459.33 445.00, 478.00 445.00 C 496.67 445.00, 515.33 482.50, 534.00 490.00 C 552.67 490.00, 571.33 490.00, 590.00 490.00 C 608.67 470.50, 627.33 373.00, 646.00 373.00 C 664.67 373.00, 683.33 471.25, 702.00 490.00 C 720.67 490.00, 739.33 485.50, 758.00 485.50 C 776.67 485.50, 795.33 490.00, 814.00 490.00 C 832.67 466.75, 851.33 351.25, 870.00 346.00 C 888.67 340.75, 907.33 436.75, 926.00 458.50 C 944.67 480.25, 963.33 472.00, 982.00 476.50 C 1000.67 481.00, 1019.33 490.00, 1038.00 485.50 C 1056.67 438.25, 1075.33 225.25, 1094.00 193.00 C 1112.67 160.75, 1131.33 244.00, 1150.00 292.00 C 1168.67 340.00, 1187.33 460.00, 1206.00 481.00 C 1224.67 490.00, 1243.33 427.00, 1262.00 418.00 C 1280.67 409.00, 1299.33 416.50, 1318.00 427.00 C 1336.67 437.50, 1355.33 488.50, 1374.00 481.00 C 1392.67 473.50, 1411.33 394.00, 1430.00 382.00 C 1448.67 370.00, 1476.67 404.50, 1486.00 409.00" fill="none" stroke="url(#gCommits)" stroke-width="2.8" stroke-linecap="round"/>

  <!-- Changes/commit line -->
  <path d="M 86.00 489.93 C 95.33 489.94, 123.33 489.99, 142.00 490.00 C 160.67 490.00, 179.33 490.00, 198.00 490.00 C 216.67 490.00, 235.33 490.00, 254.00 490.00 C 272.67 490.00, 291.33 490.00, 310.00 490.00 C 328.67 490.00, 347.33 490.00, 366.00 490.00 C 384.67 490.00, 403.33 490.00, 422.00 490.00 C 440.67 489.95, 459.33 489.71, 478.00 489.71 C 496.67 489.71, 515.33 489.95, 534.00 490.00 C 552.67 490.00, 571.33 490.00, 590.00 490.00 C 608.67 489.96, 627.33 489.78, 646.00 489.78 C 664.67 489.78, 683.33 490.00, 702.00 490.00 C 720.67 489.77, 739.33 488.42, 758.00 488.42 C 776.67 488.42, 795.33 490.00, 814.00 490.00 C 832.67 438.92, 851.33 182.09, 870.00 181.91 C 888.67 181.73, 907.33 438.20, 926.00 488.92 C 944.67 490.00, 963.33 486.70, 982.00 486.26 C 1000.67 485.81, 1019.33 490.00, 1038.00 486.26 C 1056.67 473.20, 1075.33 410.19, 1094.00 407.92 C 1112.67 405.65, 1131.33 461.38, 1150.00 472.65 C 1168.67 483.92, 1187.33 474.09, 1206.00 475.53 C 1224.67 476.97, 1243.33 480.53, 1262.00 481.29 C 1280.67 482.04, 1299.33 480.17, 1318.00 480.06 C 1336.67 479.96, 1355.33 479.92, 1374.00 480.64 C 1392.67 481.36, 1411.33 484.82, 1430.00 484.38 C 1448.67 483.95, 1476.67 479.10, 1486.00 478.05" fill="none" stroke="#00d4f5" stroke-width="9" stroke-opacity="0.06" filter="url(#glowLine)"/>
  <path d="M 86.00 489.93 C 95.33 489.94, 123.33 489.99, 142.00 490.00 C 160.67 490.00, 179.33 490.00, 198.00 490.00 C 216.67 490.00, 235.33 490.00, 254.00 490.00 C 272.67 490.00, 291.33 490.00, 310.00 490.00 C 328.67 490.00, 347.33 490.00, 366.00 490.00 C 384.67 490.00, 403.33 490.00, 422.00 490.00 C 440.67 489.95, 459.33 489.71, 478.00 489.71 C 496.67 489.71, 515.33 489.95, 534.00 490.00 C 552.67 490.00, 571.33 490.00, 590.00 490.00 C 608.67 489.96, 627.33 489.78, 646.00 489.78 C 664.67 489.78, 683.33 490.00, 702.00 490.00 C 720.67 489.77, 739.33 488.42, 758.00 488.42 C 776.67 488.42, 795.33 490.00, 814.00 490.00 C 832.67 438.92, 851.33 182.09, 870.00 181.91 C 888.67 181.73, 907.33 438.20, 926.00 488.92 C 944.67 490.00, 963.33 486.70, 982.00 486.26 C 1000.67 485.81, 1019.33 490.00, 1038.00 486.26 C 1056.67 473.20, 1075.33 410.19, 1094.00 407.92 C 1112.67 405.65, 1131.33 461.38, 1150.00 472.65 C 1168.67 483.92, 1187.33 474.09, 1206.00 475.53 C 1224.67 476.97, 1243.33 480.53, 1262.00 481.29 C 1280.67 482.04, 1299.33 480.17, 1318.00 480.06 C 1336.67 479.96, 1355.33 479.92, 1374.00 480.64 C 1392.67 481.36, 1411.33 484.82, 1430.00 484.38 C 1448.67 483.95, 1476.67 479.10, 1486.00 478.05" fill="none" stroke="url(#gChanges)" stroke-width="2.5" stroke-linecap="round"/>

  <!-- Moving averages -->
  <path d="M 86.00 488.88 C 95.33 488.91, 123.33 489.04, 142.00 489.10 C 160.67 489.16, 179.33 489.21, 198.00 489.25 C 216.67 489.29, 235.33 490.00, 254.00 489.36 C 272.67 488.41, 291.33 484.54, 310.00 483.57 C 328.67 482.61, 347.33 483.57, 366.00 483.57 C 384.67 483.57, 403.33 486.36, 422.00 483.57 C 440.67 480.79, 459.33 469.64, 478.00 466.86 C 496.67 464.07, 515.33 466.96, 534.00 466.86 C 552.67 466.75, 571.33 466.32, 590.00 466.21 C 608.67 466.11, 627.33 468.57, 646.00 466.21 C 664.67 463.86, 683.33 455.18, 702.00 452.07 C 720.67 448.96, 739.33 448.64, 758.00 447.57 C 776.67 446.50, 795.33 443.29, 814.00 445.64 C 832.67 448.00, 851.33 466.11, 870.00 461.71 C 888.67 457.32, 907.33 430.96, 926.00 419.29 C 944.67 407.61, 963.33 396.46, 982.00 391.64 C 1000.67 386.82, 1019.33 388.86, 1038.00 390.36 C 1056.67 391.86, 1075.33 399.68, 1094.00 400.64 C 1112.67 401.61, 1131.33 396.79, 1150.00 396.14 C 1168.67 395.50, 1187.33 399.14, 1206.00 396.79 C 1224.67 394.43, 1243.33 379.32, 1262.00 382.00 C 1280.67 384.68, 1299.33 404.36, 1318.00 412.86 C 1336.67 421.36, 1355.33 431.24, 1374.00 433.00 C 1392.67 434.76, 1411.33 424.77, 1430.00 423.40 C 1448.67 422.02, 1476.67 424.52, 1486.00 424.75" fill="none" stroke="#a78bfa" stroke-width="2" stroke-dasharray="6,4" stroke-opacity="0.55" filter="url(#glowMA)"/>
  <path d="M 86.00 489.98 C 95.33 489.98, 123.33 489.98, 142.00 489.99 C 160.67 489.99, 179.33 489.99, 198.00 489.99 C 216.67 489.99, 235.33 489.99, 254.00 489.99 C 272.67 489.98, 291.33 489.96, 310.00 489.96 C 328.67 489.95, 347.33 489.96, 366.00 489.96 C 384.67 489.96, 403.33 489.96, 422.00 489.96 C 440.67 489.95, 459.33 489.93, 478.00 489.93 C 496.67 489.92, 515.33 489.97, 534.00 489.93 C 552.67 489.89, 571.33 489.74, 590.00 489.70 C 608.67 489.66, 627.33 490.00, 646.00 489.70 C 664.67 482.37, 683.33 453.08, 702.00 445.73 C 720.67 438.38, 739.33 445.69, 758.00 445.58 C 776.67 445.46, 795.33 445.21, 814.00 445.04 C 832.67 444.87, 851.33 446.58, 870.00 444.54 C 888.67 442.50, 907.33 435.14, 926.00 432.81 C 944.67 430.48, 963.33 431.28, 982.00 430.56 C 1000.67 429.84, 1019.33 421.71, 1038.00 428.49 C 1056.67 435.27, 1075.33 464.34, 1094.00 471.26 C 1112.67 478.18, 1131.33 470.34, 1150.00 469.99 C 1168.67 469.65, 1187.33 469.37, 1206.00 469.19 C 1224.67 469.01, 1243.33 467.30, 1262.00 468.92 C 1280.67 470.55, 1299.33 477.10, 1318.00 478.94 C 1336.67 480.79, 1355.33 479.67, 1374.00 479.99 C 1392.67 480.32, 1411.33 480.75, 1430.00 480.88 C 1448.67 481.02, 1476.67 480.80, 1486.00 480.78" fill="none" stroke="#c4b5fd" stroke-width="1.5" stroke-dasharray="5,4" stroke-opacity="0.4"/>

  <!-- Statistical overlay -->
  <line x1="86" y1="414.9" x2="1486" y2="414.9"
      stroke="#ff8c42" stroke-width="1" stroke-dasharray="8,4" opacity="0.3"/>
    <text x="1498" y="408.9" font-size="8" fill="#ff8c42"
      text-anchor="start" font-family="'Lexend','Segoe UI',sans-serif" font-weight="300" opacity="0.6">μ=16.7</text>

  <!-- Data point circles (inside clip for safety) -->
  <circle cx="86.0" cy="485.5" r="3.0"
        fill="#ff8c42" stroke="#ffd0a0" stroke-width="1" filter="url(#glowOrange)" opacity="0.9">
        <title>2026-03-10: 1 commits</title></circle><circle cx="478.0" cy="445.0" r="3.3"
        fill="#ff8c42" stroke="#ffd0a0" stroke-width="1" filter="url(#glowOrange)" opacity="0.9">
        <title>2026-03-17: 10 commits</title></circle><circle cx="646.0" cy="373.0" r="3.8"
        fill="#ff8c42" stroke="#ffd0a0" stroke-width="1" filter="url(#glowOrange)" opacity="0.9">
        <title>2026-03-20: 26 commits</title></circle><circle cx="758.0" cy="485.5" r="3.0"
        fill="#ff8c42" stroke="#ffd0a0" stroke-width="1" filter="url(#glowOrange)" opacity="0.9">
        <title>2026-03-22: 1 commits</title></circle><circle cx="870.0" cy="346.0" r="4.0"
        fill="#ff8c42" stroke="#ffd0a0" stroke-width="1" filter="url(#glowOrange)" opacity="0.9">
        <title>2026-03-24: 32 commits</title></circle><circle cx="926.0" cy="458.5" r="3.2"
        fill="#ff8c42" stroke="#ffd0a0" stroke-width="1" filter="url(#glowOrange)" opacity="0.9">
        <title>2026-03-25: 7 commits</title></circle><circle cx="982.0" cy="476.5" r="3.1"
        fill="#ff8c42" stroke="#ffd0a0" stroke-width="1" filter="url(#glowOrange)" opacity="0.9">
        <title>2026-03-26: 3 commits</title></circle><circle cx="1038.0" cy="485.5" r="3.0"
        fill="#ff8c42" stroke="#ffd0a0" stroke-width="1" filter="url(#glowOrange)" opacity="0.9">
        <title>2026-03-27: 1 commits</title></circle><circle cx="1094.0" cy="193.0" r="5.1"
        fill="#ff8c42" stroke="#ffd0a0" stroke-width="1" filter="url(#glowOrange)" opacity="0.9">
        <title>2026-03-28: 66 commits</title></circle><circle cx="1150.0" cy="292.0" r="4.4"
        fill="#ff8c42" stroke="#ffd0a0" stroke-width="1" filter="url(#glowOrange)" opacity="0.9">
        <title>2026-03-29: 44 commits</title></circle><circle cx="1206.0" cy="481.0" r="3.1"
        fill="#ff8c42" stroke="#ffd0a0" stroke-width="1" filter="url(#glowOrange)" opacity="0.9">
        <title>2026-03-30: 2 commits</title></circle><circle cx="1262.0" cy="418.0" r="3.5"
        fill="#ff8c42" stroke="#ffd0a0" stroke-width="1" filter="url(#glowOrange)" opacity="0.9">
        <title>2026-03-31: 16 commits</title></circle><circle cx="1318.0" cy="427.0" r="3.4"
        fill="#ff8c42" stroke="#ffd0a0" stroke-width="1" filter="url(#glowOrange)" opacity="0.9">
        <title>2026-04-01: 14 commits</title></circle><circle cx="1374.0" cy="481.0" r="3.1"
        fill="#ff8c42" stroke="#ffd0a0" stroke-width="1" filter="url(#glowOrange)" opacity="0.9">
        <title>2026-04-02: 2 commits</title></circle><circle cx="1430.0" cy="382.0" r="3.8"
        fill="#ff8c42" stroke="#ffd0a0" stroke-width="1" filter="url(#glowOrange)" opacity="0.9">
        <title>2026-04-03: 24 commits</title></circle><circle cx="1486.0" cy="409.0" r="3.6"
        fill="#ff8c42" stroke="#ffd0a0" stroke-width="1" filter="url(#glowOrange)" opacity="0.9">
        <title>2026-04-04: 18 commits</title></circle>
  <circle cx="86.0" cy="489.9" r="3.5"
        fill="#00d4f5" stroke="#80eeff" stroke-width="0.8" filter="url(#glowCyan)" opacity="0.85">
        <title>2026-03-10: 1 changes/commit</title></circle><circle cx="478.0" cy="489.7" r="3.5"
        fill="#00d4f5" stroke="#80eeff" stroke-width="0.8" filter="url(#glowCyan)" opacity="0.85">
        <title>2026-03-17: 4 changes/commit</title></circle><circle cx="646.0" cy="489.8" r="3.5"
        fill="#00d4f5" stroke="#80eeff" stroke-width="0.8" filter="url(#glowCyan)" opacity="0.85">
        <title>2026-03-20: 3 changes/commit</title></circle><circle cx="758.0" cy="488.4" r="3.5"
        fill="#00d4f5" stroke="#80eeff" stroke-width="0.8" filter="url(#glowCyan)" opacity="0.85">
        <title>2026-03-22: 22 changes/commit</title></circle><circle cx="870.0" cy="181.9" r="3.5"
        fill="#00d4f5" stroke="#80eeff" stroke-width="0.8" filter="url(#glowCyan)" opacity="0.85">
        <title>2026-03-24: 4279 changes/commit</title></circle><circle cx="926.0" cy="488.9" r="3.5"
        fill="#00d4f5" stroke="#80eeff" stroke-width="0.8" filter="url(#glowCyan)" opacity="0.85">
        <title>2026-03-25: 15 changes/commit</title></circle><circle cx="982.0" cy="486.3" r="3.5"
        fill="#00d4f5" stroke="#80eeff" stroke-width="0.8" filter="url(#glowCyan)" opacity="0.85">
        <title>2026-03-26: 52 changes/commit</title></circle><circle cx="1038.0" cy="486.3" r="3.5"
        fill="#00d4f5" stroke="#80eeff" stroke-width="0.8" filter="url(#glowCyan)" opacity="0.85">
        <title>2026-03-27: 52 changes/commit</title></circle><circle cx="1094.0" cy="407.9" r="3.5"
        fill="#00d4f5" stroke="#80eeff" stroke-width="0.8" filter="url(#glowCyan)" opacity="0.85">
        <title>2026-03-28: 1140 changes/commit</title></circle><circle cx="1150.0" cy="472.6" r="3.5"
        fill="#00d4f5" stroke="#80eeff" stroke-width="0.8" filter="url(#glowCyan)" opacity="0.85">
        <title>2026-03-29: 241 changes/commit</title></circle><circle cx="1206.0" cy="475.5" r="3.5"
        fill="#00d4f5" stroke="#80eeff" stroke-width="0.8" filter="url(#glowCyan)" opacity="0.85">
        <title>2026-03-30: 201 changes/commit</title></circle><circle cx="1262.0" cy="481.3" r="3.5"
        fill="#00d4f5" stroke="#80eeff" stroke-width="0.8" filter="url(#glowCyan)" opacity="0.85">
        <title>2026-03-31: 121 changes/commit</title></circle><circle cx="1318.0" cy="480.1" r="3.5"
        fill="#00d4f5" stroke="#80eeff" stroke-width="0.8" filter="url(#glowCyan)" opacity="0.85">
        <title>2026-04-01: 138 changes/commit</title></circle><circle cx="1374.0" cy="480.6" r="3.5"
        fill="#00d4f5" stroke="#80eeff" stroke-width="0.8" filter="url(#glowCyan)" opacity="0.85">
        <title>2026-04-02: 130 changes/commit</title></circle><circle cx="1430.0" cy="484.4" r="3.5"
        fill="#00d4f5" stroke="#80eeff" stroke-width="0.8" filter="url(#glowCyan)" opacity="0.85">
        <title>2026-04-03: 78 changes/commit</title></circle><circle cx="1486.0" cy="478.0" r="3.5"
        fill="#00d4f5" stroke="#80eeff" stroke-width="0.8" filter="url(#glowCyan)" opacity="0.85">
        <title>2026-04-04: 166 changes/commit</title></circle>
</g>

<!-- ════ ANNOTATIONS ════ -->

        <line x1="1094.0" y1="181.0"
          x2="1094.0" y2="172.0"
          stroke="#2563eb" stroke-width="1.2" stroke-dasharray="4,4" opacity="0.65"/>
        <rect x="1029.0" y="148.0"
          width="130" height="24" rx="6"
          fill="#030e26" stroke="#2563eb" stroke-width="1" opacity="0.96"/>
        <text x="1094.0" y="164.0"
          font-size="10" fill="#93c5fd" text-anchor="middle"
          font-family="'Lexend','Segoe UI',sans-serif" font-weight="400"
          letter-spacing="0.5">⬡  Peak · 66 commits</text>
        <line x1="870.0" y1="494" x2="1486.0" y2="494"
          stroke="#f472b6" stroke-width="2.5" stroke-linecap="round" opacity="0.7"/>
        <circle cx="870.0" cy="494" r="3" fill="#f472b6" opacity="0.9"/>
        <circle cx="1486.0" cy="494" r="3" fill="#f472b6" opacity="0.9"/>
        <text x="1178.0" y="508" font-size="8.5" fill="#f472b6"
          text-anchor="middle" font-family="'Lexend','Segoe UI',sans-serif"
          font-weight="400" opacity="0.85">🔥 12-day streak</text>
        <line x1="870.0" y1="130" x2="870.0" y2="490"
          stroke="#f472b6" stroke-width="0.8" stroke-dasharray="3,6" opacity="0.35"/>

<!-- ════ CORNER BRACKETS ════ -->
<path d="M 86 152.0 L 86 130 L 108.0 130"
      fill="none" stroke="#4a90e2" stroke-width="2" stroke-opacity="0.85" stroke-linecap="round"/><path d="M 1486 152.0 L 1486 130 L 1464.0 130"
      fill="none" stroke="#4a90e2" stroke-width="2" stroke-opacity="0.85" stroke-linecap="round"/><path d="M 86 468.0 L 86 490 L 108.0 490"
      fill="none" stroke="#4a90e2" stroke-width="2" stroke-opacity="0.85" stroke-linecap="round"/><path d="M 1486 468.0 L 1486 490 L 1464.0 490"
      fill="none" stroke="#4a90e2" stroke-width="2" stroke-opacity="0.85" stroke-linecap="round"/>

<!-- ════ HEATMAP ════ -->
<text x="782" y="646" font-size="11" fill="#3d7ed4"
    text-anchor="middle" font-family="'Lexend','Segoe UI',sans-serif"
    letter-spacing="3" font-weight="400">CONTRIBUTION  CALENDAR</text><text x="754.5" y="686"
        font-size="9" fill="#3d7ed4" text-anchor="end"
        font-family="'Lexend','Segoe UI',sans-serif" font-weight="300">M</text><text x="754.5" y="716"
        font-size="9" fill="#3d7ed4" text-anchor="end"
        font-family="'Lexend','Segoe UI',sans-serif" font-weight="300">W</text><text x="754.5" y="746"
        font-size="9" fill="#3d7ed4" text-anchor="end"
        font-family="'Lexend','Segoe UI',sans-serif" font-weight="300">F</text><rect x="760.5" y="660.0"
        width="12" height="12" rx="2.5" fill="#0a1630"
        stroke="#0d2464" stroke-width="0.5" stroke-opacity="0.4">
        <title>2026-03-08: 0 commits</title></rect><rect x="760.5" y="675.0"
        width="12" height="12" rx="2.5" fill="#0a1630"
        stroke="#0d2464" stroke-width="0.5" stroke-opacity="0.4">
        <title>2026-03-09: 0 commits</title></rect><rect x="760.5" y="690.0"
        width="12" height="12" rx="2.5" fill="#0d3068"
        stroke="#0d2464" stroke-width="0.5" stroke-opacity="0.4">
        <title>2026-03-10: 1 commits</title></rect><rect x="760.5" y="705.0"
        width="12" height="12" rx="2.5" fill="#0a1630"
        stroke="#0d2464" stroke-width="0.5" stroke-opacity="0.4">
        <title>2026-03-11: 0 commits</title></rect><rect x="760.5" y="720.0"
        width="12" height="12" rx="2.5" fill="#0a1630"
        stroke="#0d2464" stroke-width="0.5" stroke-opacity="0.4">
        <title>2026-03-12: 0 commits</title></rect><rect x="760.5" y="735.0"
        width="12" height="12" rx="2.5" fill="#0a1630"
        stroke="#0d2464" stroke-width="0.5" stroke-opacity="0.4">
        <title>2026-03-13: 0 commits</title></rect><rect x="760.5" y="750.0"
        width="12" height="12" rx="2.5" fill="#0a1630"
        stroke="#0d2464" stroke-width="0.5" stroke-opacity="0.4">
        <title>2026-03-14: 0 commits</title></rect><rect x="775.5" y="660.0"
        width="12" height="12" rx="2.5" fill="#0a1630"
        stroke="#0d2464" stroke-width="0.5" stroke-opacity="0.4">
        <title>2026-03-15: 0 commits</title></rect><rect x="775.5" y="675.0"
        width="12" height="12" rx="2.5" fill="#0a1630"
        stroke="#0d2464" stroke-width="0.5" stroke-opacity="0.4">
        <title>2026-03-16: 0 commits</title></rect><rect x="775.5" y="690.0"
        width="12" height="12" rx="2.5" fill="#0d3068"
        stroke="#0d2464" stroke-width="0.5" stroke-opacity="0.4">
        <title>2026-03-17: 10 commits</title></rect><rect x="775.5" y="705.0"
        width="12" height="12" rx="2.5" fill="#0a1630"
        stroke="#0d2464" stroke-width="0.5" stroke-opacity="0.4">
        <title>2026-03-18: 0 commits</title></rect><rect x="775.5" y="720.0"
        width="12" height="12" rx="2.5" fill="#0a1630"
        stroke="#0d2464" stroke-width="0.5" stroke-opacity="0.4">
        <title>2026-03-19: 0 commits</title></rect><rect x="775.5" y="735.0"
        width="12" height="12" rx="2.5" fill="#1e56a8"
        stroke="#0d2464" stroke-width="0.5" stroke-opacity="0.4">
        <title>2026-03-20: 26 commits</title></rect><rect x="775.5" y="750.0"
        width="12" height="12" rx="2.5" fill="#0a1630"
        stroke="#0d2464" stroke-width="0.5" stroke-opacity="0.4">
        <title>2026-03-21: 0 commits</title></rect><rect x="790.5" y="660.0"
        width="12" height="12" rx="2.5" fill="#0d3068"
        stroke="#0d2464" stroke-width="0.5" stroke-opacity="0.4">
        <title>2026-03-22: 1 commits</title></rect><rect x="790.5" y="675.0"
        width="12" height="12" rx="2.5" fill="#0a1630"
        stroke="#0d2464" stroke-width="0.5" stroke-opacity="0.4">
        <title>2026-03-23: 0 commits</title></rect><rect x="790.5" y="690.0"
        width="12" height="12" rx="2.5" fill="#1e56a8"
        stroke="#0d2464" stroke-width="0.5" stroke-opacity="0.4">
        <title>2026-03-24: 32 commits</title></rect><rect x="790.5" y="705.0"
        width="12" height="12" rx="2.5" fill="#0d3068"
        stroke="#0d2464" stroke-width="0.5" stroke-opacity="0.4">
        <title>2026-03-25: 7 commits</title></rect><rect x="790.5" y="720.0"
        width="12" height="12" rx="2.5" fill="#0d3068"
        stroke="#0d2464" stroke-width="0.5" stroke-opacity="0.4">
        <title>2026-03-26: 3 commits</title></rect><rect x="790.5" y="735.0"
        width="12" height="12" rx="2.5" fill="#0d3068"
        stroke="#0d2464" stroke-width="0.5" stroke-opacity="0.4">
        <title>2026-03-27: 1 commits</title></rect><rect x="790.5" y="750.0"
        width="12" height="12" rx="2.5" fill="#93c5fd"
        stroke="#0d2464" stroke-width="0.5" stroke-opacity="0.4">
        <title>2026-03-28: 66 commits</title></rect><rect x="805.5" y="660.0"
        width="12" height="12" rx="2.5" fill="#3b82f6"
        stroke="#0d2464" stroke-width="0.5" stroke-opacity="0.4">
        <title>2026-03-29: 44 commits</title></rect><rect x="805.5" y="675.0"
        width="12" height="12" rx="2.5" fill="#0d3068"
        stroke="#0d2464" stroke-width="0.5" stroke-opacity="0.4">
        <title>2026-03-30: 2 commits</title></rect><rect x="805.5" y="690.0"
        width="12" height="12" rx="2.5" fill="#0d3068"
        stroke="#0d2464" stroke-width="0.5" stroke-opacity="0.4">
        <title>2026-03-31: 16 commits</title></rect><rect x="805.5" y="705.0"
        width="12" height="12" rx="2.5" fill="#0d3068"
        stroke="#0d2464" stroke-width="0.5" stroke-opacity="0.4">
        <title>2026-04-01: 14 commits</title></rect><rect x="805.5" y="720.0"
        width="12" height="12" rx="2.5" fill="#0d3068"
        stroke="#0d2464" stroke-width="0.5" stroke-opacity="0.4">
        <title>2026-04-02: 2 commits</title></rect><rect x="805.5" y="735.0"
        width="12" height="12" rx="2.5" fill="#1e56a8"
        stroke="#0d2464" stroke-width="0.5" stroke-opacity="0.4">
        <title>2026-04-03: 24 commits</title></rect><rect x="805.5" y="750.0"
        width="12" height="12" rx="2.5" fill="#1e56a8"
        stroke="#0d2464" stroke-width="0.5" stroke-opacity="0.4">
        <title>2026-04-04: 18 commits</title></rect><text x="805.5" y="656" font-size="8.5" fill="#3d7ed4"
        font-family="'Lexend','Segoe UI',sans-serif" font-weight="300">Apr</text><rect x="820.5" y="660.0"
        width="12" height="12" rx="2.5" fill="#0a1630"
        stroke="#0d2464" stroke-width="0.5" stroke-opacity="0.4">
        <title>2026-04-05: 0 commits</title></rect><rect x="820.5" y="675.0"
        width="12" height="12" rx="2.5" fill="#0a1630"
        stroke="#0d2464" stroke-width="0.5" stroke-opacity="0.4">
        <title>2026-04-06: 0 commits</title></rect><rect x="820.5" y="690.0"
        width="12" height="12" rx="2.5" fill="#0a1630"
        stroke="#0d2464" stroke-width="0.5" stroke-opacity="0.4">
        <title>2026-04-07: 0 commits</title></rect><rect x="820.5" y="705.0"
        width="12" height="12" rx="2.5" fill="#0a1630"
        stroke="#0d2464" stroke-width="0.5" stroke-opacity="0.4">
        <title>2026-04-08: 0 commits</title></rect><rect x="820.5" y="720.0"
        width="12" height="12" rx="2.5" fill="#0a1630"
        stroke="#0d2464" stroke-width="0.5" stroke-opacity="0.4">
        <title>2026-04-09: 0 commits</title></rect><rect x="820.5" y="735.0"
        width="12" height="12" rx="2.5" fill="#0a1630"
        stroke="#0d2464" stroke-width="0.5" stroke-opacity="0.4">
        <title>2026-04-10: 0 commits</title></rect><rect x="820.5" y="750.0"
        width="12" height="12" rx="2.5" fill="#0a1630"
        stroke="#0d2464" stroke-width="0.5" stroke-opacity="0.4">
        <title>2026-04-11: 0 commits</title></rect>

<!-- ════ BOTTOM PANELS ════ -->

    <rect x="86" y="823" width="320" height="110"
      rx="4" fill="#030e26" fill-opacity="0.6" stroke="#1a3f7a" stroke-width="0.8"/>
    <text x="246" y="819" font-size="8" fill="#3d7ed4"
      text-anchor="middle" font-family="'Lexend','Segoe UI',sans-serif"
      letter-spacing="2" font-weight="300">OVERVIEW</text>
    <g clip-path="url(#minimapClip)">
      <path d="M 86.00 931.58 C 88.13 931.82, 94.53 932.76, 98.80 933.00 C 103.07 933.24, 107.33 933.00, 111.60 933.00 C 115.87 933.00, 120.13 933.00, 124.40 933.00 C 128.67 933.00, 132.93 933.00, 137.20 933.00 C 141.47 933.00, 145.73 933.00, 150.00 933.00 C 154.27 933.00, 158.53 935.36, 162.80 933.00 C 167.07 930.64, 171.33 918.83, 175.60 918.83 C 179.87 918.83, 184.13 930.64, 188.40 933.00 C 192.67 935.36, 196.93 939.14, 201.20 933.00 C 205.47 926.86, 209.73 896.17, 214.00 896.17 C 218.27 896.17, 222.53 927.10, 226.80 933.00 C 231.07 938.90, 235.33 931.58, 239.60 931.58 C 243.87 931.58, 248.13 940.32, 252.40 933.00 C 256.67 925.68, 260.93 889.32, 265.20 887.67 C 269.47 886.01, 273.73 916.24, 278.00 923.08 C 282.27 929.93, 286.53 927.33, 290.80 928.75 C 295.07 930.17, 299.33 946.46, 303.60 931.58 C 307.87 916.71, 312.13 849.65, 316.40 839.50 C 320.67 829.35, 324.93 855.56, 329.20 870.67 C 333.47 885.78, 337.73 923.56, 342.00 930.17 C 346.27 936.78, 350.53 913.17, 354.80 910.33 C 359.07 907.50, 363.33 909.86, 367.60 913.17 C 371.87 916.47, 376.13 932.53, 380.40 930.17 C 384.67 927.81, 388.93 902.78, 393.20 899.00 C 397.47 895.22, 403.87 906.08, 406.00 907.50 L 406.00 933 L 86.00 933 Z" fill="#4a90e2" fill-opacity="0.15"/>
      <path d="M 86.00 931.58 C 88.13 931.82, 94.53 932.76, 98.80 933.00 C 103.07 933.24, 107.33 933.00, 111.60 933.00 C 115.87 933.00, 120.13 933.00, 124.40 933.00 C 128.67 933.00, 132.93 933.00, 137.20 933.00 C 141.47 933.00, 145.73 933.00, 150.00 933.00 C 154.27 933.00, 158.53 935.36, 162.80 933.00 C 167.07 930.64, 171.33 918.83, 175.60 918.83 C 179.87 918.83, 184.13 930.64, 188.40 933.00 C 192.67 935.36, 196.93 939.14, 201.20 933.00 C 205.47 926.86, 209.73 896.17, 214.00 896.17 C 218.27 896.17, 222.53 927.10, 226.80 933.00 C 231.07 938.90, 235.33 931.58, 239.60 931.58 C 243.87 931.58, 248.13 940.32, 252.40 933.00 C 256.67 925.68, 260.93 889.32, 265.20 887.67 C 269.47 886.01, 273.73 916.24, 278.00 923.08 C 282.27 929.93, 286.53 927.33, 290.80 928.75 C 295.07 930.17, 299.33 946.46, 303.60 931.58 C 307.87 916.71, 312.13 849.65, 316.40 839.50 C 320.67 829.35, 324.93 855.56, 329.20 870.67 C 333.47 885.78, 337.73 923.56, 342.00 930.17 C 346.27 936.78, 350.53 913.17, 354.80 910.33 C 359.07 907.50, 363.33 909.86, 367.60 913.17 C 371.87 916.47, 376.13 932.53, 380.40 930.17 C 384.67 927.81, 388.93 902.78, 393.20 899.00 C 397.47 895.22, 403.87 906.08, 406.00 907.50" fill="none" stroke="#4a90e2" stroke-width="1.5" stroke-opacity="0.7"/>
    </g>
    <clipPath id="minimapClip">
      <rect x="86" y="823" width="320" height="110" rx="4"/>
    </clipPath><path d="M 1346.00 854.90
      L 1346.00 836.00
      A 42 42 0 1 1 1309.88 856.57
      L 1326.13 866.22
      A 23.1 23.1 0 1 0 1346.00 854.90 Z"
      fill="#4a90e2" fill-opacity="0.8" stroke="#030e26" stroke-width="1.5">
      <title>Kieran Lucas: 223 commits (84%)</title></path><path d="M 1326.13 866.22
      L 1309.88 856.57
      A 42 42 0 0 1 1326.95 840.57
      L 1335.52 857.41
      A 23.1 23.1 0 0 0 1326.13 866.22 Z"
      fill="#ff8c42" fill-opacity="0.8" stroke="#030e26" stroke-width="1.5">
      <title>github-actions: 24 commits (9%)</title></path><path d="M 1335.52 857.41
      L 1326.95 840.57
      A 42 42 0 0 1 1341.07 836.29
      L 1343.29 855.06
      A 23.1 23.1 0 0 0 1335.52 857.41 Z"
      fill="#00d4f5" fill-opacity="0.8" stroke="#030e26" stroke-width="1.5">
      <title>stillqhuy: 15 commits (6%)</title></path><path d="M 1343.29 855.06
      L 1341.07 836.29
      A 42 42 0 0 1 1345.01 836.01
      L 1345.46 854.91
      A 23.1 23.1 0 0 0 1343.29 855.06 Z"
      fill="#22c55e" fill-opacity="0.8" stroke="#030e26" stroke-width="1.5">
      <title>HumaNormal: 4 commits (1%)</title></path><path d="M 1345.46 854.91
      L 1345.01 836.01
      A 42 42 0 0 1 1346.00 836.00
      L 1346.00 854.90
      A 23.1 23.1 0 0 0 1345.46 854.91 Z"
      fill="#ef4444" fill-opacity="0.8" stroke="#030e26" stroke-width="1.5">
      <title>Nguyễn Đinh Việt Đức: 1 commits (0%)</title></path><text x="1346" y="874" font-size="9" fill="#3d7ed4" text-anchor="middle"
    font-family="'Lexend','Segoe UI',sans-serif" letter-spacing="1.5" font-weight="300">AUTHORS</text><text x="1346" y="892" font-size="16" fill="#cce8ff" text-anchor="middle"
    font-family="'Lexend','Segoe UI',sans-serif" font-weight="600">5</text><rect x="1404" y="830" width="8" height="8" rx="2" fill="#4a90e2" opacity="0.85"/><text x="1418" y="838" font-size="9.5" fill="#3d7ed4"
      font-family="'Lexend','Segoe UI',sans-serif" font-weight="300">Kieran Lucas (223)</text><rect x="1404" y="848" width="8" height="8" rx="2" fill="#ff8c42" opacity="0.85"/><text x="1418" y="856" font-size="9.5" fill="#3d7ed4"
      font-family="'Lexend','Segoe UI',sans-serif" font-weight="300">github-actions (24)</text><rect x="1404" y="866" width="8" height="8" rx="2" fill="#00d4f5" opacity="0.85"/><text x="1418" y="874" font-size="9.5" fill="#3d7ed4"
      font-family="'Lexend','Segoe UI',sans-serif" font-weight="300">stillqhuy (15)</text><rect x="1404" y="884" width="8" height="8" rx="2" fill="#22c55e" opacity="0.85"/><text x="1418" y="892" font-size="9.5" fill="#3d7ed4"
      font-family="'Lexend','Segoe UI',sans-serif" font-weight="300">HumaNormal (4)</text><rect x="1404" y="902" width="8" height="8" rx="2" fill="#ef4444" opacity="0.85"/><text x="1418" y="910" font-size="9.5" fill="#3d7ed4"
      font-family="'Lexend','Segoe UI',sans-serif" font-weight="300">Nguyễn Đinh … (1)</text>

<!-- ════ WAVES ════ -->
<path d="M 0 963 Q 97.8 956.0 195.5 963 Q 293.3 956.0 391.0 963 Q 488.8 956.0 586.5 963 Q 684.3 956.0 782.0 963 Q 879.8 956.0 977.5 963 Q 1075.3 956.0 1173.0 963 Q 1270.8 956.0 1368.5 963 Q 1466.3 956.0 1564.0 963" fill="none" stroke="#1948a0" stroke-width="1.2" stroke-opacity="0.35"/>
<path d="M 0 958 Q 97.8 952.5 195.5 958 Q 293.3 952.5 391.0 958 Q 488.8 952.5 586.5 958 Q 684.3 952.5 782.0 958 Q 879.8 952.5 977.5 958 Q 1075.3 952.5 1173.0 958 Q 1270.8 952.5 1368.5 958 Q 1466.3 952.5 1564.0 958" fill="none" stroke="#1948a0" stroke-width="1" stroke-opacity="0.29"/>
<path d="M 0 953 Q 97.8 949.0 195.5 953 Q 293.3 949.0 391.0 953 Q 488.8 949.0 586.5 953 Q 684.3 949.0 782.0 953 Q 879.8 949.0 977.5 953 Q 1075.3 949.0 1173.0 953 Q 1270.8 949.0 1368.5 953 Q 1466.3 949.0 1564.0 953" fill="none" stroke="#1948a0" stroke-width="0.7999999999999999" stroke-opacity="0.22999999999999998"/>
<path d="M 0 948 Q 97.8 945.5 195.5 948 Q 293.3 945.5 391.0 948 Q 488.8 945.5 586.5 948 Q 684.3 945.5 782.0 948 Q 879.8 945.5 977.5 948 Q 1075.3 945.5 1173.0 948 Q 1270.8 945.5 1368.5 948 Q 1466.3 945.5 1564.0 948" fill="none" stroke="#1948a0" stroke-width="0.5999999999999999" stroke-opacity="0.16999999999999998"/>

</svg>