<svg width="1382" height="969" xmlns="http://www.w3.org/2000/svg" viewBox="0 0 1382 969">
<defs>
  <style>
    @import url('https://fonts.googleapis.com/css2?family=Lexend:wght@300;400;600;700&amp;display=swap');
    circle:hover { opacity: 1 !important; r: 6; }
    rect.bar-segment:hover { opacity: 1 !important; }
  </style>

  <linearGradient id="bg" x1="0%" y1="0%" x2="55%" y2="100%">
    <stop offset="0%"   stop-color="#010c1e"/>
    <stop offset="50%"  stop-color="#010f27"/>
    <stop offset="100%" stop-color="#000a18"/>
  </linearGradient>
  <linearGradient id="areaFill" x1="0%" y1="0%" x2="0%" y2="100%">
    <stop offset="0%"   stop-color="#4a90e2" stop-opacity="0.5"/>
    <stop offset="55%"  stop-color="#1a3f7a" stop-opacity="0.18"/>
    <stop offset="100%" stop-color="#000a18" stop-opacity="0"/>
  </linearGradient>
  <linearGradient id="gCommits" x1="0%" y1="0%" x2="100%" y2="0%">
    <stop offset="0%"   stop-color="#ff8c42"/>
    <stop offset="100%" stop-color="#ffd0a0"/>
  </linearGradient>
  <linearGradient id="gChanges" x1="0%" y1="0%" x2="100%" y2="0%">
    <stop offset="0%"   stop-color="#00d4f5" stop-opacity="0.8"/>
    <stop offset="50%"  stop-color="#00d4f5"/>
    <stop offset="100%" stop-color="#80eeff"/>
  </linearGradient>
  <linearGradient id="gBorder" x1="0%" y1="0%" x2="100%" y2="100%">
    <stop offset="0%"   stop-color="#1840a0" stop-opacity="0.9"/>
    <stop offset="50%"  stop-color="#3b82f6" stop-opacity="0.6"/>
    <stop offset="100%" stop-color="#60a5fa" stop-opacity="0.9"/>
  </linearGradient>
  <linearGradient id="gHeader" x1="0%" y1="0%" x2="100%" y2="0%">
    <stop offset="0%"   stop-color="#010c1e" stop-opacity="0"/>
    <stop offset="20%"  stop-color="#091c3e" stop-opacity="0.92"/>
    <stop offset="80%"  stop-color="#091c3e" stop-opacity="0.92"/>
    <stop offset="100%" stop-color="#010c1e" stop-opacity="0"/>
  </linearGradient>
  <linearGradient id="gAddBar" x1="0%" y1="0%" x2="0%" y2="100%">
    <stop offset="0%"   stop-color="#22c55e" stop-opacity="0.95"/>
    <stop offset="100%" stop-color="#22c55e" stop-opacity="0.65"/>
  </linearGradient>
  <linearGradient id="gDelBar" x1="0%" y1="0%" x2="0%" y2="100%">
    <stop offset="0%"   stop-color="#ef4444" stop-opacity="0.9"/>
    <stop offset="100%" stop-color="#ef4444" stop-opacity="0.6"/>
  </linearGradient>

  <filter id="glowOrange" x="-120%" y="-120%" width="340%" height="340%">
    <feGaussianBlur stdDeviation="4" result="b"/>
    <feMerge><feMergeNode in="b"/><feMergeNode in="SourceGraphic"/></feMerge>
  </filter>
  <filter id="glowCyan" x="-120%" y="-120%" width="340%" height="340%">
    <feGaussianBlur stdDeviation="3.5" result="b"/>
    <feMerge><feMergeNode in="b"/><feMergeNode in="SourceGraphic"/></feMerge>
  </filter>
  <filter id="glowTitle">
    <feGaussianBlur stdDeviation="5" result="b"/>
    <feMerge><feMergeNode in="b"/><feMergeNode in="b"/><feMergeNode in="SourceGraphic"/></feMerge>
  </filter>
  <filter id="glowLine" x="-6%" y="-120%" width="112%" height="340%">
    <feGaussianBlur stdDeviation="4.5" result="b"/>
    <feMerge><feMergeNode in="b"/><feMergeNode in="SourceGraphic"/></feMerge>
  </filter>
  <filter id="glowMA" x="-6%" y="-120%" width="112%" height="340%">
    <feGaussianBlur stdDeviation="3" result="b"/>
    <feMerge><feMergeNode in="b"/><feMergeNode in="SourceGraphic"/></feMerge>
  </filter>

  <pattern id="diamondTile" x="0" y="0" width="30" height="30" patternUnits="userSpaceOnUse">
    <path d="M15 2 L28 15 L15 28 L2 15 Z"
      fill="none" stroke="#0d2464" stroke-width="0.4" stroke-opacity="0.25"/>
  </pattern>

  <clipPath id="chartClip">
    <rect x="86" y="130" width="1218" height="360"/>
  </clipPath>
</defs>

<!-- ════ BACKGROUND ════ -->
<rect width="1382" height="969" fill="url(#bg)" rx="16"/>
<rect width="1382" height="969" fill="url(#diamondTile)" rx="16"/>

<!-- ════ BORDERS ════ -->
<rect width="1382" height="969" fill="none" rx="16" stroke="url(#gBorder)" stroke-width="2.2"/>
<rect x="5" y="5" width="1372" height="959" fill="none" rx="13"
  stroke="#1840a0" stroke-width="0.7" stroke-opacity="0.35"/>

<!-- ════ HEADER ════ -->
<rect x="0" y="0" width="1382" height="122" fill="url(#gHeader)" rx="16"/>
<line x1="24" y1="118.0" x2="1358.0" y2="118.0"
    stroke="url(#gBorder)" stroke-width="0.8" stroke-opacity="0.5"/>

<!-- ════ TITLE ════ -->
<text x="695.0" y="44" font-size="18" font-weight="600" fill="#cce8ff"
  text-anchor="middle" font-family="'Lexend','Segoe UI',sans-serif"
  filter="url(#glowTitle)" letter-spacing="5">⬡  COMMIT  ANALYTICS  ⬡</text>
<text x="695.0" y="62" font-size="9.5" fill="#3d7ed4" text-anchor="middle"
  font-family="'Lexend','Segoe UI',sans-serif" letter-spacing="3.5" font-weight="300">kieran-lucas/oop-course-project-uet</text>

<!-- ════ STATS BADGE ════ -->

    <rect x="1156" y="8" width="142" height="92" rx="10"
      fill="#030e26" fill-opacity="0.94" stroke="#2563eb" stroke-width="1.2"/>
    <text x="1227" y="24" font-size="8" fill="#3d7ed4"
      text-anchor="middle" font-family="'Lexend',sans-serif" letter-spacing="2" font-weight="400">TOTAL  COMMITS</text>
    <text x="1227" y="52" font-size="28" font-weight="700" fill="#cce8ff"
      text-anchor="middle" font-family="'Lexend',sans-serif" filter="url(#glowTitle)">192</text>
    <line x1="1172" y1="60" x2="1282" y2="60"
      stroke="#1a3f7a" stroke-width="0.8" stroke-opacity="0.5"/>
    <text x="1203" y="74" font-size="9" fill="#22c55e"
      text-anchor="middle" font-family="'Lexend',sans-serif" font-weight="400">+149.4k</text>
    <text x="1251" y="74" font-size="9" fill="#ef4444"
      text-anchor="middle" font-family="'Lexend',sans-serif" font-weight="400">-73.8k</text>
    <text x="1227" y="90" font-size="8" fill="#3d7ed4"
      text-anchor="middle" font-family="'Lexend',sans-serif" font-weight="300">11 active days · 717 files</text>

<!-- ════ LEGEND ════ -->
<g><rect x="339.0" y="90.0" width="24" height="12" rx="3"
        fill="#4a90e2" fill-opacity="0.45" stroke="#4a90e2" stroke-width="1.2"/><text x="370.0" y="100.0" font-size="11" fill="#93c5fd"
      font-family="'Lexend','Segoe UI',sans-serif" font-weight="400">Total Lines</text><line x1="475.0" y1="97.0" x2="499.0" y2="97.0"
        stroke="#ff8c42" stroke-width="2.5" stroke-linecap="round"/><circle cx="487.0" cy="97.0" r="3.5"
        fill="#ff8c42" stroke="#fff" stroke-width="0.6" stroke-opacity="0.3"/><text x="506.0" y="100.0" font-size="11" fill="#93c5fd"
      font-family="'Lexend','Segoe UI',sans-serif" font-weight="400">Commits</text><line x1="583.0" y1="97.0" x2="607.0" y2="97.0"
        stroke="#00d4f5" stroke-width="2.5" stroke-linecap="round"/><circle cx="595.0" cy="97.0" r="3.5"
        fill="#00d4f5" stroke="#fff" stroke-width="0.6" stroke-opacity="0.3"/><text x="614.0" y="100.0" font-size="11" fill="#93c5fd"
      font-family="'Lexend','Segoe UI',sans-serif" font-weight="400">Chg/Commit</text><rect x="718.0" y="90.0" width="12" height="12" rx="2"
        fill="#22c55e" opacity="0.85"/><text x="743.0" y="100.0" font-size="11" fill="#93c5fd"
      font-family="'Lexend','Segoe UI',sans-serif" font-weight="400">Additions</text><rect x="840.0" y="90.0" width="12" height="12" rx="2"
        fill="#ef4444" opacity="0.85"/><text x="865.0" y="100.0" font-size="11" fill="#93c5fd"
      font-family="'Lexend','Segoe UI',sans-serif" font-weight="400">Deletions</text><line x1="956.0" y1="97.0" x2="980.0" y2="97.0"
        stroke="#a78bfa" stroke-width="2" stroke-dasharray="5,3" stroke-linecap="round"/><text x="987.0" y="100.0" font-size="11" fill="#93c5fd"
      font-family="'Lexend','Segoe UI',sans-serif" font-weight="400">7-day MA</text></g>

<!-- ════ AXIS LABELS ════ -->
<text x="16" y="310.0" font-size="9.5" fill="#4a90e2"
    text-anchor="middle" font-family="'Lexend','Segoe UI',sans-serif" letter-spacing="3" font-weight="300"
    transform="rotate(-90, 16, 310.0)">LINES</text>
<text x="1368.0" y="310.0" font-size="9.5"
    fill="#ff8c42" text-anchor="middle" font-family="'Lexend','Segoe UI',sans-serif"
    letter-spacing="3" font-weight="300" opacity="0.8"
    transform="rotate(90, 1368.0, 310.0)">COMMITS</text>

<!-- ════ GRID + Y-LABELS ════ -->
<line x1="86" y1="490.0" x2="1304" y2="490.0"
      stroke="#1a3f7a" stroke-width="1.4"
      stroke-opacity="0.9" stroke-dasharray="none"/><line x1="86" y1="418.0" x2="1304" y2="418.0"
      stroke="#1a3f7a" stroke-width="0.5"
      stroke-opacity="0.3" stroke-dasharray="6,6"/><line x1="86" y1="346.0" x2="1304" y2="346.0"
      stroke="#1a3f7a" stroke-width="0.5"
      stroke-opacity="0.3" stroke-dasharray="6,6"/><line x1="86" y1="274.0" x2="1304" y2="274.0"
      stroke="#1a3f7a" stroke-width="0.5"
      stroke-opacity="0.3" stroke-dasharray="6,6"/><line x1="86" y1="202.0" x2="1304" y2="202.0"
      stroke="#1a3f7a" stroke-width="0.5"
      stroke-opacity="0.3" stroke-dasharray="6,6"/><line x1="86" y1="130.0" x2="1304" y2="130.0"
      stroke="#1a3f7a" stroke-width="0.5"
      stroke-opacity="0.3" stroke-dasharray="6,6"/>
<text x="74" y="494.0" font-size="11" fill="#5aa8ff"
      text-anchor="end" font-family="'Lexend','Segoe UI',sans-serif" font-weight="300">0</text><text x="74" y="422.0" font-size="11" fill="#5aa8ff"
      text-anchor="end" font-family="'Lexend','Segoe UI',sans-serif" font-weight="300">20.0k</text><text x="74" y="350.0" font-size="11" fill="#5aa8ff"
      text-anchor="end" font-family="'Lexend','Segoe UI',sans-serif" font-weight="300">40.0k</text><text x="74" y="278.0" font-size="11" fill="#5aa8ff"
      text-anchor="end" font-family="'Lexend','Segoe UI',sans-serif" font-weight="300">60.0k</text><text x="74" y="206.0" font-size="11" fill="#5aa8ff"
      text-anchor="end" font-family="'Lexend','Segoe UI',sans-serif" font-weight="300">80.0k</text><text x="74" y="134.0" font-size="11" fill="#5aa8ff"
      text-anchor="end" font-family="'Lexend','Segoe UI',sans-serif" font-weight="300">100.0k</text>
<text x="1316" y="494.0" font-size="11" fill="#ff8c42"
      text-anchor="start" font-family="'Lexend','Segoe UI',sans-serif" font-weight="300" opacity="0.85">0</text><text x="1316" y="404.0" font-size="11" fill="#ff8c42"
      text-anchor="start" font-family="'Lexend','Segoe UI',sans-serif" font-weight="300" opacity="0.85">20</text><text x="1316" y="314.0" font-size="11" fill="#ff8c42"
      text-anchor="start" font-family="'Lexend','Segoe UI',sans-serif" font-weight="300" opacity="0.85">40</text><text x="1316" y="224.0" font-size="11" fill="#ff8c42"
      text-anchor="start" font-family="'Lexend','Segoe UI',sans-serif" font-weight="300" opacity="0.85">60</text><text x="1316" y="134.0" font-size="11" fill="#ff8c42"
      text-anchor="start" font-family="'Lexend','Segoe UI',sans-serif" font-weight="300" opacity="0.85">80</text>

<!-- ════ AXIS LINES ════ -->
<line x1="86" y1="130" x2="86" y2="490"
  stroke="#1a3f7a" stroke-width="1.2" stroke-opacity="0.65"/>
<line x1="86" y1="490" x2="1304" y2="490"
  stroke="#1a3f7a" stroke-width="1.4" stroke-opacity="0.8"/>
<line x1="1304" y1="130" x2="1304" y2="490"
  stroke="#ff8c42" stroke-width="0.9" stroke-opacity="0.28"/>

<!-- ════ X-AXIS ════ -->
<text x="86.0" y="514" font-size="10" fill="#5aa8ff"
      text-anchor="end" font-family="'Lexend','Segoe UI',sans-serif" font-weight="300"
      transform="rotate(-42, 86.0, 514)">10 Mar</text><text x="207.8" y="514" font-size="10" fill="#5aa8ff"
      text-anchor="end" font-family="'Lexend','Segoe UI',sans-serif" font-weight="300"
      transform="rotate(-42, 207.8, 514)">12 Mar</text><text x="329.6" y="514" font-size="10" fill="#5aa8ff"
      text-anchor="end" font-family="'Lexend','Segoe UI',sans-serif" font-weight="300"
      transform="rotate(-42, 329.6, 514)">14 Mar</text><text x="451.4" y="514" font-size="10" fill="#5aa8ff"
      text-anchor="end" font-family="'Lexend','Segoe UI',sans-serif" font-weight="300"
      transform="rotate(-42, 451.4, 514)">16 Mar</text><text x="573.2" y="514" font-size="10" fill="#5aa8ff"
      text-anchor="end" font-family="'Lexend','Segoe UI',sans-serif" font-weight="300"
      transform="rotate(-42, 573.2, 514)">18 Mar</text><text x="695.0" y="514" font-size="10" fill="#5aa8ff"
      text-anchor="end" font-family="'Lexend','Segoe UI',sans-serif" font-weight="300"
      transform="rotate(-42, 695.0, 514)">20 Mar</text><text x="816.8" y="514" font-size="10" fill="#5aa8ff"
      text-anchor="end" font-family="'Lexend','Segoe UI',sans-serif" font-weight="300"
      transform="rotate(-42, 816.8, 514)">22 Mar</text><text x="938.6" y="514" font-size="10" fill="#5aa8ff"
      text-anchor="end" font-family="'Lexend','Segoe UI',sans-serif" font-weight="300"
      transform="rotate(-42, 938.6, 514)">24 Mar</text><text x="1060.4" y="514" font-size="10" fill="#5aa8ff"
      text-anchor="end" font-family="'Lexend','Segoe UI',sans-serif" font-weight="300"
      transform="rotate(-42, 1060.4, 514)">26 Mar</text><text x="1182.2" y="514" font-size="10" fill="#5aa8ff"
      text-anchor="end" font-family="'Lexend','Segoe UI',sans-serif" font-weight="300"
      transform="rotate(-42, 1182.2, 514)">28 Mar</text><text x="1304.0" y="514" font-size="10" fill="#5aa8ff"
      text-anchor="end" font-family="'Lexend','Segoe UI',sans-serif" font-weight="300"
      transform="rotate(-42, 1304.0, 514)">30 Mar</text>

<!-- ════ CHART CONTENT ════ -->
<g clip-path="url(#chartClip)">
  <!-- Total lines: area + stroke -->
  <path d="M 86.00 490.00 C 96.15 490.00, 126.60 490.00, 146.90 490.00 C 167.20 490.00, 187.50 490.00, 207.80 490.00 C 228.10 490.00, 248.40 490.00, 268.70 490.00 C 289.00 490.00, 309.30 490.00, 329.60 490.00 C 349.90 490.00, 370.20 490.00, 390.50 490.00 C 410.80 490.00, 431.10 490.00, 451.40 490.00 C 471.70 489.98, 492.00 489.92, 512.30 489.91 C 532.60 489.89, 552.90 489.91, 573.20 489.91 C 593.50 489.91, 613.80 489.94, 634.10 489.91 C 654.40 489.87, 674.70 489.72, 695.00 489.69 C 715.30 489.65, 735.60 489.70, 755.90 489.69 C 776.20 489.67, 796.50 489.62, 816.80 489.61 C 837.10 489.59, 857.40 490.00, 877.70 489.61 C 898.00 488.99, 918.30 486.51, 938.60 485.89 C 958.90 485.28, 979.20 485.91, 999.50 485.91 C 1019.80 485.91, 1040.10 485.90, 1060.40 485.90 C 1080.70 485.90, 1101.00 490.00, 1121.30 485.89 C 1141.60 443.28, 1161.90 274.96, 1182.20 230.27 C 1202.50 185.59, 1222.80 219.86, 1243.10 217.78 C 1263.40 215.70, 1293.85 217.78, 1304.00 217.78 L 1304.00 490 L 86.00 490 Z" fill="url(#areaFill)"/>
  <path d="M 86.00 490.00 C 96.15 490.00, 126.60 490.00, 146.90 490.00 C 167.20 490.00, 187.50 490.00, 207.80 490.00 C 228.10 490.00, 248.40 490.00, 268.70 490.00 C 289.00 490.00, 309.30 490.00, 329.60 490.00 C 349.90 490.00, 370.20 490.00, 390.50 490.00 C 410.80 490.00, 431.10 490.00, 451.40 490.00 C 471.70 489.98, 492.00 489.92, 512.30 489.91 C 532.60 489.89, 552.90 489.91, 573.20 489.91 C 593.50 489.91, 613.80 489.94, 634.10 489.91 C 654.40 489.87, 674.70 489.72, 695.00 489.69 C 715.30 489.65, 735.60 489.70, 755.90 489.69 C 776.20 489.67, 796.50 489.62, 816.80 489.61 C 837.10 489.59, 857.40 490.00, 877.70 489.61 C 898.00 488.99, 918.30 486.51, 938.60 485.89 C 958.90 485.28, 979.20 485.91, 999.50 485.91 C 1019.80 485.91, 1040.10 485.90, 1060.40 485.90 C 1080.70 485.90, 1101.00 490.00, 1121.30 485.89 C 1141.60 443.28, 1161.90 274.96, 1182.20 230.27 C 1202.50 185.59, 1222.80 219.86, 1243.10 217.78 C 1263.40 215.70, 1293.85 217.78, 1304.00 217.78" fill="none" stroke="#4a90e2" stroke-width="2" stroke-opacity="0.7"/>

  <!-- Bars -->
  <rect x="926.6" y="312.5" width="24" height="88.1"
        fill="url(#gDelBar)" rx="2" opacity="0.78"/><rect x="926.6" y="400.6" width="24" height="89.4"
        fill="url(#gAddBar)" rx="2" opacity="0.82"/><rect x="1170.2" y="392.5" width="24" height="2.7"
        fill="url(#gDelBar)" rx="2" opacity="0.78"/><rect x="1170.2" y="395.2" width="24" height="94.8"
        fill="url(#gAddBar)" rx="2" opacity="0.82"/><rect x="1231.1" y="476.3" width="24" height="4.6"
        fill="url(#gDelBar)" rx="2" opacity="0.78"/><rect x="1231.1" y="480.9" width="24" height="9.1"
        fill="url(#gAddBar)" rx="2" opacity="0.82"/>

  <!-- Commits line — glow + crisp -->
  <path d="M 86.00 485.50 C 96.15 486.25, 126.60 489.25, 146.90 490.00 C 167.20 490.00, 187.50 490.00, 207.80 490.00 C 228.10 490.00, 248.40 490.00, 268.70 490.00 C 289.00 490.00, 309.30 490.00, 329.60 490.00 C 349.90 490.00, 370.20 490.00, 390.50 490.00 C 410.80 490.00, 431.10 490.00, 451.40 490.00 C 471.70 482.50, 492.00 445.00, 512.30 445.00 C 532.60 445.00, 552.90 482.50, 573.20 490.00 C 593.50 490.00, 613.80 490.00, 634.10 490.00 C 654.40 470.50, 674.70 373.00, 695.00 373.00 C 715.30 373.00, 735.60 471.25, 755.90 490.00 C 776.20 490.00, 796.50 485.50, 816.80 485.50 C 837.10 485.50, 857.40 490.00, 877.70 490.00 C 898.00 466.75, 918.30 351.25, 938.60 346.00 C 958.90 340.75, 979.20 436.75, 999.50 458.50 C 1019.80 480.25, 1040.10 472.00, 1060.40 476.50 C 1080.70 481.00, 1101.00 490.00, 1121.30 485.50 C 1141.60 438.25, 1161.90 225.25, 1182.20 193.00 C 1202.50 160.75, 1222.80 243.25, 1243.10 292.00 C 1263.40 340.75, 1293.85 453.25, 1304.00 485.50" fill="none" stroke="#ff8c42" stroke-width="9" stroke-opacity="0.06" filter="url(#glowLine)"/>
  <path d="M 86.00 485.50 C 96.15 486.25, 126.60 489.25, 146.90 490.00 C 167.20 490.00, 187.50 490.00, 207.80 490.00 C 228.10 490.00, 248.40 490.00, 268.70 490.00 C 289.00 490.00, 309.30 490.00, 329.60 490.00 C 349.90 490.00, 370.20 490.00, 390.50 490.00 C 410.80 490.00, 431.10 490.00, 451.40 490.00 C 471.70 482.50, 492.00 445.00, 512.30 445.00 C 532.60 445.00, 552.90 482.50, 573.20 490.00 C 593.50 490.00, 613.80 490.00, 634.10 490.00 C 654.40 470.50, 674.70 373.00, 695.00 373.00 C 715.30 373.00, 735.60 471.25, 755.90 490.00 C 776.20 490.00, 796.50 485.50, 816.80 485.50 C 837.10 485.50, 857.40 490.00, 877.70 490.00 C 898.00 466.75, 918.30 351.25, 938.60 346.00 C 958.90 340.75, 979.20 436.75, 999.50 458.50 C 1019.80 480.25, 1040.10 472.00, 1060.40 476.50 C 1080.70 481.00, 1101.00 490.00, 1121.30 485.50 C 1141.60 438.25, 1161.90 225.25, 1182.20 193.00 C 1202.50 160.75, 1222.80 243.25, 1243.10 292.00 C 1263.40 340.75, 1293.85 453.25, 1304.00 485.50" fill="none" stroke="url(#gCommits)" stroke-width="2.8" stroke-linecap="round"/>

  <!-- Changes/commit line -->
  <path d="M 86.00 489.93 C 96.15 489.94, 126.60 489.99, 146.90 490.00 C 167.20 490.00, 187.50 490.00, 207.80 490.00 C 228.10 490.00, 248.40 490.00, 268.70 490.00 C 289.00 490.00, 309.30 490.00, 329.60 490.00 C 349.90 490.00, 370.20 490.00, 390.50 490.00 C 410.80 490.00, 431.10 490.00, 451.40 490.00 C 471.70 489.95, 492.00 489.71, 512.30 489.71 C 532.60 489.71, 552.90 489.95, 573.20 490.00 C 593.50 490.00, 613.80 490.00, 634.10 490.00 C 654.40 489.96, 674.70 489.78, 695.00 489.78 C 715.30 489.78, 735.60 490.00, 755.90 490.00 C 776.20 489.77, 796.50 488.42, 816.80 488.42 C 837.10 488.42, 857.40 490.00, 877.70 490.00 C 898.00 438.92, 918.30 182.09, 938.60 181.91 C 958.90 181.73, 979.20 438.20, 999.50 488.92 C 1019.80 490.00, 1040.10 486.70, 1060.40 486.26 C 1080.70 485.81, 1101.00 490.00, 1121.30 486.26 C 1141.60 473.20, 1161.90 410.19, 1182.20 407.92 C 1202.50 405.65, 1222.80 459.57, 1243.10 472.65 C 1263.40 485.73, 1293.85 484.11, 1304.00 486.40" fill="none" stroke="#00d4f5" stroke-width="9" stroke-opacity="0.06" filter="url(#glowLine)"/>
  <path d="M 86.00 489.93 C 96.15 489.94, 126.60 489.99, 146.90 490.00 C 167.20 490.00, 187.50 490.00, 207.80 490.00 C 228.10 490.00, 248.40 490.00, 268.70 490.00 C 289.00 490.00, 309.30 490.00, 329.60 490.00 C 349.90 490.00, 370.20 490.00, 390.50 490.00 C 410.80 490.00, 431.10 490.00, 451.40 490.00 C 471.70 489.95, 492.00 489.71, 512.30 489.71 C 532.60 489.71, 552.90 489.95, 573.20 490.00 C 593.50 490.00, 613.80 490.00, 634.10 490.00 C 654.40 489.96, 674.70 489.78, 695.00 489.78 C 715.30 489.78, 735.60 490.00, 755.90 490.00 C 776.20 489.77, 796.50 488.42, 816.80 488.42 C 837.10 488.42, 857.40 490.00, 877.70 490.00 C 898.00 438.92, 918.30 182.09, 938.60 181.91 C 958.90 181.73, 979.20 438.20, 999.50 488.92 C 1019.80 490.00, 1040.10 486.70, 1060.40 486.26 C 1080.70 485.81, 1101.00 490.00, 1121.30 486.26 C 1141.60 473.20, 1161.90 410.19, 1182.20 407.92 C 1202.50 405.65, 1222.80 459.57, 1243.10 472.65 C 1263.40 485.73, 1293.85 484.11, 1304.00 486.40" fill="none" stroke="url(#gChanges)" stroke-width="2.5" stroke-linecap="round"/>

  <!-- Moving averages -->
  <path d="M 86.00 488.88 C 96.15 488.91, 126.60 489.04, 146.90 489.10 C 167.20 489.16, 187.50 489.21, 207.80 489.25 C 228.10 489.29, 248.40 490.00, 268.70 489.36 C 289.00 488.41, 309.30 484.54, 329.60 483.57 C 349.90 482.61, 370.20 483.57, 390.50 483.57 C 410.80 483.57, 431.10 486.36, 451.40 483.57 C 471.70 480.79, 492.00 469.64, 512.30 466.86 C 532.60 464.07, 552.90 466.96, 573.20 466.86 C 593.50 466.75, 613.80 466.32, 634.10 466.21 C 654.40 466.11, 674.70 468.57, 695.00 466.21 C 715.30 463.86, 735.60 455.18, 755.90 452.07 C 776.20 448.96, 796.50 448.64, 816.80 447.57 C 837.10 446.50, 857.40 443.29, 877.70 445.64 C 898.00 448.00, 918.30 466.11, 938.60 461.71 C 958.90 457.32, 979.20 430.96, 999.50 419.29 C 1019.80 407.61, 1040.10 396.36, 1060.40 391.64 C 1080.70 386.93, 1101.00 389.86, 1121.30 391.00 C 1141.60 392.14, 1161.90 399.25, 1182.20 398.50 C 1202.50 397.75, 1222.80 392.25, 1243.10 386.50 C 1263.40 380.75, 1293.85 367.75, 1304.00 364.00" fill="none" stroke="#a78bfa" stroke-width="2" stroke-dasharray="6,4" stroke-opacity="0.55" filter="url(#glowMA)"/>
  <path d="M 86.00 489.98 C 96.15 489.98, 126.60 489.98, 146.90 489.99 C 167.20 489.99, 187.50 489.99, 207.80 489.99 C 228.10 489.99, 248.40 489.99, 268.70 489.99 C 289.00 489.98, 309.30 489.96, 329.60 489.96 C 349.90 489.95, 370.20 489.96, 390.50 489.96 C 410.80 489.96, 431.10 489.96, 451.40 489.96 C 471.70 489.95, 492.00 489.93, 512.30 489.93 C 532.60 489.92, 552.90 489.97, 573.20 489.93 C 593.50 489.89, 613.80 489.74, 634.10 489.70 C 654.40 489.66, 674.70 490.00, 695.00 489.70 C 715.30 482.37, 735.60 453.08, 755.90 445.73 C 776.20 438.38, 796.50 445.69, 816.80 445.58 C 837.10 445.46, 857.40 445.21, 877.70 445.04 C 898.00 444.87, 918.30 446.58, 938.60 444.54 C 958.90 442.50, 979.20 435.14, 999.50 432.81 C 1019.80 430.48, 1040.10 431.02, 1060.40 430.56 C 1080.70 430.10, 1101.00 423.24, 1121.30 430.04 C 1141.60 436.85, 1161.90 465.09, 1182.20 471.40 C 1202.50 477.71, 1222.80 469.25, 1243.10 467.90 C 1263.40 466.55, 1293.85 464.07, 1304.00 463.31" fill="none" stroke="#c4b5fd" stroke-width="1.5" stroke-dasharray="5,4" stroke-opacity="0.4"/>

  <!-- Statistical overlay -->
  <line x1="86" y1="411.5" x2="1304" y2="411.5"
      stroke="#ff8c42" stroke-width="1" stroke-dasharray="8,4" opacity="0.3"/>
    <text x="1316" y="405.5" font-size="8" fill="#ff8c42"
      text-anchor="start" font-family="'Lexend','Segoe UI',sans-serif" font-weight="300" opacity="0.6">μ=17.5</text>

  <!-- Data point circles (inside clip for safety) -->
  <circle cx="86.0" cy="485.5" r="3.0"
        fill="#ff8c42" stroke="#ffd0a0" stroke-width="1" filter="url(#glowOrange)" opacity="0.9">
        <title>2026-03-10: 1 commits</title></circle><circle cx="512.3" cy="445.0" r="3.3"
        fill="#ff8c42" stroke="#ffd0a0" stroke-width="1" filter="url(#glowOrange)" opacity="0.9">
        <title>2026-03-17: 10 commits</title></circle><circle cx="695.0" cy="373.0" r="3.8"
        fill="#ff8c42" stroke="#ffd0a0" stroke-width="1" filter="url(#glowOrange)" opacity="0.9">
        <title>2026-03-20: 26 commits</title></circle><circle cx="816.8" cy="485.5" r="3.0"
        fill="#ff8c42" stroke="#ffd0a0" stroke-width="1" filter="url(#glowOrange)" opacity="0.9">
        <title>2026-03-22: 1 commits</title></circle><circle cx="938.6" cy="346.0" r="4.0"
        fill="#ff8c42" stroke="#ffd0a0" stroke-width="1" filter="url(#glowOrange)" opacity="0.9">
        <title>2026-03-24: 32 commits</title></circle><circle cx="999.5" cy="458.5" r="3.2"
        fill="#ff8c42" stroke="#ffd0a0" stroke-width="1" filter="url(#glowOrange)" opacity="0.9">
        <title>2026-03-25: 7 commits</title></circle><circle cx="1060.4" cy="476.5" r="3.1"
        fill="#ff8c42" stroke="#ffd0a0" stroke-width="1" filter="url(#glowOrange)" opacity="0.9">
        <title>2026-03-26: 3 commits</title></circle><circle cx="1121.3" cy="485.5" r="3.0"
        fill="#ff8c42" stroke="#ffd0a0" stroke-width="1" filter="url(#glowOrange)" opacity="0.9">
        <title>2026-03-27: 1 commits</title></circle><circle cx="1182.2" cy="193.0" r="5.1"
        fill="#ff8c42" stroke="#ffd0a0" stroke-width="1" filter="url(#glowOrange)" opacity="0.9">
        <title>2026-03-28: 66 commits</title></circle><circle cx="1243.1" cy="292.0" r="4.4"
        fill="#ff8c42" stroke="#ffd0a0" stroke-width="1" filter="url(#glowOrange)" opacity="0.9">
        <title>2026-03-29: 44 commits</title></circle><circle cx="1304.0" cy="485.5" r="3.0"
        fill="#ff8c42" stroke="#ffd0a0" stroke-width="1" filter="url(#glowOrange)" opacity="0.9">
        <title>2026-03-30: 1 commits</title></circle>
  <circle cx="86.0" cy="489.9" r="3.5"
        fill="#00d4f5" stroke="#80eeff" stroke-width="0.8" filter="url(#glowCyan)" opacity="0.85">
        <title>2026-03-10: 1 changes/commit</title></circle><circle cx="512.3" cy="489.7" r="3.5"
        fill="#00d4f5" stroke="#80eeff" stroke-width="0.8" filter="url(#glowCyan)" opacity="0.85">
        <title>2026-03-17: 4 changes/commit</title></circle><circle cx="695.0" cy="489.8" r="3.5"
        fill="#00d4f5" stroke="#80eeff" stroke-width="0.8" filter="url(#glowCyan)" opacity="0.85">
        <title>2026-03-20: 3 changes/commit</title></circle><circle cx="816.8" cy="488.4" r="3.5"
        fill="#00d4f5" stroke="#80eeff" stroke-width="0.8" filter="url(#glowCyan)" opacity="0.85">
        <title>2026-03-22: 22 changes/commit</title></circle><circle cx="938.6" cy="181.9" r="3.5"
        fill="#00d4f5" stroke="#80eeff" stroke-width="0.8" filter="url(#glowCyan)" opacity="0.85">
        <title>2026-03-24: 4279 changes/commit</title></circle><circle cx="999.5" cy="488.9" r="3.5"
        fill="#00d4f5" stroke="#80eeff" stroke-width="0.8" filter="url(#glowCyan)" opacity="0.85">
        <title>2026-03-25: 15 changes/commit</title></circle><circle cx="1060.4" cy="486.3" r="3.5"
        fill="#00d4f5" stroke="#80eeff" stroke-width="0.8" filter="url(#glowCyan)" opacity="0.85">
        <title>2026-03-26: 52 changes/commit</title></circle><circle cx="1121.3" cy="486.3" r="3.5"
        fill="#00d4f5" stroke="#80eeff" stroke-width="0.8" filter="url(#glowCyan)" opacity="0.85">
        <title>2026-03-27: 52 changes/commit</title></circle><circle cx="1182.2" cy="407.9" r="3.5"
        fill="#00d4f5" stroke="#80eeff" stroke-width="0.8" filter="url(#glowCyan)" opacity="0.85">
        <title>2026-03-28: 1140 changes/commit</title></circle><circle cx="1243.1" cy="472.6" r="3.5"
        fill="#00d4f5" stroke="#80eeff" stroke-width="0.8" filter="url(#glowCyan)" opacity="0.85">
        <title>2026-03-29: 241 changes/commit</title></circle><circle cx="1304.0" cy="486.4" r="3.5"
        fill="#00d4f5" stroke="#80eeff" stroke-width="0.8" filter="url(#glowCyan)" opacity="0.85">
        <title>2026-03-30: 50 changes/commit</title></circle>
</g>

<!-- ════ ANNOTATIONS ════ -->

        <line x1="1182.2" y1="181.0"
          x2="1182.2" y2="172.0"
          stroke="#2563eb" stroke-width="1.2" stroke-dasharray="4,4" opacity="0.65"/>
        <rect x="1117.2" y="148.0"
          width="130" height="24" rx="6"
          fill="#030e26" stroke="#2563eb" stroke-width="1" opacity="0.96"/>
        <text x="1182.2" y="164.0"
          font-size="10" fill="#93c5fd" text-anchor="middle"
          font-family="'Lexend','Segoe UI',sans-serif" font-weight="400"
          letter-spacing="0.5">⬡  Peak · 66 commits</text>
        <line x1="938.6" y1="494" x2="1304.0" y2="494"
          stroke="#f472b6" stroke-width="2.5" stroke-linecap="round" opacity="0.7"/>
        <circle cx="938.6" cy="494" r="3" fill="#f472b6" opacity="0.9"/>
        <circle cx="1304.0" cy="494" r="3" fill="#f472b6" opacity="0.9"/>
        <text x="1121.3" y="508" font-size="8.5" fill="#f472b6"
          text-anchor="middle" font-family="'Lexend','Segoe UI',sans-serif"
          font-weight="400" opacity="0.85">🔥 7-day streak</text>
        <line x1="938.6" y1="130" x2="938.6" y2="490"
          stroke="#f472b6" stroke-width="0.8" stroke-dasharray="3,6" opacity="0.35"/>

<!-- ════ CORNER BRACKETS ════ -->
<path d="M 86 152.0 L 86 130 L 108.0 130"
      fill="none" stroke="#4a90e2" stroke-width="2" stroke-opacity="0.85" stroke-linecap="round"/><path d="M 1304 152.0 L 1304 130 L 1282.0 130"
      fill="none" stroke="#4a90e2" stroke-width="2" stroke-opacity="0.85" stroke-linecap="round"/><path d="M 86 468.0 L 86 490 L 108.0 490"
      fill="none" stroke="#4a90e2" stroke-width="2" stroke-opacity="0.85" stroke-linecap="round"/><path d="M 1304 468.0 L 1304 490 L 1282.0 490"
      fill="none" stroke="#4a90e2" stroke-width="2" stroke-opacity="0.85" stroke-linecap="round"/>

<!-- ════ HEATMAP ════ -->
<text x="691" y="646" font-size="11" fill="#3d7ed4"
    text-anchor="middle" font-family="'Lexend','Segoe UI',sans-serif"
    letter-spacing="3" font-weight="400">CONTRIBUTION  CALENDAR</text><text x="663.5" y="686"
        font-size="9" fill="#3d7ed4" text-anchor="end"
        font-family="'Lexend','Segoe UI',sans-serif" font-weight="300">M</text><text x="663.5" y="716"
        font-size="9" fill="#3d7ed4" text-anchor="end"
        font-family="'Lexend','Segoe UI',sans-serif" font-weight="300">W</text><text x="663.5" y="746"
        font-size="9" fill="#3d7ed4" text-anchor="end"
        font-family="'Lexend','Segoe UI',sans-serif" font-weight="300">F</text><rect x="669.5" y="660.0"
        width="12" height="12" rx="2.5" fill="#0a1630"
        stroke="#0d2464" stroke-width="0.5" stroke-opacity="0.4">
        <title>2026-03-08: 0 commits</title></rect><rect x="669.5" y="675.0"
        width="12" height="12" rx="2.5" fill="#0a1630"
        stroke="#0d2464" stroke-width="0.5" stroke-opacity="0.4">
        <title>2026-03-09: 0 commits</title></rect><rect x="669.5" y="690.0"
        width="12" height="12" rx="2.5" fill="#0d3068"
        stroke="#0d2464" stroke-width="0.5" stroke-opacity="0.4">
        <title>2026-03-10: 1 commits</title></rect><rect x="669.5" y="705.0"
        width="12" height="12" rx="2.5" fill="#0a1630"
        stroke="#0d2464" stroke-width="0.5" stroke-opacity="0.4">
        <title>2026-03-11: 0 commits</title></rect><rect x="669.5" y="720.0"
        width="12" height="12" rx="2.5" fill="#0a1630"
        stroke="#0d2464" stroke-width="0.5" stroke-opacity="0.4">
        <title>2026-03-12: 0 commits</title></rect><rect x="669.5" y="735.0"
        width="12" height="12" rx="2.5" fill="#0a1630"
        stroke="#0d2464" stroke-width="0.5" stroke-opacity="0.4">
        <title>2026-03-13: 0 commits</title></rect><rect x="669.5" y="750.0"
        width="12" height="12" rx="2.5" fill="#0a1630"
        stroke="#0d2464" stroke-width="0.5" stroke-opacity="0.4">
        <title>2026-03-14: 0 commits</title></rect><rect x="684.5" y="660.0"
        width="12" height="12" rx="2.5" fill="#0a1630"
        stroke="#0d2464" stroke-width="0.5" stroke-opacity="0.4">
        <title>2026-03-15: 0 commits</title></rect><rect x="684.5" y="675.0"
        width="12" height="12" rx="2.5" fill="#0a1630"
        stroke="#0d2464" stroke-width="0.5" stroke-opacity="0.4">
        <title>2026-03-16: 0 commits</title></rect><rect x="684.5" y="690.0"
        width="12" height="12" rx="2.5" fill="#0d3068"
        stroke="#0d2464" stroke-width="0.5" stroke-opacity="0.4">
        <title>2026-03-17: 10 commits</title></rect><rect x="684.5" y="705.0"
        width="12" height="12" rx="2.5" fill="#0a1630"
        stroke="#0d2464" stroke-width="0.5" stroke-opacity="0.4">
        <title>2026-03-18: 0 commits</title></rect><rect x="684.5" y="720.0"
        width="12" height="12" rx="2.5" fill="#0a1630"
        stroke="#0d2464" stroke-width="0.5" stroke-opacity="0.4">
        <title>2026-03-19: 0 commits</title></rect><rect x="684.5" y="735.0"
        width="12" height="12" rx="2.5" fill="#1e56a8"
        stroke="#0d2464" stroke-width="0.5" stroke-opacity="0.4">
        <title>2026-03-20: 26 commits</title></rect><rect x="684.5" y="750.0"
        width="12" height="12" rx="2.5" fill="#0a1630"
        stroke="#0d2464" stroke-width="0.5" stroke-opacity="0.4">
        <title>2026-03-21: 0 commits</title></rect><rect x="699.5" y="660.0"
        width="12" height="12" rx="2.5" fill="#0d3068"
        stroke="#0d2464" stroke-width="0.5" stroke-opacity="0.4">
        <title>2026-03-22: 1 commits</title></rect><rect x="699.5" y="675.0"
        width="12" height="12" rx="2.5" fill="#0a1630"
        stroke="#0d2464" stroke-width="0.5" stroke-opacity="0.4">
        <title>2026-03-23: 0 commits</title></rect><rect x="699.5" y="690.0"
        width="12" height="12" rx="2.5" fill="#1e56a8"
        stroke="#0d2464" stroke-width="0.5" stroke-opacity="0.4">
        <title>2026-03-24: 32 commits</title></rect><rect x="699.5" y="705.0"
        width="12" height="12" rx="2.5" fill="#0d3068"
        stroke="#0d2464" stroke-width="0.5" stroke-opacity="0.4">
        <title>2026-03-25: 7 commits</title></rect><rect x="699.5" y="720.0"
        width="12" height="12" rx="2.5" fill="#0d3068"
        stroke="#0d2464" stroke-width="0.5" stroke-opacity="0.4">
        <title>2026-03-26: 3 commits</title></rect><rect x="699.5" y="735.0"
        width="12" height="12" rx="2.5" fill="#0d3068"
        stroke="#0d2464" stroke-width="0.5" stroke-opacity="0.4">
        <title>2026-03-27: 1 commits</title></rect><rect x="699.5" y="750.0"
        width="12" height="12" rx="2.5" fill="#93c5fd"
        stroke="#0d2464" stroke-width="0.5" stroke-opacity="0.4">
        <title>2026-03-28: 66 commits</title></rect><rect x="714.5" y="660.0"
        width="12" height="12" rx="2.5" fill="#3b82f6"
        stroke="#0d2464" stroke-width="0.5" stroke-opacity="0.4">
        <title>2026-03-29: 44 commits</title></rect><rect x="714.5" y="675.0"
        width="12" height="12" rx="2.5" fill="#0d3068"
        stroke="#0d2464" stroke-width="0.5" stroke-opacity="0.4">
        <title>2026-03-30: 1 commits</title></rect><rect x="714.5" y="690.0"
        width="12" height="12" rx="2.5" fill="#0a1630"
        stroke="#0d2464" stroke-width="0.5" stroke-opacity="0.4">
        <title>2026-03-31: 0 commits</title></rect><rect x="714.5" y="705.0"
        width="12" height="12" rx="2.5" fill="#0a1630"
        stroke="#0d2464" stroke-width="0.5" stroke-opacity="0.4">
        <title>2026-04-01: 0 commits</title></rect><rect x="714.5" y="720.0"
        width="12" height="12" rx="2.5" fill="#0a1630"
        stroke="#0d2464" stroke-width="0.5" stroke-opacity="0.4">
        <title>2026-04-02: 0 commits</title></rect><rect x="714.5" y="735.0"
        width="12" height="12" rx="2.5" fill="#0a1630"
        stroke="#0d2464" stroke-width="0.5" stroke-opacity="0.4">
        <title>2026-04-03: 0 commits</title></rect><rect x="714.5" y="750.0"
        width="12" height="12" rx="2.5" fill="#0a1630"
        stroke="#0d2464" stroke-width="0.5" stroke-opacity="0.4">
        <title>2026-04-04: 0 commits</title></rect><text x="714.5" y="656" font-size="8.5" fill="#3d7ed4"
        font-family="'Lexend','Segoe UI',sans-serif" font-weight="300">Apr</text><rect x="729.5" y="660.0"
        width="12" height="12" rx="2.5" fill="#0a1630"
        stroke="#0d2464" stroke-width="0.5" stroke-opacity="0.4">
        <title>2026-04-05: 0 commits</title></rect><rect x="729.5" y="675.0"
        width="12" height="12" rx="2.5" fill="#0a1630"
        stroke="#0d2464" stroke-width="0.5" stroke-opacity="0.4">
        <title>2026-04-06: 0 commits</title></rect><rect x="729.5" y="690.0"
        width="12" height="12" rx="2.5" fill="#0a1630"
        stroke="#0d2464" stroke-width="0.5" stroke-opacity="0.4">
        <title>2026-04-07: 0 commits</title></rect><rect x="729.5" y="705.0"
        width="12" height="12" rx="2.5" fill="#0a1630"
        stroke="#0d2464" stroke-width="0.5" stroke-opacity="0.4">
        <title>2026-04-08: 0 commits</title></rect><rect x="729.5" y="720.0"
        width="12" height="12" rx="2.5" fill="#0a1630"
        stroke="#0d2464" stroke-width="0.5" stroke-opacity="0.4">
        <title>2026-04-09: 0 commits</title></rect><rect x="729.5" y="735.0"
        width="12" height="12" rx="2.5" fill="#0a1630"
        stroke="#0d2464" stroke-width="0.5" stroke-opacity="0.4">
        <title>2026-04-10: 0 commits</title></rect><rect x="729.5" y="750.0"
        width="12" height="12" rx="2.5" fill="#0a1630"
        stroke="#0d2464" stroke-width="0.5" stroke-opacity="0.4">
        <title>2026-04-11: 0 commits</title></rect>

<!-- ════ BOTTOM PANELS ════ -->

    <rect x="86" y="823" width="320" height="110"
      rx="4" fill="#030e26" fill-opacity="0.6" stroke="#1a3f7a" stroke-width="0.8"/>
    <text x="246" y="819" font-size="8" fill="#3d7ed4"
      text-anchor="middle" font-family="'Lexend','Segoe UI',sans-serif"
      letter-spacing="2" font-weight="300">OVERVIEW</text>
    <g clip-path="url(#minimapClip)">
      <path d="M 86.00 931.58 C 88.67 931.82, 96.67 932.76, 102.00 933.00 C 107.33 933.24, 112.67 933.00, 118.00 933.00 C 123.33 933.00, 128.67 933.00, 134.00 933.00 C 139.33 933.00, 144.67 933.00, 150.00 933.00 C 155.33 933.00, 160.67 933.00, 166.00 933.00 C 171.33 933.00, 176.67 935.36, 182.00 933.00 C 187.33 930.64, 192.67 918.83, 198.00 918.83 C 203.33 918.83, 208.67 930.64, 214.00 933.00 C 219.33 935.36, 224.67 939.14, 230.00 933.00 C 235.33 926.86, 240.67 896.17, 246.00 896.17 C 251.33 896.17, 256.67 927.10, 262.00 933.00 C 267.33 938.90, 272.67 931.58, 278.00 931.58 C 283.33 931.58, 288.67 940.32, 294.00 933.00 C 299.33 925.68, 304.67 889.32, 310.00 887.67 C 315.33 886.01, 320.67 916.24, 326.00 923.08 C 331.33 929.93, 336.67 927.33, 342.00 928.75 C 347.33 930.17, 352.67 946.46, 358.00 931.58 C 363.33 916.71, 368.67 849.65, 374.00 839.50 C 379.33 829.35, 384.67 855.32, 390.00 870.67 C 395.33 886.01, 403.33 921.43, 406.00 931.58 L 406.00 933 L 86.00 933 Z" fill="#4a90e2" fill-opacity="0.15"/>
      <path d="M 86.00 931.58 C 88.67 931.82, 96.67 932.76, 102.00 933.00 C 107.33 933.24, 112.67 933.00, 118.00 933.00 C 123.33 933.00, 128.67 933.00, 134.00 933.00 C 139.33 933.00, 144.67 933.00, 150.00 933.00 C 155.33 933.00, 160.67 933.00, 166.00 933.00 C 171.33 933.00, 176.67 935.36, 182.00 933.00 C 187.33 930.64, 192.67 918.83, 198.00 918.83 C 203.33 918.83, 208.67 930.64, 214.00 933.00 C 219.33 935.36, 224.67 939.14, 230.00 933.00 C 235.33 926.86, 240.67 896.17, 246.00 896.17 C 251.33 896.17, 256.67 927.10, 262.00 933.00 C 267.33 938.90, 272.67 931.58, 278.00 931.58 C 283.33 931.58, 288.67 940.32, 294.00 933.00 C 299.33 925.68, 304.67 889.32, 310.00 887.67 C 315.33 886.01, 320.67 916.24, 326.00 923.08 C 331.33 929.93, 336.67 927.33, 342.00 928.75 C 347.33 930.17, 352.67 946.46, 358.00 931.58 C 363.33 916.71, 368.67 849.65, 374.00 839.50 C 379.33 829.35, 384.67 855.32, 390.00 870.67 C 395.33 886.01, 403.33 921.43, 406.00 931.58" fill="none" stroke="#4a90e2" stroke-width="1.5" stroke-opacity="0.7"/>
    </g>
    <clipPath id="minimapClip">
      <rect x="86" y="823" width="320" height="110" rx="4"/>
    </clipPath><path d="M 1164.00 854.90
      L 1164.00 836.00
      A 42 42 0 1 1 1143.00 841.63
      L 1152.45 857.99
      A 23.1 23.1 0 1 0 1164.00 854.90 Z"
      fill="#4a90e2" fill-opacity="0.8" stroke="#030e26" stroke-width="1.5">
      <title>Kieran Lucas: 176 commits (92%)</title></path><path d="M 1152.45 857.99
      L 1143.00 841.63
      A 42 42 0 0 1 1164.00 836.00
      L 1164.00 854.90
      A 23.1 23.1 0 0 0 1152.45 857.99 Z"
      fill="#ff8c42" fill-opacity="0.8" stroke="#030e26" stroke-width="1.5">
      <title>github-actions: 16 commits (8%)</title></path><text x="1164" y="874" font-size="9" fill="#3d7ed4" text-anchor="middle"
    font-family="'Lexend','Segoe UI',sans-serif" letter-spacing="1.5" font-weight="300">AUTHORS</text><text x="1164" y="892" font-size="16" fill="#cce8ff" text-anchor="middle"
    font-family="'Lexend','Segoe UI',sans-serif" font-weight="600">2</text><rect x="1222" y="830" width="8" height="8" rx="2" fill="#4a90e2" opacity="0.85"/><text x="1236" y="838" font-size="9.5" fill="#3d7ed4"
      font-family="'Lexend','Segoe UI',sans-serif" font-weight="300">Kieran Lucas (176)</text><rect x="1222" y="848" width="8" height="8" rx="2" fill="#ff8c42" opacity="0.85"/><text x="1236" y="856" font-size="9.5" fill="#3d7ed4"
      font-family="'Lexend','Segoe UI',sans-serif" font-weight="300">github-actions (16)</text>

<!-- ════ WAVES ════ -->
<path d="M 0 963 Q 86.4 956.0 172.8 963 Q 259.1 956.0 345.5 963 Q 431.9 956.0 518.3 963 Q 604.6 956.0 691.0 963 Q 777.4 956.0 863.8 963 Q 950.1 956.0 1036.5 963 Q 1122.9 956.0 1209.3 963 Q 1295.6 956.0 1382.0 963" fill="none" stroke="#1948a0" stroke-width="1.2" stroke-opacity="0.35"/>
<path d="M 0 958 Q 86.4 952.5 172.8 958 Q 259.1 952.5 345.5 958 Q 431.9 952.5 518.3 958 Q 604.6 952.5 691.0 958 Q 777.4 952.5 863.8 958 Q 950.1 952.5 1036.5 958 Q 1122.9 952.5 1209.3 958 Q 1295.6 952.5 1382.0 958" fill="none" stroke="#1948a0" stroke-width="1" stroke-opacity="0.29"/>
<path d="M 0 953 Q 86.4 949.0 172.8 953 Q 259.1 949.0 345.5 953 Q 431.9 949.0 518.3 953 Q 604.6 949.0 691.0 953 Q 777.4 949.0 863.8 953 Q 950.1 949.0 1036.5 953 Q 1122.9 949.0 1209.3 953 Q 1295.6 949.0 1382.0 953" fill="none" stroke="#1948a0" stroke-width="0.7999999999999999" stroke-opacity="0.22999999999999998"/>
<path d="M 0 948 Q 86.4 945.5 172.8 948 Q 259.1 945.5 345.5 948 Q 431.9 945.5 518.3 948 Q 604.6 945.5 691.0 948 Q 777.4 945.5 863.8 948 Q 950.1 945.5 1036.5 948 Q 1122.9 945.5 1209.3 948 Q 1295.6 945.5 1382.0 948" fill="none" stroke="#1948a0" stroke-width="0.5999999999999999" stroke-opacity="0.16999999999999998"/>

</svg>