
<svg width="1200" height="400" xmlns="http://www.w3.org/2000/svg">
  <line x1="50" y1="350" x2="1150" y2="350" stroke="#ddd" stroke-width="1"/>
              <text x="40" y="354" font-size="12" text-anchor="end">0</text><line x1="50" y1="314.70588235294116" x2="1150" y2="314.70588235294116" stroke="#ddd" stroke-width="1"/>
              <text x="40" y="318.70588235294116" font-size="12" text-anchor="end">4</text><line x1="50" y1="279.4117647058823" x2="1150" y2="279.4117647058823" stroke="#ddd" stroke-width="1"/>
              <text x="40" y="283.4117647058823" font-size="12" text-anchor="end">8</text><line x1="50" y1="244.11764705882354" x2="1150" y2="244.11764705882354" stroke="#ddd" stroke-width="1"/>
              <text x="40" y="248.11764705882354" font-size="12" text-anchor="end">12</text><line x1="50" y1="208.8235294117647" x2="1150" y2="208.8235294117647" stroke="#ddd" stroke-width="1"/>
              <text x="40" y="212.8235294117647" font-size="12" text-anchor="end">16</text><line x1="50" y1="173.52941176470588" x2="1150" y2="173.52941176470588" stroke="#ddd" stroke-width="1"/>
              <text x="40" y="177.52941176470588" font-size="12" text-anchor="end">20</text><line x1="50" y1="138.23529411764704" x2="1150" y2="138.23529411764704" stroke="#ddd" stroke-width="1"/>
              <text x="40" y="142.23529411764704" font-size="12" text-anchor="end">24</text><line x1="50" y1="102.94117647058826" x2="1150" y2="102.94117647058826" stroke="#ddd" stroke-width="1"/>
              <text x="40" y="106.94117647058826" font-size="12" text-anchor="end">28</text><line x1="50" y1="67.64705882352939" x2="1150" y2="67.64705882352939" stroke="#ddd" stroke-width="1"/>
              <text x="40" y="71.64705882352939" font-size="12" text-anchor="end">32</text>
  <line x1="50" y1="350" x2="1150" y2="350" stroke="#000"/>
  
      <rect x="50" y="341.1764705882353" width="293.33333333333337" height="8.823529411764707" fill="#7aa2f7" />
      <text x="196.66666666666669" y="395" font-size="10" text-anchor="middle" transform="rotate(45 196.66666666666669,395)">2026-W11</text>
      <title>2026-W11: 1 commits</title>
    
      <rect x="416.6666666666667" y="50" width="293.33333333333337" height="300" fill="#ff6b6b" />
      <text x="563.3333333333334" y="395" font-size="10" text-anchor="middle" transform="rotate(45 563.3333333333334,395)">2026-W12</text>
      <title>2026-W12: 34 commits</title>
    
      <rect x="783.3333333333334" y="173.52941176470588" width="293.33333333333337" height="176.47058823529412" fill="#ff6b6b" />
      <text x="930" y="395" font-size="10" text-anchor="middle" transform="rotate(45 930,395)">2026-W13</text>
      <title>2026-W13: 20 commits</title>
    
</svg>
  