<svg width="1047" height="520" xmlns="http://www.w3.org/2000/svg" viewBox="0 0 1047 520">
<defs>
  <style>
    @import url('https://fonts.googleapis.com/css2?family=Lexend:wght@300;400;600;700&amp;display=swap');
  </style>

  <!-- Backgrounds -->
  <linearGradient id="bg" x1="0%" y1="0%" x2="60%" y2="100%">
    <stop offset="0%"   stop-color="#020b1a"/>
    <stop offset="45%"  stop-color="#030e22"/>
    <stop offset="100%" stop-color="#010918"/>
  </linearGradient>

  <!-- Area fill (total lines) -->
  <linearGradient id="areaFill" x1="0%" y1="0%" x2="0%" y2="100%">
    <stop offset="0%"   stop-color="#475569" stop-opacity="0.5"/>
    <stop offset="60%"  stop-color="#334155" stop-opacity="0.15"/>
    <stop offset="100%" stop-color="#1e293b" stop-opacity="0"/>
  </linearGradient>

  <!-- Commits line gradient -->
  <linearGradient id="gCommits" x1="0%" y1="0%" x2="100%" y2="0%">
    <stop offset="0%"   stop-color="#fb923c"/>
    <stop offset="100%" stop-color="#f97316"/>
  </linearGradient>

  <!-- Changes line gradient -->
  <linearGradient id="gChanges" x1="0%" y1="0%" x2="100%" y2="0%">
    <stop offset="0%"   stop-color="#2563eb"/>
    <stop offset="50%"  stop-color="#3b82f6"/>
    <stop offset="100%" stop-color="#93c5fd"/>
  </linearGradient>

  <!-- Border gradient -->
  <linearGradient id="gBorder" x1="0%" y1="0%" x2="100%" y2="100%">
    <stop offset="0%"   stop-color="#1d4ed8" stop-opacity="0.9"/>
    <stop offset="50%"  stop-color="#3b82f6" stop-opacity="0.55"/>
    <stop offset="100%" stop-color="#60a5fa" stop-opacity="0.9"/>
  </linearGradient>

  <!-- Header fill -->
  <linearGradient id="gHeader" x1="0%" y1="0%" x2="100%" y2="0%">
    <stop offset="0%"   stop-color="#0c1e4a" stop-opacity="0"/>
    <stop offset="25%"  stop-color="#0f2257" stop-opacity="0.85"/>
    <stop offset="75%"  stop-color="#0f2257" stop-opacity="0.85"/>
    <stop offset="100%" stop-color="#0c1e4a" stop-opacity="0"/>
  </linearGradient>

  <!-- Filters -->
  <filter id="gOrange" x="-80%" y="-80%" width="260%" height="260%">
    <feGaussianBlur stdDeviation="3" result="b"/>
    <feMerge><feMergeNode in="b"/><feMergeNode in="SourceGraphic"/></feMerge>
  </filter>
  <filter id="gBlue" x="-80%" y="-80%" width="260%" height="260%">
    <feGaussianBlur stdDeviation="2.5" result="b"/>
    <feMerge><feMergeNode in="b"/><feMergeNode in="SourceGraphic"/></feMerge>
  </filter>
  <filter id="gTitle">
    <feGaussianBlur stdDeviation="3" result="b"/>
    <feMerge><feMergeNode in="b"/><feMergeNode in="b"/><feMergeNode in="SourceGraphic"/></feMerge>
  </filter>
  <filter id="gLine" x="-5%" y="-80%" width="110%" height="260%">
    <feGaussianBlur stdDeviation="4" result="b"/>
    <feMerge><feMergeNode in="b"/><feMergeNode in="SourceGraphic"/></feMerge>
  </filter>

  <!-- KNY diamond tile pattern -->
  <pattern id="knyTile" x="0" y="0" width="24" height="24" patternUnits="userSpaceOnUse">
    <path d="M12 1 L23 12 L12 23 L1 12 Z"
          fill="none" stroke="#1e3a8a" stroke-width="0.35" stroke-opacity="0.22"/>
  </pattern>

  <!-- Clip -->
  <clipPath id="chartClip">
    <rect x="72" y="100" width="920" height="325"/>
  </clipPath>
</defs>

<!-- ── Background ── -->
<rect width="1047" height="520" fill="url(#bg)" rx="14"/>
<rect width="1047" height="520" fill="url(#knyTile)" rx="14" opacity="0.7"/>

<!-- ── Outer border ── -->
<rect width="1047" height="520" fill="none" rx="14"
      stroke="url(#gBorder)" stroke-width="1.6"/>
<!-- inner accent line -->
<rect x="5" y="5" width="1037" height="510" fill="none" rx="11"
      stroke="#1d4ed8" stroke-width="0.5" stroke-opacity="0.35"/>

<!-- ── Header band ── -->
<rect x="0" y="0" width="1047" height="96" fill="url(#gHeader)" rx="14"/>
<line x1="72" y1="96" x2="992" y2="96"
      stroke="#1d4ed8" stroke-width="0.8" stroke-opacity="0.55"/>

<!-- ── Title ── -->
<text x="532.0" y="44"
      font-size="17" font-weight="600" fill="#bfdbfe"
      text-anchor="middle" font-family="Lexend, sans-serif"
      filter="url(#gTitle)" letter-spacing="3.5">⬡  COMMIT ANALYTICS  ⬡</text>
<text x="532.0" y="61"
      font-size="9.5" fill="#3b82f6" text-anchor="middle"
      font-family="Lexend, sans-serif" letter-spacing="3" font-weight="300">kieran-lucas/oop-course-project-uet</text>

<!-- ── Stats badge ── -->

    <rect x="890" y="10" width="98" height="62" rx="6"
          fill="#050e24" fill-opacity="0.85" stroke="#1d4ed8" stroke-width="0.9"/>
    <text x="939" y="26" font-size="8.5" fill="#3b82f6"
          text-anchor="middle" font-family="Lexend, sans-serif" letter-spacing="1.5">TOTAL COMMITS</text>
    <text x="939" y="46" font-size="22" font-weight="600" fill="#93c5fd"
          text-anchor="middle" font-family="Lexend, sans-serif" filter="url(#gTitle)">67</text>
    <text x="939" y="62" font-size="8.5" fill="#86efac"
          text-anchor="middle" font-family="Lexend, sans-serif">+68.5k</text>
    <text x="939" y="62" font-size="8.5" fill="#fca5a5"
          text-anchor="middle" font-family="Lexend, sans-serif" dx="36">-67.5k</text>

<!-- ── Legend ── -->
<g><rect x="204.1" y="69" width="22" height="11" rx="2" fill="#94a3b8" opacity="0.35" stroke="#94a3b8" stroke-width="0.8"/><text x="230.1" y="77" font-size="11" fill="#93c5fd"
      font-family="Lexend, sans-serif" font-weight="400">Total lines</text><line x1="337.3" y1="75" x2="357.3" y2="75" stroke="#f97316" stroke-width="2.2"/><circle cx="347.3" cy="75" r="3.5" fill="#f97316"/><text x="363.3" y="77" font-size="11" fill="#93c5fd"
      font-family="Lexend, sans-serif" font-weight="400">Commits</text><line x1="441.7" y1="75" x2="461.7" y2="75" stroke="#60a5fa" stroke-width="2.2"/><circle cx="451.7" cy="75" r="3.5" fill="#60a5fa"/><text x="467.7" y="77" font-size="11" fill="#93c5fd"
      font-family="Lexend, sans-serif" font-weight="400">Changes per commit</text><rect x="625.3" y="69" width="12" height="11" rx="2" fill="#22c55e" opacity="0.85"/><text x="642.3" y="77" font-size="11" fill="#93c5fd"
      font-family="Lexend, sans-serif" font-weight="400">Additions</text><rect x="735.1" y="69" width="12" height="11" rx="2" fill="#ef4444" opacity="0.85"/><text x="752.1" y="77" font-size="11" fill="#93c5fd"
      font-family="Lexend, sans-serif" font-weight="400">Deletions</text></g>

<!-- ── Axis labels ── -->
<text x="13" y="262.5" font-size="9" fill="#3b82f6"
      text-anchor="middle" font-family="Lexend, sans-serif" letter-spacing="2"
      transform="rotate(-90, 13, 262.5)">LINES</text>
<text x="1035" y="262.5" font-size="9" fill="#f97316"
      text-anchor="middle" font-family="Lexend, sans-serif" letter-spacing="2" opacity="0.75"
      transform="rotate(90, 1035, 262.5)">COMMITS</text>

<!-- ── Grid ── -->
<line x1="72" y1="100.0" x2="992" y2="100.0"
      stroke="#1e3a8a" stroke-width="0.5"
      stroke-opacity="0.3"
      stroke-dasharray="6,5"/><text x="64" y="104.0" font-size="10" fill="#3b82f6"
        text-anchor="end" font-family="Lexend, sans-serif">1.0k</text><line x1="72" y1="165.0" x2="992" y2="165.0"
      stroke="#1e3a8a" stroke-width="0.5"
      stroke-opacity="0.3"
      stroke-dasharray="6,5"/><text x="64" y="169.0" font-size="10" fill="#3b82f6"
        text-anchor="end" font-family="Lexend, sans-serif">819</text><line x1="72" y1="230.0" x2="992" y2="230.0"
      stroke="#1e3a8a" stroke-width="0.5"
      stroke-opacity="0.3"
      stroke-dasharray="6,5"/><text x="64" y="234.0" font-size="10" fill="#3b82f6"
        text-anchor="end" font-family="Lexend, sans-serif">614</text><line x1="72" y1="295.0" x2="992" y2="295.0"
      stroke="#1e3a8a" stroke-width="0.5"
      stroke-opacity="0.3"
      stroke-dasharray="6,5"/><text x="64" y="299.0" font-size="10" fill="#3b82f6"
        text-anchor="end" font-family="Lexend, sans-serif">410</text><line x1="72" y1="360.0" x2="992" y2="360.0"
      stroke="#1e3a8a" stroke-width="0.5"
      stroke-opacity="0.3"
      stroke-dasharray="6,5"/><text x="64" y="364.0" font-size="10" fill="#3b82f6"
        text-anchor="end" font-family="Lexend, sans-serif">205</text><line x1="72" y1="425.0" x2="992" y2="425.0"
      stroke="#1e3a8a" stroke-width="1"
      stroke-opacity="0.7"
      stroke-dasharray="none"/>
<text x="1000" y="104.0" font-size="10" fill="#f97316"
      font-family="Lexend, sans-serif" opacity="0.75">29</text><text x="1000" y="169.0" font-size="10" fill="#f97316"
      font-family="Lexend, sans-serif" opacity="0.75">23</text><text x="1000" y="234.0" font-size="10" fill="#f97316"
      font-family="Lexend, sans-serif" opacity="0.75">17</text><text x="1000" y="299.0" font-size="10" fill="#f97316"
      font-family="Lexend, sans-serif" opacity="0.75">12</text><text x="1000" y="364.0" font-size="10" fill="#f97316"
      font-family="Lexend, sans-serif" opacity="0.75">6</text>

<!-- ── Axis lines ── -->
<line x1="72" y1="100" x2="72" y2="425"
      stroke="#1e40af" stroke-width="0.8" stroke-opacity="0.45"/>
<line x1="72" y1="425" x2="992" y2="425"
      stroke="#1e40af" stroke-width="1" stroke-opacity="0.65"/>
<line x1="992" y1="100" x2="992" y2="425"
      stroke="#f97316" stroke-width="0.8" stroke-opacity="0.3"/>

<!-- ── X Labels ── -->
<text x="72.0" y="443"
      font-size="9.5" fill="#3b82f6" text-anchor="middle"
      font-family="Lexend, sans-serif" font-weight="300"
      transform="rotate(-42, 72.0, 443)">10 Mar</text><text x="302.0" y="443"
      font-size="9.5" fill="#3b82f6" text-anchor="middle"
      font-family="Lexend, sans-serif" font-weight="300"
      transform="rotate(-42, 302.0, 443)">17 Mar</text><text x="532.0" y="443"
      font-size="9.5" fill="#3b82f6" text-anchor="middle"
      font-family="Lexend, sans-serif" font-weight="300"
      transform="rotate(-42, 532.0, 443)">20 Mar</text><text x="762.0" y="443"
      font-size="9.5" fill="#3b82f6" text-anchor="middle"
      font-family="Lexend, sans-serif" font-weight="300"
      transform="rotate(-42, 762.0, 443)">22 Mar</text><text x="992.0" y="443"
      font-size="9.5" fill="#3b82f6" text-anchor="middle"
      font-family="Lexend, sans-serif" font-weight="300"
      transform="rotate(-42, 992.0, 443)">24 Mar</text>

<!-- ── Chart (clipped) ── -->
<g clip-path="url(#chartClip)">

  <!-- Total lines area -->
  <path d="M 72.00 424.68 C 110.33 423.36, 225.33 421.30, 302.00 416.75 C 378.67 412.20, 455.33 401.78, 532.00 397.39 C 608.67 393.00, 685.33 439.97, 762.00 390.41 C 838.67 340.84, 953.67 148.40, 992.00 100.00 L 992.00 425 L 72.00 425 Z" fill="url(#areaFill)"/>
  <path d="M 72.00 424.68 C 110.33 423.36, 225.33 421.30, 302.00 416.75 C 378.67 412.20, 455.33 401.78, 532.00 397.39 C 608.67 393.00, 685.33 439.97, 762.00 390.41 C 838.67 340.84, 953.67 148.40, 992.00 100.00" fill="none" stroke="#64748b" stroke-width="1.4" stroke-opacity="0.65"/>

  <!-- Bars (deletions top / additions bottom) -->
  <rect x="983.0" y="171.5" width="18" height="125.9" fill="#ef4444" opacity="0.72" rx="1"/><rect x="983.0" y="297.4" width="18" height="127.6" fill="#22c55e" opacity="0.75" rx="1"/>

  <!-- Commits line -->
  <path d="M 72.00 413.79 C 110.33 396.98, 225.33 359.63, 302.00 312.93 C 378.67 266.24, 455.33 116.81, 532.00 133.62 C 608.67 150.43, 685.33 419.40, 762.00 413.79 C 838.67 408.19, 953.67 152.30, 992.00 100.00" fill="none" stroke="#f97316"
        stroke-width="6" stroke-opacity="0.12" filter="url(#gLine)"/>
  <path d="M 72.00 413.79 C 110.33 396.98, 225.33 359.63, 302.00 312.93 C 378.67 266.24, 455.33 116.81, 532.00 133.62 C 608.67 150.43, 685.33 419.40, 762.00 413.79 C 838.67 408.19, 953.67 152.30, 992.00 100.00" fill="none" stroke="url(#gCommits)"
        stroke-width="2.2" stroke-linecap="round"/>

  <!-- Changes per commit line -->
  <path d="M 72.00 424.93 C 110.33 424.90, 225.33 424.75, 302.00 424.72 C 378.67 424.70, 455.33 425.00, 532.00 424.79 C 608.67 424.58, 685.33 477.61, 762.00 423.47 C 838.67 369.34, 953.67 153.91, 992.00 100.00" fill="none" stroke="#3b82f6"
        stroke-width="6" stroke-opacity="0.12" filter="url(#gLine)"/>
  <path d="M 72.00 424.93 C 110.33 424.90, 225.33 424.75, 302.00 424.72 C 378.67 424.70, 455.33 425.00, 532.00 424.79 C 608.67 424.58, 685.33 477.61, 762.00 423.47 C 838.67 369.34, 953.67 153.91, 992.00 100.00" fill="none" stroke="url(#gChanges)"
        stroke-width="2.2" stroke-linecap="round"/>

</g>

<!-- ── Circles (on top of clip) ── -->
<circle cx="72.0" cy="413.8" r="3.8" fill="#f97316" filter="url(#gOrange)"><title>2026-03-10: 1 commits</title></circle><circle cx="302.0" cy="312.9" r="3.8" fill="#f97316" filter="url(#gOrange)"><title>2026-03-17: 10 commits</title></circle><circle cx="532.0" cy="133.6" r="3.8" fill="#f97316" filter="url(#gOrange)"><title>2026-03-20: 26 commits</title></circle><circle cx="762.0" cy="413.8" r="3.8" fill="#f97316" filter="url(#gOrange)"><title>2026-03-22: 1 commits</title></circle><circle cx="992.0" cy="100.0" r="3.8" fill="#f97316" filter="url(#gOrange)"><title>2026-03-24: 29 commits</title></circle>
<circle cx="72.0" cy="424.9" r="3.2" fill="#60a5fa" filter="url(#gBlue)"><title>2026-03-10: 1 changes/commit</title></circle><circle cx="302.0" cy="424.7" r="3.2" fill="#60a5fa" filter="url(#gBlue)"><title>2026-03-17: 4 changes/commit</title></circle><circle cx="532.0" cy="424.8" r="3.2" fill="#60a5fa" filter="url(#gBlue)"><title>2026-03-20: 3 changes/commit</title></circle><circle cx="762.0" cy="423.5" r="3.2" fill="#60a5fa" filter="url(#gBlue)"><title>2026-03-22: 22 changes/commit</title></circle><circle cx="992.0" cy="100.0" r="3.2" fill="#60a5fa" filter="url(#gBlue)"><title>2026-03-24: 4687 changes/commit</title></circle>

<!-- ── Peak annotation ── -->

    <line x1="992.0" y1="86.0"
          x2="992.0" y2="62.0"
          stroke="#60a5fa" stroke-width="1" stroke-dasharray="3,3" opacity="0.7"/>
    <rect x="948.0" y="44.0"
          width="88" height="20" rx="4"
          fill="#020b1a" stroke="#3b82f6" stroke-width="0.8" opacity="0.92"/>
    <text x="992.0" y="58.0"
          font-size="10" fill="#93c5fd" text-anchor="middle"
          font-family="Lexend, sans-serif">⬡ peak: 29 commits</text>

<!-- ── Corner brackets (KNY style) ── -->
<path d="M 72 118 L 72 100 L 90 100"
      fill="none" stroke="#3b82f6" stroke-width="1.8" stroke-opacity="0.8"/><path d="M 992 118 L 992 100 L 974 100"
      fill="none" stroke="#3b82f6" stroke-width="1.8" stroke-opacity="0.8"/><path d="M 72 407 L 72 425 L 90 425"
      fill="none" stroke="#3b82f6" stroke-width="1.8" stroke-opacity="0.8"/><path d="M 992 407 L 992 425 L 974 425"
      fill="none" stroke="#3b82f6" stroke-width="1.8" stroke-opacity="0.8"/>

<!-- ── Wave decoration ── -->
<path d="M 0 510 Q 87.3 504.0 174.5 510 Q 261.8 504.0 349.0 510 Q 436.3 504.0 523.5 510 Q 610.8 504.0 698.0 510 Q 785.3 504.0 872.5 510 Q 959.8 504.0 1047.0 510" fill="none" stroke="#1d4ed8" stroke-width="1" stroke-opacity="0.28"/>
<path d="M 0 505 Q 87.3 500.5 174.5 505 Q 261.8 500.5 349.0 505 Q 436.3 500.5 523.5 505 Q 610.8 500.5 698.0 505 Q 785.3 500.5 872.5 505 Q 959.8 500.5 1047.0 505" fill="none" stroke="#1d4ed8" stroke-width="0.75" stroke-opacity="0.22000000000000003"/>
<path d="M 0 500 Q 87.3 497.0 174.5 500 Q 261.8 497.0 349.0 500 Q 436.3 497.0 523.5 500 Q 610.8 497.0 698.0 500 Q 785.3 497.0 872.5 500 Q 959.8 497.0 1047.0 500" fill="none" stroke="#1d4ed8" stroke-width="0.5" stroke-opacity="0.16000000000000003"/>

</svg>