<svg width="1266" height="969" xmlns="http://www.w3.org/2000/svg" viewBox="0 0 1266 969">
<defs>
  <style>
    @import url('https://fonts.googleapis.com/css2?family=Lexend:wght@300;400;600;700&amp;display=swap');
    .outlier-marker { transition: opacity 0.2s; }
    .outlier-marker:hover { opacity: 1 !important; }
    circle:hover { opacity: 1 !important; r: 6; }
    rect.bar-segment:hover { opacity: 1 !important; }
  </style>

  <linearGradient id="bg" x1="0%" y1="0%" x2="55%" y2="100%">
    <stop offset="0%"   stop-color="#010c1e"/>
    <stop offset="50%"  stop-color="#010f27"/>
    <stop offset="100%" stop-color="#000a18"/>
  </linearGradient>
  <linearGradient id="areaFill" x1="0%" y1="0%" x2="0%" y2="100%">
    <stop offset="0%"   stop-color="#4a90e2" stop-opacity="0.5"/>
    <stop offset="55%"  stop-color="#1a3f7a" stop-opacity="0.18"/>
    <stop offset="100%" stop-color="#000a18" stop-opacity="0"/>
  </linearGradient>
  <linearGradient id="gCommits" x1="0%" y1="0%" x2="100%" y2="0%">
    <stop offset="0%"   stop-color="#ff8c42"/>
    <stop offset="100%" stop-color="#ffd0a0"/>
  </linearGradient>
  <linearGradient id="gChanges" x1="0%" y1="0%" x2="100%" y2="0%">
    <stop offset="0%"   stop-color="#00d4f5" stop-opacity="0.8"/>
    <stop offset="50%"  stop-color="#00d4f5"/>
    <stop offset="100%" stop-color="#80eeff"/>
  </linearGradient>
  <linearGradient id="gBorder" x1="0%" y1="0%" x2="100%" y2="100%">
    <stop offset="0%"   stop-color="#1840a0" stop-opacity="0.9"/>
    <stop offset="50%"  stop-color="#3b82f6" stop-opacity="0.6"/>
    <stop offset="100%" stop-color="#60a5fa" stop-opacity="0.9"/>
  </linearGradient>
  <linearGradient id="gHeader" x1="0%" y1="0%" x2="100%" y2="0%">
    <stop offset="0%"   stop-color="#010c1e" stop-opacity="0"/>
    <stop offset="20%"  stop-color="#091c3e" stop-opacity="0.92"/>
    <stop offset="80%"  stop-color="#091c3e" stop-opacity="0.92"/>
    <stop offset="100%" stop-color="#010c1e" stop-opacity="0"/>
  </linearGradient>
  <linearGradient id="gAddBar" x1="0%" y1="0%" x2="0%" y2="100%">
    <stop offset="0%"   stop-color="#22c55e" stop-opacity="0.95"/>
    <stop offset="100%" stop-color="#22c55e" stop-opacity="0.65"/>
  </linearGradient>
  <linearGradient id="gDelBar" x1="0%" y1="0%" x2="0%" y2="100%">
    <stop offset="0%"   stop-color="#ef4444" stop-opacity="0.9"/>
    <stop offset="100%" stop-color="#ef4444" stop-opacity="0.6"/>
  </linearGradient>

  <filter id="glowOrange" x="-120%" y="-120%" width="340%" height="340%">
    <feGaussianBlur stdDeviation="4" result="b"/>
    <feMerge><feMergeNode in="b"/><feMergeNode in="SourceGraphic"/></feMerge>
  </filter>
  <filter id="glowCyan" x="-120%" y="-120%" width="340%" height="340%">
    <feGaussianBlur stdDeviation="3.5" result="b"/>
    <feMerge><feMergeNode in="b"/><feMergeNode in="SourceGraphic"/></feMerge>
  </filter>
  <filter id="glowTitle">
    <feGaussianBlur stdDeviation="5" result="b"/>
    <feMerge><feMergeNode in="b"/><feMergeNode in="b"/><feMergeNode in="SourceGraphic"/></feMerge>
  </filter>
  <filter id="glowLine" x="-6%" y="-120%" width="112%" height="340%">
    <feGaussianBlur stdDeviation="4.5" result="b"/>
    <feMerge><feMergeNode in="b"/><feMergeNode in="SourceGraphic"/></feMerge>
  </filter>
  <filter id="glowMA" x="-6%" y="-120%" width="112%" height="340%">
    <feGaussianBlur stdDeviation="3" result="b"/>
    <feMerge><feMergeNode in="b"/><feMergeNode in="SourceGraphic"/></feMerge>
  </filter>

  <pattern id="diamondTile" x="0" y="0" width="30" height="30" patternUnits="userSpaceOnUse">
    <path d="M15 2 L28 15 L15 28 L2 15 Z"
      fill="none" stroke="#0d2464" stroke-width="0.4" stroke-opacity="0.25"/>
  </pattern>

  <clipPath id="chartClip">
    <rect x="86" y="130" width="1102" height="360"/>
  </clipPath>
</defs>

<!-- ════ BACKGROUND ════ -->
<rect width="1266" height="969" fill="url(#bg)" rx="16"/>
<rect width="1266" height="969" fill="url(#diamondTile)" rx="16"/>

<!-- ════ BORDERS ════ -->
<rect width="1266" height="969" fill="none" rx="16" stroke="url(#gBorder)" stroke-width="2.2"/>
<rect x="5" y="5" width="1256" height="959" fill="none" rx="13"
  stroke="#1840a0" stroke-width="0.7" stroke-opacity="0.35"/>

<!-- ════ HEADER ════ -->
<rect x="0" y="0" width="1266" height="122" fill="url(#gHeader)" rx="16"/>
<line x1="24" y1="118.0" x2="1242.0" y2="118.0"
    stroke="url(#gBorder)" stroke-width="0.8" stroke-opacity="0.5"/>

<!-- ════ TITLE ════ -->
<text x="637.0" y="44" font-size="18" font-weight="600" fill="#cce8ff"
  text-anchor="middle" font-family="'Lexend','Segoe UI',sans-serif"
  filter="url(#glowTitle)" letter-spacing="5">⬡  COMMIT  ANALYTICS  ⬡</text>
<text x="637.0" y="62" font-size="9.5" fill="#3d7ed4" text-anchor="middle"
  font-family="'Lexend','Segoe UI',sans-serif" letter-spacing="3.5" font-weight="300">kieran-lucas/oop-course-project-uet</text>

<!-- ════ STATS BADGE ════ -->

    <rect x="1040" y="8" width="142" height="92" rx="10"
      fill="#030e26" fill-opacity="0.94" stroke="#2563eb" stroke-width="1.2"/>
    <text x="1111" y="24" font-size="8" fill="#3d7ed4"
      text-anchor="middle" font-family="'Lexend',sans-serif" letter-spacing="2" font-weight="400">TOTAL  COMMITS</text>
    <text x="1111" y="52" font-size="28" font-weight="700" fill="#cce8ff"
      text-anchor="middle" font-family="'Lexend',sans-serif" filter="url(#glowTitle)">135</text>
    <line x1="1056" y1="60" x2="1166" y2="60"
      stroke="#1a3f7a" stroke-width="0.8" stroke-opacity="0.5"/>
    <text x="1087" y="74" font-size="9" fill="#22c55e"
      text-anchor="middle" font-family="'Lexend',sans-serif" font-weight="400">+141.7k</text>
    <text x="1135" y="74" font-size="9" fill="#ef4444"
      text-anchor="middle" font-family="'Lexend',sans-serif" font-weight="400">-69.5k</text>
    <text x="1111" y="90" font-size="8" fill="#3d7ed4"
      text-anchor="middle" font-family="'Lexend',sans-serif" font-weight="300">9 active days · 641 files</text>

<!-- ════ LEGEND ════ -->
<g><rect x="281.0" y="90.0" width="24" height="12" rx="3"
        fill="#4a90e2" fill-opacity="0.45" stroke="#4a90e2" stroke-width="1.2"/><text x="312.0" y="100.0" font-size="11" fill="#93c5fd"
      font-family="'Lexend','Segoe UI',sans-serif" font-weight="400">Total Lines</text><line x1="417.0" y1="97.0" x2="441.0" y2="97.0"
        stroke="#ff8c42" stroke-width="2.5" stroke-linecap="round"/><circle cx="429.0" cy="97.0" r="3.5"
        fill="#ff8c42" stroke="#fff" stroke-width="0.6" stroke-opacity="0.3"/><text x="448.0" y="100.0" font-size="11" fill="#93c5fd"
      font-family="'Lexend','Segoe UI',sans-serif" font-weight="400">Commits</text><line x1="525.0" y1="97.0" x2="549.0" y2="97.0"
        stroke="#00d4f5" stroke-width="2.5" stroke-linecap="round"/><circle cx="537.0" cy="97.0" r="3.5"
        fill="#00d4f5" stroke="#fff" stroke-width="0.6" stroke-opacity="0.3"/><text x="556.0" y="100.0" font-size="11" fill="#93c5fd"
      font-family="'Lexend','Segoe UI',sans-serif" font-weight="400">Chg/Commit</text><rect x="660.0" y="90.0" width="12" height="12" rx="2"
        fill="#22c55e" opacity="0.85"/><text x="685.0" y="100.0" font-size="11" fill="#93c5fd"
      font-family="'Lexend','Segoe UI',sans-serif" font-weight="400">Additions</text><rect x="782.0" y="90.0" width="12" height="12" rx="2"
        fill="#ef4444" opacity="0.85"/><text x="807.0" y="100.0" font-size="11" fill="#93c5fd"
      font-family="'Lexend','Segoe UI',sans-serif" font-weight="400">Deletions</text><line x1="898.0" y1="97.0" x2="922.0" y2="97.0"
        stroke="#a78bfa" stroke-width="2" stroke-dasharray="5,3" stroke-linecap="round"/><text x="929.0" y="100.0" font-size="11" fill="#93c5fd"
      font-family="'Lexend','Segoe UI',sans-serif" font-weight="400">7-day MA</text></g>



<!-- ════ AXIS LABELS ════ -->
<text x="16" y="310.0" font-size="9.5" fill="#4a90e2"
    text-anchor="middle" font-family="'Lexend','Segoe UI',sans-serif" letter-spacing="3" font-weight="300"
    transform="rotate(-90, 16, 310.0)">LINES</text>
<text x="1252.0" y="310.0" font-size="9.5"
    fill="#ff8c42" text-anchor="middle" font-family="'Lexend','Segoe UI',sans-serif"
    letter-spacing="3" font-weight="300" opacity="0.8"
    transform="rotate(90, 1252.0, 310.0)">COMMITS</text>

<!-- ════ GRID + Y-LABELS ════ -->
<line x1="86" y1="490.0" x2="1188" y2="490.0"
      stroke="#1a3f7a" stroke-width="1.4"
      stroke-opacity="0.9" stroke-dasharray="none"/><line x1="86" y1="390.3" x2="1188" y2="390.3"
      stroke="#1a3f7a" stroke-width="0.5"
      stroke-opacity="0.3" stroke-dasharray="6,6"/><line x1="86" y1="290.5" x2="1188" y2="290.5"
      stroke="#1a3f7a" stroke-width="0.5"
      stroke-opacity="0.3" stroke-dasharray="6,6"/><line x1="86" y1="190.8" x2="1188" y2="190.8"
      stroke="#1a3f7a" stroke-width="0.5"
      stroke-opacity="0.3" stroke-dasharray="6,6"/>
<text x="74" y="494.0" font-size="11" fill="#5aa8ff"
      text-anchor="end" font-family="'Lexend','Segoe UI',sans-serif" font-weight="300">0</text><text x="74" y="394.3" font-size="11" fill="#5aa8ff"
      text-anchor="end" font-family="'Lexend','Segoe UI',sans-serif" font-weight="300">20.0k</text><text x="74" y="294.5" font-size="11" fill="#5aa8ff"
      text-anchor="end" font-family="'Lexend','Segoe UI',sans-serif" font-weight="300">40.0k</text><text x="74" y="194.8" font-size="11" fill="#5aa8ff"
      text-anchor="end" font-family="'Lexend','Segoe UI',sans-serif" font-weight="300">60.0k</text>
<text x="1200" y="494.0" font-size="11" fill="#ff8c42"
      text-anchor="start" font-family="'Lexend','Segoe UI',sans-serif" font-weight="300" opacity="0.85">0</text><text x="1200" y="360.7" font-size="11" fill="#ff8c42"
      text-anchor="start" font-family="'Lexend','Segoe UI',sans-serif" font-weight="300" opacity="0.85">20</text><text x="1200" y="227.3" font-size="11" fill="#ff8c42"
      text-anchor="start" font-family="'Lexend','Segoe UI',sans-serif" font-weight="300" opacity="0.85">40</text>

<!-- ════ AXIS LINES ════ -->
<line x1="86" y1="130" x2="86" y2="490"
  stroke="#1a3f7a" stroke-width="1.2" stroke-opacity="0.65"/>
<line x1="86" y1="490" x2="1188" y2="490"
  stroke="#1a3f7a" stroke-width="1.4" stroke-opacity="0.8"/>
<line x1="1188" y1="130" x2="1188" y2="490"
  stroke="#ff8c42" stroke-width="0.9" stroke-opacity="0.28"/>

<!-- ════ X-AXIS ════ -->
<text x="86.0" y="514" font-size="10" fill="#5aa8ff"
      text-anchor="end" font-family="'Lexend','Segoe UI',sans-serif" font-weight="300"
      transform="rotate(-42, 86.0, 514)">10 Mar</text><text x="208.4" y="514" font-size="10" fill="#5aa8ff"
      text-anchor="end" font-family="'Lexend','Segoe UI',sans-serif" font-weight="300"
      transform="rotate(-42, 208.4, 514)">12 Mar</text><text x="330.9" y="514" font-size="10" fill="#5aa8ff"
      text-anchor="end" font-family="'Lexend','Segoe UI',sans-serif" font-weight="300"
      transform="rotate(-42, 330.9, 514)">14 Mar</text><text x="453.3" y="514" font-size="10" fill="#5aa8ff"
      text-anchor="end" font-family="'Lexend','Segoe UI',sans-serif" font-weight="300"
      transform="rotate(-42, 453.3, 514)">16 Mar</text><text x="575.8" y="514" font-size="10" fill="#5aa8ff"
      text-anchor="end" font-family="'Lexend','Segoe UI',sans-serif" font-weight="300"
      transform="rotate(-42, 575.8, 514)">18 Mar</text><text x="698.2" y="514" font-size="10" fill="#5aa8ff"
      text-anchor="end" font-family="'Lexend','Segoe UI',sans-serif" font-weight="300"
      transform="rotate(-42, 698.2, 514)">20 Mar</text><text x="820.7" y="514" font-size="10" fill="#5aa8ff"
      text-anchor="end" font-family="'Lexend','Segoe UI',sans-serif" font-weight="300"
      transform="rotate(-42, 820.7, 514)">22 Mar</text><text x="943.1" y="514" font-size="10" fill="#5aa8ff"
      text-anchor="end" font-family="'Lexend','Segoe UI',sans-serif" font-weight="300"
      transform="rotate(-42, 943.1, 514)">24 Mar</text><text x="1065.6" y="514" font-size="10" fill="#5aa8ff"
      text-anchor="end" font-family="'Lexend','Segoe UI',sans-serif" font-weight="300"
      transform="rotate(-42, 1065.6, 514)">26 Mar</text><text x="1188.0" y="514" font-size="10" fill="#5aa8ff"
      text-anchor="end" font-family="'Lexend','Segoe UI',sans-serif" font-weight="300"
      transform="rotate(-42, 1188.0, 514)">28 Mar</text>

<!-- ════ CHART CONTENT ════ -->
<g clip-path="url(#chartClip)">
  <!-- Total lines: area + stroke -->
  <path d="M 86.00 490.00 C 96.20 490.00, 126.81 490.00, 147.22 490.00 C 167.63 490.00, 188.04 490.00, 208.44 490.00 C 228.85 490.00, 249.26 490.00, 269.67 490.00 C 290.07 490.00, 310.48 490.00, 330.89 490.00 C 351.30 490.00, 371.70 490.00, 392.11 490.00 C 412.52 490.00, 432.93 490.00, 453.33 490.00 C 473.74 489.97, 494.15 489.89, 514.56 489.87 C 534.96 489.85, 555.37 489.87, 575.78 489.87 C 596.19 489.87, 616.59 489.92, 637.00 489.87 C 657.41 489.82, 677.81 489.62, 698.22 489.57 C 718.63 489.52, 739.04 489.58, 759.44 489.57 C 779.85 489.55, 800.26 489.47, 820.67 489.46 C 841.07 489.44, 861.48 490.00, 881.89 489.46 C 902.30 488.60, 922.70 485.16, 943.11 484.31 C 963.52 483.46, 983.93 484.33, 1004.33 484.33 C 1024.74 484.34, 1045.15 484.33, 1065.56 484.32 C 1085.96 484.31, 1106.37 490.00, 1126.78 484.30 C 1147.19 425.25, 1177.80 189.05, 1188.00 130.00 L 1188.00 490 L 86.00 490 Z" fill="url(#areaFill)"/>
  <path d="M 86.00 490.00 C 96.20 490.00, 126.81 490.00, 147.22 490.00 C 167.63 490.00, 188.04 490.00, 208.44 490.00 C 228.85 490.00, 249.26 490.00, 269.67 490.00 C 290.07 490.00, 310.48 490.00, 330.89 490.00 C 351.30 490.00, 371.70 490.00, 392.11 490.00 C 412.52 490.00, 432.93 490.00, 453.33 490.00 C 473.74 489.97, 494.15 489.89, 514.56 489.87 C 534.96 489.85, 555.37 489.87, 575.78 489.87 C 596.19 489.87, 616.59 489.92, 637.00 489.87 C 657.41 489.82, 677.81 489.62, 698.22 489.57 C 718.63 489.52, 739.04 489.58, 759.44 489.57 C 779.85 489.55, 800.26 489.47, 820.67 489.46 C 841.07 489.44, 861.48 490.00, 881.89 489.46 C 902.30 488.60, 922.70 485.16, 943.11 484.31 C 963.52 483.46, 983.93 484.33, 1004.33 484.33 C 1024.74 484.34, 1045.15 484.33, 1065.56 484.32 C 1085.96 484.31, 1106.37 490.00, 1126.78 484.30 C 1147.19 425.25, 1177.80 189.05, 1188.00 130.00" fill="none" stroke="#4a90e2" stroke-width="2" stroke-opacity="0.7"/>

  <!-- Bars -->
  <rect x="931.1" y="230.8" width="24" height="128.6"
        fill="url(#gDelBar)" rx="2" opacity="0.78"/><rect x="931.1" y="359.4" width="24" height="130.6"
        fill="url(#gAddBar)" rx="2" opacity="0.82"/><rect x="1176.0" y="350.3" width="24" height="2.6"
        fill="url(#gDelBar)" rx="2" opacity="0.78"/><rect x="1176.0" y="352.9" width="24" height="137.1"
        fill="url(#gAddBar)" rx="2" opacity="0.82"/>

  <!-- Commits line — glow + crisp -->
  <path d="M 86.00 483.33 C 96.20 484.44, 126.81 488.89, 147.22 490.00 C 167.63 490.00, 188.04 490.00, 208.44 490.00 C 228.85 490.00, 249.26 490.00, 269.67 490.00 C 290.07 490.00, 310.48 490.00, 330.89 490.00 C 351.30 490.00, 371.70 490.00, 392.11 490.00 C 412.52 490.00, 432.93 490.00, 453.33 490.00 C 473.74 478.89, 494.15 423.33, 514.56 423.33 C 534.96 423.33, 555.37 478.89, 575.78 490.00 C 596.19 490.00, 616.59 490.00, 637.00 490.00 C 657.41 461.11, 677.81 316.67, 698.22 316.67 C 718.63 316.67, 739.04 462.22, 759.44 490.00 C 779.85 490.00, 800.26 483.33, 820.67 483.33 C 841.07 483.33, 861.48 490.00, 881.89 490.00 C 902.30 455.56, 922.70 284.44, 943.11 276.67 C 963.52 268.89, 983.93 411.11, 1004.33 443.33 C 1024.74 475.56, 1045.15 463.33, 1065.56 470.00 C 1085.96 476.67, 1106.37 490.00, 1126.78 483.33 C 1147.19 426.67, 1177.80 188.89, 1188.00 130.00" fill="none" stroke="#ff8c42" stroke-width="9" stroke-opacity="0.06" filter="url(#glowLine)"/>
  <path d="M 86.00 483.33 C 96.20 484.44, 126.81 488.89, 147.22 490.00 C 167.63 490.00, 188.04 490.00, 208.44 490.00 C 228.85 490.00, 249.26 490.00, 269.67 490.00 C 290.07 490.00, 310.48 490.00, 330.89 490.00 C 351.30 490.00, 371.70 490.00, 392.11 490.00 C 412.52 490.00, 432.93 490.00, 453.33 490.00 C 473.74 478.89, 494.15 423.33, 514.56 423.33 C 534.96 423.33, 555.37 478.89, 575.78 490.00 C 596.19 490.00, 616.59 490.00, 637.00 490.00 C 657.41 461.11, 677.81 316.67, 698.22 316.67 C 718.63 316.67, 739.04 462.22, 759.44 490.00 C 779.85 490.00, 800.26 483.33, 820.67 483.33 C 841.07 483.33, 861.48 490.00, 881.89 490.00 C 902.30 455.56, 922.70 284.44, 943.11 276.67 C 963.52 268.89, 983.93 411.11, 1004.33 443.33 C 1024.74 475.56, 1045.15 463.33, 1065.56 470.00 C 1085.96 476.67, 1106.37 490.00, 1126.78 483.33 C 1147.19 426.67, 1177.80 188.89, 1188.00 130.00" fill="none" stroke="url(#gCommits)" stroke-width="2.8" stroke-linecap="round"/>

  <!-- Changes/commit line -->
  <path d="M 86.00 489.92 C 96.20 489.93, 126.81 489.99, 147.22 490.00 C 167.63 490.00, 188.04 490.00, 208.44 490.00 C 228.85 490.00, 249.26 490.00, 269.67 490.00 C 290.07 490.00, 310.48 490.00, 330.89 490.00 C 351.30 490.00, 371.70 490.00, 392.11 490.00 C 412.52 490.00, 432.93 490.00, 453.33 490.00 C 473.74 489.94, 494.15 489.66, 514.56 489.66 C 534.96 489.66, 555.37 489.94, 575.78 490.00 C 596.19 490.00, 616.59 490.00, 637.00 490.00 C 657.41 489.96, 677.81 489.75, 698.22 489.75 C 718.63 489.75, 739.04 490.00, 759.44 490.00 C 779.85 489.73, 800.26 488.15, 820.67 488.15 C 841.07 488.15, 861.48 490.00, 881.89 490.00 C 902.30 430.31, 922.70 130.21, 943.11 130.00 C 963.52 130.00, 983.93 429.47, 1004.33 488.74 C 1024.74 490.00, 1045.15 486.14, 1065.56 485.63 C 1085.96 485.11, 1106.37 490.00, 1126.78 485.63 C 1147.19 467.20, 1177.80 393.50, 1188.00 375.08" fill="none" stroke="#00d4f5" stroke-width="9" stroke-opacity="0.06" filter="url(#glowLine)"/>
  <path d="M 86.00 489.92 C 96.20 489.93, 126.81 489.99, 147.22 490.00 C 167.63 490.00, 188.04 490.00, 208.44 490.00 C 228.85 490.00, 249.26 490.00, 269.67 490.00 C 290.07 490.00, 310.48 490.00, 330.89 490.00 C 351.30 490.00, 371.70 490.00, 392.11 490.00 C 412.52 490.00, 432.93 490.00, 453.33 490.00 C 473.74 489.94, 494.15 489.66, 514.56 489.66 C 534.96 489.66, 555.37 489.94, 575.78 490.00 C 596.19 490.00, 616.59 490.00, 637.00 490.00 C 657.41 489.96, 677.81 489.75, 698.22 489.75 C 718.63 489.75, 739.04 490.00, 759.44 490.00 C 779.85 489.73, 800.26 488.15, 820.67 488.15 C 841.07 488.15, 861.48 490.00, 881.89 490.00 C 902.30 430.31, 922.70 130.21, 943.11 130.00 C 963.52 130.00, 983.93 429.47, 1004.33 488.74 C 1024.74 490.00, 1045.15 486.14, 1065.56 485.63 C 1085.96 485.11, 1106.37 490.00, 1126.78 485.63 C 1147.19 467.20, 1177.80 393.50, 1188.00 375.08" fill="none" stroke="url(#gChanges)" stroke-width="2.5" stroke-linecap="round"/>

  <!-- Moving averages -->
  <path d="M 86.00 488.33 C 96.20 488.39, 126.81 488.57, 147.22 488.67 C 167.63 488.76, 188.04 488.83, 208.44 488.89 C 228.85 488.95, 249.26 490.00, 269.67 489.05 C 290.07 487.65, 310.48 481.90, 330.89 480.48 C 351.30 479.05, 371.70 480.48, 392.11 480.48 C 412.52 480.48, 432.93 484.60, 453.33 480.48 C 473.74 476.35, 494.15 459.84, 514.56 455.71 C 534.96 451.59, 555.37 455.87, 575.78 455.71 C 596.19 455.56, 616.59 454.92, 637.00 454.76 C 657.41 454.60, 677.81 458.25, 698.22 454.76 C 718.63 451.27, 739.04 438.41, 759.44 433.81 C 779.85 429.21, 800.26 428.73, 820.67 427.14 C 841.07 425.56, 861.48 420.79, 881.89 424.29 C 902.30 427.78, 922.70 452.70, 943.11 448.10 C 963.52 443.49, 983.93 407.65, 1004.33 396.67 C 1024.74 385.69, 1045.15 388.22, 1065.56 382.22 C 1085.96 376.22, 1106.37 360.76, 1126.78 360.67 C 1147.19 360.57, 1177.80 378.17, 1188.00 381.67" fill="none" stroke="#a78bfa" stroke-width="2" stroke-dasharray="6,4" stroke-opacity="0.55" filter="url(#glowMA)"/>
  <path d="M 86.00 489.98 C 96.20 489.98, 126.81 489.98, 147.22 489.98 C 167.63 489.98, 188.04 489.99, 208.44 489.99 C 228.85 489.99, 249.26 489.99, 269.67 489.99 C 290.07 489.98, 310.48 489.96, 330.89 489.95 C 351.30 489.95, 371.70 489.95, 392.11 489.95 C 412.52 489.95, 432.93 489.96, 453.33 489.95 C 473.74 489.95, 494.15 489.92, 514.56 489.92 C 534.96 489.91, 555.37 489.96, 575.78 489.92 C 596.19 489.87, 616.59 489.70, 637.00 489.65 C 657.41 489.61, 677.81 490.00, 698.22 489.65 C 718.63 481.09, 739.04 446.86, 759.44 438.27 C 779.85 429.68, 800.26 438.22, 820.67 438.09 C 841.07 437.96, 861.48 437.67, 881.89 437.47 C 902.30 437.26, 922.70 439.71, 943.11 436.88 C 963.52 434.04, 983.93 425.08, 1004.33 420.46 C 1024.74 415.84, 1045.15 413.75, 1065.56 409.18 C 1085.96 404.60, 1106.37 384.75, 1126.78 393.01 C 1147.19 401.28, 1177.80 447.81, 1188.00 458.77" fill="none" stroke="#c4b5fd" stroke-width="1.5" stroke-dasharray="5,4" stroke-opacity="0.4"/>

  <!-- Statistical overlay -->
  <line x1="86" y1="390.0" x2="1188" y2="390.0"
      stroke="#ff8c42" stroke-width="1" stroke-dasharray="8,4" opacity="0.3"/>
    <text x="1200" y="384.0" font-size="8" fill="#ff8c42"
      text-anchor="start" font-family="'Lexend','Segoe UI',sans-serif" font-weight="300" opacity="0.6">μ=15.0</text>
</g>

<!-- ════ DATA POINTS ════ -->
<circle cx="86.0" cy="483.3" r="3.0"
        fill="#ff8c42" stroke="#ffd0a0" stroke-width="1" filter="url(#glowOrange)" opacity="0.9">
        <title>2026-03-10: 1 commits</title></circle><circle cx="514.6" cy="423.3" r="3.5"
        fill="#ff8c42" stroke="#ffd0a0" stroke-width="1" filter="url(#glowOrange)" opacity="0.9">
        <title>2026-03-17: 10 commits</title></circle><circle cx="698.2" cy="316.7" r="4.2"
        fill="#ff8c42" stroke="#ffd0a0" stroke-width="1" filter="url(#glowOrange)" opacity="0.9">
        <title>2026-03-20: 26 commits</title></circle><circle cx="820.7" cy="483.3" r="3.0"
        fill="#ff8c42" stroke="#ffd0a0" stroke-width="1" filter="url(#glowOrange)" opacity="0.9">
        <title>2026-03-22: 1 commits</title></circle><circle cx="943.1" cy="276.7" r="4.5"
        fill="#ff8c42" stroke="#ffd0a0" stroke-width="1" filter="url(#glowOrange)" opacity="0.9">
        <title>2026-03-24: 32 commits</title></circle><circle cx="1004.3" cy="443.3" r="3.3"
        fill="#ff8c42" stroke="#ffd0a0" stroke-width="1" filter="url(#glowOrange)" opacity="0.9">
        <title>2026-03-25: 7 commits</title></circle><circle cx="1065.6" cy="470.0" r="3.1"
        fill="#ff8c42" stroke="#ffd0a0" stroke-width="1" filter="url(#glowOrange)" opacity="0.9">
        <title>2026-03-26: 3 commits</title></circle><circle cx="1126.8" cy="483.3" r="3.0"
        fill="#ff8c42" stroke="#ffd0a0" stroke-width="1" filter="url(#glowOrange)" opacity="0.9">
        <title>2026-03-27: 1 commits</title></circle><circle cx="1188.0" cy="130.0" r="5.5"
        fill="#ff8c42" stroke="#ffd0a0" stroke-width="1" filter="url(#glowOrange)" opacity="0.9">
        <title>2026-03-28: 54 commits</title></circle>
<circle cx="86.0" cy="489.9" r="3.5"
        fill="#00d4f5" stroke="#80eeff" stroke-width="0.8" filter="url(#glowCyan)" opacity="0.85">
        <title>2026-03-10: 1 changes/commit</title></circle><circle cx="514.6" cy="489.7" r="3.5"
        fill="#00d4f5" stroke="#80eeff" stroke-width="0.8" filter="url(#glowCyan)" opacity="0.85">
        <title>2026-03-17: 4 changes/commit</title></circle><circle cx="698.2" cy="489.7" r="3.5"
        fill="#00d4f5" stroke="#80eeff" stroke-width="0.8" filter="url(#glowCyan)" opacity="0.85">
        <title>2026-03-20: 3 changes/commit</title></circle><circle cx="820.7" cy="488.1" r="3.5"
        fill="#00d4f5" stroke="#80eeff" stroke-width="0.8" filter="url(#glowCyan)" opacity="0.85">
        <title>2026-03-22: 22 changes/commit</title></circle><circle cx="943.1" cy="130.0" r="3.5"
        fill="#00d4f5" stroke="#80eeff" stroke-width="0.8" filter="url(#glowCyan)" opacity="0.85">
        <title>2026-03-24: 4279 changes/commit</title></circle><circle cx="1004.3" cy="488.7" r="3.5"
        fill="#00d4f5" stroke="#80eeff" stroke-width="0.8" filter="url(#glowCyan)" opacity="0.85">
        <title>2026-03-25: 15 changes/commit</title></circle><circle cx="1065.6" cy="485.6" r="3.5"
        fill="#00d4f5" stroke="#80eeff" stroke-width="0.8" filter="url(#glowCyan)" opacity="0.85">
        <title>2026-03-26: 52 changes/commit</title></circle><circle cx="1126.8" cy="485.6" r="3.5"
        fill="#00d4f5" stroke="#80eeff" stroke-width="0.8" filter="url(#glowCyan)" opacity="0.85">
        <title>2026-03-27: 52 changes/commit</title></circle><circle cx="1188.0" cy="375.1" r="3.5"
        fill="#00d4f5" stroke="#80eeff" stroke-width="0.8" filter="url(#glowCyan)" opacity="0.85">
        <title>2026-03-28: 1366 changes/commit</title></circle>

<!-- ════ OUTLIER MARKERS ════ -->


<!-- ════ ANNOTATIONS ════ -->

        <line x1="1188.0" y1="118.0"
          x2="1188.0" y2="109.0"
          stroke="#2563eb" stroke-width="1.2" stroke-dasharray="4,4" opacity="0.65"/>
        <rect x="1058.0" y="85.0"
          width="130" height="24" rx="6"
          fill="#030e26" stroke="#2563eb" stroke-width="1" opacity="0.96"/>
        <text x="1123.0" y="101.0"
          font-size="10" fill="#93c5fd" text-anchor="middle"
          font-family="'Lexend','Segoe UI',sans-serif" font-weight="400"
          letter-spacing="0.5">⬡  Peak · 54 commits</text>
        <line x1="943.1" y1="494" x2="1188.0" y2="494"
          stroke="#f472b6" stroke-width="2.5" stroke-linecap="round" opacity="0.7"/>
        <circle cx="943.1" cy="494" r="3" fill="#f472b6" opacity="0.9"/>
        <circle cx="1188.0" cy="494" r="3" fill="#f472b6" opacity="0.9"/>
        <text x="1065.6" y="508" font-size="8.5" fill="#f472b6"
          text-anchor="middle" font-family="'Lexend','Segoe UI',sans-serif"
          font-weight="400" opacity="0.85">🔥 5-day streak</text>
        <line x1="943.1" y1="130" x2="943.1" y2="490"
          stroke="#f472b6" stroke-width="0.8" stroke-dasharray="3,6" opacity="0.35"/>

<!-- ════ CORNER BRACKETS ════ -->
<path d="M 86 152.0 L 86 130 L 108.0 130"
      fill="none" stroke="#4a90e2" stroke-width="2" stroke-opacity="0.85" stroke-linecap="round"/><path d="M 1188 152.0 L 1188 130 L 1166.0 130"
      fill="none" stroke="#4a90e2" stroke-width="2" stroke-opacity="0.85" stroke-linecap="round"/><path d="M 86 468.0 L 86 490 L 108.0 490"
      fill="none" stroke="#4a90e2" stroke-width="2" stroke-opacity="0.85" stroke-linecap="round"/><path d="M 1188 468.0 L 1188 490 L 1166.0 490"
      fill="none" stroke="#4a90e2" stroke-width="2" stroke-opacity="0.85" stroke-linecap="round"/>

<!-- ════ HEATMAP ════ -->
<text x="633" y="646" font-size="11" fill="#3d7ed4"
    text-anchor="middle" font-family="'Lexend','Segoe UI',sans-serif"
    letter-spacing="3" font-weight="400">CONTRIBUTION  CALENDAR</text><text x="613" y="686"
        font-size="9" fill="#3d7ed4" text-anchor="end"
        font-family="'Lexend','Segoe UI',sans-serif" font-weight="300">M</text><text x="613" y="716"
        font-size="9" fill="#3d7ed4" text-anchor="end"
        font-family="'Lexend','Segoe UI',sans-serif" font-weight="300">W</text><text x="613" y="746"
        font-size="9" fill="#3d7ed4" text-anchor="end"
        font-family="'Lexend','Segoe UI',sans-serif" font-weight="300">F</text><rect x="619.0" y="660.0"
        width="12" height="12" rx="2.5" fill="#0a1630"
        stroke="#0d2464" stroke-width="0.5" stroke-opacity="0.4">
        <title>2026-03-08: 0 commits</title></rect><rect x="619.0" y="675.0"
        width="12" height="12" rx="2.5" fill="#0a1630"
        stroke="#0d2464" stroke-width="0.5" stroke-opacity="0.4">
        <title>2026-03-09: 0 commits</title></rect><rect x="619.0" y="690.0"
        width="12" height="12" rx="2.5" fill="#0d3068"
        stroke="#0d2464" stroke-width="0.5" stroke-opacity="0.4">
        <title>2026-03-10: 1 commits</title></rect><rect x="619.0" y="705.0"
        width="12" height="12" rx="2.5" fill="#0a1630"
        stroke="#0d2464" stroke-width="0.5" stroke-opacity="0.4">
        <title>2026-03-11: 0 commits</title></rect><rect x="619.0" y="720.0"
        width="12" height="12" rx="2.5" fill="#0a1630"
        stroke="#0d2464" stroke-width="0.5" stroke-opacity="0.4">
        <title>2026-03-12: 0 commits</title></rect><rect x="619.0" y="735.0"
        width="12" height="12" rx="2.5" fill="#0a1630"
        stroke="#0d2464" stroke-width="0.5" stroke-opacity="0.4">
        <title>2026-03-13: 0 commits</title></rect><rect x="619.0" y="750.0"
        width="12" height="12" rx="2.5" fill="#0a1630"
        stroke="#0d2464" stroke-width="0.5" stroke-opacity="0.4">
        <title>2026-03-14: 0 commits</title></rect><rect x="634.0" y="660.0"
        width="12" height="12" rx="2.5" fill="#0a1630"
        stroke="#0d2464" stroke-width="0.5" stroke-opacity="0.4">
        <title>2026-03-15: 0 commits</title></rect><rect x="634.0" y="675.0"
        width="12" height="12" rx="2.5" fill="#0a1630"
        stroke="#0d2464" stroke-width="0.5" stroke-opacity="0.4">
        <title>2026-03-16: 0 commits</title></rect><rect x="634.0" y="690.0"
        width="12" height="12" rx="2.5" fill="#0d3068"
        stroke="#0d2464" stroke-width="0.5" stroke-opacity="0.4">
        <title>2026-03-17: 10 commits</title></rect><rect x="634.0" y="705.0"
        width="12" height="12" rx="2.5" fill="#0a1630"
        stroke="#0d2464" stroke-width="0.5" stroke-opacity="0.4">
        <title>2026-03-18: 0 commits</title></rect><rect x="634.0" y="720.0"
        width="12" height="12" rx="2.5" fill="#0a1630"
        stroke="#0d2464" stroke-width="0.5" stroke-opacity="0.4">
        <title>2026-03-19: 0 commits</title></rect><rect x="634.0" y="735.0"
        width="12" height="12" rx="2.5" fill="#1e56a8"
        stroke="#0d2464" stroke-width="0.5" stroke-opacity="0.4">
        <title>2026-03-20: 26 commits</title></rect><rect x="634.0" y="750.0"
        width="12" height="12" rx="2.5" fill="#0a1630"
        stroke="#0d2464" stroke-width="0.5" stroke-opacity="0.4">
        <title>2026-03-21: 0 commits</title></rect><rect x="649.0" y="660.0"
        width="12" height="12" rx="2.5" fill="#0d3068"
        stroke="#0d2464" stroke-width="0.5" stroke-opacity="0.4">
        <title>2026-03-22: 1 commits</title></rect><rect x="649.0" y="675.0"
        width="12" height="12" rx="2.5" fill="#0a1630"
        stroke="#0d2464" stroke-width="0.5" stroke-opacity="0.4">
        <title>2026-03-23: 0 commits</title></rect><rect x="649.0" y="690.0"
        width="12" height="12" rx="2.5" fill="#3b82f6"
        stroke="#0d2464" stroke-width="0.5" stroke-opacity="0.4">
        <title>2026-03-24: 32 commits</title></rect><rect x="649.0" y="705.0"
        width="12" height="12" rx="2.5" fill="#0d3068"
        stroke="#0d2464" stroke-width="0.5" stroke-opacity="0.4">
        <title>2026-03-25: 7 commits</title></rect><rect x="649.0" y="720.0"
        width="12" height="12" rx="2.5" fill="#0d3068"
        stroke="#0d2464" stroke-width="0.5" stroke-opacity="0.4">
        <title>2026-03-26: 3 commits</title></rect><rect x="649.0" y="735.0"
        width="12" height="12" rx="2.5" fill="#0d3068"
        stroke="#0d2464" stroke-width="0.5" stroke-opacity="0.4">
        <title>2026-03-27: 1 commits</title></rect><rect x="649.0" y="750.0"
        width="12" height="12" rx="2.5" fill="#93c5fd"
        stroke="#0d2464" stroke-width="0.5" stroke-opacity="0.4">
        <title>2026-03-28: 54 commits</title></rect><rect x="664.0" y="660.0"
        width="12" height="12" rx="2.5" fill="#0a1630"
        stroke="#0d2464" stroke-width="0.5" stroke-opacity="0.4">
        <title>2026-03-29: 0 commits</title></rect><rect x="664.0" y="675.0"
        width="12" height="12" rx="2.5" fill="#0a1630"
        stroke="#0d2464" stroke-width="0.5" stroke-opacity="0.4">
        <title>2026-03-30: 0 commits</title></rect><rect x="664.0" y="690.0"
        width="12" height="12" rx="2.5" fill="#0a1630"
        stroke="#0d2464" stroke-width="0.5" stroke-opacity="0.4">
        <title>2026-03-31: 0 commits</title></rect><rect x="664.0" y="705.0"
        width="12" height="12" rx="2.5" fill="#0a1630"
        stroke="#0d2464" stroke-width="0.5" stroke-opacity="0.4">
        <title>2026-04-01: 0 commits</title></rect><rect x="664.0" y="720.0"
        width="12" height="12" rx="2.5" fill="#0a1630"
        stroke="#0d2464" stroke-width="0.5" stroke-opacity="0.4">
        <title>2026-04-02: 0 commits</title></rect><rect x="664.0" y="735.0"
        width="12" height="12" rx="2.5" fill="#0a1630"
        stroke="#0d2464" stroke-width="0.5" stroke-opacity="0.4">
        <title>2026-04-03: 0 commits</title></rect><rect x="664.0" y="750.0"
        width="12" height="12" rx="2.5" fill="#0a1630"
        stroke="#0d2464" stroke-width="0.5" stroke-opacity="0.4">
        <title>2026-04-04: 0 commits</title></rect><text x="664.0" y="656" font-size="8.5" fill="#3d7ed4"
        font-family="'Lexend','Segoe UI',sans-serif" font-weight="300">Apr</text>

<!-- ════ BOTTOM PANELS ════ -->

    <rect x="86" y="823" width="320" height="110"
      rx="4" fill="#030e26" fill-opacity="0.6" stroke="#1a3f7a" stroke-width="0.8"/>
    <text x="246" y="819" font-size="8" fill="#3d7ed4"
      text-anchor="middle" font-family="'Lexend','Segoe UI',sans-serif"
      letter-spacing="2" font-weight="300">OVERVIEW</text>
    <g clip-path="url(#minimapClip)">
      <path d="M 86.00 931.27 C 88.96 931.56, 97.85 932.71, 103.78 933.00 C 109.70 933.29, 115.63 933.00, 121.56 933.00 C 127.48 933.00, 133.41 933.00, 139.33 933.00 C 145.26 933.00, 151.19 933.00, 157.11 933.00 C 163.04 933.00, 168.96 933.00, 174.89 933.00 C 180.81 933.00, 186.74 935.89, 192.67 933.00 C 198.59 930.11, 204.52 915.69, 210.44 915.69 C 216.37 915.69, 222.30 930.11, 228.22 933.00 C 234.15 935.89, 240.07 940.50, 246.00 933.00 C 251.93 925.50, 257.85 887.98, 263.78 887.98 C 269.70 887.98, 275.63 925.79, 281.56 933.00 C 287.48 940.21, 293.41 931.27, 299.33 931.27 C 305.26 931.27, 311.19 941.95, 317.11 933.00 C 323.04 924.05, 328.96 879.61, 334.89 877.59 C 340.81 875.57, 346.74 912.51, 352.67 920.88 C 358.59 929.25, 364.52 926.07, 370.44 927.81 C 376.37 929.54, 382.30 945.99, 388.22 931.27 C 394.15 916.55, 403.04 854.79, 406.00 839.50 L 406.00 933 L 86.00 933 Z" fill="#4a90e2" fill-opacity="0.15"/>
      <path d="M 86.00 931.27 C 88.96 931.56, 97.85 932.71, 103.78 933.00 C 109.70 933.29, 115.63 933.00, 121.56 933.00 C 127.48 933.00, 133.41 933.00, 139.33 933.00 C 145.26 933.00, 151.19 933.00, 157.11 933.00 C 163.04 933.00, 168.96 933.00, 174.89 933.00 C 180.81 933.00, 186.74 935.89, 192.67 933.00 C 198.59 930.11, 204.52 915.69, 210.44 915.69 C 216.37 915.69, 222.30 930.11, 228.22 933.00 C 234.15 935.89, 240.07 940.50, 246.00 933.00 C 251.93 925.50, 257.85 887.98, 263.78 887.98 C 269.70 887.98, 275.63 925.79, 281.56 933.00 C 287.48 940.21, 293.41 931.27, 299.33 931.27 C 305.26 931.27, 311.19 941.95, 317.11 933.00 C 323.04 924.05, 328.96 879.61, 334.89 877.59 C 340.81 875.57, 346.74 912.51, 352.67 920.88 C 358.59 929.25, 364.52 926.07, 370.44 927.81 C 376.37 929.54, 382.30 945.99, 388.22 931.27 C 394.15 916.55, 403.04 854.79, 406.00 839.50" fill="none" stroke="#4a90e2" stroke-width="1.5" stroke-opacity="0.7"/>
    </g>
    <clipPath id="minimapClip">
      <rect x="86" y="823" width="320" height="110" rx="4"/>
    </clipPath><path d="M 1048.00 854.90
      L 1048.00 836.00
      A 42 42 0 1 1 1038.31 837.13
      L 1042.67 855.52
      A 23.1 23.1 0 1 0 1048.00 854.90 Z"
      fill="#4a90e2" fill-opacity="0.8" stroke="#030e26" stroke-width="1.5">
      <title>Kieran Lucas: 130 commits (96%)</title></path><path d="M 1042.67 855.52
      L 1038.31 837.13
      A 42 42 0 0 1 1048.00 836.00
      L 1048.00 854.90
      A 23.1 23.1 0 0 0 1042.67 855.52 Z"
      fill="#ff8c42" fill-opacity="0.8" stroke="#030e26" stroke-width="1.5">
      <title>github-actions: 5 commits (4%)</title></path><text x="1048" y="874" font-size="9" fill="#3d7ed4" text-anchor="middle"
    font-family="'Lexend','Segoe UI',sans-serif" letter-spacing="1.5" font-weight="300">AUTHORS</text><text x="1048" y="892" font-size="16" fill="#cce8ff" text-anchor="middle"
    font-family="'Lexend','Segoe UI',sans-serif" font-weight="600">2</text><rect x="1106" y="830" width="8" height="8" rx="2" fill="#4a90e2" opacity="0.85"/><text x="1120" y="838" font-size="9.5" fill="#3d7ed4"
      font-family="'Lexend','Segoe UI',sans-serif" font-weight="300">Kieran Lucas (130)</text><rect x="1106" y="848" width="8" height="8" rx="2" fill="#ff8c42" opacity="0.85"/><text x="1120" y="856" font-size="9.5" fill="#3d7ed4"
      font-family="'Lexend','Segoe UI',sans-serif" font-weight="300">github-actions (5)</text>

<!-- ════ WAVES ════ -->
<path d="M 0 963 Q 79.1 956.0 158.3 963 Q 237.4 956.0 316.5 963 Q 395.6 956.0 474.8 963 Q 553.9 956.0 633.0 963 Q 712.1 956.0 791.3 963 Q 870.4 956.0 949.5 963 Q 1028.6 956.0 1107.8 963 Q 1186.9 956.0 1266.0 963" fill="none" stroke="#1948a0" stroke-width="1.2" stroke-opacity="0.35"/>
<path d="M 0 958 Q 79.1 952.5 158.3 958 Q 237.4 952.5 316.5 958 Q 395.6 952.5 474.8 958 Q 553.9 952.5 633.0 958 Q 712.1 952.5 791.3 958 Q 870.4 952.5 949.5 958 Q 1028.6 952.5 1107.8 958 Q 1186.9 952.5 1266.0 958" fill="none" stroke="#1948a0" stroke-width="1" stroke-opacity="0.29"/>
<path d="M 0 953 Q 79.1 949.0 158.3 953 Q 237.4 949.0 316.5 953 Q 395.6 949.0 474.8 953 Q 553.9 949.0 633.0 953 Q 712.1 949.0 791.3 953 Q 870.4 949.0 949.5 953 Q 1028.6 949.0 1107.8 953 Q 1186.9 949.0 1266.0 953" fill="none" stroke="#1948a0" stroke-width="0.7999999999999999" stroke-opacity="0.22999999999999998"/>
<path d="M 0 948 Q 79.1 945.5 158.3 948 Q 237.4 945.5 316.5 948 Q 395.6 945.5 474.8 948 Q 553.9 945.5 633.0 948 Q 712.1 945.5 791.3 948 Q 870.4 945.5 949.5 948 Q 1028.6 945.5 1107.8 948 Q 1186.9 945.5 1266.0 948" fill="none" stroke="#1948a0" stroke-width="0.5999999999999999" stroke-opacity="0.16999999999999998"/>

</svg>