<svg width="1564" height="969" xmlns="http://www.w3.org/2000/svg" viewBox="0 0 1564 969">
<defs>
  <style>
    @import url('https://fonts.googleapis.com/css2?family=Lexend:wght@300;400;600;700&amp;display=swap');
    circle:hover { opacity: 1 !important; r: 6; }
    rect.bar-segment:hover { opacity: 1 !important; }
  </style>

  <linearGradient id="bg" x1="0%" y1="0%" x2="55%" y2="100%">
    <stop offset="0%"   stop-color="#010c1e"/>
    <stop offset="50%"  stop-color="#010f27"/>
    <stop offset="100%" stop-color="#000a18"/>
  </linearGradient>
  <linearGradient id="areaFill" x1="0%" y1="0%" x2="0%" y2="100%">
    <stop offset="0%"   stop-color="#4a90e2" stop-opacity="0.5"/>
    <stop offset="55%"  stop-color="#1a3f7a" stop-opacity="0.18"/>
    <stop offset="100%" stop-color="#000a18" stop-opacity="0"/>
  </linearGradient>
  <linearGradient id="gCommits" x1="0%" y1="0%" x2="100%" y2="0%">
    <stop offset="0%"   stop-color="#ff8c42"/>
    <stop offset="100%" stop-color="#ffd0a0"/>
  </linearGradient>
  <linearGradient id="gChanges" x1="0%" y1="0%" x2="100%" y2="0%">
    <stop offset="0%"   stop-color="#00d4f5" stop-opacity="0.8"/>
    <stop offset="50%"  stop-color="#00d4f5"/>
    <stop offset="100%" stop-color="#80eeff"/>
  </linearGradient>
  <linearGradient id="gBorder" x1="0%" y1="0%" x2="100%" y2="100%">
    <stop offset="0%"   stop-color="#1840a0" stop-opacity="0.9"/>
    <stop offset="50%"  stop-color="#3b82f6" stop-opacity="0.6"/>
    <stop offset="100%" stop-color="#60a5fa" stop-opacity="0.9"/>
  </linearGradient>
  <linearGradient id="gHeader" x1="0%" y1="0%" x2="100%" y2="0%">
    <stop offset="0%"   stop-color="#010c1e" stop-opacity="0"/>
    <stop offset="20%"  stop-color="#091c3e" stop-opacity="0.92"/>
    <stop offset="80%"  stop-color="#091c3e" stop-opacity="0.92"/>
    <stop offset="100%" stop-color="#010c1e" stop-opacity="0"/>
  </linearGradient>
  <linearGradient id="gAddBar" x1="0%" y1="0%" x2="0%" y2="100%">
    <stop offset="0%"   stop-color="#22c55e" stop-opacity="0.95"/>
    <stop offset="100%" stop-color="#22c55e" stop-opacity="0.65"/>
  </linearGradient>
  <linearGradient id="gDelBar" x1="0%" y1="0%" x2="0%" y2="100%">
    <stop offset="0%"   stop-color="#ef4444" stop-opacity="0.9"/>
    <stop offset="100%" stop-color="#ef4444" stop-opacity="0.6"/>
  </linearGradient>

  <filter id="glowOrange" x="-120%" y="-120%" width="340%" height="340%">
    <feGaussianBlur stdDeviation="4" result="b"/>
    <feMerge><feMergeNode in="b"/><feMergeNode in="SourceGraphic"/></feMerge>
  </filter>
  <filter id="glowCyan" x="-120%" y="-120%" width="340%" height="340%">
    <feGaussianBlur stdDeviation="3.5" result="b"/>
    <feMerge><feMergeNode in="b"/><feMergeNode in="SourceGraphic"/></feMerge>
  </filter>
  <filter id="glowTitle">
    <feGaussianBlur stdDeviation="5" result="b"/>
    <feMerge><feMergeNode in="b"/><feMergeNode in="b"/><feMergeNode in="SourceGraphic"/></feMerge>
  </filter>
  <filter id="glowLine" x="-6%" y="-120%" width="112%" height="340%">
    <feGaussianBlur stdDeviation="4.5" result="b"/>
    <feMerge><feMergeNode in="b"/><feMergeNode in="SourceGraphic"/></feMerge>
  </filter>
  <filter id="glowMA" x="-6%" y="-120%" width="112%" height="340%">
    <feGaussianBlur stdDeviation="3" result="b"/>
    <feMerge><feMergeNode in="b"/><feMergeNode in="SourceGraphic"/></feMerge>
  </filter>

  <pattern id="diamondTile" x="0" y="0" width="30" height="30" patternUnits="userSpaceOnUse">
    <path d="M15 2 L28 15 L15 28 L2 15 Z"
      fill="none" stroke="#0d2464" stroke-width="0.4" stroke-opacity="0.25"/>
  </pattern>

  <clipPath id="chartClip">
    <rect x="86" y="130" width="1400" height="360"/>
  </clipPath>
</defs>

<!-- ════ BACKGROUND ════ -->
<rect width="1564" height="969" fill="url(#bg)" rx="16"/>
<rect width="1564" height="969" fill="url(#diamondTile)" rx="16"/>

<!-- ════ BORDERS ════ -->
<rect width="1564" height="969" fill="none" rx="16" stroke="url(#gBorder)" stroke-width="2.2"/>
<rect x="5" y="5" width="1554" height="959" fill="none" rx="13"
  stroke="#1840a0" stroke-width="0.7" stroke-opacity="0.35"/>

<!-- ════ HEADER ════ -->
<rect x="0" y="0" width="1564" height="122" fill="url(#gHeader)" rx="16"/>
<line x1="24" y1="118.0" x2="1540.0" y2="118.0"
    stroke="url(#gBorder)" stroke-width="0.8" stroke-opacity="0.5"/>

<!-- ════ TITLE ════ -->
<text x="786.0" y="44" font-size="18" font-weight="600" fill="#cce8ff"
  text-anchor="middle" font-family="'Lexend','Segoe UI',sans-serif"
  filter="url(#glowTitle)" letter-spacing="5">⬡  COMMIT  ANALYTICS  ⬡</text>
<text x="786.0" y="62" font-size="9.5" fill="#3d7ed4" text-anchor="middle"
  font-family="'Lexend','Segoe UI',sans-serif" letter-spacing="3.5" font-weight="300">kieran-lucas/oop-course-project-uet</text>

<!-- ════ STATS BADGE ════ -->

    <rect x="1338" y="8" width="142" height="92" rx="10"
      fill="#030e26" fill-opacity="0.94" stroke="#2563eb" stroke-width="1.2"/>
    <text x="1409" y="24" font-size="8" fill="#3d7ed4"
      text-anchor="middle" font-family="'Lexend',sans-serif" letter-spacing="2" font-weight="400">TOTAL  COMMITS</text>
    <text x="1409" y="52" font-size="28" font-weight="700" fill="#cce8ff"
      text-anchor="middle" font-family="'Lexend',sans-serif" filter="url(#glowTitle)">248</text>
    <line x1="1354" y1="60" x2="1464" y2="60"
      stroke="#1a3f7a" stroke-width="0.8" stroke-opacity="0.5"/>
    <text x="1385" y="74" font-size="9" fill="#22c55e"
      text-anchor="middle" font-family="'Lexend',sans-serif" font-weight="400">+153.0k</text>
    <text x="1433" y="74" font-size="9" fill="#ef4444"
      text-anchor="middle" font-family="'Lexend',sans-serif" font-weight="400">-76.2k</text>
    <text x="1409" y="90" font-size="8" fill="#3d7ed4"
      text-anchor="middle" font-family="'Lexend',sans-serif" font-weight="300">15 active days · 870 files</text>

<!-- ════ LEGEND ════ -->
<g><rect x="430.0" y="90.0" width="24" height="12" rx="3"
        fill="#4a90e2" fill-opacity="0.45" stroke="#4a90e2" stroke-width="1.2"/><text x="461.0" y="100.0" font-size="11" fill="#93c5fd"
      font-family="'Lexend','Segoe UI',sans-serif" font-weight="400">Total Lines</text><line x1="566.0" y1="97.0" x2="590.0" y2="97.0"
        stroke="#ff8c42" stroke-width="2.5" stroke-linecap="round"/><circle cx="578.0" cy="97.0" r="3.5"
        fill="#ff8c42" stroke="#fff" stroke-width="0.6" stroke-opacity="0.3"/><text x="597.0" y="100.0" font-size="11" fill="#93c5fd"
      font-family="'Lexend','Segoe UI',sans-serif" font-weight="400">Commits</text><line x1="674.0" y1="97.0" x2="698.0" y2="97.0"
        stroke="#00d4f5" stroke-width="2.5" stroke-linecap="round"/><circle cx="686.0" cy="97.0" r="3.5"
        fill="#00d4f5" stroke="#fff" stroke-width="0.6" stroke-opacity="0.3"/><text x="705.0" y="100.0" font-size="11" fill="#93c5fd"
      font-family="'Lexend','Segoe UI',sans-serif" font-weight="400">Chg/Commit</text><rect x="809.0" y="90.0" width="12" height="12" rx="2"
        fill="#22c55e" opacity="0.85"/><text x="834.0" y="100.0" font-size="11" fill="#93c5fd"
      font-family="'Lexend','Segoe UI',sans-serif" font-weight="400">Additions</text><rect x="931.0" y="90.0" width="12" height="12" rx="2"
        fill="#ef4444" opacity="0.85"/><text x="956.0" y="100.0" font-size="11" fill="#93c5fd"
      font-family="'Lexend','Segoe UI',sans-serif" font-weight="400">Deletions</text><line x1="1047.0" y1="97.0" x2="1071.0" y2="97.0"
        stroke="#a78bfa" stroke-width="2" stroke-dasharray="5,3" stroke-linecap="round"/><text x="1078.0" y="100.0" font-size="11" fill="#93c5fd"
      font-family="'Lexend','Segoe UI',sans-serif" font-weight="400">7-day MA</text></g>

<!-- ════ AXIS LABELS ════ -->
<text x="16" y="310.0" font-size="9.5" fill="#4a90e2"
    text-anchor="middle" font-family="'Lexend','Segoe UI',sans-serif" letter-spacing="3" font-weight="300"
    transform="rotate(-90, 16, 310.0)">LINES</text>
<text x="1550.0" y="310.0" font-size="9.5"
    fill="#ff8c42" text-anchor="middle" font-family="'Lexend','Segoe UI',sans-serif"
    letter-spacing="3" font-weight="300" opacity="0.8"
    transform="rotate(90, 1550.0, 310.0)">COMMITS</text>

<!-- ════ GRID + Y-LABELS ════ -->
<line x1="86" y1="490.0" x2="1486" y2="490.0"
      stroke="#1a3f7a" stroke-width="1.4"
      stroke-opacity="0.9" stroke-dasharray="none"/><line x1="86" y1="418.0" x2="1486" y2="418.0"
      stroke="#1a3f7a" stroke-width="0.5"
      stroke-opacity="0.3" stroke-dasharray="6,6"/><line x1="86" y1="346.0" x2="1486" y2="346.0"
      stroke="#1a3f7a" stroke-width="0.5"
      stroke-opacity="0.3" stroke-dasharray="6,6"/><line x1="86" y1="274.0" x2="1486" y2="274.0"
      stroke="#1a3f7a" stroke-width="0.5"
      stroke-opacity="0.3" stroke-dasharray="6,6"/><line x1="86" y1="202.0" x2="1486" y2="202.0"
      stroke="#1a3f7a" stroke-width="0.5"
      stroke-opacity="0.3" stroke-dasharray="6,6"/><line x1="86" y1="130.0" x2="1486" y2="130.0"
      stroke="#1a3f7a" stroke-width="0.5"
      stroke-opacity="0.3" stroke-dasharray="6,6"/>
<text x="74" y="494.0" font-size="11" fill="#5aa8ff"
      text-anchor="end" font-family="'Lexend','Segoe UI',sans-serif" font-weight="300">0</text><text x="74" y="422.0" font-size="11" fill="#5aa8ff"
      text-anchor="end" font-family="'Lexend','Segoe UI',sans-serif" font-weight="300">20.0k</text><text x="74" y="350.0" font-size="11" fill="#5aa8ff"
      text-anchor="end" font-family="'Lexend','Segoe UI',sans-serif" font-weight="300">40.0k</text><text x="74" y="278.0" font-size="11" fill="#5aa8ff"
      text-anchor="end" font-family="'Lexend','Segoe UI',sans-serif" font-weight="300">60.0k</text><text x="74" y="206.0" font-size="11" fill="#5aa8ff"
      text-anchor="end" font-family="'Lexend','Segoe UI',sans-serif" font-weight="300">80.0k</text><text x="74" y="134.0" font-size="11" fill="#5aa8ff"
      text-anchor="end" font-family="'Lexend','Segoe UI',sans-serif" font-weight="300">100.0k</text>
<text x="1498" y="494.0" font-size="11" fill="#ff8c42"
      text-anchor="start" font-family="'Lexend','Segoe UI',sans-serif" font-weight="300" opacity="0.85">0</text><text x="1498" y="404.0" font-size="11" fill="#ff8c42"
      text-anchor="start" font-family="'Lexend','Segoe UI',sans-serif" font-weight="300" opacity="0.85">20</text><text x="1498" y="314.0" font-size="11" fill="#ff8c42"
      text-anchor="start" font-family="'Lexend','Segoe UI',sans-serif" font-weight="300" opacity="0.85">40</text><text x="1498" y="224.0" font-size="11" fill="#ff8c42"
      text-anchor="start" font-family="'Lexend','Segoe UI',sans-serif" font-weight="300" opacity="0.85">60</text><text x="1498" y="134.0" font-size="11" fill="#ff8c42"
      text-anchor="start" font-family="'Lexend','Segoe UI',sans-serif" font-weight="300" opacity="0.85">80</text>

<!-- ════ AXIS LINES ════ -->
<line x1="86" y1="130" x2="86" y2="490"
  stroke="#1a3f7a" stroke-width="1.2" stroke-opacity="0.65"/>
<line x1="86" y1="490" x2="1486" y2="490"
  stroke="#1a3f7a" stroke-width="1.4" stroke-opacity="0.8"/>
<line x1="1486" y1="130" x2="1486" y2="490"
  stroke="#ff8c42" stroke-width="0.9" stroke-opacity="0.28"/>

<!-- ════ X-AXIS ════ -->
<text x="86.0" y="514" font-size="10" fill="#5aa8ff"
      text-anchor="end" font-family="'Lexend','Segoe UI',sans-serif" font-weight="300"
      transform="rotate(-42, 86.0, 514)">10 Mar</text><text x="202.7" y="514" font-size="10" fill="#5aa8ff"
      text-anchor="end" font-family="'Lexend','Segoe UI',sans-serif" font-weight="300"
      transform="rotate(-42, 202.7, 514)">12 Mar</text><text x="319.3" y="514" font-size="10" fill="#5aa8ff"
      text-anchor="end" font-family="'Lexend','Segoe UI',sans-serif" font-weight="300"
      transform="rotate(-42, 319.3, 514)">14 Mar</text><text x="436.0" y="514" font-size="10" fill="#5aa8ff"
      text-anchor="end" font-family="'Lexend','Segoe UI',sans-serif" font-weight="300"
      transform="rotate(-42, 436.0, 514)">16 Mar</text><text x="552.7" y="514" font-size="10" fill="#5aa8ff"
      text-anchor="end" font-family="'Lexend','Segoe UI',sans-serif" font-weight="300"
      transform="rotate(-42, 552.7, 514)">18 Mar</text><text x="669.3" y="514" font-size="10" fill="#5aa8ff"
      text-anchor="end" font-family="'Lexend','Segoe UI',sans-serif" font-weight="300"
      transform="rotate(-42, 669.3, 514)">20 Mar</text><text x="786.0" y="514" font-size="10" fill="#5aa8ff"
      text-anchor="end" font-family="'Lexend','Segoe UI',sans-serif" font-weight="300"
      transform="rotate(-42, 786.0, 514)">22 Mar</text><text x="902.7" y="514" font-size="10" fill="#5aa8ff"
      text-anchor="end" font-family="'Lexend','Segoe UI',sans-serif" font-weight="300"
      transform="rotate(-42, 902.7, 514)">24 Mar</text><text x="1019.3" y="514" font-size="10" fill="#5aa8ff"
      text-anchor="end" font-family="'Lexend','Segoe UI',sans-serif" font-weight="300"
      transform="rotate(-42, 1019.3, 514)">26 Mar</text><text x="1136.0" y="514" font-size="10" fill="#5aa8ff"
      text-anchor="end" font-family="'Lexend','Segoe UI',sans-serif" font-weight="300"
      transform="rotate(-42, 1136.0, 514)">28 Mar</text><text x="1252.7" y="514" font-size="10" fill="#5aa8ff"
      text-anchor="end" font-family="'Lexend','Segoe UI',sans-serif" font-weight="300"
      transform="rotate(-42, 1252.7, 514)">30 Mar</text><text x="1369.3" y="514" font-size="10" fill="#5aa8ff"
      text-anchor="end" font-family="'Lexend','Segoe UI',sans-serif" font-weight="300"
      transform="rotate(-42, 1369.3, 514)">1 Apr</text><text x="1486.0" y="514" font-size="10" fill="#5aa8ff"
      text-anchor="end" font-family="'Lexend','Segoe UI',sans-serif" font-weight="300"
      transform="rotate(-42, 1486.0, 514)">3 Apr</text>

<!-- ════ CHART CONTENT ════ -->
<g clip-path="url(#chartClip)">
  <!-- Total lines: area + stroke -->
  <path d="M 86.00 490.00 C 95.72 490.00, 124.89 490.00, 144.33 490.00 C 163.78 490.00, 183.22 490.00, 202.67 490.00 C 222.11 490.00, 241.56 490.00, 261.00 490.00 C 280.44 490.00, 299.89 490.00, 319.33 490.00 C 338.78 490.00, 358.22 490.00, 377.67 490.00 C 397.11 490.00, 416.56 490.00, 436.00 490.00 C 455.44 489.98, 474.89 489.92, 494.33 489.91 C 513.78 489.89, 533.22 489.91, 552.67 489.91 C 572.11 489.91, 591.56 489.94, 611.00 489.91 C 630.44 489.87, 649.89 489.72, 669.33 489.69 C 688.78 489.65, 708.22 489.70, 727.67 489.69 C 747.11 489.67, 766.56 489.62, 786.00 489.61 C 805.44 489.59, 824.89 490.00, 844.33 489.61 C 863.78 488.99, 883.22 486.51, 902.67 485.89 C 922.11 485.28, 941.56 485.91, 961.00 485.91 C 980.44 485.91, 999.89 485.90, 1019.33 485.90 C 1038.78 485.90, 1058.22 490.00, 1077.67 485.89 C 1097.11 443.28, 1116.56 274.96, 1136.00 230.27 C 1155.44 185.59, 1174.89 219.88, 1194.33 217.78 C 1213.78 215.68, 1233.22 218.05, 1252.67 217.69 C 1272.11 217.33, 1291.56 216.22, 1311.00 215.61 C 1330.44 215.00, 1349.89 214.42, 1369.33 214.05 C 1388.78 213.67, 1408.22 213.50, 1427.67 213.37 C 1447.11 213.24, 1476.28 213.29, 1486.00 213.28 L 1486.00 490 L 86.00 490 Z" fill="url(#areaFill)"/>
  <path d="M 86.00 490.00 C 95.72 490.00, 124.89 490.00, 144.33 490.00 C 163.78 490.00, 183.22 490.00, 202.67 490.00 C 222.11 490.00, 241.56 490.00, 261.00 490.00 C 280.44 490.00, 299.89 490.00, 319.33 490.00 C 338.78 490.00, 358.22 490.00, 377.67 490.00 C 397.11 490.00, 416.56 490.00, 436.00 490.00 C 455.44 489.98, 474.89 489.92, 494.33 489.91 C 513.78 489.89, 533.22 489.91, 552.67 489.91 C 572.11 489.91, 591.56 489.94, 611.00 489.91 C 630.44 489.87, 649.89 489.72, 669.33 489.69 C 688.78 489.65, 708.22 489.70, 727.67 489.69 C 747.11 489.67, 766.56 489.62, 786.00 489.61 C 805.44 489.59, 824.89 490.00, 844.33 489.61 C 863.78 488.99, 883.22 486.51, 902.67 485.89 C 922.11 485.28, 941.56 485.91, 961.00 485.91 C 980.44 485.91, 999.89 485.90, 1019.33 485.90 C 1038.78 485.90, 1058.22 490.00, 1077.67 485.89 C 1097.11 443.28, 1116.56 274.96, 1136.00 230.27 C 1155.44 185.59, 1174.89 219.88, 1194.33 217.78 C 1213.78 215.68, 1233.22 218.05, 1252.67 217.69 C 1272.11 217.33, 1291.56 216.22, 1311.00 215.61 C 1330.44 215.00, 1349.89 214.42, 1369.33 214.05 C 1388.78 213.67, 1408.22 213.50, 1427.67 213.37 C 1447.11 213.24, 1476.28 213.29, 1486.00 213.28" fill="none" stroke="#4a90e2" stroke-width="2" stroke-opacity="0.7"/>

  <!-- Bars -->
  <rect x="890.7" y="312.5" width="24" height="88.1"
        fill="url(#gDelBar)" rx="2" opacity="0.78"/><rect x="890.7" y="400.6" width="24" height="89.4"
        fill="url(#gAddBar)" rx="2" opacity="0.82"/><rect x="1124.0" y="392.5" width="24" height="2.7"
        fill="url(#gDelBar)" rx="2" opacity="0.78"/><rect x="1124.0" y="395.2" width="24" height="94.8"
        fill="url(#gAddBar)" rx="2" opacity="0.82"/><rect x="1182.3" y="476.3" width="24" height="4.6"
        fill="url(#gDelBar)" rx="2" opacity="0.78"/><rect x="1182.3" y="480.9" width="24" height="9.1"
        fill="url(#gAddBar)" rx="2" opacity="0.82"/><rect x="1299.0" y="487.5" width="24" height="0.9"
        fill="url(#gDelBar)" rx="2" opacity="0.78"/><rect x="1299.0" y="488.4" width="24" height="1.6"
        fill="url(#gAddBar)" rx="2" opacity="0.82"/><rect x="1357.3" y="487.5" width="24" height="1.0"
        fill="url(#gDelBar)" rx="2" opacity="0.78"/><rect x="1357.3" y="488.5" width="24" height="1.5"
        fill="url(#gAddBar)" rx="2" opacity="0.82"/><rect x="1474.0" y="488.1" width="24" height="0.9"
        fill="url(#gDelBar)" rx="2" opacity="0.78"/><rect x="1474.0" y="489.0" width="24" height="1.0"
        fill="url(#gAddBar)" rx="2" opacity="0.82"/>

  <!-- Commits line — glow + crisp -->
  <path d="M 86.00 485.50 C 95.72 486.25, 124.89 489.25, 144.33 490.00 C 163.78 490.00, 183.22 490.00, 202.67 490.00 C 222.11 490.00, 241.56 490.00, 261.00 490.00 C 280.44 490.00, 299.89 490.00, 319.33 490.00 C 338.78 490.00, 358.22 490.00, 377.67 490.00 C 397.11 490.00, 416.56 490.00, 436.00 490.00 C 455.44 482.50, 474.89 445.00, 494.33 445.00 C 513.78 445.00, 533.22 482.50, 552.67 490.00 C 572.11 490.00, 591.56 490.00, 611.00 490.00 C 630.44 470.50, 649.89 373.00, 669.33 373.00 C 688.78 373.00, 708.22 471.25, 727.67 490.00 C 747.11 490.00, 766.56 485.50, 786.00 485.50 C 805.44 485.50, 824.89 490.00, 844.33 490.00 C 863.78 466.75, 883.22 351.25, 902.67 346.00 C 922.11 340.75, 941.56 436.75, 961.00 458.50 C 980.44 480.25, 999.89 472.00, 1019.33 476.50 C 1038.78 481.00, 1058.22 490.00, 1077.67 485.50 C 1097.11 438.25, 1116.56 225.25, 1136.00 193.00 C 1155.44 160.75, 1174.89 244.00, 1194.33 292.00 C 1213.78 340.00, 1233.22 460.00, 1252.67 481.00 C 1272.11 490.00, 1291.56 427.00, 1311.00 418.00 C 1330.44 409.00, 1349.89 416.50, 1369.33 427.00 C 1388.78 437.50, 1408.22 487.75, 1427.67 481.00 C 1447.11 474.25, 1476.28 402.25, 1486.00 386.50" fill="none" stroke="#ff8c42" stroke-width="9" stroke-opacity="0.06" filter="url(#glowLine)"/>
  <path d="M 86.00 485.50 C 95.72 486.25, 124.89 489.25, 144.33 490.00 C 163.78 490.00, 183.22 490.00, 202.67 490.00 C 222.11 490.00, 241.56 490.00, 261.00 490.00 C 280.44 490.00, 299.89 490.00, 319.33 490.00 C 338.78 490.00, 358.22 490.00, 377.67 490.00 C 397.11 490.00, 416.56 490.00, 436.00 490.00 C 455.44 482.50, 474.89 445.00, 494.33 445.00 C 513.78 445.00, 533.22 482.50, 552.67 490.00 C 572.11 490.00, 591.56 490.00, 611.00 490.00 C 630.44 470.50, 649.89 373.00, 669.33 373.00 C 688.78 373.00, 708.22 471.25, 727.67 490.00 C 747.11 490.00, 766.56 485.50, 786.00 485.50 C 805.44 485.50, 824.89 490.00, 844.33 490.00 C 863.78 466.75, 883.22 351.25, 902.67 346.00 C 922.11 340.75, 941.56 436.75, 961.00 458.50 C 980.44 480.25, 999.89 472.00, 1019.33 476.50 C 1038.78 481.00, 1058.22 490.00, 1077.67 485.50 C 1097.11 438.25, 1116.56 225.25, 1136.00 193.00 C 1155.44 160.75, 1174.89 244.00, 1194.33 292.00 C 1213.78 340.00, 1233.22 460.00, 1252.67 481.00 C 1272.11 490.00, 1291.56 427.00, 1311.00 418.00 C 1330.44 409.00, 1349.89 416.50, 1369.33 427.00 C 1388.78 437.50, 1408.22 487.75, 1427.67 481.00 C 1447.11 474.25, 1476.28 402.25, 1486.00 386.50" fill="none" stroke="url(#gCommits)" stroke-width="2.8" stroke-linecap="round"/>

  <!-- Changes/commit line -->
  <path d="M 86.00 489.93 C 95.72 489.94, 124.89 489.99, 144.33 490.00 C 163.78 490.00, 183.22 490.00, 202.67 490.00 C 222.11 490.00, 241.56 490.00, 261.00 490.00 C 280.44 490.00, 299.89 490.00, 319.33 490.00 C 338.78 490.00, 358.22 490.00, 377.67 490.00 C 397.11 490.00, 416.56 490.00, 436.00 490.00 C 455.44 489.95, 474.89 489.71, 494.33 489.71 C 513.78 489.71, 533.22 489.95, 552.67 490.00 C 572.11 490.00, 591.56 490.00, 611.00 490.00 C 630.44 489.96, 649.89 489.78, 669.33 489.78 C 688.78 489.78, 708.22 490.00, 727.67 490.00 C 747.11 489.77, 766.56 488.42, 786.00 488.42 C 805.44 488.42, 824.89 490.00, 844.33 490.00 C 863.78 438.92, 883.22 182.09, 902.67 181.91 C 922.11 181.73, 941.56 438.20, 961.00 488.92 C 980.44 490.00, 999.89 486.70, 1019.33 486.26 C 1038.78 485.81, 1058.22 490.00, 1077.67 486.26 C 1097.11 473.20, 1116.56 410.19, 1136.00 407.92 C 1155.44 405.65, 1174.89 461.38, 1194.33 472.65 C 1213.78 483.92, 1233.22 474.09, 1252.67 475.53 C 1272.11 476.97, 1291.56 480.53, 1311.00 481.29 C 1330.44 482.04, 1349.89 480.17, 1369.33 480.06 C 1388.78 479.96, 1408.22 479.74, 1427.67 480.64 C 1447.11 481.54, 1476.28 484.66, 1486.00 485.46" fill="none" stroke="#00d4f5" stroke-width="9" stroke-opacity="0.06" filter="url(#glowLine)"/>
  <path d="M 86.00 489.93 C 95.72 489.94, 124.89 489.99, 144.33 490.00 C 163.78 490.00, 183.22 490.00, 202.67 490.00 C 222.11 490.00, 241.56 490.00, 261.00 490.00 C 280.44 490.00, 299.89 490.00, 319.33 490.00 C 338.78 490.00, 358.22 490.00, 377.67 490.00 C 397.11 490.00, 416.56 490.00, 436.00 490.00 C 455.44 489.95, 474.89 489.71, 494.33 489.71 C 513.78 489.71, 533.22 489.95, 552.67 490.00 C 572.11 490.00, 591.56 490.00, 611.00 490.00 C 630.44 489.96, 649.89 489.78, 669.33 489.78 C 688.78 489.78, 708.22 490.00, 727.67 490.00 C 747.11 489.77, 766.56 488.42, 786.00 488.42 C 805.44 488.42, 824.89 490.00, 844.33 490.00 C 863.78 438.92, 883.22 182.09, 902.67 181.91 C 922.11 181.73, 941.56 438.20, 961.00 488.92 C 980.44 490.00, 999.89 486.70, 1019.33 486.26 C 1038.78 485.81, 1058.22 490.00, 1077.67 486.26 C 1097.11 473.20, 1116.56 410.19, 1136.00 407.92 C 1155.44 405.65, 1174.89 461.38, 1194.33 472.65 C 1213.78 483.92, 1233.22 474.09, 1252.67 475.53 C 1272.11 476.97, 1291.56 480.53, 1311.00 481.29 C 1330.44 482.04, 1349.89 480.17, 1369.33 480.06 C 1388.78 479.96, 1408.22 479.74, 1427.67 480.64 C 1447.11 481.54, 1476.28 484.66, 1486.00 485.46" fill="none" stroke="url(#gChanges)" stroke-width="2.5" stroke-linecap="round"/>

  <!-- Moving averages -->
  <path d="M 86.00 488.88 C 95.72 488.91, 124.89 489.04, 144.33 489.10 C 163.78 489.16, 183.22 489.21, 202.67 489.25 C 222.11 489.29, 241.56 490.00, 261.00 489.36 C 280.44 488.41, 299.89 484.54, 319.33 483.57 C 338.78 482.61, 358.22 483.57, 377.67 483.57 C 397.11 483.57, 416.56 486.36, 436.00 483.57 C 455.44 480.79, 474.89 469.64, 494.33 466.86 C 513.78 464.07, 533.22 466.96, 552.67 466.86 C 572.11 466.75, 591.56 466.32, 611.00 466.21 C 630.44 466.11, 649.89 468.57, 669.33 466.21 C 688.78 463.86, 708.22 455.18, 727.67 452.07 C 747.11 448.96, 766.56 448.64, 786.00 447.57 C 805.44 446.50, 824.89 443.29, 844.33 445.64 C 863.78 448.00, 883.22 466.11, 902.67 461.71 C 922.11 457.32, 941.56 430.96, 961.00 419.29 C 980.44 407.61, 999.89 396.46, 1019.33 391.64 C 1038.78 386.82, 1058.22 388.86, 1077.67 390.36 C 1097.11 391.86, 1116.56 399.68, 1136.00 400.64 C 1155.44 401.61, 1174.89 396.79, 1194.33 396.14 C 1213.78 395.50, 1233.22 399.04, 1252.67 396.79 C 1272.11 394.54, 1291.56 379.73, 1311.00 382.64 C 1330.44 385.55, 1349.89 404.91, 1369.33 414.25 C 1388.78 423.59, 1408.22 436.39, 1427.67 438.70 C 1447.11 441.01, 1476.28 429.89, 1486.00 428.13" fill="none" stroke="#a78bfa" stroke-width="2" stroke-dasharray="6,4" stroke-opacity="0.55" filter="url(#glowMA)"/>
  <path d="M 86.00 489.98 C 95.72 489.98, 124.89 489.98, 144.33 489.99 C 163.78 489.99, 183.22 489.99, 202.67 489.99 C 222.11 489.99, 241.56 489.99, 261.00 489.99 C 280.44 489.98, 299.89 489.96, 319.33 489.96 C 338.78 489.95, 358.22 489.96, 377.67 489.96 C 397.11 489.96, 416.56 489.96, 436.00 489.96 C 455.44 489.95, 474.89 489.93, 494.33 489.93 C 513.78 489.92, 533.22 489.97, 552.67 489.93 C 572.11 489.89, 591.56 489.74, 611.00 489.70 C 630.44 489.66, 649.89 490.00, 669.33 489.70 C 688.78 482.37, 708.22 453.08, 727.67 445.73 C 747.11 438.38, 766.56 445.69, 786.00 445.58 C 805.44 445.46, 824.89 445.21, 844.33 445.04 C 863.78 444.87, 883.22 446.58, 902.67 444.54 C 922.11 442.50, 941.56 435.14, 961.00 432.81 C 980.44 430.48, 999.89 431.28, 1019.33 430.56 C 1038.78 429.84, 1058.22 421.71, 1077.67 428.49 C 1097.11 435.27, 1116.56 464.34, 1136.00 471.26 C 1155.44 478.18, 1174.89 470.34, 1194.33 469.99 C 1213.78 469.65, 1233.22 469.34, 1252.67 469.19 C 1272.11 469.04, 1291.56 467.40, 1311.00 469.08 C 1330.44 470.76, 1349.89 477.35, 1369.33 479.27 C 1388.78 481.19, 1408.22 480.16, 1427.67 480.60 C 1447.11 481.03, 1476.28 481.65, 1486.00 481.86" fill="none" stroke="#c4b5fd" stroke-width="1.5" stroke-dasharray="5,4" stroke-opacity="0.4"/>

  <!-- Statistical overlay -->
  <line x1="86" y1="415.6" x2="1486" y2="415.6"
      stroke="#ff8c42" stroke-width="1" stroke-dasharray="8,4" opacity="0.3"/>
    <text x="1498" y="409.6" font-size="8" fill="#ff8c42"
      text-anchor="start" font-family="'Lexend','Segoe UI',sans-serif" font-weight="300" opacity="0.6">μ=16.5</text>

  <!-- Data point circles (inside clip for safety) -->
  <circle cx="86.0" cy="485.5" r="3.0"
        fill="#ff8c42" stroke="#ffd0a0" stroke-width="1" filter="url(#glowOrange)" opacity="0.9">
        <title>2026-03-10: 1 commits</title></circle><circle cx="494.3" cy="445.0" r="3.3"
        fill="#ff8c42" stroke="#ffd0a0" stroke-width="1" filter="url(#glowOrange)" opacity="0.9">
        <title>2026-03-17: 10 commits</title></circle><circle cx="669.3" cy="373.0" r="3.8"
        fill="#ff8c42" stroke="#ffd0a0" stroke-width="1" filter="url(#glowOrange)" opacity="0.9">
        <title>2026-03-20: 26 commits</title></circle><circle cx="786.0" cy="485.5" r="3.0"
        fill="#ff8c42" stroke="#ffd0a0" stroke-width="1" filter="url(#glowOrange)" opacity="0.9">
        <title>2026-03-22: 1 commits</title></circle><circle cx="902.7" cy="346.0" r="4.0"
        fill="#ff8c42" stroke="#ffd0a0" stroke-width="1" filter="url(#glowOrange)" opacity="0.9">
        <title>2026-03-24: 32 commits</title></circle><circle cx="961.0" cy="458.5" r="3.2"
        fill="#ff8c42" stroke="#ffd0a0" stroke-width="1" filter="url(#glowOrange)" opacity="0.9">
        <title>2026-03-25: 7 commits</title></circle><circle cx="1019.3" cy="476.5" r="3.1"
        fill="#ff8c42" stroke="#ffd0a0" stroke-width="1" filter="url(#glowOrange)" opacity="0.9">
        <title>2026-03-26: 3 commits</title></circle><circle cx="1077.7" cy="485.5" r="3.0"
        fill="#ff8c42" stroke="#ffd0a0" stroke-width="1" filter="url(#glowOrange)" opacity="0.9">
        <title>2026-03-27: 1 commits</title></circle><circle cx="1136.0" cy="193.0" r="5.1"
        fill="#ff8c42" stroke="#ffd0a0" stroke-width="1" filter="url(#glowOrange)" opacity="0.9">
        <title>2026-03-28: 66 commits</title></circle><circle cx="1194.3" cy="292.0" r="4.4"
        fill="#ff8c42" stroke="#ffd0a0" stroke-width="1" filter="url(#glowOrange)" opacity="0.9">
        <title>2026-03-29: 44 commits</title></circle><circle cx="1252.7" cy="481.0" r="3.1"
        fill="#ff8c42" stroke="#ffd0a0" stroke-width="1" filter="url(#glowOrange)" opacity="0.9">
        <title>2026-03-30: 2 commits</title></circle><circle cx="1311.0" cy="418.0" r="3.5"
        fill="#ff8c42" stroke="#ffd0a0" stroke-width="1" filter="url(#glowOrange)" opacity="0.9">
        <title>2026-03-31: 16 commits</title></circle><circle cx="1369.3" cy="427.0" r="3.4"
        fill="#ff8c42" stroke="#ffd0a0" stroke-width="1" filter="url(#glowOrange)" opacity="0.9">
        <title>2026-04-01: 14 commits</title></circle><circle cx="1427.7" cy="481.0" r="3.1"
        fill="#ff8c42" stroke="#ffd0a0" stroke-width="1" filter="url(#glowOrange)" opacity="0.9">
        <title>2026-04-02: 2 commits</title></circle><circle cx="1486.0" cy="386.5" r="3.7"
        fill="#ff8c42" stroke="#ffd0a0" stroke-width="1" filter="url(#glowOrange)" opacity="0.9">
        <title>2026-04-03: 23 commits</title></circle>
  <circle cx="86.0" cy="489.9" r="3.5"
        fill="#00d4f5" stroke="#80eeff" stroke-width="0.8" filter="url(#glowCyan)" opacity="0.85">
        <title>2026-03-10: 1 changes/commit</title></circle><circle cx="494.3" cy="489.7" r="3.5"
        fill="#00d4f5" stroke="#80eeff" stroke-width="0.8" filter="url(#glowCyan)" opacity="0.85">
        <title>2026-03-17: 4 changes/commit</title></circle><circle cx="669.3" cy="489.8" r="3.5"
        fill="#00d4f5" stroke="#80eeff" stroke-width="0.8" filter="url(#glowCyan)" opacity="0.85">
        <title>2026-03-20: 3 changes/commit</title></circle><circle cx="786.0" cy="488.4" r="3.5"
        fill="#00d4f5" stroke="#80eeff" stroke-width="0.8" filter="url(#glowCyan)" opacity="0.85">
        <title>2026-03-22: 22 changes/commit</title></circle><circle cx="902.7" cy="181.9" r="3.5"
        fill="#00d4f5" stroke="#80eeff" stroke-width="0.8" filter="url(#glowCyan)" opacity="0.85">
        <title>2026-03-24: 4279 changes/commit</title></circle><circle cx="961.0" cy="488.9" r="3.5"
        fill="#00d4f5" stroke="#80eeff" stroke-width="0.8" filter="url(#glowCyan)" opacity="0.85">
        <title>2026-03-25: 15 changes/commit</title></circle><circle cx="1019.3" cy="486.3" r="3.5"
        fill="#00d4f5" stroke="#80eeff" stroke-width="0.8" filter="url(#glowCyan)" opacity="0.85">
        <title>2026-03-26: 52 changes/commit</title></circle><circle cx="1077.7" cy="486.3" r="3.5"
        fill="#00d4f5" stroke="#80eeff" stroke-width="0.8" filter="url(#glowCyan)" opacity="0.85">
        <title>2026-03-27: 52 changes/commit</title></circle><circle cx="1136.0" cy="407.9" r="3.5"
        fill="#00d4f5" stroke="#80eeff" stroke-width="0.8" filter="url(#glowCyan)" opacity="0.85">
        <title>2026-03-28: 1140 changes/commit</title></circle><circle cx="1194.3" cy="472.6" r="3.5"
        fill="#00d4f5" stroke="#80eeff" stroke-width="0.8" filter="url(#glowCyan)" opacity="0.85">
        <title>2026-03-29: 241 changes/commit</title></circle><circle cx="1252.7" cy="475.5" r="3.5"
        fill="#00d4f5" stroke="#80eeff" stroke-width="0.8" filter="url(#glowCyan)" opacity="0.85">
        <title>2026-03-30: 201 changes/commit</title></circle><circle cx="1311.0" cy="481.3" r="3.5"
        fill="#00d4f5" stroke="#80eeff" stroke-width="0.8" filter="url(#glowCyan)" opacity="0.85">
        <title>2026-03-31: 121 changes/commit</title></circle><circle cx="1369.3" cy="480.1" r="3.5"
        fill="#00d4f5" stroke="#80eeff" stroke-width="0.8" filter="url(#glowCyan)" opacity="0.85">
        <title>2026-04-01: 138 changes/commit</title></circle><circle cx="1427.7" cy="480.6" r="3.5"
        fill="#00d4f5" stroke="#80eeff" stroke-width="0.8" filter="url(#glowCyan)" opacity="0.85">
        <title>2026-04-02: 130 changes/commit</title></circle><circle cx="1486.0" cy="485.5" r="3.5"
        fill="#00d4f5" stroke="#80eeff" stroke-width="0.8" filter="url(#glowCyan)" opacity="0.85">
        <title>2026-04-03: 63 changes/commit</title></circle>
</g>

<!-- ════ ANNOTATIONS ════ -->

        <line x1="1136.0" y1="181.0"
          x2="1136.0" y2="172.0"
          stroke="#2563eb" stroke-width="1.2" stroke-dasharray="4,4" opacity="0.65"/>
        <rect x="1071.0" y="148.0"
          width="130" height="24" rx="6"
          fill="#030e26" stroke="#2563eb" stroke-width="1" opacity="0.96"/>
        <text x="1136.0" y="164.0"
          font-size="10" fill="#93c5fd" text-anchor="middle"
          font-family="'Lexend','Segoe UI',sans-serif" font-weight="400"
          letter-spacing="0.5">⬡  Peak · 66 commits</text>
        <line x1="902.7" y1="494" x2="1486.0" y2="494"
          stroke="#f472b6" stroke-width="2.5" stroke-linecap="round" opacity="0.7"/>
        <circle cx="902.7" cy="494" r="3" fill="#f472b6" opacity="0.9"/>
        <circle cx="1486.0" cy="494" r="3" fill="#f472b6" opacity="0.9"/>
        <text x="1194.3" y="508" font-size="8.5" fill="#f472b6"
          text-anchor="middle" font-family="'Lexend','Segoe UI',sans-serif"
          font-weight="400" opacity="0.85">🔥 11-day streak</text>
        <line x1="902.7" y1="130" x2="902.7" y2="490"
          stroke="#f472b6" stroke-width="0.8" stroke-dasharray="3,6" opacity="0.35"/>

<!-- ════ CORNER BRACKETS ════ -->
<path d="M 86 152.0 L 86 130 L 108.0 130"
      fill="none" stroke="#4a90e2" stroke-width="2" stroke-opacity="0.85" stroke-linecap="round"/><path d="M 1486 152.0 L 1486 130 L 1464.0 130"
      fill="none" stroke="#4a90e2" stroke-width="2" stroke-opacity="0.85" stroke-linecap="round"/><path d="M 86 468.0 L 86 490 L 108.0 490"
      fill="none" stroke="#4a90e2" stroke-width="2" stroke-opacity="0.85" stroke-linecap="round"/><path d="M 1486 468.0 L 1486 490 L 1464.0 490"
      fill="none" stroke="#4a90e2" stroke-width="2" stroke-opacity="0.85" stroke-linecap="round"/>

<!-- ════ HEATMAP ════ -->
<text x="782" y="646" font-size="11" fill="#3d7ed4"
    text-anchor="middle" font-family="'Lexend','Segoe UI',sans-serif"
    letter-spacing="3" font-weight="400">CONTRIBUTION  CALENDAR</text><text x="754.5" y="686"
        font-size="9" fill="#3d7ed4" text-anchor="end"
        font-family="'Lexend','Segoe UI',sans-serif" font-weight="300">M</text><text x="754.5" y="716"
        font-size="9" fill="#3d7ed4" text-anchor="end"
        font-family="'Lexend','Segoe UI',sans-serif" font-weight="300">W</text><text x="754.5" y="746"
        font-size="9" fill="#3d7ed4" text-anchor="end"
        font-family="'Lexend','Segoe UI',sans-serif" font-weight="300">F</text><rect x="760.5" y="660.0"
        width="12" height="12" rx="2.5" fill="#0a1630"
        stroke="#0d2464" stroke-width="0.5" stroke-opacity="0.4">
        <title>2026-03-08: 0 commits</title></rect><rect x="760.5" y="675.0"
        width="12" height="12" rx="2.5" fill="#0a1630"
        stroke="#0d2464" stroke-width="0.5" stroke-opacity="0.4">
        <title>2026-03-09: 0 commits</title></rect><rect x="760.5" y="690.0"
        width="12" height="12" rx="2.5" fill="#0d3068"
        stroke="#0d2464" stroke-width="0.5" stroke-opacity="0.4">
        <title>2026-03-10: 1 commits</title></rect><rect x="760.5" y="705.0"
        width="12" height="12" rx="2.5" fill="#0a1630"
        stroke="#0d2464" stroke-width="0.5" stroke-opacity="0.4">
        <title>2026-03-11: 0 commits</title></rect><rect x="760.5" y="720.0"
        width="12" height="12" rx="2.5" fill="#0a1630"
        stroke="#0d2464" stroke-width="0.5" stroke-opacity="0.4">
        <title>2026-03-12: 0 commits</title></rect><rect x="760.5" y="735.0"
        width="12" height="12" rx="2.5" fill="#0a1630"
        stroke="#0d2464" stroke-width="0.5" stroke-opacity="0.4">
        <title>2026-03-13: 0 commits</title></rect><rect x="760.5" y="750.0"
        width="12" height="12" rx="2.5" fill="#0a1630"
        stroke="#0d2464" stroke-width="0.5" stroke-opacity="0.4">
        <title>2026-03-14: 0 commits</title></rect><rect x="775.5" y="660.0"
        width="12" height="12" rx="2.5" fill="#0a1630"
        stroke="#0d2464" stroke-width="0.5" stroke-opacity="0.4">
        <title>2026-03-15: 0 commits</title></rect><rect x="775.5" y="675.0"
        width="12" height="12" rx="2.5" fill="#0a1630"
        stroke="#0d2464" stroke-width="0.5" stroke-opacity="0.4">
        <title>2026-03-16: 0 commits</title></rect><rect x="775.5" y="690.0"
        width="12" height="12" rx="2.5" fill="#0d3068"
        stroke="#0d2464" stroke-width="0.5" stroke-opacity="0.4">
        <title>2026-03-17: 10 commits</title></rect><rect x="775.5" y="705.0"
        width="12" height="12" rx="2.5" fill="#0a1630"
        stroke="#0d2464" stroke-width="0.5" stroke-opacity="0.4">
        <title>2026-03-18: 0 commits</title></rect><rect x="775.5" y="720.0"
        width="12" height="12" rx="2.5" fill="#0a1630"
        stroke="#0d2464" stroke-width="0.5" stroke-opacity="0.4">
        <title>2026-03-19: 0 commits</title></rect><rect x="775.5" y="735.0"
        width="12" height="12" rx="2.5" fill="#1e56a8"
        stroke="#0d2464" stroke-width="0.5" stroke-opacity="0.4">
        <title>2026-03-20: 26 commits</title></rect><rect x="775.5" y="750.0"
        width="12" height="12" rx="2.5" fill="#0a1630"
        stroke="#0d2464" stroke-width="0.5" stroke-opacity="0.4">
        <title>2026-03-21: 0 commits</title></rect><rect x="790.5" y="660.0"
        width="12" height="12" rx="2.5" fill="#0d3068"
        stroke="#0d2464" stroke-width="0.5" stroke-opacity="0.4">
        <title>2026-03-22: 1 commits</title></rect><rect x="790.5" y="675.0"
        width="12" height="12" rx="2.5" fill="#0a1630"
        stroke="#0d2464" stroke-width="0.5" stroke-opacity="0.4">
        <title>2026-03-23: 0 commits</title></rect><rect x="790.5" y="690.0"
        width="12" height="12" rx="2.5" fill="#1e56a8"
        stroke="#0d2464" stroke-width="0.5" stroke-opacity="0.4">
        <title>2026-03-24: 32 commits</title></rect><rect x="790.5" y="705.0"
        width="12" height="12" rx="2.5" fill="#0d3068"
        stroke="#0d2464" stroke-width="0.5" stroke-opacity="0.4">
        <title>2026-03-25: 7 commits</title></rect><rect x="790.5" y="720.0"
        width="12" height="12" rx="2.5" fill="#0d3068"
        stroke="#0d2464" stroke-width="0.5" stroke-opacity="0.4">
        <title>2026-03-26: 3 commits</title></rect><rect x="790.5" y="735.0"
        width="12" height="12" rx="2.5" fill="#0d3068"
        stroke="#0d2464" stroke-width="0.5" stroke-opacity="0.4">
        <title>2026-03-27: 1 commits</title></rect><rect x="790.5" y="750.0"
        width="12" height="12" rx="2.5" fill="#93c5fd"
        stroke="#0d2464" stroke-width="0.5" stroke-opacity="0.4">
        <title>2026-03-28: 66 commits</title></rect><rect x="805.5" y="660.0"
        width="12" height="12" rx="2.5" fill="#3b82f6"
        stroke="#0d2464" stroke-width="0.5" stroke-opacity="0.4">
        <title>2026-03-29: 44 commits</title></rect><rect x="805.5" y="675.0"
        width="12" height="12" rx="2.5" fill="#0d3068"
        stroke="#0d2464" stroke-width="0.5" stroke-opacity="0.4">
        <title>2026-03-30: 2 commits</title></rect><rect x="805.5" y="690.0"
        width="12" height="12" rx="2.5" fill="#0d3068"
        stroke="#0d2464" stroke-width="0.5" stroke-opacity="0.4">
        <title>2026-03-31: 16 commits</title></rect><rect x="805.5" y="705.0"
        width="12" height="12" rx="2.5" fill="#0d3068"
        stroke="#0d2464" stroke-width="0.5" stroke-opacity="0.4">
        <title>2026-04-01: 14 commits</title></rect><rect x="805.5" y="720.0"
        width="12" height="12" rx="2.5" fill="#0d3068"
        stroke="#0d2464" stroke-width="0.5" stroke-opacity="0.4">
        <title>2026-04-02: 2 commits</title></rect><rect x="805.5" y="735.0"
        width="12" height="12" rx="2.5" fill="#1e56a8"
        stroke="#0d2464" stroke-width="0.5" stroke-opacity="0.4">
        <title>2026-04-03: 23 commits</title></rect><rect x="805.5" y="750.0"
        width="12" height="12" rx="2.5" fill="#0a1630"
        stroke="#0d2464" stroke-width="0.5" stroke-opacity="0.4">
        <title>2026-04-04: 0 commits</title></rect><text x="805.5" y="656" font-size="8.5" fill="#3d7ed4"
        font-family="'Lexend','Segoe UI',sans-serif" font-weight="300">Apr</text><rect x="820.5" y="660.0"
        width="12" height="12" rx="2.5" fill="#0a1630"
        stroke="#0d2464" stroke-width="0.5" stroke-opacity="0.4">
        <title>2026-04-05: 0 commits</title></rect><rect x="820.5" y="675.0"
        width="12" height="12" rx="2.5" fill="#0a1630"
        stroke="#0d2464" stroke-width="0.5" stroke-opacity="0.4">
        <title>2026-04-06: 0 commits</title></rect><rect x="820.5" y="690.0"
        width="12" height="12" rx="2.5" fill="#0a1630"
        stroke="#0d2464" stroke-width="0.5" stroke-opacity="0.4">
        <title>2026-04-07: 0 commits</title></rect><rect x="820.5" y="705.0"
        width="12" height="12" rx="2.5" fill="#0a1630"
        stroke="#0d2464" stroke-width="0.5" stroke-opacity="0.4">
        <title>2026-04-08: 0 commits</title></rect><rect x="820.5" y="720.0"
        width="12" height="12" rx="2.5" fill="#0a1630"
        stroke="#0d2464" stroke-width="0.5" stroke-opacity="0.4">
        <title>2026-04-09: 0 commits</title></rect><rect x="820.5" y="735.0"
        width="12" height="12" rx="2.5" fill="#0a1630"
        stroke="#0d2464" stroke-width="0.5" stroke-opacity="0.4">
        <title>2026-04-10: 0 commits</title></rect><rect x="820.5" y="750.0"
        width="12" height="12" rx="2.5" fill="#0a1630"
        stroke="#0d2464" stroke-width="0.5" stroke-opacity="0.4">
        <title>2026-04-11: 0 commits</title></rect>

<!-- ════ BOTTOM PANELS ════ -->

    <rect x="86" y="823" width="320" height="110"
      rx="4" fill="#030e26" fill-opacity="0.6" stroke="#1a3f7a" stroke-width="0.8"/>
    <text x="246" y="819" font-size="8" fill="#3d7ed4"
      text-anchor="middle" font-family="'Lexend','Segoe UI',sans-serif"
      letter-spacing="2" font-weight="300">OVERVIEW</text>
    <g clip-path="url(#minimapClip)">
      <path d="M 86.00 931.58 C 88.22 931.82, 94.89 932.76, 99.33 933.00 C 103.78 933.24, 108.22 933.00, 112.67 933.00 C 117.11 933.00, 121.56 933.00, 126.00 933.00 C 130.44 933.00, 134.89 933.00, 139.33 933.00 C 143.78 933.00, 148.22 933.00, 152.67 933.00 C 157.11 933.00, 161.56 935.36, 166.00 933.00 C 170.44 930.64, 174.89 918.83, 179.33 918.83 C 183.78 918.83, 188.22 930.64, 192.67 933.00 C 197.11 935.36, 201.56 939.14, 206.00 933.00 C 210.44 926.86, 214.89 896.17, 219.33 896.17 C 223.78 896.17, 228.22 927.10, 232.67 933.00 C 237.11 938.90, 241.56 931.58, 246.00 931.58 C 250.44 931.58, 254.89 940.32, 259.33 933.00 C 263.78 925.68, 268.22 889.32, 272.67 887.67 C 277.11 886.01, 281.56 916.24, 286.00 923.08 C 290.44 929.93, 294.89 927.33, 299.33 928.75 C 303.78 930.17, 308.22 946.46, 312.67 931.58 C 317.11 916.71, 321.56 849.65, 326.00 839.50 C 330.44 829.35, 334.89 855.56, 339.33 870.67 C 343.78 885.78, 348.22 923.56, 352.67 930.17 C 357.11 936.78, 361.56 913.17, 366.00 910.33 C 370.44 907.50, 374.89 909.86, 379.33 913.17 C 383.78 916.47, 388.22 932.29, 392.67 930.17 C 397.11 928.04, 403.78 905.38, 406.00 900.42 L 406.00 933 L 86.00 933 Z" fill="#4a90e2" fill-opacity="0.15"/>
      <path d="M 86.00 931.58 C 88.22 931.82, 94.89 932.76, 99.33 933.00 C 103.78 933.24, 108.22 933.00, 112.67 933.00 C 117.11 933.00, 121.56 933.00, 126.00 933.00 C 130.44 933.00, 134.89 933.00, 139.33 933.00 C 143.78 933.00, 148.22 933.00, 152.67 933.00 C 157.11 933.00, 161.56 935.36, 166.00 933.00 C 170.44 930.64, 174.89 918.83, 179.33 918.83 C 183.78 918.83, 188.22 930.64, 192.67 933.00 C 197.11 935.36, 201.56 939.14, 206.00 933.00 C 210.44 926.86, 214.89 896.17, 219.33 896.17 C 223.78 896.17, 228.22 927.10, 232.67 933.00 C 237.11 938.90, 241.56 931.58, 246.00 931.58 C 250.44 931.58, 254.89 940.32, 259.33 933.00 C 263.78 925.68, 268.22 889.32, 272.67 887.67 C 277.11 886.01, 281.56 916.24, 286.00 923.08 C 290.44 929.93, 294.89 927.33, 299.33 928.75 C 303.78 930.17, 308.22 946.46, 312.67 931.58 C 317.11 916.71, 321.56 849.65, 326.00 839.50 C 330.44 829.35, 334.89 855.56, 339.33 870.67 C 343.78 885.78, 348.22 923.56, 352.67 930.17 C 357.11 936.78, 361.56 913.17, 366.00 910.33 C 370.44 907.50, 374.89 909.86, 379.33 913.17 C 383.78 916.47, 388.22 932.29, 392.67 930.17 C 397.11 928.04, 403.78 905.38, 406.00 900.42" fill="none" stroke="#4a90e2" stroke-width="1.5" stroke-opacity="0.7"/>
    </g>
    <clipPath id="minimapClip">
      <rect x="86" y="823" width="320" height="110" rx="4"/>
    </clipPath><path d="M 1346.00 854.90
      L 1346.00 836.00
      A 42 42 0 1 1 1314.84 849.84
      L 1328.86 862.51
      A 23.1 23.1 0 1 0 1346.00 854.90 Z"
      fill="#4a90e2" fill-opacity="0.8" stroke="#030e26" stroke-width="1.5">
      <title>Kieran Lucas: 215 commits (87%)</title></path><path d="M 1328.86 862.51
      L 1314.84 849.84
      A 42 42 0 0 1 1334.45 837.62
      L 1339.65 855.79
      A 23.1 23.1 0 0 0 1328.86 862.51 Z"
      fill="#ff8c42" fill-opacity="0.8" stroke="#030e26" stroke-width="1.5">
      <title>github-actions: 22 commits (9%)</title></path><path d="M 1339.65 855.79
      L 1334.45 837.62
      A 42 42 0 0 1 1340.69 836.34
      L 1343.08 855.09
      A 23.1 23.1 0 0 0 1339.65 855.79 Z"
      fill="#00d4f5" fill-opacity="0.8" stroke="#030e26" stroke-width="1.5">
      <title>stillqhuy: 6 commits (2%)</title></path><path d="M 1343.08 855.09
      L 1340.69 836.34
      A 42 42 0 0 1 1344.94 836.01
      L 1345.41 854.91
      A 23.1 23.1 0 0 0 1343.08 855.09 Z"
      fill="#22c55e" fill-opacity="0.8" stroke="#030e26" stroke-width="1.5">
      <title>HumaNormal: 4 commits (2%)</title></path><path d="M 1345.41 854.91
      L 1344.94 836.01
      A 42 42 0 0 1 1346.00 836.00
      L 1346.00 854.90
      A 23.1 23.1 0 0 0 1345.41 854.91 Z"
      fill="#ef4444" fill-opacity="0.8" stroke="#030e26" stroke-width="1.5">
      <title>Nguyễn Đinh Việt Đức: 1 commits (0%)</title></path><text x="1346" y="874" font-size="9" fill="#3d7ed4" text-anchor="middle"
    font-family="'Lexend','Segoe UI',sans-serif" letter-spacing="1.5" font-weight="300">AUTHORS</text><text x="1346" y="892" font-size="16" fill="#cce8ff" text-anchor="middle"
    font-family="'Lexend','Segoe UI',sans-serif" font-weight="600">5</text><rect x="1404" y="830" width="8" height="8" rx="2" fill="#4a90e2" opacity="0.85"/><text x="1418" y="838" font-size="9.5" fill="#3d7ed4"
      font-family="'Lexend','Segoe UI',sans-serif" font-weight="300">Kieran Lucas (215)</text><rect x="1404" y="848" width="8" height="8" rx="2" fill="#ff8c42" opacity="0.85"/><text x="1418" y="856" font-size="9.5" fill="#3d7ed4"
      font-family="'Lexend','Segoe UI',sans-serif" font-weight="300">github-actions (22)</text><rect x="1404" y="866" width="8" height="8" rx="2" fill="#00d4f5" opacity="0.85"/><text x="1418" y="874" font-size="9.5" fill="#3d7ed4"
      font-family="'Lexend','Segoe UI',sans-serif" font-weight="300">stillqhuy (6)</text><rect x="1404" y="884" width="8" height="8" rx="2" fill="#22c55e" opacity="0.85"/><text x="1418" y="892" font-size="9.5" fill="#3d7ed4"
      font-family="'Lexend','Segoe UI',sans-serif" font-weight="300">HumaNormal (4)</text><rect x="1404" y="902" width="8" height="8" rx="2" fill="#ef4444" opacity="0.85"/><text x="1418" y="910" font-size="9.5" fill="#3d7ed4"
      font-family="'Lexend','Segoe UI',sans-serif" font-weight="300">Nguyễn Đinh … (1)</text>

<!-- ════ WAVES ════ -->
<path d="M 0 963 Q 97.8 956.0 195.5 963 Q 293.3 956.0 391.0 963 Q 488.8 956.0 586.5 963 Q 684.3 956.0 782.0 963 Q 879.8 956.0 977.5 963 Q 1075.3 956.0 1173.0 963 Q 1270.8 956.0 1368.5 963 Q 1466.3 956.0 1564.0 963" fill="none" stroke="#1948a0" stroke-width="1.2" stroke-opacity="0.35"/>
<path d="M 0 958 Q 97.8 952.5 195.5 958 Q 293.3 952.5 391.0 958 Q 488.8 952.5 586.5 958 Q 684.3 952.5 782.0 958 Q 879.8 952.5 977.5 958 Q 1075.3 952.5 1173.0 958 Q 1270.8 952.5 1368.5 958 Q 1466.3 952.5 1564.0 958" fill="none" stroke="#1948a0" stroke-width="1" stroke-opacity="0.29"/>
<path d="M 0 953 Q 97.8 949.0 195.5 953 Q 293.3 949.0 391.0 953 Q 488.8 949.0 586.5 953 Q 684.3 949.0 782.0 953 Q 879.8 949.0 977.5 953 Q 1075.3 949.0 1173.0 953 Q 1270.8 949.0 1368.5 953 Q 1466.3 949.0 1564.0 953" fill="none" stroke="#1948a0" stroke-width="0.7999999999999999" stroke-opacity="0.22999999999999998"/>
<path d="M 0 948 Q 97.8 945.5 195.5 948 Q 293.3 945.5 391.0 948 Q 488.8 945.5 586.5 948 Q 684.3 945.5 782.0 948 Q 879.8 945.5 977.5 948 Q 1075.3 945.5 1173.0 948 Q 1270.8 945.5 1368.5 948 Q 1466.3 945.5 1564.0 948" fill="none" stroke="#1948a0" stroke-width="0.5999999999999999" stroke-opacity="0.16999999999999998"/>

</svg>