<svg width="1872" height="969" xmlns="http://www.w3.org/2000/svg" viewBox="0 0 1872 969">
<defs>
  <style>
    @import url('https://fonts.googleapis.com/css2?family=Lexend:wght@300;400;600;700&amp;display=swap');
    circle:hover { opacity: 1 !important; r: 6; }
    rect.bar-segment:hover { opacity: 1 !important; }
  </style>

  <linearGradient id="bg" x1="0%" y1="0%" x2="55%" y2="100%">
    <stop offset="0%"   stop-color="#010c1e"/>
    <stop offset="50%"  stop-color="#010f27"/>
    <stop offset="100%" stop-color="#000a18"/>
  </linearGradient>
  <linearGradient id="areaFill" x1="0%" y1="0%" x2="0%" y2="100%">
    <stop offset="0%"   stop-color="#4a90e2" stop-opacity="0.5"/>
    <stop offset="55%"  stop-color="#1a3f7a" stop-opacity="0.18"/>
    <stop offset="100%" stop-color="#000a18" stop-opacity="0"/>
  </linearGradient>
  <linearGradient id="gCommits" x1="0%" y1="0%" x2="100%" y2="0%">
    <stop offset="0%"   stop-color="#ff8c42"/>
    <stop offset="100%" stop-color="#ffd0a0"/>
  </linearGradient>
  <linearGradient id="gChanges" x1="0%" y1="0%" x2="100%" y2="0%">
    <stop offset="0%"   stop-color="#00d4f5" stop-opacity="0.8"/>
    <stop offset="50%"  stop-color="#00d4f5"/>
    <stop offset="100%" stop-color="#80eeff"/>
  </linearGradient>
  <linearGradient id="gBorder" x1="0%" y1="0%" x2="100%" y2="100%">
    <stop offset="0%"   stop-color="#1840a0" stop-opacity="0.9"/>
    <stop offset="50%"  stop-color="#3b82f6" stop-opacity="0.6"/>
    <stop offset="100%" stop-color="#60a5fa" stop-opacity="0.9"/>
  </linearGradient>
  <linearGradient id="gHeader" x1="0%" y1="0%" x2="100%" y2="0%">
    <stop offset="0%"   stop-color="#010c1e" stop-opacity="0"/>
    <stop offset="20%"  stop-color="#091c3e" stop-opacity="0.92"/>
    <stop offset="80%"  stop-color="#091c3e" stop-opacity="0.92"/>
    <stop offset="100%" stop-color="#010c1e" stop-opacity="0"/>
  </linearGradient>
  <linearGradient id="gAddBar" x1="0%" y1="0%" x2="0%" y2="100%">
    <stop offset="0%"   stop-color="#22c55e" stop-opacity="0.95"/>
    <stop offset="100%" stop-color="#22c55e" stop-opacity="0.65"/>
  </linearGradient>
  <linearGradient id="gDelBar" x1="0%" y1="0%" x2="0%" y2="100%">
    <stop offset="0%"   stop-color="#ef4444" stop-opacity="0.9"/>
    <stop offset="100%" stop-color="#ef4444" stop-opacity="0.6"/>
  </linearGradient>

  <filter id="glowOrange" x="-120%" y="-120%" width="340%" height="340%">
    <feGaussianBlur stdDeviation="4" result="b"/>
    <feMerge><feMergeNode in="b"/><feMergeNode in="SourceGraphic"/></feMerge>
  </filter>
  <filter id="glowCyan" x="-120%" y="-120%" width="340%" height="340%">
    <feGaussianBlur stdDeviation="3.5" result="b"/>
    <feMerge><feMergeNode in="b"/><feMergeNode in="SourceGraphic"/></feMerge>
  </filter>
  <filter id="glowTitle">
    <feGaussianBlur stdDeviation="5" result="b"/>
    <feMerge><feMergeNode in="b"/><feMergeNode in="b"/><feMergeNode in="SourceGraphic"/></feMerge>
  </filter>
  <filter id="glowLine" x="-6%" y="-120%" width="112%" height="340%">
    <feGaussianBlur stdDeviation="4.5" result="b"/>
    <feMerge><feMergeNode in="b"/><feMergeNode in="SourceGraphic"/></feMerge>
  </filter>
  <filter id="glowMA" x="-6%" y="-120%" width="112%" height="340%">
    <feGaussianBlur stdDeviation="3" result="b"/>
    <feMerge><feMergeNode in="b"/><feMergeNode in="SourceGraphic"/></feMerge>
  </filter>

  <pattern id="diamondTile" x="0" y="0" width="30" height="30" patternUnits="userSpaceOnUse">
    <path d="M15 2 L28 15 L15 28 L2 15 Z"
      fill="none" stroke="#0d2464" stroke-width="0.4" stroke-opacity="0.25"/>
  </pattern>

  <clipPath id="chartClip">
    <rect x="86" y="130" width="1708" height="360"/>
  </clipPath>
</defs>

<!-- ════ BACKGROUND ════ -->
<rect width="1872" height="969" fill="url(#bg)" rx="16"/>
<rect width="1872" height="969" fill="url(#diamondTile)" rx="16"/>

<!-- ════ BORDERS ════ -->
<rect width="1872" height="969" fill="none" rx="16" stroke="url(#gBorder)" stroke-width="2.2"/>
<rect x="5" y="5" width="1862" height="959" fill="none" rx="13"
  stroke="#1840a0" stroke-width="0.7" stroke-opacity="0.35"/>

<!-- ════ HEADER ════ -->
<rect x="0" y="0" width="1872" height="122" fill="url(#gHeader)" rx="16"/>
<line x1="24" y1="118.0" x2="1848.0" y2="118.0"
    stroke="url(#gBorder)" stroke-width="0.8" stroke-opacity="0.5"/>

<!-- ════ TITLE ════ -->
<text x="940.0" y="44" font-size="18" font-weight="600" fill="#cce8ff"
  text-anchor="middle" font-family="'Lexend','Segoe UI',sans-serif"
  filter="url(#glowTitle)" letter-spacing="5">⬡  COMMIT  ANALYTICS  ⬡</text>
<text x="940.0" y="62" font-size="9.5" fill="#3d7ed4" text-anchor="middle"
  font-family="'Lexend','Segoe UI',sans-serif" letter-spacing="3.5" font-weight="300">kieran-lucas/oop-course-project-uet</text>

<!-- ════ STATS BADGE ════ -->

    <rect x="1646" y="8" width="142" height="92" rx="10"
      fill="#030e26" fill-opacity="0.94" stroke="#2563eb" stroke-width="1.2"/>
    <text x="1717" y="24" font-size="8" fill="#3d7ed4"
      text-anchor="middle" font-family="'Lexend',sans-serif" letter-spacing="2" font-weight="400">TOTAL  COMMITS</text>
    <text x="1717" y="52" font-size="28" font-weight="700" fill="#cce8ff"
      text-anchor="middle" font-family="'Lexend',sans-serif" filter="url(#glowTitle)">489</text>
    <line x1="1662" y1="60" x2="1772" y2="60"
      stroke="#1a3f7a" stroke-width="0.8" stroke-opacity="0.5"/>
    <text x="1693" y="74" font-size="9" fill="#22c55e"
      text-anchor="middle" font-family="'Lexend',sans-serif" font-weight="400">+194.0k</text>
    <text x="1741" y="74" font-size="9" fill="#ef4444"
      text-anchor="middle" font-family="'Lexend',sans-serif" font-weight="400">-166.7k</text>
    <text x="1717" y="90" font-size="8" fill="#3d7ed4"
      text-anchor="middle" font-family="'Lexend',sans-serif" font-weight="300">51 active days · 1.8k files</text>

<!-- ════ LEGEND ════ -->
<g><rect x="584.0" y="90.0" width="24" height="12" rx="3"
        fill="#4a90e2" fill-opacity="0.45" stroke="#4a90e2" stroke-width="1.2"/><text x="615.0" y="100.0" font-size="11" fill="#93c5fd"
      font-family="'Lexend','Segoe UI',sans-serif" font-weight="400">Total Lines</text><line x1="720.0" y1="97.0" x2="744.0" y2="97.0"
        stroke="#ff8c42" stroke-width="2.5" stroke-linecap="round"/><circle cx="732.0" cy="97.0" r="3.5"
        fill="#ff8c42" stroke="#fff" stroke-width="0.6" stroke-opacity="0.3"/><text x="751.0" y="100.0" font-size="11" fill="#93c5fd"
      font-family="'Lexend','Segoe UI',sans-serif" font-weight="400">Commits</text><line x1="828.0" y1="97.0" x2="852.0" y2="97.0"
        stroke="#00d4f5" stroke-width="2.5" stroke-linecap="round"/><circle cx="840.0" cy="97.0" r="3.5"
        fill="#00d4f5" stroke="#fff" stroke-width="0.6" stroke-opacity="0.3"/><text x="859.0" y="100.0" font-size="11" fill="#93c5fd"
      font-family="'Lexend','Segoe UI',sans-serif" font-weight="400">Chg/Commit</text><rect x="963.0" y="90.0" width="12" height="12" rx="2"
        fill="#22c55e" opacity="0.85"/><text x="988.0" y="100.0" font-size="11" fill="#93c5fd"
      font-family="'Lexend','Segoe UI',sans-serif" font-weight="400">Additions</text><rect x="1085.0" y="90.0" width="12" height="12" rx="2"
        fill="#ef4444" opacity="0.85"/><text x="1110.0" y="100.0" font-size="11" fill="#93c5fd"
      font-family="'Lexend','Segoe UI',sans-serif" font-weight="400">Deletions</text><line x1="1201.0" y1="97.0" x2="1225.0" y2="97.0"
        stroke="#a78bfa" stroke-width="2" stroke-dasharray="5,3" stroke-linecap="round"/><text x="1232.0" y="100.0" font-size="11" fill="#93c5fd"
      font-family="'Lexend','Segoe UI',sans-serif" font-weight="400">7-day MA</text></g>

<!-- ════ AXIS LABELS ════ -->
<text x="16" y="310.0" font-size="9.5" fill="#4a90e2"
    text-anchor="middle" font-family="'Lexend','Segoe UI',sans-serif" letter-spacing="3" font-weight="300"
    transform="rotate(-90, 16, 310.0)">LINES</text>
<text x="1858.0" y="310.0" font-size="9.5"
    fill="#ff8c42" text-anchor="middle" font-family="'Lexend','Segoe UI',sans-serif"
    letter-spacing="3" font-weight="300" opacity="0.8"
    transform="rotate(90, 1858.0, 310.0)">COMMITS</text>

<!-- ════ GRID + Y-LABELS ════ -->
<line x1="86" y1="490.0" x2="1794" y2="490.0"
      stroke="#1a3f7a" stroke-width="1.4"
      stroke-opacity="0.9" stroke-dasharray="none"/><line x1="86" y1="418.0" x2="1794" y2="418.0"
      stroke="#1a3f7a" stroke-width="0.5"
      stroke-opacity="0.3" stroke-dasharray="6,6"/><line x1="86" y1="346.0" x2="1794" y2="346.0"
      stroke="#1a3f7a" stroke-width="0.5"
      stroke-opacity="0.3" stroke-dasharray="6,6"/><line x1="86" y1="274.0" x2="1794" y2="274.0"
      stroke="#1a3f7a" stroke-width="0.5"
      stroke-opacity="0.3" stroke-dasharray="6,6"/><line x1="86" y1="202.0" x2="1794" y2="202.0"
      stroke="#1a3f7a" stroke-width="0.5"
      stroke-opacity="0.3" stroke-dasharray="6,6"/><line x1="86" y1="130.0" x2="1794" y2="130.0"
      stroke="#1a3f7a" stroke-width="0.5"
      stroke-opacity="0.3" stroke-dasharray="6,6"/>
<text x="74" y="494.0" font-size="11" fill="#5aa8ff"
      text-anchor="end" font-family="'Lexend','Segoe UI',sans-serif" font-weight="300">0</text><text x="74" y="422.0" font-size="11" fill="#5aa8ff"
      text-anchor="end" font-family="'Lexend','Segoe UI',sans-serif" font-weight="300">20.0k</text><text x="74" y="350.0" font-size="11" fill="#5aa8ff"
      text-anchor="end" font-family="'Lexend','Segoe UI',sans-serif" font-weight="300">40.0k</text><text x="74" y="278.0" font-size="11" fill="#5aa8ff"
      text-anchor="end" font-family="'Lexend','Segoe UI',sans-serif" font-weight="300">60.0k</text><text x="74" y="206.0" font-size="11" fill="#5aa8ff"
      text-anchor="end" font-family="'Lexend','Segoe UI',sans-serif" font-weight="300">80.0k</text><text x="74" y="134.0" font-size="11" fill="#5aa8ff"
      text-anchor="end" font-family="'Lexend','Segoe UI',sans-serif" font-weight="300">100.0k</text>
<text x="1806" y="494.0" font-size="11" fill="#ff8c42"
      text-anchor="start" font-family="'Lexend','Segoe UI',sans-serif" font-weight="300" opacity="0.85">0</text><text x="1806" y="404.0" font-size="11" fill="#ff8c42"
      text-anchor="start" font-family="'Lexend','Segoe UI',sans-serif" font-weight="300" opacity="0.85">20</text><text x="1806" y="314.0" font-size="11" fill="#ff8c42"
      text-anchor="start" font-family="'Lexend','Segoe UI',sans-serif" font-weight="300" opacity="0.85">40</text><text x="1806" y="224.0" font-size="11" fill="#ff8c42"
      text-anchor="start" font-family="'Lexend','Segoe UI',sans-serif" font-weight="300" opacity="0.85">60</text><text x="1806" y="134.0" font-size="11" fill="#ff8c42"
      text-anchor="start" font-family="'Lexend','Segoe UI',sans-serif" font-weight="300" opacity="0.85">80</text>

<!-- ════ AXIS LINES ════ -->
<line x1="86" y1="130" x2="86" y2="490"
  stroke="#1a3f7a" stroke-width="1.2" stroke-opacity="0.65"/>
<line x1="86" y1="490" x2="1794" y2="490"
  stroke="#1a3f7a" stroke-width="1.4" stroke-opacity="0.8"/>
<line x1="1794" y1="130" x2="1794" y2="490"
  stroke="#ff8c42" stroke-width="0.9" stroke-opacity="0.28"/>

<!-- ════ X-AXIS ════ -->
<text x="86.0" y="514" font-size="10" fill="#5aa8ff"
      text-anchor="end" font-family="'Lexend','Segoe UI',sans-serif" font-weight="300"
      transform="rotate(-42, 86.0, 514)">10 Mar</text><text x="199.9" y="514" font-size="10" fill="#5aa8ff"
      text-anchor="end" font-family="'Lexend','Segoe UI',sans-serif" font-weight="300"
      transform="rotate(-42, 199.9, 514)">14 Mar</text><text x="313.7" y="514" font-size="10" fill="#5aa8ff"
      text-anchor="end" font-family="'Lexend','Segoe UI',sans-serif" font-weight="300"
      transform="rotate(-42, 313.7, 514)">18 Mar</text><text x="427.6" y="514" font-size="10" fill="#5aa8ff"
      text-anchor="end" font-family="'Lexend','Segoe UI',sans-serif" font-weight="300"
      transform="rotate(-42, 427.6, 514)">22 Mar</text><text x="541.5" y="514" font-size="10" fill="#5aa8ff"
      text-anchor="end" font-family="'Lexend','Segoe UI',sans-serif" font-weight="300"
      transform="rotate(-42, 541.5, 514)">26 Mar</text><text x="655.3" y="514" font-size="10" fill="#5aa8ff"
      text-anchor="end" font-family="'Lexend','Segoe UI',sans-serif" font-weight="300"
      transform="rotate(-42, 655.3, 514)">30 Mar</text><text x="769.2" y="514" font-size="10" fill="#5aa8ff"
      text-anchor="end" font-family="'Lexend','Segoe UI',sans-serif" font-weight="300"
      transform="rotate(-42, 769.2, 514)">3 Apr</text><text x="883.1" y="514" font-size="10" fill="#5aa8ff"
      text-anchor="end" font-family="'Lexend','Segoe UI',sans-serif" font-weight="300"
      transform="rotate(-42, 883.1, 514)">7 Apr</text><text x="996.9" y="514" font-size="10" fill="#5aa8ff"
      text-anchor="end" font-family="'Lexend','Segoe UI',sans-serif" font-weight="300"
      transform="rotate(-42, 996.9, 514)">11 Apr</text><text x="1110.8" y="514" font-size="10" fill="#5aa8ff"
      text-anchor="end" font-family="'Lexend','Segoe UI',sans-serif" font-weight="300"
      transform="rotate(-42, 1110.8, 514)">15 Apr</text><text x="1224.7" y="514" font-size="10" fill="#5aa8ff"
      text-anchor="end" font-family="'Lexend','Segoe UI',sans-serif" font-weight="300"
      transform="rotate(-42, 1224.7, 514)">19 Apr</text><text x="1338.5" y="514" font-size="10" fill="#5aa8ff"
      text-anchor="end" font-family="'Lexend','Segoe UI',sans-serif" font-weight="300"
      transform="rotate(-42, 1338.5, 514)">23 Apr</text><text x="1452.4" y="514" font-size="10" fill="#5aa8ff"
      text-anchor="end" font-family="'Lexend','Segoe UI',sans-serif" font-weight="300"
      transform="rotate(-42, 1452.4, 514)">27 Apr</text><text x="1566.3" y="514" font-size="10" fill="#5aa8ff"
      text-anchor="end" font-family="'Lexend','Segoe UI',sans-serif" font-weight="300"
      transform="rotate(-42, 1566.3, 514)">1 May</text><text x="1680.1" y="514" font-size="10" fill="#5aa8ff"
      text-anchor="end" font-family="'Lexend','Segoe UI',sans-serif" font-weight="300"
      transform="rotate(-42, 1680.1, 514)">5 May</text><text x="1794.0" y="514" font-size="10" fill="#5aa8ff"
      text-anchor="end" font-family="'Lexend','Segoe UI',sans-serif" font-weight="300"
      transform="rotate(-42, 1794.0, 514)">9 May</text>

<!-- ════ CHART CONTENT ════ -->
<g clip-path="url(#chartClip)">
  <!-- Total lines: area + stroke -->
  <path d="M 86.00 490.00 C 90.74 490.00, 104.98 490.00, 114.47 490.00 C 123.96 490.00, 133.44 490.00, 142.93 490.00 C 152.42 490.00, 161.91 490.00, 171.40 490.00 C 180.89 490.00, 190.38 490.00, 199.87 490.00 C 209.36 490.00, 218.84 490.00, 228.33 490.00 C 237.82 490.00, 247.31 490.00, 256.80 490.00 C 266.29 489.98, 275.78 489.92, 285.27 489.91 C 294.76 489.89, 304.24 489.91, 313.73 489.91 C 323.22 489.91, 332.71 489.94, 342.20 489.91 C 351.69 489.87, 361.18 489.72, 370.67 489.69 C 380.16 489.65, 389.64 489.70, 399.13 489.69 C 408.62 489.67, 418.11 489.62, 427.60 489.61 C 437.09 489.59, 446.58 490.00, 456.07 489.61 C 465.56 488.99, 475.04 486.51, 484.53 485.89 C 494.02 485.28, 503.51 485.91, 513.00 485.91 C 522.49 485.91, 531.98 485.90, 541.47 485.90 C 550.96 485.90, 560.44 490.00, 569.93 485.89 C 579.42 443.28, 588.91 274.96, 598.40 230.27 C 607.89 185.59, 617.38 219.88, 626.87 217.78 C 636.36 215.68, 645.84 218.05, 655.33 217.69 C 664.82 217.33, 674.31 216.22, 683.80 215.61 C 693.29 215.00, 702.78 214.42, 712.27 214.05 C 721.76 213.67, 731.24 213.51, 740.73 213.37 C 750.22 213.23, 759.71 213.54, 769.20 213.21 C 778.69 212.88, 788.18 211.70, 797.67 211.39 C 807.16 211.09, 816.64 211.39, 826.13 211.39 C 835.62 211.39, 845.11 211.45, 854.60 211.38 C 864.09 211.31, 873.58 211.03, 883.07 210.96 C 892.56 210.89, 902.04 210.96, 911.53 210.96 C 921.02 210.95, 930.51 210.95, 940.00 210.94 C 949.49 210.94, 958.98 210.92, 968.47 210.92 C 977.96 210.92, 987.44 211.38, 996.93 210.94 C 1006.42 210.50, 1015.91 208.73, 1025.40 208.29 C 1034.89 207.84, 1044.38 208.30, 1053.87 208.29 C 1063.36 208.27, 1072.84 208.21, 1082.33 208.20 C 1091.82 208.18, 1101.31 208.18, 1110.80 208.17 C 1120.29 208.17, 1129.78 208.16, 1139.27 208.16 C 1148.76 208.15, 1158.24 208.15, 1167.73 208.15 C 1177.22 208.14, 1186.71 208.13, 1196.20 208.12 C 1205.69 208.12, 1215.18 208.20, 1224.67 208.11 C 1234.16 208.01, 1243.64 207.65, 1253.13 207.56 C 1262.62 207.47, 1272.11 207.55, 1281.60 207.55 C 1291.09 207.55, 1300.58 207.54, 1310.07 207.54 C 1319.56 207.53, 1329.04 207.53, 1338.53 207.52 C 1348.02 207.52, 1357.51 207.51, 1367.00 207.50 C 1376.49 207.49, 1385.98 207.49, 1395.47 207.49 C 1404.96 207.49, 1414.44 207.49, 1423.93 207.49 C 1433.42 207.49, 1442.91 207.50, 1452.40 207.48 C 1461.89 207.46, 1471.38 207.41, 1480.87 207.39 C 1490.36 207.37, 1499.84 207.38, 1509.33 207.37 C 1518.82 207.37, 1528.31 207.71, 1537.80 207.35 C 1547.29 207.00, 1556.78 205.59, 1566.27 205.24 C 1575.76 204.89, 1585.24 211.15, 1594.73 205.24 C 1604.22 199.33, 1613.71 135.79, 1623.20 169.76 C 1632.69 203.74, 1642.18 369.82, 1651.67 409.09 C 1661.16 448.36, 1670.64 406.13, 1680.13 405.39 C 1689.62 404.64, 1699.11 405.21, 1708.60 404.61 C 1718.09 404.02, 1727.58 403.31, 1737.07 401.81 C 1746.56 400.30, 1756.04 397.30, 1765.53 395.56 C 1775.02 393.83, 1789.26 392.07, 1794.00 391.37 L 1794.00 490 L 86.00 490 Z" fill="url(#areaFill)"/>
  <path d="M 86.00 490.00 C 90.74 490.00, 104.98 490.00, 114.47 490.00 C 123.96 490.00, 133.44 490.00, 142.93 490.00 C 152.42 490.00, 161.91 490.00, 171.40 490.00 C 180.89 490.00, 190.38 490.00, 199.87 490.00 C 209.36 490.00, 218.84 490.00, 228.33 490.00 C 237.82 490.00, 247.31 490.00, 256.80 490.00 C 266.29 489.98, 275.78 489.92, 285.27 489.91 C 294.76 489.89, 304.24 489.91, 313.73 489.91 C 323.22 489.91, 332.71 489.94, 342.20 489.91 C 351.69 489.87, 361.18 489.72, 370.67 489.69 C 380.16 489.65, 389.64 489.70, 399.13 489.69 C 408.62 489.67, 418.11 489.62, 427.60 489.61 C 437.09 489.59, 446.58 490.00, 456.07 489.61 C 465.56 488.99, 475.04 486.51, 484.53 485.89 C 494.02 485.28, 503.51 485.91, 513.00 485.91 C 522.49 485.91, 531.98 485.90, 541.47 485.90 C 550.96 485.90, 560.44 490.00, 569.93 485.89 C 579.42 443.28, 588.91 274.96, 598.40 230.27 C 607.89 185.59, 617.38 219.88, 626.87 217.78 C 636.36 215.68, 645.84 218.05, 655.33 217.69 C 664.82 217.33, 674.31 216.22, 683.80 215.61 C 693.29 215.00, 702.78 214.42, 712.27 214.05 C 721.76 213.67, 731.24 213.51, 740.73 213.37 C 750.22 213.23, 759.71 213.54, 769.20 213.21 C 778.69 212.88, 788.18 211.70, 797.67 211.39 C 807.16 211.09, 816.64 211.39, 826.13 211.39 C 835.62 211.39, 845.11 211.45, 854.60 211.38 C 864.09 211.31, 873.58 211.03, 883.07 210.96 C 892.56 210.89, 902.04 210.96, 911.53 210.96 C 921.02 210.95, 930.51 210.95, 940.00 210.94 C 949.49 210.94, 958.98 210.92, 968.47 210.92 C 977.96 210.92, 987.44 211.38, 996.93 210.94 C 1006.42 210.50, 1015.91 208.73, 1025.40 208.29 C 1034.89 207.84, 1044.38 208.30, 1053.87 208.29 C 1063.36 208.27, 1072.84 208.21, 1082.33 208.20 C 1091.82 208.18, 1101.31 208.18, 1110.80 208.17 C 1120.29 208.17, 1129.78 208.16, 1139.27 208.16 C 1148.76 208.15, 1158.24 208.15, 1167.73 208.15 C 1177.22 208.14, 1186.71 208.13, 1196.20 208.12 C 1205.69 208.12, 1215.18 208.20, 1224.67 208.11 C 1234.16 208.01, 1243.64 207.65, 1253.13 207.56 C 1262.62 207.47, 1272.11 207.55, 1281.60 207.55 C 1291.09 207.55, 1300.58 207.54, 1310.07 207.54 C 1319.56 207.53, 1329.04 207.53, 1338.53 207.52 C 1348.02 207.52, 1357.51 207.51, 1367.00 207.50 C 1376.49 207.49, 1385.98 207.49, 1395.47 207.49 C 1404.96 207.49, 1414.44 207.49, 1423.93 207.49 C 1433.42 207.49, 1442.91 207.50, 1452.40 207.48 C 1461.89 207.46, 1471.38 207.41, 1480.87 207.39 C 1490.36 207.37, 1499.84 207.38, 1509.33 207.37 C 1518.82 207.37, 1528.31 207.71, 1537.80 207.35 C 1547.29 207.00, 1556.78 205.59, 1566.27 205.24 C 1575.76 204.89, 1585.24 211.15, 1594.73 205.24 C 1604.22 199.33, 1613.71 135.79, 1623.20 169.76 C 1632.69 203.74, 1642.18 369.82, 1651.67 409.09 C 1661.16 448.36, 1670.64 406.13, 1680.13 405.39 C 1689.62 404.64, 1699.11 405.21, 1708.60 404.61 C 1718.09 404.02, 1727.58 403.31, 1737.07 401.81 C 1746.56 400.30, 1756.04 397.30, 1765.53 395.56 C 1775.02 393.83, 1789.26 392.07, 1794.00 391.37" fill="none" stroke="#4a90e2" stroke-width="2" stroke-opacity="0.7"/>

  <!-- Bars -->
  <rect x="476.8" y="312.5" width="15.400000000000002" height="88.1"
        fill="url(#gDelBar)" rx="2" opacity="0.78"/><rect x="476.8" y="400.6" width="15.400000000000002" height="89.4"
        fill="url(#gAddBar)" rx="2" opacity="0.82"/><rect x="590.7" y="392.5" width="15.400000000000002" height="2.7"
        fill="url(#gDelBar)" rx="2" opacity="0.78"/><rect x="590.7" y="395.2" width="15.400000000000002" height="94.8"
        fill="url(#gAddBar)" rx="2" opacity="0.82"/><rect x="619.2" y="476.3" width="15.400000000000002" height="4.6"
        fill="url(#gDelBar)" rx="2" opacity="0.78"/><rect x="619.2" y="480.9" width="15.400000000000002" height="9.1"
        fill="url(#gAddBar)" rx="2" opacity="0.82"/><rect x="676.1" y="487.5" width="15.400000000000002" height="0.9"
        fill="url(#gDelBar)" rx="2" opacity="0.78"/><rect x="676.1" y="488.4" width="15.400000000000002" height="1.6"
        fill="url(#gAddBar)" rx="2" opacity="0.82"/><rect x="704.6" y="487.5" width="15.400000000000002" height="1.0"
        fill="url(#gDelBar)" rx="2" opacity="0.78"/><rect x="704.6" y="488.5" width="15.400000000000002" height="1.5"
        fill="url(#gAddBar)" rx="2" opacity="0.82"/><rect x="761.5" y="487.6" width="15.400000000000002" height="1.2"
        fill="url(#gDelBar)" rx="2" opacity="0.78"/><rect x="761.5" y="488.8" width="15.400000000000002" height="1.2"
        fill="url(#gAddBar)" rx="2" opacity="0.82"/><rect x="790.0" y="486.1" width="15.400000000000002" height="1.6"
        fill="url(#gDelBar)" rx="2" opacity="0.78"/><rect x="790.0" y="487.7" width="15.400000000000002" height="2.3"
        fill="url(#gAddBar)" rx="2" opacity="0.82"/><rect x="1017.7" y="488.8" width="15.400000000000002" height="1.2"
        fill="url(#gAddBar)" rx="2" opacity="0.82"/><rect x="1245.4" y="488.7" width="15.400000000000002" height="0.5"
        fill="url(#gDelBar)" rx="2" opacity="0.78"/><rect x="1245.4" y="489.3" width="15.400000000000002" height="0.7"
        fill="url(#gAddBar)" rx="2" opacity="0.82"/><rect x="1558.6" y="479.7" width="15.400000000000002" height="4.8"
        fill="url(#gDelBar)" rx="2" opacity="0.78"/><rect x="1558.6" y="484.5" width="15.400000000000002" height="5.5"
        fill="url(#gAddBar)" rx="2" opacity="0.82"/><rect x="1615.5" y="472.3" width="15.400000000000002" height="2.5"
        fill="url(#gDelBar)" rx="2" opacity="0.78"/><rect x="1615.5" y="474.8" width="15.400000000000002" height="15.2"
        fill="url(#gAddBar)" rx="2" opacity="0.82"/><rect x="1644.0" y="401.3" width="15.400000000000002" height="87.4"
        fill="url(#gDelBar)" rx="2" opacity="0.78"/><rect x="1644.0" y="488.7" width="15.400000000000002" height="1.3"
        fill="url(#gAddBar)" rx="2" opacity="0.82"/><rect x="1672.4" y="479.5" width="15.400000000000002" height="4.6"
        fill="url(#gDelBar)" rx="2" opacity="0.78"/><rect x="1672.4" y="484.1" width="15.400000000000002" height="5.9"
        fill="url(#gAddBar)" rx="2" opacity="0.82"/><rect x="1700.9" y="488.0" width="15.400000000000002" height="0.9"
        fill="url(#gDelBar)" rx="2" opacity="0.78"/><rect x="1700.9" y="488.8" width="15.400000000000002" height="1.2"
        fill="url(#gAddBar)" rx="2" opacity="0.82"/><rect x="1729.4" y="483.7" width="15.400000000000002" height="2.6"
        fill="url(#gDelBar)" rx="2" opacity="0.78"/><rect x="1729.4" y="486.4" width="15.400000000000002" height="3.6"
        fill="url(#gAddBar)" rx="2" opacity="0.82"/><rect x="1757.8" y="484.0" width="15.400000000000002" height="1.9"
        fill="url(#gDelBar)" rx="2" opacity="0.78"/><rect x="1757.8" y="485.9" width="15.400000000000002" height="4.1"
        fill="url(#gAddBar)" rx="2" opacity="0.82"/><rect x="1786.3" y="476.8" width="15.400000000000002" height="5.9"
        fill="url(#gDelBar)" rx="2" opacity="0.78"/><rect x="1786.3" y="482.6" width="15.400000000000002" height="7.4"
        fill="url(#gAddBar)" rx="2" opacity="0.82"/>

  <!-- Commits line — glow + crisp -->
  <path d="M 86.00 485.50 C 90.74 486.25, 104.98 489.25, 114.47 490.00 C 123.96 490.00, 133.44 490.00, 142.93 490.00 C 152.42 490.00, 161.91 490.00, 171.40 490.00 C 180.89 490.00, 190.38 490.00, 199.87 490.00 C 209.36 490.00, 218.84 490.00, 228.33 490.00 C 237.82 490.00, 247.31 490.00, 256.80 490.00 C 266.29 482.50, 275.78 445.00, 285.27 445.00 C 294.76 445.00, 304.24 482.50, 313.73 490.00 C 323.22 490.00, 332.71 490.00, 342.20 490.00 C 351.69 470.50, 361.18 373.00, 370.67 373.00 C 380.16 373.00, 389.64 471.25, 399.13 490.00 C 408.62 490.00, 418.11 485.50, 427.60 485.50 C 437.09 485.50, 446.58 490.00, 456.07 490.00 C 465.56 466.75, 475.04 351.25, 484.53 346.00 C 494.02 340.75, 503.51 436.75, 513.00 458.50 C 522.49 480.25, 531.98 472.00, 541.47 476.50 C 550.96 481.00, 560.44 490.00, 569.93 485.50 C 579.42 438.25, 588.91 225.25, 598.40 193.00 C 607.89 160.75, 617.38 244.00, 626.87 292.00 C 636.36 340.00, 645.84 460.00, 655.33 481.00 C 664.82 490.00, 674.31 427.00, 683.80 418.00 C 693.29 409.00, 702.78 416.50, 712.27 427.00 C 721.76 437.50, 731.24 488.50, 740.73 481.00 C 750.22 473.50, 759.71 394.00, 769.20 382.00 C 778.69 370.00, 788.18 391.75, 797.67 409.00 C 807.16 426.25, 816.64 472.75, 826.13 485.50 C 835.62 490.00, 845.11 490.00, 854.60 485.50 C 864.09 479.50, 873.58 449.50, 883.07 449.50 C 892.56 449.50, 902.04 479.50, 911.53 485.50 C 921.02 490.00, 930.51 485.50, 940.00 485.50 C 949.49 485.50, 958.98 485.50, 968.47 485.50 C 977.96 485.50, 987.44 487.75, 996.93 485.50 C 1006.42 483.25, 1015.91 472.00, 1025.40 472.00 C 1034.89 472.00, 1044.38 483.25, 1053.87 485.50 C 1063.36 487.75, 1072.84 485.50, 1082.33 485.50 C 1091.82 485.50, 1101.31 485.50, 1110.80 485.50 C 1120.29 485.50, 1129.78 485.50, 1139.27 485.50 C 1148.76 485.50, 1158.24 485.50, 1167.73 485.50 C 1177.22 485.50, 1186.71 485.50, 1196.20 485.50 C 1205.69 485.50, 1215.18 487.00, 1224.67 485.50 C 1234.16 484.00, 1243.64 476.50, 1253.13 476.50 C 1262.62 476.50, 1272.11 484.00, 1281.60 485.50 C 1291.09 487.00, 1300.58 485.50, 1310.07 485.50 C 1319.56 485.50, 1329.04 485.50, 1338.53 485.50 C 1348.02 485.50, 1357.51 485.50, 1367.00 485.50 C 1376.49 485.50, 1385.98 485.50, 1395.47 485.50 C 1404.96 485.50, 1414.44 485.50, 1423.93 485.50 C 1433.42 485.50, 1442.91 485.50, 1452.40 485.50 C 1461.89 485.50, 1471.38 485.50, 1480.87 485.50 C 1490.36 485.50, 1499.84 485.50, 1509.33 485.50 C 1518.82 485.50, 1528.31 489.25, 1537.80 485.50 C 1547.29 481.75, 1556.78 463.00, 1566.27 463.00 C 1575.76 463.00, 1585.24 490.00, 1594.73 485.50 C 1604.22 460.75, 1613.71 321.25, 1623.20 314.50 C 1632.69 307.75, 1642.18 443.50, 1651.67 445.00 C 1661.16 446.50, 1670.64 322.75, 1680.13 323.50 C 1689.62 324.25, 1699.11 431.50, 1708.60 449.50 C 1718.09 467.50, 1727.58 431.50, 1737.07 431.50 C 1746.56 431.50, 1756.04 484.00, 1765.53 449.50 C 1775.02 415.00, 1789.26 262.00, 1794.00 224.50" fill="none" stroke="#ff8c42" stroke-width="9" stroke-opacity="0.06" filter="url(#glowLine)"/>
  <path d="M 86.00 485.50 C 90.74 486.25, 104.98 489.25, 114.47 490.00 C 123.96 490.00, 133.44 490.00, 142.93 490.00 C 152.42 490.00, 161.91 490.00, 171.40 490.00 C 180.89 490.00, 190.38 490.00, 199.87 490.00 C 209.36 490.00, 218.84 490.00, 228.33 490.00 C 237.82 490.00, 247.31 490.00, 256.80 490.00 C 266.29 482.50, 275.78 445.00, 285.27 445.00 C 294.76 445.00, 304.24 482.50, 313.73 490.00 C 323.22 490.00, 332.71 490.00, 342.20 490.00 C 351.69 470.50, 361.18 373.00, 370.67 373.00 C 380.16 373.00, 389.64 471.25, 399.13 490.00 C 408.62 490.00, 418.11 485.50, 427.60 485.50 C 437.09 485.50, 446.58 490.00, 456.07 490.00 C 465.56 466.75, 475.04 351.25, 484.53 346.00 C 494.02 340.75, 503.51 436.75, 513.00 458.50 C 522.49 480.25, 531.98 472.00, 541.47 476.50 C 550.96 481.00, 560.44 490.00, 569.93 485.50 C 579.42 438.25, 588.91 225.25, 598.40 193.00 C 607.89 160.75, 617.38 244.00, 626.87 292.00 C 636.36 340.00, 645.84 460.00, 655.33 481.00 C 664.82 490.00, 674.31 427.00, 683.80 418.00 C 693.29 409.00, 702.78 416.50, 712.27 427.00 C 721.76 437.50, 731.24 488.50, 740.73 481.00 C 750.22 473.50, 759.71 394.00, 769.20 382.00 C 778.69 370.00, 788.18 391.75, 797.67 409.00 C 807.16 426.25, 816.64 472.75, 826.13 485.50 C 835.62 490.00, 845.11 490.00, 854.60 485.50 C 864.09 479.50, 873.58 449.50, 883.07 449.50 C 892.56 449.50, 902.04 479.50, 911.53 485.50 C 921.02 490.00, 930.51 485.50, 940.00 485.50 C 949.49 485.50, 958.98 485.50, 968.47 485.50 C 977.96 485.50, 987.44 487.75, 996.93 485.50 C 1006.42 483.25, 1015.91 472.00, 1025.40 472.00 C 1034.89 472.00, 1044.38 483.25, 1053.87 485.50 C 1063.36 487.75, 1072.84 485.50, 1082.33 485.50 C 1091.82 485.50, 1101.31 485.50, 1110.80 485.50 C 1120.29 485.50, 1129.78 485.50, 1139.27 485.50 C 1148.76 485.50, 1158.24 485.50, 1167.73 485.50 C 1177.22 485.50, 1186.71 485.50, 1196.20 485.50 C 1205.69 485.50, 1215.18 487.00, 1224.67 485.50 C 1234.16 484.00, 1243.64 476.50, 1253.13 476.50 C 1262.62 476.50, 1272.11 484.00, 1281.60 485.50 C 1291.09 487.00, 1300.58 485.50, 1310.07 485.50 C 1319.56 485.50, 1329.04 485.50, 1338.53 485.50 C 1348.02 485.50, 1357.51 485.50, 1367.00 485.50 C 1376.49 485.50, 1385.98 485.50, 1395.47 485.50 C 1404.96 485.50, 1414.44 485.50, 1423.93 485.50 C 1433.42 485.50, 1442.91 485.50, 1452.40 485.50 C 1461.89 485.50, 1471.38 485.50, 1480.87 485.50 C 1490.36 485.50, 1499.84 485.50, 1509.33 485.50 C 1518.82 485.50, 1528.31 489.25, 1537.80 485.50 C 1547.29 481.75, 1556.78 463.00, 1566.27 463.00 C 1575.76 463.00, 1585.24 490.00, 1594.73 485.50 C 1604.22 460.75, 1613.71 321.25, 1623.20 314.50 C 1632.69 307.75, 1642.18 443.50, 1651.67 445.00 C 1661.16 446.50, 1670.64 322.75, 1680.13 323.50 C 1689.62 324.25, 1699.11 431.50, 1708.60 449.50 C 1718.09 467.50, 1727.58 431.50, 1737.07 431.50 C 1746.56 431.50, 1756.04 484.00, 1765.53 449.50 C 1775.02 415.00, 1789.26 262.00, 1794.00 224.50" fill="none" stroke="url(#gCommits)" stroke-width="2.8" stroke-linecap="round"/>

  <!-- Changes/commit line -->
  <path d="M 86.00 489.95 C 90.74 489.96, 104.98 489.99, 114.47 490.00 C 123.96 490.00, 133.44 490.00, 142.93 490.00 C 152.42 490.00, 161.91 490.00, 171.40 490.00 C 180.89 490.00, 190.38 490.00, 199.87 490.00 C 209.36 490.00, 218.84 490.00, 228.33 490.00 C 237.82 490.00, 247.31 490.00, 256.80 490.00 C 266.29 489.97, 275.78 489.82, 285.27 489.82 C 294.76 489.82, 304.24 489.97, 313.73 490.00 C 323.22 490.00, 332.71 490.00, 342.20 490.00 C 351.69 489.98, 361.18 489.87, 370.67 489.87 C 380.16 489.87, 389.64 490.00, 399.13 490.00 C 408.62 489.86, 418.11 489.01, 427.60 489.01 C 437.09 489.01, 446.58 490.00, 456.07 490.00 C 465.56 458.07, 475.04 297.56, 484.53 297.44 C 494.02 297.33, 503.51 457.62, 513.00 489.32 C 522.49 490.00, 531.98 487.94, 541.47 487.66 C 550.96 487.38, 560.44 490.00, 569.93 487.66 C 579.42 479.50, 588.91 440.12, 598.40 438.70 C 607.89 437.28, 617.38 472.11, 626.87 479.15 C 636.36 486.20, 645.84 480.05, 655.33 480.95 C 664.82 481.86, 674.31 484.08, 683.80 484.56 C 693.29 485.03, 702.78 483.86, 712.27 483.79 C 721.76 483.72, 731.24 483.70, 740.73 484.15 C 750.22 484.60, 759.71 486.76, 769.20 486.49 C 778.69 486.22, 788.18 482.59, 797.67 482.53 C 807.16 482.47, 816.64 486.48, 826.13 486.13 C 835.62 485.78, 845.11 480.26, 854.60 480.46 C 864.09 480.65, 873.58 486.26, 883.07 487.30 C 892.56 488.34, 902.04 487.88, 911.53 486.67 C 921.02 485.46, 930.51 481.23, 940.00 480.01 C 949.49 478.79, 958.98 479.49, 968.47 479.38 C 977.96 479.27, 987.44 479.64, 996.93 479.38 C 1006.42 479.12, 1015.91 476.63, 1025.40 477.81 C 1034.89 478.98, 1044.38 487.00, 1053.87 486.40 C 1063.36 485.80, 1072.84 475.51, 1082.33 474.20 C 1091.82 472.90, 1101.31 477.86, 1110.80 478.57 C 1120.29 479.28, 1129.78 478.50, 1139.27 478.48 C 1148.76 478.47, 1158.24 478.53, 1167.73 478.48 C 1177.22 478.44, 1186.71 478.31, 1196.20 478.21 C 1205.69 478.10, 1215.18 478.32, 1224.67 477.85 C 1234.16 477.38, 1243.64 473.94, 1253.13 475.38 C 1262.62 476.81, 1272.11 486.17, 1281.60 486.49 C 1291.09 486.81, 1300.58 478.88, 1310.07 477.31 C 1319.56 475.74, 1329.04 477.16, 1338.53 477.04 C 1348.02 476.92, 1357.51 476.71, 1367.00 476.59 C 1376.49 476.47, 1385.98 476.35, 1395.47 476.32 C 1404.96 476.29, 1414.44 476.46, 1423.93 476.41 C 1433.42 476.37, 1442.91 477.12, 1452.40 476.05 C 1461.89 474.98, 1471.38 469.96, 1480.87 469.98 C 1490.36 469.99, 1499.84 477.21, 1509.33 476.14 C 1518.82 475.07, 1528.31 471.21, 1537.80 463.54 C 1547.29 455.88, 1556.78 426.34, 1566.27 430.15 C 1575.76 433.96, 1585.24 479.05, 1594.73 486.40 C 1604.22 490.00, 1613.71 490.00, 1623.20 474.25 C 1632.69 423.52, 1642.18 181.04, 1651.67 182.02 C 1661.16 183.00, 1670.64 430.11, 1680.13 480.14 C 1689.62 490.00, 1699.11 483.37, 1708.60 482.21 C 1718.09 481.06, 1727.58 475.81, 1737.07 473.21 C 1746.56 470.62, 1756.04 465.14, 1765.53 466.64 C 1775.02 468.14, 1789.26 479.62, 1794.00 482.21" fill="none" stroke="#00d4f5" stroke-width="9" stroke-opacity="0.06" filter="url(#glowLine)"/>
  <path d="M 86.00 489.95 C 90.74 489.96, 104.98 489.99, 114.47 490.00 C 123.96 490.00, 133.44 490.00, 142.93 490.00 C 152.42 490.00, 161.91 490.00, 171.40 490.00 C 180.89 490.00, 190.38 490.00, 199.87 490.00 C 209.36 490.00, 218.84 490.00, 228.33 490.00 C 237.82 490.00, 247.31 490.00, 256.80 490.00 C 266.29 489.97, 275.78 489.82, 285.27 489.82 C 294.76 489.82, 304.24 489.97, 313.73 490.00 C 323.22 490.00, 332.71 490.00, 342.20 490.00 C 351.69 489.98, 361.18 489.87, 370.67 489.87 C 380.16 489.87, 389.64 490.00, 399.13 490.00 C 408.62 489.86, 418.11 489.01, 427.60 489.01 C 437.09 489.01, 446.58 490.00, 456.07 490.00 C 465.56 458.07, 475.04 297.56, 484.53 297.44 C 494.02 297.33, 503.51 457.62, 513.00 489.32 C 522.49 490.00, 531.98 487.94, 541.47 487.66 C 550.96 487.38, 560.44 490.00, 569.93 487.66 C 579.42 479.50, 588.91 440.12, 598.40 438.70 C 607.89 437.28, 617.38 472.11, 626.87 479.15 C 636.36 486.20, 645.84 480.05, 655.33 480.95 C 664.82 481.86, 674.31 484.08, 683.80 484.56 C 693.29 485.03, 702.78 483.86, 712.27 483.79 C 721.76 483.72, 731.24 483.70, 740.73 484.15 C 750.22 484.60, 759.71 486.76, 769.20 486.49 C 778.69 486.22, 788.18 482.59, 797.67 482.53 C 807.16 482.47, 816.64 486.48, 826.13 486.13 C 835.62 485.78, 845.11 480.26, 854.60 480.46 C 864.09 480.65, 873.58 486.26, 883.07 487.30 C 892.56 488.34, 902.04 487.88, 911.53 486.67 C 921.02 485.46, 930.51 481.23, 940.00 480.01 C 949.49 478.79, 958.98 479.49, 968.47 479.38 C 977.96 479.27, 987.44 479.64, 996.93 479.38 C 1006.42 479.12, 1015.91 476.63, 1025.40 477.81 C 1034.89 478.98, 1044.38 487.00, 1053.87 486.40 C 1063.36 485.80, 1072.84 475.51, 1082.33 474.20 C 1091.82 472.90, 1101.31 477.86, 1110.80 478.57 C 1120.29 479.28, 1129.78 478.50, 1139.27 478.48 C 1148.76 478.47, 1158.24 478.53, 1167.73 478.48 C 1177.22 478.44, 1186.71 478.31, 1196.20 478.21 C 1205.69 478.10, 1215.18 478.32, 1224.67 477.85 C 1234.16 477.38, 1243.64 473.94, 1253.13 475.38 C 1262.62 476.81, 1272.11 486.17, 1281.60 486.49 C 1291.09 486.81, 1300.58 478.88, 1310.07 477.31 C 1319.56 475.74, 1329.04 477.16, 1338.53 477.04 C 1348.02 476.92, 1357.51 476.71, 1367.00 476.59 C 1376.49 476.47, 1385.98 476.35, 1395.47 476.32 C 1404.96 476.29, 1414.44 476.46, 1423.93 476.41 C 1433.42 476.37, 1442.91 477.12, 1452.40 476.05 C 1461.89 474.98, 1471.38 469.96, 1480.87 469.98 C 1490.36 469.99, 1499.84 477.21, 1509.33 476.14 C 1518.82 475.07, 1528.31 471.21, 1537.80 463.54 C 1547.29 455.88, 1556.78 426.34, 1566.27 430.15 C 1575.76 433.96, 1585.24 479.05, 1594.73 486.40 C 1604.22 490.00, 1613.71 490.00, 1623.20 474.25 C 1632.69 423.52, 1642.18 181.04, 1651.67 182.02 C 1661.16 183.00, 1670.64 430.11, 1680.13 480.14 C 1689.62 490.00, 1699.11 483.37, 1708.60 482.21 C 1718.09 481.06, 1727.58 475.81, 1737.07 473.21 C 1746.56 470.62, 1756.04 465.14, 1765.53 466.64 C 1775.02 468.14, 1789.26 479.62, 1794.00 482.21" fill="none" stroke="url(#gChanges)" stroke-width="2.5" stroke-linecap="round"/>

  <!-- Moving averages -->
  <path d="M 86.00 488.88 C 90.74 488.91, 104.98 489.04, 114.47 489.10 C 123.96 489.16, 133.44 489.21, 142.93 489.25 C 152.42 489.29, 161.91 490.00, 171.40 489.36 C 180.89 488.41, 190.38 484.54, 199.87 483.57 C 209.36 482.61, 218.84 483.57, 228.33 483.57 C 237.82 483.57, 247.31 486.36, 256.80 483.57 C 266.29 480.79, 275.78 469.64, 285.27 466.86 C 294.76 464.07, 304.24 466.96, 313.73 466.86 C 323.22 466.75, 332.71 466.32, 342.20 466.21 C 351.69 466.11, 361.18 468.57, 370.67 466.21 C 380.16 463.86, 389.64 455.18, 399.13 452.07 C 408.62 448.96, 418.11 448.64, 427.60 447.57 C 437.09 446.50, 446.58 443.29, 456.07 445.64 C 465.56 448.00, 475.04 466.11, 484.53 461.71 C 494.02 457.32, 503.51 430.96, 513.00 419.29 C 522.49 407.61, 531.98 396.46, 541.47 391.64 C 550.96 386.82, 560.44 388.86, 569.93 390.36 C 579.42 391.86, 588.91 399.68, 598.40 400.64 C 607.89 401.61, 617.38 396.79, 626.87 396.14 C 636.36 395.50, 645.84 399.14, 655.33 396.79 C 664.82 394.43, 674.31 379.32, 683.80 382.00 C 693.29 384.68, 702.78 403.11, 712.27 412.86 C 721.76 422.61, 731.24 435.79, 740.73 440.50 C 750.22 445.21, 759.71 440.29, 769.20 441.14 C 778.69 442.00, 788.18 443.50, 797.67 445.64 C 807.16 447.79, 816.64 452.50, 826.13 454.00 C 835.62 455.50, 845.11 452.07, 854.60 454.64 C 864.09 457.21, 873.58 465.14, 883.07 469.43 C 892.56 473.71, 902.04 478.86, 911.53 480.36 C 921.02 481.86, 930.51 478.75, 940.00 478.43 C 949.49 478.11, 958.98 477.57, 968.47 478.43 C 977.96 479.29, 987.44 482.71, 996.93 483.57 C 1006.42 484.43, 1015.91 483.57, 1025.40 483.57 C 1034.89 483.57, 1044.38 483.57, 1053.87 483.57 C 1063.36 483.57, 1072.84 483.57, 1082.33 483.57 C 1091.82 483.57, 1101.31 483.25, 1110.80 483.57 C 1120.29 483.89, 1129.78 485.39, 1139.27 485.50 C 1148.76 485.61, 1158.24 484.43, 1167.73 484.21 C 1177.22 484.00, 1186.71 484.21, 1196.20 484.21 C 1205.69 484.21, 1215.18 484.21, 1224.67 484.21 C 1234.16 484.21, 1243.64 484.21, 1253.13 484.21 C 1262.62 484.21, 1272.11 484.21, 1281.60 484.21 C 1291.09 484.21, 1300.58 484.21, 1310.07 484.21 C 1319.56 484.21, 1329.04 484.00, 1338.53 484.21 C 1348.02 484.43, 1357.51 485.29, 1367.00 485.50 C 1376.49 485.71, 1385.98 485.50, 1395.47 485.50 C 1404.96 485.50, 1414.44 485.50, 1423.93 485.50 C 1433.42 485.50, 1442.91 486.04, 1452.40 485.50 C 1461.89 484.96, 1471.38 482.82, 1480.87 482.29 C 1490.36 481.75, 1499.84 486.36, 1509.33 482.29 C 1518.82 478.21, 1528.31 462.89, 1537.80 457.86 C 1547.29 452.82, 1556.78 456.89, 1566.27 452.07 C 1575.76 447.25, 1585.24 433.64, 1594.73 428.93 C 1604.22 424.21, 1613.71 425.93, 1623.20 423.79 C 1632.69 421.64, 1642.18 417.68, 1651.67 416.07 C 1661.16 414.46, 1670.64 420.68, 1680.13 414.14 C 1689.62 407.61, 1699.11 381.34, 1708.60 376.86 C 1718.09 372.38, 1727.58 387.44, 1737.07 387.25 C 1746.56 387.06, 1756.04 375.45, 1765.53 375.70 C 1775.02 375.95, 1789.26 386.57, 1794.00 388.75" fill="none" stroke="#a78bfa" stroke-width="2" stroke-dasharray="6,4" stroke-opacity="0.55" filter="url(#glowMA)"/>
  <path d="M 86.00 489.99 C 90.74 489.99, 104.98 489.99, 114.47 489.99 C 123.96 489.99, 133.44 489.99, 142.93 489.99 C 152.42 489.99, 161.91 490.00, 171.40 489.99 C 180.89 489.99, 190.38 489.98, 199.87 489.97 C 209.36 489.97, 218.84 489.97, 228.33 489.97 C 237.82 489.97, 247.31 489.98, 256.80 489.97 C 266.29 489.97, 275.78 489.96, 285.27 489.95 C 294.76 489.95, 304.24 489.98, 313.73 489.95 C 323.22 489.93, 332.71 489.84, 342.20 489.81 C 351.69 489.79, 361.18 490.00, 370.67 489.81 C 380.16 485.23, 389.64 466.93, 399.13 462.33 C 408.62 457.73, 418.11 462.31, 427.60 462.24 C 437.09 462.16, 446.58 462.01, 456.07 461.90 C 465.56 461.79, 475.04 462.86, 484.53 461.59 C 494.02 460.31, 503.51 455.71, 513.00 454.26 C 522.49 452.80, 531.98 453.30, 541.47 452.85 C 550.96 452.40, 560.44 447.32, 569.93 451.56 C 579.42 455.80, 588.91 473.96, 598.40 478.29 C 607.89 482.61, 617.38 477.71, 626.87 477.50 C 636.36 477.28, 645.84 477.11, 655.33 477.00 C 664.82 476.88, 674.31 475.81, 683.80 476.83 C 693.29 477.84, 702.78 481.88, 712.27 483.09 C 721.76 484.30, 731.24 483.93, 740.73 484.09 C 750.22 484.24, 759.71 483.96, 769.20 484.01 C 778.69 484.07, 788.18 484.27, 797.67 484.41 C 807.16 484.54, 816.64 484.85, 826.13 484.82 C 835.62 484.79, 845.11 484.50, 854.60 484.23 C 864.09 483.96, 873.58 483.46, 883.07 483.21 C 892.56 482.97, 902.04 483.03, 911.53 482.76 C 921.02 482.49, 930.51 481.63, 940.00 481.57 C 949.49 481.52, 958.98 482.59, 968.47 482.42 C 977.96 482.25, 987.44 481.05, 996.93 480.55 C 1006.42 480.05, 1015.91 479.62, 1025.40 479.39 C 1034.89 479.16, 1044.38 479.23, 1053.87 479.17 C 1063.36 479.12, 1072.84 479.09, 1082.33 479.05 C 1091.82 479.00, 1101.31 478.91, 1110.80 478.88 C 1120.29 478.85, 1129.78 479.15, 1139.27 478.88 C 1148.76 478.62, 1158.24 477.28, 1167.73 477.31 C 1177.22 477.34, 1186.71 478.80, 1196.20 479.06 C 1205.69 479.33, 1215.18 478.95, 1224.67 478.88 C 1234.16 478.82, 1243.64 478.76, 1253.13 478.68 C 1262.62 478.60, 1272.11 478.50, 1281.60 478.41 C 1291.09 478.32, 1300.58 478.22, 1310.07 478.14 C 1319.56 478.06, 1329.04 477.95, 1338.53 477.93 C 1348.02 477.92, 1357.51 478.41, 1367.00 478.03 C 1376.49 477.65, 1385.98 476.09, 1395.47 475.67 C 1404.96 475.25, 1414.44 475.85, 1423.93 475.50 C 1433.42 475.15, 1442.91 475.00, 1452.40 473.57 C 1461.89 472.15, 1471.38 467.81, 1480.87 466.94 C 1490.36 466.08, 1499.84 468.19, 1509.33 468.38 C 1518.82 468.57, 1528.31 475.12, 1537.80 468.07 C 1547.29 461.02, 1556.78 432.83, 1566.27 426.07 C 1575.76 419.31, 1585.24 427.13, 1594.73 427.52 C 1604.22 427.91, 1613.71 428.01, 1623.20 428.39 C 1632.69 428.76, 1642.18 428.67, 1651.67 429.77 C 1661.16 430.87, 1670.64 434.21, 1680.13 434.98 C 1689.62 435.75, 1699.11 435.59, 1708.60 434.39 C 1718.09 433.18, 1727.58 420.66, 1737.07 427.74 C 1746.56 434.83, 1756.04 468.83, 1765.53 476.89 C 1775.02 484.94, 1789.26 476.21, 1794.00 476.07" fill="none" stroke="#c4b5fd" stroke-width="1.5" stroke-dasharray="5,4" stroke-opacity="0.4"/>

  <!-- Statistical overlay -->
  <line x1="86" y1="446.9" x2="1794" y2="446.9"
      stroke="#ff8c42" stroke-width="1" stroke-dasharray="8,4" opacity="0.3"/>
    <text x="1806" y="440.9" font-size="8" fill="#ff8c42"
      text-anchor="start" font-family="'Lexend','Segoe UI',sans-serif" font-weight="300" opacity="0.6">μ=9.6</text>

  <!-- Data point circles (inside clip for safety) -->
  <circle cx="86.0" cy="485.5" r="3.0"
        fill="#ff8c42" stroke="#ffd0a0" stroke-width="1" filter="url(#glowOrange)" opacity="0.9">
        <title>2026-03-10: 1 commits</title></circle><circle cx="285.3" cy="445.0" r="3.3"
        fill="#ff8c42" stroke="#ffd0a0" stroke-width="1" filter="url(#glowOrange)" opacity="0.9">
        <title>2026-03-17: 10 commits</title></circle><circle cx="370.7" cy="373.0" r="3.8"
        fill="#ff8c42" stroke="#ffd0a0" stroke-width="1" filter="url(#glowOrange)" opacity="0.9">
        <title>2026-03-20: 26 commits</title></circle><circle cx="427.6" cy="485.5" r="3.0"
        fill="#ff8c42" stroke="#ffd0a0" stroke-width="1" filter="url(#glowOrange)" opacity="0.9">
        <title>2026-03-22: 1 commits</title></circle><circle cx="484.5" cy="346.0" r="4.0"
        fill="#ff8c42" stroke="#ffd0a0" stroke-width="1" filter="url(#glowOrange)" opacity="0.9">
        <title>2026-03-24: 32 commits</title></circle><circle cx="513.0" cy="458.5" r="3.2"
        fill="#ff8c42" stroke="#ffd0a0" stroke-width="1" filter="url(#glowOrange)" opacity="0.9">
        <title>2026-03-25: 7 commits</title></circle><circle cx="541.5" cy="476.5" r="3.1"
        fill="#ff8c42" stroke="#ffd0a0" stroke-width="1" filter="url(#glowOrange)" opacity="0.9">
        <title>2026-03-26: 3 commits</title></circle><circle cx="569.9" cy="485.5" r="3.0"
        fill="#ff8c42" stroke="#ffd0a0" stroke-width="1" filter="url(#glowOrange)" opacity="0.9">
        <title>2026-03-27: 1 commits</title></circle><circle cx="598.4" cy="193.0" r="5.1"
        fill="#ff8c42" stroke="#ffd0a0" stroke-width="1" filter="url(#glowOrange)" opacity="0.9">
        <title>2026-03-28: 66 commits</title></circle><circle cx="626.9" cy="292.0" r="4.4"
        fill="#ff8c42" stroke="#ffd0a0" stroke-width="1" filter="url(#glowOrange)" opacity="0.9">
        <title>2026-03-29: 44 commits</title></circle><circle cx="655.3" cy="481.0" r="3.1"
        fill="#ff8c42" stroke="#ffd0a0" stroke-width="1" filter="url(#glowOrange)" opacity="0.9">
        <title>2026-03-30: 2 commits</title></circle><circle cx="683.8" cy="418.0" r="3.5"
        fill="#ff8c42" stroke="#ffd0a0" stroke-width="1" filter="url(#glowOrange)" opacity="0.9">
        <title>2026-03-31: 16 commits</title></circle><circle cx="712.3" cy="427.0" r="3.4"
        fill="#ff8c42" stroke="#ffd0a0" stroke-width="1" filter="url(#glowOrange)" opacity="0.9">
        <title>2026-04-01: 14 commits</title></circle><circle cx="740.7" cy="481.0" r="3.1"
        fill="#ff8c42" stroke="#ffd0a0" stroke-width="1" filter="url(#glowOrange)" opacity="0.9">
        <title>2026-04-02: 2 commits</title></circle><circle cx="769.2" cy="382.0" r="3.8"
        fill="#ff8c42" stroke="#ffd0a0" stroke-width="1" filter="url(#glowOrange)" opacity="0.9">
        <title>2026-04-03: 24 commits</title></circle><circle cx="797.7" cy="409.0" r="3.6"
        fill="#ff8c42" stroke="#ffd0a0" stroke-width="1" filter="url(#glowOrange)" opacity="0.9">
        <title>2026-04-04: 18 commits</title></circle><circle cx="826.1" cy="485.5" r="3.0"
        fill="#ff8c42" stroke="#ffd0a0" stroke-width="1" filter="url(#glowOrange)" opacity="0.9">
        <title>2026-04-05: 1 commits</title></circle><circle cx="854.6" cy="485.5" r="3.0"
        fill="#ff8c42" stroke="#ffd0a0" stroke-width="1" filter="url(#glowOrange)" opacity="0.9">
        <title>2026-04-06: 1 commits</title></circle><circle cx="883.1" cy="449.5" r="3.3"
        fill="#ff8c42" stroke="#ffd0a0" stroke-width="1" filter="url(#glowOrange)" opacity="0.9">
        <title>2026-04-07: 9 commits</title></circle><circle cx="911.5" cy="485.5" r="3.0"
        fill="#ff8c42" stroke="#ffd0a0" stroke-width="1" filter="url(#glowOrange)" opacity="0.9">
        <title>2026-04-08: 1 commits</title></circle><circle cx="940.0" cy="485.5" r="3.0"
        fill="#ff8c42" stroke="#ffd0a0" stroke-width="1" filter="url(#glowOrange)" opacity="0.9">
        <title>2026-04-09: 1 commits</title></circle><circle cx="968.5" cy="485.5" r="3.0"
        fill="#ff8c42" stroke="#ffd0a0" stroke-width="1" filter="url(#glowOrange)" opacity="0.9">
        <title>2026-04-10: 1 commits</title></circle><circle cx="996.9" cy="485.5" r="3.0"
        fill="#ff8c42" stroke="#ffd0a0" stroke-width="1" filter="url(#glowOrange)" opacity="0.9">
        <title>2026-04-11: 1 commits</title></circle><circle cx="1025.4" cy="472.0" r="3.1"
        fill="#ff8c42" stroke="#ffd0a0" stroke-width="1" filter="url(#glowOrange)" opacity="0.9">
        <title>2026-04-12: 4 commits</title></circle><circle cx="1053.9" cy="485.5" r="3.0"
        fill="#ff8c42" stroke="#ffd0a0" stroke-width="1" filter="url(#glowOrange)" opacity="0.9">
        <title>2026-04-13: 1 commits</title></circle><circle cx="1082.3" cy="485.5" r="3.0"
        fill="#ff8c42" stroke="#ffd0a0" stroke-width="1" filter="url(#glowOrange)" opacity="0.9">
        <title>2026-04-14: 1 commits</title></circle><circle cx="1110.8" cy="485.5" r="3.0"
        fill="#ff8c42" stroke="#ffd0a0" stroke-width="1" filter="url(#glowOrange)" opacity="0.9">
        <title>2026-04-15: 1 commits</title></circle><circle cx="1139.3" cy="485.5" r="3.0"
        fill="#ff8c42" stroke="#ffd0a0" stroke-width="1" filter="url(#glowOrange)" opacity="0.9">
        <title>2026-04-16: 1 commits</title></circle><circle cx="1167.7" cy="485.5" r="3.0"
        fill="#ff8c42" stroke="#ffd0a0" stroke-width="1" filter="url(#glowOrange)" opacity="0.9">
        <title>2026-04-17: 1 commits</title></circle><circle cx="1196.2" cy="485.5" r="3.0"
        fill="#ff8c42" stroke="#ffd0a0" stroke-width="1" filter="url(#glowOrange)" opacity="0.9">
        <title>2026-04-18: 1 commits</title></circle><circle cx="1224.7" cy="485.5" r="3.0"
        fill="#ff8c42" stroke="#ffd0a0" stroke-width="1" filter="url(#glowOrange)" opacity="0.9">
        <title>2026-04-19: 1 commits</title></circle><circle cx="1253.1" cy="476.5" r="3.1"
        fill="#ff8c42" stroke="#ffd0a0" stroke-width="1" filter="url(#glowOrange)" opacity="0.9">
        <title>2026-04-20: 3 commits</title></circle><circle cx="1281.6" cy="485.5" r="3.0"
        fill="#ff8c42" stroke="#ffd0a0" stroke-width="1" filter="url(#glowOrange)" opacity="0.9">
        <title>2026-04-21: 1 commits</title></circle><circle cx="1310.1" cy="485.5" r="3.0"
        fill="#ff8c42" stroke="#ffd0a0" stroke-width="1" filter="url(#glowOrange)" opacity="0.9">
        <title>2026-04-22: 1 commits</title></circle><circle cx="1338.5" cy="485.5" r="3.0"
        fill="#ff8c42" stroke="#ffd0a0" stroke-width="1" filter="url(#glowOrange)" opacity="0.9">
        <title>2026-04-23: 1 commits</title></circle><circle cx="1367.0" cy="485.5" r="3.0"
        fill="#ff8c42" stroke="#ffd0a0" stroke-width="1" filter="url(#glowOrange)" opacity="0.9">
        <title>2026-04-24: 1 commits</title></circle><circle cx="1395.5" cy="485.5" r="3.0"
        fill="#ff8c42" stroke="#ffd0a0" stroke-width="1" filter="url(#glowOrange)" opacity="0.9">
        <title>2026-04-25: 1 commits</title></circle><circle cx="1423.9" cy="485.5" r="3.0"
        fill="#ff8c42" stroke="#ffd0a0" stroke-width="1" filter="url(#glowOrange)" opacity="0.9">
        <title>2026-04-26: 1 commits</title></circle><circle cx="1452.4" cy="485.5" r="3.0"
        fill="#ff8c42" stroke="#ffd0a0" stroke-width="1" filter="url(#glowOrange)" opacity="0.9">
        <title>2026-04-27: 1 commits</title></circle><circle cx="1480.9" cy="485.5" r="3.0"
        fill="#ff8c42" stroke="#ffd0a0" stroke-width="1" filter="url(#glowOrange)" opacity="0.9">
        <title>2026-04-28: 1 commits</title></circle><circle cx="1509.3" cy="485.5" r="3.0"
        fill="#ff8c42" stroke="#ffd0a0" stroke-width="1" filter="url(#glowOrange)" opacity="0.9">
        <title>2026-04-29: 1 commits</title></circle><circle cx="1537.8" cy="485.5" r="3.0"
        fill="#ff8c42" stroke="#ffd0a0" stroke-width="1" filter="url(#glowOrange)" opacity="0.9">
        <title>2026-04-30: 1 commits</title></circle><circle cx="1566.3" cy="463.0" r="3.2"
        fill="#ff8c42" stroke="#ffd0a0" stroke-width="1" filter="url(#glowOrange)" opacity="0.9">
        <title>2026-05-01: 6 commits</title></circle><circle cx="1594.7" cy="485.5" r="3.0"
        fill="#ff8c42" stroke="#ffd0a0" stroke-width="1" filter="url(#glowOrange)" opacity="0.9">
        <title>2026-05-02: 1 commits</title></circle><circle cx="1623.2" cy="314.5" r="4.2"
        fill="#ff8c42" stroke="#ffd0a0" stroke-width="1" filter="url(#glowOrange)" opacity="0.9">
        <title>2026-05-03: 39 commits</title></circle><circle cx="1651.7" cy="445.0" r="3.3"
        fill="#ff8c42" stroke="#ffd0a0" stroke-width="1" filter="url(#glowOrange)" opacity="0.9">
        <title>2026-05-04: 10 commits</title></circle><circle cx="1680.1" cy="323.5" r="4.2"
        fill="#ff8c42" stroke="#ffd0a0" stroke-width="1" filter="url(#glowOrange)" opacity="0.9">
        <title>2026-05-05: 37 commits</title></circle><circle cx="1708.6" cy="449.5" r="3.3"
        fill="#ff8c42" stroke="#ffd0a0" stroke-width="1" filter="url(#glowOrange)" opacity="0.9">
        <title>2026-05-06: 9 commits</title></circle><circle cx="1737.1" cy="431.5" r="3.4"
        fill="#ff8c42" stroke="#ffd0a0" stroke-width="1" filter="url(#glowOrange)" opacity="0.9">
        <title>2026-05-07: 13 commits</title></circle><circle cx="1765.5" cy="449.5" r="3.3"
        fill="#ff8c42" stroke="#ffd0a0" stroke-width="1" filter="url(#glowOrange)" opacity="0.9">
        <title>2026-05-08: 9 commits</title></circle><circle cx="1794.0" cy="224.5" r="4.8"
        fill="#ff8c42" stroke="#ffd0a0" stroke-width="1" filter="url(#glowOrange)" opacity="0.9">
        <title>2026-05-09: 59 commits</title></circle>
  <circle cx="86.0" cy="490.0" r="3.5"
        fill="#00d4f5" stroke="#80eeff" stroke-width="0.8" filter="url(#glowCyan)" opacity="0.85">
        <title>2026-03-10: 1 changes/commit</title></circle><circle cx="285.3" cy="489.8" r="3.5"
        fill="#00d4f5" stroke="#80eeff" stroke-width="0.8" filter="url(#glowCyan)" opacity="0.85">
        <title>2026-03-17: 4 changes/commit</title></circle><circle cx="370.7" cy="489.9" r="3.5"
        fill="#00d4f5" stroke="#80eeff" stroke-width="0.8" filter="url(#glowCyan)" opacity="0.85">
        <title>2026-03-20: 3 changes/commit</title></circle><circle cx="427.6" cy="489.0" r="3.5"
        fill="#00d4f5" stroke="#80eeff" stroke-width="0.8" filter="url(#glowCyan)" opacity="0.85">
        <title>2026-03-22: 22 changes/commit</title></circle><circle cx="484.5" cy="297.4" r="3.5"
        fill="#00d4f5" stroke="#80eeff" stroke-width="0.8" filter="url(#glowCyan)" opacity="0.85">
        <title>2026-03-24: 4279 changes/commit</title></circle><circle cx="513.0" cy="489.3" r="3.5"
        fill="#00d4f5" stroke="#80eeff" stroke-width="0.8" filter="url(#glowCyan)" opacity="0.85">
        <title>2026-03-25: 15 changes/commit</title></circle><circle cx="541.5" cy="487.7" r="3.5"
        fill="#00d4f5" stroke="#80eeff" stroke-width="0.8" filter="url(#glowCyan)" opacity="0.85">
        <title>2026-03-26: 52 changes/commit</title></circle><circle cx="569.9" cy="487.7" r="3.5"
        fill="#00d4f5" stroke="#80eeff" stroke-width="0.8" filter="url(#glowCyan)" opacity="0.85">
        <title>2026-03-27: 52 changes/commit</title></circle><circle cx="598.4" cy="438.7" r="3.5"
        fill="#00d4f5" stroke="#80eeff" stroke-width="0.8" filter="url(#glowCyan)" opacity="0.85">
        <title>2026-03-28: 1140 changes/commit</title></circle><circle cx="626.9" cy="479.2" r="3.5"
        fill="#00d4f5" stroke="#80eeff" stroke-width="0.8" filter="url(#glowCyan)" opacity="0.85">
        <title>2026-03-29: 241 changes/commit</title></circle><circle cx="655.3" cy="481.0" r="3.5"
        fill="#00d4f5" stroke="#80eeff" stroke-width="0.8" filter="url(#glowCyan)" opacity="0.85">
        <title>2026-03-30: 201 changes/commit</title></circle><circle cx="683.8" cy="484.6" r="3.5"
        fill="#00d4f5" stroke="#80eeff" stroke-width="0.8" filter="url(#glowCyan)" opacity="0.85">
        <title>2026-03-31: 121 changes/commit</title></circle><circle cx="712.3" cy="483.8" r="3.5"
        fill="#00d4f5" stroke="#80eeff" stroke-width="0.8" filter="url(#glowCyan)" opacity="0.85">
        <title>2026-04-01: 138 changes/commit</title></circle><circle cx="740.7" cy="484.1" r="3.5"
        fill="#00d4f5" stroke="#80eeff" stroke-width="0.8" filter="url(#glowCyan)" opacity="0.85">
        <title>2026-04-02: 130 changes/commit</title></circle><circle cx="769.2" cy="486.5" r="3.5"
        fill="#00d4f5" stroke="#80eeff" stroke-width="0.8" filter="url(#glowCyan)" opacity="0.85">
        <title>2026-04-03: 78 changes/commit</title></circle><circle cx="797.7" cy="482.5" r="3.5"
        fill="#00d4f5" stroke="#80eeff" stroke-width="0.8" filter="url(#glowCyan)" opacity="0.85">
        <title>2026-04-04: 166 changes/commit</title></circle><circle cx="826.1" cy="486.1" r="3.5"
        fill="#00d4f5" stroke="#80eeff" stroke-width="0.8" filter="url(#glowCyan)" opacity="0.85">
        <title>2026-04-05: 86 changes/commit</title></circle><circle cx="854.6" cy="480.5" r="3.5"
        fill="#00d4f5" stroke="#80eeff" stroke-width="0.8" filter="url(#glowCyan)" opacity="0.85">
        <title>2026-04-06: 212 changes/commit</title></circle><circle cx="883.1" cy="487.3" r="3.5"
        fill="#00d4f5" stroke="#80eeff" stroke-width="0.8" filter="url(#glowCyan)" opacity="0.85">
        <title>2026-04-07: 60 changes/commit</title></circle><circle cx="911.5" cy="486.7" r="3.5"
        fill="#00d4f5" stroke="#80eeff" stroke-width="0.8" filter="url(#glowCyan)" opacity="0.85">
        <title>2026-04-08: 74 changes/commit</title></circle><circle cx="940.0" cy="480.0" r="3.5"
        fill="#00d4f5" stroke="#80eeff" stroke-width="0.8" filter="url(#glowCyan)" opacity="0.85">
        <title>2026-04-09: 222 changes/commit</title></circle><circle cx="968.5" cy="479.4" r="3.5"
        fill="#00d4f5" stroke="#80eeff" stroke-width="0.8" filter="url(#glowCyan)" opacity="0.85">
        <title>2026-04-10: 236 changes/commit</title></circle><circle cx="996.9" cy="479.4" r="3.5"
        fill="#00d4f5" stroke="#80eeff" stroke-width="0.8" filter="url(#glowCyan)" opacity="0.85">
        <title>2026-04-11: 236 changes/commit</title></circle><circle cx="1025.4" cy="477.8" r="3.5"
        fill="#00d4f5" stroke="#80eeff" stroke-width="0.8" filter="url(#glowCyan)" opacity="0.85">
        <title>2026-04-12: 271 changes/commit</title></circle><circle cx="1053.9" cy="486.4" r="3.5"
        fill="#00d4f5" stroke="#80eeff" stroke-width="0.8" filter="url(#glowCyan)" opacity="0.85">
        <title>2026-04-13: 80 changes/commit</title></circle><circle cx="1082.3" cy="474.2" r="3.5"
        fill="#00d4f5" stroke="#80eeff" stroke-width="0.8" filter="url(#glowCyan)" opacity="0.85">
        <title>2026-04-14: 351 changes/commit</title></circle><circle cx="1110.8" cy="478.6" r="3.5"
        fill="#00d4f5" stroke="#80eeff" stroke-width="0.8" filter="url(#glowCyan)" opacity="0.85">
        <title>2026-04-15: 254 changes/commit</title></circle><circle cx="1139.3" cy="478.5" r="3.5"
        fill="#00d4f5" stroke="#80eeff" stroke-width="0.8" filter="url(#glowCyan)" opacity="0.85">
        <title>2026-04-16: 256 changes/commit</title></circle><circle cx="1167.7" cy="478.5" r="3.5"
        fill="#00d4f5" stroke="#80eeff" stroke-width="0.8" filter="url(#glowCyan)" opacity="0.85">
        <title>2026-04-17: 256 changes/commit</title></circle><circle cx="1196.2" cy="478.2" r="3.5"
        fill="#00d4f5" stroke="#80eeff" stroke-width="0.8" filter="url(#glowCyan)" opacity="0.85">
        <title>2026-04-18: 262 changes/commit</title></circle><circle cx="1224.7" cy="477.9" r="3.5"
        fill="#00d4f5" stroke="#80eeff" stroke-width="0.8" filter="url(#glowCyan)" opacity="0.85">
        <title>2026-04-19: 270 changes/commit</title></circle><circle cx="1253.1" cy="475.4" r="3.5"
        fill="#00d4f5" stroke="#80eeff" stroke-width="0.8" filter="url(#glowCyan)" opacity="0.85">
        <title>2026-04-20: 325 changes/commit</title></circle><circle cx="1281.6" cy="486.5" r="3.5"
        fill="#00d4f5" stroke="#80eeff" stroke-width="0.8" filter="url(#glowCyan)" opacity="0.85">
        <title>2026-04-21: 78 changes/commit</title></circle><circle cx="1310.1" cy="477.3" r="3.5"
        fill="#00d4f5" stroke="#80eeff" stroke-width="0.8" filter="url(#glowCyan)" opacity="0.85">
        <title>2026-04-22: 282 changes/commit</title></circle><circle cx="1338.5" cy="477.0" r="3.5"
        fill="#00d4f5" stroke="#80eeff" stroke-width="0.8" filter="url(#glowCyan)" opacity="0.85">
        <title>2026-04-23: 288 changes/commit</title></circle><circle cx="1367.0" cy="476.6" r="3.5"
        fill="#00d4f5" stroke="#80eeff" stroke-width="0.8" filter="url(#glowCyan)" opacity="0.85">
        <title>2026-04-24: 298 changes/commit</title></circle><circle cx="1395.5" cy="476.3" r="3.5"
        fill="#00d4f5" stroke="#80eeff" stroke-width="0.8" filter="url(#glowCyan)" opacity="0.85">
        <title>2026-04-25: 304 changes/commit</title></circle><circle cx="1423.9" cy="476.4" r="3.5"
        fill="#00d4f5" stroke="#80eeff" stroke-width="0.8" filter="url(#glowCyan)" opacity="0.85">
        <title>2026-04-26: 302 changes/commit</title></circle><circle cx="1452.4" cy="476.1" r="3.5"
        fill="#00d4f5" stroke="#80eeff" stroke-width="0.8" filter="url(#glowCyan)" opacity="0.85">
        <title>2026-04-27: 310 changes/commit</title></circle><circle cx="1480.9" cy="470.0" r="3.5"
        fill="#00d4f5" stroke="#80eeff" stroke-width="0.8" filter="url(#glowCyan)" opacity="0.85">
        <title>2026-04-28: 445 changes/commit</title></circle><circle cx="1509.3" cy="476.1" r="3.5"
        fill="#00d4f5" stroke="#80eeff" stroke-width="0.8" filter="url(#glowCyan)" opacity="0.85">
        <title>2026-04-29: 308 changes/commit</title></circle><circle cx="1537.8" cy="463.5" r="3.5"
        fill="#00d4f5" stroke="#80eeff" stroke-width="0.8" filter="url(#glowCyan)" opacity="0.85">
        <title>2026-04-30: 588 changes/commit</title></circle><circle cx="1566.3" cy="430.1" r="3.5"
        fill="#00d4f5" stroke="#80eeff" stroke-width="0.8" filter="url(#glowCyan)" opacity="0.85">
        <title>2026-05-01: 1330 changes/commit</title></circle><circle cx="1594.7" cy="486.4" r="3.5"
        fill="#00d4f5" stroke="#80eeff" stroke-width="0.8" filter="url(#glowCyan)" opacity="0.85">
        <title>2026-05-02: 80 changes/commit</title></circle><circle cx="1623.2" cy="474.3" r="3.5"
        fill="#00d4f5" stroke="#80eeff" stroke-width="0.8" filter="url(#glowCyan)" opacity="0.85">
        <title>2026-05-03: 350 changes/commit</title></circle><circle cx="1651.7" cy="182.0" r="3.5"
        fill="#00d4f5" stroke="#80eeff" stroke-width="0.8" filter="url(#glowCyan)" opacity="0.85">
        <title>2026-05-04: 6844 changes/commit</title></circle><circle cx="1680.1" cy="480.1" r="3.5"
        fill="#00d4f5" stroke="#80eeff" stroke-width="0.8" filter="url(#glowCyan)" opacity="0.85">
        <title>2026-05-05: 219 changes/commit</title></circle><circle cx="1708.6" cy="482.2" r="3.5"
        fill="#00d4f5" stroke="#80eeff" stroke-width="0.8" filter="url(#glowCyan)" opacity="0.85">
        <title>2026-05-06: 173 changes/commit</title></circle><circle cx="1737.1" cy="473.2" r="3.5"
        fill="#00d4f5" stroke="#80eeff" stroke-width="0.8" filter="url(#glowCyan)" opacity="0.85">
        <title>2026-05-07: 373 changes/commit</title></circle><circle cx="1765.5" cy="466.6" r="3.5"
        fill="#00d4f5" stroke="#80eeff" stroke-width="0.8" filter="url(#glowCyan)" opacity="0.85">
        <title>2026-05-08: 519 changes/commit</title></circle><circle cx="1794.0" cy="482.2" r="3.5"
        fill="#00d4f5" stroke="#80eeff" stroke-width="0.8" filter="url(#glowCyan)" opacity="0.85">
        <title>2026-05-09: 173 changes/commit</title></circle>
</g>

<!-- ════ ANNOTATIONS ════ -->

        <line x1="598.4" y1="181.0"
          x2="598.4" y2="172.0"
          stroke="#2563eb" stroke-width="1.2" stroke-dasharray="4,4" opacity="0.65"/>
        <rect x="533.4" y="148.0"
          width="130" height="24" rx="6"
          fill="#030e26" stroke="#2563eb" stroke-width="1" opacity="0.96"/>
        <text x="598.4" y="164.0"
          font-size="10" fill="#93c5fd" text-anchor="middle"
          font-family="'Lexend','Segoe UI',sans-serif" font-weight="400"
          letter-spacing="0.5">⬡  Peak · 66 commits</text>
        <line x1="484.5" y1="494" x2="1794.0" y2="494"
          stroke="#f472b6" stroke-width="2.5" stroke-linecap="round" opacity="0.7"/>
        <circle cx="484.5" cy="494" r="3" fill="#f472b6" opacity="0.9"/>
        <circle cx="1794.0" cy="494" r="3" fill="#f472b6" opacity="0.9"/>
        <text x="1139.3" y="508" font-size="8.5" fill="#f472b6"
          text-anchor="middle" font-family="'Lexend','Segoe UI',sans-serif"
          font-weight="400" opacity="0.85">🔥 47-day streak</text>
        <line x1="484.5" y1="130" x2="484.5" y2="490"
          stroke="#f472b6" stroke-width="0.8" stroke-dasharray="3,6" opacity="0.35"/>

<!-- ════ CORNER BRACKETS ════ -->
<path d="M 86 152.0 L 86 130 L 108.0 130"
      fill="none" stroke="#4a90e2" stroke-width="2" stroke-opacity="0.85" stroke-linecap="round"/><path d="M 1794 152.0 L 1794 130 L 1772.0 130"
      fill="none" stroke="#4a90e2" stroke-width="2" stroke-opacity="0.85" stroke-linecap="round"/><path d="M 86 468.0 L 86 490 L 108.0 490"
      fill="none" stroke="#4a90e2" stroke-width="2" stroke-opacity="0.85" stroke-linecap="round"/><path d="M 1794 468.0 L 1794 490 L 1772.0 490"
      fill="none" stroke="#4a90e2" stroke-width="2" stroke-opacity="0.85" stroke-linecap="round"/>

<!-- ════ HEATMAP ════ -->
<text x="936" y="646" font-size="11" fill="#3d7ed4"
    text-anchor="middle" font-family="'Lexend','Segoe UI',sans-serif"
    letter-spacing="3" font-weight="400">CONTRIBUTION  CALENDAR</text><text x="871" y="686"
        font-size="9" fill="#3d7ed4" text-anchor="end"
        font-family="'Lexend','Segoe UI',sans-serif" font-weight="300">M</text><text x="871" y="716"
        font-size="9" fill="#3d7ed4" text-anchor="end"
        font-family="'Lexend','Segoe UI',sans-serif" font-weight="300">W</text><text x="871" y="746"
        font-size="9" fill="#3d7ed4" text-anchor="end"
        font-family="'Lexend','Segoe UI',sans-serif" font-weight="300">F</text><rect x="877.0" y="660.0"
        width="12" height="12" rx="2.5" fill="#0a1630"
        stroke="#0d2464" stroke-width="0.5" stroke-opacity="0.4">
        <title>2026-03-08: 0 commits</title></rect><rect x="877.0" y="675.0"
        width="12" height="12" rx="2.5" fill="#0a1630"
        stroke="#0d2464" stroke-width="0.5" stroke-opacity="0.4">
        <title>2026-03-09: 0 commits</title></rect><rect x="877.0" y="690.0"
        width="12" height="12" rx="2.5" fill="#0d3068"
        stroke="#0d2464" stroke-width="0.5" stroke-opacity="0.4">
        <title>2026-03-10: 1 commits</title></rect><rect x="877.0" y="705.0"
        width="12" height="12" rx="2.5" fill="#0a1630"
        stroke="#0d2464" stroke-width="0.5" stroke-opacity="0.4">
        <title>2026-03-11: 0 commits</title></rect><rect x="877.0" y="720.0"
        width="12" height="12" rx="2.5" fill="#0a1630"
        stroke="#0d2464" stroke-width="0.5" stroke-opacity="0.4">
        <title>2026-03-12: 0 commits</title></rect><rect x="877.0" y="735.0"
        width="12" height="12" rx="2.5" fill="#0a1630"
        stroke="#0d2464" stroke-width="0.5" stroke-opacity="0.4">
        <title>2026-03-13: 0 commits</title></rect><rect x="877.0" y="750.0"
        width="12" height="12" rx="2.5" fill="#0a1630"
        stroke="#0d2464" stroke-width="0.5" stroke-opacity="0.4">
        <title>2026-03-14: 0 commits</title></rect><rect x="892.0" y="660.0"
        width="12" height="12" rx="2.5" fill="#0a1630"
        stroke="#0d2464" stroke-width="0.5" stroke-opacity="0.4">
        <title>2026-03-15: 0 commits</title></rect><rect x="892.0" y="675.0"
        width="12" height="12" rx="2.5" fill="#0a1630"
        stroke="#0d2464" stroke-width="0.5" stroke-opacity="0.4">
        <title>2026-03-16: 0 commits</title></rect><rect x="892.0" y="690.0"
        width="12" height="12" rx="2.5" fill="#0d3068"
        stroke="#0d2464" stroke-width="0.5" stroke-opacity="0.4">
        <title>2026-03-17: 10 commits</title></rect><rect x="892.0" y="705.0"
        width="12" height="12" rx="2.5" fill="#0a1630"
        stroke="#0d2464" stroke-width="0.5" stroke-opacity="0.4">
        <title>2026-03-18: 0 commits</title></rect><rect x="892.0" y="720.0"
        width="12" height="12" rx="2.5" fill="#0a1630"
        stroke="#0d2464" stroke-width="0.5" stroke-opacity="0.4">
        <title>2026-03-19: 0 commits</title></rect><rect x="892.0" y="735.0"
        width="12" height="12" rx="2.5" fill="#1e56a8"
        stroke="#0d2464" stroke-width="0.5" stroke-opacity="0.4">
        <title>2026-03-20: 26 commits</title></rect><rect x="892.0" y="750.0"
        width="12" height="12" rx="2.5" fill="#0a1630"
        stroke="#0d2464" stroke-width="0.5" stroke-opacity="0.4">
        <title>2026-03-21: 0 commits</title></rect><rect x="907.0" y="660.0"
        width="12" height="12" rx="2.5" fill="#0d3068"
        stroke="#0d2464" stroke-width="0.5" stroke-opacity="0.4">
        <title>2026-03-22: 1 commits</title></rect><rect x="907.0" y="675.0"
        width="12" height="12" rx="2.5" fill="#0a1630"
        stroke="#0d2464" stroke-width="0.5" stroke-opacity="0.4">
        <title>2026-03-23: 0 commits</title></rect><rect x="907.0" y="690.0"
        width="12" height="12" rx="2.5" fill="#1e56a8"
        stroke="#0d2464" stroke-width="0.5" stroke-opacity="0.4">
        <title>2026-03-24: 32 commits</title></rect><rect x="907.0" y="705.0"
        width="12" height="12" rx="2.5" fill="#0d3068"
        stroke="#0d2464" stroke-width="0.5" stroke-opacity="0.4">
        <title>2026-03-25: 7 commits</title></rect><rect x="907.0" y="720.0"
        width="12" height="12" rx="2.5" fill="#0d3068"
        stroke="#0d2464" stroke-width="0.5" stroke-opacity="0.4">
        <title>2026-03-26: 3 commits</title></rect><rect x="907.0" y="735.0"
        width="12" height="12" rx="2.5" fill="#0d3068"
        stroke="#0d2464" stroke-width="0.5" stroke-opacity="0.4">
        <title>2026-03-27: 1 commits</title></rect><rect x="907.0" y="750.0"
        width="12" height="12" rx="2.5" fill="#93c5fd"
        stroke="#0d2464" stroke-width="0.5" stroke-opacity="0.4">
        <title>2026-03-28: 66 commits</title></rect><rect x="922.0" y="660.0"
        width="12" height="12" rx="2.5" fill="#3b82f6"
        stroke="#0d2464" stroke-width="0.5" stroke-opacity="0.4">
        <title>2026-03-29: 44 commits</title></rect><rect x="922.0" y="675.0"
        width="12" height="12" rx="2.5" fill="#0d3068"
        stroke="#0d2464" stroke-width="0.5" stroke-opacity="0.4">
        <title>2026-03-30: 2 commits</title></rect><rect x="922.0" y="690.0"
        width="12" height="12" rx="2.5" fill="#0d3068"
        stroke="#0d2464" stroke-width="0.5" stroke-opacity="0.4">
        <title>2026-03-31: 16 commits</title></rect><rect x="922.0" y="705.0"
        width="12" height="12" rx="2.5" fill="#0d3068"
        stroke="#0d2464" stroke-width="0.5" stroke-opacity="0.4">
        <title>2026-04-01: 14 commits</title></rect><rect x="922.0" y="720.0"
        width="12" height="12" rx="2.5" fill="#0d3068"
        stroke="#0d2464" stroke-width="0.5" stroke-opacity="0.4">
        <title>2026-04-02: 2 commits</title></rect><rect x="922.0" y="735.0"
        width="12" height="12" rx="2.5" fill="#1e56a8"
        stroke="#0d2464" stroke-width="0.5" stroke-opacity="0.4">
        <title>2026-04-03: 24 commits</title></rect><rect x="922.0" y="750.0"
        width="12" height="12" rx="2.5" fill="#1e56a8"
        stroke="#0d2464" stroke-width="0.5" stroke-opacity="0.4">
        <title>2026-04-04: 18 commits</title></rect><text x="922.0" y="656" font-size="8.5" fill="#3d7ed4"
        font-family="'Lexend','Segoe UI',sans-serif" font-weight="300">Apr</text><rect x="937.0" y="660.0"
        width="12" height="12" rx="2.5" fill="#0d3068"
        stroke="#0d2464" stroke-width="0.5" stroke-opacity="0.4">
        <title>2026-04-05: 1 commits</title></rect><rect x="937.0" y="675.0"
        width="12" height="12" rx="2.5" fill="#0d3068"
        stroke="#0d2464" stroke-width="0.5" stroke-opacity="0.4">
        <title>2026-04-06: 1 commits</title></rect><rect x="937.0" y="690.0"
        width="12" height="12" rx="2.5" fill="#0d3068"
        stroke="#0d2464" stroke-width="0.5" stroke-opacity="0.4">
        <title>2026-04-07: 9 commits</title></rect><rect x="937.0" y="705.0"
        width="12" height="12" rx="2.5" fill="#0d3068"
        stroke="#0d2464" stroke-width="0.5" stroke-opacity="0.4">
        <title>2026-04-08: 1 commits</title></rect><rect x="937.0" y="720.0"
        width="12" height="12" rx="2.5" fill="#0d3068"
        stroke="#0d2464" stroke-width="0.5" stroke-opacity="0.4">
        <title>2026-04-09: 1 commits</title></rect><rect x="937.0" y="735.0"
        width="12" height="12" rx="2.5" fill="#0d3068"
        stroke="#0d2464" stroke-width="0.5" stroke-opacity="0.4">
        <title>2026-04-10: 1 commits</title></rect><rect x="937.0" y="750.0"
        width="12" height="12" rx="2.5" fill="#0d3068"
        stroke="#0d2464" stroke-width="0.5" stroke-opacity="0.4">
        <title>2026-04-11: 1 commits</title></rect><rect x="952.0" y="660.0"
        width="12" height="12" rx="2.5" fill="#0d3068"
        stroke="#0d2464" stroke-width="0.5" stroke-opacity="0.4">
        <title>2026-04-12: 4 commits</title></rect><rect x="952.0" y="675.0"
        width="12" height="12" rx="2.5" fill="#0d3068"
        stroke="#0d2464" stroke-width="0.5" stroke-opacity="0.4">
        <title>2026-04-13: 1 commits</title></rect><rect x="952.0" y="690.0"
        width="12" height="12" rx="2.5" fill="#0d3068"
        stroke="#0d2464" stroke-width="0.5" stroke-opacity="0.4">
        <title>2026-04-14: 1 commits</title></rect><rect x="952.0" y="705.0"
        width="12" height="12" rx="2.5" fill="#0d3068"
        stroke="#0d2464" stroke-width="0.5" stroke-opacity="0.4">
        <title>2026-04-15: 1 commits</title></rect><rect x="952.0" y="720.0"
        width="12" height="12" rx="2.5" fill="#0d3068"
        stroke="#0d2464" stroke-width="0.5" stroke-opacity="0.4">
        <title>2026-04-16: 1 commits</title></rect><rect x="952.0" y="735.0"
        width="12" height="12" rx="2.5" fill="#0d3068"
        stroke="#0d2464" stroke-width="0.5" stroke-opacity="0.4">
        <title>2026-04-17: 1 commits</title></rect><rect x="952.0" y="750.0"
        width="12" height="12" rx="2.5" fill="#0d3068"
        stroke="#0d2464" stroke-width="0.5" stroke-opacity="0.4">
        <title>2026-04-18: 1 commits</title></rect><rect x="967.0" y="660.0"
        width="12" height="12" rx="2.5" fill="#0d3068"
        stroke="#0d2464" stroke-width="0.5" stroke-opacity="0.4">
        <title>2026-04-19: 1 commits</title></rect><rect x="967.0" y="675.0"
        width="12" height="12" rx="2.5" fill="#0d3068"
        stroke="#0d2464" stroke-width="0.5" stroke-opacity="0.4">
        <title>2026-04-20: 3 commits</title></rect><rect x="967.0" y="690.0"
        width="12" height="12" rx="2.5" fill="#0d3068"
        stroke="#0d2464" stroke-width="0.5" stroke-opacity="0.4">
        <title>2026-04-21: 1 commits</title></rect><rect x="967.0" y="705.0"
        width="12" height="12" rx="2.5" fill="#0d3068"
        stroke="#0d2464" stroke-width="0.5" stroke-opacity="0.4">
        <title>2026-04-22: 1 commits</title></rect><rect x="967.0" y="720.0"
        width="12" height="12" rx="2.5" fill="#0d3068"
        stroke="#0d2464" stroke-width="0.5" stroke-opacity="0.4">
        <title>2026-04-23: 1 commits</title></rect><rect x="967.0" y="735.0"
        width="12" height="12" rx="2.5" fill="#0d3068"
        stroke="#0d2464" stroke-width="0.5" stroke-opacity="0.4">
        <title>2026-04-24: 1 commits</title></rect><rect x="967.0" y="750.0"
        width="12" height="12" rx="2.5" fill="#0d3068"
        stroke="#0d2464" stroke-width="0.5" stroke-opacity="0.4">
        <title>2026-04-25: 1 commits</title></rect><rect x="982.0" y="660.0"
        width="12" height="12" rx="2.5" fill="#0d3068"
        stroke="#0d2464" stroke-width="0.5" stroke-opacity="0.4">
        <title>2026-04-26: 1 commits</title></rect><rect x="982.0" y="675.0"
        width="12" height="12" rx="2.5" fill="#0d3068"
        stroke="#0d2464" stroke-width="0.5" stroke-opacity="0.4">
        <title>2026-04-27: 1 commits</title></rect><rect x="982.0" y="690.0"
        width="12" height="12" rx="2.5" fill="#0d3068"
        stroke="#0d2464" stroke-width="0.5" stroke-opacity="0.4">
        <title>2026-04-28: 1 commits</title></rect><rect x="982.0" y="705.0"
        width="12" height="12" rx="2.5" fill="#0d3068"
        stroke="#0d2464" stroke-width="0.5" stroke-opacity="0.4">
        <title>2026-04-29: 1 commits</title></rect><rect x="982.0" y="720.0"
        width="12" height="12" rx="2.5" fill="#0d3068"
        stroke="#0d2464" stroke-width="0.5" stroke-opacity="0.4">
        <title>2026-04-30: 1 commits</title></rect><rect x="982.0" y="735.0"
        width="12" height="12" rx="2.5" fill="#0d3068"
        stroke="#0d2464" stroke-width="0.5" stroke-opacity="0.4">
        <title>2026-05-01: 6 commits</title></rect><rect x="982.0" y="750.0"
        width="12" height="12" rx="2.5" fill="#0d3068"
        stroke="#0d2464" stroke-width="0.5" stroke-opacity="0.4">
        <title>2026-05-02: 1 commits</title></rect><text x="982.0" y="656" font-size="8.5" fill="#3d7ed4"
        font-family="'Lexend','Segoe UI',sans-serif" font-weight="300">May</text><rect x="997.0" y="660.0"
        width="12" height="12" rx="2.5" fill="#3b82f6"
        stroke="#0d2464" stroke-width="0.5" stroke-opacity="0.4">
        <title>2026-05-03: 39 commits</title></rect><rect x="997.0" y="675.0"
        width="12" height="12" rx="2.5" fill="#0d3068"
        stroke="#0d2464" stroke-width="0.5" stroke-opacity="0.4">
        <title>2026-05-04: 10 commits</title></rect><rect x="997.0" y="690.0"
        width="12" height="12" rx="2.5" fill="#3b82f6"
        stroke="#0d2464" stroke-width="0.5" stroke-opacity="0.4">
        <title>2026-05-05: 37 commits</title></rect><rect x="997.0" y="705.0"
        width="12" height="12" rx="2.5" fill="#0d3068"
        stroke="#0d2464" stroke-width="0.5" stroke-opacity="0.4">
        <title>2026-05-06: 9 commits</title></rect><rect x="997.0" y="720.0"
        width="12" height="12" rx="2.5" fill="#0d3068"
        stroke="#0d2464" stroke-width="0.5" stroke-opacity="0.4">
        <title>2026-05-07: 13 commits</title></rect><rect x="997.0" y="735.0"
        width="12" height="12" rx="2.5" fill="#0d3068"
        stroke="#0d2464" stroke-width="0.5" stroke-opacity="0.4">
        <title>2026-05-08: 9 commits</title></rect><rect x="997.0" y="750.0"
        width="12" height="12" rx="2.5" fill="#93c5fd"
        stroke="#0d2464" stroke-width="0.5" stroke-opacity="0.4">
        <title>2026-05-09: 59 commits</title></rect><rect x="1012.0" y="660.0"
        width="12" height="12" rx="2.5" fill="#0a1630"
        stroke="#0d2464" stroke-width="0.5" stroke-opacity="0.4">
        <title>2026-05-10: 0 commits</title></rect><rect x="1012.0" y="675.0"
        width="12" height="12" rx="2.5" fill="#0a1630"
        stroke="#0d2464" stroke-width="0.5" stroke-opacity="0.4">
        <title>2026-05-11: 0 commits</title></rect><rect x="1012.0" y="690.0"
        width="12" height="12" rx="2.5" fill="#0a1630"
        stroke="#0d2464" stroke-width="0.5" stroke-opacity="0.4">
        <title>2026-05-12: 0 commits</title></rect><rect x="1012.0" y="705.0"
        width="12" height="12" rx="2.5" fill="#0a1630"
        stroke="#0d2464" stroke-width="0.5" stroke-opacity="0.4">
        <title>2026-05-13: 0 commits</title></rect><rect x="1012.0" y="720.0"
        width="12" height="12" rx="2.5" fill="#0a1630"
        stroke="#0d2464" stroke-width="0.5" stroke-opacity="0.4">
        <title>2026-05-14: 0 commits</title></rect><rect x="1012.0" y="735.0"
        width="12" height="12" rx="2.5" fill="#0a1630"
        stroke="#0d2464" stroke-width="0.5" stroke-opacity="0.4">
        <title>2026-05-15: 0 commits</title></rect><rect x="1012.0" y="750.0"
        width="12" height="12" rx="2.5" fill="#0a1630"
        stroke="#0d2464" stroke-width="0.5" stroke-opacity="0.4">
        <title>2026-05-16: 0 commits</title></rect>

<!-- ════ BOTTOM PANELS ════ -->

    <rect x="86" y="823" width="320" height="110"
      rx="4" fill="#030e26" fill-opacity="0.6" stroke="#1a3f7a" stroke-width="0.8"/>
    <text x="246" y="819" font-size="8" fill="#3d7ed4"
      text-anchor="middle" font-family="'Lexend','Segoe UI',sans-serif"
      letter-spacing="2" font-weight="300">OVERVIEW</text>
    <g clip-path="url(#minimapClip)">
      <path d="M 86.00 931.58 C 86.89 931.82, 89.56 932.76, 91.33 933.00 C 93.11 933.24, 94.89 933.00, 96.67 933.00 C 98.44 933.00, 100.22 933.00, 102.00 933.00 C 103.78 933.00, 105.56 933.00, 107.33 933.00 C 109.11 933.00, 110.89 933.00, 112.67 933.00 C 114.44 933.00, 116.22 935.36, 118.00 933.00 C 119.78 930.64, 121.56 918.83, 123.33 918.83 C 125.11 918.83, 126.89 930.64, 128.67 933.00 C 130.44 935.36, 132.22 939.14, 134.00 933.00 C 135.78 926.86, 137.56 896.17, 139.33 896.17 C 141.11 896.17, 142.89 927.10, 144.67 933.00 C 146.44 938.90, 148.22 931.58, 150.00 931.58 C 151.78 931.58, 153.56 940.32, 155.33 933.00 C 157.11 925.68, 158.89 889.32, 160.67 887.67 C 162.44 886.01, 164.22 916.24, 166.00 923.08 C 167.78 929.93, 169.56 927.33, 171.33 928.75 C 173.11 930.17, 174.89 946.46, 176.67 931.58 C 178.44 916.71, 180.22 849.65, 182.00 839.50 C 183.78 829.35, 185.56 855.56, 187.33 870.67 C 189.11 885.78, 190.89 923.56, 192.67 930.17 C 194.44 936.78, 196.22 913.17, 198.00 910.33 C 199.78 907.50, 201.56 909.86, 203.33 913.17 C 205.11 916.47, 206.89 932.53, 208.67 930.17 C 210.44 927.81, 212.22 902.78, 214.00 899.00 C 215.78 895.22, 217.56 902.07, 219.33 907.50 C 221.11 912.93, 222.89 927.57, 224.67 931.58 C 226.44 935.60, 228.22 933.47, 230.00 931.58 C 231.78 929.69, 233.56 920.25, 235.33 920.25 C 237.11 920.25, 238.89 929.69, 240.67 931.58 C 242.44 933.47, 244.22 931.58, 246.00 931.58 C 247.78 931.58, 249.56 931.58, 251.33 931.58 C 253.11 931.58, 254.89 932.29, 256.67 931.58 C 258.44 930.88, 260.22 927.33, 262.00 927.33 C 263.78 927.33, 265.56 930.88, 267.33 931.58 C 269.11 932.29, 270.89 931.58, 272.67 931.58 C 274.44 931.58, 276.22 931.58, 278.00 931.58 C 279.78 931.58, 281.56 931.58, 283.33 931.58 C 285.11 931.58, 286.89 931.58, 288.67 931.58 C 290.44 931.58, 292.22 931.58, 294.00 931.58 C 295.78 931.58, 297.56 932.06, 299.33 931.58 C 301.11 931.11, 302.89 928.75, 304.67 928.75 C 306.44 928.75, 308.22 931.11, 310.00 931.58 C 311.78 932.06, 313.56 931.58, 315.33 931.58 C 317.11 931.58, 318.89 931.58, 320.67 931.58 C 322.44 931.58, 324.22 931.58, 326.00 931.58 C 327.78 931.58, 329.56 931.58, 331.33 931.58 C 333.11 931.58, 334.89 931.58, 336.67 931.58 C 338.44 931.58, 340.22 931.58, 342.00 931.58 C 343.78 931.58, 345.56 931.58, 347.33 931.58 C 349.11 931.58, 350.89 931.58, 352.67 931.58 C 354.44 931.58, 356.22 932.76, 358.00 931.58 C 359.78 930.40, 361.56 924.50, 363.33 924.50 C 365.11 924.50, 366.89 939.38, 368.67 931.58 C 370.44 923.79, 372.22 879.88, 374.00 877.75 C 375.78 875.63, 377.56 918.36, 379.33 918.83 C 381.11 919.31, 382.89 880.35, 384.67 880.58 C 386.44 880.82, 388.22 914.58, 390.00 920.25 C 391.78 925.92, 393.56 914.58, 395.33 914.58 C 397.11 914.58, 398.89 931.11, 400.67 920.25 C 402.44 909.39, 405.11 861.22, 406.00 849.42 L 406.00 933 L 86.00 933 Z" fill="#4a90e2" fill-opacity="0.15"/>
      <path d="M 86.00 931.58 C 86.89 931.82, 89.56 932.76, 91.33 933.00 C 93.11 933.24, 94.89 933.00, 96.67 933.00 C 98.44 933.00, 100.22 933.00, 102.00 933.00 C 103.78 933.00, 105.56 933.00, 107.33 933.00 C 109.11 933.00, 110.89 933.00, 112.67 933.00 C 114.44 933.00, 116.22 935.36, 118.00 933.00 C 119.78 930.64, 121.56 918.83, 123.33 918.83 C 125.11 918.83, 126.89 930.64, 128.67 933.00 C 130.44 935.36, 132.22 939.14, 134.00 933.00 C 135.78 926.86, 137.56 896.17, 139.33 896.17 C 141.11 896.17, 142.89 927.10, 144.67 933.00 C 146.44 938.90, 148.22 931.58, 150.00 931.58 C 151.78 931.58, 153.56 940.32, 155.33 933.00 C 157.11 925.68, 158.89 889.32, 160.67 887.67 C 162.44 886.01, 164.22 916.24, 166.00 923.08 C 167.78 929.93, 169.56 927.33, 171.33 928.75 C 173.11 930.17, 174.89 946.46, 176.67 931.58 C 178.44 916.71, 180.22 849.65, 182.00 839.50 C 183.78 829.35, 185.56 855.56, 187.33 870.67 C 189.11 885.78, 190.89 923.56, 192.67 930.17 C 194.44 936.78, 196.22 913.17, 198.00 910.33 C 199.78 907.50, 201.56 909.86, 203.33 913.17 C 205.11 916.47, 206.89 932.53, 208.67 930.17 C 210.44 927.81, 212.22 902.78, 214.00 899.00 C 215.78 895.22, 217.56 902.07, 219.33 907.50 C 221.11 912.93, 222.89 927.57, 224.67 931.58 C 226.44 935.60, 228.22 933.47, 230.00 931.58 C 231.78 929.69, 233.56 920.25, 235.33 920.25 C 237.11 920.25, 238.89 929.69, 240.67 931.58 C 242.44 933.47, 244.22 931.58, 246.00 931.58 C 247.78 931.58, 249.56 931.58, 251.33 931.58 C 253.11 931.58, 254.89 932.29, 256.67 931.58 C 258.44 930.88, 260.22 927.33, 262.00 927.33 C 263.78 927.33, 265.56 930.88, 267.33 931.58 C 269.11 932.29, 270.89 931.58, 272.67 931.58 C 274.44 931.58, 276.22 931.58, 278.00 931.58 C 279.78 931.58, 281.56 931.58, 283.33 931.58 C 285.11 931.58, 286.89 931.58, 288.67 931.58 C 290.44 931.58, 292.22 931.58, 294.00 931.58 C 295.78 931.58, 297.56 932.06, 299.33 931.58 C 301.11 931.11, 302.89 928.75, 304.67 928.75 C 306.44 928.75, 308.22 931.11, 310.00 931.58 C 311.78 932.06, 313.56 931.58, 315.33 931.58 C 317.11 931.58, 318.89 931.58, 320.67 931.58 C 322.44 931.58, 324.22 931.58, 326.00 931.58 C 327.78 931.58, 329.56 931.58, 331.33 931.58 C 333.11 931.58, 334.89 931.58, 336.67 931.58 C 338.44 931.58, 340.22 931.58, 342.00 931.58 C 343.78 931.58, 345.56 931.58, 347.33 931.58 C 349.11 931.58, 350.89 931.58, 352.67 931.58 C 354.44 931.58, 356.22 932.76, 358.00 931.58 C 359.78 930.40, 361.56 924.50, 363.33 924.50 C 365.11 924.50, 366.89 939.38, 368.67 931.58 C 370.44 923.79, 372.22 879.88, 374.00 877.75 C 375.78 875.63, 377.56 918.36, 379.33 918.83 C 381.11 919.31, 382.89 880.35, 384.67 880.58 C 386.44 880.82, 388.22 914.58, 390.00 920.25 C 391.78 925.92, 393.56 914.58, 395.33 914.58 C 397.11 914.58, 398.89 931.11, 400.67 920.25 C 402.44 909.39, 405.11 861.22, 406.00 849.42" fill="none" stroke="#4a90e2" stroke-width="1.5" stroke-opacity="0.7"/>
    </g>
    <clipPath id="minimapClip">
      <rect x="86" y="823" width="320" height="110" rx="4"/>
    </clipPath><path d="M 1654.00 854.90
      L 1654.00 836.00
      A 42 42 0 1 1 1631.27 913.32
      L 1641.50 897.43
      A 23.1 23.1 0 1 0 1654.00 854.90 Z"
      fill="#4a90e2" fill-opacity="0.8" stroke="#030e26" stroke-width="1.5">
      <title>Kieran Lucas: 289 commits (59%)</title></path><path d="M 1641.50 897.43
      L 1631.27 913.32
      A 42 42 0 0 1 1612.40 883.78
      L 1631.12 881.18
      A 23.1 23.1 0 0 0 1641.50 897.43 Z"
      fill="#ff8c42" fill-opacity="0.8" stroke="#030e26" stroke-width="1.5">
      <title>HumaNormal: 67 commits (14%)</title></path><path d="M 1631.12 881.18
      L 1612.40 883.78
      A 42 42 0 0 1 1622.15 850.63
      L 1636.48 862.94
      A 23.1 23.1 0 0 0 1631.12 881.18 Z"
      fill="#00d4f5" fill-opacity="0.8" stroke="#030e26" stroke-width="1.5">
      <title>stillqhuy: 66 commits (13%)</title></path><path d="M 1636.48 862.94
      L 1622.15 850.63
      A 42 42 0 0 1 1650.77 836.12
      L 1652.22 854.97
      A 23.1 23.1 0 0 0 1636.48 862.94 Z"
      fill="#22c55e" fill-opacity="0.8" stroke="#030e26" stroke-width="1.5">
      <title>github-actions: 61 commits (12%)</title></path><path d="M 1652.22 854.97
      L 1650.77 836.12
      A 42 42 0 0 1 1654.00 836.00
      L 1654.00 854.90
      A 23.1 23.1 0 0 0 1652.22 854.97 Z"
      fill="#ef4444" fill-opacity="0.8" stroke="#030e26" stroke-width="1.5">
      <title>Nguyễn Đinh Việt Đức: 6 commits (1%)</title></path><text x="1654" y="874" font-size="9" fill="#3d7ed4" text-anchor="middle"
    font-family="'Lexend','Segoe UI',sans-serif" letter-spacing="1.5" font-weight="300">AUTHORS</text><text x="1654" y="892" font-size="16" fill="#cce8ff" text-anchor="middle"
    font-family="'Lexend','Segoe UI',sans-serif" font-weight="600">5</text><rect x="1712" y="830" width="8" height="8" rx="2" fill="#4a90e2" opacity="0.85"/><text x="1726" y="838" font-size="9.5" fill="#3d7ed4"
      font-family="'Lexend','Segoe UI',sans-serif" font-weight="300">Kieran Lucas (289)</text><rect x="1712" y="848" width="8" height="8" rx="2" fill="#ff8c42" opacity="0.85"/><text x="1726" y="856" font-size="9.5" fill="#3d7ed4"
      font-family="'Lexend','Segoe UI',sans-serif" font-weight="300">HumaNormal (67)</text><rect x="1712" y="866" width="8" height="8" rx="2" fill="#00d4f5" opacity="0.85"/><text x="1726" y="874" font-size="9.5" fill="#3d7ed4"
      font-family="'Lexend','Segoe UI',sans-serif" font-weight="300">stillqhuy (66)</text><rect x="1712" y="884" width="8" height="8" rx="2" fill="#22c55e" opacity="0.85"/><text x="1726" y="892" font-size="9.5" fill="#3d7ed4"
      font-family="'Lexend','Segoe UI',sans-serif" font-weight="300">github-actions (61)</text><rect x="1712" y="902" width="8" height="8" rx="2" fill="#ef4444" opacity="0.85"/><text x="1726" y="910" font-size="9.5" fill="#3d7ed4"
      font-family="'Lexend','Segoe UI',sans-serif" font-weight="300">Nguyễn Đinh … (6)</text>

<!-- ════ WAVES ════ -->
<path d="M 0 963 Q 117.0 956.0 234.0 963 Q 351.0 956.0 468.0 963 Q 585.0 956.0 702.0 963 Q 819.0 956.0 936.0 963 Q 1053.0 956.0 1170.0 963 Q 1287.0 956.0 1404.0 963 Q 1521.0 956.0 1638.0 963 Q 1755.0 956.0 1872.0 963" fill="none" stroke="#1948a0" stroke-width="1.2" stroke-opacity="0.35"/>
<path d="M 0 958 Q 117.0 952.5 234.0 958 Q 351.0 952.5 468.0 958 Q 585.0 952.5 702.0 958 Q 819.0 952.5 936.0 958 Q 1053.0 952.5 1170.0 958 Q 1287.0 952.5 1404.0 958 Q 1521.0 952.5 1638.0 958 Q 1755.0 952.5 1872.0 958" fill="none" stroke="#1948a0" stroke-width="1" stroke-opacity="0.29"/>
<path d="M 0 953 Q 117.0 949.0 234.0 953 Q 351.0 949.0 468.0 953 Q 585.0 949.0 702.0 953 Q 819.0 949.0 936.0 953 Q 1053.0 949.0 1170.0 953 Q 1287.0 949.0 1404.0 953 Q 1521.0 949.0 1638.0 953 Q 1755.0 949.0 1872.0 953" fill="none" stroke="#1948a0" stroke-width="0.7999999999999999" stroke-opacity="0.22999999999999998"/>
<path d="M 0 948 Q 117.0 945.5 234.0 948 Q 351.0 945.5 468.0 948 Q 585.0 945.5 702.0 948 Q 819.0 945.5 936.0 948 Q 1053.0 945.5 1170.0 948 Q 1287.0 945.5 1404.0 948 Q 1521.0 945.5 1638.0 948 Q 1755.0 945.5 1872.0 948" fill="none" stroke="#1948a0" stroke-width="0.5999999999999999" stroke-opacity="0.16999999999999998"/>

</svg>