<svg width="1816" height="969" xmlns="http://www.w3.org/2000/svg" viewBox="0 0 1816 969">
<defs>
  <style>
    @import url('https://fonts.googleapis.com/css2?family=Lexend:wght@300;400;600;700&amp;display=swap');
    circle:hover { opacity: 1 !important; r: 6; }
    rect.bar-segment:hover { opacity: 1 !important; }
  </style>

  <linearGradient id="bg" x1="0%" y1="0%" x2="55%" y2="100%">
    <stop offset="0%"   stop-color="#010c1e"/>
    <stop offset="50%"  stop-color="#010f27"/>
    <stop offset="100%" stop-color="#000a18"/>
  </linearGradient>
  <linearGradient id="areaFill" x1="0%" y1="0%" x2="0%" y2="100%">
    <stop offset="0%"   stop-color="#4a90e2" stop-opacity="0.5"/>
    <stop offset="55%"  stop-color="#1a3f7a" stop-opacity="0.18"/>
    <stop offset="100%" stop-color="#000a18" stop-opacity="0"/>
  </linearGradient>
  <linearGradient id="gCommits" x1="0%" y1="0%" x2="100%" y2="0%">
    <stop offset="0%"   stop-color="#ff8c42"/>
    <stop offset="100%" stop-color="#ffd0a0"/>
  </linearGradient>
  <linearGradient id="gChanges" x1="0%" y1="0%" x2="100%" y2="0%">
    <stop offset="0%"   stop-color="#00d4f5" stop-opacity="0.8"/>
    <stop offset="50%"  stop-color="#00d4f5"/>
    <stop offset="100%" stop-color="#80eeff"/>
  </linearGradient>
  <linearGradient id="gBorder" x1="0%" y1="0%" x2="100%" y2="100%">
    <stop offset="0%"   stop-color="#1840a0" stop-opacity="0.9"/>
    <stop offset="50%"  stop-color="#3b82f6" stop-opacity="0.6"/>
    <stop offset="100%" stop-color="#60a5fa" stop-opacity="0.9"/>
  </linearGradient>
  <linearGradient id="gHeader" x1="0%" y1="0%" x2="100%" y2="0%">
    <stop offset="0%"   stop-color="#010c1e" stop-opacity="0"/>
    <stop offset="20%"  stop-color="#091c3e" stop-opacity="0.92"/>
    <stop offset="80%"  stop-color="#091c3e" stop-opacity="0.92"/>
    <stop offset="100%" stop-color="#010c1e" stop-opacity="0"/>
  </linearGradient>
  <linearGradient id="gAddBar" x1="0%" y1="0%" x2="0%" y2="100%">
    <stop offset="0%"   stop-color="#22c55e" stop-opacity="0.95"/>
    <stop offset="100%" stop-color="#22c55e" stop-opacity="0.65"/>
  </linearGradient>
  <linearGradient id="gDelBar" x1="0%" y1="0%" x2="0%" y2="100%">
    <stop offset="0%"   stop-color="#ef4444" stop-opacity="0.9"/>
    <stop offset="100%" stop-color="#ef4444" stop-opacity="0.6"/>
  </linearGradient>

  <filter id="glowOrange" x="-120%" y="-120%" width="340%" height="340%">
    <feGaussianBlur stdDeviation="4" result="b"/>
    <feMerge><feMergeNode in="b"/><feMergeNode in="SourceGraphic"/></feMerge>
  </filter>
  <filter id="glowCyan" x="-120%" y="-120%" width="340%" height="340%">
    <feGaussianBlur stdDeviation="3.5" result="b"/>
    <feMerge><feMergeNode in="b"/><feMergeNode in="SourceGraphic"/></feMerge>
  </filter>
  <filter id="glowTitle">
    <feGaussianBlur stdDeviation="5" result="b"/>
    <feMerge><feMergeNode in="b"/><feMergeNode in="b"/><feMergeNode in="SourceGraphic"/></feMerge>
  </filter>
  <filter id="glowLine" x="-6%" y="-120%" width="112%" height="340%">
    <feGaussianBlur stdDeviation="4.5" result="b"/>
    <feMerge><feMergeNode in="b"/><feMergeNode in="SourceGraphic"/></feMerge>
  </filter>
  <filter id="glowMA" x="-6%" y="-120%" width="112%" height="340%">
    <feGaussianBlur stdDeviation="3" result="b"/>
    <feMerge><feMergeNode in="b"/><feMergeNode in="SourceGraphic"/></feMerge>
  </filter>

  <pattern id="diamondTile" x="0" y="0" width="30" height="30" patternUnits="userSpaceOnUse">
    <path d="M15 2 L28 15 L15 28 L2 15 Z"
      fill="none" stroke="#0d2464" stroke-width="0.4" stroke-opacity="0.25"/>
  </pattern>

  <clipPath id="chartClip">
    <rect x="86" y="130" width="1652" height="360"/>
  </clipPath>
</defs>

<!-- ════ BACKGROUND ════ -->
<rect width="1816" height="969" fill="url(#bg)" rx="16"/>
<rect width="1816" height="969" fill="url(#diamondTile)" rx="16"/>

<!-- ════ BORDERS ════ -->
<rect width="1816" height="969" fill="none" rx="16" stroke="url(#gBorder)" stroke-width="2.2"/>
<rect x="5" y="5" width="1806" height="959" fill="none" rx="13"
  stroke="#1840a0" stroke-width="0.7" stroke-opacity="0.35"/>

<!-- ════ HEADER ════ -->
<rect x="0" y="0" width="1816" height="122" fill="url(#gHeader)" rx="16"/>
<line x1="24" y1="118.0" x2="1792.0" y2="118.0"
    stroke="url(#gBorder)" stroke-width="0.8" stroke-opacity="0.5"/>

<!-- ════ TITLE ════ -->
<text x="912.0" y="44" font-size="18" font-weight="600" fill="#cce8ff"
  text-anchor="middle" font-family="'Lexend','Segoe UI',sans-serif"
  filter="url(#glowTitle)" letter-spacing="5">⬡  COMMIT  ANALYTICS  ⬡</text>
<text x="912.0" y="62" font-size="9.5" fill="#3d7ed4" text-anchor="middle"
  font-family="'Lexend','Segoe UI',sans-serif" letter-spacing="3.5" font-weight="300">kieran-lucas/oop-course-project-uet</text>

<!-- ════ STATS BADGE ════ -->

    <rect x="1590" y="8" width="142" height="92" rx="10"
      fill="#030e26" fill-opacity="0.94" stroke="#2563eb" stroke-width="1.2"/>
    <text x="1661" y="24" font-size="8" fill="#3d7ed4"
      text-anchor="middle" font-family="'Lexend',sans-serif" letter-spacing="2" font-weight="400">TOTAL  COMMITS</text>
    <text x="1661" y="52" font-size="28" font-weight="700" fill="#cce8ff"
      text-anchor="middle" font-family="'Lexend',sans-serif" filter="url(#glowTitle)">420</text>
    <line x1="1606" y1="60" x2="1716" y2="60"
      stroke="#1a3f7a" stroke-width="0.8" stroke-opacity="0.5"/>
    <text x="1637" y="74" font-size="9" fill="#22c55e"
      text-anchor="middle" font-family="'Lexend',sans-serif" font-weight="400">+184.8k</text>
    <text x="1685" y="74" font-size="9" fill="#ef4444"
      text-anchor="middle" font-family="'Lexend',sans-serif" font-weight="400">-160.3k</text>
    <text x="1661" y="90" font-size="8" fill="#3d7ed4"
      text-anchor="middle" font-family="'Lexend',sans-serif" font-weight="300">49 active days · 1.6k files</text>

<!-- ════ LEGEND ════ -->
<g><rect x="556.0" y="90.0" width="24" height="12" rx="3"
        fill="#4a90e2" fill-opacity="0.45" stroke="#4a90e2" stroke-width="1.2"/><text x="587.0" y="100.0" font-size="11" fill="#93c5fd"
      font-family="'Lexend','Segoe UI',sans-serif" font-weight="400">Total Lines</text><line x1="692.0" y1="97.0" x2="716.0" y2="97.0"
        stroke="#ff8c42" stroke-width="2.5" stroke-linecap="round"/><circle cx="704.0" cy="97.0" r="3.5"
        fill="#ff8c42" stroke="#fff" stroke-width="0.6" stroke-opacity="0.3"/><text x="723.0" y="100.0" font-size="11" fill="#93c5fd"
      font-family="'Lexend','Segoe UI',sans-serif" font-weight="400">Commits</text><line x1="800.0" y1="97.0" x2="824.0" y2="97.0"
        stroke="#00d4f5" stroke-width="2.5" stroke-linecap="round"/><circle cx="812.0" cy="97.0" r="3.5"
        fill="#00d4f5" stroke="#fff" stroke-width="0.6" stroke-opacity="0.3"/><text x="831.0" y="100.0" font-size="11" fill="#93c5fd"
      font-family="'Lexend','Segoe UI',sans-serif" font-weight="400">Chg/Commit</text><rect x="935.0" y="90.0" width="12" height="12" rx="2"
        fill="#22c55e" opacity="0.85"/><text x="960.0" y="100.0" font-size="11" fill="#93c5fd"
      font-family="'Lexend','Segoe UI',sans-serif" font-weight="400">Additions</text><rect x="1057.0" y="90.0" width="12" height="12" rx="2"
        fill="#ef4444" opacity="0.85"/><text x="1082.0" y="100.0" font-size="11" fill="#93c5fd"
      font-family="'Lexend','Segoe UI',sans-serif" font-weight="400">Deletions</text><line x1="1173.0" y1="97.0" x2="1197.0" y2="97.0"
        stroke="#a78bfa" stroke-width="2" stroke-dasharray="5,3" stroke-linecap="round"/><text x="1204.0" y="100.0" font-size="11" fill="#93c5fd"
      font-family="'Lexend','Segoe UI',sans-serif" font-weight="400">7-day MA</text></g>

<!-- ════ AXIS LABELS ════ -->
<text x="16" y="310.0" font-size="9.5" fill="#4a90e2"
    text-anchor="middle" font-family="'Lexend','Segoe UI',sans-serif" letter-spacing="3" font-weight="300"
    transform="rotate(-90, 16, 310.0)">LINES</text>
<text x="1802.0" y="310.0" font-size="9.5"
    fill="#ff8c42" text-anchor="middle" font-family="'Lexend','Segoe UI',sans-serif"
    letter-spacing="3" font-weight="300" opacity="0.8"
    transform="rotate(90, 1802.0, 310.0)">COMMITS</text>

<!-- ════ GRID + Y-LABELS ════ -->
<line x1="86" y1="490.0" x2="1738" y2="490.0"
      stroke="#1a3f7a" stroke-width="1.4"
      stroke-opacity="0.9" stroke-dasharray="none"/><line x1="86" y1="418.0" x2="1738" y2="418.0"
      stroke="#1a3f7a" stroke-width="0.5"
      stroke-opacity="0.3" stroke-dasharray="6,6"/><line x1="86" y1="346.0" x2="1738" y2="346.0"
      stroke="#1a3f7a" stroke-width="0.5"
      stroke-opacity="0.3" stroke-dasharray="6,6"/><line x1="86" y1="274.0" x2="1738" y2="274.0"
      stroke="#1a3f7a" stroke-width="0.5"
      stroke-opacity="0.3" stroke-dasharray="6,6"/><line x1="86" y1="202.0" x2="1738" y2="202.0"
      stroke="#1a3f7a" stroke-width="0.5"
      stroke-opacity="0.3" stroke-dasharray="6,6"/><line x1="86" y1="130.0" x2="1738" y2="130.0"
      stroke="#1a3f7a" stroke-width="0.5"
      stroke-opacity="0.3" stroke-dasharray="6,6"/>
<text x="74" y="494.0" font-size="11" fill="#5aa8ff"
      text-anchor="end" font-family="'Lexend','Segoe UI',sans-serif" font-weight="300">0</text><text x="74" y="422.0" font-size="11" fill="#5aa8ff"
      text-anchor="end" font-family="'Lexend','Segoe UI',sans-serif" font-weight="300">20.0k</text><text x="74" y="350.0" font-size="11" fill="#5aa8ff"
      text-anchor="end" font-family="'Lexend','Segoe UI',sans-serif" font-weight="300">40.0k</text><text x="74" y="278.0" font-size="11" fill="#5aa8ff"
      text-anchor="end" font-family="'Lexend','Segoe UI',sans-serif" font-weight="300">60.0k</text><text x="74" y="206.0" font-size="11" fill="#5aa8ff"
      text-anchor="end" font-family="'Lexend','Segoe UI',sans-serif" font-weight="300">80.0k</text><text x="74" y="134.0" font-size="11" fill="#5aa8ff"
      text-anchor="end" font-family="'Lexend','Segoe UI',sans-serif" font-weight="300">100.0k</text>
<text x="1750" y="494.0" font-size="11" fill="#ff8c42"
      text-anchor="start" font-family="'Lexend','Segoe UI',sans-serif" font-weight="300" opacity="0.85">0</text><text x="1750" y="404.0" font-size="11" fill="#ff8c42"
      text-anchor="start" font-family="'Lexend','Segoe UI',sans-serif" font-weight="300" opacity="0.85">20</text><text x="1750" y="314.0" font-size="11" fill="#ff8c42"
      text-anchor="start" font-family="'Lexend','Segoe UI',sans-serif" font-weight="300" opacity="0.85">40</text><text x="1750" y="224.0" font-size="11" fill="#ff8c42"
      text-anchor="start" font-family="'Lexend','Segoe UI',sans-serif" font-weight="300" opacity="0.85">60</text><text x="1750" y="134.0" font-size="11" fill="#ff8c42"
      text-anchor="start" font-family="'Lexend','Segoe UI',sans-serif" font-weight="300" opacity="0.85">80</text>

<!-- ════ AXIS LINES ════ -->
<line x1="86" y1="130" x2="86" y2="490"
  stroke="#1a3f7a" stroke-width="1.2" stroke-opacity="0.65"/>
<line x1="86" y1="490" x2="1738" y2="490"
  stroke="#1a3f7a" stroke-width="1.4" stroke-opacity="0.8"/>
<line x1="1738" y1="130" x2="1738" y2="490"
  stroke="#ff8c42" stroke-width="0.9" stroke-opacity="0.28"/>

<!-- ════ X-AXIS ════ -->
<text x="86.0" y="514" font-size="10" fill="#5aa8ff"
      text-anchor="end" font-family="'Lexend','Segoe UI',sans-serif" font-weight="300"
      transform="rotate(-42, 86.0, 514)">10 Mar</text><text x="199.9" y="514" font-size="10" fill="#5aa8ff"
      text-anchor="end" font-family="'Lexend','Segoe UI',sans-serif" font-weight="300"
      transform="rotate(-42, 199.9, 514)">14 Mar</text><text x="313.9" y="514" font-size="10" fill="#5aa8ff"
      text-anchor="end" font-family="'Lexend','Segoe UI',sans-serif" font-weight="300"
      transform="rotate(-42, 313.9, 514)">18 Mar</text><text x="427.8" y="514" font-size="10" fill="#5aa8ff"
      text-anchor="end" font-family="'Lexend','Segoe UI',sans-serif" font-weight="300"
      transform="rotate(-42, 427.8, 514)">22 Mar</text><text x="541.7" y="514" font-size="10" fill="#5aa8ff"
      text-anchor="end" font-family="'Lexend','Segoe UI',sans-serif" font-weight="300"
      transform="rotate(-42, 541.7, 514)">26 Mar</text><text x="655.7" y="514" font-size="10" fill="#5aa8ff"
      text-anchor="end" font-family="'Lexend','Segoe UI',sans-serif" font-weight="300"
      transform="rotate(-42, 655.7, 514)">30 Mar</text><text x="769.6" y="514" font-size="10" fill="#5aa8ff"
      text-anchor="end" font-family="'Lexend','Segoe UI',sans-serif" font-weight="300"
      transform="rotate(-42, 769.6, 514)">3 Apr</text><text x="883.5" y="514" font-size="10" fill="#5aa8ff"
      text-anchor="end" font-family="'Lexend','Segoe UI',sans-serif" font-weight="300"
      transform="rotate(-42, 883.5, 514)">7 Apr</text><text x="997.4" y="514" font-size="10" fill="#5aa8ff"
      text-anchor="end" font-family="'Lexend','Segoe UI',sans-serif" font-weight="300"
      transform="rotate(-42, 997.4, 514)">11 Apr</text><text x="1111.4" y="514" font-size="10" fill="#5aa8ff"
      text-anchor="end" font-family="'Lexend','Segoe UI',sans-serif" font-weight="300"
      transform="rotate(-42, 1111.4, 514)">15 Apr</text><text x="1225.3" y="514" font-size="10" fill="#5aa8ff"
      text-anchor="end" font-family="'Lexend','Segoe UI',sans-serif" font-weight="300"
      transform="rotate(-42, 1225.3, 514)">19 Apr</text><text x="1339.2" y="514" font-size="10" fill="#5aa8ff"
      text-anchor="end" font-family="'Lexend','Segoe UI',sans-serif" font-weight="300"
      transform="rotate(-42, 1339.2, 514)">23 Apr</text><text x="1453.2" y="514" font-size="10" fill="#5aa8ff"
      text-anchor="end" font-family="'Lexend','Segoe UI',sans-serif" font-weight="300"
      transform="rotate(-42, 1453.2, 514)">27 Apr</text><text x="1567.1" y="514" font-size="10" fill="#5aa8ff"
      text-anchor="end" font-family="'Lexend','Segoe UI',sans-serif" font-weight="300"
      transform="rotate(-42, 1567.1, 514)">1 May</text><text x="1681.0" y="514" font-size="10" fill="#5aa8ff"
      text-anchor="end" font-family="'Lexend','Segoe UI',sans-serif" font-weight="300"
      transform="rotate(-42, 1681.0, 514)">5 May</text><text x="1738.0" y="514" font-size="10" fill="#5aa8ff"
      text-anchor="end" font-family="'Lexend','Segoe UI',sans-serif" font-weight="300"
      transform="rotate(-42, 1738.0, 514)">7 May</text>

<!-- ════ CHART CONTENT ════ -->
<g clip-path="url(#chartClip)">
  <!-- Total lines: area + stroke -->
  <path d="M 86.00 490.00 C 90.75 490.00, 104.99 490.00, 114.48 490.00 C 123.98 490.00, 133.47 490.00, 142.97 490.00 C 152.46 490.00, 161.95 490.00, 171.45 490.00 C 180.94 490.00, 190.44 490.00, 199.93 490.00 C 209.43 490.00, 218.92 490.00, 228.41 490.00 C 237.91 490.00, 247.40 490.00, 256.90 490.00 C 266.39 489.98, 275.89 489.92, 285.38 489.91 C 294.87 489.89, 304.37 489.91, 313.86 489.91 C 323.36 489.91, 332.85 489.94, 342.34 489.91 C 351.84 489.87, 361.33 489.72, 370.83 489.69 C 380.32 489.65, 389.82 489.70, 399.31 489.69 C 408.80 489.67, 418.30 489.62, 427.79 489.61 C 437.29 489.59, 446.78 490.00, 456.28 489.61 C 465.77 488.99, 475.26 486.51, 484.76 485.89 C 494.25 485.28, 503.75 485.91, 513.24 485.91 C 522.74 485.91, 532.23 485.90, 541.72 485.90 C 551.22 485.90, 560.71 490.00, 570.21 485.89 C 579.70 443.28, 589.20 274.96, 598.69 230.27 C 608.18 185.59, 617.68 219.88, 627.17 217.78 C 636.67 215.68, 646.16 218.05, 655.66 217.69 C 665.15 217.33, 674.64 216.22, 684.14 215.61 C 693.63 215.00, 703.13 214.42, 712.62 214.05 C 722.11 213.67, 731.61 213.51, 741.10 213.37 C 750.60 213.23, 760.09 213.54, 769.59 213.21 C 779.08 212.88, 788.57 211.70, 798.07 211.39 C 807.56 211.09, 817.06 211.39, 826.55 211.39 C 836.05 211.39, 845.54 211.45, 855.03 211.38 C 864.53 211.31, 874.02 211.03, 883.52 210.96 C 893.01 210.89, 902.51 210.96, 912.00 210.96 C 921.49 210.95, 930.99 210.95, 940.48 210.94 C 949.98 210.94, 959.47 210.92, 968.97 210.92 C 978.46 210.92, 987.95 211.38, 997.45 210.94 C 1006.94 210.50, 1016.44 208.73, 1025.93 208.29 C 1035.43 207.84, 1044.92 208.30, 1054.41 208.29 C 1063.91 208.27, 1073.40 208.21, 1082.90 208.20 C 1092.39 208.18, 1101.89 208.18, 1111.38 208.17 C 1120.87 208.17, 1130.37 208.16, 1139.86 208.16 C 1149.36 208.15, 1158.85 208.15, 1168.34 208.15 C 1177.84 208.14, 1187.33 208.13, 1196.83 208.12 C 1206.32 208.12, 1215.82 208.20, 1225.31 208.11 C 1234.80 208.01, 1244.30 207.65, 1253.79 207.56 C 1263.29 207.47, 1272.78 207.55, 1282.28 207.55 C 1291.77 207.55, 1301.26 207.54, 1310.76 207.54 C 1320.25 207.53, 1329.75 207.53, 1339.24 207.52 C 1348.74 207.52, 1358.23 207.51, 1367.72 207.50 C 1377.22 207.49, 1386.71 207.49, 1396.21 207.49 C 1405.70 207.49, 1415.20 207.49, 1424.69 207.49 C 1434.18 207.49, 1443.68 207.50, 1453.17 207.48 C 1462.67 207.46, 1472.16 207.41, 1481.66 207.39 C 1491.15 207.37, 1500.64 207.38, 1510.14 207.37 C 1519.63 207.37, 1529.13 207.71, 1538.62 207.35 C 1548.11 207.00, 1557.61 205.59, 1567.10 205.24 C 1576.60 204.89, 1586.09 211.15, 1595.59 205.24 C 1605.08 199.33, 1614.57 135.79, 1624.07 169.76 C 1633.56 203.74, 1643.06 369.82, 1652.55 409.09 C 1662.05 448.36, 1671.54 406.13, 1681.03 405.39 C 1690.53 404.64, 1700.02 405.20, 1709.52 404.61 C 1719.01 404.02, 1733.25 402.30, 1738.00 401.84 L 1738.00 490 L 86.00 490 Z" fill="url(#areaFill)"/>
  <path d="M 86.00 490.00 C 90.75 490.00, 104.99 490.00, 114.48 490.00 C 123.98 490.00, 133.47 490.00, 142.97 490.00 C 152.46 490.00, 161.95 490.00, 171.45 490.00 C 180.94 490.00, 190.44 490.00, 199.93 490.00 C 209.43 490.00, 218.92 490.00, 228.41 490.00 C 237.91 490.00, 247.40 490.00, 256.90 490.00 C 266.39 489.98, 275.89 489.92, 285.38 489.91 C 294.87 489.89, 304.37 489.91, 313.86 489.91 C 323.36 489.91, 332.85 489.94, 342.34 489.91 C 351.84 489.87, 361.33 489.72, 370.83 489.69 C 380.32 489.65, 389.82 489.70, 399.31 489.69 C 408.80 489.67, 418.30 489.62, 427.79 489.61 C 437.29 489.59, 446.78 490.00, 456.28 489.61 C 465.77 488.99, 475.26 486.51, 484.76 485.89 C 494.25 485.28, 503.75 485.91, 513.24 485.91 C 522.74 485.91, 532.23 485.90, 541.72 485.90 C 551.22 485.90, 560.71 490.00, 570.21 485.89 C 579.70 443.28, 589.20 274.96, 598.69 230.27 C 608.18 185.59, 617.68 219.88, 627.17 217.78 C 636.67 215.68, 646.16 218.05, 655.66 217.69 C 665.15 217.33, 674.64 216.22, 684.14 215.61 C 693.63 215.00, 703.13 214.42, 712.62 214.05 C 722.11 213.67, 731.61 213.51, 741.10 213.37 C 750.60 213.23, 760.09 213.54, 769.59 213.21 C 779.08 212.88, 788.57 211.70, 798.07 211.39 C 807.56 211.09, 817.06 211.39, 826.55 211.39 C 836.05 211.39, 845.54 211.45, 855.03 211.38 C 864.53 211.31, 874.02 211.03, 883.52 210.96 C 893.01 210.89, 902.51 210.96, 912.00 210.96 C 921.49 210.95, 930.99 210.95, 940.48 210.94 C 949.98 210.94, 959.47 210.92, 968.97 210.92 C 978.46 210.92, 987.95 211.38, 997.45 210.94 C 1006.94 210.50, 1016.44 208.73, 1025.93 208.29 C 1035.43 207.84, 1044.92 208.30, 1054.41 208.29 C 1063.91 208.27, 1073.40 208.21, 1082.90 208.20 C 1092.39 208.18, 1101.89 208.18, 1111.38 208.17 C 1120.87 208.17, 1130.37 208.16, 1139.86 208.16 C 1149.36 208.15, 1158.85 208.15, 1168.34 208.15 C 1177.84 208.14, 1187.33 208.13, 1196.83 208.12 C 1206.32 208.12, 1215.82 208.20, 1225.31 208.11 C 1234.80 208.01, 1244.30 207.65, 1253.79 207.56 C 1263.29 207.47, 1272.78 207.55, 1282.28 207.55 C 1291.77 207.55, 1301.26 207.54, 1310.76 207.54 C 1320.25 207.53, 1329.75 207.53, 1339.24 207.52 C 1348.74 207.52, 1358.23 207.51, 1367.72 207.50 C 1377.22 207.49, 1386.71 207.49, 1396.21 207.49 C 1405.70 207.49, 1415.20 207.49, 1424.69 207.49 C 1434.18 207.49, 1443.68 207.50, 1453.17 207.48 C 1462.67 207.46, 1472.16 207.41, 1481.66 207.39 C 1491.15 207.37, 1500.64 207.38, 1510.14 207.37 C 1519.63 207.37, 1529.13 207.71, 1538.62 207.35 C 1548.11 207.00, 1557.61 205.59, 1567.10 205.24 C 1576.60 204.89, 1586.09 211.15, 1595.59 205.24 C 1605.08 199.33, 1614.57 135.79, 1624.07 169.76 C 1633.56 203.74, 1643.06 369.82, 1652.55 409.09 C 1662.05 448.36, 1671.54 406.13, 1681.03 405.39 C 1690.53 404.64, 1700.02 405.20, 1709.52 404.61 C 1719.01 404.02, 1733.25 402.30, 1738.00 401.84" fill="none" stroke="#4a90e2" stroke-width="2" stroke-opacity="0.7"/>

  <!-- Bars -->
  <rect x="477.1" y="312.5" width="15.400000000000002" height="88.1"
        fill="url(#gDelBar)" rx="2" opacity="0.78"/><rect x="477.1" y="400.6" width="15.400000000000002" height="89.4"
        fill="url(#gAddBar)" rx="2" opacity="0.82"/><rect x="591.0" y="392.5" width="15.400000000000002" height="2.7"
        fill="url(#gDelBar)" rx="2" opacity="0.78"/><rect x="591.0" y="395.2" width="15.400000000000002" height="94.8"
        fill="url(#gAddBar)" rx="2" opacity="0.82"/><rect x="619.5" y="476.3" width="15.400000000000002" height="4.6"
        fill="url(#gDelBar)" rx="2" opacity="0.78"/><rect x="619.5" y="480.9" width="15.400000000000002" height="9.1"
        fill="url(#gAddBar)" rx="2" opacity="0.82"/><rect x="676.4" y="487.5" width="15.400000000000002" height="0.9"
        fill="url(#gDelBar)" rx="2" opacity="0.78"/><rect x="676.4" y="488.4" width="15.400000000000002" height="1.6"
        fill="url(#gAddBar)" rx="2" opacity="0.82"/><rect x="704.9" y="487.5" width="15.400000000000002" height="1.0"
        fill="url(#gDelBar)" rx="2" opacity="0.78"/><rect x="704.9" y="488.5" width="15.400000000000002" height="1.5"
        fill="url(#gAddBar)" rx="2" opacity="0.82"/><rect x="761.9" y="487.6" width="15.400000000000002" height="1.2"
        fill="url(#gDelBar)" rx="2" opacity="0.78"/><rect x="761.9" y="488.8" width="15.400000000000002" height="1.2"
        fill="url(#gAddBar)" rx="2" opacity="0.82"/><rect x="790.4" y="486.1" width="15.400000000000002" height="1.6"
        fill="url(#gDelBar)" rx="2" opacity="0.78"/><rect x="790.4" y="487.7" width="15.400000000000002" height="2.3"
        fill="url(#gAddBar)" rx="2" opacity="0.82"/><rect x="1018.2" y="488.8" width="15.400000000000002" height="1.2"
        fill="url(#gAddBar)" rx="2" opacity="0.82"/><rect x="1246.1" y="488.7" width="15.400000000000002" height="0.5"
        fill="url(#gDelBar)" rx="2" opacity="0.78"/><rect x="1246.1" y="489.3" width="15.400000000000002" height="0.7"
        fill="url(#gAddBar)" rx="2" opacity="0.82"/><rect x="1559.4" y="479.7" width="15.400000000000002" height="4.8"
        fill="url(#gDelBar)" rx="2" opacity="0.78"/><rect x="1559.4" y="484.5" width="15.400000000000002" height="5.5"
        fill="url(#gAddBar)" rx="2" opacity="0.82"/><rect x="1616.4" y="472.3" width="15.400000000000002" height="2.5"
        fill="url(#gDelBar)" rx="2" opacity="0.78"/><rect x="1616.4" y="474.8" width="15.400000000000002" height="15.2"
        fill="url(#gAddBar)" rx="2" opacity="0.82"/><rect x="1644.9" y="401.3" width="15.400000000000002" height="87.4"
        fill="url(#gDelBar)" rx="2" opacity="0.78"/><rect x="1644.9" y="488.7" width="15.400000000000002" height="1.3"
        fill="url(#gAddBar)" rx="2" opacity="0.82"/><rect x="1673.3" y="479.5" width="15.400000000000002" height="4.6"
        fill="url(#gDelBar)" rx="2" opacity="0.78"/><rect x="1673.3" y="484.1" width="15.400000000000002" height="5.9"
        fill="url(#gAddBar)" rx="2" opacity="0.82"/><rect x="1701.8" y="488.0" width="15.400000000000002" height="0.9"
        fill="url(#gDelBar)" rx="2" opacity="0.78"/><rect x="1701.8" y="488.8" width="15.400000000000002" height="1.2"
        fill="url(#gAddBar)" rx="2" opacity="0.82"/><rect x="1730.3" y="484.6" width="15.400000000000002" height="2.2"
        fill="url(#gDelBar)" rx="2" opacity="0.78"/><rect x="1730.3" y="486.8" width="15.400000000000002" height="3.2"
        fill="url(#gAddBar)" rx="2" opacity="0.82"/>

  <!-- Commits line — glow + crisp -->
  <path d="M 86.00 485.50 C 90.75 486.25, 104.99 489.25, 114.48 490.00 C 123.98 490.00, 133.47 490.00, 142.97 490.00 C 152.46 490.00, 161.95 490.00, 171.45 490.00 C 180.94 490.00, 190.44 490.00, 199.93 490.00 C 209.43 490.00, 218.92 490.00, 228.41 490.00 C 237.91 490.00, 247.40 490.00, 256.90 490.00 C 266.39 482.50, 275.89 445.00, 285.38 445.00 C 294.87 445.00, 304.37 482.50, 313.86 490.00 C 323.36 490.00, 332.85 490.00, 342.34 490.00 C 351.84 470.50, 361.33 373.00, 370.83 373.00 C 380.32 373.00, 389.82 471.25, 399.31 490.00 C 408.80 490.00, 418.30 485.50, 427.79 485.50 C 437.29 485.50, 446.78 490.00, 456.28 490.00 C 465.77 466.75, 475.26 351.25, 484.76 346.00 C 494.25 340.75, 503.75 436.75, 513.24 458.50 C 522.74 480.25, 532.23 472.00, 541.72 476.50 C 551.22 481.00, 560.71 490.00, 570.21 485.50 C 579.70 438.25, 589.20 225.25, 598.69 193.00 C 608.18 160.75, 617.68 244.00, 627.17 292.00 C 636.67 340.00, 646.16 460.00, 655.66 481.00 C 665.15 490.00, 674.64 427.00, 684.14 418.00 C 693.63 409.00, 703.13 416.50, 712.62 427.00 C 722.11 437.50, 731.61 488.50, 741.10 481.00 C 750.60 473.50, 760.09 394.00, 769.59 382.00 C 779.08 370.00, 788.57 391.75, 798.07 409.00 C 807.56 426.25, 817.06 472.75, 826.55 485.50 C 836.05 490.00, 845.54 490.00, 855.03 485.50 C 864.53 479.50, 874.02 449.50, 883.52 449.50 C 893.01 449.50, 902.51 479.50, 912.00 485.50 C 921.49 490.00, 930.99 485.50, 940.48 485.50 C 949.98 485.50, 959.47 485.50, 968.97 485.50 C 978.46 485.50, 987.95 487.75, 997.45 485.50 C 1006.94 483.25, 1016.44 472.00, 1025.93 472.00 C 1035.43 472.00, 1044.92 483.25, 1054.41 485.50 C 1063.91 487.75, 1073.40 485.50, 1082.90 485.50 C 1092.39 485.50, 1101.89 485.50, 1111.38 485.50 C 1120.87 485.50, 1130.37 485.50, 1139.86 485.50 C 1149.36 485.50, 1158.85 485.50, 1168.34 485.50 C 1177.84 485.50, 1187.33 485.50, 1196.83 485.50 C 1206.32 485.50, 1215.82 487.00, 1225.31 485.50 C 1234.80 484.00, 1244.30 476.50, 1253.79 476.50 C 1263.29 476.50, 1272.78 484.00, 1282.28 485.50 C 1291.77 487.00, 1301.26 485.50, 1310.76 485.50 C 1320.25 485.50, 1329.75 485.50, 1339.24 485.50 C 1348.74 485.50, 1358.23 485.50, 1367.72 485.50 C 1377.22 485.50, 1386.71 485.50, 1396.21 485.50 C 1405.70 485.50, 1415.20 485.50, 1424.69 485.50 C 1434.18 485.50, 1443.68 485.50, 1453.17 485.50 C 1462.67 485.50, 1472.16 485.50, 1481.66 485.50 C 1491.15 485.50, 1500.64 485.50, 1510.14 485.50 C 1519.63 485.50, 1529.13 489.25, 1538.62 485.50 C 1548.11 481.75, 1557.61 463.00, 1567.10 463.00 C 1576.60 463.00, 1586.09 490.00, 1595.59 485.50 C 1605.08 460.75, 1614.57 321.25, 1624.07 314.50 C 1633.56 307.75, 1643.06 443.50, 1652.55 445.00 C 1662.05 446.50, 1671.54 322.75, 1681.03 323.50 C 1690.53 324.25, 1700.02 430.75, 1709.52 449.50 C 1719.01 468.25, 1733.25 438.25, 1738.00 436.00" fill="none" stroke="#ff8c42" stroke-width="9" stroke-opacity="0.06" filter="url(#glowLine)"/>
  <path d="M 86.00 485.50 C 90.75 486.25, 104.99 489.25, 114.48 490.00 C 123.98 490.00, 133.47 490.00, 142.97 490.00 C 152.46 490.00, 161.95 490.00, 171.45 490.00 C 180.94 490.00, 190.44 490.00, 199.93 490.00 C 209.43 490.00, 218.92 490.00, 228.41 490.00 C 237.91 490.00, 247.40 490.00, 256.90 490.00 C 266.39 482.50, 275.89 445.00, 285.38 445.00 C 294.87 445.00, 304.37 482.50, 313.86 490.00 C 323.36 490.00, 332.85 490.00, 342.34 490.00 C 351.84 470.50, 361.33 373.00, 370.83 373.00 C 380.32 373.00, 389.82 471.25, 399.31 490.00 C 408.80 490.00, 418.30 485.50, 427.79 485.50 C 437.29 485.50, 446.78 490.00, 456.28 490.00 C 465.77 466.75, 475.26 351.25, 484.76 346.00 C 494.25 340.75, 503.75 436.75, 513.24 458.50 C 522.74 480.25, 532.23 472.00, 541.72 476.50 C 551.22 481.00, 560.71 490.00, 570.21 485.50 C 579.70 438.25, 589.20 225.25, 598.69 193.00 C 608.18 160.75, 617.68 244.00, 627.17 292.00 C 636.67 340.00, 646.16 460.00, 655.66 481.00 C 665.15 490.00, 674.64 427.00, 684.14 418.00 C 693.63 409.00, 703.13 416.50, 712.62 427.00 C 722.11 437.50, 731.61 488.50, 741.10 481.00 C 750.60 473.50, 760.09 394.00, 769.59 382.00 C 779.08 370.00, 788.57 391.75, 798.07 409.00 C 807.56 426.25, 817.06 472.75, 826.55 485.50 C 836.05 490.00, 845.54 490.00, 855.03 485.50 C 864.53 479.50, 874.02 449.50, 883.52 449.50 C 893.01 449.50, 902.51 479.50, 912.00 485.50 C 921.49 490.00, 930.99 485.50, 940.48 485.50 C 949.98 485.50, 959.47 485.50, 968.97 485.50 C 978.46 485.50, 987.95 487.75, 997.45 485.50 C 1006.94 483.25, 1016.44 472.00, 1025.93 472.00 C 1035.43 472.00, 1044.92 483.25, 1054.41 485.50 C 1063.91 487.75, 1073.40 485.50, 1082.90 485.50 C 1092.39 485.50, 1101.89 485.50, 1111.38 485.50 C 1120.87 485.50, 1130.37 485.50, 1139.86 485.50 C 1149.36 485.50, 1158.85 485.50, 1168.34 485.50 C 1177.84 485.50, 1187.33 485.50, 1196.83 485.50 C 1206.32 485.50, 1215.82 487.00, 1225.31 485.50 C 1234.80 484.00, 1244.30 476.50, 1253.79 476.50 C 1263.29 476.50, 1272.78 484.00, 1282.28 485.50 C 1291.77 487.00, 1301.26 485.50, 1310.76 485.50 C 1320.25 485.50, 1329.75 485.50, 1339.24 485.50 C 1348.74 485.50, 1358.23 485.50, 1367.72 485.50 C 1377.22 485.50, 1386.71 485.50, 1396.21 485.50 C 1405.70 485.50, 1415.20 485.50, 1424.69 485.50 C 1434.18 485.50, 1443.68 485.50, 1453.17 485.50 C 1462.67 485.50, 1472.16 485.50, 1481.66 485.50 C 1491.15 485.50, 1500.64 485.50, 1510.14 485.50 C 1519.63 485.50, 1529.13 489.25, 1538.62 485.50 C 1548.11 481.75, 1557.61 463.00, 1567.10 463.00 C 1576.60 463.00, 1586.09 490.00, 1595.59 485.50 C 1605.08 460.75, 1614.57 321.25, 1624.07 314.50 C 1633.56 307.75, 1643.06 443.50, 1652.55 445.00 C 1662.05 446.50, 1671.54 322.75, 1681.03 323.50 C 1690.53 324.25, 1700.02 430.75, 1709.52 449.50 C 1719.01 468.25, 1733.25 438.25, 1738.00 436.00" fill="none" stroke="url(#gCommits)" stroke-width="2.8" stroke-linecap="round"/>

  <!-- Changes/commit line -->
  <path d="M 86.00 489.95 C 90.75 489.96, 104.99 489.99, 114.48 490.00 C 123.98 490.00, 133.47 490.00, 142.97 490.00 C 152.46 490.00, 161.95 490.00, 171.45 490.00 C 180.94 490.00, 190.44 490.00, 199.93 490.00 C 209.43 490.00, 218.92 490.00, 228.41 490.00 C 237.91 490.00, 247.40 490.00, 256.90 490.00 C 266.39 489.97, 275.89 489.82, 285.38 489.82 C 294.87 489.82, 304.37 489.97, 313.86 490.00 C 323.36 490.00, 332.85 490.00, 342.34 490.00 C 351.84 489.98, 361.33 489.87, 370.83 489.87 C 380.32 489.87, 389.82 490.00, 399.31 490.00 C 408.80 489.86, 418.30 489.01, 427.79 489.01 C 437.29 489.01, 446.78 490.00, 456.28 490.00 C 465.77 458.07, 475.26 297.56, 484.76 297.44 C 494.25 297.33, 503.75 457.62, 513.24 489.32 C 522.74 490.00, 532.23 487.94, 541.72 487.66 C 551.22 487.38, 560.71 490.00, 570.21 487.66 C 579.70 479.50, 589.20 440.12, 598.69 438.70 C 608.18 437.28, 617.68 472.11, 627.17 479.15 C 636.67 486.20, 646.16 480.05, 655.66 480.95 C 665.15 481.86, 674.64 484.08, 684.14 484.56 C 693.63 485.03, 703.13 483.86, 712.62 483.79 C 722.11 483.72, 731.61 483.70, 741.10 484.15 C 750.60 484.60, 760.09 486.76, 769.59 486.49 C 779.08 486.22, 788.57 482.59, 798.07 482.53 C 807.56 482.47, 817.06 486.48, 826.55 486.13 C 836.05 485.78, 845.54 480.26, 855.03 480.46 C 864.53 480.65, 874.02 486.26, 883.52 487.30 C 893.01 488.34, 902.51 487.88, 912.00 486.67 C 921.49 485.46, 930.99 481.23, 940.48 480.01 C 949.98 478.79, 959.47 479.49, 968.97 479.38 C 978.46 479.27, 987.95 479.64, 997.45 479.38 C 1006.94 479.12, 1016.44 476.63, 1025.93 477.81 C 1035.43 478.98, 1044.92 487.00, 1054.41 486.40 C 1063.91 485.80, 1073.40 475.51, 1082.90 474.20 C 1092.39 472.90, 1101.89 477.86, 1111.38 478.57 C 1120.87 479.28, 1130.37 478.50, 1139.86 478.48 C 1149.36 478.47, 1158.85 478.53, 1168.34 478.48 C 1177.84 478.44, 1187.33 478.31, 1196.83 478.21 C 1206.32 478.10, 1215.82 478.32, 1225.31 477.85 C 1234.80 477.38, 1244.30 473.94, 1253.79 475.38 C 1263.29 476.81, 1272.78 486.17, 1282.28 486.49 C 1291.77 486.81, 1301.26 478.88, 1310.76 477.31 C 1320.25 475.74, 1329.75 477.16, 1339.24 477.04 C 1348.74 476.92, 1358.23 476.71, 1367.72 476.59 C 1377.22 476.47, 1386.71 476.35, 1396.21 476.32 C 1405.70 476.29, 1415.20 476.46, 1424.69 476.41 C 1434.18 476.37, 1443.68 477.12, 1453.17 476.05 C 1462.67 474.98, 1472.16 469.96, 1481.66 469.98 C 1491.15 469.99, 1500.64 477.21, 1510.14 476.14 C 1519.63 475.07, 1529.13 471.21, 1538.62 463.54 C 1548.11 455.88, 1557.61 426.34, 1567.10 430.15 C 1576.60 433.96, 1586.09 479.05, 1595.59 486.40 C 1605.08 490.00, 1614.57 490.00, 1624.07 474.25 C 1633.56 423.52, 1643.06 181.04, 1652.55 182.02 C 1662.05 183.00, 1671.54 430.11, 1681.03 480.14 C 1690.53 490.00, 1700.02 483.19, 1709.52 482.21 C 1719.01 481.24, 1733.25 475.62, 1738.00 474.30" fill="none" stroke="#00d4f5" stroke-width="9" stroke-opacity="0.06" filter="url(#glowLine)"/>
  <path d="M 86.00 489.95 C 90.75 489.96, 104.99 489.99, 114.48 490.00 C 123.98 490.00, 133.47 490.00, 142.97 490.00 C 152.46 490.00, 161.95 490.00, 171.45 490.00 C 180.94 490.00, 190.44 490.00, 199.93 490.00 C 209.43 490.00, 218.92 490.00, 228.41 490.00 C 237.91 490.00, 247.40 490.00, 256.90 490.00 C 266.39 489.97, 275.89 489.82, 285.38 489.82 C 294.87 489.82, 304.37 489.97, 313.86 490.00 C 323.36 490.00, 332.85 490.00, 342.34 490.00 C 351.84 489.98, 361.33 489.87, 370.83 489.87 C 380.32 489.87, 389.82 490.00, 399.31 490.00 C 408.80 489.86, 418.30 489.01, 427.79 489.01 C 437.29 489.01, 446.78 490.00, 456.28 490.00 C 465.77 458.07, 475.26 297.56, 484.76 297.44 C 494.25 297.33, 503.75 457.62, 513.24 489.32 C 522.74 490.00, 532.23 487.94, 541.72 487.66 C 551.22 487.38, 560.71 490.00, 570.21 487.66 C 579.70 479.50, 589.20 440.12, 598.69 438.70 C 608.18 437.28, 617.68 472.11, 627.17 479.15 C 636.67 486.20, 646.16 480.05, 655.66 480.95 C 665.15 481.86, 674.64 484.08, 684.14 484.56 C 693.63 485.03, 703.13 483.86, 712.62 483.79 C 722.11 483.72, 731.61 483.70, 741.10 484.15 C 750.60 484.60, 760.09 486.76, 769.59 486.49 C 779.08 486.22, 788.57 482.59, 798.07 482.53 C 807.56 482.47, 817.06 486.48, 826.55 486.13 C 836.05 485.78, 845.54 480.26, 855.03 480.46 C 864.53 480.65, 874.02 486.26, 883.52 487.30 C 893.01 488.34, 902.51 487.88, 912.00 486.67 C 921.49 485.46, 930.99 481.23, 940.48 480.01 C 949.98 478.79, 959.47 479.49, 968.97 479.38 C 978.46 479.27, 987.95 479.64, 997.45 479.38 C 1006.94 479.12, 1016.44 476.63, 1025.93 477.81 C 1035.43 478.98, 1044.92 487.00, 1054.41 486.40 C 1063.91 485.80, 1073.40 475.51, 1082.90 474.20 C 1092.39 472.90, 1101.89 477.86, 1111.38 478.57 C 1120.87 479.28, 1130.37 478.50, 1139.86 478.48 C 1149.36 478.47, 1158.85 478.53, 1168.34 478.48 C 1177.84 478.44, 1187.33 478.31, 1196.83 478.21 C 1206.32 478.10, 1215.82 478.32, 1225.31 477.85 C 1234.80 477.38, 1244.30 473.94, 1253.79 475.38 C 1263.29 476.81, 1272.78 486.17, 1282.28 486.49 C 1291.77 486.81, 1301.26 478.88, 1310.76 477.31 C 1320.25 475.74, 1329.75 477.16, 1339.24 477.04 C 1348.74 476.92, 1358.23 476.71, 1367.72 476.59 C 1377.22 476.47, 1386.71 476.35, 1396.21 476.32 C 1405.70 476.29, 1415.20 476.46, 1424.69 476.41 C 1434.18 476.37, 1443.68 477.12, 1453.17 476.05 C 1462.67 474.98, 1472.16 469.96, 1481.66 469.98 C 1491.15 469.99, 1500.64 477.21, 1510.14 476.14 C 1519.63 475.07, 1529.13 471.21, 1538.62 463.54 C 1548.11 455.88, 1557.61 426.34, 1567.10 430.15 C 1576.60 433.96, 1586.09 479.05, 1595.59 486.40 C 1605.08 490.00, 1614.57 490.00, 1624.07 474.25 C 1633.56 423.52, 1643.06 181.04, 1652.55 182.02 C 1662.05 183.00, 1671.54 430.11, 1681.03 480.14 C 1690.53 490.00, 1700.02 483.19, 1709.52 482.21 C 1719.01 481.24, 1733.25 475.62, 1738.00 474.30" fill="none" stroke="url(#gChanges)" stroke-width="2.5" stroke-linecap="round"/>

  <!-- Moving averages -->
  <path d="M 86.00 488.88 C 90.75 488.91, 104.99 489.04, 114.48 489.10 C 123.98 489.16, 133.47 489.21, 142.97 489.25 C 152.46 489.29, 161.95 490.00, 171.45 489.36 C 180.94 488.41, 190.44 484.54, 199.93 483.57 C 209.43 482.61, 218.92 483.57, 228.41 483.57 C 237.91 483.57, 247.40 486.36, 256.90 483.57 C 266.39 480.79, 275.89 469.64, 285.38 466.86 C 294.87 464.07, 304.37 466.96, 313.86 466.86 C 323.36 466.75, 332.85 466.32, 342.34 466.21 C 351.84 466.11, 361.33 468.57, 370.83 466.21 C 380.32 463.86, 389.82 455.18, 399.31 452.07 C 408.80 448.96, 418.30 448.64, 427.79 447.57 C 437.29 446.50, 446.78 443.29, 456.28 445.64 C 465.77 448.00, 475.26 466.11, 484.76 461.71 C 494.25 457.32, 503.75 430.96, 513.24 419.29 C 522.74 407.61, 532.23 396.46, 541.72 391.64 C 551.22 386.82, 560.71 388.86, 570.21 390.36 C 579.70 391.86, 589.20 399.68, 598.69 400.64 C 608.18 401.61, 617.68 396.79, 627.17 396.14 C 636.67 395.50, 646.16 399.14, 655.66 396.79 C 665.15 394.43, 674.64 379.32, 684.14 382.00 C 693.63 384.68, 703.13 403.11, 712.62 412.86 C 722.11 422.61, 731.61 435.79, 741.10 440.50 C 750.60 445.21, 760.09 440.29, 769.59 441.14 C 779.08 442.00, 788.57 443.50, 798.07 445.64 C 807.56 447.79, 817.06 452.50, 826.55 454.00 C 836.05 455.50, 845.54 452.07, 855.03 454.64 C 864.53 457.21, 874.02 465.14, 883.52 469.43 C 893.01 473.71, 902.51 478.86, 912.00 480.36 C 921.49 481.86, 930.99 478.75, 940.48 478.43 C 949.98 478.11, 959.47 477.57, 968.97 478.43 C 978.46 479.29, 987.95 482.71, 997.45 483.57 C 1006.94 484.43, 1016.44 483.57, 1025.93 483.57 C 1035.43 483.57, 1044.92 483.57, 1054.41 483.57 C 1063.91 483.57, 1073.40 483.57, 1082.90 483.57 C 1092.39 483.57, 1101.89 483.25, 1111.38 483.57 C 1120.87 483.89, 1130.37 485.39, 1139.86 485.50 C 1149.36 485.61, 1158.85 484.43, 1168.34 484.21 C 1177.84 484.00, 1187.33 484.21, 1196.83 484.21 C 1206.32 484.21, 1215.82 484.21, 1225.31 484.21 C 1234.80 484.21, 1244.30 484.21, 1253.79 484.21 C 1263.29 484.21, 1272.78 484.21, 1282.28 484.21 C 1291.77 484.21, 1301.26 484.21, 1310.76 484.21 C 1320.25 484.21, 1329.75 484.00, 1339.24 484.21 C 1348.74 484.43, 1358.23 485.29, 1367.72 485.50 C 1377.22 485.71, 1386.71 485.50, 1396.21 485.50 C 1405.70 485.50, 1415.20 485.50, 1424.69 485.50 C 1434.18 485.50, 1443.68 486.04, 1453.17 485.50 C 1462.67 484.96, 1472.16 482.82, 1481.66 482.29 C 1491.15 481.75, 1500.64 486.36, 1510.14 482.29 C 1519.63 478.21, 1529.13 462.89, 1538.62 457.86 C 1548.11 452.82, 1557.61 456.89, 1567.10 452.07 C 1576.60 447.25, 1586.09 433.64, 1595.59 428.93 C 1605.08 424.21, 1614.57 425.82, 1624.07 423.79 C 1633.56 421.75, 1643.06 419.18, 1652.55 416.71 C 1662.05 414.25, 1671.54 412.84, 1681.03 409.00 C 1690.53 405.16, 1700.02 392.95, 1709.52 393.70 C 1719.01 394.45, 1733.25 410.20, 1738.00 413.50" fill="none" stroke="#a78bfa" stroke-width="2" stroke-dasharray="6,4" stroke-opacity="0.55" filter="url(#glowMA)"/>
  <path d="M 86.00 489.99 C 90.75 489.99, 104.99 489.99, 114.48 489.99 C 123.98 489.99, 133.47 489.99, 142.97 489.99 C 152.46 489.99, 161.95 490.00, 171.45 489.99 C 180.94 489.99, 190.44 489.98, 199.93 489.97 C 209.43 489.97, 218.92 489.97, 228.41 489.97 C 237.91 489.97, 247.40 489.98, 256.90 489.97 C 266.39 489.97, 275.89 489.96, 285.38 489.95 C 294.87 489.95, 304.37 489.98, 313.86 489.95 C 323.36 489.93, 332.85 489.84, 342.34 489.81 C 351.84 489.79, 361.33 490.00, 370.83 489.81 C 380.32 485.23, 389.82 466.93, 399.31 462.33 C 408.80 457.73, 418.30 462.31, 427.79 462.24 C 437.29 462.16, 446.78 462.01, 456.28 461.90 C 465.77 461.79, 475.26 462.86, 484.76 461.59 C 494.25 460.31, 503.75 455.71, 513.24 454.26 C 522.74 452.80, 532.23 453.30, 541.72 452.85 C 551.22 452.40, 560.71 447.32, 570.21 451.56 C 579.70 455.80, 589.20 473.96, 598.69 478.29 C 608.18 482.61, 617.68 477.71, 627.17 477.50 C 636.67 477.28, 646.16 477.11, 655.66 477.00 C 665.15 476.88, 674.64 475.81, 684.14 476.83 C 693.63 477.84, 703.13 481.88, 712.62 483.09 C 722.11 484.30, 731.61 483.93, 741.10 484.09 C 750.60 484.24, 760.09 483.96, 769.59 484.01 C 779.08 484.07, 788.57 484.27, 798.07 484.41 C 807.56 484.54, 817.06 484.85, 826.55 484.82 C 836.05 484.79, 845.54 484.50, 855.03 484.23 C 864.53 483.96, 874.02 483.46, 883.52 483.21 C 893.01 482.97, 902.51 483.03, 912.00 482.76 C 921.49 482.49, 930.99 481.63, 940.48 481.57 C 949.98 481.52, 959.47 482.59, 968.97 482.42 C 978.46 482.25, 987.95 481.05, 997.45 480.55 C 1006.94 480.05, 1016.44 479.62, 1025.93 479.39 C 1035.43 479.16, 1044.92 479.23, 1054.41 479.17 C 1063.91 479.12, 1073.40 479.09, 1082.90 479.05 C 1092.39 479.00, 1101.89 478.91, 1111.38 478.88 C 1120.87 478.85, 1130.37 479.15, 1139.86 478.88 C 1149.36 478.62, 1158.85 477.28, 1168.34 477.31 C 1177.84 477.34, 1187.33 478.80, 1196.83 479.06 C 1206.32 479.33, 1215.82 478.95, 1225.31 478.88 C 1234.80 478.82, 1244.30 478.76, 1253.79 478.68 C 1263.29 478.60, 1272.78 478.50, 1282.28 478.41 C 1291.77 478.32, 1301.26 478.22, 1310.76 478.14 C 1320.25 478.06, 1329.75 477.95, 1339.24 477.93 C 1348.74 477.92, 1358.23 478.41, 1367.72 478.03 C 1377.22 477.65, 1386.71 476.09, 1396.21 475.67 C 1405.70 475.25, 1415.20 475.85, 1424.69 475.50 C 1434.18 475.15, 1443.68 475.00, 1453.17 473.57 C 1462.67 472.15, 1472.16 467.81, 1481.66 466.94 C 1491.15 466.08, 1500.64 468.19, 1510.14 468.38 C 1519.63 468.57, 1529.13 475.12, 1538.62 468.07 C 1548.11 461.02, 1557.61 432.83, 1567.10 426.07 C 1576.60 419.31, 1586.09 427.13, 1595.59 427.52 C 1605.08 427.91, 1614.57 427.99, 1624.07 428.39 C 1633.56 428.79, 1643.06 429.68, 1652.55 429.93 C 1662.05 430.17, 1671.54 431.78, 1681.03 429.89 C 1690.53 428.00, 1700.02 422.79, 1709.52 418.59 C 1719.01 414.38, 1733.25 406.99, 1738.00 404.67" fill="none" stroke="#c4b5fd" stroke-width="1.5" stroke-dasharray="5,4" stroke-opacity="0.4"/>

  <!-- Statistical overlay -->
  <line x1="86" y1="451.4" x2="1738" y2="451.4"
      stroke="#ff8c42" stroke-width="1" stroke-dasharray="8,4" opacity="0.3"/>
    <text x="1750" y="445.4" font-size="8" fill="#ff8c42"
      text-anchor="start" font-family="'Lexend','Segoe UI',sans-serif" font-weight="300" opacity="0.6">μ=8.6</text>

  <!-- Data point circles (inside clip for safety) -->
  <circle cx="86.0" cy="485.5" r="3.0"
        fill="#ff8c42" stroke="#ffd0a0" stroke-width="1" filter="url(#glowOrange)" opacity="0.9">
        <title>2026-03-10: 1 commits</title></circle><circle cx="285.4" cy="445.0" r="3.3"
        fill="#ff8c42" stroke="#ffd0a0" stroke-width="1" filter="url(#glowOrange)" opacity="0.9">
        <title>2026-03-17: 10 commits</title></circle><circle cx="370.8" cy="373.0" r="3.8"
        fill="#ff8c42" stroke="#ffd0a0" stroke-width="1" filter="url(#glowOrange)" opacity="0.9">
        <title>2026-03-20: 26 commits</title></circle><circle cx="427.8" cy="485.5" r="3.0"
        fill="#ff8c42" stroke="#ffd0a0" stroke-width="1" filter="url(#glowOrange)" opacity="0.9">
        <title>2026-03-22: 1 commits</title></circle><circle cx="484.8" cy="346.0" r="4.0"
        fill="#ff8c42" stroke="#ffd0a0" stroke-width="1" filter="url(#glowOrange)" opacity="0.9">
        <title>2026-03-24: 32 commits</title></circle><circle cx="513.2" cy="458.5" r="3.2"
        fill="#ff8c42" stroke="#ffd0a0" stroke-width="1" filter="url(#glowOrange)" opacity="0.9">
        <title>2026-03-25: 7 commits</title></circle><circle cx="541.7" cy="476.5" r="3.1"
        fill="#ff8c42" stroke="#ffd0a0" stroke-width="1" filter="url(#glowOrange)" opacity="0.9">
        <title>2026-03-26: 3 commits</title></circle><circle cx="570.2" cy="485.5" r="3.0"
        fill="#ff8c42" stroke="#ffd0a0" stroke-width="1" filter="url(#glowOrange)" opacity="0.9">
        <title>2026-03-27: 1 commits</title></circle><circle cx="598.7" cy="193.0" r="5.1"
        fill="#ff8c42" stroke="#ffd0a0" stroke-width="1" filter="url(#glowOrange)" opacity="0.9">
        <title>2026-03-28: 66 commits</title></circle><circle cx="627.2" cy="292.0" r="4.4"
        fill="#ff8c42" stroke="#ffd0a0" stroke-width="1" filter="url(#glowOrange)" opacity="0.9">
        <title>2026-03-29: 44 commits</title></circle><circle cx="655.7" cy="481.0" r="3.1"
        fill="#ff8c42" stroke="#ffd0a0" stroke-width="1" filter="url(#glowOrange)" opacity="0.9">
        <title>2026-03-30: 2 commits</title></circle><circle cx="684.1" cy="418.0" r="3.5"
        fill="#ff8c42" stroke="#ffd0a0" stroke-width="1" filter="url(#glowOrange)" opacity="0.9">
        <title>2026-03-31: 16 commits</title></circle><circle cx="712.6" cy="427.0" r="3.4"
        fill="#ff8c42" stroke="#ffd0a0" stroke-width="1" filter="url(#glowOrange)" opacity="0.9">
        <title>2026-04-01: 14 commits</title></circle><circle cx="741.1" cy="481.0" r="3.1"
        fill="#ff8c42" stroke="#ffd0a0" stroke-width="1" filter="url(#glowOrange)" opacity="0.9">
        <title>2026-04-02: 2 commits</title></circle><circle cx="769.6" cy="382.0" r="3.8"
        fill="#ff8c42" stroke="#ffd0a0" stroke-width="1" filter="url(#glowOrange)" opacity="0.9">
        <title>2026-04-03: 24 commits</title></circle><circle cx="798.1" cy="409.0" r="3.6"
        fill="#ff8c42" stroke="#ffd0a0" stroke-width="1" filter="url(#glowOrange)" opacity="0.9">
        <title>2026-04-04: 18 commits</title></circle><circle cx="826.6" cy="485.5" r="3.0"
        fill="#ff8c42" stroke="#ffd0a0" stroke-width="1" filter="url(#glowOrange)" opacity="0.9">
        <title>2026-04-05: 1 commits</title></circle><circle cx="855.0" cy="485.5" r="3.0"
        fill="#ff8c42" stroke="#ffd0a0" stroke-width="1" filter="url(#glowOrange)" opacity="0.9">
        <title>2026-04-06: 1 commits</title></circle><circle cx="883.5" cy="449.5" r="3.3"
        fill="#ff8c42" stroke="#ffd0a0" stroke-width="1" filter="url(#glowOrange)" opacity="0.9">
        <title>2026-04-07: 9 commits</title></circle><circle cx="912.0" cy="485.5" r="3.0"
        fill="#ff8c42" stroke="#ffd0a0" stroke-width="1" filter="url(#glowOrange)" opacity="0.9">
        <title>2026-04-08: 1 commits</title></circle><circle cx="940.5" cy="485.5" r="3.0"
        fill="#ff8c42" stroke="#ffd0a0" stroke-width="1" filter="url(#glowOrange)" opacity="0.9">
        <title>2026-04-09: 1 commits</title></circle><circle cx="969.0" cy="485.5" r="3.0"
        fill="#ff8c42" stroke="#ffd0a0" stroke-width="1" filter="url(#glowOrange)" opacity="0.9">
        <title>2026-04-10: 1 commits</title></circle><circle cx="997.4" cy="485.5" r="3.0"
        fill="#ff8c42" stroke="#ffd0a0" stroke-width="1" filter="url(#glowOrange)" opacity="0.9">
        <title>2026-04-11: 1 commits</title></circle><circle cx="1025.9" cy="472.0" r="3.1"
        fill="#ff8c42" stroke="#ffd0a0" stroke-width="1" filter="url(#glowOrange)" opacity="0.9">
        <title>2026-04-12: 4 commits</title></circle><circle cx="1054.4" cy="485.5" r="3.0"
        fill="#ff8c42" stroke="#ffd0a0" stroke-width="1" filter="url(#glowOrange)" opacity="0.9">
        <title>2026-04-13: 1 commits</title></circle><circle cx="1082.9" cy="485.5" r="3.0"
        fill="#ff8c42" stroke="#ffd0a0" stroke-width="1" filter="url(#glowOrange)" opacity="0.9">
        <title>2026-04-14: 1 commits</title></circle><circle cx="1111.4" cy="485.5" r="3.0"
        fill="#ff8c42" stroke="#ffd0a0" stroke-width="1" filter="url(#glowOrange)" opacity="0.9">
        <title>2026-04-15: 1 commits</title></circle><circle cx="1139.9" cy="485.5" r="3.0"
        fill="#ff8c42" stroke="#ffd0a0" stroke-width="1" filter="url(#glowOrange)" opacity="0.9">
        <title>2026-04-16: 1 commits</title></circle><circle cx="1168.3" cy="485.5" r="3.0"
        fill="#ff8c42" stroke="#ffd0a0" stroke-width="1" filter="url(#glowOrange)" opacity="0.9">
        <title>2026-04-17: 1 commits</title></circle><circle cx="1196.8" cy="485.5" r="3.0"
        fill="#ff8c42" stroke="#ffd0a0" stroke-width="1" filter="url(#glowOrange)" opacity="0.9">
        <title>2026-04-18: 1 commits</title></circle><circle cx="1225.3" cy="485.5" r="3.0"
        fill="#ff8c42" stroke="#ffd0a0" stroke-width="1" filter="url(#glowOrange)" opacity="0.9">
        <title>2026-04-19: 1 commits</title></circle><circle cx="1253.8" cy="476.5" r="3.1"
        fill="#ff8c42" stroke="#ffd0a0" stroke-width="1" filter="url(#glowOrange)" opacity="0.9">
        <title>2026-04-20: 3 commits</title></circle><circle cx="1282.3" cy="485.5" r="3.0"
        fill="#ff8c42" stroke="#ffd0a0" stroke-width="1" filter="url(#glowOrange)" opacity="0.9">
        <title>2026-04-21: 1 commits</title></circle><circle cx="1310.8" cy="485.5" r="3.0"
        fill="#ff8c42" stroke="#ffd0a0" stroke-width="1" filter="url(#glowOrange)" opacity="0.9">
        <title>2026-04-22: 1 commits</title></circle><circle cx="1339.2" cy="485.5" r="3.0"
        fill="#ff8c42" stroke="#ffd0a0" stroke-width="1" filter="url(#glowOrange)" opacity="0.9">
        <title>2026-04-23: 1 commits</title></circle><circle cx="1367.7" cy="485.5" r="3.0"
        fill="#ff8c42" stroke="#ffd0a0" stroke-width="1" filter="url(#glowOrange)" opacity="0.9">
        <title>2026-04-24: 1 commits</title></circle><circle cx="1396.2" cy="485.5" r="3.0"
        fill="#ff8c42" stroke="#ffd0a0" stroke-width="1" filter="url(#glowOrange)" opacity="0.9">
        <title>2026-04-25: 1 commits</title></circle><circle cx="1424.7" cy="485.5" r="3.0"
        fill="#ff8c42" stroke="#ffd0a0" stroke-width="1" filter="url(#glowOrange)" opacity="0.9">
        <title>2026-04-26: 1 commits</title></circle><circle cx="1453.2" cy="485.5" r="3.0"
        fill="#ff8c42" stroke="#ffd0a0" stroke-width="1" filter="url(#glowOrange)" opacity="0.9">
        <title>2026-04-27: 1 commits</title></circle><circle cx="1481.7" cy="485.5" r="3.0"
        fill="#ff8c42" stroke="#ffd0a0" stroke-width="1" filter="url(#glowOrange)" opacity="0.9">
        <title>2026-04-28: 1 commits</title></circle><circle cx="1510.1" cy="485.5" r="3.0"
        fill="#ff8c42" stroke="#ffd0a0" stroke-width="1" filter="url(#glowOrange)" opacity="0.9">
        <title>2026-04-29: 1 commits</title></circle><circle cx="1538.6" cy="485.5" r="3.0"
        fill="#ff8c42" stroke="#ffd0a0" stroke-width="1" filter="url(#glowOrange)" opacity="0.9">
        <title>2026-04-30: 1 commits</title></circle><circle cx="1567.1" cy="463.0" r="3.2"
        fill="#ff8c42" stroke="#ffd0a0" stroke-width="1" filter="url(#glowOrange)" opacity="0.9">
        <title>2026-05-01: 6 commits</title></circle><circle cx="1595.6" cy="485.5" r="3.0"
        fill="#ff8c42" stroke="#ffd0a0" stroke-width="1" filter="url(#glowOrange)" opacity="0.9">
        <title>2026-05-02: 1 commits</title></circle><circle cx="1624.1" cy="314.5" r="4.2"
        fill="#ff8c42" stroke="#ffd0a0" stroke-width="1" filter="url(#glowOrange)" opacity="0.9">
        <title>2026-05-03: 39 commits</title></circle><circle cx="1652.6" cy="445.0" r="3.3"
        fill="#ff8c42" stroke="#ffd0a0" stroke-width="1" filter="url(#glowOrange)" opacity="0.9">
        <title>2026-05-04: 10 commits</title></circle><circle cx="1681.0" cy="323.5" r="4.2"
        fill="#ff8c42" stroke="#ffd0a0" stroke-width="1" filter="url(#glowOrange)" opacity="0.9">
        <title>2026-05-05: 37 commits</title></circle><circle cx="1709.5" cy="449.5" r="3.3"
        fill="#ff8c42" stroke="#ffd0a0" stroke-width="1" filter="url(#glowOrange)" opacity="0.9">
        <title>2026-05-06: 9 commits</title></circle><circle cx="1738.0" cy="436.0" r="3.4"
        fill="#ff8c42" stroke="#ffd0a0" stroke-width="1" filter="url(#glowOrange)" opacity="0.9">
        <title>2026-05-07: 12 commits</title></circle>
  <circle cx="86.0" cy="490.0" r="3.5"
        fill="#00d4f5" stroke="#80eeff" stroke-width="0.8" filter="url(#glowCyan)" opacity="0.85">
        <title>2026-03-10: 1 changes/commit</title></circle><circle cx="285.4" cy="489.8" r="3.5"
        fill="#00d4f5" stroke="#80eeff" stroke-width="0.8" filter="url(#glowCyan)" opacity="0.85">
        <title>2026-03-17: 4 changes/commit</title></circle><circle cx="370.8" cy="489.9" r="3.5"
        fill="#00d4f5" stroke="#80eeff" stroke-width="0.8" filter="url(#glowCyan)" opacity="0.85">
        <title>2026-03-20: 3 changes/commit</title></circle><circle cx="427.8" cy="489.0" r="3.5"
        fill="#00d4f5" stroke="#80eeff" stroke-width="0.8" filter="url(#glowCyan)" opacity="0.85">
        <title>2026-03-22: 22 changes/commit</title></circle><circle cx="484.8" cy="297.4" r="3.5"
        fill="#00d4f5" stroke="#80eeff" stroke-width="0.8" filter="url(#glowCyan)" opacity="0.85">
        <title>2026-03-24: 4279 changes/commit</title></circle><circle cx="513.2" cy="489.3" r="3.5"
        fill="#00d4f5" stroke="#80eeff" stroke-width="0.8" filter="url(#glowCyan)" opacity="0.85">
        <title>2026-03-25: 15 changes/commit</title></circle><circle cx="541.7" cy="487.7" r="3.5"
        fill="#00d4f5" stroke="#80eeff" stroke-width="0.8" filter="url(#glowCyan)" opacity="0.85">
        <title>2026-03-26: 52 changes/commit</title></circle><circle cx="570.2" cy="487.7" r="3.5"
        fill="#00d4f5" stroke="#80eeff" stroke-width="0.8" filter="url(#glowCyan)" opacity="0.85">
        <title>2026-03-27: 52 changes/commit</title></circle><circle cx="598.7" cy="438.7" r="3.5"
        fill="#00d4f5" stroke="#80eeff" stroke-width="0.8" filter="url(#glowCyan)" opacity="0.85">
        <title>2026-03-28: 1140 changes/commit</title></circle><circle cx="627.2" cy="479.2" r="3.5"
        fill="#00d4f5" stroke="#80eeff" stroke-width="0.8" filter="url(#glowCyan)" opacity="0.85">
        <title>2026-03-29: 241 changes/commit</title></circle><circle cx="655.7" cy="481.0" r="3.5"
        fill="#00d4f5" stroke="#80eeff" stroke-width="0.8" filter="url(#glowCyan)" opacity="0.85">
        <title>2026-03-30: 201 changes/commit</title></circle><circle cx="684.1" cy="484.6" r="3.5"
        fill="#00d4f5" stroke="#80eeff" stroke-width="0.8" filter="url(#glowCyan)" opacity="0.85">
        <title>2026-03-31: 121 changes/commit</title></circle><circle cx="712.6" cy="483.8" r="3.5"
        fill="#00d4f5" stroke="#80eeff" stroke-width="0.8" filter="url(#glowCyan)" opacity="0.85">
        <title>2026-04-01: 138 changes/commit</title></circle><circle cx="741.1" cy="484.1" r="3.5"
        fill="#00d4f5" stroke="#80eeff" stroke-width="0.8" filter="url(#glowCyan)" opacity="0.85">
        <title>2026-04-02: 130 changes/commit</title></circle><circle cx="769.6" cy="486.5" r="3.5"
        fill="#00d4f5" stroke="#80eeff" stroke-width="0.8" filter="url(#glowCyan)" opacity="0.85">
        <title>2026-04-03: 78 changes/commit</title></circle><circle cx="798.1" cy="482.5" r="3.5"
        fill="#00d4f5" stroke="#80eeff" stroke-width="0.8" filter="url(#glowCyan)" opacity="0.85">
        <title>2026-04-04: 166 changes/commit</title></circle><circle cx="826.6" cy="486.1" r="3.5"
        fill="#00d4f5" stroke="#80eeff" stroke-width="0.8" filter="url(#glowCyan)" opacity="0.85">
        <title>2026-04-05: 86 changes/commit</title></circle><circle cx="855.0" cy="480.5" r="3.5"
        fill="#00d4f5" stroke="#80eeff" stroke-width="0.8" filter="url(#glowCyan)" opacity="0.85">
        <title>2026-04-06: 212 changes/commit</title></circle><circle cx="883.5" cy="487.3" r="3.5"
        fill="#00d4f5" stroke="#80eeff" stroke-width="0.8" filter="url(#glowCyan)" opacity="0.85">
        <title>2026-04-07: 60 changes/commit</title></circle><circle cx="912.0" cy="486.7" r="3.5"
        fill="#00d4f5" stroke="#80eeff" stroke-width="0.8" filter="url(#glowCyan)" opacity="0.85">
        <title>2026-04-08: 74 changes/commit</title></circle><circle cx="940.5" cy="480.0" r="3.5"
        fill="#00d4f5" stroke="#80eeff" stroke-width="0.8" filter="url(#glowCyan)" opacity="0.85">
        <title>2026-04-09: 222 changes/commit</title></circle><circle cx="969.0" cy="479.4" r="3.5"
        fill="#00d4f5" stroke="#80eeff" stroke-width="0.8" filter="url(#glowCyan)" opacity="0.85">
        <title>2026-04-10: 236 changes/commit</title></circle><circle cx="997.4" cy="479.4" r="3.5"
        fill="#00d4f5" stroke="#80eeff" stroke-width="0.8" filter="url(#glowCyan)" opacity="0.85">
        <title>2026-04-11: 236 changes/commit</title></circle><circle cx="1025.9" cy="477.8" r="3.5"
        fill="#00d4f5" stroke="#80eeff" stroke-width="0.8" filter="url(#glowCyan)" opacity="0.85">
        <title>2026-04-12: 271 changes/commit</title></circle><circle cx="1054.4" cy="486.4" r="3.5"
        fill="#00d4f5" stroke="#80eeff" stroke-width="0.8" filter="url(#glowCyan)" opacity="0.85">
        <title>2026-04-13: 80 changes/commit</title></circle><circle cx="1082.9" cy="474.2" r="3.5"
        fill="#00d4f5" stroke="#80eeff" stroke-width="0.8" filter="url(#glowCyan)" opacity="0.85">
        <title>2026-04-14: 351 changes/commit</title></circle><circle cx="1111.4" cy="478.6" r="3.5"
        fill="#00d4f5" stroke="#80eeff" stroke-width="0.8" filter="url(#glowCyan)" opacity="0.85">
        <title>2026-04-15: 254 changes/commit</title></circle><circle cx="1139.9" cy="478.5" r="3.5"
        fill="#00d4f5" stroke="#80eeff" stroke-width="0.8" filter="url(#glowCyan)" opacity="0.85">
        <title>2026-04-16: 256 changes/commit</title></circle><circle cx="1168.3" cy="478.5" r="3.5"
        fill="#00d4f5" stroke="#80eeff" stroke-width="0.8" filter="url(#glowCyan)" opacity="0.85">
        <title>2026-04-17: 256 changes/commit</title></circle><circle cx="1196.8" cy="478.2" r="3.5"
        fill="#00d4f5" stroke="#80eeff" stroke-width="0.8" filter="url(#glowCyan)" opacity="0.85">
        <title>2026-04-18: 262 changes/commit</title></circle><circle cx="1225.3" cy="477.9" r="3.5"
        fill="#00d4f5" stroke="#80eeff" stroke-width="0.8" filter="url(#glowCyan)" opacity="0.85">
        <title>2026-04-19: 270 changes/commit</title></circle><circle cx="1253.8" cy="475.4" r="3.5"
        fill="#00d4f5" stroke="#80eeff" stroke-width="0.8" filter="url(#glowCyan)" opacity="0.85">
        <title>2026-04-20: 325 changes/commit</title></circle><circle cx="1282.3" cy="486.5" r="3.5"
        fill="#00d4f5" stroke="#80eeff" stroke-width="0.8" filter="url(#glowCyan)" opacity="0.85">
        <title>2026-04-21: 78 changes/commit</title></circle><circle cx="1310.8" cy="477.3" r="3.5"
        fill="#00d4f5" stroke="#80eeff" stroke-width="0.8" filter="url(#glowCyan)" opacity="0.85">
        <title>2026-04-22: 282 changes/commit</title></circle><circle cx="1339.2" cy="477.0" r="3.5"
        fill="#00d4f5" stroke="#80eeff" stroke-width="0.8" filter="url(#glowCyan)" opacity="0.85">
        <title>2026-04-23: 288 changes/commit</title></circle><circle cx="1367.7" cy="476.6" r="3.5"
        fill="#00d4f5" stroke="#80eeff" stroke-width="0.8" filter="url(#glowCyan)" opacity="0.85">
        <title>2026-04-24: 298 changes/commit</title></circle><circle cx="1396.2" cy="476.3" r="3.5"
        fill="#00d4f5" stroke="#80eeff" stroke-width="0.8" filter="url(#glowCyan)" opacity="0.85">
        <title>2026-04-25: 304 changes/commit</title></circle><circle cx="1424.7" cy="476.4" r="3.5"
        fill="#00d4f5" stroke="#80eeff" stroke-width="0.8" filter="url(#glowCyan)" opacity="0.85">
        <title>2026-04-26: 302 changes/commit</title></circle><circle cx="1453.2" cy="476.1" r="3.5"
        fill="#00d4f5" stroke="#80eeff" stroke-width="0.8" filter="url(#glowCyan)" opacity="0.85">
        <title>2026-04-27: 310 changes/commit</title></circle><circle cx="1481.7" cy="470.0" r="3.5"
        fill="#00d4f5" stroke="#80eeff" stroke-width="0.8" filter="url(#glowCyan)" opacity="0.85">
        <title>2026-04-28: 445 changes/commit</title></circle><circle cx="1510.1" cy="476.1" r="3.5"
        fill="#00d4f5" stroke="#80eeff" stroke-width="0.8" filter="url(#glowCyan)" opacity="0.85">
        <title>2026-04-29: 308 changes/commit</title></circle><circle cx="1538.6" cy="463.5" r="3.5"
        fill="#00d4f5" stroke="#80eeff" stroke-width="0.8" filter="url(#glowCyan)" opacity="0.85">
        <title>2026-04-30: 588 changes/commit</title></circle><circle cx="1567.1" cy="430.1" r="3.5"
        fill="#00d4f5" stroke="#80eeff" stroke-width="0.8" filter="url(#glowCyan)" opacity="0.85">
        <title>2026-05-01: 1330 changes/commit</title></circle><circle cx="1595.6" cy="486.4" r="3.5"
        fill="#00d4f5" stroke="#80eeff" stroke-width="0.8" filter="url(#glowCyan)" opacity="0.85">
        <title>2026-05-02: 80 changes/commit</title></circle><circle cx="1624.1" cy="474.3" r="3.5"
        fill="#00d4f5" stroke="#80eeff" stroke-width="0.8" filter="url(#glowCyan)" opacity="0.85">
        <title>2026-05-03: 350 changes/commit</title></circle><circle cx="1652.6" cy="182.0" r="3.5"
        fill="#00d4f5" stroke="#80eeff" stroke-width="0.8" filter="url(#glowCyan)" opacity="0.85">
        <title>2026-05-04: 6844 changes/commit</title></circle><circle cx="1681.0" cy="480.1" r="3.5"
        fill="#00d4f5" stroke="#80eeff" stroke-width="0.8" filter="url(#glowCyan)" opacity="0.85">
        <title>2026-05-05: 219 changes/commit</title></circle><circle cx="1709.5" cy="482.2" r="3.5"
        fill="#00d4f5" stroke="#80eeff" stroke-width="0.8" filter="url(#glowCyan)" opacity="0.85">
        <title>2026-05-06: 173 changes/commit</title></circle><circle cx="1738.0" cy="474.3" r="3.5"
        fill="#00d4f5" stroke="#80eeff" stroke-width="0.8" filter="url(#glowCyan)" opacity="0.85">
        <title>2026-05-07: 349 changes/commit</title></circle>
</g>

<!-- ════ ANNOTATIONS ════ -->

        <line x1="598.7" y1="181.0"
          x2="598.7" y2="172.0"
          stroke="#2563eb" stroke-width="1.2" stroke-dasharray="4,4" opacity="0.65"/>
        <rect x="533.7" y="148.0"
          width="130" height="24" rx="6"
          fill="#030e26" stroke="#2563eb" stroke-width="1" opacity="0.96"/>
        <text x="598.7" y="164.0"
          font-size="10" fill="#93c5fd" text-anchor="middle"
          font-family="'Lexend','Segoe UI',sans-serif" font-weight="400"
          letter-spacing="0.5">⬡  Peak · 66 commits</text>
        <line x1="484.8" y1="494" x2="1738.0" y2="494"
          stroke="#f472b6" stroke-width="2.5" stroke-linecap="round" opacity="0.7"/>
        <circle cx="484.8" cy="494" r="3" fill="#f472b6" opacity="0.9"/>
        <circle cx="1738.0" cy="494" r="3" fill="#f472b6" opacity="0.9"/>
        <text x="1111.4" y="508" font-size="8.5" fill="#f472b6"
          text-anchor="middle" font-family="'Lexend','Segoe UI',sans-serif"
          font-weight="400" opacity="0.85">🔥 45-day streak</text>
        <line x1="484.8" y1="130" x2="484.8" y2="490"
          stroke="#f472b6" stroke-width="0.8" stroke-dasharray="3,6" opacity="0.35"/>

<!-- ════ CORNER BRACKETS ════ -->
<path d="M 86 152.0 L 86 130 L 108.0 130"
      fill="none" stroke="#4a90e2" stroke-width="2" stroke-opacity="0.85" stroke-linecap="round"/><path d="M 1738 152.0 L 1738 130 L 1716.0 130"
      fill="none" stroke="#4a90e2" stroke-width="2" stroke-opacity="0.85" stroke-linecap="round"/><path d="M 86 468.0 L 86 490 L 108.0 490"
      fill="none" stroke="#4a90e2" stroke-width="2" stroke-opacity="0.85" stroke-linecap="round"/><path d="M 1738 468.0 L 1738 490 L 1716.0 490"
      fill="none" stroke="#4a90e2" stroke-width="2" stroke-opacity="0.85" stroke-linecap="round"/>

<!-- ════ HEATMAP ════ -->
<text x="908" y="646" font-size="11" fill="#3d7ed4"
    text-anchor="middle" font-family="'Lexend','Segoe UI',sans-serif"
    letter-spacing="3" font-weight="400">CONTRIBUTION  CALENDAR</text><text x="843" y="686"
        font-size="9" fill="#3d7ed4" text-anchor="end"
        font-family="'Lexend','Segoe UI',sans-serif" font-weight="300">M</text><text x="843" y="716"
        font-size="9" fill="#3d7ed4" text-anchor="end"
        font-family="'Lexend','Segoe UI',sans-serif" font-weight="300">W</text><text x="843" y="746"
        font-size="9" fill="#3d7ed4" text-anchor="end"
        font-family="'Lexend','Segoe UI',sans-serif" font-weight="300">F</text><rect x="849.0" y="660.0"
        width="12" height="12" rx="2.5" fill="#0a1630"
        stroke="#0d2464" stroke-width="0.5" stroke-opacity="0.4">
        <title>2026-03-08: 0 commits</title></rect><rect x="849.0" y="675.0"
        width="12" height="12" rx="2.5" fill="#0a1630"
        stroke="#0d2464" stroke-width="0.5" stroke-opacity="0.4">
        <title>2026-03-09: 0 commits</title></rect><rect x="849.0" y="690.0"
        width="12" height="12" rx="2.5" fill="#0d3068"
        stroke="#0d2464" stroke-width="0.5" stroke-opacity="0.4">
        <title>2026-03-10: 1 commits</title></rect><rect x="849.0" y="705.0"
        width="12" height="12" rx="2.5" fill="#0a1630"
        stroke="#0d2464" stroke-width="0.5" stroke-opacity="0.4">
        <title>2026-03-11: 0 commits</title></rect><rect x="849.0" y="720.0"
        width="12" height="12" rx="2.5" fill="#0a1630"
        stroke="#0d2464" stroke-width="0.5" stroke-opacity="0.4">
        <title>2026-03-12: 0 commits</title></rect><rect x="849.0" y="735.0"
        width="12" height="12" rx="2.5" fill="#0a1630"
        stroke="#0d2464" stroke-width="0.5" stroke-opacity="0.4">
        <title>2026-03-13: 0 commits</title></rect><rect x="849.0" y="750.0"
        width="12" height="12" rx="2.5" fill="#0a1630"
        stroke="#0d2464" stroke-width="0.5" stroke-opacity="0.4">
        <title>2026-03-14: 0 commits</title></rect><rect x="864.0" y="660.0"
        width="12" height="12" rx="2.5" fill="#0a1630"
        stroke="#0d2464" stroke-width="0.5" stroke-opacity="0.4">
        <title>2026-03-15: 0 commits</title></rect><rect x="864.0" y="675.0"
        width="12" height="12" rx="2.5" fill="#0a1630"
        stroke="#0d2464" stroke-width="0.5" stroke-opacity="0.4">
        <title>2026-03-16: 0 commits</title></rect><rect x="864.0" y="690.0"
        width="12" height="12" rx="2.5" fill="#0d3068"
        stroke="#0d2464" stroke-width="0.5" stroke-opacity="0.4">
        <title>2026-03-17: 10 commits</title></rect><rect x="864.0" y="705.0"
        width="12" height="12" rx="2.5" fill="#0a1630"
        stroke="#0d2464" stroke-width="0.5" stroke-opacity="0.4">
        <title>2026-03-18: 0 commits</title></rect><rect x="864.0" y="720.0"
        width="12" height="12" rx="2.5" fill="#0a1630"
        stroke="#0d2464" stroke-width="0.5" stroke-opacity="0.4">
        <title>2026-03-19: 0 commits</title></rect><rect x="864.0" y="735.0"
        width="12" height="12" rx="2.5" fill="#1e56a8"
        stroke="#0d2464" stroke-width="0.5" stroke-opacity="0.4">
        <title>2026-03-20: 26 commits</title></rect><rect x="864.0" y="750.0"
        width="12" height="12" rx="2.5" fill="#0a1630"
        stroke="#0d2464" stroke-width="0.5" stroke-opacity="0.4">
        <title>2026-03-21: 0 commits</title></rect><rect x="879.0" y="660.0"
        width="12" height="12" rx="2.5" fill="#0d3068"
        stroke="#0d2464" stroke-width="0.5" stroke-opacity="0.4">
        <title>2026-03-22: 1 commits</title></rect><rect x="879.0" y="675.0"
        width="12" height="12" rx="2.5" fill="#0a1630"
        stroke="#0d2464" stroke-width="0.5" stroke-opacity="0.4">
        <title>2026-03-23: 0 commits</title></rect><rect x="879.0" y="690.0"
        width="12" height="12" rx="2.5" fill="#1e56a8"
        stroke="#0d2464" stroke-width="0.5" stroke-opacity="0.4">
        <title>2026-03-24: 32 commits</title></rect><rect x="879.0" y="705.0"
        width="12" height="12" rx="2.5" fill="#0d3068"
        stroke="#0d2464" stroke-width="0.5" stroke-opacity="0.4">
        <title>2026-03-25: 7 commits</title></rect><rect x="879.0" y="720.0"
        width="12" height="12" rx="2.5" fill="#0d3068"
        stroke="#0d2464" stroke-width="0.5" stroke-opacity="0.4">
        <title>2026-03-26: 3 commits</title></rect><rect x="879.0" y="735.0"
        width="12" height="12" rx="2.5" fill="#0d3068"
        stroke="#0d2464" stroke-width="0.5" stroke-opacity="0.4">
        <title>2026-03-27: 1 commits</title></rect><rect x="879.0" y="750.0"
        width="12" height="12" rx="2.5" fill="#93c5fd"
        stroke="#0d2464" stroke-width="0.5" stroke-opacity="0.4">
        <title>2026-03-28: 66 commits</title></rect><rect x="894.0" y="660.0"
        width="12" height="12" rx="2.5" fill="#3b82f6"
        stroke="#0d2464" stroke-width="0.5" stroke-opacity="0.4">
        <title>2026-03-29: 44 commits</title></rect><rect x="894.0" y="675.0"
        width="12" height="12" rx="2.5" fill="#0d3068"
        stroke="#0d2464" stroke-width="0.5" stroke-opacity="0.4">
        <title>2026-03-30: 2 commits</title></rect><rect x="894.0" y="690.0"
        width="12" height="12" rx="2.5" fill="#0d3068"
        stroke="#0d2464" stroke-width="0.5" stroke-opacity="0.4">
        <title>2026-03-31: 16 commits</title></rect><rect x="894.0" y="705.0"
        width="12" height="12" rx="2.5" fill="#0d3068"
        stroke="#0d2464" stroke-width="0.5" stroke-opacity="0.4">
        <title>2026-04-01: 14 commits</title></rect><rect x="894.0" y="720.0"
        width="12" height="12" rx="2.5" fill="#0d3068"
        stroke="#0d2464" stroke-width="0.5" stroke-opacity="0.4">
        <title>2026-04-02: 2 commits</title></rect><rect x="894.0" y="735.0"
        width="12" height="12" rx="2.5" fill="#1e56a8"
        stroke="#0d2464" stroke-width="0.5" stroke-opacity="0.4">
        <title>2026-04-03: 24 commits</title></rect><rect x="894.0" y="750.0"
        width="12" height="12" rx="2.5" fill="#1e56a8"
        stroke="#0d2464" stroke-width="0.5" stroke-opacity="0.4">
        <title>2026-04-04: 18 commits</title></rect><text x="894.0" y="656" font-size="8.5" fill="#3d7ed4"
        font-family="'Lexend','Segoe UI',sans-serif" font-weight="300">Apr</text><rect x="909.0" y="660.0"
        width="12" height="12" rx="2.5" fill="#0d3068"
        stroke="#0d2464" stroke-width="0.5" stroke-opacity="0.4">
        <title>2026-04-05: 1 commits</title></rect><rect x="909.0" y="675.0"
        width="12" height="12" rx="2.5" fill="#0d3068"
        stroke="#0d2464" stroke-width="0.5" stroke-opacity="0.4">
        <title>2026-04-06: 1 commits</title></rect><rect x="909.0" y="690.0"
        width="12" height="12" rx="2.5" fill="#0d3068"
        stroke="#0d2464" stroke-width="0.5" stroke-opacity="0.4">
        <title>2026-04-07: 9 commits</title></rect><rect x="909.0" y="705.0"
        width="12" height="12" rx="2.5" fill="#0d3068"
        stroke="#0d2464" stroke-width="0.5" stroke-opacity="0.4">
        <title>2026-04-08: 1 commits</title></rect><rect x="909.0" y="720.0"
        width="12" height="12" rx="2.5" fill="#0d3068"
        stroke="#0d2464" stroke-width="0.5" stroke-opacity="0.4">
        <title>2026-04-09: 1 commits</title></rect><rect x="909.0" y="735.0"
        width="12" height="12" rx="2.5" fill="#0d3068"
        stroke="#0d2464" stroke-width="0.5" stroke-opacity="0.4">
        <title>2026-04-10: 1 commits</title></rect><rect x="909.0" y="750.0"
        width="12" height="12" rx="2.5" fill="#0d3068"
        stroke="#0d2464" stroke-width="0.5" stroke-opacity="0.4">
        <title>2026-04-11: 1 commits</title></rect><rect x="924.0" y="660.0"
        width="12" height="12" rx="2.5" fill="#0d3068"
        stroke="#0d2464" stroke-width="0.5" stroke-opacity="0.4">
        <title>2026-04-12: 4 commits</title></rect><rect x="924.0" y="675.0"
        width="12" height="12" rx="2.5" fill="#0d3068"
        stroke="#0d2464" stroke-width="0.5" stroke-opacity="0.4">
        <title>2026-04-13: 1 commits</title></rect><rect x="924.0" y="690.0"
        width="12" height="12" rx="2.5" fill="#0d3068"
        stroke="#0d2464" stroke-width="0.5" stroke-opacity="0.4">
        <title>2026-04-14: 1 commits</title></rect><rect x="924.0" y="705.0"
        width="12" height="12" rx="2.5" fill="#0d3068"
        stroke="#0d2464" stroke-width="0.5" stroke-opacity="0.4">
        <title>2026-04-15: 1 commits</title></rect><rect x="924.0" y="720.0"
        width="12" height="12" rx="2.5" fill="#0d3068"
        stroke="#0d2464" stroke-width="0.5" stroke-opacity="0.4">
        <title>2026-04-16: 1 commits</title></rect><rect x="924.0" y="735.0"
        width="12" height="12" rx="2.5" fill="#0d3068"
        stroke="#0d2464" stroke-width="0.5" stroke-opacity="0.4">
        <title>2026-04-17: 1 commits</title></rect><rect x="924.0" y="750.0"
        width="12" height="12" rx="2.5" fill="#0d3068"
        stroke="#0d2464" stroke-width="0.5" stroke-opacity="0.4">
        <title>2026-04-18: 1 commits</title></rect><rect x="939.0" y="660.0"
        width="12" height="12" rx="2.5" fill="#0d3068"
        stroke="#0d2464" stroke-width="0.5" stroke-opacity="0.4">
        <title>2026-04-19: 1 commits</title></rect><rect x="939.0" y="675.0"
        width="12" height="12" rx="2.5" fill="#0d3068"
        stroke="#0d2464" stroke-width="0.5" stroke-opacity="0.4">
        <title>2026-04-20: 3 commits</title></rect><rect x="939.0" y="690.0"
        width="12" height="12" rx="2.5" fill="#0d3068"
        stroke="#0d2464" stroke-width="0.5" stroke-opacity="0.4">
        <title>2026-04-21: 1 commits</title></rect><rect x="939.0" y="705.0"
        width="12" height="12" rx="2.5" fill="#0d3068"
        stroke="#0d2464" stroke-width="0.5" stroke-opacity="0.4">
        <title>2026-04-22: 1 commits</title></rect><rect x="939.0" y="720.0"
        width="12" height="12" rx="2.5" fill="#0d3068"
        stroke="#0d2464" stroke-width="0.5" stroke-opacity="0.4">
        <title>2026-04-23: 1 commits</title></rect><rect x="939.0" y="735.0"
        width="12" height="12" rx="2.5" fill="#0d3068"
        stroke="#0d2464" stroke-width="0.5" stroke-opacity="0.4">
        <title>2026-04-24: 1 commits</title></rect><rect x="939.0" y="750.0"
        width="12" height="12" rx="2.5" fill="#0d3068"
        stroke="#0d2464" stroke-width="0.5" stroke-opacity="0.4">
        <title>2026-04-25: 1 commits</title></rect><rect x="954.0" y="660.0"
        width="12" height="12" rx="2.5" fill="#0d3068"
        stroke="#0d2464" stroke-width="0.5" stroke-opacity="0.4">
        <title>2026-04-26: 1 commits</title></rect><rect x="954.0" y="675.0"
        width="12" height="12" rx="2.5" fill="#0d3068"
        stroke="#0d2464" stroke-width="0.5" stroke-opacity="0.4">
        <title>2026-04-27: 1 commits</title></rect><rect x="954.0" y="690.0"
        width="12" height="12" rx="2.5" fill="#0d3068"
        stroke="#0d2464" stroke-width="0.5" stroke-opacity="0.4">
        <title>2026-04-28: 1 commits</title></rect><rect x="954.0" y="705.0"
        width="12" height="12" rx="2.5" fill="#0d3068"
        stroke="#0d2464" stroke-width="0.5" stroke-opacity="0.4">
        <title>2026-04-29: 1 commits</title></rect><rect x="954.0" y="720.0"
        width="12" height="12" rx="2.5" fill="#0d3068"
        stroke="#0d2464" stroke-width="0.5" stroke-opacity="0.4">
        <title>2026-04-30: 1 commits</title></rect><rect x="954.0" y="735.0"
        width="12" height="12" rx="2.5" fill="#0d3068"
        stroke="#0d2464" stroke-width="0.5" stroke-opacity="0.4">
        <title>2026-05-01: 6 commits</title></rect><rect x="954.0" y="750.0"
        width="12" height="12" rx="2.5" fill="#0d3068"
        stroke="#0d2464" stroke-width="0.5" stroke-opacity="0.4">
        <title>2026-05-02: 1 commits</title></rect><text x="954.0" y="656" font-size="8.5" fill="#3d7ed4"
        font-family="'Lexend','Segoe UI',sans-serif" font-weight="300">May</text><rect x="969.0" y="660.0"
        width="12" height="12" rx="2.5" fill="#3b82f6"
        stroke="#0d2464" stroke-width="0.5" stroke-opacity="0.4">
        <title>2026-05-03: 39 commits</title></rect><rect x="969.0" y="675.0"
        width="12" height="12" rx="2.5" fill="#0d3068"
        stroke="#0d2464" stroke-width="0.5" stroke-opacity="0.4">
        <title>2026-05-04: 10 commits</title></rect><rect x="969.0" y="690.0"
        width="12" height="12" rx="2.5" fill="#3b82f6"
        stroke="#0d2464" stroke-width="0.5" stroke-opacity="0.4">
        <title>2026-05-05: 37 commits</title></rect><rect x="969.0" y="705.0"
        width="12" height="12" rx="2.5" fill="#0d3068"
        stroke="#0d2464" stroke-width="0.5" stroke-opacity="0.4">
        <title>2026-05-06: 9 commits</title></rect><rect x="969.0" y="720.0"
        width="12" height="12" rx="2.5" fill="#0d3068"
        stroke="#0d2464" stroke-width="0.5" stroke-opacity="0.4">
        <title>2026-05-07: 12 commits</title></rect><rect x="969.0" y="735.0"
        width="12" height="12" rx="2.5" fill="#0a1630"
        stroke="#0d2464" stroke-width="0.5" stroke-opacity="0.4">
        <title>2026-05-08: 0 commits</title></rect><rect x="969.0" y="750.0"
        width="12" height="12" rx="2.5" fill="#0a1630"
        stroke="#0d2464" stroke-width="0.5" stroke-opacity="0.4">
        <title>2026-05-09: 0 commits</title></rect><rect x="984.0" y="660.0"
        width="12" height="12" rx="2.5" fill="#0a1630"
        stroke="#0d2464" stroke-width="0.5" stroke-opacity="0.4">
        <title>2026-05-10: 0 commits</title></rect><rect x="984.0" y="675.0"
        width="12" height="12" rx="2.5" fill="#0a1630"
        stroke="#0d2464" stroke-width="0.5" stroke-opacity="0.4">
        <title>2026-05-11: 0 commits</title></rect><rect x="984.0" y="690.0"
        width="12" height="12" rx="2.5" fill="#0a1630"
        stroke="#0d2464" stroke-width="0.5" stroke-opacity="0.4">
        <title>2026-05-12: 0 commits</title></rect><rect x="984.0" y="705.0"
        width="12" height="12" rx="2.5" fill="#0a1630"
        stroke="#0d2464" stroke-width="0.5" stroke-opacity="0.4">
        <title>2026-05-13: 0 commits</title></rect><rect x="984.0" y="720.0"
        width="12" height="12" rx="2.5" fill="#0a1630"
        stroke="#0d2464" stroke-width="0.5" stroke-opacity="0.4">
        <title>2026-05-14: 0 commits</title></rect><rect x="984.0" y="735.0"
        width="12" height="12" rx="2.5" fill="#0a1630"
        stroke="#0d2464" stroke-width="0.5" stroke-opacity="0.4">
        <title>2026-05-15: 0 commits</title></rect><rect x="984.0" y="750.0"
        width="12" height="12" rx="2.5" fill="#0a1630"
        stroke="#0d2464" stroke-width="0.5" stroke-opacity="0.4">
        <title>2026-05-16: 0 commits</title></rect>

<!-- ════ BOTTOM PANELS ════ -->

    <rect x="86" y="823" width="320" height="110"
      rx="4" fill="#030e26" fill-opacity="0.6" stroke="#1a3f7a" stroke-width="0.8"/>
    <text x="246" y="819" font-size="8" fill="#3d7ed4"
      text-anchor="middle" font-family="'Lexend','Segoe UI',sans-serif"
      letter-spacing="2" font-weight="300">OVERVIEW</text>
    <g clip-path="url(#minimapClip)">
      <path d="M 86.00 931.58 C 86.92 931.82, 89.68 932.76, 91.52 933.00 C 93.36 933.24, 95.20 933.00, 97.03 933.00 C 98.87 933.00, 100.71 933.00, 102.55 933.00 C 104.39 933.00, 106.23 933.00, 108.07 933.00 C 109.91 933.00, 111.75 933.00, 113.59 933.00 C 115.43 933.00, 117.26 935.36, 119.10 933.00 C 120.94 930.64, 122.78 918.83, 124.62 918.83 C 126.46 918.83, 128.30 930.64, 130.14 933.00 C 131.98 935.36, 133.82 939.14, 135.66 933.00 C 137.49 926.86, 139.33 896.17, 141.17 896.17 C 143.01 896.17, 144.85 927.10, 146.69 933.00 C 148.53 938.90, 150.37 931.58, 152.21 931.58 C 154.05 931.58, 155.89 940.32, 157.72 933.00 C 159.56 925.68, 161.40 889.32, 163.24 887.67 C 165.08 886.01, 166.92 916.24, 168.76 923.08 C 170.60 929.93, 172.44 927.33, 174.28 928.75 C 176.11 930.17, 177.95 946.46, 179.79 931.58 C 181.63 916.71, 183.47 849.65, 185.31 839.50 C 187.15 829.35, 188.99 855.56, 190.83 870.67 C 192.67 885.78, 194.51 923.56, 196.34 930.17 C 198.18 936.78, 200.02 913.17, 201.86 910.33 C 203.70 907.50, 205.54 909.86, 207.38 913.17 C 209.22 916.47, 211.06 932.53, 212.90 930.17 C 214.74 927.81, 216.57 902.78, 218.41 899.00 C 220.25 895.22, 222.09 902.07, 223.93 907.50 C 225.77 912.93, 227.61 927.57, 229.45 931.58 C 231.29 935.60, 233.13 933.47, 234.97 931.58 C 236.80 929.69, 238.64 920.25, 240.48 920.25 C 242.32 920.25, 244.16 929.69, 246.00 931.58 C 247.84 933.47, 249.68 931.58, 251.52 931.58 C 253.36 931.58, 255.20 931.58, 257.03 931.58 C 258.87 931.58, 260.71 932.29, 262.55 931.58 C 264.39 930.88, 266.23 927.33, 268.07 927.33 C 269.91 927.33, 271.75 930.88, 273.59 931.58 C 275.43 932.29, 277.26 931.58, 279.10 931.58 C 280.94 931.58, 282.78 931.58, 284.62 931.58 C 286.46 931.58, 288.30 931.58, 290.14 931.58 C 291.98 931.58, 293.82 931.58, 295.66 931.58 C 297.49 931.58, 299.33 931.58, 301.17 931.58 C 303.01 931.58, 304.85 932.06, 306.69 931.58 C 308.53 931.11, 310.37 928.75, 312.21 928.75 C 314.05 928.75, 315.89 931.11, 317.72 931.58 C 319.56 932.06, 321.40 931.58, 323.24 931.58 C 325.08 931.58, 326.92 931.58, 328.76 931.58 C 330.60 931.58, 332.44 931.58, 334.28 931.58 C 336.11 931.58, 337.95 931.58, 339.79 931.58 C 341.63 931.58, 343.47 931.58, 345.31 931.58 C 347.15 931.58, 348.99 931.58, 350.83 931.58 C 352.67 931.58, 354.51 931.58, 356.34 931.58 C 358.18 931.58, 360.02 931.58, 361.86 931.58 C 363.70 931.58, 365.54 932.76, 367.38 931.58 C 369.22 930.40, 371.06 924.50, 372.90 924.50 C 374.74 924.50, 376.57 939.38, 378.41 931.58 C 380.25 923.79, 382.09 879.88, 383.93 877.75 C 385.77 875.63, 387.61 918.36, 389.45 918.83 C 391.29 919.31, 393.13 880.35, 394.97 880.58 C 396.80 880.82, 398.64 914.35, 400.48 920.25 C 402.32 926.15, 405.08 916.71, 406.00 916.00 L 406.00 933 L 86.00 933 Z" fill="#4a90e2" fill-opacity="0.15"/>
      <path d="M 86.00 931.58 C 86.92 931.82, 89.68 932.76, 91.52 933.00 C 93.36 933.24, 95.20 933.00, 97.03 933.00 C 98.87 933.00, 100.71 933.00, 102.55 933.00 C 104.39 933.00, 106.23 933.00, 108.07 933.00 C 109.91 933.00, 111.75 933.00, 113.59 933.00 C 115.43 933.00, 117.26 935.36, 119.10 933.00 C 120.94 930.64, 122.78 918.83, 124.62 918.83 C 126.46 918.83, 128.30 930.64, 130.14 933.00 C 131.98 935.36, 133.82 939.14, 135.66 933.00 C 137.49 926.86, 139.33 896.17, 141.17 896.17 C 143.01 896.17, 144.85 927.10, 146.69 933.00 C 148.53 938.90, 150.37 931.58, 152.21 931.58 C 154.05 931.58, 155.89 940.32, 157.72 933.00 C 159.56 925.68, 161.40 889.32, 163.24 887.67 C 165.08 886.01, 166.92 916.24, 168.76 923.08 C 170.60 929.93, 172.44 927.33, 174.28 928.75 C 176.11 930.17, 177.95 946.46, 179.79 931.58 C 181.63 916.71, 183.47 849.65, 185.31 839.50 C 187.15 829.35, 188.99 855.56, 190.83 870.67 C 192.67 885.78, 194.51 923.56, 196.34 930.17 C 198.18 936.78, 200.02 913.17, 201.86 910.33 C 203.70 907.50, 205.54 909.86, 207.38 913.17 C 209.22 916.47, 211.06 932.53, 212.90 930.17 C 214.74 927.81, 216.57 902.78, 218.41 899.00 C 220.25 895.22, 222.09 902.07, 223.93 907.50 C 225.77 912.93, 227.61 927.57, 229.45 931.58 C 231.29 935.60, 233.13 933.47, 234.97 931.58 C 236.80 929.69, 238.64 920.25, 240.48 920.25 C 242.32 920.25, 244.16 929.69, 246.00 931.58 C 247.84 933.47, 249.68 931.58, 251.52 931.58 C 253.36 931.58, 255.20 931.58, 257.03 931.58 C 258.87 931.58, 260.71 932.29, 262.55 931.58 C 264.39 930.88, 266.23 927.33, 268.07 927.33 C 269.91 927.33, 271.75 930.88, 273.59 931.58 C 275.43 932.29, 277.26 931.58, 279.10 931.58 C 280.94 931.58, 282.78 931.58, 284.62 931.58 C 286.46 931.58, 288.30 931.58, 290.14 931.58 C 291.98 931.58, 293.82 931.58, 295.66 931.58 C 297.49 931.58, 299.33 931.58, 301.17 931.58 C 303.01 931.58, 304.85 932.06, 306.69 931.58 C 308.53 931.11, 310.37 928.75, 312.21 928.75 C 314.05 928.75, 315.89 931.11, 317.72 931.58 C 319.56 932.06, 321.40 931.58, 323.24 931.58 C 325.08 931.58, 326.92 931.58, 328.76 931.58 C 330.60 931.58, 332.44 931.58, 334.28 931.58 C 336.11 931.58, 337.95 931.58, 339.79 931.58 C 341.63 931.58, 343.47 931.58, 345.31 931.58 C 347.15 931.58, 348.99 931.58, 350.83 931.58 C 352.67 931.58, 354.51 931.58, 356.34 931.58 C 358.18 931.58, 360.02 931.58, 361.86 931.58 C 363.70 931.58, 365.54 932.76, 367.38 931.58 C 369.22 930.40, 371.06 924.50, 372.90 924.50 C 374.74 924.50, 376.57 939.38, 378.41 931.58 C 380.25 923.79, 382.09 879.88, 383.93 877.75 C 385.77 875.63, 387.61 918.36, 389.45 918.83 C 391.29 919.31, 393.13 880.35, 394.97 880.58 C 396.80 880.82, 398.64 914.35, 400.48 920.25 C 402.32 926.15, 405.08 916.71, 406.00 916.00" fill="none" stroke="#4a90e2" stroke-width="1.5" stroke-opacity="0.7"/>
    </g>
    <clipPath id="minimapClip">
      <rect x="86" y="823" width="320" height="110" rx="4"/>
    </clipPath><path d="M 1598.00 854.90
      L 1598.00 836.00
      A 42 42 0 1 1 1562.27 900.08
      L 1578.35 890.14
      A 23.1 23.1 0 1 0 1598.00 854.90 Z"
      fill="#4a90e2" fill-opacity="0.8" stroke="#030e26" stroke-width="1.5">
      <title>Kieran Lucas: 278 commits (66%)</title></path><path d="M 1578.35 890.14
      L 1562.27 900.08
      A 42 42 0 0 1 1558.46 863.83
      L 1576.25 870.21
      A 23.1 23.1 0 0 0 1578.35 890.14 Z"
      fill="#ff8c42" fill-opacity="0.8" stroke="#030e26" stroke-width="1.5">
      <title>HumaNormal: 60 commits (14%)</title></path><path d="M 1576.25 870.21
      L 1558.46 863.83
      A 42 42 0 0 1 1583.24 838.68
      L 1589.88 856.37
      A 23.1 23.1 0 0 0 1576.25 870.21 Z"
      fill="#00d4f5" fill-opacity="0.8" stroke="#030e26" stroke-width="1.5">
      <title>github-actions: 58 commits (14%)</title></path><path d="M 1589.88 856.37
      L 1583.24 838.68
      A 42 42 0 0 1 1597.37 836.00
      L 1597.65 854.90
      A 23.1 23.1 0 0 0 1589.88 856.37 Z"
      fill="#22c55e" fill-opacity="0.8" stroke="#030e26" stroke-width="1.5">
      <title>stillqhuy: 23 commits (5%)</title></path><path d="M 1597.65 854.90
      L 1597.37 836.00
      A 42 42 0 0 1 1598.00 836.00
      L 1598.00 854.90
      A 23.1 23.1 0 0 0 1597.65 854.90 Z"
      fill="#ef4444" fill-opacity="0.8" stroke="#030e26" stroke-width="1.5">
      <title>Nguyễn Đinh Việt Đức: 1 commits (0%)</title></path><text x="1598" y="874" font-size="9" fill="#3d7ed4" text-anchor="middle"
    font-family="'Lexend','Segoe UI',sans-serif" letter-spacing="1.5" font-weight="300">AUTHORS</text><text x="1598" y="892" font-size="16" fill="#cce8ff" text-anchor="middle"
    font-family="'Lexend','Segoe UI',sans-serif" font-weight="600">5</text><rect x="1656" y="830" width="8" height="8" rx="2" fill="#4a90e2" opacity="0.85"/><text x="1670" y="838" font-size="9.5" fill="#3d7ed4"
      font-family="'Lexend','Segoe UI',sans-serif" font-weight="300">Kieran Lucas (278)</text><rect x="1656" y="848" width="8" height="8" rx="2" fill="#ff8c42" opacity="0.85"/><text x="1670" y="856" font-size="9.5" fill="#3d7ed4"
      font-family="'Lexend','Segoe UI',sans-serif" font-weight="300">HumaNormal (60)</text><rect x="1656" y="866" width="8" height="8" rx="2" fill="#00d4f5" opacity="0.85"/><text x="1670" y="874" font-size="9.5" fill="#3d7ed4"
      font-family="'Lexend','Segoe UI',sans-serif" font-weight="300">github-actions (58)</text><rect x="1656" y="884" width="8" height="8" rx="2" fill="#22c55e" opacity="0.85"/><text x="1670" y="892" font-size="9.5" fill="#3d7ed4"
      font-family="'Lexend','Segoe UI',sans-serif" font-weight="300">stillqhuy (23)</text><rect x="1656" y="902" width="8" height="8" rx="2" fill="#ef4444" opacity="0.85"/><text x="1670" y="910" font-size="9.5" fill="#3d7ed4"
      font-family="'Lexend','Segoe UI',sans-serif" font-weight="300">Nguyễn Đinh … (1)</text>

<!-- ════ WAVES ════ -->
<path d="M 0 963 Q 113.5 956.0 227.0 963 Q 340.5 956.0 454.0 963 Q 567.5 956.0 681.0 963 Q 794.5 956.0 908.0 963 Q 1021.5 956.0 1135.0 963 Q 1248.5 956.0 1362.0 963 Q 1475.5 956.0 1589.0 963 Q 1702.5 956.0 1816.0 963" fill="none" stroke="#1948a0" stroke-width="1.2" stroke-opacity="0.35"/>
<path d="M 0 958 Q 113.5 952.5 227.0 958 Q 340.5 952.5 454.0 958 Q 567.5 952.5 681.0 958 Q 794.5 952.5 908.0 958 Q 1021.5 952.5 1135.0 958 Q 1248.5 952.5 1362.0 958 Q 1475.5 952.5 1589.0 958 Q 1702.5 952.5 1816.0 958" fill="none" stroke="#1948a0" stroke-width="1" stroke-opacity="0.29"/>
<path d="M 0 953 Q 113.5 949.0 227.0 953 Q 340.5 949.0 454.0 953 Q 567.5 949.0 681.0 953 Q 794.5 949.0 908.0 953 Q 1021.5 949.0 1135.0 953 Q 1248.5 949.0 1362.0 953 Q 1475.5 949.0 1589.0 953 Q 1702.5 949.0 1816.0 953" fill="none" stroke="#1948a0" stroke-width="0.7999999999999999" stroke-opacity="0.22999999999999998"/>
<path d="M 0 948 Q 113.5 945.5 227.0 948 Q 340.5 945.5 454.0 948 Q 567.5 945.5 681.0 948 Q 794.5 945.5 908.0 948 Q 1021.5 945.5 1135.0 948 Q 1248.5 945.5 1362.0 948 Q 1475.5 945.5 1589.0 948 Q 1702.5 945.5 1816.0 948" fill="none" stroke="#1948a0" stroke-width="0.5999999999999999" stroke-opacity="0.16999999999999998"/>

</svg>