<svg width="1056" height="570" xmlns="http://www.w3.org/2000/svg" viewBox="0 0 1056 570">
<defs>
  <style>@import url('https://fonts.googleapis.com/css2?family=Lexend:wght@300;400;600;700&amp;display=swap');</style>

  <!-- ── Dark navy background ── -->
  <linearGradient id="bg" x1="0%" y1="0%" x2="55%" y2="100%">
    <stop offset="0%"   stop-color="#010c1e"/>
    <stop offset="50%"  stop-color="#010f27"/>
    <stop offset="100%" stop-color="#000a18"/>
  </linearGradient>

  <!-- ── Area fill (total lines) ── -->
  <linearGradient id="areaFill" x1="0%" y1="0%" x2="0%" y2="100%">
    <stop offset="0%"   stop-color="#1e56a8" stop-opacity="0.6"/>
    <stop offset="55%"  stop-color="#12326a" stop-opacity="0.22"/>
    <stop offset="100%" stop-color="#0a1e44" stop-opacity="0"/>
  </linearGradient>

  <!-- ── Commits line ── -->
  <linearGradient id="gCommits" x1="0%" y1="0%" x2="100%" y2="0%">
    <stop offset="0%"   stop-color="#ff6020"/>
    <stop offset="100%" stop-color="#ffaa60"/>
  </linearGradient>

  <!-- ── Changes per commit line ── -->
  <linearGradient id="gChanges" x1="0%" y1="0%" x2="100%" y2="0%">
    <stop offset="0%"   stop-color="#0090c0"/>
    <stop offset="50%"  stop-color="#00d4f5"/>
    <stop offset="100%" stop-color="#7eeeff"/>
  </linearGradient>

  <!-- ── Outer border ── -->
  <linearGradient id="gBorder" x1="0%" y1="0%" x2="100%" y2="100%">
    <stop offset="0%"   stop-color="#1840a0" stop-opacity="0.95"/>
    <stop offset="50%"  stop-color="#3b82f6" stop-opacity="0.65"/>
    <stop offset="100%" stop-color="#60a5fa" stop-opacity="0.95"/>
  </linearGradient>

  <!-- ── Header band ── -->
  <linearGradient id="gHeader" x1="0%" y1="0%" x2="100%" y2="0%">
    <stop offset="0%"   stop-color="#061530" stop-opacity="0"/>
    <stop offset="20%"  stop-color="#091c3e" stop-opacity="0.92"/>
    <stop offset="80%"  stop-color="#091c3e" stop-opacity="0.92"/>
    <stop offset="100%" stop-color="#061530" stop-opacity="0"/>
  </linearGradient>

  <!-- ── Bar fills ── -->
  <linearGradient id="gAddBar" x1="0%" y1="0%" x2="0%" y2="100%">
    <stop offset="0%"   stop-color="#34d06a"/>
    <stop offset="100%" stop-color="#16a34a"/>
  </linearGradient>
  <linearGradient id="gDelBar" x1="0%" y1="0%" x2="0%" y2="100%">
    <stop offset="0%"   stop-color="#f86060"/>
    <stop offset="100%" stop-color="#c52020"/>
  </linearGradient>

  <!-- ── Glow filters ── -->
  <filter id="glowOrange" x="-120%" y="-120%" width="340%" height="340%">
    <feGaussianBlur stdDeviation="4.5" result="b"/>
    <feMerge><feMergeNode in="b"/><feMergeNode in="SourceGraphic"/></feMerge>
  </filter>
  <filter id="glowCyan" x="-120%" y="-120%" width="340%" height="340%">
    <feGaussianBlur stdDeviation="4" result="b"/>
    <feMerge><feMergeNode in="b"/><feMergeNode in="SourceGraphic"/></feMerge>
  </filter>
  <filter id="glowTitle">
    <feGaussianBlur stdDeviation="5.5" result="b"/>
    <feMerge><feMergeNode in="b"/><feMergeNode in="b"/><feMergeNode in="SourceGraphic"/></feMerge>
  </filter>
  <filter id="glowLine" x="-6%" y="-120%" width="112%" height="340%">
    <feGaussianBlur stdDeviation="5" result="b"/>
    <feMerge><feMergeNode in="b"/><feMergeNode in="SourceGraphic"/></feMerge>
  </filter>

  <!-- ── Hollow Knight diamond tile (subtle depth) ── -->
  <pattern id="diamondTile" x="0" y="0" width="30" height="30" patternUnits="userSpaceOnUse">
    <path d="M15 2 L28 15 L15 28 L2 15 Z"
          fill="none" stroke="#0d2464" stroke-width="0.45" stroke-opacity="0.3"/>
  </pattern>

  <!-- ── Clip ── -->
  <clipPath id="chartClip">
    <rect x="82" y="124" width="900" height="338"/>
  </clipPath>
</defs>

<!-- ════ BACKGROUND ════ -->
<rect width="1056" height="570" fill="url(#bg)" rx="16"/>
<rect width="1056" height="570" fill="url(#diamondTile)" rx="16" opacity="1"/>

<!-- ════ BORDERS ════ -->
<rect width="1056" height="570" fill="none" rx="16"
      stroke="url(#gBorder)" stroke-width="2.2"/>
<rect x="5" y="5" width="1046" height="560" fill="none" rx="13"
      stroke="#1840a0" stroke-width="0.8" stroke-opacity="0.4"/>

<!-- ════ HEADER BAND ════ -->
<rect x="0" y="0" width="1056" height="116" fill="url(#gHeader)" rx="16"/>
<line x1="24" y1="114.0" x2="1032.0" y2="114.0"
    stroke="url(#gBorder)" stroke-width="0.9" stroke-opacity="0.55"/>

<!-- ════ TITLE ════ -->
<text x="532.0" y="48"
      font-size="19" font-weight="600" fill="#cce8ff"
      text-anchor="middle" font-family="'Lexend', 'Segoe UI', sans-serif"
      filter="url(#glowTitle)" letter-spacing="6">⬡  COMMIT  ANALYTICS  ⬡</text>
<text x="532.0" y="67"
      font-size="10" fill="#3d7ed4" text-anchor="middle"
      font-family="'Lexend', 'Segoe UI', sans-serif" letter-spacing="4" font-weight="300">kieran-lucas/oop-course-project-uet</text>

<!-- ════ STATS BADGE ════ -->

    <rect x="860" y="10" width="116" height="74" rx="9"
          fill="#030e26" fill-opacity="0.92" stroke="#1d52c0" stroke-width="1.3"/>
    <text x="918" y="28" font-size="8.5" fill="#4a90e2"
          text-anchor="middle" font-family="'Lexend', sans-serif" letter-spacing="2.2" font-weight="400">TOTAL  COMMITS</text>
    <text x="918" y="56" font-size="28" font-weight="700" fill="#d4eeff"
          text-anchor="middle" font-family="'Lexend', sans-serif" filter="url(#glowTitle)">80</text>
    <line x1="876" y1="63" x2="960" y2="63"
          stroke="#1d4ed8" stroke-width="0.8" stroke-opacity="0.5"/>
    <text x="900" y="76" font-size="9.5" fill="#4ade80"
          text-anchor="middle" font-family="'Lexend', sans-serif" font-weight="400">+69.2k</text>
    <text x="938" y="76" font-size="9.5" fill="#f87171"
          text-anchor="middle" font-family="'Lexend', sans-serif" font-weight="400">-68.1k</text>

<!-- ════ LEGEND ════ -->
<g><rect x="165.7" y="81.0" width="26" height="13" rx="3"
        fill="#2a6cb0" fill-opacity="0.5" stroke="#2a6cb0" stroke-width="1.5"/><text x="200.7" y="92.0"
      font-size="12" fill="#a8d4ff"
      font-family="'Lexend', 'Segoe UI', sans-serif" font-weight="400">Total Lines</text><line x1="322.5" y1="88.0"
        x2="348.5" y2="88.0"
        stroke="#ff8c42" stroke-width="3" stroke-linecap="round"/><circle cx="335.5" cy="88.0" r="4"
        fill="#ff8c42" stroke="#fff" stroke-width="0.8" stroke-opacity="0.4"/><text x="357.5" y="92.0"
      font-size="12" fill="#a8d4ff"
      font-family="'Lexend', 'Segoe UI', sans-serif" font-weight="400">Commits</text><line x1="448.1" y1="88.0"
        x2="474.1" y2="88.0"
        stroke="#00d4f5" stroke-width="3" stroke-linecap="round"/><circle cx="461.1" cy="88.0" r="4"
        fill="#00d4f5" stroke="#fff" stroke-width="0.8" stroke-opacity="0.4"/><text x="483.1" y="92.0"
      font-size="12" fill="#a8d4ff"
      font-family="'Lexend', 'Segoe UI', sans-serif" font-weight="400">Changes / Commit</text><rect x="650.9" y="81.0" width="12" height="13" rx="2"
        fill="#22c55e" opacity="0.9"/><text x="678.9" y="92.0"
      font-size="12" fill="#a8d4ff"
      font-family="'Lexend', 'Segoe UI', sans-serif" font-weight="400">Additions</text><rect x="792.1" y="81.0" width="12" height="13" rx="2"
        fill="#ef4444" opacity="0.9"/><text x="820.1" y="92.0"
      font-size="12" fill="#a8d4ff"
      font-family="'Lexend', 'Segoe UI', sans-serif" font-weight="400">Deletions</text></g>

<!-- ════ AXIS LABELS ════ -->
<text x="16" y="293.0"
    font-size="10" fill="#4a90e2" text-anchor="middle"
    font-family="'Lexend', 'Segoe UI', sans-serif" letter-spacing="3" font-weight="300"
    transform="rotate(-90, 16, 293.0)">LINES</text>
<text x="1042.0" y="293.0"
    font-size="10" fill="#ff8c42" text-anchor="middle"
    font-family="'Lexend', 'Segoe UI', sans-serif" letter-spacing="3" font-weight="300" opacity="0.85"
    transform="rotate(90, 1042.0, 293.0)">COMMITS</text>

<!-- ════ GRID + Y-LABELS ════ -->
<line x1="82" y1="462.0" x2="982" y2="462.0"
      stroke="#1a3f7a" stroke-width="1.4"
      stroke-opacity="0.95"
      stroke-dasharray="none"/><line x1="82" y1="387.9" x2="982" y2="387.9"
      stroke="#1a3f7a" stroke-width="0.6"
      stroke-opacity="0.38"
      stroke-dasharray="6,6"/><line x1="82" y1="313.9" x2="982" y2="313.9"
      stroke="#1a3f7a" stroke-width="0.6"
      stroke-opacity="0.38"
      stroke-dasharray="6,6"/><line x1="82" y1="239.8" x2="982" y2="239.8"
      stroke="#1a3f7a" stroke-width="0.6"
      stroke-opacity="0.38"
      stroke-dasharray="6,6"/><line x1="82" y1="165.8" x2="982" y2="165.8"
      stroke="#1a3f7a" stroke-width="0.6"
      stroke-opacity="0.38"
      stroke-dasharray="6,6"/>
<text x="70" y="466.0"
      font-size="11.5" fill="#5aa8ff" text-anchor="end"
      font-family="'Lexend', 'Segoe UI', sans-serif" font-weight="300">0</text><text x="70" y="391.9"
      font-size="11.5" fill="#5aa8ff" text-anchor="end"
      font-family="'Lexend', 'Segoe UI', sans-serif" font-weight="300">250</text><text x="70" y="317.9"
      font-size="11.5" fill="#5aa8ff" text-anchor="end"
      font-family="'Lexend', 'Segoe UI', sans-serif" font-weight="300">500</text><text x="70" y="243.8"
      font-size="11.5" fill="#5aa8ff" text-anchor="end"
      font-family="'Lexend', 'Segoe UI', sans-serif" font-weight="300">750</text><text x="70" y="169.8"
      font-size="11.5" fill="#5aa8ff" text-anchor="end"
      font-family="'Lexend', 'Segoe UI', sans-serif" font-weight="300">1.0k</text>
<text x="994" y="466.0"
      font-size="11.5" fill="#ff9a55" text-anchor="start"
      font-family="'Lexend', 'Segoe UI', sans-serif" font-weight="300" opacity="0.88">0</text><text x="994" y="360.4"
      font-size="11.5" fill="#ff9a55" text-anchor="start"
      font-family="'Lexend', 'Segoe UI', sans-serif" font-weight="300" opacity="0.88">10</text><text x="994" y="254.8"
      font-size="11.5" fill="#ff9a55" text-anchor="start"
      font-family="'Lexend', 'Segoe UI', sans-serif" font-weight="300" opacity="0.88">20</text><text x="994" y="149.1"
      font-size="11.5" fill="#ff9a55" text-anchor="start"
      font-family="'Lexend', 'Segoe UI', sans-serif" font-weight="300" opacity="0.88">30</text>

<!-- ════ AXIS LINES ════ -->
<line x1="82" y1="124" x2="82" y2="462"
      stroke="#1a3d7a" stroke-width="1.3" stroke-opacity="0.7"/>
<line x1="82" y1="462" x2="982" y2="462"
      stroke="#1a3d7a" stroke-width="1.6" stroke-opacity="0.85"/>
<line x1="982" y1="124" x2="982" y2="462"
      stroke="#ff8c42" stroke-width="1" stroke-opacity="0.32"/>

<!-- ════ X-AXIS DATE LABELS ════ -->
<text
      x="82.0" y="486"
      font-size="10.5" fill="#5aa8ff" text-anchor="end"
      font-family="'Lexend', 'Segoe UI', sans-serif" font-weight="300"
      transform="rotate(-42, 82.0, 486)">10 Mar</text><text
      x="232.0" y="486"
      font-size="10.5" fill="#5aa8ff" text-anchor="end"
      font-family="'Lexend', 'Segoe UI', sans-serif" font-weight="300"
      transform="rotate(-42, 232.0, 486)">17 Mar</text><text
      x="382.0" y="486"
      font-size="10.5" fill="#5aa8ff" text-anchor="end"
      font-family="'Lexend', 'Segoe UI', sans-serif" font-weight="300"
      transform="rotate(-42, 382.0, 486)">20 Mar</text><text
      x="532.0" y="486"
      font-size="10.5" fill="#5aa8ff" text-anchor="end"
      font-family="'Lexend', 'Segoe UI', sans-serif" font-weight="300"
      transform="rotate(-42, 532.0, 486)">22 Mar</text><text
      x="682.0" y="486"
      font-size="10.5" fill="#5aa8ff" text-anchor="end"
      font-family="'Lexend', 'Segoe UI', sans-serif" font-weight="300"
      transform="rotate(-42, 682.0, 486)">24 Mar</text><text
      x="832.0" y="486"
      font-size="10.5" fill="#5aa8ff" text-anchor="end"
      font-family="'Lexend', 'Segoe UI', sans-serif" font-weight="300"
      transform="rotate(-42, 832.0, 486)">25 Mar</text><text
      x="982.0" y="486"
      font-size="10.5" fill="#5aa8ff" text-anchor="end"
      font-family="'Lexend', 'Segoe UI', sans-serif" font-weight="300"
      transform="rotate(-42, 982.0, 486)">26 Mar</text>

<!-- ════ CHART CONTENT (clipped) ════ -->
<g clip-path="url(#chartClip)">

  <!-- Total lines: area fill + edge line -->
  <path d="M 82.00 461.70 C 107.00 460.47, 182.00 458.54, 232.00 454.30 C 282.00 450.05, 332.00 440.33, 382.00 436.23 C 432.00 432.13, 482.00 481.75, 532.00 429.71 C 582.00 377.67, 632.00 174.70, 682.00 124.00 C 732.00 73.30, 782.00 125.38, 832.00 125.48 C 882.00 125.58, 957.00 124.74, 982.00 124.59 L 982.00 462 L 82.00 462 Z" fill="url(#areaFill)"/>
  <path d="M 82.00 461.70 C 107.00 460.47, 182.00 458.54, 232.00 454.30 C 282.00 450.05, 332.00 440.33, 382.00 436.23 C 432.00 432.13, 482.00 481.75, 532.00 429.71 C 582.00 377.67, 632.00 174.70, 682.00 124.00 C 732.00 73.30, 782.00 125.38, 832.00 125.48 C 882.00 125.58, 957.00 124.74, 982.00 124.59" fill="none" stroke="#1e56a8" stroke-width="2" stroke-opacity="0.75"/>

  <!-- Stacked bars (additions green / deletions red) -->
  <rect x="671.0" y="218.6" width="22" height="120.8" fill="url(#gDelBar)" rx="2" opacity="0.82"/><rect x="671.0" y="339.4" width="22" height="122.6" fill="url(#gAddBar)" rx="2" opacity="0.85"/>

  <!-- Commits line — glow layer + crisp line -->
  <path d="M 82.00 451.44 C 107.00 435.59, 182.00 400.39, 232.00 356.38 C 282.00 312.36, 332.00 171.53, 382.00 187.38 C 432.00 203.22, 482.00 462.00, 532.00 451.44 C 582.00 440.88, 632.00 134.56, 682.00 124.00 C 732.00 113.44, 782.00 337.01, 832.00 388.06 C 882.00 439.11, 957.00 423.27, 982.00 430.31" fill="none" stroke="#ff8c42"
        stroke-width="10" stroke-opacity="0.08" filter="url(#glowLine)"/>
  <path d="M 82.00 451.44 C 107.00 435.59, 182.00 400.39, 232.00 356.38 C 282.00 312.36, 332.00 171.53, 382.00 187.38 C 432.00 203.22, 482.00 462.00, 532.00 451.44 C 582.00 440.88, 632.00 134.56, 682.00 124.00 C 732.00 113.44, 782.00 337.01, 832.00 388.06 C 882.00 439.11, 957.00 423.27, 982.00 430.31" fill="none" stroke="url(#gCommits)"
        stroke-width="3" stroke-linecap="round"/>

  <!-- Changes per commit — glow layer + crisp line -->
  <path d="M 82.00 461.92 C 107.00 461.88, 182.00 461.71, 232.00 461.68 C 282.00 461.66, 332.00 462.00, 382.00 461.76 C 432.00 461.53, 482.00 516.56, 532.00 460.26 C 582.00 403.97, 632.00 123.91, 682.00 124.00 C 732.00 124.09, 782.00 405.17, 832.00 460.82 C 882.00 516.46, 957.00 458.38, 982.00 457.89" fill="none" stroke="#00d4f5"
        stroke-width="10" stroke-opacity="0.08" filter="url(#glowLine)"/>
  <path d="M 82.00 461.92 C 107.00 461.88, 182.00 461.71, 232.00 461.68 C 282.00 461.66, 332.00 462.00, 382.00 461.76 C 432.00 461.53, 482.00 516.56, 532.00 460.26 C 582.00 403.97, 632.00 123.91, 682.00 124.00 C 732.00 124.09, 782.00 405.17, 832.00 460.82 C 882.00 516.46, 957.00 458.38, 982.00 457.89" fill="none" stroke="url(#gChanges)"
        stroke-width="3" stroke-linecap="round"/>

</g>

<!-- ════ DATA-POINT CIRCLES (above clip) ════ -->
<circle cx="82.0" cy="451.4" r="4.8" fill="#ff8c42" stroke="#ffd0a0" stroke-width="1.2" filter="url(#glowOrange)"><title>2026-03-10: 1 commits</title></circle><circle cx="232.0" cy="356.4" r="4.8" fill="#ff8c42" stroke="#ffd0a0" stroke-width="1.2" filter="url(#glowOrange)"><title>2026-03-17: 10 commits</title></circle><circle cx="382.0" cy="187.4" r="4.8" fill="#ff8c42" stroke="#ffd0a0" stroke-width="1.2" filter="url(#glowOrange)"><title>2026-03-20: 26 commits</title></circle><circle cx="532.0" cy="451.4" r="4.8" fill="#ff8c42" stroke="#ffd0a0" stroke-width="1.2" filter="url(#glowOrange)"><title>2026-03-22: 1 commits</title></circle><circle cx="682.0" cy="124.0" r="4.8" fill="#ff8c42" stroke="#ffd0a0" stroke-width="1.2" filter="url(#glowOrange)"><title>2026-03-24: 32 commits</title></circle><circle cx="832.0" cy="388.1" r="4.8" fill="#ff8c42" stroke="#ffd0a0" stroke-width="1.2" filter="url(#glowOrange)"><title>2026-03-25: 7 commits</title></circle><circle cx="982.0" cy="430.3" r="4.8" fill="#ff8c42" stroke="#ffd0a0" stroke-width="1.2" filter="url(#glowOrange)"><title>2026-03-26: 3 commits</title></circle>
<circle cx="82.0" cy="461.9" r="4" fill="#00d4f5" stroke="#80eeff" stroke-width="1" filter="url(#glowCyan)"><title>2026-03-10: 1 changes/commit</title></circle><circle cx="232.0" cy="461.7" r="4" fill="#00d4f5" stroke="#80eeff" stroke-width="1" filter="url(#glowCyan)"><title>2026-03-17: 4 changes/commit</title></circle><circle cx="382.0" cy="461.8" r="4" fill="#00d4f5" stroke="#80eeff" stroke-width="1" filter="url(#glowCyan)"><title>2026-03-20: 3 changes/commit</title></circle><circle cx="532.0" cy="460.3" r="4" fill="#00d4f5" stroke="#80eeff" stroke-width="1" filter="url(#glowCyan)"><title>2026-03-22: 22 changes/commit</title></circle><circle cx="682.0" cy="124.0" r="4" fill="#00d4f5" stroke="#80eeff" stroke-width="1" filter="url(#glowCyan)"><title>2026-03-24: 4279 changes/commit</title></circle><circle cx="832.0" cy="460.8" r="4" fill="#00d4f5" stroke="#80eeff" stroke-width="1" filter="url(#glowCyan)"><title>2026-03-25: 15 changes/commit</title></circle><circle cx="982.0" cy="457.9" r="4" fill="#00d4f5" stroke="#80eeff" stroke-width="1" filter="url(#glowCyan)"><title>2026-03-26: 52 changes/commit</title></circle>

<!-- ════ PEAK ANNOTATION ════ -->

    <line x1="682.0" y1="109.0"
          x2="682.0" y2="128.0"
          stroke="#60a5fa" stroke-width="1.3" stroke-dasharray="4,4" opacity="0.75"/>
    <rect x="624.0" y="64.0"
          width="116" height="24" rx="6"
          fill="#010e2a" stroke="#2563eb" stroke-width="1.1" opacity="0.97"/>
    <text x="682.0" y="80.0"
          font-size="10.5" fill="#93c5fd" text-anchor="middle"
          font-family="'Lexend', 'Segoe UI', sans-serif" font-weight="400"
          letter-spacing="0.6">⬡  peak · 32 commits</text>

<!-- ════ CORNER BRACKETS ════ -->
<path d="M 82 148.0 L 82 124 L 106.0 124"
      fill="none" stroke="#4a90e2" stroke-width="2.2" stroke-opacity="0.9" stroke-linecap="round"/><path d="M 982 148.0 L 982 124 L 958.0 124"
      fill="none" stroke="#4a90e2" stroke-width="2.2" stroke-opacity="0.9" stroke-linecap="round"/><path d="M 82 438.0 L 82 462 L 106.0 462"
      fill="none" stroke="#4a90e2" stroke-width="2.2" stroke-opacity="0.9" stroke-linecap="round"/><path d="M 982 438.0 L 982 462 L 958.0 462"
      fill="none" stroke="#4a90e2" stroke-width="2.2" stroke-opacity="0.9" stroke-linecap="round"/>

<!-- ════ WAVE DECORATION ════ -->
<path d="M 0 562 Q 66.0 554.0 132.0 562 Q 198.0 554.0 264.0 562 Q 330.0 554.0 396.0 562 Q 462.0 554.0 528.0 562 Q 594.0 554.0 660.0 562 Q 726.0 554.0 792.0 562 Q 858.0 554.0 924.0 562 Q 990.0 554.0 1056.0 562" fill="none" stroke="#1948a0"
      stroke-width="1.4" stroke-opacity="0.38"/>
<path d="M 0 556 Q 66.0 549.8 132.0 556 Q 198.0 549.8 264.0 556 Q 330.0 549.8 396.0 556 Q 462.0 549.8 528.0 556 Q 594.0 549.8 660.0 556 Q 726.0 549.8 792.0 556 Q 858.0 549.8 924.0 556 Q 990.0 549.8 1056.0 556" fill="none" stroke="#1948a0"
      stroke-width="1.1199999999999999" stroke-opacity="0.31"/>
<path d="M 0 550 Q 66.0 545.6 132.0 550 Q 198.0 545.6 264.0 550 Q 330.0 545.6 396.0 550 Q 462.0 545.6 528.0 550 Q 594.0 545.6 660.0 550 Q 726.0 545.6 792.0 550 Q 858.0 545.6 924.0 550 Q 990.0 545.6 1056.0 550" fill="none" stroke="#1948a0"
      stroke-width="0.8399999999999999" stroke-opacity="0.24"/>
<path d="M 0 544 Q 66.0 541.4 132.0 544 Q 198.0 541.4 264.0 544 Q 330.0 541.4 396.0 544 Q 462.0 541.4 528.0 544 Q 594.0 541.4 660.0 544 Q 726.0 541.4 792.0 544 Q 858.0 541.4 924.0 544 Q 990.0 541.4 1056.0 544" fill="none" stroke="#1948a0"
      stroke-width="0.5599999999999998" stroke-opacity="0.16999999999999998"/>

</svg>