<svg width="1498" height="969" xmlns="http://www.w3.org/2000/svg" viewBox="0 0 1498 969">
<defs>
  <style>
    @import url('https://fonts.googleapis.com/css2?family=Lexend:wght@300;400;600;700&amp;display=swap');
    circle:hover { opacity: 1 !important; r: 6; }
    rect.bar-segment:hover { opacity: 1 !important; }
  </style>

  <linearGradient id="bg" x1="0%" y1="0%" x2="55%" y2="100%">
    <stop offset="0%"   stop-color="#010c1e"/>
    <stop offset="50%"  stop-color="#010f27"/>
    <stop offset="100%" stop-color="#000a18"/>
  </linearGradient>
  <linearGradient id="areaFill" x1="0%" y1="0%" x2="0%" y2="100%">
    <stop offset="0%"   stop-color="#4a90e2" stop-opacity="0.5"/>
    <stop offset="55%"  stop-color="#1a3f7a" stop-opacity="0.18"/>
    <stop offset="100%" stop-color="#000a18" stop-opacity="0"/>
  </linearGradient>
  <linearGradient id="gCommits" x1="0%" y1="0%" x2="100%" y2="0%">
    <stop offset="0%"   stop-color="#ff8c42"/>
    <stop offset="100%" stop-color="#ffd0a0"/>
  </linearGradient>
  <linearGradient id="gChanges" x1="0%" y1="0%" x2="100%" y2="0%">
    <stop offset="0%"   stop-color="#00d4f5" stop-opacity="0.8"/>
    <stop offset="50%"  stop-color="#00d4f5"/>
    <stop offset="100%" stop-color="#80eeff"/>
  </linearGradient>
  <linearGradient id="gBorder" x1="0%" y1="0%" x2="100%" y2="100%">
    <stop offset="0%"   stop-color="#1840a0" stop-opacity="0.9"/>
    <stop offset="50%"  stop-color="#3b82f6" stop-opacity="0.6"/>
    <stop offset="100%" stop-color="#60a5fa" stop-opacity="0.9"/>
  </linearGradient>
  <linearGradient id="gHeader" x1="0%" y1="0%" x2="100%" y2="0%">
    <stop offset="0%"   stop-color="#010c1e" stop-opacity="0"/>
    <stop offset="20%"  stop-color="#091c3e" stop-opacity="0.92"/>
    <stop offset="80%"  stop-color="#091c3e" stop-opacity="0.92"/>
    <stop offset="100%" stop-color="#010c1e" stop-opacity="0"/>
  </linearGradient>
  <linearGradient id="gAddBar" x1="0%" y1="0%" x2="0%" y2="100%">
    <stop offset="0%"   stop-color="#22c55e" stop-opacity="0.95"/>
    <stop offset="100%" stop-color="#22c55e" stop-opacity="0.65"/>
  </linearGradient>
  <linearGradient id="gDelBar" x1="0%" y1="0%" x2="0%" y2="100%">
    <stop offset="0%"   stop-color="#ef4444" stop-opacity="0.9"/>
    <stop offset="100%" stop-color="#ef4444" stop-opacity="0.6"/>
  </linearGradient>

  <filter id="glowOrange" x="-120%" y="-120%" width="340%" height="340%">
    <feGaussianBlur stdDeviation="4" result="b"/>
    <feMerge><feMergeNode in="b"/><feMergeNode in="SourceGraphic"/></feMerge>
  </filter>
  <filter id="glowCyan" x="-120%" y="-120%" width="340%" height="340%">
    <feGaussianBlur stdDeviation="3.5" result="b"/>
    <feMerge><feMergeNode in="b"/><feMergeNode in="SourceGraphic"/></feMerge>
  </filter>
  <filter id="glowTitle">
    <feGaussianBlur stdDeviation="5" result="b"/>
    <feMerge><feMergeNode in="b"/><feMergeNode in="b"/><feMergeNode in="SourceGraphic"/></feMerge>
  </filter>
  <filter id="glowLine" x="-6%" y="-120%" width="112%" height="340%">
    <feGaussianBlur stdDeviation="4.5" result="b"/>
    <feMerge><feMergeNode in="b"/><feMergeNode in="SourceGraphic"/></feMerge>
  </filter>
  <filter id="glowMA" x="-6%" y="-120%" width="112%" height="340%">
    <feGaussianBlur stdDeviation="3" result="b"/>
    <feMerge><feMergeNode in="b"/><feMergeNode in="SourceGraphic"/></feMerge>
  </filter>

  <pattern id="diamondTile" x="0" y="0" width="30" height="30" patternUnits="userSpaceOnUse">
    <path d="M15 2 L28 15 L15 28 L2 15 Z"
      fill="none" stroke="#0d2464" stroke-width="0.4" stroke-opacity="0.25"/>
  </pattern>

  <clipPath id="chartClip">
    <rect x="86" y="130" width="1334" height="360"/>
  </clipPath>
</defs>

<!-- ════ BACKGROUND ════ -->
<rect width="1498" height="969" fill="url(#bg)" rx="16"/>
<rect width="1498" height="969" fill="url(#diamondTile)" rx="16"/>

<!-- ════ BORDERS ════ -->
<rect width="1498" height="969" fill="none" rx="16" stroke="url(#gBorder)" stroke-width="2.2"/>
<rect x="5" y="5" width="1488" height="959" fill="none" rx="13"
  stroke="#1840a0" stroke-width="0.7" stroke-opacity="0.35"/>

<!-- ════ HEADER ════ -->
<rect x="0" y="0" width="1498" height="122" fill="url(#gHeader)" rx="16"/>
<line x1="24" y1="118.0" x2="1474.0" y2="118.0"
    stroke="url(#gBorder)" stroke-width="0.8" stroke-opacity="0.5"/>

<!-- ════ TITLE ════ -->
<text x="753.0" y="44" font-size="18" font-weight="600" fill="#cce8ff"
  text-anchor="middle" font-family="'Lexend','Segoe UI',sans-serif"
  filter="url(#glowTitle)" letter-spacing="5">⬡  COMMIT  ANALYTICS  ⬡</text>
<text x="753.0" y="62" font-size="9.5" fill="#3d7ed4" text-anchor="middle"
  font-family="'Lexend','Segoe UI',sans-serif" letter-spacing="3.5" font-weight="300">kieran-lucas/oop-course-project-uet</text>

<!-- ════ STATS BADGE ════ -->

    <rect x="1272" y="8" width="142" height="92" rx="10"
      fill="#030e26" fill-opacity="0.94" stroke="#2563eb" stroke-width="1.2"/>
    <text x="1343" y="24" font-size="8" fill="#3d7ed4"
      text-anchor="middle" font-family="'Lexend',sans-serif" letter-spacing="2" font-weight="400">TOTAL  COMMITS</text>
    <text x="1343" y="52" font-size="28" font-weight="700" fill="#cce8ff"
      text-anchor="middle" font-family="'Lexend',sans-serif" filter="url(#glowTitle)">223</text>
    <line x1="1288" y1="60" x2="1398" y2="60"
      stroke="#1a3f7a" stroke-width="0.8" stroke-opacity="0.5"/>
    <text x="1319" y="74" font-size="9" fill="#22c55e"
      text-anchor="middle" font-family="'Lexend',sans-serif" font-weight="400">+152.1k</text>
    <text x="1367" y="74" font-size="9" fill="#ef4444"
      text-anchor="middle" font-family="'Lexend',sans-serif" font-weight="400">-75.4k</text>
    <text x="1343" y="90" font-size="8" fill="#3d7ed4"
      text-anchor="middle" font-family="'Lexend',sans-serif" font-weight="300">13 active days · 828 files</text>

<!-- ════ LEGEND ════ -->
<g><rect x="397.0" y="90.0" width="24" height="12" rx="3"
        fill="#4a90e2" fill-opacity="0.45" stroke="#4a90e2" stroke-width="1.2"/><text x="428.0" y="100.0" font-size="11" fill="#93c5fd"
      font-family="'Lexend','Segoe UI',sans-serif" font-weight="400">Total Lines</text><line x1="533.0" y1="97.0" x2="557.0" y2="97.0"
        stroke="#ff8c42" stroke-width="2.5" stroke-linecap="round"/><circle cx="545.0" cy="97.0" r="3.5"
        fill="#ff8c42" stroke="#fff" stroke-width="0.6" stroke-opacity="0.3"/><text x="564.0" y="100.0" font-size="11" fill="#93c5fd"
      font-family="'Lexend','Segoe UI',sans-serif" font-weight="400">Commits</text><line x1="641.0" y1="97.0" x2="665.0" y2="97.0"
        stroke="#00d4f5" stroke-width="2.5" stroke-linecap="round"/><circle cx="653.0" cy="97.0" r="3.5"
        fill="#00d4f5" stroke="#fff" stroke-width="0.6" stroke-opacity="0.3"/><text x="672.0" y="100.0" font-size="11" fill="#93c5fd"
      font-family="'Lexend','Segoe UI',sans-serif" font-weight="400">Chg/Commit</text><rect x="776.0" y="90.0" width="12" height="12" rx="2"
        fill="#22c55e" opacity="0.85"/><text x="801.0" y="100.0" font-size="11" fill="#93c5fd"
      font-family="'Lexend','Segoe UI',sans-serif" font-weight="400">Additions</text><rect x="898.0" y="90.0" width="12" height="12" rx="2"
        fill="#ef4444" opacity="0.85"/><text x="923.0" y="100.0" font-size="11" fill="#93c5fd"
      font-family="'Lexend','Segoe UI',sans-serif" font-weight="400">Deletions</text><line x1="1014.0" y1="97.0" x2="1038.0" y2="97.0"
        stroke="#a78bfa" stroke-width="2" stroke-dasharray="5,3" stroke-linecap="round"/><text x="1045.0" y="100.0" font-size="11" fill="#93c5fd"
      font-family="'Lexend','Segoe UI',sans-serif" font-weight="400">7-day MA</text></g>

<!-- ════ AXIS LABELS ════ -->
<text x="16" y="310.0" font-size="9.5" fill="#4a90e2"
    text-anchor="middle" font-family="'Lexend','Segoe UI',sans-serif" letter-spacing="3" font-weight="300"
    transform="rotate(-90, 16, 310.0)">LINES</text>
<text x="1484.0" y="310.0" font-size="9.5"
    fill="#ff8c42" text-anchor="middle" font-family="'Lexend','Segoe UI',sans-serif"
    letter-spacing="3" font-weight="300" opacity="0.8"
    transform="rotate(90, 1484.0, 310.0)">COMMITS</text>

<!-- ════ GRID + Y-LABELS ════ -->
<line x1="86" y1="490.0" x2="1420" y2="490.0"
      stroke="#1a3f7a" stroke-width="1.4"
      stroke-opacity="0.9" stroke-dasharray="none"/><line x1="86" y1="418.0" x2="1420" y2="418.0"
      stroke="#1a3f7a" stroke-width="0.5"
      stroke-opacity="0.3" stroke-dasharray="6,6"/><line x1="86" y1="346.0" x2="1420" y2="346.0"
      stroke="#1a3f7a" stroke-width="0.5"
      stroke-opacity="0.3" stroke-dasharray="6,6"/><line x1="86" y1="274.0" x2="1420" y2="274.0"
      stroke="#1a3f7a" stroke-width="0.5"
      stroke-opacity="0.3" stroke-dasharray="6,6"/><line x1="86" y1="202.0" x2="1420" y2="202.0"
      stroke="#1a3f7a" stroke-width="0.5"
      stroke-opacity="0.3" stroke-dasharray="6,6"/><line x1="86" y1="130.0" x2="1420" y2="130.0"
      stroke="#1a3f7a" stroke-width="0.5"
      stroke-opacity="0.3" stroke-dasharray="6,6"/>
<text x="74" y="494.0" font-size="11" fill="#5aa8ff"
      text-anchor="end" font-family="'Lexend','Segoe UI',sans-serif" font-weight="300">0</text><text x="74" y="422.0" font-size="11" fill="#5aa8ff"
      text-anchor="end" font-family="'Lexend','Segoe UI',sans-serif" font-weight="300">20.0k</text><text x="74" y="350.0" font-size="11" fill="#5aa8ff"
      text-anchor="end" font-family="'Lexend','Segoe UI',sans-serif" font-weight="300">40.0k</text><text x="74" y="278.0" font-size="11" fill="#5aa8ff"
      text-anchor="end" font-family="'Lexend','Segoe UI',sans-serif" font-weight="300">60.0k</text><text x="74" y="206.0" font-size="11" fill="#5aa8ff"
      text-anchor="end" font-family="'Lexend','Segoe UI',sans-serif" font-weight="300">80.0k</text><text x="74" y="134.0" font-size="11" fill="#5aa8ff"
      text-anchor="end" font-family="'Lexend','Segoe UI',sans-serif" font-weight="300">100.0k</text>
<text x="1432" y="494.0" font-size="11" fill="#ff8c42"
      text-anchor="start" font-family="'Lexend','Segoe UI',sans-serif" font-weight="300" opacity="0.85">0</text><text x="1432" y="404.0" font-size="11" fill="#ff8c42"
      text-anchor="start" font-family="'Lexend','Segoe UI',sans-serif" font-weight="300" opacity="0.85">20</text><text x="1432" y="314.0" font-size="11" fill="#ff8c42"
      text-anchor="start" font-family="'Lexend','Segoe UI',sans-serif" font-weight="300" opacity="0.85">40</text><text x="1432" y="224.0" font-size="11" fill="#ff8c42"
      text-anchor="start" font-family="'Lexend','Segoe UI',sans-serif" font-weight="300" opacity="0.85">60</text><text x="1432" y="134.0" font-size="11" fill="#ff8c42"
      text-anchor="start" font-family="'Lexend','Segoe UI',sans-serif" font-weight="300" opacity="0.85">80</text>

<!-- ════ AXIS LINES ════ -->
<line x1="86" y1="130" x2="86" y2="490"
  stroke="#1a3f7a" stroke-width="1.2" stroke-opacity="0.65"/>
<line x1="86" y1="490" x2="1420" y2="490"
  stroke="#1a3f7a" stroke-width="1.4" stroke-opacity="0.8"/>
<line x1="1420" y1="130" x2="1420" y2="490"
  stroke="#ff8c42" stroke-width="0.9" stroke-opacity="0.28"/>

<!-- ════ X-AXIS ════ -->
<text x="86.0" y="514" font-size="10" fill="#5aa8ff"
      text-anchor="end" font-family="'Lexend','Segoe UI',sans-serif" font-weight="300"
      transform="rotate(-42, 86.0, 514)">10 Mar</text><text x="207.3" y="514" font-size="10" fill="#5aa8ff"
      text-anchor="end" font-family="'Lexend','Segoe UI',sans-serif" font-weight="300"
      transform="rotate(-42, 207.3, 514)">12 Mar</text><text x="328.5" y="514" font-size="10" fill="#5aa8ff"
      text-anchor="end" font-family="'Lexend','Segoe UI',sans-serif" font-weight="300"
      transform="rotate(-42, 328.5, 514)">14 Mar</text><text x="449.8" y="514" font-size="10" fill="#5aa8ff"
      text-anchor="end" font-family="'Lexend','Segoe UI',sans-serif" font-weight="300"
      transform="rotate(-42, 449.8, 514)">16 Mar</text><text x="571.1" y="514" font-size="10" fill="#5aa8ff"
      text-anchor="end" font-family="'Lexend','Segoe UI',sans-serif" font-weight="300"
      transform="rotate(-42, 571.1, 514)">18 Mar</text><text x="692.4" y="514" font-size="10" fill="#5aa8ff"
      text-anchor="end" font-family="'Lexend','Segoe UI',sans-serif" font-weight="300"
      transform="rotate(-42, 692.4, 514)">20 Mar</text><text x="813.6" y="514" font-size="10" fill="#5aa8ff"
      text-anchor="end" font-family="'Lexend','Segoe UI',sans-serif" font-weight="300"
      transform="rotate(-42, 813.6, 514)">22 Mar</text><text x="934.9" y="514" font-size="10" fill="#5aa8ff"
      text-anchor="end" font-family="'Lexend','Segoe UI',sans-serif" font-weight="300"
      transform="rotate(-42, 934.9, 514)">24 Mar</text><text x="1056.2" y="514" font-size="10" fill="#5aa8ff"
      text-anchor="end" font-family="'Lexend','Segoe UI',sans-serif" font-weight="300"
      transform="rotate(-42, 1056.2, 514)">26 Mar</text><text x="1177.5" y="514" font-size="10" fill="#5aa8ff"
      text-anchor="end" font-family="'Lexend','Segoe UI',sans-serif" font-weight="300"
      transform="rotate(-42, 1177.5, 514)">28 Mar</text><text x="1298.7" y="514" font-size="10" fill="#5aa8ff"
      text-anchor="end" font-family="'Lexend','Segoe UI',sans-serif" font-weight="300"
      transform="rotate(-42, 1298.7, 514)">30 Mar</text><text x="1420.0" y="514" font-size="10" fill="#5aa8ff"
      text-anchor="end" font-family="'Lexend','Segoe UI',sans-serif" font-weight="300"
      transform="rotate(-42, 1420.0, 514)">1 Apr</text>

<!-- ════ CHART CONTENT ════ -->
<g clip-path="url(#chartClip)">
  <!-- Total lines: area + stroke -->
  <path d="M 86.00 490.00 C 96.11 490.00, 126.42 490.00, 146.64 490.00 C 166.85 490.00, 187.06 490.00, 207.27 490.00 C 227.48 490.00, 247.70 490.00, 267.91 490.00 C 288.12 490.00, 308.33 490.00, 328.55 490.00 C 348.76 490.00, 368.97 490.00, 389.18 490.00 C 409.39 490.00, 429.61 490.00, 449.82 490.00 C 470.03 489.98, 490.24 489.92, 510.45 489.91 C 530.67 489.89, 550.88 489.91, 571.09 489.91 C 591.30 489.91, 611.52 489.94, 631.73 489.91 C 651.94 489.87, 672.15 489.72, 692.36 489.69 C 712.58 489.65, 732.79 489.70, 753.00 489.69 C 773.21 489.67, 793.42 489.62, 813.64 489.61 C 833.85 489.59, 854.06 490.00, 874.27 489.61 C 894.48 488.99, 914.70 486.51, 934.91 485.89 C 955.12 485.28, 975.33 485.91, 995.55 485.91 C 1015.76 485.91, 1035.97 485.90, 1056.18 485.90 C 1076.39 485.90, 1096.61 490.00, 1116.82 485.89 C 1137.03 443.28, 1157.24 274.96, 1177.45 230.27 C 1197.67 185.59, 1217.88 219.88, 1238.09 217.78 C 1258.30 215.68, 1278.52 218.05, 1298.73 217.69 C 1318.94 217.33, 1339.15 216.22, 1359.36 215.61 C 1379.58 215.00, 1409.89 214.31, 1420.00 214.05 L 1420.00 490 L 86.00 490 Z" fill="url(#areaFill)"/>
  <path d="M 86.00 490.00 C 96.11 490.00, 126.42 490.00, 146.64 490.00 C 166.85 490.00, 187.06 490.00, 207.27 490.00 C 227.48 490.00, 247.70 490.00, 267.91 490.00 C 288.12 490.00, 308.33 490.00, 328.55 490.00 C 348.76 490.00, 368.97 490.00, 389.18 490.00 C 409.39 490.00, 429.61 490.00, 449.82 490.00 C 470.03 489.98, 490.24 489.92, 510.45 489.91 C 530.67 489.89, 550.88 489.91, 571.09 489.91 C 591.30 489.91, 611.52 489.94, 631.73 489.91 C 651.94 489.87, 672.15 489.72, 692.36 489.69 C 712.58 489.65, 732.79 489.70, 753.00 489.69 C 773.21 489.67, 793.42 489.62, 813.64 489.61 C 833.85 489.59, 854.06 490.00, 874.27 489.61 C 894.48 488.99, 914.70 486.51, 934.91 485.89 C 955.12 485.28, 975.33 485.91, 995.55 485.91 C 1015.76 485.91, 1035.97 485.90, 1056.18 485.90 C 1076.39 485.90, 1096.61 490.00, 1116.82 485.89 C 1137.03 443.28, 1157.24 274.96, 1177.45 230.27 C 1197.67 185.59, 1217.88 219.88, 1238.09 217.78 C 1258.30 215.68, 1278.52 218.05, 1298.73 217.69 C 1318.94 217.33, 1339.15 216.22, 1359.36 215.61 C 1379.58 215.00, 1409.89 214.31, 1420.00 214.05" fill="none" stroke="#4a90e2" stroke-width="2" stroke-opacity="0.7"/>

  <!-- Bars -->
  <rect x="922.9" y="312.5" width="24" height="88.1"
        fill="url(#gDelBar)" rx="2" opacity="0.78"/><rect x="922.9" y="400.6" width="24" height="89.4"
        fill="url(#gAddBar)" rx="2" opacity="0.82"/><rect x="1165.5" y="392.5" width="24" height="2.7"
        fill="url(#gDelBar)" rx="2" opacity="0.78"/><rect x="1165.5" y="395.2" width="24" height="94.8"
        fill="url(#gAddBar)" rx="2" opacity="0.82"/><rect x="1226.1" y="476.3" width="24" height="4.6"
        fill="url(#gDelBar)" rx="2" opacity="0.78"/><rect x="1226.1" y="480.9" width="24" height="9.1"
        fill="url(#gAddBar)" rx="2" opacity="0.82"/><rect x="1347.4" y="487.5" width="24" height="0.9"
        fill="url(#gDelBar)" rx="2" opacity="0.78"/><rect x="1347.4" y="488.4" width="24" height="1.6"
        fill="url(#gAddBar)" rx="2" opacity="0.82"/><rect x="1408.0" y="487.5" width="24" height="1.0"
        fill="url(#gDelBar)" rx="2" opacity="0.78"/><rect x="1408.0" y="488.5" width="24" height="1.5"
        fill="url(#gAddBar)" rx="2" opacity="0.82"/>

  <!-- Commits line — glow + crisp -->
  <path d="M 86.00 485.50 C 96.11 486.25, 126.42 489.25, 146.64 490.00 C 166.85 490.00, 187.06 490.00, 207.27 490.00 C 227.48 490.00, 247.70 490.00, 267.91 490.00 C 288.12 490.00, 308.33 490.00, 328.55 490.00 C 348.76 490.00, 368.97 490.00, 389.18 490.00 C 409.39 490.00, 429.61 490.00, 449.82 490.00 C 470.03 482.50, 490.24 445.00, 510.45 445.00 C 530.67 445.00, 550.88 482.50, 571.09 490.00 C 591.30 490.00, 611.52 490.00, 631.73 490.00 C 651.94 470.50, 672.15 373.00, 692.36 373.00 C 712.58 373.00, 732.79 471.25, 753.00 490.00 C 773.21 490.00, 793.42 485.50, 813.64 485.50 C 833.85 485.50, 854.06 490.00, 874.27 490.00 C 894.48 466.75, 914.70 351.25, 934.91 346.00 C 955.12 340.75, 975.33 436.75, 995.55 458.50 C 1015.76 480.25, 1035.97 472.00, 1056.18 476.50 C 1076.39 481.00, 1096.61 490.00, 1116.82 485.50 C 1137.03 438.25, 1157.24 225.25, 1177.45 193.00 C 1197.67 160.75, 1217.88 244.00, 1238.09 292.00 C 1258.30 340.00, 1278.52 460.00, 1298.73 481.00 C 1318.94 490.00, 1339.15 427.00, 1359.36 418.00 C 1379.58 409.00, 1409.89 425.50, 1420.00 427.00" fill="none" stroke="#ff8c42" stroke-width="9" stroke-opacity="0.06" filter="url(#glowLine)"/>
  <path d="M 86.00 485.50 C 96.11 486.25, 126.42 489.25, 146.64 490.00 C 166.85 490.00, 187.06 490.00, 207.27 490.00 C 227.48 490.00, 247.70 490.00, 267.91 490.00 C 288.12 490.00, 308.33 490.00, 328.55 490.00 C 348.76 490.00, 368.97 490.00, 389.18 490.00 C 409.39 490.00, 429.61 490.00, 449.82 490.00 C 470.03 482.50, 490.24 445.00, 510.45 445.00 C 530.67 445.00, 550.88 482.50, 571.09 490.00 C 591.30 490.00, 611.52 490.00, 631.73 490.00 C 651.94 470.50, 672.15 373.00, 692.36 373.00 C 712.58 373.00, 732.79 471.25, 753.00 490.00 C 773.21 490.00, 793.42 485.50, 813.64 485.50 C 833.85 485.50, 854.06 490.00, 874.27 490.00 C 894.48 466.75, 914.70 351.25, 934.91 346.00 C 955.12 340.75, 975.33 436.75, 995.55 458.50 C 1015.76 480.25, 1035.97 472.00, 1056.18 476.50 C 1076.39 481.00, 1096.61 490.00, 1116.82 485.50 C 1137.03 438.25, 1157.24 225.25, 1177.45 193.00 C 1197.67 160.75, 1217.88 244.00, 1238.09 292.00 C 1258.30 340.00, 1278.52 460.00, 1298.73 481.00 C 1318.94 490.00, 1339.15 427.00, 1359.36 418.00 C 1379.58 409.00, 1409.89 425.50, 1420.00 427.00" fill="none" stroke="url(#gCommits)" stroke-width="2.8" stroke-linecap="round"/>

  <!-- Changes/commit line -->
  <path d="M 86.00 489.93 C 96.11 489.94, 126.42 489.99, 146.64 490.00 C 166.85 490.00, 187.06 490.00, 207.27 490.00 C 227.48 490.00, 247.70 490.00, 267.91 490.00 C 288.12 490.00, 308.33 490.00, 328.55 490.00 C 348.76 490.00, 368.97 490.00, 389.18 490.00 C 409.39 490.00, 429.61 490.00, 449.82 490.00 C 470.03 489.95, 490.24 489.71, 510.45 489.71 C 530.67 489.71, 550.88 489.95, 571.09 490.00 C 591.30 490.00, 611.52 490.00, 631.73 490.00 C 651.94 489.96, 672.15 489.78, 692.36 489.78 C 712.58 489.78, 732.79 490.00, 753.00 490.00 C 773.21 489.77, 793.42 488.42, 813.64 488.42 C 833.85 488.42, 854.06 490.00, 874.27 490.00 C 894.48 438.92, 914.70 182.09, 934.91 181.91 C 955.12 181.73, 975.33 438.20, 995.55 488.92 C 1015.76 490.00, 1035.97 486.70, 1056.18 486.26 C 1076.39 485.81, 1096.61 490.00, 1116.82 486.26 C 1137.03 473.20, 1157.24 410.19, 1177.45 407.92 C 1197.67 405.65, 1217.88 461.38, 1238.09 472.65 C 1258.30 483.92, 1278.52 474.09, 1298.73 475.53 C 1318.94 476.97, 1339.15 480.53, 1359.36 481.29 C 1379.58 482.04, 1409.89 480.27, 1420.00 480.06" fill="none" stroke="#00d4f5" stroke-width="9" stroke-opacity="0.06" filter="url(#glowLine)"/>
  <path d="M 86.00 489.93 C 96.11 489.94, 126.42 489.99, 146.64 490.00 C 166.85 490.00, 187.06 490.00, 207.27 490.00 C 227.48 490.00, 247.70 490.00, 267.91 490.00 C 288.12 490.00, 308.33 490.00, 328.55 490.00 C 348.76 490.00, 368.97 490.00, 389.18 490.00 C 409.39 490.00, 429.61 490.00, 449.82 490.00 C 470.03 489.95, 490.24 489.71, 510.45 489.71 C 530.67 489.71, 550.88 489.95, 571.09 490.00 C 591.30 490.00, 611.52 490.00, 631.73 490.00 C 651.94 489.96, 672.15 489.78, 692.36 489.78 C 712.58 489.78, 732.79 490.00, 753.00 490.00 C 773.21 489.77, 793.42 488.42, 813.64 488.42 C 833.85 488.42, 854.06 490.00, 874.27 490.00 C 894.48 438.92, 914.70 182.09, 934.91 181.91 C 955.12 181.73, 975.33 438.20, 995.55 488.92 C 1015.76 490.00, 1035.97 486.70, 1056.18 486.26 C 1076.39 485.81, 1096.61 490.00, 1116.82 486.26 C 1137.03 473.20, 1157.24 410.19, 1177.45 407.92 C 1197.67 405.65, 1217.88 461.38, 1238.09 472.65 C 1258.30 483.92, 1278.52 474.09, 1298.73 475.53 C 1318.94 476.97, 1339.15 480.53, 1359.36 481.29 C 1379.58 482.04, 1409.89 480.27, 1420.00 480.06" fill="none" stroke="url(#gChanges)" stroke-width="2.5" stroke-linecap="round"/>

  <!-- Moving averages -->
  <path d="M 86.00 488.88 C 96.11 488.91, 126.42 489.04, 146.64 489.10 C 166.85 489.16, 187.06 489.21, 207.27 489.25 C 227.48 489.29, 247.70 490.00, 267.91 489.36 C 288.12 488.41, 308.33 484.54, 328.55 483.57 C 348.76 482.61, 368.97 483.57, 389.18 483.57 C 409.39 483.57, 429.61 486.36, 449.82 483.57 C 470.03 480.79, 490.24 469.64, 510.45 466.86 C 530.67 464.07, 550.88 466.96, 571.09 466.86 C 591.30 466.75, 611.52 466.32, 631.73 466.21 C 651.94 466.11, 672.15 468.57, 692.36 466.21 C 712.58 463.86, 732.79 455.18, 753.00 452.07 C 773.21 448.96, 793.42 448.64, 813.64 447.57 C 833.85 446.50, 854.06 443.29, 874.27 445.64 C 894.48 448.00, 914.70 466.11, 934.91 461.71 C 955.12 457.32, 975.33 430.96, 995.55 419.29 C 1015.76 407.61, 1035.97 396.46, 1056.18 391.64 C 1076.39 386.82, 1096.61 388.86, 1116.82 390.36 C 1137.03 391.86, 1157.24 399.68, 1177.45 400.64 C 1197.67 401.61, 1217.88 399.12, 1238.09 396.14 C 1258.30 393.16, 1278.52 388.41, 1298.73 382.75 C 1318.94 377.09, 1339.15 358.57, 1359.36 362.20 C 1379.58 365.82, 1409.89 397.45, 1420.00 404.50" fill="none" stroke="#a78bfa" stroke-width="2" stroke-dasharray="6,4" stroke-opacity="0.55" filter="url(#glowMA)"/>
  <path d="M 86.00 489.98 C 96.11 489.98, 126.42 489.98, 146.64 489.99 C 166.85 489.99, 187.06 489.99, 207.27 489.99 C 227.48 489.99, 247.70 489.99, 267.91 489.99 C 288.12 489.98, 308.33 489.96, 328.55 489.96 C 348.76 489.95, 368.97 489.96, 389.18 489.96 C 409.39 489.96, 429.61 489.96, 449.82 489.96 C 470.03 489.95, 490.24 489.93, 510.45 489.93 C 530.67 489.92, 550.88 489.97, 571.09 489.93 C 591.30 489.89, 611.52 489.74, 631.73 489.70 C 651.94 489.66, 672.15 490.00, 692.36 489.70 C 712.58 482.37, 732.79 453.08, 753.00 445.73 C 773.21 438.38, 793.42 445.69, 813.64 445.58 C 833.85 445.46, 854.06 445.21, 874.27 445.04 C 894.48 444.87, 914.70 446.58, 934.91 444.54 C 955.12 442.50, 975.33 435.14, 995.55 432.81 C 1015.76 430.48, 1035.97 431.28, 1056.18 430.56 C 1076.39 429.84, 1096.61 421.71, 1116.82 428.49 C 1137.03 435.27, 1157.24 464.34, 1177.45 471.26 C 1197.67 478.18, 1217.88 470.66, 1238.09 469.99 C 1258.30 469.33, 1278.52 468.37, 1298.73 467.28 C 1318.94 466.20, 1339.15 461.81, 1359.36 463.49 C 1379.58 465.17, 1409.89 475.07, 1420.00 477.38" fill="none" stroke="#c4b5fd" stroke-width="1.5" stroke-dasharray="5,4" stroke-opacity="0.4"/>

  <!-- Statistical overlay -->
  <line x1="86" y1="412.8" x2="1420" y2="412.8"
      stroke="#ff8c42" stroke-width="1" stroke-dasharray="8,4" opacity="0.3"/>
    <text x="1432" y="406.8" font-size="8" fill="#ff8c42"
      text-anchor="start" font-family="'Lexend','Segoe UI',sans-serif" font-weight="300" opacity="0.6">μ=17.2</text>

  <!-- Data point circles (inside clip for safety) -->
  <circle cx="86.0" cy="485.5" r="3.0"
        fill="#ff8c42" stroke="#ffd0a0" stroke-width="1" filter="url(#glowOrange)" opacity="0.9">
        <title>2026-03-10: 1 commits</title></circle><circle cx="510.5" cy="445.0" r="3.3"
        fill="#ff8c42" stroke="#ffd0a0" stroke-width="1" filter="url(#glowOrange)" opacity="0.9">
        <title>2026-03-17: 10 commits</title></circle><circle cx="692.4" cy="373.0" r="3.8"
        fill="#ff8c42" stroke="#ffd0a0" stroke-width="1" filter="url(#glowOrange)" opacity="0.9">
        <title>2026-03-20: 26 commits</title></circle><circle cx="813.6" cy="485.5" r="3.0"
        fill="#ff8c42" stroke="#ffd0a0" stroke-width="1" filter="url(#glowOrange)" opacity="0.9">
        <title>2026-03-22: 1 commits</title></circle><circle cx="934.9" cy="346.0" r="4.0"
        fill="#ff8c42" stroke="#ffd0a0" stroke-width="1" filter="url(#glowOrange)" opacity="0.9">
        <title>2026-03-24: 32 commits</title></circle><circle cx="995.5" cy="458.5" r="3.2"
        fill="#ff8c42" stroke="#ffd0a0" stroke-width="1" filter="url(#glowOrange)" opacity="0.9">
        <title>2026-03-25: 7 commits</title></circle><circle cx="1056.2" cy="476.5" r="3.1"
        fill="#ff8c42" stroke="#ffd0a0" stroke-width="1" filter="url(#glowOrange)" opacity="0.9">
        <title>2026-03-26: 3 commits</title></circle><circle cx="1116.8" cy="485.5" r="3.0"
        fill="#ff8c42" stroke="#ffd0a0" stroke-width="1" filter="url(#glowOrange)" opacity="0.9">
        <title>2026-03-27: 1 commits</title></circle><circle cx="1177.5" cy="193.0" r="5.1"
        fill="#ff8c42" stroke="#ffd0a0" stroke-width="1" filter="url(#glowOrange)" opacity="0.9">
        <title>2026-03-28: 66 commits</title></circle><circle cx="1238.1" cy="292.0" r="4.4"
        fill="#ff8c42" stroke="#ffd0a0" stroke-width="1" filter="url(#glowOrange)" opacity="0.9">
        <title>2026-03-29: 44 commits</title></circle><circle cx="1298.7" cy="481.0" r="3.1"
        fill="#ff8c42" stroke="#ffd0a0" stroke-width="1" filter="url(#glowOrange)" opacity="0.9">
        <title>2026-03-30: 2 commits</title></circle><circle cx="1359.4" cy="418.0" r="3.5"
        fill="#ff8c42" stroke="#ffd0a0" stroke-width="1" filter="url(#glowOrange)" opacity="0.9">
        <title>2026-03-31: 16 commits</title></circle><circle cx="1420.0" cy="427.0" r="3.4"
        fill="#ff8c42" stroke="#ffd0a0" stroke-width="1" filter="url(#glowOrange)" opacity="0.9">
        <title>2026-04-01: 14 commits</title></circle>
  <circle cx="86.0" cy="489.9" r="3.5"
        fill="#00d4f5" stroke="#80eeff" stroke-width="0.8" filter="url(#glowCyan)" opacity="0.85">
        <title>2026-03-10: 1 changes/commit</title></circle><circle cx="510.5" cy="489.7" r="3.5"
        fill="#00d4f5" stroke="#80eeff" stroke-width="0.8" filter="url(#glowCyan)" opacity="0.85">
        <title>2026-03-17: 4 changes/commit</title></circle><circle cx="692.4" cy="489.8" r="3.5"
        fill="#00d4f5" stroke="#80eeff" stroke-width="0.8" filter="url(#glowCyan)" opacity="0.85">
        <title>2026-03-20: 3 changes/commit</title></circle><circle cx="813.6" cy="488.4" r="3.5"
        fill="#00d4f5" stroke="#80eeff" stroke-width="0.8" filter="url(#glowCyan)" opacity="0.85">
        <title>2026-03-22: 22 changes/commit</title></circle><circle cx="934.9" cy="181.9" r="3.5"
        fill="#00d4f5" stroke="#80eeff" stroke-width="0.8" filter="url(#glowCyan)" opacity="0.85">
        <title>2026-03-24: 4279 changes/commit</title></circle><circle cx="995.5" cy="488.9" r="3.5"
        fill="#00d4f5" stroke="#80eeff" stroke-width="0.8" filter="url(#glowCyan)" opacity="0.85">
        <title>2026-03-25: 15 changes/commit</title></circle><circle cx="1056.2" cy="486.3" r="3.5"
        fill="#00d4f5" stroke="#80eeff" stroke-width="0.8" filter="url(#glowCyan)" opacity="0.85">
        <title>2026-03-26: 52 changes/commit</title></circle><circle cx="1116.8" cy="486.3" r="3.5"
        fill="#00d4f5" stroke="#80eeff" stroke-width="0.8" filter="url(#glowCyan)" opacity="0.85">
        <title>2026-03-27: 52 changes/commit</title></circle><circle cx="1177.5" cy="407.9" r="3.5"
        fill="#00d4f5" stroke="#80eeff" stroke-width="0.8" filter="url(#glowCyan)" opacity="0.85">
        <title>2026-03-28: 1140 changes/commit</title></circle><circle cx="1238.1" cy="472.6" r="3.5"
        fill="#00d4f5" stroke="#80eeff" stroke-width="0.8" filter="url(#glowCyan)" opacity="0.85">
        <title>2026-03-29: 241 changes/commit</title></circle><circle cx="1298.7" cy="475.5" r="3.5"
        fill="#00d4f5" stroke="#80eeff" stroke-width="0.8" filter="url(#glowCyan)" opacity="0.85">
        <title>2026-03-30: 201 changes/commit</title></circle><circle cx="1359.4" cy="481.3" r="3.5"
        fill="#00d4f5" stroke="#80eeff" stroke-width="0.8" filter="url(#glowCyan)" opacity="0.85">
        <title>2026-03-31: 121 changes/commit</title></circle><circle cx="1420.0" cy="480.1" r="3.5"
        fill="#00d4f5" stroke="#80eeff" stroke-width="0.8" filter="url(#glowCyan)" opacity="0.85">
        <title>2026-04-01: 138 changes/commit</title></circle>
</g>

<!-- ════ ANNOTATIONS ════ -->

        <line x1="1177.5" y1="181.0"
          x2="1177.5" y2="172.0"
          stroke="#2563eb" stroke-width="1.2" stroke-dasharray="4,4" opacity="0.65"/>
        <rect x="1112.5" y="148.0"
          width="130" height="24" rx="6"
          fill="#030e26" stroke="#2563eb" stroke-width="1" opacity="0.96"/>
        <text x="1177.5" y="164.0"
          font-size="10" fill="#93c5fd" text-anchor="middle"
          font-family="'Lexend','Segoe UI',sans-serif" font-weight="400"
          letter-spacing="0.5">⬡  Peak · 66 commits</text>
        <line x1="934.9" y1="494" x2="1420.0" y2="494"
          stroke="#f472b6" stroke-width="2.5" stroke-linecap="round" opacity="0.7"/>
        <circle cx="934.9" cy="494" r="3" fill="#f472b6" opacity="0.9"/>
        <circle cx="1420.0" cy="494" r="3" fill="#f472b6" opacity="0.9"/>
        <text x="1177.5" y="508" font-size="8.5" fill="#f472b6"
          text-anchor="middle" font-family="'Lexend','Segoe UI',sans-serif"
          font-weight="400" opacity="0.85">🔥 9-day streak</text>
        <line x1="934.9" y1="130" x2="934.9" y2="490"
          stroke="#f472b6" stroke-width="0.8" stroke-dasharray="3,6" opacity="0.35"/>

<!-- ════ CORNER BRACKETS ════ -->
<path d="M 86 152.0 L 86 130 L 108.0 130"
      fill="none" stroke="#4a90e2" stroke-width="2" stroke-opacity="0.85" stroke-linecap="round"/><path d="M 1420 152.0 L 1420 130 L 1398.0 130"
      fill="none" stroke="#4a90e2" stroke-width="2" stroke-opacity="0.85" stroke-linecap="round"/><path d="M 86 468.0 L 86 490 L 108.0 490"
      fill="none" stroke="#4a90e2" stroke-width="2" stroke-opacity="0.85" stroke-linecap="round"/><path d="M 1420 468.0 L 1420 490 L 1398.0 490"
      fill="none" stroke="#4a90e2" stroke-width="2" stroke-opacity="0.85" stroke-linecap="round"/>

<!-- ════ HEATMAP ════ -->
<text x="749" y="646" font-size="11" fill="#3d7ed4"
    text-anchor="middle" font-family="'Lexend','Segoe UI',sans-serif"
    letter-spacing="3" font-weight="400">CONTRIBUTION  CALENDAR</text><text x="721.5" y="686"
        font-size="9" fill="#3d7ed4" text-anchor="end"
        font-family="'Lexend','Segoe UI',sans-serif" font-weight="300">M</text><text x="721.5" y="716"
        font-size="9" fill="#3d7ed4" text-anchor="end"
        font-family="'Lexend','Segoe UI',sans-serif" font-weight="300">W</text><text x="721.5" y="746"
        font-size="9" fill="#3d7ed4" text-anchor="end"
        font-family="'Lexend','Segoe UI',sans-serif" font-weight="300">F</text><rect x="727.5" y="660.0"
        width="12" height="12" rx="2.5" fill="#0a1630"
        stroke="#0d2464" stroke-width="0.5" stroke-opacity="0.4">
        <title>2026-03-08: 0 commits</title></rect><rect x="727.5" y="675.0"
        width="12" height="12" rx="2.5" fill="#0a1630"
        stroke="#0d2464" stroke-width="0.5" stroke-opacity="0.4">
        <title>2026-03-09: 0 commits</title></rect><rect x="727.5" y="690.0"
        width="12" height="12" rx="2.5" fill="#0d3068"
        stroke="#0d2464" stroke-width="0.5" stroke-opacity="0.4">
        <title>2026-03-10: 1 commits</title></rect><rect x="727.5" y="705.0"
        width="12" height="12" rx="2.5" fill="#0a1630"
        stroke="#0d2464" stroke-width="0.5" stroke-opacity="0.4">
        <title>2026-03-11: 0 commits</title></rect><rect x="727.5" y="720.0"
        width="12" height="12" rx="2.5" fill="#0a1630"
        stroke="#0d2464" stroke-width="0.5" stroke-opacity="0.4">
        <title>2026-03-12: 0 commits</title></rect><rect x="727.5" y="735.0"
        width="12" height="12" rx="2.5" fill="#0a1630"
        stroke="#0d2464" stroke-width="0.5" stroke-opacity="0.4">
        <title>2026-03-13: 0 commits</title></rect><rect x="727.5" y="750.0"
        width="12" height="12" rx="2.5" fill="#0a1630"
        stroke="#0d2464" stroke-width="0.5" stroke-opacity="0.4">
        <title>2026-03-14: 0 commits</title></rect><rect x="742.5" y="660.0"
        width="12" height="12" rx="2.5" fill="#0a1630"
        stroke="#0d2464" stroke-width="0.5" stroke-opacity="0.4">
        <title>2026-03-15: 0 commits</title></rect><rect x="742.5" y="675.0"
        width="12" height="12" rx="2.5" fill="#0a1630"
        stroke="#0d2464" stroke-width="0.5" stroke-opacity="0.4">
        <title>2026-03-16: 0 commits</title></rect><rect x="742.5" y="690.0"
        width="12" height="12" rx="2.5" fill="#0d3068"
        stroke="#0d2464" stroke-width="0.5" stroke-opacity="0.4">
        <title>2026-03-17: 10 commits</title></rect><rect x="742.5" y="705.0"
        width="12" height="12" rx="2.5" fill="#0a1630"
        stroke="#0d2464" stroke-width="0.5" stroke-opacity="0.4">
        <title>2026-03-18: 0 commits</title></rect><rect x="742.5" y="720.0"
        width="12" height="12" rx="2.5" fill="#0a1630"
        stroke="#0d2464" stroke-width="0.5" stroke-opacity="0.4">
        <title>2026-03-19: 0 commits</title></rect><rect x="742.5" y="735.0"
        width="12" height="12" rx="2.5" fill="#1e56a8"
        stroke="#0d2464" stroke-width="0.5" stroke-opacity="0.4">
        <title>2026-03-20: 26 commits</title></rect><rect x="742.5" y="750.0"
        width="12" height="12" rx="2.5" fill="#0a1630"
        stroke="#0d2464" stroke-width="0.5" stroke-opacity="0.4">
        <title>2026-03-21: 0 commits</title></rect><rect x="757.5" y="660.0"
        width="12" height="12" rx="2.5" fill="#0d3068"
        stroke="#0d2464" stroke-width="0.5" stroke-opacity="0.4">
        <title>2026-03-22: 1 commits</title></rect><rect x="757.5" y="675.0"
        width="12" height="12" rx="2.5" fill="#0a1630"
        stroke="#0d2464" stroke-width="0.5" stroke-opacity="0.4">
        <title>2026-03-23: 0 commits</title></rect><rect x="757.5" y="690.0"
        width="12" height="12" rx="2.5" fill="#1e56a8"
        stroke="#0d2464" stroke-width="0.5" stroke-opacity="0.4">
        <title>2026-03-24: 32 commits</title></rect><rect x="757.5" y="705.0"
        width="12" height="12" rx="2.5" fill="#0d3068"
        stroke="#0d2464" stroke-width="0.5" stroke-opacity="0.4">
        <title>2026-03-25: 7 commits</title></rect><rect x="757.5" y="720.0"
        width="12" height="12" rx="2.5" fill="#0d3068"
        stroke="#0d2464" stroke-width="0.5" stroke-opacity="0.4">
        <title>2026-03-26: 3 commits</title></rect><rect x="757.5" y="735.0"
        width="12" height="12" rx="2.5" fill="#0d3068"
        stroke="#0d2464" stroke-width="0.5" stroke-opacity="0.4">
        <title>2026-03-27: 1 commits</title></rect><rect x="757.5" y="750.0"
        width="12" height="12" rx="2.5" fill="#93c5fd"
        stroke="#0d2464" stroke-width="0.5" stroke-opacity="0.4">
        <title>2026-03-28: 66 commits</title></rect><rect x="772.5" y="660.0"
        width="12" height="12" rx="2.5" fill="#3b82f6"
        stroke="#0d2464" stroke-width="0.5" stroke-opacity="0.4">
        <title>2026-03-29: 44 commits</title></rect><rect x="772.5" y="675.0"
        width="12" height="12" rx="2.5" fill="#0d3068"
        stroke="#0d2464" stroke-width="0.5" stroke-opacity="0.4">
        <title>2026-03-30: 2 commits</title></rect><rect x="772.5" y="690.0"
        width="12" height="12" rx="2.5" fill="#0d3068"
        stroke="#0d2464" stroke-width="0.5" stroke-opacity="0.4">
        <title>2026-03-31: 16 commits</title></rect><rect x="772.5" y="705.0"
        width="12" height="12" rx="2.5" fill="#0d3068"
        stroke="#0d2464" stroke-width="0.5" stroke-opacity="0.4">
        <title>2026-04-01: 14 commits</title></rect><rect x="772.5" y="720.0"
        width="12" height="12" rx="2.5" fill="#0a1630"
        stroke="#0d2464" stroke-width="0.5" stroke-opacity="0.4">
        <title>2026-04-02: 0 commits</title></rect><rect x="772.5" y="735.0"
        width="12" height="12" rx="2.5" fill="#0a1630"
        stroke="#0d2464" stroke-width="0.5" stroke-opacity="0.4">
        <title>2026-04-03: 0 commits</title></rect><rect x="772.5" y="750.0"
        width="12" height="12" rx="2.5" fill="#0a1630"
        stroke="#0d2464" stroke-width="0.5" stroke-opacity="0.4">
        <title>2026-04-04: 0 commits</title></rect><text x="772.5" y="656" font-size="8.5" fill="#3d7ed4"
        font-family="'Lexend','Segoe UI',sans-serif" font-weight="300">Apr</text><rect x="787.5" y="660.0"
        width="12" height="12" rx="2.5" fill="#0a1630"
        stroke="#0d2464" stroke-width="0.5" stroke-opacity="0.4">
        <title>2026-04-05: 0 commits</title></rect><rect x="787.5" y="675.0"
        width="12" height="12" rx="2.5" fill="#0a1630"
        stroke="#0d2464" stroke-width="0.5" stroke-opacity="0.4">
        <title>2026-04-06: 0 commits</title></rect><rect x="787.5" y="690.0"
        width="12" height="12" rx="2.5" fill="#0a1630"
        stroke="#0d2464" stroke-width="0.5" stroke-opacity="0.4">
        <title>2026-04-07: 0 commits</title></rect><rect x="787.5" y="705.0"
        width="12" height="12" rx="2.5" fill="#0a1630"
        stroke="#0d2464" stroke-width="0.5" stroke-opacity="0.4">
        <title>2026-04-08: 0 commits</title></rect><rect x="787.5" y="720.0"
        width="12" height="12" rx="2.5" fill="#0a1630"
        stroke="#0d2464" stroke-width="0.5" stroke-opacity="0.4">
        <title>2026-04-09: 0 commits</title></rect><rect x="787.5" y="735.0"
        width="12" height="12" rx="2.5" fill="#0a1630"
        stroke="#0d2464" stroke-width="0.5" stroke-opacity="0.4">
        <title>2026-04-10: 0 commits</title></rect><rect x="787.5" y="750.0"
        width="12" height="12" rx="2.5" fill="#0a1630"
        stroke="#0d2464" stroke-width="0.5" stroke-opacity="0.4">
        <title>2026-04-11: 0 commits</title></rect>

<!-- ════ BOTTOM PANELS ════ -->

    <rect x="86" y="823" width="320" height="110"
      rx="4" fill="#030e26" fill-opacity="0.6" stroke="#1a3f7a" stroke-width="0.8"/>
    <text x="246" y="819" font-size="8" fill="#3d7ed4"
      text-anchor="middle" font-family="'Lexend','Segoe UI',sans-serif"
      letter-spacing="2" font-weight="300">OVERVIEW</text>
    <g clip-path="url(#minimapClip)">
      <path d="M 86.00 931.58 C 88.42 931.82, 95.70 932.76, 100.55 933.00 C 105.39 933.24, 110.24 933.00, 115.09 933.00 C 119.94 933.00, 124.79 933.00, 129.64 933.00 C 134.48 933.00, 139.33 933.00, 144.18 933.00 C 149.03 933.00, 153.88 933.00, 158.73 933.00 C 163.58 933.00, 168.42 935.36, 173.27 933.00 C 178.12 930.64, 182.97 918.83, 187.82 918.83 C 192.67 918.83, 197.52 930.64, 202.36 933.00 C 207.21 935.36, 212.06 939.14, 216.91 933.00 C 221.76 926.86, 226.61 896.17, 231.45 896.17 C 236.30 896.17, 241.15 927.10, 246.00 933.00 C 250.85 938.90, 255.70 931.58, 260.55 931.58 C 265.39 931.58, 270.24 940.32, 275.09 933.00 C 279.94 925.68, 284.79 889.32, 289.64 887.67 C 294.48 886.01, 299.33 916.24, 304.18 923.08 C 309.03 929.93, 313.88 927.33, 318.73 928.75 C 323.58 930.17, 328.42 946.46, 333.27 931.58 C 338.12 916.71, 342.97 849.65, 347.82 839.50 C 352.67 829.35, 357.52 855.56, 362.36 870.67 C 367.21 885.78, 372.06 923.56, 376.91 930.17 C 381.76 936.78, 386.61 913.17, 391.45 910.33 C 396.30 907.50, 403.58 912.69, 406.00 913.17 L 406.00 933 L 86.00 933 Z" fill="#4a90e2" fill-opacity="0.15"/>
      <path d="M 86.00 931.58 C 88.42 931.82, 95.70 932.76, 100.55 933.00 C 105.39 933.24, 110.24 933.00, 115.09 933.00 C 119.94 933.00, 124.79 933.00, 129.64 933.00 C 134.48 933.00, 139.33 933.00, 144.18 933.00 C 149.03 933.00, 153.88 933.00, 158.73 933.00 C 163.58 933.00, 168.42 935.36, 173.27 933.00 C 178.12 930.64, 182.97 918.83, 187.82 918.83 C 192.67 918.83, 197.52 930.64, 202.36 933.00 C 207.21 935.36, 212.06 939.14, 216.91 933.00 C 221.76 926.86, 226.61 896.17, 231.45 896.17 C 236.30 896.17, 241.15 927.10, 246.00 933.00 C 250.85 938.90, 255.70 931.58, 260.55 931.58 C 265.39 931.58, 270.24 940.32, 275.09 933.00 C 279.94 925.68, 284.79 889.32, 289.64 887.67 C 294.48 886.01, 299.33 916.24, 304.18 923.08 C 309.03 929.93, 313.88 927.33, 318.73 928.75 C 323.58 930.17, 328.42 946.46, 333.27 931.58 C 338.12 916.71, 342.97 849.65, 347.82 839.50 C 352.67 829.35, 357.52 855.56, 362.36 870.67 C 367.21 885.78, 372.06 923.56, 376.91 930.17 C 381.76 936.78, 386.61 913.17, 391.45 910.33 C 396.30 907.50, 403.58 912.69, 406.00 913.17" fill="none" stroke="#4a90e2" stroke-width="1.5" stroke-opacity="0.7"/>
    </g>
    <clipPath id="minimapClip">
      <rect x="86" y="823" width="320" height="110" rx="4"/>
    </clipPath><path d="M 1280.00 854.90
      L 1280.00 836.00
      A 42 42 0 1 1 1247.81 851.03
      L 1262.29 863.17
      A 23.1 23.1 0 1 0 1280.00 854.90 Z"
      fill="#4a90e2" fill-opacity="0.8" stroke="#030e26" stroke-width="1.5">
      <title>Kieran Lucas: 192 commits (86%)</title></path><path d="M 1262.29 863.17
      L 1247.81 851.03
      A 42 42 0 0 1 1268.32 837.66
      L 1273.58 855.81
      A 23.1 23.1 0 0 0 1262.29 863.17 Z"
      fill="#ff8c42" fill-opacity="0.8" stroke="#030e26" stroke-width="1.5">
      <title>github-actions: 21 commits (9%)</title></path><path d="M 1273.58 855.81
      L 1268.32 837.66
      A 42 42 0 0 1 1275.28 836.27
      L 1277.40 855.05
      A 23.1 23.1 0 0 0 1273.58 855.81 Z"
      fill="#00d4f5" fill-opacity="0.8" stroke="#030e26" stroke-width="1.5">
      <title>stillqhuy: 6 commits (3%)</title></path><path d="M 1277.40 855.05
      L 1275.28 836.27
      A 42 42 0 0 1 1280.00 836.00
      L 1280.00 854.90
      A 23.1 23.1 0 0 0 1277.40 855.05 Z"
      fill="#22c55e" fill-opacity="0.8" stroke="#030e26" stroke-width="1.5">
      <title>HumaNormal: 4 commits (2%)</title></path><text x="1280" y="874" font-size="9" fill="#3d7ed4" text-anchor="middle"
    font-family="'Lexend','Segoe UI',sans-serif" letter-spacing="1.5" font-weight="300">AUTHORS</text><text x="1280" y="892" font-size="16" fill="#cce8ff" text-anchor="middle"
    font-family="'Lexend','Segoe UI',sans-serif" font-weight="600">4</text><rect x="1338" y="830" width="8" height="8" rx="2" fill="#4a90e2" opacity="0.85"/><text x="1352" y="838" font-size="9.5" fill="#3d7ed4"
      font-family="'Lexend','Segoe UI',sans-serif" font-weight="300">Kieran Lucas (192)</text><rect x="1338" y="848" width="8" height="8" rx="2" fill="#ff8c42" opacity="0.85"/><text x="1352" y="856" font-size="9.5" fill="#3d7ed4"
      font-family="'Lexend','Segoe UI',sans-serif" font-weight="300">github-actions (21)</text><rect x="1338" y="866" width="8" height="8" rx="2" fill="#00d4f5" opacity="0.85"/><text x="1352" y="874" font-size="9.5" fill="#3d7ed4"
      font-family="'Lexend','Segoe UI',sans-serif" font-weight="300">stillqhuy (6)</text><rect x="1338" y="884" width="8" height="8" rx="2" fill="#22c55e" opacity="0.85"/><text x="1352" y="892" font-size="9.5" fill="#3d7ed4"
      font-family="'Lexend','Segoe UI',sans-serif" font-weight="300">HumaNormal (4)</text>

<!-- ════ WAVES ════ -->
<path d="M 0 963 Q 93.6 956.0 187.3 963 Q 280.9 956.0 374.5 963 Q 468.1 956.0 561.8 963 Q 655.4 956.0 749.0 963 Q 842.6 956.0 936.3 963 Q 1029.9 956.0 1123.5 963 Q 1217.1 956.0 1310.8 963 Q 1404.4 956.0 1498.0 963" fill="none" stroke="#1948a0" stroke-width="1.2" stroke-opacity="0.35"/>
<path d="M 0 958 Q 93.6 952.5 187.3 958 Q 280.9 952.5 374.5 958 Q 468.1 952.5 561.8 958 Q 655.4 952.5 749.0 958 Q 842.6 952.5 936.3 958 Q 1029.9 952.5 1123.5 958 Q 1217.1 952.5 1310.8 958 Q 1404.4 952.5 1498.0 958" fill="none" stroke="#1948a0" stroke-width="1" stroke-opacity="0.29"/>
<path d="M 0 953 Q 93.6 949.0 187.3 953 Q 280.9 949.0 374.5 953 Q 468.1 949.0 561.8 953 Q 655.4 949.0 749.0 953 Q 842.6 949.0 936.3 953 Q 1029.9 949.0 1123.5 953 Q 1217.1 949.0 1310.8 953 Q 1404.4 949.0 1498.0 953" fill="none" stroke="#1948a0" stroke-width="0.7999999999999999" stroke-opacity="0.22999999999999998"/>
<path d="M 0 948 Q 93.6 945.5 187.3 948 Q 280.9 945.5 374.5 948 Q 468.1 945.5 561.8 948 Q 655.4 945.5 749.0 948 Q 842.6 945.5 936.3 948 Q 1029.9 945.5 1123.5 948 Q 1217.1 945.5 1310.8 948 Q 1404.4 945.5 1498.0 948" fill="none" stroke="#1948a0" stroke-width="0.5999999999999999" stroke-opacity="0.16999999999999998"/>

</svg>